<?xml version="1.0" encoding="UTF-8" standalone="no"?>
<svg width="1200px" height="390px" viewBox="0 0 1200 390" version="1.1" xmlns="http://www.w3.org/2000/svg" xmlns:xlink="http://www.w3.org/1999/xlink" xmlns:sketch="http://www.bohemiancoding.com/sketch/ns">
    <!-- Generator: Sketch Beta 3.3 (11855) - http://www.bohemiancoding.com/sketch -->
    <title>Artboard 10</title>
    <desc>Created with Sketch Beta.</desc>
    <defs></defs>
    <g id="Page-1" stroke="none" stroke-width="1" fill="none" fill-rule="evenodd" sketch:type="MSPage">
        <g id="Artboard-10" sketch:type="MSArtboardGroup" fill="#F1BA07">
            <path d="M27.616,243 L28.536,235.64 C31.8480166,233.799991 37.3066286,231.837344 44.912,229.752 L44.912,128.736 L33.136,127.08 C29.5786489,126.589331 27.8,124.99468 27.8,122.296 C27.8,120.823993 28.3519945,118.554682 29.456,115.488 L80.608,115.488 L79.688,122.664 C77.9706581,123.645338 75.4560166,124.718661 72.144,125.884 C68.8319834,127.049339 65.7653474,127.999996 62.944,128.736 L62.944,174.736 L115.016,127.448 C111.090647,126.711996 107.533349,125.914671 104.344,125.056 C102.503991,124.565331 101.308003,124.074669 100.756,123.584 C100.203997,123.093331 99.928,122.418671 99.928,121.56 C99.928,119.719991 100.295996,117.696011 101.032,115.488 L148.504,115.488 C148.504,117.941346 148.320002,119.84266 147.952,121.192 C147.583998,122.173338 146.449343,123.185328 144.548,124.228 C142.646657,125.270672 139.488022,126.527993 135.072,128 L80.424,175.472 L94.224,190.008 C105.754724,202.152061 116.579949,212.363959 126.7,220.644 C136.820051,228.924041 145.130634,234.41332 151.632,237.112 C150.037325,240.056015 148.105345,242.171994 145.836,243.46 C143.566655,244.748006 140.592018,245.392 136.912,245.392 C132.741312,245.392 128.662687,244.134679 124.676,241.62 C120.689313,239.105321 114.586708,233.984039 106.368,226.256 C99.8666342,220.245303 92.2613769,212.60938 83.552,203.348 C74.8426231,194.08662 67.9733585,186.389364 62.944,180.256 L62.944,229.752 L74.536,231.408 C78.0933511,231.898669 79.872,233.49332 79.872,236.192 C79.872,237.664007 79.3200055,239.933318 78.216,243 L27.616,243 Z M155.864,243 L156.784,235.64 C161.077355,233.799991 166.781298,231.960009 173.896,230.12 L173.896,164.8 L156.048,161.488 C155.925333,160.751996 155.864,159.280011 155.864,157.072 C155.864,155.967994 156.385328,155.048004 157.428,154.312 C158.470672,153.575996 160.586651,152.717338 163.776,151.736 C167.333351,150.754662 171.503976,149.896004 176.288,149.16 C181.072024,148.423996 185.181316,148.056 188.616,148.056 L190.824,148.056 L190.824,230.12 L203.336,231.96 C206.525349,232.450669 208.12,233.861322 208.12,236.192 C208.12,237.54134 207.690671,239.810651 206.832,243 L155.864,243 Z M179.6,126.896 C171.50396,126.896 167.456,122.970706 167.456,115.12 C167.456,110.826645 168.590655,107.545345 170.86,105.276 C173.129345,103.006655 176.28798,101.872 180.336,101.872 C188.43204,101.872 192.48,105.797294 192.48,113.648 C192.48,117.941355 191.345345,121.222655 189.076,123.492 C186.806655,125.761345 183.64802,126.896 179.6,126.896 L179.6,126.896 Z M284.112,243 L285.032,235.456 C287.608013,233.861325 291.717305,232.082676 297.36,230.12 L297.36,185.776 C297.36,177.434625 295.826682,171.362686 292.76,167.56 C289.693318,163.757314 284.725368,161.856 277.856,161.856 C267.674616,161.856 258.597373,166.026625 250.624,174.368 L250.624,230.12 L260.008,231.776 C261.848009,232.144002 263.135996,232.634664 263.872,233.248 C264.608004,233.861336 264.976,234.84266 264.976,236.192 C264.976,237.786675 264.485338,240.055985 263.504,243 L217.872,243 L218.792,235.64 C223.453357,233.554656 228.421307,231.714675 233.696,230.12 L233.696,165.72 L215.848,162.04 C215.725333,161.058662 215.664,159.586676 215.664,157.624 C215.664,156.642662 216.123995,155.845336 217.044,155.232 C217.964005,154.618664 220.141316,153.63734 223.576,152.288 C226.520015,151.183994 230.291977,150.233337 234.892,149.436 C239.492023,148.638663 243.693314,148.178667 247.496,148.056 L248.784,163.144 C254.18136,157.501305 259.731971,153.392013 265.436,150.816 C271.140029,148.239987 277.487965,146.952 284.48,146.952 C294.293382,146.952 301.714642,149.773305 306.744,155.416 C311.773358,161.058695 314.288,169.277279 314.288,180.072 L314.288,230.12 L324.96,231.96 C328.149349,232.450669 329.744,233.861322 329.744,236.192 C329.744,237.54134 329.314671,239.810651 328.456,243 L284.112,243 Z M411.256,231.408 C407.943983,235.578688 403.497361,238.890654 397.916,241.344 C392.334639,243.797346 386.354699,245.024 379.976,245.024 C367.709272,245.024 358.141368,240.97604 351.272,232.88 C344.402632,224.78396 340.968,213.560072 340.968,199.208 C340.968,188.903948 342.930647,179.826706 346.856,171.976 C350.781353,164.125294 356.423963,157.992022 363.784,153.576 C371.144037,149.159978 379.79195,146.952 389.728,146.952 C395.616029,146.952 402.17863,147.810658 409.416,149.528 L409.416,116.96 L391.752,115.304 C391.506665,114.077327 391.384,112.298678 391.384,109.968 C391.384,109.109329 391.843995,108.34267 392.764,107.668 C393.684005,106.99333 395.49332,106.165338 398.192,105.184 C401.381349,103.957327 405.705306,102.914671 411.164,102.056 C416.622694,101.197329 421.682643,100.768 426.344,100.768 L426.344,230.12 L446.216,232.88 C446.461335,234.842676 446.584,236.437327 446.584,237.664 C446.584,239.872011 444.498688,241.466662 440.328,242.448 C436.157312,243.552006 427.570732,244.287998 414.568,244.656 L411.256,231.408 Z M409.416,164.248 C405.613314,162.530658 402.178682,161.33467 399.112,160.66 C396.045318,159.98533 392.672018,159.648 388.992,159.648 C379.301285,159.648 371.818693,162.714636 366.544,168.848 C361.269307,174.981364 358.632,183.69061 358.632,194.976 C358.632,218.528118 367.525244,230.304 385.312,230.304 C389.728022,230.304 394.113312,229.322676 398.468,227.36 C402.822688,225.397324 406.471985,222.821349 409.416,219.632 L409.416,164.248 Z M450.632,243 L451.552,236.376 C457.072028,233.922654 462.714638,231.837342 468.48,230.12 L468.48,116.96 L450.816,115.304 C450.570665,114.077327 450.448,112.298678 450.448,109.968 C450.448,109.109329 450.907995,108.34267 451.828,107.668 C452.748005,106.99333 454.55732,106.165338 457.256,105.184 C460.445349,103.957327 464.769306,102.914671 470.228,102.056 C475.686694,101.197329 480.746643,100.768 485.408,100.768 L485.408,230.12 L498.104,232.144 C501.416017,232.634669 503.072,233.983989 503.072,236.192 C503.072,237.54134 502.642671,239.810651 501.784,243 L450.632,243 Z M591.576,230.488 C591.576,234.658688 588.54003,238.123986 582.468,240.884 C576.39597,243.644014 568.760046,245.024 559.56,245.024 C528.89318,245.024 513.56,229.69082 513.56,199.024 C513.56,182.586584 517.546627,169.798712 525.52,160.66 C533.493373,151.521288 544.594596,146.952 558.824,146.952 C569.618721,146.952 578.021303,150.079969 584.032,156.336 C590.042697,162.592031 593.048,171.423943 593.048,182.832 C593.048,188.22936 592.37334,193.074645 591.024,197.368 L530.304,197.368 C530.549335,219.693445 541.589224,230.856 563.424,230.856 C572.256044,230.856 581.63995,229.016018 591.576,225.336 L591.576,230.488 Z M576.12,185.408 C576.12,176.575956 574.402684,170.013355 570.968,165.72 C567.533316,161.426645 562.258702,159.28 555.144,159.28 C547.90663,159.28 542.233354,161.518644 538.124,165.996 C534.014646,170.473356 531.714669,176.943958 531.224,185.408 L576.12,185.408 Z M670.88,228.096 C680.81605,228.096 688.329308,229.874649 693.42,233.432 C698.510692,236.989351 701.056,242.1413 701.056,248.888 C701.056,255.757368 698.756023,262.013305 694.156,267.656 C689.555977,273.298695 683.054709,277.80665 674.652,281.18 C666.249291,284.55335 656.589388,286.24 645.672,286.24 C632.914603,286.24 623.040035,284.032022 616.048,279.616 C609.055965,275.199978 605.56,269.005373 605.56,261.032 C605.56,256.861312 606.817321,253.058684 609.332,249.624 C611.846679,246.189316 616.109303,242.509353 622.12,238.584 C616.72264,235.394651 614.024,230.917362 614.024,225.152 C614.024,221.471982 615.03599,217.730686 617.06,213.928 C619.08401,210.125314 621.751983,206.752015 625.064,203.808 C617.703963,198.042638 614.024,189.946719 614.024,179.52 C614.024,173.263969 615.557318,167.682691 618.624,162.776 C621.690682,157.869309 626.106638,154.005347 631.872,151.184 C637.637362,148.362653 644.322629,146.952 651.928,146.952 C659.16537,146.952 665.727971,148.178654 671.616,150.632 C681.920052,148.178654 690.199969,146.952 696.456,146.952 C701.976028,146.952 704.736,148.97598 704.736,153.024 C704.736,154.864009 704.337337,156.887989 703.54,159.096 C702.742663,161.304011 701.792006,163.143993 700.688,164.616 C698.357322,163.26666 695.352018,162.009339 691.672,160.844 C687.991982,159.678661 684.496017,158.912002 681.184,158.544 C686.704028,164.677364 689.464,171.607961 689.464,179.336 C689.464,188.904048 685.998701,196.631971 679.068,202.52 C672.137299,208.408029 662.968057,211.352 651.56,211.352 C644.8133,211.352 639.109357,210.493342 634.448,208.776 C631.503985,212.210684 630.032,215.767982 630.032,219.448 C630.032,222.514682 631.411986,224.72266 634.172,226.072 C636.932014,227.42134 641.623967,228.096 648.248,228.096 L670.88,228.096 Z M648.984,243.552 C643.709307,243.552 638.557358,243.184004 633.528,242.448 C629.847982,245.14668 627.026676,247.906653 625.064,250.728 C623.101324,253.549347 622.12,256.30932 622.12,259.008 C622.12,263.424022 624.235979,266.827988 628.468,269.22 C632.700021,271.612012 638.741294,272.808 646.592,272.808 C657.754722,272.808 666.95463,270.937352 674.192,267.196 C681.42937,263.454648 685.048,258.701362 685.048,252.936 C685.048,249.623983 684.005344,247.232007 681.92,245.76 C679.834656,244.287993 676.277358,243.552 671.248,243.552 L648.984,243.552 Z M673.272,179.52 C673.272,172.7733 671.432018,167.682684 667.752,164.248 C664.071982,160.813316 658.674702,159.096 651.56,159.096 C644.32263,159.096 638.956017,160.690651 635.46,163.88 C631.963983,167.069349 630.216,172.0373 630.216,178.784 C630.216,185.5307 632.055982,190.621316 635.736,194.056 C639.416018,197.490684 644.813298,199.208 651.928,199.208 C659.16537,199.208 664.531983,197.613349 668.028,194.424 C671.524017,191.234651 673.272,186.2667 673.272,179.52 L673.272,179.52 Z M806.304,234.168 C806.304,235.51734 805.261344,236.989325 803.176,238.584 C801.090656,240.178675 798.36135,241.589327 794.988,242.816 C791.61465,244.042673 788.394682,244.656 785.328,244.656 C782.138651,244.656 779.409345,243.521345 777.14,241.252 C774.870655,238.982655 773.245338,235.701355 772.264,231.408 C769.197318,235.578688 764.996027,238.890654 759.66,241.344 C754.323973,243.797346 748.773362,245.024 743.008,245.024 C734.789292,245.024 728.134692,242.632024 723.044,237.848 C717.953308,233.063976 715.408,226.869371 715.408,219.264 C715.408,214.479976 716.450656,210.432017 718.536,207.12 C720.621344,203.807983 723.871978,201.048011 728.288,198.84 C732.704022,196.631989 738.315966,194.822674 745.124,193.412 C751.932034,192.001326 760.242618,190.928004 770.056,190.192 L770.056,180.072 C770.056,172.589296 768.860012,167.253349 766.468,164.064 C764.075988,160.874651 759.997362,159.28 754.232,159.28 C747.4853,159.28 742.548016,160.813318 739.42,163.88 C736.291984,166.946682 734.666667,171.975965 734.544,178.968 L731.416,178.968 C726.877311,178.968 723.59601,178.232007 721.572,176.76 C719.54799,175.287993 718.536,172.896017 718.536,169.584 C718.536,166.271983 720.345315,162.898684 723.964,159.464 C727.582685,156.029316 732.489302,153.085346 738.684,150.632 C744.878698,148.178654 751.226634,146.952 757.728,146.952 C768.277386,146.952 775.759978,149.31331 780.176,154.036 C784.592022,158.75869 786.8,166.76261 786.8,178.048 L786.8,219.08 C786.8,223.005353 787.689324,225.887991 789.468,227.728 C791.246676,229.568009 794.098647,230.488 798.024,230.488 C800.600013,230.488 803.359985,230.365335 806.304,230.12 L806.304,234.168 Z M770.056,201.968 L764.168,202.336 C752.146607,203.194671 743.866689,204.697323 739.328,206.844 C734.789311,208.990677 732.52,212.517309 732.52,217.424 C732.52,221.594688 734.083984,225.02932 737.212,227.728 C740.340016,230.42668 744.357309,231.776 749.264,231.776 C753.31202,231.776 757.390646,230.672011 761.5,228.464 C765.609354,226.255989 768.461325,223.618682 770.056,220.552 L770.056,201.968 Z M810.72,243 L811.64,236.192 C817.773364,233.738654 823.53864,231.714675 828.936,230.12 L828.936,165.72 L811.088,162.04 C810.965333,161.426664 810.904,159.954678 810.904,157.624 C810.904,156.642662 811.363995,155.845336 812.284,155.232 C813.204005,154.618664 815.381316,153.63734 818.816,152.288 C821.760015,151.183994 825.531977,150.233337 830.132,149.436 C834.732023,148.638663 838.933314,148.178667 842.736,148.056 L844.392,166.088 L845.312,166.088 C850.586693,159.3413 855.615976,154.465348 860.4,151.46 C865.184024,148.454652 870.397305,146.952 876.04,146.952 C879.597351,146.952 882.326657,147.749325 884.228,149.344 C886.129343,150.938675 887.08,153.269318 887.08,156.336 C887.08,159.280015 885.117353,163.45064 881.192,168.848 C877.021312,165.903985 872.605357,164.432 867.944,164.432 C860.583963,164.432 853.224037,169.338618 845.864,179.152 L845.864,230.12 L863.528,231.776 C866.594682,232.144002 868.128,233.554654 868.128,236.008 C868.128,238.093344 867.637338,240.423987 866.656,243 L810.72,243 Z M960.68,233.984 C960.68,235.946676 959.453346,237.755992 957,239.412 C954.546654,241.068008 951.142688,242.417328 946.788,243.46 C942.433312,244.502672 937.618693,245.024 932.344,245.024 C923.634623,245.024 917.409352,243.00002 913.668,238.952 C909.926648,234.90398 908.056,228.034715 908.056,218.344 L908.056,162.592 L889.656,162.592 L890.576,154.864 C892.538676,153.759994 898.303952,151.920013 907.872,149.344 L908.608,138.12 C909.344004,128.551952 913.882625,123.768 922.224,123.768 L924.984,123.768 L924.984,149.344 L952.952,149.344 C956.018682,149.344 957.552,150.631987 957.552,153.208 C957.552,154.312006 957.245336,155.753324 956.632,157.532 C956.018664,159.310676 955.282671,160.997325 954.424,162.592 L924.984,162.592 L924.984,215.584 C924.984,221.226695 926.026656,225.151989 928.112,227.36 C930.197344,229.568011 933.877307,230.672 939.152,230.672 C942.341349,230.672 946.113312,230.33467 950.468,229.66 C954.822688,228.98533 958.226654,228.218671 960.68,227.36 L960.68,233.984 Z M1049.552,230.488 C1049.552,234.658688 1046.51603,238.123986 1040.444,240.884 C1034.37197,243.644014 1026.73605,245.024 1017.536,245.024 C986.86918,245.024 971.536,229.69082 971.536,199.024 C971.536,182.586584 975.522627,169.798712 983.496,160.66 C991.469373,151.521288 1002.5706,146.952 1016.8,146.952 C1027.59472,146.952 1035.9973,150.079969 1042.008,156.336 C1048.0187,162.592031 1051.024,171.423943 1051.024,182.832 C1051.024,188.22936 1050.34934,193.074645 1049,197.368 L988.28,197.368 C988.525335,219.693445 999.565224,230.856 1021.4,230.856 C1030.23204,230.856 1039.61595,229.016018 1049.552,225.336 L1049.552,230.488 Z M1034.096,185.408 C1034.096,176.575956 1032.37868,170.013355 1028.944,165.72 C1025.50932,161.426645 1020.2347,159.28 1013.12,159.28 C1005.88263,159.28 1000.20935,161.518644 996.1,165.996 C991.990646,170.473356 989.690669,176.943958 989.2,185.408 L1034.096,185.408 Z M1131.432,243 L1132.352,235.456 C1134.92801,233.861325 1139.03731,232.082676 1144.68,230.12 L1144.68,185.776 C1144.68,177.434625 1143.14668,171.362686 1140.08,167.56 C1137.01332,163.757314 1132.04537,161.856 1125.176,161.856 C1114.99462,161.856 1105.91737,166.026625 1097.944,174.368 L1097.944,230.12 L1107.328,231.776 C1109.16801,232.144002 1110.456,232.634664 1111.192,233.248 C1111.928,233.861336 1112.296,234.84266 1112.296,236.192 C1112.296,237.786675 1111.80534,240.055985 1110.824,243 L1065.192,243 L1066.112,235.64 C1070.77336,233.554656 1075.74131,231.714675 1081.016,230.12 L1081.016,165.72 L1063.168,162.04 C1063.04533,161.058662 1062.984,159.586676 1062.984,157.624 C1062.984,156.642662 1063.444,155.845336 1064.364,155.232 C1065.284,154.618664 1067.46132,153.63734 1070.896,152.288 C1073.84001,151.183994 1077.61198,150.233337 1082.212,149.436 C1086.81202,148.638663 1091.01331,148.178667 1094.816,148.056 L1096.104,163.144 C1101.50136,157.501305 1107.05197,153.392013 1112.756,150.816 C1118.46003,148.239987 1124.80797,146.952 1131.8,146.952 C1141.61338,146.952 1149.03464,149.773305 1154.064,155.416 C1159.09336,161.058695 1161.608,169.277279 1161.608,180.072 L1161.608,230.12 L1172.28,231.96 C1175.46935,232.450669 1177.064,233.861322 1177.064,236.192 C1177.064,237.54134 1176.63467,239.810651 1175.776,243 L1131.432,243 Z" id="Kindlegarten-bookerly-svg" sketch:type="MSShapeGroup"></path>
        </g>
    </g>
</svg>