<?xml version="1.0" encoding="UTF-8" standalone="no"?>
<svg width="570px" height="135px" viewBox="0 0 570 135" version="1.1" xmlns="http://www.w3.org/2000/svg" xmlns:xlink="http://www.w3.org/1999/xlink" xmlns:sketch="http://www.bohemiancoding.com/sketch/ns">
    <!-- Generator: Sketch Beta 3.3 (11855) - http://www.bohemiancoding.com/sketch -->
    <title>specimen</title>
    <desc>Created with Sketch Beta.</desc>
    <defs></defs>
    <g id="Page-1" stroke="none" stroke-width="1" fill="none" fill-rule="evenodd" sketch:type="MSPage">
        <g id="specimen" sketch:type="MSArtboardGroup">
            <g id="sf-svg" sketch:type="MSLayerGroup" transform="translate(0.000000, 12.000000)">
                <path d="M0.73828125,20 L7.4375,1.33789062 L9.55664062,1.33789062 L16.2558594,20 L13.9179688,20 L11.9765625,14.2578125 L4.921875,14.2578125 L2.96679688,20 L0.73828125,20 Z M5.53710938,12.4667969 L11.3613281,12.4667969 L8.49023438,4.03125 L8.40820312,4.03125 L5.53710938,12.4667969 Z M19.6464844,20 L19.6464844,1.33789062 L26.5234375,1.33789062 C28.0729244,1.33789062 29.314774,1.74576415 30.2490234,2.56152344 C31.1832729,3.37728272 31.6503906,4.50064389 31.6503906,5.93164062 C31.6503906,7.01628146 31.388349,7.90266583 30.8642578,8.59082031 C30.3401667,9.27897479 29.6178431,9.76887875 28.6972656,10.0605469 L28.6972656,10.15625 C30.0006576,10.3385426 30.9986945,10.8398396 31.6914062,11.6601562 C32.384118,12.4804729 32.7304688,13.519525 32.7304688,14.7773438 C32.7304688,16.4453208 32.1380268,17.7327429 30.953125,18.6396484 C29.7682232,19.546554 28.1868588,20 26.2089844,20 L19.6464844,20 Z M21.8203125,18.0175781 L25.1425781,18.0175781 C25.807946,18.0175781 26.3867163,17.9947919 26.8789062,17.9492188 C27.3710962,17.9036456 27.8564429,17.8125007 28.3349609,17.6757812 C28.813479,17.5390618 29.2031235,17.356772 29.5039062,17.1289062 C29.804689,16.9010405 30.046223,16.5934264 30.2285156,16.2060547 C30.4108082,15.818683 30.5019531,15.3606797 30.5019531,14.8320312 C30.5019531,13.7018173 30.1396521,12.845055 29.4150391,12.2617188 C28.6904261,11.6783825 27.7128968,11.3867188 26.4824219,11.3867188 L21.8203125,11.3867188 L21.8203125,18.0175781 Z M21.8203125,9.41796875 L24.7460938,9.41796875 C26.3320392,9.41796875 27.5100873,9.17415608 28.2802734,8.68652344 C29.0504596,8.19889079 29.4355469,7.40365135 29.4355469,6.30078125 C29.4355469,5.29817207 29.1393259,4.54850509 28.546875,4.05175781 C27.9544241,3.55501054 27.175135,3.30664062 26.2089844,3.30664062 L21.8203125,3.30664062 L21.8203125,9.41796875 Z M36.2714844,12.125 L36.2714844,9.32226562 C36.2714844,6.68813787 36.9254492,4.63281988 38.2333984,3.15625 C39.5413477,1.67968012 41.3027233,0.94140625 43.5175781,0.94140625 C44.4016971,0.94140625 45.2197228,1.06217327 45.9716797,1.30371094 C46.7236366,1.5452486 47.361651,1.8710917 47.8857422,2.28125 C48.4098333,2.6914083 48.8564435,3.16536189 49.2255859,3.703125 C49.5947284,4.24088811 49.8681632,4.80598662 50.0458984,5.3984375 C50.2236337,5.99088838 50.3125,6.58788762 50.3125,7.18945312 L48.1523438,7.18945312 C48.1523438,6.0774684 47.7353557,5.088546 46.9013672,4.22265625 C46.0673786,3.3567665 44.9394602,2.92382812 43.5175781,2.92382812 C41.9680912,2.92382812 40.7330775,3.47753353 39.8125,4.58496094 C38.8919225,5.69238835 38.4316406,7.28514586 38.4316406,9.36328125 L38.4316406,12.0976563 C38.4316406,14.2031355 38.8896439,15.7799427 39.8056641,16.828125 C40.7216843,17.8763073 41.9817628,18.4003906 43.5859375,18.4003906 C45.0260489,18.4003906 46.1471314,18.0244178 46.9492188,17.2724609 C47.7513061,16.5205041 48.1523438,15.5931045 48.1523438,14.4902344 L50.3125,14.4902344 C50.3125,15.0188829 50.2304696,15.549802 50.0664062,16.0830078 C49.9023429,16.6162136 49.6403013,17.1425755 49.2802734,17.6621094 C48.9202456,18.1816432 48.48275,18.6442037 47.9677734,19.0498047 C47.4527969,19.4554057 46.8079466,19.7812488 46.0332031,20.0273438 C45.2584597,20.2734387 44.4108119,20.3964844 43.4902344,20.3964844 C41.2480357,20.3964844 39.4843814,19.6878326 38.1992188,18.2705078 C36.9140561,16.853183 36.2714844,14.8047009 36.2714844,12.125 L36.2714844,12.125 Z M54.7421875,20 L54.7421875,1.33789062 L60.59375,1.33789062 C62.0612053,1.33789062 63.3281197,1.56575293 64.3945312,2.02148438 C65.4609428,2.47721582 66.3085906,3.12890201 66.9375,3.9765625 C67.5664094,4.82422299 68.0289699,5.80175228 68.3251953,6.90917969 C68.6214208,8.0166071 68.7695312,9.2721284 68.7695312,10.6757812 C68.7695312,11.7695367 68.6829436,12.7721309 68.5097656,13.6835938 C68.3365877,14.5950566 68.0494812,15.4472617 67.6484375,16.2402344 C67.2473938,17.0332071 66.7369823,17.7031223 66.1171875,18.25 C65.4973927,18.7968777 64.7203823,19.2252589 63.7861328,19.5351562 C62.8518833,19.8450536 61.7877664,20 60.59375,20 L54.7421875,20 Z M56.9160156,18.0175781 L60.5117188,18.0175781 C64.5130408,18.0175781 66.5136719,15.570337 66.5136719,10.6757812 C66.5136719,5.76299627 64.5130408,3.30664062 60.5117188,3.30664062 L56.9160156,3.30664062 L56.9160156,18.0175781 Z M73.0488281,20 L73.0488281,1.33789062 L84.109375,1.33789062 L84.109375,3.3203125 L75.2226562,3.3203125 L75.2226562,9.47265625 L83.6171875,9.47265625 L83.6171875,11.4414062 L75.2226562,11.4414062 L75.2226562,18.0175781 L84.109375,18.0175781 L84.109375,20 L73.0488281,20 Z M88.7304688,20 L88.7304688,1.33789062 L99.6132812,1.33789062 L99.6132812,3.3203125 L90.9042969,3.3203125 L90.9042969,9.85546875 L98.9023438,9.85546875 L98.9023438,11.8378906 L90.9042969,11.8378906 L90.9042969,20 L88.7304688,20 Z M121.529297,20 L121.529297,1.33789062 L123.703125,1.33789062 L123.703125,9.3359375 L133.355469,9.3359375 L133.355469,1.33789062 L135.529297,1.33789062 L135.529297,20 L133.355469,20 L133.355469,11.3046875 L123.703125,11.3046875 L123.703125,20 L121.529297,20 Z M140.833984,20 L140.833984,1.33789062 L143.007812,1.33789062 L143.007812,20 L140.833984,20 Z M178.800781,20 L178.800781,1.33789062 L180.974609,1.33789062 L180.974609,18.0175781 L189.683594,18.0175781 L189.683594,20 L178.800781,20 Z M215.291016,20 L215.291016,1.33789062 L217.464844,1.33789062 L227.007812,16.2675781 L227.117188,16.2675781 L227.117188,1.33789062 L229.291016,1.33789062 L229.291016,20 L227.117188,20 L217.560547,5.0703125 L217.464844,5.0703125 L217.464844,20 L215.291016,20 Z M233.857422,12.1660156 L233.857422,9.36328125 C233.857422,6.73826812 234.527337,4.67839289 235.867188,3.18359375 C237.207038,1.68879461 239.002593,0.94140625 241.253906,0.94140625 C243.50522,0.94140625 245.296217,1.68879461 246.626953,3.18359375 C247.957689,4.67839289 248.623047,6.73826812 248.623047,9.36328125 L248.623047,12.1660156 C248.623047,14.7727995 247.953132,16.7962168 246.613281,18.2363281 C245.273431,19.6764395 243.468761,20.3964844 241.199219,20.3964844 C238.938791,20.3964844 237.150072,19.6764395 235.833008,18.2363281 C234.515944,16.7962168 233.857422,14.7727995 233.857422,12.1660156 L233.857422,12.1660156 Z M236.03125,12.1660156 C236.03125,14.2168071 236.509761,15.7685494 237.466797,16.8212891 C238.423833,17.8740287 239.677076,18.4003906 241.226562,18.4003906 C242.785164,18.4003906 244.045243,17.8740287 245.006836,16.8212891 C245.968429,15.7685494 246.449219,14.2168071 246.449219,12.1660156 L246.449219,9.36328125 C246.449219,7.29426049 245.963872,5.7037816 244.993164,4.59179688 C244.022456,3.47981215 242.766935,2.92382812 241.226562,2.92382812 C239.695305,2.92382812 238.446619,3.47981215 237.480469,4.59179688 C236.514318,5.7037816 236.03125,7.29426049 236.03125,9.36328125 L236.03125,12.1660156 Z M253.189453,20 L253.189453,1.33789062 L259.875,1.33789062 C261.625009,1.33789062 263.042312,1.86425255 264.126953,2.91699219 C265.211594,3.96973183 265.753906,5.35741326 265.753906,7.08007812 C265.753906,8.81185762 265.211594,10.1995391 264.126953,11.2431641 C263.042312,12.2867891 261.625009,12.8085938 259.875,12.8085938 L255.363281,12.8085938 L255.363281,20 L253.189453,20 Z M255.363281,10.8535156 L258.289062,10.8535156 C259.000004,10.8535156 259.608396,10.8238935 260.114258,10.7646484 C260.62012,10.7054033 261.098631,10.5960294 261.549805,10.4365234 C262.000979,10.2770174 262.36328,10.055991 262.636719,9.7734375 C262.910158,9.490884 263.124348,9.12630432 263.279297,8.6796875 C263.434246,8.23307068 263.511719,7.69987289 263.511719,7.08007812 C263.511719,5.88606174 263.185876,4.95866216 262.53418,4.29785156 C261.882484,3.63704097 260.968756,3.30664063 259.792969,3.30664063 L255.363281,3.30664063 L255.363281,10.8535156 Z M268.789062,12.0703125 L268.789062,9.26757812 C268.789062,6.65167963 269.452142,4.61003338 270.77832,3.14257812 C272.104499,1.67512287 273.897775,0.94140625 276.158203,0.94140625 C278.418631,0.94140625 280.216465,1.67512287 281.551758,3.14257812 C282.887051,4.61003338 283.554688,6.65167963 283.554688,9.26757812 L283.554688,12.0703125 C283.554688,14.9140767 282.761727,17.0787686 281.175781,18.5644531 L283.773438,22.1464844 L281.257812,22.1464844 L279.480469,19.7128906 C278.486974,20.1686221 277.379563,20.3964844 276.158203,20.3964844 C273.897775,20.3964844 272.104499,19.6627678 270.77832,18.1953125 C269.452142,16.7278572 268.789062,14.686211 268.789062,12.0703125 L268.789062,12.0703125 Z M270.949219,12.0429688 C270.949219,14.1119895 271.432287,15.6887967 272.398438,16.7734375 C273.364588,17.8580783 274.617831,18.4003906 276.158203,18.4003906 C276.914717,18.4003906 277.602861,18.2727877 278.222656,18.0175781 L276.117188,15.1601562 L278.6875,15.1601562 L279.904297,16.8007812 C280.888677,15.6705673 281.380859,14.0846456 281.380859,12.0429688 L281.380859,9.29492188 C281.380859,7.23501574 280.897791,5.65820859 279.931641,4.56445312 C278.96549,3.47069766 277.70769,2.92382812 276.158203,2.92382812 C274.617831,2.92382812 273.364588,3.47069766 272.398438,4.56445312 C271.432287,5.65820859 270.949219,7.23501574 270.949219,9.29492188 L270.949219,12.0429688 Z M303.912109,15.0097656 L306.113281,15.0097656 C306.213542,15.9941455 306.671545,16.8053354 307.487305,17.4433594 C308.303064,18.0813834 309.417311,18.4003906 310.830078,18.4003906 C312.169929,18.4003906 313.236324,18.0973338 314.029297,17.4912109 C314.82227,16.8850881 315.21875,16.0579479 315.21875,15.0097656 C315.21875,14.2259075 314.97038,13.5901717 314.473633,13.1025391 C313.976886,12.6149064 313.199875,12.2343764 312.142578,11.9609375 L308.792969,11.0722656 C308.218747,10.9173169 307.687828,10.7145195 307.200195,10.4638672 C306.712563,10.2132149 306.259117,9.89876491 305.839844,9.52050781 C305.420571,9.14225071 305.09017,8.67057574 304.848633,8.10546875 C304.607095,7.54036176 304.486328,6.9114618 304.486328,6.21875 C304.486328,5.10676527 304.796221,4.13835048 305.416016,3.31347656 C306.03581,2.48860265 306.821935,1.87793167 307.774414,1.48144531 C308.726893,1.08495896 309.759109,0.88671875 310.871094,0.88671875 C311.664066,0.88671875 312.425127,0.99153541 313.154297,1.20117188 C313.883467,1.41080834 314.555661,1.7229797 315.170898,2.13769531 C315.786136,2.55241093 316.282876,3.10611633 316.661133,3.79882812 C317.03939,4.49153992 317.23763,5.2799435 317.255859,6.1640625 L315.068359,6.1640625 C314.977213,5.18879721 314.567061,4.39583639 313.837891,3.78515625 C313.10872,3.17447611 312.101569,2.86914062 310.816406,2.86914062 C309.595046,2.86914062 308.603845,3.15168988 307.842773,3.71679688 C307.081702,4.28190387 306.701172,5.0657502 306.701172,6.06835938 C306.701172,7.51758537 307.58072,8.4700498 309.339844,8.92578125 L312.621094,9.81445312 C314.18881,10.2337261 315.385087,10.8330039 316.209961,11.6123047 C317.034835,12.3916055 317.447266,13.4739514 317.447266,14.859375 C317.447266,15.7526086 317.267254,16.5546839 316.907227,17.265625 C316.547199,17.9765661 316.050459,18.5576149 315.416992,19.0087891 C314.783525,19.4599632 314.054366,19.8040353 313.229492,20.0410156 C312.404618,20.277996 311.513677,20.3964844 310.556641,20.3964844 C309.772783,20.3964844 309.04818,20.3190112 308.382812,20.1640625 C307.717445,20.0091138 307.150067,19.7972019 306.680664,19.5283203 C306.211261,19.2594388 305.79883,18.9518246 305.443359,18.6054688 C305.087889,18.2591129 304.803061,17.8808614 304.588867,17.4707031 C304.374673,17.0605448 304.212891,16.6526713 304.103516,16.2470703 C303.99414,15.8414693 303.930339,15.4290386 303.912109,15.0097656 L303.912109,15.0097656 Z M319.771484,3.30664062 L319.771484,1.33789062 L333.388672,1.33789062 L333.388672,3.30664062 L327.660156,3.30664062 L327.660156,20 L325.486328,20 L325.486328,3.30664062 L319.771484,3.30664062 Z M336.478516,13.4648438 L336.478516,1.33789062 L338.652344,1.33789062 L338.652344,13.5195312 C338.652344,15.0052158 339.087561,16.1923784 339.958008,17.0810547 C340.828455,17.969731 342.001946,18.4140625 343.478516,18.4140625 C344.955086,18.4140625 346.128576,17.969731 346.999023,17.0810547 C347.86947,16.1923784 348.304688,15.0052158 348.304688,13.5195312 L348.304688,1.33789062 L350.478516,1.33789062 L350.478516,13.5195312 C350.478516,15.5794374 349.833665,17.2405536 348.543945,18.5029297 C347.254225,19.7653058 345.565766,20.3964844 343.478516,20.3964844 C341.40038,20.3964844 339.714199,19.7561913 338.419922,18.4755859 C337.125645,17.1949806 336.478516,15.5247499 336.478516,13.4648438 L336.478516,13.4648438 Z M353.527344,1.33789062 L356.001953,1.33789062 L361.347656,17.3613281 L361.470703,17.3613281 L366.789062,1.33789062 L369.277344,1.33789062 L362.455078,20 L360.322266,20 L353.527344,1.33789062 Z M370.876953,1.33789062 L373.447266,1.33789062 L377.015625,16.5546875 L377.125,16.5546875 L380.857422,1.33789062 L383.195312,1.33789062 L386.914062,16.5546875 L387.037109,16.5546875 L390.605469,1.33789062 L393.175781,1.33789062 L387.994141,20 L386.052734,20 L382.074219,4.93359375 L381.951172,4.93359375 L377.972656,20 L376.044922,20 L370.876953,1.33789062 Z M394.652344,20 L400.804688,10.59375 L394.748047,1.33789062 L397.373047,1.33789062 L402.212891,8.84375 L402.335938,8.84375 L407.121094,1.33789062 L409.636719,1.33789062 L403.402344,10.7714844 L409.5,20 L406.847656,20 L402.076172,12.4941406 L401.953125,12.4941406 L397.140625,20 L394.652344,20 Z M410.949219,1.33789062 L413.451172,1.33789062 L418.195312,9.67773438 L418.318359,9.67773438 L423.089844,1.33789062 L425.591797,1.33789062 L419.34375,11.8105469 L419.34375,20 L417.183594,20 L417.183594,11.8105469 L410.949219,1.33789062 Z M427.505859,20 L427.505859,18.4414062 L437.650391,3.45703125 L437.650391,3.30664062 L427.875,3.30664062 L427.875,1.33789062 L440.357422,1.33789062 L440.357422,2.86914062 L430.28125,17.8808594 L430.28125,18.0175781 L440.589844,18.0175781 L440.589844,20 L427.505859,20 Z M33.3320312,59.0664062 L33.3320312,56.5507812 C33.3320312,54.691397 33.8606718,53.2057347 34.9179688,52.09375 C35.9752657,50.9817653 37.406241,50.4257812 39.2109375,50.4257812 C40.058598,50.4257812 40.8310512,50.5488269 41.5283203,50.7949219 C42.2255894,51.0410169 42.7884093,51.3691386 43.2167969,51.7792969 C43.6451844,52.1894552 43.9778634,52.6383439 44.2148438,53.1259766 C44.4518241,53.6136092 44.579427,54.1126277 44.5976562,54.6230469 L42.4511719,54.6230469 C42.4055987,54.3769519 42.3235683,54.1399751 42.2050781,53.9121094 C42.0865879,53.6842437 41.9134126,53.440431 41.6855469,53.1806641 C41.4576812,52.9208971 41.1318381,52.7112638 40.7080078,52.5517578 C40.2841776,52.3922518 39.7942736,52.3125 39.2382812,52.3125 C38.016921,52.3125 37.0826855,52.7021445 36.4355469,53.4814453 C35.7884082,54.2607461 35.4648438,55.3157486 35.4648438,56.6464844 L35.4648438,59.09375 C35.4648438,60.369798 35.80208,61.3769494 36.4765625,62.1152344 C37.151045,62.8535193 38.0716087,63.2226562 39.2382812,63.2226562 C41.1067802,63.2226562 42.214191,62.5527411 42.5605469,61.2128906 L44.7070312,61.2128906 C44.6796874,61.7141952 44.5520845,62.1972633 44.3242188,62.6621094 C44.096353,63.1269554 43.7682313,63.553058 43.3398438,63.9404297 C42.9114562,64.3278014 42.3418004,64.6399728 41.6308594,64.8769531 C40.9199183,65.1139335 40.1132858,65.2324219 39.2109375,65.2324219 C37.406241,65.2324219 35.9752657,64.6764379 34.9179688,63.5644531 C33.8606718,62.4524684 33.3320312,60.9531344 33.3320312,59.0664062 L33.3320312,59.0664062 Z M48.0429688,59.3125 L48.0429688,56.3320312 C48.0429688,54.5637932 48.5533803,53.1350966 49.5742188,52.0458984 C50.5950572,50.9567003 51.9576738,50.4121094 53.6621094,50.4121094 C54.7649795,50.4121094 55.6695928,50.6376931 56.3759766,51.0888672 C57.0823603,51.5400413 57.567707,52.0937467 57.8320312,52.75 L57.9414062,52.75 L57.9414062,45.3535156 L60.0878906,45.3535156 L60.0878906,65 L58.0507812,65 L58.0507812,62.7167969 L57.9414062,62.7167969 C57.7591137,63.3730502 57.2806028,63.954099 56.5058594,64.4599609 C55.7311159,64.9658228 54.7604225,65.21875 53.59375,65.21875 C51.9257729,65.21875 50.5836639,64.6832736 49.5673828,63.6123047 C48.5511017,62.5413358 48.0429688,61.1080819 48.0429688,59.3125 L48.0429688,59.3125 Z M50.1894531,58.7519531 C50.1894531,60.2011791 50.5312466,61.3268189 51.2148438,62.1289062 C51.8984409,62.9309936 52.8372336,63.3320312 54.03125,63.3320312 C55.2252664,63.3320312 56.1754522,62.9423867 56.8818359,62.1630859 C57.5882197,61.3837852 57.9414062,60.3333399 57.9414062,59.0117188 L57.9414062,56.3320312 C57.9414062,55.1744734 57.5677121,54.2174517 56.8203125,53.4609375 C56.0729129,52.7044233 55.1158913,52.3261719 53.9492188,52.3261719 C52.7825462,52.3261719 51.8642612,52.7272095 51.1943359,53.5292969 C50.5244107,54.3313842 50.1894531,55.4479095 50.1894531,56.8789062 L50.1894531,58.7519531 Z M64.4492188,58.9980469 L64.4492188,56.6738281 C64.4492188,54.7962146 64.991531,53.2854875 66.0761719,52.1416016 C67.1608127,50.9977156 68.5644445,50.4257812 70.2871094,50.4257812 C72.0097742,50.4257812 73.413406,50.9977156 74.4980469,52.1416016 C75.5826877,53.2854875 76.125,54.7962146 76.125,56.6738281 L76.125,58.4238281 L66.609375,58.4238281 L66.609375,59.1484375 C66.609375,60.3606831 66.9443326,61.35872 67.6142578,62.1425781 C68.284183,62.9264362 69.2298116,63.3183594 70.4511719,63.3183594 C71.2806031,63.3183594 71.982419,63.1520199 72.5566406,62.8193359 C73.1308622,62.486652 73.4908847,62.0833357 73.6367188,61.609375 L75.9199219,61.609375 C75.8561195,62.001304 75.6988945,62.3977845 75.4482422,62.7988281 C75.1975899,63.1998718 74.8580751,63.5872377 74.4296875,63.9609375 C74.0012999,64.3346373 73.4407587,64.6399728 72.7480469,64.8769531 C72.0553351,65.1139335 71.294275,65.2324219 70.4648438,65.2324219 C68.5781156,65.2324219 67.1038465,64.669602 66.0419922,63.5439453 C64.9801379,62.4182886 64.4492188,60.9030043 64.4492188,58.9980469 L64.4492188,58.9980469 Z M66.609375,56.7558594 L73.9648438,56.7558594 L73.9648438,56.4960938 C73.9648438,55.238275 73.6276075,54.2265663 72.953125,53.4609375 C72.2786425,52.6953087 71.3899795,52.3125 70.2871094,52.3125 C69.1842393,52.3125 68.2955763,52.6953087 67.6210938,53.4609375 C66.9466112,54.2265663 66.609375,55.238275 66.609375,56.4960938 L66.609375,56.7558594 Z M79.1464844,52.4902344 L79.1464844,50.6582031 L81.5800781,50.6582031 L81.5800781,49.2226562 C81.5800781,47.8463473 81.9264288,46.8346387 82.6191406,46.1875 C83.3118524,45.5403613 84.4238205,45.2167969 85.9550781,45.2167969 C86.4837266,45.2167969 86.9941382,45.2441404 87.4863281,45.2988281 L87.4863281,47.1171875 C87.19466,47.080729 86.7708361,47.0625 86.2148438,47.0625 C85.3124955,47.0625 84.6722024,47.2288395 84.2939453,47.5615234 C83.9156882,47.8942074 83.7265625,48.5025997 83.7265625,49.3867188 L83.7265625,50.6582031 L87.0761719,50.6582031 L87.0761719,52.4902344 L83.7265625,52.4902344 L83.7265625,65 L81.5800781,65 L81.5800781,52.4902344 L79.1464844,52.4902344 Z M89.7011719,58.8066406 L89.7011719,56.3867188 C89.7011719,54.5820222 90.2457628,53.1373752 91.3349609,52.0527344 C92.4241591,50.9680935 93.7844971,50.4257812 95.4160156,50.4257812 C96.4277394,50.4257812 97.3118452,50.6650367 98.0683594,51.1435547 C98.8248736,51.6220727 99.3352851,52.1757781 99.5996094,52.8046875 L99.6953125,52.8046875 L99.6953125,50.6582031 L101.732422,50.6582031 L101.732422,64.6582031 C101.732422,66.5631606 101.185552,67.9941358 100.091797,68.9511719 C98.9980414,69.9082079 97.4759212,70.3867188 95.5253906,70.3867188 C93.820955,70.3867188 92.5061895,70.0266963 91.5810547,69.3066406 C90.6559199,68.5865849 90.1341152,67.661464 90.015625,66.53125 L92.2578125,66.53125 C92.3580734,67.0872424 92.7067027,67.5498028 93.3037109,67.9189453 C93.9007191,68.2880878 94.6731723,68.4726562 95.6210938,68.4726562 C96.9244857,68.4726562 97.9134081,68.1422559 98.5878906,67.4814453 C99.2623732,66.8206347 99.5996094,65.8932351 99.5996094,64.6992188 L99.5996094,62.4980469 L99.4765625,62.4980469 C99.1757797,63.1451855 98.6653682,63.6806619 97.9453125,64.1044922 C97.2252568,64.5283224 96.3867235,64.7402344 95.4296875,64.7402344 C94.3632759,64.7402344 93.3994184,64.5055362 92.5380859,64.0361328 C91.6767535,63.5667294 90.9886093,62.8785853 90.4736328,61.9716797 C89.9586563,61.0647741 89.7011719,60.0097716 89.7011719,58.8066406 L89.7011719,58.8066406 Z M91.8339844,58.3007812 C91.8339844,59.6406317 92.2099572,60.7320921 92.9619141,61.5751953 C93.7138709,62.4182985 94.6822857,62.8398438 95.8671875,62.8398438 C97.0156307,62.8398438 97.9225227,62.4388061 98.5878906,61.6367188 C99.2532585,60.8346314 99.5859375,59.882167 99.5859375,58.7792969 L99.5859375,56.46875 C99.5859375,55.3476506 99.244144,54.3746786 98.5605469,53.5498047 C97.8769497,52.7249308 96.9700577,52.3125 95.8398438,52.3125 C94.6184835,52.3125 93.6455114,52.7340453 92.9208984,53.5771484 C92.1962854,54.4202516 91.8339844,55.5253838 91.8339844,56.8925781 L91.8339844,58.3007812 Z M106.941406,65 L106.941406,45.3535156 L109.087891,45.3535156 L109.087891,53.2832031 L109.197266,53.2832031 C109.279297,52.991535 109.416015,52.6998713 109.607422,52.4082031 C109.798829,52.116535 110.060871,51.8134781 110.393555,51.4990234 C110.726239,51.1845687 111.179685,50.9270843 111.753906,50.7265625 C112.328128,50.5260407 112.9707,50.4257812 113.681641,50.4257812 C115.130867,50.4257812 116.2998,50.8336548 117.188477,51.6494141 C118.077153,52.4651733 118.521484,53.6432215 118.521484,55.1835938 L118.521484,65 L116.361328,65 L116.361328,55.8535156 C116.361328,54.714187 116.067386,53.8346385 115.479492,53.2148438 C114.891599,52.595049 114.07813,52.2851562 113.039062,52.2851562 C111.772129,52.2851562 110.796878,52.7249305 110.113281,53.6044922 C109.429684,54.4840539 109.087891,55.6028578 109.087891,56.9609375 L109.087891,65 L106.941406,65 Z M139.357422,65 L139.357422,45.3535156 L141.503906,45.3535156 L141.503906,57.234375 L141.585938,57.234375 L147.65625,50.6582031 L150.171875,50.6582031 L144.443359,56.8925781 L150.541016,65 L147.957031,65 L142.884766,58.2597656 L141.503906,59.640625 L141.503906,65 L139.357422,65 Z M153.753906,65 L153.753906,45.3535156 L155.900391,45.3535156 L155.900391,65 L153.753906,65 Z M161.013672,65 L161.013672,50.6582031 L163.160156,50.6582031 L163.160156,52.9140625 L163.269531,52.9140625 C163.834638,51.2552 165.128896,50.4257812 167.152344,50.4257812 C168.200526,50.4257812 169.068681,50.6741512 169.756836,51.1708984 C170.44499,51.6676457 170.912108,52.3170533 171.158203,53.1191406 L171.253906,53.1191406 C171.591148,52.3261679 172.122067,51.679039 172.84668,51.1777344 C173.571293,50.6764298 174.498692,50.4257812 175.628906,50.4257812 C177.123705,50.4257812 178.29036,50.8108685 179.128906,51.5810547 C179.967452,52.3512408 180.386719,53.4518158 180.386719,54.8828125 L180.386719,65 L178.240234,65 L178.240234,55.4160156 C178.240234,54.4680942 177.971357,53.7093127 177.433594,53.1396484 C176.895831,52.5699841 176.121099,52.2851562 175.109375,52.2851562 C174.161454,52.2851562 173.368493,52.613278 172.730469,53.2695312 C172.092445,53.9257845 171.773438,54.7552033 171.773438,55.7578125 L171.773438,65 L169.626953,65 L169.626953,55.5253906 C169.626953,54.5683546 169.339847,53.7890655 168.765625,53.1875 C168.191403,52.5859345 167.412114,52.2851562 166.427734,52.2851562 C165.470698,52.2851562 164.686852,52.6087207 164.076172,53.2558594 C163.465492,53.902998 163.160156,54.7278596 163.160156,55.7304688 L163.160156,65 L161.013672,65 Z M185.349609,65 L185.349609,50.6582031 L187.496094,50.6582031 L187.496094,53.2832031 L187.605469,53.2832031 C188.225264,51.3782457 189.683582,50.4257812 191.980469,50.4257812 C193.475268,50.4257812 194.664709,50.8268189 195.548828,51.6289062 C196.432947,52.4309936 196.875,53.6067631 196.875,55.15625 L196.875,65 L194.714844,65 L194.714844,55.8261719 C194.714844,54.6777286 194.434573,53.8004588 193.874023,53.1943359 C193.313474,52.5882131 192.513677,52.2851562 191.474609,52.2851562 C190.180332,52.2851562 189.193688,52.7226519 188.514648,53.5976562 C187.835609,54.4726606 187.496094,55.5937432 187.496094,56.9609375 L187.496094,65 L185.349609,65 Z M217.642578,70.0175781 L217.642578,50.6445312 L219.679688,50.6445312 L219.679688,52.9277344 L219.789062,52.9277344 C220.062501,52.2167933 220.570634,51.6220727 221.313477,51.1435547 C222.056319,50.6650367 222.992833,50.4257812 224.123047,50.4257812 C225.800139,50.4257812 227.139969,50.9703722 228.142578,52.0595703 C229.145187,53.1487685 229.646484,54.6321521 229.646484,56.5097656 L229.646484,59.1347656 C229.646484,61.0214938 229.136073,62.5094347 228.115234,63.5986328 C227.094396,64.687831 225.731779,65.2324219 224.027344,65.2324219 C222.924474,65.2324219 222.035811,65.0136741 221.361328,64.5761719 C220.686846,64.1386697 220.19922,63.5781284 219.898438,62.8945312 L219.789062,62.8945312 L219.789062,70.0175781 L217.642578,70.0175781 Z M219.789062,59.3125 C219.789062,60.4791725 220.151364,61.4384728 220.875977,62.1904297 C221.60059,62.9423866 222.550775,63.3183594 223.726562,63.3183594 C224.875006,63.3183594 225.791012,62.9241576 226.474609,62.1357422 C227.158207,61.3473268 227.5,60.1783932 227.5,58.6289062 L227.5,57.0292969 C227.5,55.5071538 227.162764,54.3404988 226.488281,53.5292969 C225.813799,52.7180949 224.870449,52.3125 223.658203,52.3125 C222.445957,52.3125 221.49805,52.6998659 220.814453,53.4746094 C220.130856,54.2493528 219.789062,55.3020767 219.789062,56.6328125 L219.789062,59.3125 Z M233.283203,59.1894531 L233.283203,56.4824219 C233.283203,54.6686107 233.786779,53.2057347 234.793945,52.09375 C235.801112,50.9817653 237.143221,50.4257812 238.820312,50.4257812 C239.895839,50.4257812 240.805009,50.6559222 241.547852,51.1162109 C242.290694,51.5764997 242.821613,52.1712203 243.140625,52.9003906 L243.25,52.9003906 L243.25,50.6582031 L245.287109,50.6582031 L245.287109,70.03125 L243.140625,70.03125 L243.140625,62.8535156 L243.03125,62.8535156 C242.730467,63.5462274 242.220056,64.1158832 241.5,64.5625 C240.779944,65.0091168 239.873052,65.2324219 238.779297,65.2324219 C237.093091,65.2324219 235.755539,64.6832737 234.766602,63.5849609 C233.777664,62.4866482 233.283203,61.0214935 233.283203,59.1894531 L233.283203,59.1894531 Z M235.429688,58.765625 C235.429688,60.2057364 235.764645,61.3290975 236.43457,62.1357422 C237.104496,62.9423868 238.045567,63.3457031 239.257812,63.3457031 C240.460944,63.3457031 241.408851,62.9560586 242.101562,62.1767578 C242.794274,61.397457 243.140625,60.3470118 243.140625,59.0253906 L243.140625,56.3457031 C243.140625,55.1881453 242.773767,54.2311236 242.040039,53.4746094 C241.306311,52.7180952 240.360683,52.3398438 239.203125,52.3398438 C238.018223,52.3398438 237.093102,52.7499959 236.427734,53.5703125 C235.762366,54.3906291 235.429688,55.4980399 235.429688,56.8925781 L235.429688,58.765625 Z M250.578125,65 L250.578125,50.6582031 L252.724609,50.6582031 L252.724609,52.859375 L252.833984,52.859375 C252.94336,52.5859361 253.086913,52.3238945 253.264648,52.0732422 C253.442384,51.8225899 253.683918,51.5651055 253.989258,51.3007812 C254.294598,51.036457 254.693357,50.8268237 255.185547,50.671875 C255.677737,50.5169263 256.233721,50.4394531 256.853516,50.4394531 C257.026694,50.4394531 257.304686,50.4576821 257.6875,50.4941406 L257.6875,52.4902344 C257.477864,52.4537759 257.113284,52.4355469 256.59375,52.4355469 C255.35416,52.4355469 254.399417,52.7636686 253.729492,53.4199219 C253.059567,54.0761752 252.724609,54.9147084 252.724609,55.9355469 L252.724609,65 L250.578125,65 Z M260.121094,61.2949219 L262.226562,61.2949219 C262.445314,62.7259186 263.529938,63.4414062 265.480469,63.4414062 C266.619797,63.4414062 267.469724,63.2203798 268.030273,62.7783203 C268.590823,62.3362608 268.871094,61.7643264 268.871094,61.0625 C268.871094,60.7890611 268.834636,60.5475271 268.761719,60.3378906 C268.688802,60.1282542 268.561199,59.9436857 268.378906,59.7841797 C268.196614,59.6246737 268.018881,59.4925135 267.845703,59.3876953 C267.672525,59.2828771 267.419598,59.1826177 267.086914,59.0869141 C266.75423,58.9912105 266.473959,58.9182945 266.246094,58.8681641 C266.018228,58.8180336 265.690106,58.7519535 265.261719,58.6699219 C264.796873,58.569661 264.4209,58.4853519 264.133789,58.4169922 C263.846678,58.3486325 263.509442,58.2552089 263.12207,58.1367188 C262.734699,58.0182286 262.424806,57.8974616 262.192383,57.7744141 C261.95996,57.6513666 261.713868,57.491863 261.454102,57.2958984 C261.194335,57.0999339 260.993816,56.8857433 260.852539,56.6533203 C260.711262,56.4208973 260.595053,56.1406266 260.503906,55.8125 C260.41276,55.4843734 260.367188,55.1243509 260.367188,54.7324219 C260.367188,54.0123662 260.510741,53.3697945 260.797852,52.8046875 C261.084962,52.2395805 261.474607,51.7884131 261.966797,51.4511719 C262.458987,51.1139306 263.012692,50.8587248 263.62793,50.6855469 C264.243167,50.5123689 264.901689,50.4257812 265.603516,50.4257812 C267.116544,50.4257812 268.333329,50.7926396 269.253906,51.5263672 C270.174484,52.2600948 270.634766,53.2148379 270.634766,54.390625 L268.611328,54.390625 C268.565755,53.8072887 268.274091,53.2945986 267.736328,52.8525391 C267.198565,52.4104796 266.455734,52.1894531 265.507812,52.1894531 C264.605464,52.1894531 263.874026,52.3945292 263.313477,52.8046875 C262.752927,53.2148458 262.472656,53.7799443 262.472656,54.5 C262.472656,54.819012 262.545572,55.1038399 262.691406,55.3544922 C262.83724,55.6051445 262.980794,55.7988274 263.12207,55.9355469 C263.263347,56.0722663 263.532225,56.2044264 263.928711,56.3320312 C264.325197,56.4596361 264.596353,56.5393879 264.742188,56.5712891 C264.888022,56.6031903 265.211586,56.6647131 265.712891,56.7558594 C265.831381,56.7832033 265.922526,56.8014322 265.986328,56.8105469 C266.606123,56.9199224 267.130206,57.0292963 267.558594,57.1386719 C267.986981,57.2480474 268.433591,57.4052724 268.898438,57.6103516 C269.363284,57.8154307 269.736978,58.0501289 270.019531,58.3144531 C270.302085,58.5787774 270.534504,58.9228494 270.716797,59.3466797 C270.899089,59.7705099 270.990234,60.2558566 270.990234,60.8027344 C270.990234,62.1972726 270.477544,63.2841758 269.452148,64.0634766 C268.426753,64.8427773 267.070972,65.2324219 265.384766,65.2324219 C263.807935,65.2324219 262.536463,64.8883498 261.570312,64.2001953 C260.604162,63.5120408 260.121094,62.543626 260.121094,61.2949219 L260.121094,61.2949219 Z M300.125,50.6582031 L302.517578,50.6582031 L306.25,62.6894531 L306.345703,62.6894531 L310.337891,50.6582031 L312.634766,50.6582031 L307.398438,65 L305.251953,65 L300.125,50.6582031 Z M314.617188,50.6582031 L317.064453,50.6582031 L319.716797,62.1289062 L319.8125,62.1289062 L323.080078,50.6582031 L325.103516,50.6582031 L328.466797,62.1289062 L328.5625,62.1289062 L331.283203,50.6582031 L333.429688,50.6582031 L329.587891,65 L327.496094,65 L324.132812,53.8027344 L324.078125,53.8027344 L320.796875,65 L318.691406,65 L314.617188,50.6582031 Z M335.34375,50.6582031 L337.941406,50.6582031 L341.373047,56.0996094 L341.46875,56.0996094 L345.009766,50.6582031 L347.484375,50.6582031 L342.589844,57.671875 L347.566406,65 L344.96875,65 L341.441406,59.5449219 L341.359375,59.5449219 L337.818359,65 L335.371094,65 L340.238281,57.9179688 L335.34375,50.6582031 Z M349.822266,50.6582031 L352.214844,50.6582031 L356.220703,62.7714844 L356.316406,62.7714844 L360.322266,50.6582031 L362.605469,50.6582031 L357.423828,65.1503906 L357.054688,66.1484375 C356.872395,66.6406275 356.706055,67.0530582 356.555664,67.3857422 C356.405273,67.7184261 356.197918,68.0830058 355.933594,68.4794922 C355.66927,68.8759785 355.38672,69.1927071 355.085938,69.4296875 C354.785155,69.6666679 354.406903,69.8649081 353.951172,70.0244141 C353.49544,70.1839201 352.989586,70.2636719 352.433594,70.2636719 C351.986977,70.2636719 351.526695,70.2272139 351.052734,70.1542969 L351.052734,68.3359375 C351.298829,68.3815106 351.64518,68.4042969 352.091797,68.4042969 C352.902999,68.4042969 353.522784,68.2106139 353.951172,67.8232422 C354.379559,67.4358705 354.707681,66.8457071 354.935547,66.0527344 L355.167969,65.2324219 L349.822266,50.6582031 Z M365.339844,52.5585938 L365.339844,50.6582031 L375.880859,50.6582031 L375.880859,52.1757812 L368.074219,62.9492188 L368.074219,63.0722656 L375.935547,63.0722656 L375.935547,65 L365.394531,65 L365.394531,63.46875 L373.1875,52.6953125 L373.1875,52.5585938 L365.339844,52.5585938 Z M386.203125,51.9433594 L386.203125,49.6601562 L390.646484,46.3378906 L392.792969,46.3378906 L392.792969,65 L390.646484,65 L390.646484,48.7851562 L390.537109,48.7851562 L386.203125,51.9433594 Z M398.589844,51.4238281 L398.589844,51.3554688 C398.589844,49.8606696 399.107091,48.5846407 400.141602,47.5273438 C401.176112,46.4700468 402.591137,45.9414062 404.386719,45.9414062 C406.08204,45.9414062 407.453771,46.4199171 408.501953,47.3769531 C409.550135,48.3339892 410.074219,49.5507739 410.074219,51.0273438 C410.074219,51.4648459 410.014975,51.9000629 409.896484,52.3330078 C409.777994,52.7659527 409.645834,53.1442041 409.5,53.4677734 C409.354166,53.7913428 409.114911,54.1809873 408.782227,54.6367188 C408.449543,55.0924502 408.171551,55.4547513 407.948242,55.7236328 C407.724934,55.9925144 407.380862,56.3958306 406.916016,56.9335938 L401.748047,62.9082031 L401.748047,63.0585938 L410.429688,63.0585938 L410.429688,65 L398.617188,65 L398.617188,63.6191406 L405.699219,55.4296875 C406.145836,54.9192683 406.496744,54.4954444 406.751953,54.1582031 C407.007163,53.8209619 407.253254,53.3743517 407.490234,52.8183594 C407.727215,52.262367 407.845703,51.7109402 407.845703,51.1640625 C407.845703,50.1614533 407.515303,49.359378 406.854492,48.7578125 C406.193682,48.156247 405.35287,47.8554688 404.332031,47.8554688 C403.229161,47.8554688 402.351891,48.1949836 401.700195,48.8740234 C401.048499,49.5530633 400.722656,50.3802035 400.722656,51.3554688 L400.722656,51.4238281 L398.589844,51.4238281 Z M413.574219,60.7753906 L415.638672,60.7753906 C415.729818,61.5410195 416.146806,62.1835912 416.889648,62.703125 C417.632491,63.2226588 418.555333,63.4869791 419.658203,63.4960938 C420.934251,63.5052084 421.959632,63.1679722 422.734375,62.484375 C423.509118,61.8007778 423.88737,60.9257866 423.869141,59.859375 C423.860026,58.802078 423.477217,57.9521517 422.720703,57.3095703 C421.964189,56.666989 420.988938,56.3457031 419.794922,56.3457031 L417.771484,56.3457031 L417.771484,54.4042969 L419.685547,54.4042969 C420.706385,54.4042969 421.554033,54.0898469 422.228516,53.4609375 C422.902998,52.8320281 423.235677,52.0299528 423.226562,51.0546875 C423.217448,50.1067661 422.884769,49.3365915 422.228516,48.7441406 C421.572262,48.1516897 420.720057,47.8554688 419.671875,47.8554688 C418.687495,47.8554688 417.871748,48.1152318 417.224609,48.6347656 C416.577471,49.1542995 416.222006,49.7831994 416.158203,50.5214844 L414.066406,50.5214844 C414.084636,49.9472628 414.219074,49.3935574 414.469727,48.8603516 C414.720379,48.3271458 415.069008,47.8417991 415.515625,47.4042969 C415.962242,46.9667947 416.545569,46.6158867 417.265625,46.3515625 C417.985681,46.0872383 418.783199,45.9505209 419.658203,45.9414063 C421.353524,45.9322916 422.729812,46.3789017 423.787109,47.28125 C424.844406,48.1835983 425.395833,49.3183525 425.441406,50.6855469 C425.459636,51.3144563 425.359376,51.9068983 425.140625,52.4628906 C424.921874,53.018883 424.634767,53.4814435 424.279297,53.8505859 C423.923826,54.2197284 423.547854,54.5205067 423.151367,54.7529297 C422.754881,54.9853527 422.369794,55.1334632 421.996094,55.1972656 L421.996094,55.3203125 C422.415367,55.3658856 422.843748,55.4866527 423.28125,55.6826172 C423.718752,55.8785817 424.151691,56.1497379 424.580078,56.4960938 C425.008466,56.8424496 425.361652,57.3050101 425.639648,57.8837891 C425.917645,58.462568 426.065755,59.1119756 426.083984,59.8320313 C426.120443,61.4362059 425.528001,62.7669218 424.306641,63.8242188 C423.08528,64.8815157 421.51303,65.4101563 419.589844,65.4101563 C417.84895,65.4101563 416.429367,64.970382 415.331055,64.0908203 C414.232742,63.2112586 413.647136,62.1061264 413.574219,60.7753906 L413.574219,60.7753906 Z M429.310547,61.0625 L429.310547,59.09375 C429.866539,58.1002554 430.502275,57.0110736 431.217773,55.8261719 C431.933272,54.6412701 432.555336,53.6341187 433.083984,52.8046875 C433.612633,51.9752563 434.32812,50.8564524 435.230469,49.4482422 C436.132817,48.040032 436.798175,47.0032585 437.226562,46.3378906 L440.480469,46.3378906 L440.480469,59.1074219 L442.941406,59.1074219 L442.941406,61.0625 L440.480469,61.0625 L440.480469,65 L438.388672,65 L438.388672,61.0625 L429.310547,61.0625 Z M431.552734,59.1074219 L438.388672,59.1074219 L438.388672,48.3066406 L438.265625,48.3066406 C435.749987,52.0254092 433.51238,55.5800612 431.552734,58.9707031 L431.552734,59.1074219 Z M446.222656,60.7753906 L448.341797,60.7753906 C448.524089,61.6959681 448.991207,62.3772764 449.743164,62.8193359 C450.495121,63.2613954 451.358719,63.4824219 452.333984,63.4824219 C452.835289,63.4824219 453.327472,63.3844411 453.810547,63.1884766 C454.293622,62.992512 454.731118,62.7122414 455.123047,62.3476562 C455.514976,61.9830711 455.831705,61.5113961 456.073242,60.9326172 C456.31478,60.3538383 456.435547,59.7089879 456.435547,58.9980469 C456.435547,57.7493427 456.029952,56.7490272 455.21875,55.9970703 C454.407548,55.2451134 453.42774,54.8691406 452.279297,54.8691406 C451.358719,54.8691406 450.570316,55.0833312 449.914062,55.5117188 C449.257809,55.9401063 448.770184,56.4368461 448.451172,57.0019531 L446.632812,57.0019531 L447.480469,46.3105469 L457.761719,46.3105469 L457.761719,48.2519531 L449.367188,48.2519531 L448.833984,54.5410156 L448.957031,54.5410156 C449.212241,54.1582012 449.670244,53.7981788 450.331055,53.4609375 C450.991865,53.1236962 451.782547,52.9550781 452.703125,52.9550781 C454.389331,52.9550781 455.802078,53.499669 456.941406,54.5888672 C458.080735,55.6780653 458.650391,57.1295482 458.650391,58.9433594 C458.650391,60.8574314 458.051113,62.4114524 456.852539,63.6054688 C455.653965,64.7994851 454.093109,65.3964844 452.169922,65.3964844 C450.520174,65.3964844 449.141607,64.963546 448.03418,64.0976562 C446.926752,63.2317665 446.322917,62.1243557 446.222656,60.7753906 L446.222656,60.7753906 Z M462.205078,56.46875 C462.205078,52.9596179 462.829421,50.3346441 464.078125,48.59375 C465.326829,46.8528559 467.008453,45.9824219 469.123047,45.9824219 C470.718107,45.9824219 472.028315,46.392574 473.053711,47.2128906 C474.079107,48.0332072 474.632812,48.9856717 474.714844,50.0703125 L472.5,50.0703125 C472.38151,49.5325494 472.028323,49.0358096 471.44043,48.5800781 C470.852536,48.1243467 470.048182,47.8964844 469.027344,47.8964844 C467.64192,47.8964844 466.51628,48.5618423 465.650391,49.8925781 C464.784501,51.2233139 464.347005,53.2193877 464.337891,55.8808594 L464.447266,55.8808594 C464.748048,55.1152305 465.30859,54.447594 466.128906,53.8779297 C466.949223,53.3082654 467.997389,53.0234375 469.273438,53.0234375 C470.002608,53.0234375 470.71126,53.1555976 471.399414,53.4199219 C472.087569,53.6842461 472.709633,54.0579403 473.265625,54.5410156 C473.821617,55.024091 474.268227,55.6507123 474.605469,56.4208984 C474.94271,57.1910846 475.111328,58.0455682 475.111328,58.984375 C475.111328,60.9804787 474.521165,62.5458928 473.34082,63.6806641 C472.160476,64.8154354 470.645192,65.3828125 468.794922,65.3828125 C466.443348,65.3828125 464.70248,64.466806 463.572266,62.6347656 C462.660803,61.1399665 462.205078,59.0846485 462.205078,56.46875 L462.205078,56.46875 Z M464.666016,59.09375 C464.666016,60.4336004 465.067053,61.4977174 465.869141,62.2861328 C466.671228,63.0745482 467.655593,63.46875 468.822266,63.46875 C470.025397,63.46875 471.014319,63.0996131 471.789062,62.3613281 C472.563806,61.6230432 472.951172,60.5429759 472.951172,59.1210938 C472.951172,58.428382 472.834962,57.8085965 472.602539,57.2617188 C472.370116,56.714841 472.057945,56.2773454 471.666016,55.9492188 C471.274087,55.6210921 470.836591,55.3704436 470.353516,55.1972656 C469.87044,55.0240877 469.364586,54.9375 468.835938,54.9375 C467.623692,54.9375 466.625655,55.3271445 465.841797,56.1064453 C465.057939,56.8857461 464.666016,57.8815044 464.666016,59.09375 L464.666016,59.09375 Z M478.529297,48.2792969 L478.529297,46.3378906 L490.205078,46.3378906 L490.205078,48.375 L482.548828,65 L480.265625,65 L487.990234,48.4296875 L487.990234,48.2792969 L478.529297,48.2792969 Z M493.486328,59.9277344 C493.486328,59.2350226 493.607095,58.5992867 493.848633,58.0205078 C494.09017,57.4417289 494.406899,56.9677753 494.798828,56.5986328 C495.190757,56.2294903 495.589516,55.9332693 495.995117,55.7099609 C496.400718,55.4866525 496.813149,55.320313 497.232422,55.2109375 L497.232422,55.0878906 C496.895181,54.9785151 496.562502,54.8167328 496.234375,54.6025391 C495.906248,54.3883453 495.584963,54.1171891 495.270508,53.7890625 C494.956053,53.4609359 494.703126,53.0485051 494.511719,52.5517578 C494.320312,52.0550105 494.224609,51.5149769 494.224609,50.9316406 C494.224609,49.4915293 494.771479,48.2998094 495.865234,47.3564453 C496.95899,46.4130812 498.330721,45.9414062 499.980469,45.9414062 C501.630217,45.9414062 503.001948,46.4130812 504.095703,47.3564453 C505.189459,48.2998094 505.736328,49.4915293 505.736328,50.9316406 C505.736328,51.5240915 505.636069,52.0732397 505.435547,52.5791016 C505.235025,53.0849635 504.972983,53.4996729 504.649414,53.8232422 C504.325845,54.1468115 504.004559,54.4111318 503.685547,54.6162109 C503.366535,54.8212901 503.04297,54.9785151 502.714844,55.0878906 L502.714844,55.2109375 C503.04297,55.2929692 503.371092,55.4114576 503.699219,55.5664062 C504.027345,55.7213549 504.360024,55.9332669 504.697266,56.2021484 C505.034507,56.47103 505.330728,56.7740869 505.585938,57.1113281 C505.841147,57.4485694 506.048502,57.8587215 506.208008,58.3417969 C506.367514,58.8248722 506.447266,59.3443983 506.447266,59.9003906 C506.447266,61.5136799 505.829759,62.8330027 504.594727,63.8583984 C503.359694,64.8837942 501.798838,65.3964844 499.912109,65.3964844 C498.034496,65.3964844 496.494147,64.8906301 495.291016,63.8789062 C494.087885,62.8671824 493.486328,61.5501383 493.486328,59.9277344 L493.486328,59.9277344 Z M495.605469,59.859375 C495.605469,60.9257866 496.020178,61.8007778 496.849609,62.484375 C497.679041,63.1679722 498.72265,63.5097656 499.980469,63.5097656 C501.238288,63.5097656 502.279618,63.1702508 503.104492,62.4912109 C503.929366,61.8121711 504.341797,60.9349012 504.341797,59.859375 C504.341797,58.7838488 503.929366,57.9020217 503.104492,57.2138672 C502.279618,56.5257127 501.238288,56.1816406 499.980469,56.1816406 C498.72265,56.1816406 497.679041,56.5257127 496.849609,57.2138672 C496.020178,57.9020217 495.605469,58.7838488 495.605469,59.859375 L495.605469,59.859375 Z M496.330078,51.0546875 C496.330078,52.0117235 496.67415,52.7955699 497.362305,53.40625 C498.050459,54.0169301 498.923172,54.3222656 499.980469,54.3222656 C501.04688,54.3222656 501.919593,54.0169301 502.598633,53.40625 C503.277673,52.7955699 503.617188,52.0117235 503.617188,51.0546875 C503.617188,50.1067661 503.277673,49.3365915 502.598633,48.7441406 C501.919593,48.1516897 501.04688,47.8554688 499.980469,47.8554688 C498.914057,47.8554688 498.039066,48.1516897 497.355469,48.7441406 C496.671872,49.3365915 496.330078,50.1067661 496.330078,51.0546875 L496.330078,51.0546875 Z M510.001953,52.1757812 C510.001953,50.2525946 510.60351,48.7281957 511.806641,47.6025391 C513.009772,46.4768824 514.531892,45.9140625 516.373047,45.9140625 C517.038415,45.9140625 517.660479,45.9915357 518.239258,46.1464844 C518.818037,46.3014331 519.401364,46.5885396 519.989258,47.0078125 C520.577151,47.4270854 521.07617,47.973955 521.486328,48.6484375 C521.896486,49.32292 522.231444,50.2184189 522.491211,51.3349609 C522.750978,52.451503 522.880859,53.738925 522.880859,55.1972656 C522.880859,58.5970222 522.315761,61.1399655 521.185547,62.8261719 C520.055333,64.5123782 518.30535,65.3554688 515.935547,65.3554688 C514.358716,65.3554688 513.09408,64.9931677 512.141602,64.2685547 C511.189123,63.5439417 510.644532,62.6438856 510.507812,61.5683594 L512.736328,61.5683594 C512.891277,62.069664 513.251299,62.5071596 513.816406,62.8808594 C514.381513,63.2545592 515.106115,63.4414062 515.990234,63.4414062 C516.865239,63.4414062 517.626299,63.2340516 518.273438,62.8193359 C518.920576,62.4046203 519.424152,61.8281287 519.78418,61.0898438 C520.144208,60.3515588 520.403971,59.5175828 520.563477,58.5878906 C520.722983,57.6581985 520.789063,56.6328181 520.761719,55.5117188 L520.638672,55.5117188 C520.310545,56.3776085 519.747725,57.0908175 518.950195,57.6513672 C518.152665,58.2119169 517.15235,58.4921875 515.949219,58.4921875 C514.226554,58.4921875 512.804693,57.9202531 511.683594,56.7763672 C510.562494,55.6324813 510.001953,54.0989679 510.001953,52.1757812 L510.001953,52.1757812 Z M512.175781,52.2578125 C512.175781,53.6432361 512.569983,54.7050744 513.358398,55.4433594 C514.146814,56.1816443 515.119786,56.5507812 516.277344,56.5507812 C517.407558,56.5507812 518.371415,56.1862016 519.168945,55.4570312 C519.966475,54.7278609 520.365234,53.6842516 520.365234,52.3261719 C520.365234,50.922519 519.97559,49.8242227 519.196289,49.03125 C518.416988,48.2382773 517.42123,47.8417969 516.208984,47.8417969 C515.07877,47.8417969 514.124027,48.2405559 513.344727,49.0380859 C512.565426,49.835616 512.175781,50.9088474 512.175781,52.2578125 L512.175781,52.2578125 Z M526.708984,56.0175781 L526.708984,55.3613281 C526.708984,52.49022 527.287755,50.2024825 528.445312,48.4980469 C529.60287,46.7936113 531.211578,45.9414062 533.271484,45.9414062 C534.638679,45.9414062 535.816727,46.3333294 536.805664,47.1171875 C537.794601,47.9010456 538.539711,48.9970633 539.041016,50.4052734 C539.54232,51.8134836 539.792969,53.4654853 539.792969,55.3613281 L539.792969,56.0175781 C539.792969,58.8886862 539.218756,61.1695879 538.070312,62.8603516 C536.921869,64.5511152 535.317719,65.3964844 533.257812,65.3964844 C531.197906,65.3964844 529.591477,64.5511152 528.438477,62.8603516 C527.285476,61.1695879 526.708984,58.8886862 526.708984,56.0175781 L526.708984,56.0175781 Z M528.869141,55.9902344 C528.869141,58.3053501 529.263342,60.1305272 530.051758,61.4658203 C530.840173,62.8011134 531.908847,63.46875 533.257812,63.46875 C534.606778,63.46875 535.675452,62.8011134 536.463867,61.4658203 C537.252283,60.1305272 537.646484,58.3053501 537.646484,55.9902344 L537.646484,55.375 C537.646484,53.0598843 537.252283,51.23015 536.463867,49.8857422 C535.675452,48.5413344 534.606778,47.8691406 533.257812,47.8691406 C531.908847,47.8691406 530.840173,48.5413344 530.051758,49.8857422 C529.263342,51.23015 528.869141,53.0598843 528.869141,55.375 L528.869141,55.9902344 Z M0.95703125,94.6601562 L0.95703125,93.0195312 L3.10351562,91.3378906 L4.71679688,91.3378906 L4.71679688,100.580078 L3.10351562,100.580078 L3.10351562,93.0742188 L3.03515625,93.0742188 L0.95703125,94.6601562 Z M1.23046875,110 L8.33984375,100.662109 L15.4355469,91.3378906 L17.390625,91.3378906 L10.2949219,100.662109 L3.18554688,110 L1.23046875,110 Z M12.2363281,103.738281 L12.2363281,103.615234 C12.2363281,102.831376 12.5143201,102.156904 13.0703125,101.591797 C13.6263049,101.02669 14.387365,100.744141 15.3535156,100.744141 C16.2649785,100.744141 17.005531,100.999346 17.5751953,101.509766 C18.1448596,102.020185 18.4296875,102.658199 18.4296875,103.423828 C18.4296875,103.961591 18.2884129,104.462888 18.0058594,104.927734 C17.7233059,105.39258 17.3268255,105.893878 16.8164062,106.431641 L14.4101562,108.837891 L18.59375,108.837891 L18.59375,110.314453 L12.3730469,110.314453 L12.3730469,109.220703 L15.7636719,105.447266 C16.447269,104.745439 16.7890625,104.107425 16.7890625,103.533203 C16.7890625,103.132159 16.6523451,102.808595 16.3789062,102.5625 C16.1054674,102.316405 15.7545594,102.193359 15.3261719,102.193359 C14.8704404,102.193359 14.5081394,102.332355 14.2392578,102.610352 C13.9703763,102.888348 13.8359375,103.223305 13.8359375,103.615234 L13.8359375,103.738281 L12.2363281,103.738281 Z M26.3183594,98.4609375 L27.8359375,98.4609375 C27.872396,98.816408 28.04785,99.112629 28.3623047,99.3496094 C28.6767594,99.5865897 29.0709612,99.7050781 29.5449219,99.7050781 C30.0553411,99.7050781 30.4723291,99.5683607 30.7958984,99.2949219 C31.1194678,99.021483 31.28125,98.6751323 31.28125,98.2558594 C31.28125,97.8457011 31.1263036,97.5084649 30.8164062,97.2441406 C30.5065089,96.9798164 30.0917995,96.8476562 29.5722656,96.8476562 L28.4785156,96.8476562 L28.4785156,95.4257812 L29.53125,95.4257812 C29.9596376,95.4257812 30.3082669,95.3050142 30.5771484,95.0634766 C30.84603,94.8219389 30.9804688,94.5052103 30.9804688,94.1132812 C30.9804688,93.7304668 30.8483086,93.4205741 30.5839844,93.1835938 C30.3196601,92.9466134 29.9778667,92.828125 29.5585938,92.828125 C29.1302062,92.828125 28.7792982,92.9466134 28.5058594,93.1835938 C28.2324205,93.4205741 28.0774741,93.7076806 28.0410156,94.0449219 L26.5234375,94.0449219 C26.5507814,93.3248662 26.8333306,92.709638 27.3710938,92.1992188 C27.9088569,91.6887995 28.6425735,91.4335938 29.5722656,91.4335938 C30.44727,91.4335938 31.1650363,91.6614561 31.7255859,92.1171875 C32.2861356,92.5729189 32.5664062,93.1608037 32.5664062,93.8808594 C32.5664062,94.4003932 32.4182958,94.8538392 32.1220703,95.2412109 C31.8258449,95.6285827 31.4225286,95.8951816 30.9121094,96.0410156 C31.486331,96.1503912 31.9625632,96.3942038 32.3408203,96.7724609 C32.7190774,97.150718 32.9082031,97.6542937 32.9082031,98.2832031 C32.9082031,99.1126344 32.5960318,99.791664 31.9716797,100.320312 C31.3473276,100.848961 30.5475309,101.113281 29.5722656,101.113281 C28.606115,101.113281 27.8291045,100.853518 27.2412109,100.333984 C26.6533174,99.8144505 26.3457033,99.1901078 26.3183594,98.4609375 L26.3183594,98.4609375 Z M27.4121094,110 L34.5214844,100.662109 L41.6171875,91.3378906 L43.5722656,91.3378906 L36.4765625,100.662109 L29.3671875,110 L27.4121094,110 Z M36.96875,108.277344 L36.96875,107.005859 C37.2421889,106.513669 37.5566388,105.971357 37.9121094,105.378906 C38.2675799,104.786455 38.5638009,104.301109 38.8007812,103.922852 C39.0377616,103.544594 39.3909482,102.984053 39.8603516,102.241211 C40.329755,101.498369 40.6464836,100.994793 40.8105469,100.730469 L43.0117188,100.730469 L43.0117188,106.910156 L44.0917969,106.910156 L44.0917969,108.277344 L43.0117188,108.277344 L43.0117188,110 L41.5351562,110 L41.5351562,108.277344 L36.96875,108.277344 Z M38.609375,106.910156 L41.5351562,106.910156 L41.5351562,102.152344 L41.4667969,102.152344 C40.7285119,103.246099 39.7760475,104.818349 38.609375,106.869141 L38.609375,106.910156 Z M53.59375,113.117188 L53.59375,91.3378906 L59.28125,91.3378906 L59.28125,92.9648438 L55.6445312,92.9648438 L55.6445312,111.490234 L59.4589844,111.490234 L59.4589844,113.117188 L53.59375,113.117188 Z M62.8769531,98.734375 L64.5722656,91.3378906 L66.5546875,91.3378906 L65.3925781,98.734375 L62.8769531,98.734375 Z M68.5644531,98.734375 L70.2597656,91.3378906 L72.1738281,91.3378906 L71.09375,98.734375 L68.5644531,98.734375 Z M76.5488281,98.734375 L77.6289062,91.3378906 L80.1582031,91.3378906 L78.4628906,98.734375 L76.5488281,98.734375 Z M82.1679688,98.734375 L83.3300781,91.3378906 L85.8457031,91.3378906 L84.1503906,98.734375 L82.1679688,98.734375 Z M90.234375,108.414062 C90.234375,107.876299 90.4121076,107.429689 90.7675781,107.074219 C91.1230487,106.718748 91.5514298,106.541016 92.0527344,106.541016 C92.5904975,106.541016 93.0393862,106.718748 93.3994141,107.074219 C93.7594419,107.429689 93.9394531,107.876299 93.9394531,108.414062 C93.9394531,108.924482 93.7594419,109.355141 93.3994141,109.706055 C93.0393862,110.056968 92.5904975,110.232422 92.0527344,110.232422 C91.5514298,110.232422 91.1230487,110.056968 90.7675781,109.706055 C90.4121076,109.355141 90.234375,108.924482 90.234375,108.414062 L90.234375,108.414062 Z M96.7832031,115.208984 L98.6835938,107.716797 L101.240234,107.716797 L98.4648438,115.208984 L96.7832031,115.208984 Z M103.701172,115.646484 L105.875,107.525391 L108.787109,107.525391 L105.615234,115.646484 L103.701172,115.646484 Z M105.505859,99.0078125 C105.505859,98.4700494 105.683592,98.0234393 106.039062,97.6679688 C106.394533,97.3124982 106.822914,97.1347656 107.324219,97.1347656 C107.861982,97.1347656 108.310871,97.3124982 108.670898,97.6679688 C109.030926,98.0234393 109.210938,98.4700494 109.210938,99.0078125 C109.210938,99.5182317 109.030926,99.9488915 108.670898,100.299805 C108.310871,100.650718 107.861982,100.826172 107.324219,100.826172 C106.822914,100.826172 106.394533,100.650718 106.039062,100.299805 C105.683592,99.9488915 105.505859,99.5182317 105.505859,99.0078125 L105.505859,99.0078125 Z M112.998047,96.1914062 C112.998047,95.2252556 113.166665,94.3821651 113.503906,93.6621094 C113.841148,92.9420537 114.292315,92.3883483 114.857422,92.0009766 C115.422529,91.6136048 116.012692,91.3310556 116.62793,91.1533203 C117.243167,90.975585 117.888017,90.8867188 118.5625,90.8867188 C119.264326,90.8867188 119.931963,90.9824209 120.56543,91.1738281 C121.198896,91.3652353 121.770831,91.645506 122.28125,92.0146484 C122.791669,92.3837909 123.197264,92.8691376 123.498047,93.4707031 C123.79883,94.0722686 123.949219,94.7512983 123.949219,95.5078125 C123.949219,96.0455756 123.88086,96.5354796 123.744141,96.9775391 C123.607421,97.4195986 123.390952,97.8274721 123.094727,98.2011719 C122.798501,98.5748717 122.531902,98.8756499 122.294922,99.1035156 C122.057942,99.3313813 121.734377,99.6139306 121.324219,99.9511719 C120.93229,100.270184 120.652019,100.504882 120.483398,100.655273 C120.314778,100.805665 120.123373,100.992512 119.90918,101.21582 C119.694986,101.439129 119.549154,101.639648 119.47168,101.817383 C119.394205,101.995118 119.328125,102.20703 119.273438,102.453125 C119.21875,102.69922 119.191406,102.981769 119.191406,103.300781 L119.191406,104.148438 L117.044922,104.148438 L117.044922,102.904297 C117.044922,102.448565 117.113281,102.024742 117.25,101.632812 C117.386719,101.240883 117.605467,100.864911 117.90625,100.504883 C118.207033,100.144855 118.471353,99.8600271 118.699219,99.6503906 C118.927084,99.4407542 119.255206,99.1582049 119.683594,98.8027344 C120.075523,98.4837224 120.367187,98.2353525 120.558594,98.0576172 C120.750001,97.8798819 120.955077,97.6588555 121.173828,97.3945312 C121.392579,97.130207 121.542968,96.8590509 121.625,96.5810547 C121.707032,96.3030585 121.748047,95.9863299 121.748047,95.6308594 C121.748047,94.6647087 121.435876,93.9446638 120.811523,93.4707031 C120.187171,92.9967424 119.410161,92.7597656 118.480469,92.7597656 C117.377599,92.7597656 116.534508,93.0787729 115.951172,93.7167969 C115.367836,94.3548209 115.076172,95.1796824 115.076172,96.1914062 L112.998047,96.1914062 Z M116.402344,108.414062 C116.402344,107.876299 116.580076,107.429689 116.935547,107.074219 C117.291017,106.718748 117.719399,106.541016 118.220703,106.541016 C118.758466,106.541016 119.207355,106.718748 119.567383,107.074219 C119.927411,107.429689 120.107422,107.876299 120.107422,108.414062 C120.107422,108.924482 119.927411,109.355141 119.567383,109.706055 C119.207355,110.056968 118.758466,110.232422 118.220703,110.232422 C117.719399,110.232422 117.291017,110.056968 116.935547,109.706055 C116.580076,109.355141 116.402344,108.924482 116.402344,108.414062 L116.402344,108.414062 Z M126.519531,111.490234 L130.347656,111.490234 L130.347656,92.9648438 L126.697266,92.9648438 L126.697266,91.3378906 L132.384766,91.3378906 L132.384766,113.117188 L126.519531,113.117188 L126.519531,111.490234 Z M142.980469,102.261719 C142.980469,101.104161 143.057942,100.019536 143.212891,99.0078125 C143.367839,97.9960887 143.552408,97.141605 143.766602,96.4443359 C143.980795,95.7470668 144.265623,95.0543654 144.621094,94.3662109 C144.976564,93.6780565 145.291014,93.1357442 145.564453,92.7392578 C145.837892,92.3427715 146.179685,91.8847682 146.589844,91.3652344 L148.326172,91.3652344 C148.00716,91.7298195 147.683595,92.2037731 147.355469,92.7871094 C147.027342,93.3704456 146.68327,94.1064409 146.323242,94.9951172 C145.963214,95.8837935 145.669272,96.9638608 145.441406,98.2353516 C145.213541,99.5068423 145.099609,100.839837 145.099609,102.234375 C145.099609,103.182296 145.145182,104.091467 145.236328,104.961914 C145.327474,105.832361 145.475585,106.64583 145.680664,107.402344 C145.885743,108.158858 146.07259,108.805987 146.241211,109.34375 C146.409832,109.881513 146.649087,110.464841 146.958984,111.09375 C147.268882,111.722659 147.492187,112.164712 147.628906,112.419922 C147.765626,112.675131 147.984373,113.062497 148.285156,113.582031 L146.453125,113.582031 C146.033852,113.071612 145.644208,112.501956 145.28418,111.873047 C144.924152,111.244137 144.559572,110.467127 144.19043,109.541992 C143.821287,108.616857 143.527345,107.525397 143.308594,106.267578 C143.089843,105.009759 142.980469,103.674486 142.980469,102.261719 L142.980469,102.261719 Z M151.443359,97.0253906 C151.443359,96.132157 151.584634,95.3369175 151.867188,94.6396484 C152.149741,93.9423793 152.502928,93.3909525 152.926758,92.9853516 C153.350588,92.5797506 153.842771,92.2470716 154.40332,91.9873047 C154.96387,91.7275378 155.483396,91.5543624 155.961914,91.4677734 C156.440432,91.3811845 156.916664,91.3378906 157.390625,91.3378906 L159.796875,91.3378906 L159.796875,112.871094 L157.650391,112.871094 L157.650391,102.658203 L157.376953,102.658203 C156.930336,102.658203 156.458661,102.603516 155.961914,102.494141 C155.465167,102.384765 154.943362,102.191082 154.396484,101.913086 C153.849607,101.63509 153.361981,101.291018 152.933594,100.880859 C152.505206,100.470701 152.149741,99.9306674 151.867188,99.2607422 C151.584634,98.590817 151.443359,97.8457072 151.443359,97.0253906 L151.443359,97.0253906 Z M161.957031,112.871094 L161.957031,91.3378906 L164.103516,91.3378906 L164.103516,112.871094 L161.957031,112.871094 Z M168.21875,104.914062 L170.324219,104.914062 C170.388021,105.779952 170.727536,106.499997 171.342773,107.074219 C171.958011,107.64844 172.821609,108.003906 173.933594,108.140625 L173.933594,101.181641 L172.921875,100.908203 C172.356768,100.762369 171.837242,100.570965 171.363281,100.333984 C170.889321,100.097004 170.444989,99.7939472 170.030273,99.4248047 C169.615558,99.0556622 169.289715,98.5953804 169.052734,98.0439453 C168.815754,97.4925103 168.697266,96.8750034 168.697266,96.1914062 C168.697266,94.6966071 169.182612,93.5162804 170.15332,92.6503906 C171.124028,91.7845009 172.384107,91.2740893 173.933594,91.1191406 L173.933594,89.3144531 L175.683594,89.3144531 L175.683594,91.1054688 C177.196622,91.2421882 178.456701,91.7480425 179.463867,92.6230469 C180.471034,93.4980513 180.997396,94.6555918 181.042969,96.0957031 L178.964844,96.0957031 C178.9375,95.2845012 178.632164,94.596357 178.048828,94.03125 C177.465492,93.466143 176.677088,93.1243496 175.683594,93.0058594 L175.683594,99.5546875 L176.763672,99.828125 C178.285815,100.238283 179.431962,100.823889 180.202148,101.584961 C180.972335,102.346032 181.357422,103.410149 181.357422,104.777344 C181.357422,105.843755 181.102216,106.764319 180.591797,107.539062 C180.081378,108.313806 179.409184,108.899412 178.575195,109.295898 C177.741207,109.692385 176.777349,109.93164 175.683594,110.013672 L175.683594,111.763672 L173.933594,111.763672 L173.933594,110.027344 C172.110668,109.890624 170.707036,109.341476 169.722656,108.379883 C168.738276,107.418289 168.236979,106.263028 168.21875,104.914062 L168.21875,104.914062 Z M170.761719,96.0410156 C170.761719,97.2806052 171.541008,98.2011689 173.099609,98.8027344 C173.418621,98.9212246 173.696613,99.0123695 173.933594,99.0761719 L173.933594,93.0058594 C172.976558,93.1243496 172.208662,93.4433568 171.629883,93.9628906 C171.051104,94.4824245 170.761719,95.1751259 170.761719,96.0410156 L170.761719,96.0410156 Z M175.683594,108.167969 C176.777349,108.067708 177.650062,107.737307 178.301758,107.176758 C178.953454,106.616208 179.279297,105.861984 179.279297,104.914062 C179.279297,104.148434 179.049156,103.517255 178.588867,103.020508 C178.128578,102.523761 177.31511,102.097658 176.148438,101.742188 C175.947916,101.6875 175.792969,101.646485 175.683594,101.619141 L175.683594,108.167969 Z M183.873047,101.277344 L183.873047,99.5546875 L186.580078,99.5546875 L186.580078,95.453125 C186.580078,94.0130136 187.067703,92.9010456 188.042969,92.1171875 C189.018234,91.3333294 190.235019,90.9414062 191.693359,90.9414062 C193.1517,90.9414062 194.318355,91.3196577 195.193359,92.0761719 C196.068364,92.8326861 196.528646,93.8352802 196.574219,95.0839844 L194.550781,95.0839844 C194.505208,94.4186165 194.222659,93.8671897 193.703125,93.4296875 C193.183591,92.9921853 192.504561,92.7734375 191.666016,92.7734375 C190.69075,92.7734375 189.957034,93.0468723 189.464844,93.59375 C188.972654,94.1406277 188.726562,94.8287719 188.726562,95.6582031 L188.726562,99.5546875 L192.814453,99.5546875 L192.814453,101.277344 L188.726562,101.277344 L188.726562,104.572266 C188.726562,105.529302 188.66504,106.288083 188.541992,106.848633 C188.418945,107.409182 188.179689,107.803384 187.824219,108.03125 L187.824219,108.167969 L196.683594,108.167969 L196.683594,110 L184.1875,110 L184.1875,108.044922 C184.479168,108.044922 184.704752,108.040365 184.864258,108.03125 C185.023764,108.022135 185.203775,107.994792 185.404297,107.949219 C185.604819,107.903646 185.755208,107.833008 185.855469,107.737305 C185.95573,107.641601 186.062825,107.509441 186.176758,107.34082 C186.290691,107.1722 186.370442,106.958009 186.416016,106.698242 C186.461589,106.438475 186.500325,106.128583 186.532227,105.768555 C186.564128,105.408527 186.580078,104.977867 186.580078,104.476562 L186.580078,101.277344 L183.873047,101.277344 Z M199.458984,105.078125 C199.458984,103.920567 199.78027,102.929366 200.422852,102.104492 C201.065433,101.279618 201.970046,100.54818 203.136719,99.9101562 C203.182292,99.8828124 203.282551,99.830404 203.4375,99.7529297 C203.592449,99.6754553 203.715494,99.6139325 203.806641,99.5683594 C203.068356,98.7845013 202.500979,98.0690137 202.104492,97.421875 C201.708006,96.7747363 201.509766,96.0592487 201.509766,95.2753906 C201.509766,94.1269474 201.942704,93.156254 202.808594,92.3632812 C203.674483,91.5703085 204.786452,91.1738281 206.144531,91.1738281 C207.484382,91.1738281 208.59635,91.5657513 209.480469,92.3496094 C210.364588,93.1334675 210.806641,94.1269471 210.806641,95.3300781 C210.806641,95.8769559 210.70866,96.3828102 210.512695,96.8476562 C210.316731,97.3125023 210.02051,97.7363262 209.624023,98.1191406 C209.227537,98.501955 208.815106,98.8369126 208.386719,99.1240234 C207.958331,99.4111342 207.434248,99.7187484 206.814453,100.046875 L211.476562,105.132812 C212.069013,104.011713 212.365234,102.252616 212.365234,99.8554688 L212.365234,99.3496094 L214.416016,99.3496094 L214.416016,99.8417969 C214.416016,102.785822 213.914719,105.037102 212.912109,106.595703 L216.111328,110 L213.322266,110 L211.599609,108.140625 C210.706376,108.924483 209.74024,109.489582 208.701172,109.835938 C207.662104,110.182293 206.650396,110.355469 205.666016,110.355469 C203.906892,110.355469 202.432623,109.876958 201.243164,108.919922 C200.053705,107.962886 199.458984,106.6823 199.458984,105.078125 L199.458984,105.078125 Z M201.632812,104.941406 C201.632812,105.71615 201.837889,106.381508 202.248047,106.9375 C202.658205,107.493492 203.173174,107.89453 203.792969,108.140625 C204.412764,108.38672 205.09635,108.509766 205.84375,108.509766 C206.636723,108.509766 207.438798,108.363934 208.25,108.072266 C209.061202,107.780597 209.749346,107.338545 210.314453,106.746094 L205.009766,100.894531 C204.66341,101.067709 204.458334,101.172526 204.394531,101.208984 C203.483068,101.710289 202.794924,102.250323 202.330078,102.829102 C201.865232,103.40788 201.632812,104.111975 201.632812,104.941406 L201.632812,104.941406 Z M203.615234,95.3984375 C203.615234,95.8997421 203.761066,96.4010392 204.052734,96.9023438 C204.344403,97.4036483 204.863929,98.0325483 205.611328,98.7890625 C206.65951,98.2512994 207.4388,97.734052 207.949219,97.2373047 C208.459638,96.7405574 208.714844,96.1184933 208.714844,95.3710938 C208.714844,94.6419234 208.475588,94.0494814 207.99707,93.59375 C207.518552,93.1380186 206.905603,92.9101562 206.158203,92.9101562 C205.401689,92.9101562 204.788739,93.1448544 204.319336,93.6142578 C203.849933,94.0836612 203.615234,94.6783818 203.615234,95.3984375 L203.615234,95.3984375 Z M217.724609,102.630859 C217.724609,102.056638 217.795247,101.521161 217.936523,101.024414 C218.0778,100.527667 218.298827,100.069664 218.599609,99.6503906 C218.900392,99.2311177 219.315102,98.9007174 219.84375,98.6591797 C220.372398,98.417642 220.987627,98.296875 221.689453,98.296875 C222.25456,98.296875 222.790037,98.4267565 223.295898,98.6865234 C223.80176,98.9462904 224.33268,99.3496066 224.888672,99.8964844 C225.289716,100.333987 225.654295,100.671223 225.982422,100.908203 C226.310549,101.145183 226.647785,101.263672 226.994141,101.263672 C227.604821,101.263672 228.062824,101.047203 228.368164,100.614258 C228.673504,100.181313 228.848958,99.6093786 228.894531,98.8984375 L230.863281,98.8984375 C230.863281,99.4726591 230.792644,100.010414 230.651367,100.511719 C230.51009,101.013023 230.289064,101.475584 229.988281,101.899414 C229.687498,102.323244 229.272789,102.655923 228.744141,102.897461 C228.215492,103.138999 227.600264,103.259766 226.898438,103.259766 C226.333331,103.259766 225.802411,103.127605 225.305664,102.863281 C224.808917,102.598957 224.277998,102.188805 223.712891,101.632812 C223.111325,101.049476 222.682944,100.680339 222.427734,100.525391 C222.145181,100.352213 221.871746,100.265625 221.607422,100.265625 C220.978512,100.265625 220.513673,100.484373 220.212891,100.921875 C219.912108,101.359377 219.74349,101.929033 219.707031,102.630859 L217.724609,102.630859 Z M233.693359,98.5429688 L237.699219,96.4785156 L233.693359,94.4277344 L234.554688,92.9375 L238.328125,95.3847656 L238.109375,90.8867188 L239.832031,90.8867188 L239.613281,95.3847656 L243.386719,92.9375 L244.248047,94.4277344 L240.242188,96.4785156 L244.248047,98.5429688 L243.386719,100.033203 L239.613281,97.5996094 L239.832031,102.083984 L238.109375,102.083984 L238.328125,97.5996094 L234.554688,100.033203 L233.693359,98.5429688 Z M247.091797,91.3652344 L248.800781,91.3652344 C249.21094,91.8847682 249.552733,92.3404928 249.826172,92.7324219 C250.099611,93.1243509 250.418618,93.6666632 250.783203,94.359375 C251.147788,95.0520868 251.437173,95.7470668 251.651367,96.4443359 C251.865561,97.141605 252.050129,97.9960887 252.205078,99.0078125 C252.360027,100.019536 252.4375,101.104161 252.4375,102.261719 C252.4375,103.674486 252.325847,105.009759 252.102539,106.267578 C251.879231,107.525397 251.578452,108.616857 251.200195,109.541992 C250.821938,110.467127 250.452801,111.241859 250.092773,111.866211 C249.732746,112.490563 249.343101,113.062497 248.923828,113.582031 L247.119141,113.582031 C247.465497,112.980466 247.729817,112.508791 247.912109,112.166992 C248.094402,111.825194 248.361001,111.250981 248.711914,110.444336 C249.062827,109.637691 249.331705,108.883467 249.518555,108.181641 C249.705405,107.479814 249.87858,106.595708 250.038086,105.529297 C250.197592,104.462885 250.277344,103.364589 250.277344,102.234375 C250.277344,100.839837 250.165691,99.5068423 249.942383,98.2353516 C249.719074,96.9638608 249.429689,95.8837935 249.074219,94.9951172 C248.718748,94.1064409 248.379233,93.3704456 248.055664,92.7871094 C247.732095,92.2037731 247.410809,91.7298195 247.091797,91.3652344 L247.091797,91.3652344 Z M262.28125,103.191406 L262.28125,100.853516 C263.183598,100.853516 263.796548,100.641604 264.120117,100.217773 C264.443687,99.7939432 264.605469,99.0852914 264.605469,98.0917969 L264.605469,94.6875 C264.605469,93.1288985 265.022457,92.0055373 265.856445,91.3173828 C266.690434,90.6292283 267.900383,90.2851562 269.486328,90.2851562 L270.197266,90.2851562 L270.197266,92.0078125 L269.636719,92.0078125 C268.533849,92.0078125 267.750002,92.2402321 267.285156,92.7050781 C266.82031,93.1699242 266.587891,93.9081981 266.587891,94.9199219 L266.587891,98.8300781 C266.587891,100.698577 265.831388,101.710286 264.318359,101.865234 L264.318359,102.166016 C265.831388,102.302735 266.587891,103.314444 266.587891,105.201172 L266.587891,109.644531 C266.587891,110.656255 266.82031,111.396808 267.285156,111.866211 C267.750002,112.335614 268.533849,112.570312 269.636719,112.570312 L270.197266,112.570312 L270.197266,114.292969 L269.486328,114.292969 C266.232406,114.292969 264.605469,112.78452 264.605469,109.767578 L264.605469,105.953125 C264.605469,104.950516 264.443687,104.239585 264.120117,103.820312 C263.796548,103.40104 263.183598,103.191406 262.28125,103.191406 L262.28125,103.191406 Z M271.755859,110 L278.455078,91.3378906 L280.574219,91.3378906 L287.273438,110 L284.935547,110 L282.994141,104.257812 L275.939453,104.257812 L273.984375,110 L271.755859,110 Z M276.554688,102.466797 L282.378906,102.466797 L279.507812,94.03125 L279.425781,94.03125 L276.554688,102.466797 Z M277.8125,89.3007812 L281.271484,86.5527344 L283.869141,86.5527344 L280.259766,89.3007812 L277.8125,89.3007812 Z M289.652344,102.125 L289.652344,99.3222656 C289.652344,96.6881379 290.306309,94.6328199 291.614258,93.15625 C292.922207,91.6796801 294.683583,90.9414062 296.898438,90.9414062 C297.782557,90.9414062 298.600582,91.0621733 299.352539,91.3037109 C300.104496,91.5452486 300.74251,91.8710917 301.266602,92.28125 C301.790693,92.6914083 302.237303,93.1653619 302.606445,93.703125 C302.975588,94.2408881 303.249023,94.8059866 303.426758,95.3984375 C303.604493,95.9908884 303.693359,96.5878876 303.693359,97.1894531 L301.533203,97.1894531 C301.533203,96.0774684 301.116215,95.088546 300.282227,94.2226562 C299.448238,93.3567665 298.32032,92.9238281 296.898438,92.9238281 C295.348951,92.9238281 294.113937,93.4775335 293.193359,94.5849609 C292.272782,95.6923883 291.8125,97.2851459 291.8125,99.3632812 L291.8125,102.097656 C291.8125,104.203136 292.270503,105.779943 293.186523,106.828125 C294.102544,107.876307 295.362622,108.400391 296.966797,108.400391 C298.406908,108.400391 299.527991,108.024418 300.330078,107.272461 C301.132165,106.520504 301.533203,105.593104 301.533203,104.490234 L303.693359,104.490234 C303.693359,104.991539 303.618165,105.499672 303.467773,106.014648 C303.317382,106.529625 303.075848,107.040037 302.743164,107.545898 C302.41048,108.05176 302.004885,108.505206 301.526367,108.90625 C301.047849,109.307294 300.455407,109.642251 299.749023,109.911133 C299.04264,110.180014 298.265629,110.337239 297.417969,110.382812 L296.857422,111.914062 C297.768885,111.914062 298.486651,112.098631 299.010742,112.467773 C299.534833,112.836916 299.796875,113.381507 299.796875,114.101562 C299.796875,114.912764 299.518883,115.530271 298.962891,115.954102 C298.406898,116.377932 297.686853,116.61263 296.802734,116.658203 C296.055335,116.694662 295.367191,116.626303 294.738281,116.453125 L294.738281,115.058594 C295.166669,115.186199 295.699867,115.25 296.337891,115.25 C296.784507,115.25 297.167316,115.163412 297.486328,114.990234 C297.80534,114.817056 297.964844,114.534507 297.964844,114.142578 C297.964844,113.987629 297.939779,113.853191 297.889648,113.739258 C297.839518,113.625325 297.75293,113.53418 297.629883,113.46582 C297.506835,113.397461 297.39974,113.345052 297.308594,113.308594 C297.217447,113.272135 297.067058,113.244792 296.857422,113.226562 C296.647785,113.208333 296.497396,113.199219 296.40625,113.199219 L295.900391,113.199219 L295.189453,113.199219 L295.189453,112.173828 L295.873047,110.341797 C293.922516,110.141275 292.398117,109.3392 291.299805,107.935547 C290.201492,106.531894 289.652344,104.595064 289.652344,102.125 L289.652344,102.125 Z M307.904297,103.464844 L307.904297,91.3378906 L310.078125,91.3378906 L310.078125,103.519531 C310.078125,105.005216 310.513342,106.192378 311.383789,107.081055 C312.254236,107.969731 313.427727,108.414062 314.904297,108.414062 C316.380867,108.414062 317.554358,107.969731 318.424805,107.081055 C319.295252,106.192378 319.730469,105.005216 319.730469,103.519531 L319.730469,91.3378906 L321.904297,91.3378906 L321.904297,103.519531 C321.904297,105.579437 321.259447,107.240554 319.969727,108.50293 C318.680007,109.765306 316.991547,110.396484 314.904297,110.396484 C312.826161,110.396484 311.13998,109.756191 309.845703,108.475586 C308.551426,107.194981 307.904297,105.52475 307.904297,103.464844 L307.904297,103.464844 Z M311.103516,88.3847656 C311.103516,87.9928366 311.237954,87.6692721 311.506836,87.4140625 C311.775717,87.1588529 312.106118,87.03125 312.498047,87.03125 C312.908205,87.03125 313.24772,87.1588529 313.516602,87.4140625 C313.785483,87.6692721 313.919922,87.9928366 313.919922,88.3847656 C313.919922,88.76758 313.785483,89.0865873 313.516602,89.3417969 C313.24772,89.5970065 312.908205,89.7246094 312.498047,89.7246094 C312.106118,89.7246094 311.775717,89.5970065 311.506836,89.3417969 C311.237954,89.0865873 311.103516,88.76758 311.103516,88.3847656 L311.103516,88.3847656 Z M315.861328,88.3847656 C315.861328,87.9928366 315.993488,87.6692721 316.257812,87.4140625 C316.522137,87.1588529 316.850258,87.03125 317.242188,87.03125 C317.66146,87.03125 318.007811,87.1588529 318.28125,87.4140625 C318.554689,87.6692721 318.691406,87.9928366 318.691406,88.3847656 C318.691406,88.76758 318.554689,89.0865873 318.28125,89.3417969 C318.007811,89.5970065 317.66146,89.7246094 317.242188,89.7246094 C316.859373,89.7246094 316.53353,89.5970065 316.264648,89.3417969 C315.995767,89.0865873 315.861328,88.76758 315.861328,88.3847656 L315.861328,88.3847656 Z M326.019531,105.830078 C326.019531,104.55403 326.454748,103.535486 327.325195,102.774414 C328.195642,102.013343 329.432935,101.632812 331.037109,101.632812 L334.865234,101.632812 L334.865234,100.169922 C334.865234,99.2220005 334.587242,98.5156273 334.03125,98.0507812 C333.475258,97.5859352 332.691411,97.3535156 331.679688,97.3535156 C330.777339,97.3535156 330.091474,97.5016261 329.62207,97.7978516 C329.152667,98.094077 328.831381,98.5201795 328.658203,99.0761719 L326.566406,99.0761719 C326.675782,97.8730409 327.188472,96.9638703 328.104492,96.3486328 C329.020512,95.7333954 330.244133,95.4257812 331.775391,95.4257812 C332.52279,95.4257812 333.204098,95.5123689 333.819336,95.6855469 C334.434573,95.8587248 334.988279,96.1253237 335.480469,96.4853516 C335.972659,96.8453794 336.355467,97.337562 336.628906,97.9619141 C336.902345,98.5862661 337.039062,99.3177041 337.039062,100.15625 L337.039062,110 L334.960938,110 L334.960938,108.072266 L334.865234,108.072266 C333.962886,109.512377 332.572926,110.232422 330.695312,110.232422 C329.300774,110.232422 328.172856,109.826827 327.311523,109.015625 C326.450191,108.204423 326.019531,107.142585 326.019531,105.830078 L326.019531,105.830078 Z M328.234375,105.789062 C328.234375,106.618494 328.52376,107.256508 329.102539,107.703125 C329.681318,108.149742 330.394527,108.373047 331.242188,108.373047 C332.272141,108.373047 333.13346,108.058597 333.826172,107.429688 C334.518884,106.800778 334.865234,106.021489 334.865234,105.091797 L334.865234,103.423828 L331.078125,103.423828 C330.111974,103.423828 329.396487,103.638019 328.931641,104.066406 C328.466795,104.494794 328.234375,105.069007 328.234375,105.789062 L328.234375,105.789062 Z M331.515625,93.2792969 L334.783203,88.4394531 L336.984375,88.4394531 L333.183594,93.2792969 L331.515625,93.2792969 Z M341.291016,104.066406 L341.291016,101.550781 C341.291016,99.691397 341.819656,98.2057347 342.876953,97.09375 C343.93425,95.9817653 345.365225,95.4257812 347.169922,95.4257812 C348.017582,95.4257812 348.790036,95.5488269 349.487305,95.7949219 C350.184574,96.0410169 350.747394,96.3691386 351.175781,96.7792969 C351.604169,97.1894552 351.936848,97.6383439 352.173828,98.1259766 C352.410808,98.6136092 352.538411,99.1126277 352.556641,99.6230469 L350.410156,99.6230469 C350.364583,99.3769519 350.282553,99.1399751 350.164062,98.9121094 C350.045572,98.6842437 349.872397,98.440431 349.644531,98.1806641 C349.416666,97.9208971 349.090822,97.7112638 348.666992,97.5517578 C348.243162,97.3922518 347.753258,97.3125 347.197266,97.3125 C345.975905,97.3125 345.04167,97.7021445 344.394531,98.4814453 C343.747393,99.2607461 343.423828,100.315749 343.423828,101.646484 L343.423828,104.09375 C343.423828,105.369798 343.761064,106.376949 344.435547,107.115234 C345.110029,107.853519 346.030593,108.222656 347.197266,108.222656 C349.065765,108.222656 350.173175,107.552741 350.519531,106.212891 L352.666016,106.212891 C352.620442,107.188156 352.208012,108.05859 351.428711,108.824219 C350.64941,109.589848 349.535163,110.045572 348.085938,110.191406 L347.457031,111.914062 C348.368494,111.914062 349.08626,112.098631 349.610352,112.467773 C350.134443,112.836916 350.396484,113.381507 350.396484,114.101562 C350.396484,114.912764 350.118492,115.530271 349.5625,115.954102 C349.006508,116.377932 348.286463,116.61263 347.402344,116.658203 C346.654944,116.694662 345.9668,116.626303 345.337891,116.453125 L345.337891,115.058594 C345.766278,115.186199 346.299476,115.25 346.9375,115.25 C347.384117,115.25 347.766925,115.163412 348.085938,114.990234 C348.40495,114.817056 348.564453,114.534507 348.564453,114.142578 C348.564453,113.987629 348.539388,113.853191 348.489258,113.739258 C348.439127,113.625325 348.35254,113.53418 348.229492,113.46582 C348.106445,113.397461 347.999349,113.345052 347.908203,113.308594 C347.817057,113.272135 347.666668,113.244792 347.457031,113.226562 C347.247395,113.208333 347.097006,113.199219 347.005859,113.199219 L346.5,113.199219 L345.789062,113.199219 L345.789062,112.173828 L346.513672,110.205078 C344.891268,110.068359 343.615239,109.45313 342.685547,108.359375 C341.755855,107.26562 341.291016,105.834644 341.291016,104.066406 L341.291016,104.066406 Z M355.017578,112.570312 L355.578125,112.570312 C356.680995,112.570312 357.464841,112.335614 357.929688,111.866211 C358.394534,111.396808 358.626953,110.656255 358.626953,109.644531 L358.626953,105.201172 C358.626953,103.314444 359.383456,102.302735 360.896484,102.166016 L360.896484,101.865234 C359.383456,101.710286 358.626953,100.698577 358.626953,98.8300781 L358.626953,94.9199219 C358.626953,93.9081981 358.394534,93.1699242 357.929688,92.7050781 C357.464841,92.2402321 356.680995,92.0078125 355.578125,92.0078125 L355.017578,92.0078125 L355.017578,90.2851562 L355.728516,90.2851562 C357.314461,90.2851562 358.52441,90.6292283 359.358398,91.3173828 C360.192387,92.0055373 360.609375,93.1288985 360.609375,94.6875 L360.609375,98.0917969 C360.609375,99.0852914 360.771157,99.7939432 361.094727,100.217773 C361.418296,100.641604 362.031245,100.853516 362.933594,100.853516 L362.933594,103.191406 C362.031245,103.191406 361.418296,103.40104 361.094727,103.820312 C360.771157,104.239585 360.609375,104.950516 360.609375,105.953125 L360.609375,109.767578 C360.609375,112.78452 358.982438,114.292969 355.728516,114.292969 L355.017578,114.292969 L355.017578,112.570312 Z" id="sf-ABCDEFGHIJKLMNOPQRST-svg" fill="#332C21" sketch:type="MSShapeGroup"></path>
                <path d="M102.716797,11.9199219 L102.716797,9.32226562 C102.716797,6.68813787 103.388991,4.63281988 104.733398,3.15625 C106.077806,1.67968012 107.871083,0.94140625 110.113281,0.94140625 C112.136729,0.94140625 113.743158,1.5201765 114.932617,2.67773438 C116.122076,3.83529225 116.780598,5.26626752 116.908203,6.97070312 L114.748047,6.97070312 C114.574869,5.63085268 114.055343,4.62142267 113.189453,3.94238281 C112.323563,3.26334296 111.279954,2.92382812 110.058594,2.92382812 C109.338538,2.92382812 108.675459,3.04687377 108.069336,3.29296875 C107.463213,3.53906373 106.916344,3.91047929 106.428711,4.40722656 C105.941078,4.90397384 105.560548,5.57161039 105.287109,6.41015625 C105.013671,7.24870211 104.876953,8.21939553 104.876953,9.32226562 L104.876953,11.9199219 C104.876953,13.9707134 105.316727,15.5634709 106.196289,16.6982422 C107.075851,17.8330135 108.340487,18.4003906 109.990234,18.4003906 C111.393887,18.4003906 112.551428,18.0084675 113.462891,17.2246094 C114.374354,16.4407513 114.830078,15.4335999 114.830078,14.203125 L114.830078,12.3164062 L109.853516,12.3164062 L109.853516,10.3203125 L116.962891,10.3203125 L116.962891,14.203125 C116.962891,14.7044296 116.892253,15.221677 116.750977,15.7548828 C116.6097,16.2880886 116.368166,16.8372368 116.026367,17.4023438 C115.684569,17.9674507 115.258466,18.4664692 114.748047,18.8994141 C114.237628,19.3323589 113.574548,19.6901028 112.758789,19.9726562 C111.94303,20.2552097 111.033859,20.3964844 110.03125,20.3964844 C107.652332,20.3964844 105.838548,19.649096 104.589844,18.1542969 C103.34114,16.6594977 102.716797,14.5813935 102.716797,11.9199219 Z M146.357422,15.8847656 L148.490234,15.8847656 C148.526693,16.6595091 148.822914,17.2724587 149.378906,17.7236328 C149.934899,18.1748069 150.604814,18.4003906 151.388672,18.4003906 C152.373052,18.4003906 153.15462,18.1178414 153.733398,17.5527344 C154.312177,16.9876274 154.601562,16.1080789 154.601562,14.9140625 L154.601562,1.33789062 L156.775391,1.33789062 L156.775391,14.6679688 C156.775391,16.5546969 156.287765,17.981115 155.3125,18.9472656 C154.337235,19.9134163 153.029305,20.3964844 151.388672,20.3964844 C149.884758,20.3964844 148.670252,19.981775 147.745117,19.1523438 C146.819982,18.3229125 146.357422,17.2337307 146.357422,15.8847656 Z M162.025391,20 L162.025391,1.33789062 L164.199219,1.33789062 L164.199219,10.4707031 L164.294922,10.4707031 L172.580078,1.33789062 L175.191406,1.33789062 L168.191406,9.26757812 L175.574219,20 L172.771484,20 L166.564453,10.7851562 L164.199219,13.3417969 L164.199219,20 L162.025391,20 Z M193.060547,20 L193.060547,1.33789062 L195.152344,1.33789062 L201.455078,16.28125 L201.537109,16.28125 L207.8125,1.33789062 L209.917969,1.33789062 L209.917969,20 L207.935547,20 L207.935547,6.09570312 L207.8125,6.09570312 L202.466797,18.5644531 L200.511719,18.5644531 L195.152344,6.09570312 L195.042969,6.09570312 L195.042969,20 L193.060547,20 Z M288.148438,20 L288.148438,1.33789062 L294.779297,1.33789062 C295.772791,1.33789062 296.654619,1.48827975 297.424805,1.7890625 C298.194991,2.08984525 298.812498,2.4999974 299.277344,3.01953125 C299.74219,3.5390651 300.093098,4.1223926 300.330078,4.76953125 C300.567058,5.4166699 300.685547,6.10937131 300.685547,6.84765625 C300.685547,7.57682656 300.585287,8.24446312 300.384766,8.85058594 C300.184244,9.45670876 299.910809,9.9648417 299.564453,10.375 C299.218097,10.7851583 298.851239,11.1246731 298.463867,11.3935547 C298.076495,11.6624362 297.65495,11.8789054 297.199219,12.0429688 L301.013672,20 L298.511719,20 L295.039062,12.4941406 L290.322266,12.4941406 L290.322266,20 L288.148438,20 Z M290.322266,10.5253906 L294.396484,10.5253906 C295.72722,10.5253906 296.734372,10.2200551 297.417969,9.609375 C298.101566,8.99869486 298.443359,8.12826086 298.443359,6.99804688 C298.443359,5.80403049 298.09473,4.89030265 297.397461,4.25683594 C296.700192,3.62336923 295.736334,3.30664062 294.505859,3.30664062 L290.322266,3.30664062 L290.322266,10.5253906 Z M1.68164062,60.8300781 C1.68164062,59.5540301 2.11685763,58.5354856 2.98730469,57.7744141 C3.85775175,57.0133425 5.09504406,56.6328125 6.69921875,56.6328125 L10.5273438,56.6328125 L10.5273438,55.1699219 C10.5273438,54.2220005 10.2493517,53.5156273 9.69335938,53.0507812 C9.13736701,52.5859352 8.35352068,52.3535156 7.34179688,52.3535156 C6.43944861,52.3535156 5.75358308,52.5016261 5.28417969,52.7978516 C4.8147763,53.094077 4.49349045,53.5201795 4.3203125,54.0761719 L2.22851562,54.0761719 C2.33789117,52.8730409 2.85058136,51.9638703 3.76660156,51.3486328 C4.68262177,50.7333954 5.90624234,50.4257812 7.4375,50.4257812 C8.18489957,50.4257812 8.86620786,50.5123689 9.48144531,50.6855469 C10.0966828,50.8587248 10.6503882,51.1253237 11.1425781,51.4853516 C11.6347681,51.8453794 12.0175768,52.337562 12.2910156,52.9619141 C12.5644545,53.5862661 12.7011719,54.3177041 12.7011719,55.15625 L12.7011719,65 L10.6230469,65 L10.6230469,63.0722656 L10.5273438,63.0722656 C9.62499549,64.512377 8.23503543,65.2324219 6.35742188,65.2324219 C4.96288365,65.2324219 3.83496524,64.826827 2.97363281,64.015625 C2.11230038,63.204423 1.68164062,62.1425847 1.68164062,60.8300781 Z M3.89648438,60.7890625 C3.89648438,61.6184937 4.1858695,62.2565082 4.76464844,62.703125 C5.34342737,63.1497418 6.05663639,63.3730469 6.90429688,63.3730469 C7.93424994,63.3730469 8.79556945,63.0585969 9.48828125,62.4296875 C10.180993,61.8007781 10.5273438,61.021489 10.5273438,60.0917969 L10.5273438,58.4238281 L6.74023438,58.4238281 C5.77408371,58.4238281 5.05859607,58.6380187 4.59375,59.0664062 C4.12890393,59.4947938 3.89648438,60.0690068 3.89648438,60.7890625 Z M17.6777344,65 L17.6777344,45.3535156 L19.8242188,45.3535156 L19.8242188,52.9277344 L19.9335938,52.9277344 C20.125001,52.2623665 20.5898401,51.679039 21.328125,51.1777344 C22.0664099,50.6764298 23.0188744,50.4257812 24.1855469,50.4257812 C25.8626386,50.4257812 27.2047476,50.9703722 28.2119141,52.0595703 C29.2190806,53.1487685 29.7226562,54.6321521 29.7226562,56.5097656 L29.7226562,59.1347656 C29.7226562,61.0214938 29.2122447,62.5094347 28.1914062,63.5986328 C27.1705678,64.687831 25.8079512,65.2324219 24.1035156,65.2324219 C22.9915309,65.2324219 22.0755244,65.0091168 21.3554688,64.5625 C20.6354131,64.1158832 20.1250015,63.5598992 19.8242188,62.8945312 L19.7148438,62.8945312 L19.7148438,65 L17.6777344,65 Z M123.306641,46.1875 C123.306641,45.7226539 123.461587,45.335288 123.771484,45.0253906 C124.081382,44.7154932 124.459633,44.5605469 124.90625,44.5605469 C125.380211,44.5605469 125.772134,44.7132146 126.082031,45.0185547 C126.391929,45.3238948 126.546875,45.7135393 126.546875,46.1875 C126.546875,46.6432314 126.391929,47.0237615 126.082031,47.3291016 C125.772134,47.6344416 125.380211,47.7871094 124.90625,47.7871094 C124.459633,47.7871094 124.081382,47.6344416 123.771484,47.3291016 C123.461587,47.0237615 123.306641,46.6432314 123.306641,46.1875 Z M19.8242188,59.2441406 C19.8242188,60.4108131 20.1956343,61.3815065 20.9384766,62.15625 C21.6813188,62.9309935 22.6406191,63.3183594 23.8164062,63.3183594 C24.9648495,63.3183594 25.8762987,62.9241576 26.5507812,62.1357422 C27.2252638,61.3473268 27.5625,60.1875077 27.5625,58.65625 L27.5625,57.0566406 C27.5625,55.5344976 27.2275424,54.3632854 26.5576172,53.5429688 C25.887692,52.7226521 24.9511779,52.3125 23.7480469,52.3125 C22.5358012,52.3125 21.5787796,52.7089804 20.8769531,53.5019531 C20.1751267,54.2949258 19.8242188,55.3613214 19.8242188,56.7011719 L19.8242188,59.2441406 Z M123.853516,65 L123.853516,50.6582031 L126,50.6582031 L126,65 L123.853516,65 Z M128.830078,68.2675781 C129.076173,68.3131513 129.381509,68.3359375 129.746094,68.3359375 C130.484379,68.3359375 131.006183,68.1080752 131.311523,67.6523438 C131.616864,67.1966123 131.769531,66.4583384 131.769531,65.4375 L131.769531,50.6582031 L133.916016,50.6582031 L133.916016,65.4648438 C133.916016,68.5820468 132.66733,70.140625 130.169922,70.140625 C129.586586,70.140625 129.139976,70.0996098 128.830078,70.0175781 L128.830078,68.2675781 Z M131.222656,46.1875 C131.222656,45.7226539 131.377603,45.335288 131.6875,45.0253906 C131.997397,44.7154932 132.375649,44.5605469 132.822266,44.5605469 C133.296226,44.5605469 133.688149,44.7132146 133.998047,45.0185547 C134.307944,45.3238948 134.462891,45.7135393 134.462891,46.1875 C134.462891,46.6432314 134.307944,47.0237615 133.998047,47.3291016 C133.688149,47.6344416 133.296226,47.7871094 132.822266,47.7871094 C132.375649,47.7871094 131.997397,47.6344416 131.6875,47.3291016 C131.377603,47.0237615 131.222656,46.6432314 131.222656,46.1875 Z M201.126953,58.9570312 L201.126953,56.6875 C201.126953,54.8007718 201.701166,53.2854875 202.849609,52.1416016 C203.998053,50.9977156 205.456371,50.4257812 207.224609,50.4257812 C209.001962,50.4257812 210.460281,50.9840439 211.599609,52.1005859 C212.738938,53.217128 213.308594,54.746084 213.308594,56.6875 L213.308594,58.9570312 C213.308594,60.9075618 212.738938,62.4410751 211.599609,63.5576172 C210.460281,64.6741592 209.001962,65.2324219 207.224609,65.2324219 C205.410798,65.2324219 203.941086,64.6787165 202.81543,63.5712891 C201.689773,62.4638617 201.126953,60.9257911 201.126953,58.9570312 Z M203.259766,58.7246094 C203.259766,60.1373769 203.610674,61.2561808 204.3125,62.0810547 C205.014326,62.9059286 205.98502,63.3183594 207.224609,63.3183594 C208.455084,63.3183594 209.416663,62.9082072 210.109375,62.0878906 C210.802087,61.267574 211.148438,60.1464915 211.148438,58.7246094 L211.148438,56.9199219 C211.148438,55.5344983 210.792972,54.4202516 210.082031,53.5771484 C209.37109,52.7340453 208.418626,52.3125 207.224609,52.3125 C206.030593,52.3125 205.071293,52.7363239 204.34668,53.5839844 C203.622067,54.4316449 203.259766,55.5436129 203.259766,56.9199219 L203.259766,58.7246094 Z M273.710938,52.4902344 L273.710938,50.6582031 L275.898438,50.6582031 L275.898438,47.0488281 L278.044922,47.0488281 L278.044922,50.6582031 L281.298828,50.6582031 L281.298828,52.4902344 L278.044922,52.4902344 L278.044922,61.1035156 C278.044922,61.97852 278.211261,62.5641261 278.543945,62.8603516 C278.876629,63.156577 279.503251,63.3046875 280.423828,63.3046875 C280.797528,63.3046875 281.166665,63.2819013 281.53125,63.2363281 L281.53125,65.0273438 C281.194009,65.1002608 280.642582,65.1367188 279.876953,65.1367188 C279.047522,65.1367188 278.368492,65.0569669 277.839844,64.8974609 C277.311195,64.7379549 276.9056,64.4736347 276.623047,64.1044922 C276.340493,63.7353497 276.149089,63.3138045 276.048828,62.8398438 C275.948567,62.365883 275.898438,61.7506548 275.898438,60.9941406 L275.898438,52.4902344 L273.710938,52.4902344 Z M285.373047,60.6796875 L285.373047,50.6582031 L287.533203,50.6582031 L287.533203,60.1328125 C287.533203,61.2812557 287.829424,62.1083959 288.421875,62.6142578 C289.014326,63.1201197 289.807287,63.3730469 290.800781,63.3730469 C291.894537,63.3730469 292.817379,63.0244175 293.569336,62.3271484 C294.321293,61.6298793 294.697266,60.8072964 294.697266,59.859375 L294.697266,50.6582031 L296.857422,50.6582031 L296.857422,65 L294.697266,65 L294.697266,62.6210938 L294.574219,62.6210938 C294.337238,63.3138055 293.85417,63.9221979 293.125,64.4462891 C292.39583,64.9703802 291.457037,65.2324219 290.308594,65.2324219 C288.777336,65.2324219 287.571945,64.8678422 286.692383,64.1386719 C285.812821,63.4095016 285.373047,62.2565183 285.373047,60.6796875 Z" id="sf-red" fill="#EF431D" sketch:type="MSShapeGroup"></path>
            </g>
        </g>
    </g>
</svg>