<?xml version="1.0" encoding="UTF-8" standalone="no"?>
<svg width="1200px" height="390px" viewBox="0 0 1200 390" version="1.1" xmlns="http://www.w3.org/2000/svg" xmlns:xlink="http://www.w3.org/1999/xlink" xmlns:sketch="http://www.bohemiancoding.com/sketch/ns">
    <!-- Generator: Sketch Beta 3.3 (11855) - http://www.bohemiancoding.com/sketch -->
    <title>Artboard 10</title>
    <desc>Created with Sketch Beta.</desc>
    <defs></defs>
    <g id="Page-1" stroke="none" stroke-width="1" fill="none" fill-rule="evenodd" sketch:type="MSPage">
        <g id="Artboard-10" sketch:type="MSArtboardGroup" fill="#EF431D">
            <path d="M60.4335938,266 L60.4335938,132.699219 L75.375,132.699219 L120.394531,239.4375 L120.980469,239.4375 L165.804688,132.699219 L180.84375,132.699219 L180.84375,266 L166.683594,266 L166.683594,166.683594 L165.804688,166.683594 L127.621094,255.746094 L113.65625,255.746094 L75.375,166.683594 L74.59375,166.683594 L74.59375,266 L60.4335938,266 Z M202.289062,236.214844 C202.289062,227.100215 205.397755,219.824897 211.615234,214.388672 C217.832713,208.952447 226.670516,206.234375 238.128906,206.234375 L265.472656,206.234375 L265.472656,195.785156 C265.472656,189.014289 263.486999,183.968767 259.515625,180.648438 C255.544251,177.328108 249.945349,175.667969 242.71875,175.667969 C236.273405,175.667969 231.374366,176.725901 228.021484,178.841797 C224.668603,180.957693 222.373704,184.001282 221.136719,187.972656 L206.195312,187.972656 C206.976566,179.378863 210.638639,172.884788 217.181641,168.490234 C223.724642,164.095681 232.464789,161.898438 243.402344,161.898438 C248.740912,161.898438 253.6074,162.516921 258.001953,163.753906 C262.396506,164.990892 266.351545,166.895169 269.867188,169.466797 C273.38283,172.038424 276.117178,175.554014 278.070312,180.013672 C280.023447,184.47333 281,189.697887 281,195.6875 L281,266 L266.15625,266 L266.15625,252.230469 L265.472656,252.230469 C259.027312,262.516979 249.099025,267.660156 235.6875,267.660156 C225.726513,267.660156 217.669953,264.76305 211.517578,258.96875 C205.365204,253.17445 202.289062,245.589891 202.289062,236.214844 L202.289062,236.214844 Z M218.109375,235.921875 C218.109375,241.846384 220.176412,246.40363 224.310547,249.59375 C228.444682,252.78387 233.539032,254.378906 239.59375,254.378906 C246.950558,254.378906 253.10284,252.132835 258.050781,247.640625 C262.998723,243.148415 265.472656,237.582064 265.472656,230.941406 L265.472656,219.027344 L238.421875,219.027344 C231.520799,219.027344 226.410173,220.557276 223.089844,223.617188 C219.769515,226.677099 218.109375,230.77862 218.109375,235.921875 L218.109375,235.921875 Z M301.371094,223.617188 L301.371094,205.648438 C301.371094,192.367121 305.147098,181.755248 312.699219,173.8125 C320.25134,165.869752 330.472592,161.898438 343.363281,161.898438 C349.417999,161.898438 354.935522,162.777335 359.916016,164.535156 C364.896509,166.292978 368.916651,168.636704 371.976562,171.566406 C375.036474,174.496108 377.412752,177.702457 379.105469,181.185547 C380.798186,184.668637 381.709635,188.233055 381.839844,191.878906 L366.507812,191.878906 C366.18229,190.121085 365.596358,188.428394 364.75,186.800781 C363.903642,185.173169 362.666675,183.43165 361.039062,181.576172 C359.41145,179.720694 357.084,178.223313 354.056641,177.083984 C351.029282,175.944656 347.529968,175.375 343.558594,175.375 C334.834592,175.375 328.161481,178.158175 323.539062,183.724609 C318.916644,189.291043 316.605469,196.826775 316.605469,206.332031 L316.605469,223.8125 C316.605469,232.927129 319.014299,240.121067 323.832031,245.394531 C328.649764,250.667995 335.225219,253.304688 343.558594,253.304688 C356.905015,253.304688 364.815092,248.519579 367.289062,238.949219 L382.621094,238.949219 C382.42578,242.529966 381.514331,245.980452 379.886719,249.300781 C378.259106,252.62111 375.91538,255.6647 372.855469,258.431641 C369.795558,261.198582 365.726588,263.428377 360.648438,265.121094 C355.570287,266.813811 349.808626,267.660156 343.363281,267.660156 C330.472592,267.660156 320.25134,263.688842 312.699219,255.746094 C305.147098,247.803346 301.371094,237.093817 301.371094,223.617188 L301.371094,223.617188 Z M403.285156,266 L403.285156,163.558594 L418.617188,163.558594 L418.617188,179.28125 L419.398438,179.28125 C420.179691,177.328115 421.205072,175.456389 422.474609,173.666016 C423.744147,171.875642 425.46939,170.036468 427.650391,168.148438 C429.831391,166.260407 432.67967,164.763026 436.195313,163.65625 C439.710955,162.549474 443.68227,161.996094 448.109375,161.996094 C449.34636,161.996094 451.332018,162.126301 454.066406,162.386719 L454.066406,176.644531 C452.569003,176.384113 449.964862,176.253906 446.253906,176.253906 C437.399695,176.253906 430.580102,178.597633 425.794922,183.285156 C421.009742,187.97268 418.617188,193.962203 418.617188,201.253906 L418.617188,266 L403.285156,266 Z M463.304688,222.835938 L463.304688,206.625 C463.304688,193.14837 467.406209,182.324911 475.609375,174.154297 C483.812541,165.983683 494.229104,161.898438 506.859375,161.898438 C519.554751,161.898438 529.971313,165.886028 538.109375,173.861328 C546.247437,181.836628 550.316406,192.757743 550.316406,206.625 L550.316406,222.835938 C550.316406,236.768299 546.247437,247.721965 538.109375,255.697266 C529.971313,263.672566 519.554751,267.660156 506.859375,267.660156 C493.903581,267.660156 483.405639,263.705118 475.365234,255.794922 C467.32483,247.884726 463.304688,236.898508 463.304688,222.835938 L463.304688,222.835938 Z M478.539062,221.175781 C478.539062,231.266978 481.045548,239.258434 486.058594,245.150391 C491.07164,251.042347 498.005164,253.988281 506.859375,253.988281 C515.648481,253.988281 522.516902,251.058623 527.464844,245.199219 C532.412785,239.339814 534.886719,231.332082 534.886719,221.175781 L534.886719,208.285156 C534.886719,198.389273 532.347682,190.430369 527.269531,184.408203 C522.191381,178.386038 515.388063,175.375 506.859375,175.375 C498.330687,175.375 491.478542,178.402313 486.302734,184.457031 C481.126927,190.511749 478.539062,198.454378 478.539062,208.285156 L478.539062,221.175781 Z M571.273438,301.839844 L571.273438,163.460938 L585.824219,163.460938 L585.824219,179.769531 L586.605469,179.769531 C588.558604,174.691381 592.188125,170.443376 597.494141,167.025391 C602.800157,163.607405 609.489543,161.898438 617.5625,161.898438 C629.541727,161.898438 639.111943,165.788373 646.273438,173.568359 C653.434932,181.348346 657.015625,191.943943 657.015625,205.355469 L657.015625,224.105469 C657.015625,237.582099 653.369828,248.210248 646.078125,255.990234 C638.786422,263.770221 629.053446,267.660156 616.878906,267.660156 C609.001263,267.660156 602.65367,266.097672 597.835938,262.972656 C593.018205,259.847641 589.535167,255.843774 587.386719,250.960938 L586.605469,250.960938 L586.605469,301.839844 L571.273438,301.839844 Z M586.605469,225.375 C586.605469,233.708375 589.193333,240.56052 594.369141,245.931641 C599.544948,251.302761 606.331989,253.988281 614.730469,253.988281 C622.933635,253.988281 629.476538,251.172554 634.359375,245.541016 C639.242212,239.909477 641.683594,231.559951 641.683594,220.492188 L641.683594,209.066406 C641.683594,198.193956 639.274764,189.860706 634.457031,184.066406 C629.639299,178.272106 622.901085,175.375 614.242188,175.375 C605.58329,175.375 598.812524,178.141899 593.929688,183.675781 C589.046851,189.209663 586.605469,196.729119 586.605469,206.234375 L586.605469,225.375 Z M678.363281,266 L678.363281,125.667969 L693.695312,125.667969 L693.695312,182.308594 L694.476562,182.308594 C695.062503,180.22525 696.039056,178.141938 697.40625,176.058594 C698.773444,173.97525 700.64517,171.810558 703.021484,169.564453 C705.397798,167.318348 708.636698,165.479174 712.738281,164.046875 C716.839864,162.614576 721.429662,161.898438 726.507812,161.898438 C736.859427,161.898438 745.208953,164.81182 751.556641,170.638672 C757.904329,176.465524 761.078125,184.880153 761.078125,195.882812 L761.078125,266 L745.648438,266 L745.648438,200.667969 C745.648438,192.529907 743.548849,186.247418 739.349609,181.820312 C735.15037,177.393207 729.339881,175.179688 721.917969,175.179688 C712.868444,175.179688 705.902368,178.320932 701.019531,184.603516 C696.136694,190.886099 693.695312,198.877556 693.695312,208.578125 L693.695312,266 L678.363281,266 Z M780.570312,236.214844 C780.570312,227.100215 783.679005,219.824897 789.896484,214.388672 C796.113963,208.952447 804.951766,206.234375 816.410156,206.234375 L843.753906,206.234375 L843.753906,195.785156 C843.753906,189.014289 841.768249,183.968767 837.796875,180.648438 C833.825501,177.328108 828.226599,175.667969 821,175.667969 C814.554655,175.667969 809.655616,176.725901 806.302734,178.841797 C802.949853,180.957693 800.654954,184.001282 799.417969,187.972656 L784.476562,187.972656 C785.257816,179.378863 788.919889,172.884788 795.462891,168.490234 C802.005892,164.095681 810.746039,161.898438 821.683594,161.898438 C827.022162,161.898438 831.88865,162.516921 836.283203,163.753906 C840.677756,164.990892 844.632795,166.895169 848.148438,169.466797 C851.66408,172.038424 854.398428,175.554014 856.351562,180.013672 C858.304697,184.47333 859.28125,189.697887 859.28125,195.6875 L859.28125,266 L844.4375,266 L844.4375,252.230469 L843.753906,252.230469 C837.308562,262.516979 827.380275,267.660156 813.96875,267.660156 C804.007763,267.660156 795.951203,264.76305 789.798828,258.96875 C783.646454,253.17445 780.570312,245.589891 780.570312,236.214844 L780.570312,236.214844 Z M796.390625,235.921875 C796.390625,241.846384 798.457662,246.40363 802.591797,249.59375 C806.725932,252.78387 811.820282,254.378906 817.875,254.378906 C825.231808,254.378906 831.38409,252.132835 836.332031,247.640625 C841.279973,243.148415 843.753906,237.582064 843.753906,230.941406 L843.753906,219.027344 L816.703125,219.027344 C809.802049,219.027344 804.691423,220.557276 801.371094,223.617188 C798.050765,226.677099 796.390625,230.77862 796.390625,235.921875 L796.390625,235.921875 Z M878.1875,221.761719 L878.1875,204.476562 C878.1875,191.585873 882.077435,181.266966 889.857422,173.519531 C897.637409,165.772097 907.354108,161.898438 919.007812,161.898438 C926.234411,161.898438 932.549452,163.607405 937.953125,167.025391 C943.356798,170.443376 947.002595,174.398415 948.890625,178.890625 L949.574219,178.890625 L949.574219,163.558594 L964.125,163.558594 L964.125,263.558594 C964.125,277.165433 960.218789,287.386685 952.40625,294.222656 C944.593711,301.058628 933.721424,304.476562 919.789062,304.476562 C907.614522,304.476562 898.22334,301.904974 891.615234,296.761719 C885.007128,291.618464 881.279952,285.010457 880.433594,276.9375 L896.449219,276.9375 C897.165368,280.908874 899.655578,284.212877 903.919922,286.849609 C908.184266,289.486341 913.701789,290.804688 920.472656,290.804688 C929.782599,290.804688 936.84633,288.444685 941.664062,283.724609 C946.481795,279.004534 948.890625,272.380251 948.890625,263.851562 L948.890625,248.128906 L948.011719,248.128906 C945.863271,252.751325 942.217474,256.576157 937.074219,259.603516 C931.930964,262.630875 925.94144,264.144531 919.105469,264.144531 C911.488243,264.144531 904.603546,262.468116 898.451172,259.115234 C892.298797,255.762353 887.383482,250.847038 883.705078,244.369141 C880.026674,237.891244 878.1875,230.355512 878.1875,221.761719 L878.1875,221.761719 Z M893.421875,218.148438 C893.421875,227.718798 896.107395,235.514944 901.478516,241.537109 C906.849636,247.559275 913.766885,250.570312 922.230469,250.570312 C930.433635,250.570312 936.911435,247.705758 941.664062,241.976562 C946.41669,236.247367 948.792969,229.44405 948.792969,221.566406 L948.792969,205.0625 C948.792969,197.054647 946.351587,190.104847 941.46875,184.212891 C936.585913,178.320934 930.108113,175.375 922.035156,175.375 C913.311154,175.375 906.361354,178.386038 901.185547,184.408203 C896.00974,190.430369 893.421875,198.32417 893.421875,208.089844 L893.421875,218.148438 Z M984.984375,223.128906 L984.984375,206.527344 C984.984375,193.115818 988.858034,182.324911 996.605469,174.154297 C1004.3529,165.983683 1014.37884,161.898438 1026.68359,161.898438 C1038.98834,161.898438 1049.01428,165.983683 1056.76172,174.154297 C1064.50915,182.324911 1068.38281,193.115818 1068.38281,206.527344 L1068.38281,219.027344 L1000.41406,219.027344 L1000.41406,224.203125 C1000.41406,232.862022 1002.80662,239.990857 1007.5918,245.589844 C1012.37698,251.18883 1019.13147,253.988281 1027.85547,253.988281 C1033.77998,253.988281 1038.79295,252.800142 1042.89453,250.423828 C1046.99611,248.047514 1049.5677,245.166684 1050.60938,241.78125 L1066.91797,241.78125 C1066.46224,244.580743 1065.3392,247.412746 1063.54883,250.277344 C1061.75845,253.141941 1059.33335,255.908841 1056.27344,258.578125 C1053.21353,261.247409 1049.20966,263.428377 1044.26172,265.121094 C1039.31378,266.813811 1033.87763,267.660156 1027.95312,267.660156 C1014.4765,267.660156 1003.946,263.640014 996.361328,255.599609 C988.776655,247.559205 984.984375,236.735745 984.984375,223.128906 L984.984375,223.128906 Z M1000.41406,207.113281 L1052.95312,207.113281 L1052.95312,205.257812 C1052.95312,196.273393 1050.54429,189.046902 1045.72656,183.578125 C1040.90883,178.109348 1034.56124,175.375 1026.68359,175.375 C1018.80595,175.375 1012.45836,178.109348 1007.64062,183.578125 C1002.82289,189.046902 1000.41406,196.273393 1000.41406,205.257812 L1000.41406,207.113281 Z M1081.72266,239.535156 L1096.76172,239.535156 C1098.32423,249.756562 1106.07154,254.867188 1120.00391,254.867188 C1128.14197,254.867188 1134.21287,253.288427 1138.2168,250.130859 C1142.22072,246.973292 1144.22266,242.888046 1144.22266,237.875 C1144.22266,235.921865 1143.96224,234.196622 1143.44141,232.699219 C1142.92057,231.201815 1142.00912,229.883469 1140.70703,228.744141 C1139.40494,227.604812 1138.13542,226.660811 1136.89844,225.912109 C1135.66145,225.163408 1133.85483,224.447269 1131.47852,223.763672 C1129.1022,223.080075 1127.10027,222.559247 1125.47266,222.201172 C1123.84504,221.843097 1121.50132,221.371097 1118.44141,220.785156 C1115.12108,220.069007 1112.43556,219.466799 1110.38477,218.978516 C1108.33397,218.490232 1105.92514,217.822921 1103.1582,216.976562 C1100.39126,216.130204 1098.17774,215.267583 1096.51758,214.388672 C1094.85741,213.509761 1093.09962,212.37045 1091.24414,210.970703 C1089.38866,209.570957 1087.95639,208.041024 1086.94727,206.380859 C1085.93815,204.720695 1085.10808,202.718762 1084.45703,200.375 C1083.80599,198.031238 1083.48047,195.459649 1083.48047,192.660156 C1083.48047,187.516901 1084.50585,182.927104 1086.55664,178.890625 C1088.60743,174.854146 1091.39061,171.631522 1094.90625,169.222656 C1098.42189,166.81379 1102.37693,164.990892 1106.77148,163.753906 C1111.16604,162.516921 1115.86977,161.898438 1120.88281,161.898438 C1131.69016,161.898438 1140.38148,164.518854 1146.95703,169.759766 C1153.53258,175.000677 1156.82031,181.820271 1156.82031,190.21875 L1142.36719,190.21875 C1142.04167,186.052063 1139.95835,182.38999 1136.11719,179.232422 C1132.27602,176.074854 1126.97009,174.496094 1120.19922,174.496094 C1113.75387,174.496094 1108.52932,175.960923 1104.52539,178.890625 C1100.52146,181.820327 1098.51953,185.856745 1098.51953,191 C1098.51953,193.278657 1099.04036,195.313142 1100.08203,197.103516 C1101.1237,198.893889 1102.14908,200.277339 1103.1582,201.253906 C1104.16732,202.230474 1106.08788,203.174475 1108.91992,204.085938 C1111.75197,204.9974 1113.6888,205.567056 1114.73047,205.794922 C1115.77214,206.022788 1118.08332,206.462236 1121.66406,207.113281 C1122.51042,207.308595 1123.16146,207.438802 1123.61719,207.503906 C1128.04429,208.28516 1131.78775,209.066402 1134.84766,209.847656 C1137.90757,210.62891 1141.09764,211.751946 1144.41797,213.216797 C1147.7383,214.681648 1150.40754,216.358063 1152.42578,218.246094 C1154.44402,220.134124 1156.10416,222.591782 1157.40625,225.619141 C1158.70834,228.6465 1159.35938,232.113262 1159.35938,236.019531 C1159.35938,245.980519 1155.6973,253.744113 1148.37305,259.310547 C1141.04879,264.876981 1131.36464,267.660156 1119.32031,267.660156 C1108.05724,267.660156 1098.97529,265.202499 1092.07422,260.287109 C1085.17314,255.37172 1081.72266,248.454472 1081.72266,239.535156 L1081.72266,239.535156 Z" id="Macrophages-sf-svg" sketch:type="MSShapeGroup"></path>
        </g>
    </g>
</svg>