<?xml version="1.0" encoding="UTF-8" standalone="no"?>
<svg width="570px" height="135px" viewBox="0 0 570 135" version="1.1" xmlns="https://www.w3.org/2000/svg" xmlns:xlink="https://www.w3.org/1999/xlink" xmlns:sketch="https://www.bohemiancoding.com/sketch/ns">
    <!-- Generator: Sketch Beta 3.3 (11855) - https://www.bohemiancoding.com/sketch -->
    <title>specimen</title>
    <desc>Created with Sketch Beta.</desc>
    <defs></defs>
    <g id="Page-1" stroke="none" stroke-width="1" fill="none" fill-rule="evenodd" sketch:type="MSPage">
        <g id="specimen" sketch:type="MSArtboardGroup">
            <g id="sfd-svg" sketch:type="MSLayerGroup" transform="translate(0.000000, 12.000000)">
                <path d="M97.8085938,11.9472656 L97.8085938,9.28125 C97.8085938,6.67446613 98.4762303,4.63281988 99.8115234,3.15625 C101.146817,1.67968012 102.930978,0.94140625 105.164062,0.94140625 C106.194016,0.94140625 107.13053,1.10318849 107.973633,1.42675781 C108.816736,1.75032714 109.511716,2.18782276 110.058594,2.73925781 C110.605471,3.29069286 111.036131,3.91959282 111.350586,4.62597656 C111.665041,5.3323603 111.849609,6.08202729 111.904297,6.875 L109.894531,6.875 C109.739583,5.56249344 109.222335,4.55534205 108.342773,3.85351563 C107.463212,3.1516892 106.385423,2.80078125 105.109375,2.80078125 C104.37109,2.80078125 103.689782,2.92838414 103.06543,3.18359375 C102.441078,3.43880336 101.885094,3.82161203 101.397461,4.33203125 C100.909828,4.84245047 100.52702,5.52148014 100.249023,6.36914062 C99.9710273,7.21680111 99.8320312,8.18749453 99.8320312,9.28125 L99.8320312,11.9472656 C99.8320312,14.025401 100.278641,15.6432234 101.171875,16.8007812 C102.065109,17.9583391 103.359367,18.5371094 105.054688,18.5371094 C106.494799,18.5371094 107.675126,18.140629 108.595703,17.3476562 C109.516281,16.5546835 109.976562,15.5247459 109.976562,14.2578125 L109.976562,12.2753906 L104.917969,12.2753906 L104.917969,10.4160156 L111.958984,10.4160156 L111.958984,14.2578125 C111.958984,14.786461 111.886068,15.3196588 111.740234,15.8574219 C111.5944,16.395185 111.348309,16.9397759 111.001953,17.4912109 C110.655597,18.042646 110.227216,18.5302713 109.716797,18.9541016 C109.206378,19.3779318 108.550134,19.7242825 107.748047,19.9931641 C106.94596,20.2620456 106.057297,20.3964844 105.082031,20.3964844 C102.712228,20.3964844 100.907558,19.6468174 99.6679688,18.1474609 C98.4283792,16.6481045 97.8085938,14.5813934 97.8085938,11.9472656 Z M139.166016,15.8984375 L141.162109,15.8984375 C141.189453,16.673181 141.487953,17.3020809 142.057617,17.7851562 C142.627281,18.2682316 143.326819,18.5097656 144.15625,18.5097656 C145.158859,18.5097656 145.956377,18.2203805 146.548828,17.6416016 C147.141279,17.0628226 147.4375,16.1627665 147.4375,14.9414062 L147.4375,1.3515625 L149.460938,1.3515625 L149.460938,14.7226562 C149.460938,16.5820405 148.980148,17.9902296 148.018555,18.9472656 C147.056961,19.9043017 145.764982,20.3828125 144.142578,20.3828125 C142.638664,20.3828125 141.433273,19.9635459 140.526367,19.125 C139.619462,18.2864541 139.166016,17.2109441 139.166016,15.8984375 Z M154.027344,20 L154.027344,1.3515625 L156.064453,1.3515625 L156.064453,10.59375 L156.146484,10.59375 L164.568359,1.3515625 L167.029297,1.3515625 L159.947266,9.32226562 L167.412109,20 L164.787109,20 L158.416016,10.7304688 L156.064453,13.2734375 L156.064453,20 L154.027344,20 Z M183.53125,20 L183.53125,1.3515625 L185.486328,1.3515625 L191.898437,16.2949219 L191.953125,16.2949219 L198.351562,1.3515625 L200.306641,1.3515625 L200.306641,20 L198.460937,20 L198.460937,5.91796875 L198.392578,5.91796875 L192.841797,18.5644531 L190.996094,18.5644531 L185.431641,5.91796875 L185.376953,5.91796875 L185.376953,20 L183.53125,20 Z M1.32617188,60.9121094 C1.32617188,59.645176 1.75683163,58.6403032 2.61816406,57.8974609 C3.47949649,57.1546187 4.71223156,56.7832031 6.31640625,56.7832031 L10.2128906,56.7832031 L10.2128906,55.0058594 C10.2128906,53.173819 9.15105229,52.2578125 7.02734375,52.2578125 C5.10415705,52.2578125 4.04231871,53.0507733 3.84179688,54.6367188 L1.88671875,54.6367188 C1.95963578,53.3515561 2.43814662,52.3330116 3.32226562,51.5810547 C4.20638463,50.8290978 5.47785629,50.453125 7.13671875,50.453125 C8.7591227,50.453125 10.0169226,50.8245406 10.9101562,51.5673828 C11.8033899,52.3102251 12.25,53.447258 12.25,54.9785156 L12.25,65 L10.2949219,65 L10.2949219,63.0175781 L10.2402344,63.0175781 C9.85741996,63.6556021 9.31055043,64.1842427 8.59960938,64.6035156 C7.88866832,65.0227886 7.02279156,65.2324219 6.00195312,65.2324219 C4.6074149,65.2324219 3.47949649,64.8382201 2.61816406,64.0498047 C1.75683163,63.2613893 1.32617188,62.2155013 1.32617188,60.9121094 Z M3.40429688,60.8710938 C3.40429688,61.7096396 3.70051787,62.3544899 4.29296875,62.8056641 C4.88541963,63.2568382 5.614579,63.4824219 6.48046875,63.4824219 C7.54688033,63.4824219 8.43554332,63.161136 9.14648438,62.5185547 C9.85742543,61.8759733 10.2128906,61.0716194 10.2128906,60.1054688 L10.2128906,58.4648438 L6.38476562,58.4648438 C5.38215645,58.4648438 4.63476809,58.6813129 4.14257812,59.1142578 C3.65038816,59.5472027 3.40429688,60.1328088 3.40429688,60.8710938 Z M16.5292969,65 L16.5292969,45.3535156 L18.5390625,45.3535156 L18.5390625,52.7363281 L18.59375,52.7363281 C18.7578133,52.44466 18.9378245,52.184897 19.1337891,51.9570312 C19.3297536,51.7291655 19.5917952,51.4899101 19.9199219,51.2392578 C20.2480485,50.9886055 20.6627579,50.7949226 21.1640625,50.6582031 C21.6653671,50.5214837 22.2304656,50.453125 22.859375,50.453125 C24.627613,50.453125 26.0016227,51.0410097 26.9814453,52.2167969 C27.9612679,53.392584 28.4511719,54.9602767 28.4511719,56.9199219 L28.4511719,58.7382812 C28.4511719,60.7890728 27.9475962,62.3841089 26.9404297,63.5234375 C25.9332632,64.6627661 24.5455818,65.2324219 22.7773438,65.2324219 C21.665359,65.2324219 20.7425167,65.0000023 20.0087891,64.5351562 C19.2750614,64.0703102 18.7669285,63.4824254 18.484375,62.7714844 L18.4296875,62.7714844 L18.4296875,65 L16.5292969,65 Z M18.5390625,58.7519531 C18.5390625,59.5722697 18.6757799,60.3287726 18.9492188,61.0214844 C19.2226576,61.7141962 19.6715464,62.2906878 20.2958984,62.7509766 C20.9202505,63.2112653 21.6699175,63.4414062 22.5449219,63.4414062 C23.7115944,63.4414062 24.6503871,63.0221396 25.3613281,62.1835938 C26.0722692,61.3450479 26.4277344,60.1510494 26.4277344,58.6015625 L26.4277344,57.1523438 C26.4277344,55.5846276 26.0836623,54.3701215 25.3955078,53.5087891 C24.7073533,52.6474566 23.7571675,52.2167969 22.5449219,52.2167969 C21.3235616,52.2167969 20.3505896,52.6679642 19.6259766,53.5703125 C18.9013636,54.4726608 18.5390625,55.607415 18.5390625,56.9746094 L18.5390625,58.7519531 Z M115.896484,47.171875 C115.896484,46.7890606 116.028645,46.4654961 116.292969,46.2011719 C116.557293,45.9368476 116.8763,45.8046875 117.25,45.8046875 C117.651044,45.8046875 117.983723,45.934569 118.248047,46.1943359 C118.512371,46.4541029 118.644531,46.779946 118.644531,47.171875 C118.644531,47.563804 118.512371,47.8919258 118.248047,48.15625 C117.983723,48.4205742 117.651044,48.5527344 117.25,48.5527344 C116.8763,48.5527344 116.557293,48.4205742 116.292969,48.15625 C116.028645,47.8919258 115.896484,47.563804 115.896484,47.171875 Z M116.265625,65 L116.265625,50.6855469 L118.275391,50.6855469 L118.275391,65 L116.265625,65 Z M120.367188,68.3085938 C120.613282,68.3541669 120.918618,68.3769531 121.283203,68.3769531 C122.030603,68.3769531 122.556965,68.1513694 122.862305,67.7001953 C123.167645,67.2490212 123.320312,66.5175832 123.320312,65.5058594 L123.320312,50.6855469 L125.330078,50.6855469 L125.330078,65.5332031 C125.330078,68.5592599 124.113293,70.0722656 121.679688,70.0722656 C121.114581,70.0722656 120.677085,70.0312504 120.367188,69.9492188 L120.367188,68.3085938 Z M188.603516,58.4785156 L188.603516,57.1933594 C188.603516,56.2089795 188.72884,55.311202 188.979492,54.5 C189.230144,53.688798 189.599281,52.9801463 190.086914,52.3740234 C190.574547,51.7679006 191.208004,51.2962256 191.987305,50.9589844 C192.766605,50.6217431 193.657547,50.453125 194.660156,50.453125 C196.647145,50.453125 198.151037,51.0592387 199.171875,52.2714844 C200.192713,53.48373 200.703125,55.1243386 200.703125,57.1933594 L200.703125,58.4785156 C200.703125,60.556651 200.192713,62.2018169 199.171875,63.4140625 C198.151037,64.6263081 196.647145,65.2324219 194.660156,65.2324219 C192.673167,65.2324219 191.166997,64.6263081 190.141602,63.4140625 C189.116206,62.2018169 188.603516,60.556651 188.603516,58.4785156 Z M190.599609,58.2597656 C190.599609,59.8274818 190.925452,61.0830031 191.577148,62.0263672 C192.228844,62.9697313 193.256503,63.4414062 194.660156,63.4414062 C195.380212,63.4414062 196.004555,63.3092461 196.533203,63.0449219 C197.061852,62.7805976 197.47884,62.4091821 197.78418,61.9306641 C198.08952,61.452146 198.315103,60.9098338 198.460938,60.3037109 C198.606772,59.6975881 198.679688,59.0162798 198.679688,58.2597656 L198.679688,57.4257812 C198.679688,56.6874963 198.606772,56.0153025 198.460938,55.4091797 C198.315103,54.8030569 198.08952,54.2539087 197.78418,53.7617188 C197.47884,53.2695288 197.061852,52.8889987 196.533203,52.6201172 C196.004555,52.3512356 195.380212,52.2167969 194.660156,52.2167969 C193.265618,52.2167969 192.240238,52.6975863 191.583984,53.6591797 C190.927731,54.620773 190.599609,55.8762943 190.599609,57.4257812 L190.599609,58.2597656 Z M122.951172,47.171875 C122.951172,46.7890606 123.083332,46.4654961 123.347656,46.2011719 C123.61198,45.9368476 123.930988,45.8046875 124.304688,45.8046875 C124.705731,45.8046875 125.03841,45.934569 125.302734,46.1943359 C125.567059,46.4541029 125.699219,46.779946 125.699219,47.171875 C125.699219,47.563804 125.567059,47.8919258 125.302734,48.15625 C125.03841,48.4205742 124.705731,48.5527344 124.304688,48.5527344 C123.930988,48.5527344 123.61198,48.4205742 123.347656,48.15625 C123.083332,47.8919258 122.951172,47.563804 122.951172,47.171875 Z M256.675781,52.3945312 L256.675781,50.6855469 L258.685547,50.6855469 L258.685547,47.0898438 L260.695312,47.0898438 L260.695312,50.6855469 L263.662109,50.6855469 L263.662109,52.3945312 L260.695312,52.3945312 L260.695312,61.1992188 C260.695312,62.0651085 260.866209,62.648436 261.208008,62.9492188 C261.549806,63.2500015 262.180985,63.4003906 263.101562,63.4003906 C263.420575,63.4003906 263.648437,63.3912761 263.785156,63.3730469 L263.785156,65.0273438 C263.466144,65.0911462 263.078778,65.1230469 262.623047,65.1230469 C261.80273,65.1230469 261.135094,65.0455737 260.620117,64.890625 C260.105141,64.7356763 259.704103,64.4804705 259.416992,64.125 C259.129881,63.7695295 258.936198,63.3570987 258.835938,62.8876953 C258.735677,62.4182919 258.685547,61.8144568 258.685547,61.0761719 L258.685547,52.3945312 L256.675781,52.3945312 Z M266.765625,60.2832031 L266.765625,50.6855469 L268.789062,50.6855469 L268.789062,59.7089844 C268.789062,60.9850324 269.114906,61.9169892 269.766602,62.5048828 C270.418298,63.0927764 271.286453,63.3867188 272.371094,63.3867188 C273.501308,63.3867188 274.4082,63.040368 275.091797,62.3476562 C275.775394,61.6549445 276.117188,60.7252663 276.117188,59.5585938 L276.117188,50.6855469 L278.140625,50.6855469 L278.140625,65 L276.130859,65 L276.130859,63.0449219 L276.048828,63.0449219 C275.766275,63.6829459 275.269535,64.2070292 274.558594,64.6171875 C273.847653,65.0273458 272.945318,65.2324219 271.851562,65.2324219 C270.320305,65.2324219 269.089848,64.8040407 268.160156,63.9472656 C267.230464,63.0904905 266.765625,61.8691486 266.765625,60.2832031 Z M274.859375,20 L274.859375,1.3515625 L281.421875,1.3515625 C282.39714,1.3515625 283.267574,1.499673 284.033203,1.79589844 C284.798832,2.09212388 285.41406,2.49544016 285.878906,3.00585938 C286.343752,3.51627859 286.69466,4.09504885 286.931641,4.7421875 C287.168621,5.38932615 287.287109,6.08202756 287.287109,6.8203125 C287.287109,7.54948281 287.18685,8.21484074 286.986328,8.81640625 C286.785806,9.41797176 286.512372,9.92382607 286.166016,10.3339844 C285.81966,10.7441427 285.445966,11.0836575 285.044922,11.3525391 C284.643878,11.6214206 284.21094,11.8333326 283.746094,11.9882813 L287.615234,20 L285.277344,20 L281.708984,12.4121094 L276.896484,12.4121094 L276.896484,20 L274.859375,20 Z M276.896484,10.5664062 L281.066406,10.5664062 C282.415371,10.5664062 283.440752,10.2542349 284.142578,9.62988281 C284.844405,9.00553073 285.195312,8.11458912 285.195312,6.95703125 C285.195312,5.74478561 284.83529,4.81282878 284.115234,4.16113281 C283.395179,3.50943685 282.410814,3.18359375 281.162109,3.18359375 L276.896484,3.18359375 L276.896484,10.5664062 Z" id="sfd-red" fill="#EF431D" sketch:type="MSShapeGroup"></path>
                <path d="M0.3828125,20 L7.08203125,1.3515625 L9.078125,1.3515625 L15.7773438,20 L13.5898438,20 L11.6074219,14.1894531 L4.45703125,14.1894531 L2.47460938,20 L0.3828125,20 Z M5.04492188,12.5078125 L11.0332031,12.5078125 L8.06640625,3.8671875 L8.01171875,3.8671875 L5.04492188,12.5078125 Z M18.4980469,20 L18.4980469,1.3515625 L25.265625,1.3515625 C26.8333412,1.3515625 28.0865838,1.75943603 29.0253906,2.57519531 C29.9641974,3.3909546 30.4335938,4.50975852 30.4335938,5.93164062 C30.4335938,7.03451072 30.160159,7.93456683 29.6132812,8.63183594 C29.0664035,9.32910505 28.3418014,9.81445176 27.4394531,10.0878906 L27.4394531,10.1835938 C28.7246158,10.3567717 29.7226527,10.8512329 30.4335938,11.6669922 C31.1445348,12.4827515 31.5,13.5286395 31.5,14.8046875 C31.5,16.4544353 30.9143939,17.7327429 29.7431641,18.6396484 C28.5719342,19.546554 27.001963,20 25.0332031,20 L18.4980469,20 Z M20.5351562,18.140625 L24.0625,18.140625 C24.9010459,18.140625 25.6210907,18.0950525 26.2226562,18.0039062 C26.8242218,17.91276 27.3779272,17.7509777 27.8837891,17.5185547 C28.389651,17.2861317 28.7724596,16.9466168 29.0322266,16.5 C29.2919935,16.0533832 29.421875,15.5019564 29.421875,14.8457031 C29.421875,13.6881453 29.0459022,12.813154 28.2939453,12.2207031 C27.5419884,11.6282522 26.5371157,11.3320312 25.2792969,11.3320312 L20.5351562,11.3320312 L20.5351562,18.140625 Z M20.5351562,9.48632812 L23.6796875,9.48632812 C25.2291744,9.48632812 26.3958294,9.23112234 27.1796875,8.72070312 C27.9635456,8.21028391 28.3554688,7.39453686 28.3554688,6.2734375 C28.3554688,5.24348443 28.045576,4.47330984 27.4257812,3.96289062 C26.8059865,3.45247141 25.9856822,3.19726562 24.9648438,3.19726562 L20.5351562,3.19726562 L20.5351562,9.48632812 Z M34.3710938,12.0292969 L34.3710938,9.41796875 C34.3710938,6.72915322 35.0136654,4.64421313 36.2988281,3.16308594 C37.5839908,1.68195874 39.3430878,0.94140625 41.5761719,0.94140625 C42.6608127,0.94140625 43.6451779,1.12597472 44.5292969,1.49511719 C45.4134159,1.86425966 46.1243463,2.34732774 46.6621094,2.94433594 C47.1998725,3.54134413 47.6123033,4.19986619 47.8994141,4.91992188 C48.1865249,5.63997756 48.3300781,6.37369418 48.3300781,7.12109375 L46.3066406,7.12109375 C46.3066406,6.6015599 46.201824,6.08886972 45.9921875,5.58300781 C45.782551,5.07714591 45.48633,4.61458543 45.1035156,4.1953125 C44.7207012,3.77603957 44.2216828,3.43880336 43.6064453,3.18359375 C42.9912079,2.92838414 42.3144568,2.80078125 41.5761719,2.80078125 C39.9811118,2.80078125 38.7187546,3.36815839 37.7890625,4.50292969 C36.8593704,5.63770099 36.3945312,7.2805882 36.3945312,9.43164062 L36.3945312,12.015625 C36.3945312,14.1757921 36.8548131,15.8027289 37.7753906,16.8964844 C38.6959681,17.9902398 39.9856688,18.5371094 41.6445312,18.5371094 C43.1028719,18.5371094 44.2467406,18.1520221 45.0761719,17.3818359 C45.9056031,16.6116498 46.3203125,15.661464 46.3203125,14.53125 L48.34375,14.53125 C48.34375,15.0598985 48.2617196,15.5930963 48.0976562,16.1308594 C47.9335929,16.6686225 47.6692727,17.1949844 47.3046875,17.7099609 C46.9401023,18.2249375 46.5003281,18.6806621 45.9853516,19.0771484 C45.470375,19.4736348 44.830082,19.792642 44.0644531,20.0341797 C43.2988243,20.2757174 42.4648483,20.3964844 41.5625,20.3964844 C39.3111867,20.3964844 37.549811,19.6741609 36.2783203,18.2294922 C35.0068296,16.7848235 34.3710938,14.7181124 34.3710938,12.0292969 L34.3710938,12.0292969 Z M52.1035156,20 L52.1035156,1.3515625 L57.8457031,1.3515625 C59.0214903,1.3515625 60.0719355,1.50195162 60.9970703,1.80273438 C61.9222051,2.10351713 62.696937,2.52278377 63.3212891,3.06054688 C63.9456411,3.59830998 64.4628886,4.25911066 64.8730469,5.04296875 C65.2832052,5.82682684 65.5794262,6.68131048 65.7617188,7.60644531 C65.9440113,8.53158015 66.0351562,9.55468189 66.0351562,10.6757812 C66.0351562,11.7786513 65.9485686,12.7858027 65.7753906,13.6972656 C65.6022127,14.6087285 65.3128275,15.4609335 64.9072266,16.2539062 C64.5016256,17.046879 63.9889354,17.7145155 63.3691406,18.2568359 C62.7493459,18.7991564 61.9723354,19.2252589 61.0380859,19.5351562 C60.1038365,19.8450536 59.0397195,20 57.8457031,20 L52.1035156,20 Z M54.140625,18.140625 L57.7773438,18.140625 C61.8789268,18.140625 63.9296875,15.6523686 63.9296875,10.6757812 C63.9296875,5.69007924 61.8789268,3.19726563 57.7773438,3.19726563 L54.140625,3.19726563 L54.140625,18.140625 Z M69.6855469,20 L69.6855469,1.3515625 L80.6914062,1.3515625 L80.6914062,3.19726562 L71.7226562,3.19726562 L71.7226562,9.54101562 L80.1992188,9.54101562 L80.1992188,11.3867188 L71.7226562,11.3867188 L71.7226562,18.140625 L80.6914062,18.140625 L80.6914062,20 L69.6855469,20 Z M84.5878906,20 L84.5878906,1.3515625 L95.4160156,1.3515625 L95.4160156,3.19726562 L86.625,3.19726562 L86.625,9.89648438 L94.6914062,9.89648438 L94.6914062,11.7558594 L86.625,11.7558594 L86.625,20 L84.5878906,20 Z M115.869141,20 L115.869141,1.3515625 L117.90625,1.3515625 L117.90625,9.390625 L127.708984,9.390625 L127.708984,1.3515625 L129.746094,1.3515625 L129.746094,20 L127.708984,20 L127.708984,11.2363281 L117.90625,11.2363281 L117.90625,20 L115.869141,20 Z M134.421875,20 L134.421875,1.3515625 L136.458984,1.3515625 L136.458984,20 L134.421875,20 Z M169.955078,20 L169.955078,1.3515625 L171.992188,1.3515625 L171.992188,18.140625 L180.783203,18.140625 L180.783203,20 L169.955078,20 Z M205.023438,20 L205.023438,1.3515625 L207.060547,1.3515625 L216.808594,16.5 L216.863281,16.5 L216.863281,1.3515625 L218.900391,1.3515625 L218.900391,20 L216.863281,20 L207.101562,4.8515625 L207.060547,4.8515625 L207.060547,20 L205.023438,20 Z M222.810547,12.1933594 L222.810547,9.32226562 C222.810547,6.71548176 223.475905,4.66699964 224.806641,3.17675781 C226.137376,1.68651599 227.923817,0.94140625 230.166016,0.94140625 C232.417329,0.94140625 234.203769,1.68651599 235.525391,3.17675781 C236.847012,4.66699964 237.507812,6.71548176 237.507812,9.32226562 L237.507812,12.1933594 C237.507812,14.781914 236.842455,16.7962168 235.511719,18.2363281 C234.180983,19.6764395 232.385428,20.3964844 230.125,20.3964844 C227.864572,20.3964844 226.08041,19.6764395 224.772461,18.2363281 C223.464512,16.7962168 222.810547,14.781914 222.810547,12.1933594 L222.810547,12.1933594 Z M224.833984,12.2070312 C224.833984,14.2669374 225.32161,15.8369087 226.296875,16.9169922 C227.27214,17.9970757 228.552726,18.5371094 230.138672,18.5371094 C231.733732,18.5371094 233.021154,17.9970757 234.000977,16.9169922 C234.980799,15.8369087 235.470703,14.2669374 235.470703,12.2070312 L235.470703,9.30859375 C235.470703,7.23957299 234.976242,5.63770099 233.987305,4.50292969 C232.998367,3.36815839 231.715503,2.80078125 230.138672,2.80078125 C228.561841,2.80078125 227.283534,3.36815839 226.303711,4.50292969 C225.323888,5.63770099 224.833984,7.23957299 224.833984,9.30859375 L224.833984,12.2070312 Z M241.404297,20 L241.404297,1.3515625 L247.994141,1.3515625 C249.753264,1.3515625 251.172846,1.87108855 252.25293,2.91015625 C253.333013,3.94922395 253.873047,5.33006951 253.873047,7.05273438 C253.873047,8.78451387 253.335292,10.1653594 252.259766,11.1953125 C251.184239,12.2252656 249.762379,12.7402344 247.994141,12.7402344 L243.441406,12.7402344 L243.441406,20 L241.404297,20 Z M243.441406,10.921875 L246.572266,10.921875 C247.44727,10.921875 248.185544,10.8649094 248.787109,10.7509766 C249.388675,10.6370437 249.924151,10.4410821 250.393555,10.1630859 C250.862958,9.88508976 251.209309,9.48860935 251.432617,8.97363281 C251.655926,8.45865628 251.767578,7.8183632 251.767578,7.05273438 C251.767578,5.8313741 251.432621,4.88346691 250.762695,4.20898438 C250.09277,3.53450184 249.147142,3.19726562 247.925781,3.19726562 L243.441406,3.19726562 L243.441406,10.921875 Z M256.238281,12.0976562 L256.238281,9.24023438 C256.238281,6.64256514 256.896803,4.61003338 258.213867,3.14257812 C259.530931,1.67512287 261.315093,0.94140625 263.566406,0.94140625 C265.826834,0.94140625 267.620111,1.67512287 268.946289,3.14257812 C270.272468,4.61003338 270.935547,6.64256514 270.935547,9.24023438 L270.935547,12.0976562 C270.935547,14.9687644 270.124357,17.1380135 268.501953,18.6054688 L271.085938,22.1738281 L268.734375,22.1738281 L266.916016,19.6855469 C265.931636,20.1503929 264.81511,20.3828125 263.566406,20.3828125 C261.315093,20.3828125 259.530931,19.6513745 258.213867,18.1884766 C256.896803,16.7255786 256.238281,14.6953255 256.238281,12.0976562 L256.238281,12.0976562 Z M258.261719,12.0839844 C258.261719,14.1530051 258.751623,15.7412054 259.731445,16.8486328 C260.711268,17.9560602 261.989575,18.5097656 263.566406,18.5097656 C264.359379,18.5097656 265.083981,18.3730482 265.740234,18.0996094 L263.333984,14.8320312 L265.740234,14.8320312 L267.3125,16.9648438 C268.369797,15.8072859 268.898438,14.180349 268.898438,12.0839844 L268.898438,9.25390625 C268.898438,7.18488549 268.406255,5.59212798 267.421875,4.47558594 C266.437495,3.3590439 265.152352,2.80078125 263.566406,2.80078125 C261.989575,2.80078125 260.711268,3.3590439 259.731445,4.47558594 C258.751623,5.59212798 258.261719,7.18488549 258.261719,9.25390625 L258.261719,12.0839844 Z M289.884766,15.0507812 L291.949219,15.0507812 C292.040365,16.0442758 292.500647,16.8736946 293.330078,17.5390625 C294.159509,18.2044304 295.298821,18.5371094 296.748047,18.5371094 C298.106127,18.5371094 299.19303,18.2226594 300.008789,17.59375 C300.824548,16.9648406 301.232422,16.1171928 301.232422,15.0507812 C301.232422,14.22135 300.972659,13.5582707 300.453125,13.0615234 C299.933591,12.5647762 299.113287,12.1705744 297.992188,11.8789062 L294.765625,11.0175781 C294.173174,10.8626294 293.63314,10.659832 293.145508,10.4091797 C292.657875,10.1585274 292.206708,9.84179879 291.791992,9.45898438 C291.377277,9.07616996 291.053712,8.60677361 290.821289,8.05078125 C290.588866,7.49478889 290.472656,6.87500342 290.472656,6.19140625 C290.472656,5.36197502 290.64811,4.60775079 290.999023,3.92871094 C291.349937,3.24967108 291.819333,2.69368706 292.407227,2.26074219 C292.99512,1.82779731 293.665035,1.49283973 294.416992,1.25585938 C295.168949,1.01887902 295.959631,0.900390625 296.789062,0.900390625 C297.59115,0.900390625 298.359046,1.00748591 299.092773,1.22167969 C299.826501,1.43587347 300.491859,1.75032345 301.088867,2.16503906 C301.685875,2.57975468 302.166665,3.12434559 302.53125,3.79882812 C302.895835,4.47331066 303.087239,5.23892801 303.105469,6.09570312 L301.068359,6.09570312 C300.977213,5.12043783 300.564782,4.32064114 299.831055,3.69628906 C299.097327,3.07193698 298.069668,2.75976562 296.748047,2.75976562 C295.490228,2.75976562 294.473962,3.05142937 293.699219,3.63476562 C292.924475,4.21810188 292.537109,5.02473443 292.537109,6.0546875 C292.537109,7.54948664 293.46223,8.53840904 295.3125,9.02148438 L298.470703,9.8828125 C300.056649,10.3112001 301.26204,10.9104779 302.086914,11.6806641 C302.911788,12.4508502 303.324219,13.5286389 303.324219,14.9140625 C303.324219,16.080735 303.014326,17.0856078 302.394531,17.9287109 C301.774736,18.7718141 300.956711,19.3938782 299.94043,19.7949219 C298.924149,20.1959655 297.773444,20.3964844 296.488281,20.3964844 C295.558589,20.3964844 294.715499,20.2848318 293.958984,20.0615234 C293.20247,19.838215 292.580406,19.5488299 292.092773,19.1933594 C291.605141,18.8378888 291.19271,18.4209008 290.855469,17.9423828 C290.518227,17.4638648 290.276693,16.985354 290.130859,16.5068359 C289.985025,16.0283179 289.902995,15.5429712 289.884766,15.0507812 L289.884766,15.0507812 Z M304.910156,3.19726562 L304.910156,1.3515625 L318.527344,1.3515625 L318.527344,3.19726562 L312.716797,3.19726562 L312.716797,20 L310.707031,20 L310.707031,3.19726562 L304.910156,3.19726562 Z M320.892578,13.4785156 L320.892578,1.3515625 L322.929688,1.3515625 L322.929688,13.5332031 C322.929688,15.0553462 323.37174,16.2698522 324.255859,17.1767578 C325.139978,18.0836634 326.338534,18.5371094 327.851562,18.5371094 C329.364591,18.5371094 330.565425,18.0836634 331.454102,17.1767578 C332.342778,16.2698522 332.787109,15.0553462 332.787109,13.5332031 L332.787109,1.3515625 L334.810547,1.3515625 L334.810547,13.5332031 C334.810547,15.5931093 334.170254,17.2519468 332.889648,18.5097656 C331.609043,19.7675844 329.929698,20.3964844 327.851562,20.3964844 C325.773427,20.3964844 324.094082,19.7607485 322.813477,18.4892578 C321.532871,17.2177671 320.892578,15.5475364 320.892578,13.4785156 L320.892578,13.4785156 Z M337.189453,1.3515625 L339.5,1.3515625 L344.96875,17.2929688 L345.037109,17.2929688 L350.492188,1.3515625 L352.816406,1.3515625 L345.994141,20 L343.970703,20 L337.189453,1.3515625 Z M353.828125,1.3515625 L356.220703,1.3515625 L359.912109,16.4179688 L359.966797,16.4179688 L363.849609,1.3515625 L366.037109,1.3515625 L369.919922,16.4179688 L369.988281,16.4179688 L373.679688,1.3515625 L376.072266,1.3515625 L370.917969,20 L369.072266,20 L364.970703,4.83789062 L364.902344,4.83789062 L360.787109,20 L358.955078,20 L353.828125,1.3515625 Z M376.974609,20 L383.154297,10.6074219 L377.056641,1.3515625 L379.517578,1.3515625 L384.466797,8.96679688 L384.576172,8.96679688 L389.484375,1.3515625 L391.849609,1.3515625 L385.587891,10.7714844 L391.712891,20 L389.238281,20 L384.34375,12.3847656 L384.234375,12.3847656 L379.298828,20 L376.974609,20 Z M392.574219,1.3515625 L394.925781,1.3515625 L399.806641,9.78710938 L399.875,9.78710938 L404.783203,1.3515625 L407.134766,1.3515625 L400.859375,11.796875 L400.859375,20 L398.835938,20 L398.835938,11.796875 L392.574219,1.3515625 Z M408.365234,20 L408.365234,18.5234375 L418.701172,3.23828125 L418.701172,3.18359375 L408.734375,3.18359375 L408.734375,1.3515625 L421.230469,1.3515625 L421.230469,2.78710938 L410.949219,18.0859375 L410.949219,18.140625 L421.449219,18.140625 L421.449219,20 L408.365234,20 Z M31.3769531,58.6972656 L31.3769531,56.9472656 C31.3769531,55.0240789 31.8919219,53.4609435 32.921875,52.2578125 C33.9518281,51.0546815 35.3828033,50.453125 37.2148438,50.453125 C38.044275,50.453125 38.8053351,50.5784493 39.4980469,50.8291016 C40.1907587,51.0797539 40.7558572,51.4101542 41.1933594,51.8203125 C41.6308616,52.2304708 41.9703764,52.688474 42.2119141,53.1943359 C42.4534517,53.7001978 42.578776,54.2174453 42.5878906,54.7460938 L40.578125,54.7460938 C40.4869787,54.1080697 40.1474639,53.5270208 39.5595703,53.0029297 C38.9716767,52.4788385 38.1992235,52.2167969 37.2421875,52.2167969 C35.9752541,52.2167969 35.0136752,52.6656856 34.3574219,53.5634766 C33.7011686,54.4612675 33.3730469,55.6210866 33.3730469,57.0429688 L33.3730469,58.7109375 C33.3730469,60.0690172 33.7193976,61.1809853 34.4121094,62.046875 C35.1048212,62.9127647 36.0527284,63.3457031 37.2558594,63.3457031 C38.2402393,63.3457031 39.0172498,63.1406271 39.5869141,62.7304688 C40.1565784,62.3203104 40.5188794,61.8007844 40.6738281,61.171875 L42.6835938,61.171875 C42.6562499,61.664065 42.5149752,62.147133 42.2597656,62.6210938 C42.004556,63.0950545 41.6559267,63.5279928 41.2138672,63.9199219 C40.7718077,64.3118509 40.2021519,64.6285795 39.5048828,64.8701172 C38.8076137,65.1116549 38.044275,65.2324219 37.2148438,65.2324219 C35.3645741,65.2324219 33.9290416,64.633144 32.9082031,63.4345703 C31.8873647,62.2359966 31.3769531,60.6569108 31.3769531,58.6972656 L31.3769531,58.6972656 Z M45.3496094,58.8203125 L45.3496094,56.8515625 C45.3496094,54.9374904 45.8440706,53.3903054 46.8330078,52.2099609 C47.821945,51.0296165 49.2050692,50.4394531 50.9824219,50.4394531 C52.0944066,50.4394531 53.0149703,50.6604796 53.7441406,51.1025391 C54.4733109,51.5445986 54.9609363,52.0891895 55.2070312,52.7363281 L55.2617188,52.7363281 L55.2617188,45.3535156 L57.2714844,45.3535156 L57.2714844,65 L55.3710938,65 L55.3710938,62.7714844 L55.3164062,62.7714844 C55.1432283,63.4095084 54.6669961,63.9768855 53.8876953,64.4736328 C53.1083945,64.9703801 52.1399797,65.21875 50.9824219,65.21875 C49.1959546,65.21875 47.8105518,64.6354225 46.8261719,63.46875 C45.841792,62.3020775 45.3496094,60.7526138 45.3496094,58.8203125 L45.3496094,58.8203125 Z M47.359375,58.4238281 C47.359375,59.9642004 47.6966112,61.187821 48.3710938,62.0947266 C49.0455763,63.0016321 50.0253842,63.4550781 51.3105469,63.4550781 C52.559251,63.4550781 53.5299445,63.0107466 54.2226562,62.1220703 C54.915368,61.233394 55.2617188,60.0143307 55.2617188,58.4648438 L55.2617188,57.1386719 C55.2617188,55.6438727 54.9062536,54.4521529 54.1953125,53.5634766 C53.4843714,52.6748002 52.5000063,52.2304688 51.2421875,52.2304688 C49.9752541,52.2304688 49.0113965,52.6839147 48.3505859,53.5908203 C47.6897753,54.4977259 47.359375,55.712232 47.359375,57.234375 L47.359375,58.4238281 Z M60.9492188,58.6015625 L60.9492188,57.234375 C60.9492188,55.9036392 61.1565734,54.7369842 61.5712891,53.734375 C61.9860047,52.7317658 62.6354122,51.9342478 63.5195312,51.3417969 C64.4036503,50.749346 65.4791603,50.453125 66.7460938,50.453125 C68.6419366,50.453125 70.0820263,51.063796 71.0664062,52.2851562 C72.0507862,53.5065165 72.5429688,55.1471251 72.5429688,57.2070312 L72.5429688,58.3417969 L62.9726562,58.3417969 L62.9726562,58.7382812 C62.9726562,59.3763053 63.0501294,59.9710259 63.2050781,60.5224609 C63.3600268,61.073896 63.5924464,61.5706358 63.9023438,62.0126953 C64.2122411,62.4547548 64.6246719,62.8033841 65.1396484,63.0585938 C65.654625,63.3138034 66.2447883,63.4414062 66.9101562,63.4414062 C67.8945362,63.4414062 68.6533176,63.2249371 69.1865234,62.7919922 C69.7197292,62.3590473 70.0638013,61.8281281 70.21875,61.1992188 L72.3378906,61.1992188 C72.255859,61.6822941 72.0963554,62.1448546 71.859375,62.5869141 C71.6223946,63.0289736 71.2988302,63.4573547 70.8886719,63.8720703 C70.4785136,64.2867859 69.931644,64.6171863 69.2480469,64.8632812 C68.5644497,65.1093762 67.7897179,65.2324219 66.9238281,65.2324219 C64.9732975,65.2324219 63.4899139,64.6285868 62.4736328,63.4208984 C61.4573517,62.2132101 60.9492188,60.6067809 60.9492188,58.6015625 L60.9492188,58.6015625 Z M62.9726562,56.6054688 L70.5195312,56.6054688 L70.5195312,56.5644531 C70.5195312,55.2701758 70.182295,54.2220092 69.5078125,53.4199219 C68.83333,52.6178345 67.9127663,52.2167969 66.7460938,52.2167969 C65.5885359,52.2167969 64.6702508,52.6201132 63.9912109,53.4267578 C63.3121711,54.2334025 62.9726562,55.2792904 62.9726562,56.5644531 L62.9726562,56.6054688 Z M74.8261719,52.3945312 L74.8261719,50.6855469 L76.890625,50.6855469 L76.890625,49.1953125 C76.890625,47.8463474 77.2324185,46.8505892 77.9160156,46.2080078 C78.5996128,45.5654265 79.6477794,45.2441406 81.0605469,45.2441406 C81.3886735,45.2441406 81.7350242,45.2760413 82.0996094,45.3398438 L82.0996094,47.0351562 C81.8079412,46.9986977 81.5390637,46.9804688 81.2929688,46.9804688 C80.4544229,46.9804688 79.8460305,47.1513655 79.4677734,47.4931641 C79.0895163,47.8349626 78.9003906,48.4479122 78.9003906,49.3320312 L78.9003906,50.6855469 L81.8535156,50.6855469 L81.8535156,52.3945312 L78.9003906,52.3945312 L78.9003906,65 L76.890625,65 L76.890625,52.3945312 L74.8261719,52.3945312 Z M83.671875,58.7382812 L83.671875,56.6328125 C83.671875,54.7916575 84.2141873,53.301438 85.2988281,52.1621094 C86.383469,51.0227808 87.7506428,50.453125 89.4003906,50.453125 C91.4329529,50.453125 92.8411419,51.2141851 93.625,52.7363281 L93.6796875,52.7363281 L93.6796875,50.6855469 L95.59375,50.6855469 L95.59375,64.7128906 C95.59375,66.5722749 95.0514377,67.9736281 93.9667969,68.9169922 C92.882156,69.8603563 91.3828221,70.3320312 89.46875,70.3320312 C87.7460851,70.3320312 86.4199265,69.9309936 85.4902344,69.1289062 C84.5605422,68.3268189 84.0638024,67.3561255 84,66.2167969 L86.1054688,66.2167969 C86.1783858,66.8548209 86.5042289,67.3994118 87.0830078,67.8505859 C87.6617867,68.3017601 88.4843697,68.5273438 89.5507812,68.5273438 C90.8724024,68.5273438 91.8772752,68.2037793 92.5654297,67.5566406 C93.2535842,66.909502 93.5976562,65.9889383 93.5976562,64.7949219 L93.5976562,62.4980469 L93.5429688,62.4980469 C93.2513006,63.1451855 92.7317746,63.6966123 91.984375,64.1523438 C91.2369754,64.6080752 90.3665414,64.8359375 89.3730469,64.8359375 C87.7415283,64.8359375 86.383469,64.2776749 85.2988281,63.1611328 C84.2141873,62.0445908 83.671875,60.5703217 83.671875,58.7382812 L83.671875,58.7382812 Z M85.6679688,58.4375 C85.6679688,59.8684967 86.0484988,60.9964151 86.8095703,61.8212891 C87.5706418,62.646163 88.5572856,63.0585938 89.7695312,63.0585938 C90.954433,63.0585938 91.8863898,62.6233767 92.5654297,61.7529297 C93.2444695,60.8824826 93.5839844,59.8274802 93.5839844,58.5878906 L93.5839844,56.9882812 C93.5839844,55.6302015 93.2376337,54.4954473 92.5449219,53.5839844 C91.8522101,52.6725215 90.9179746,52.2167969 89.7421875,52.2167969 C88.5117126,52.2167969 87.5250688,52.6497353 86.7822266,53.515625 C86.0393843,54.3815147 85.6679688,55.5436125 85.6679688,57.0019531 L85.6679688,58.4375 Z M100.173828,65 L100.173828,45.3535156 L102.183594,45.3535156 L102.183594,52.6269531 L102.251953,52.6269531 C102.516277,52.0436169 102.990231,51.5354839 103.673828,51.1025391 C104.357425,50.6695942 105.236974,50.453125 106.3125,50.453125 C107.90756,50.453125 109.194982,50.9726511 110.174805,52.0117188 C111.154627,53.0507864 111.644531,54.3906168 111.644531,56.03125 L111.644531,65 L109.621094,65 L109.621094,56.4277344 C109.621094,55.1881448 109.311201,54.1901079 108.691406,53.4335938 C108.071611,52.6770796 107.178391,52.2988281 106.011719,52.2988281 C104.799473,52.2988281 103.858402,52.6702437 103.188477,53.4130859 C102.518551,54.1559282 102.183594,55.1790299 102.183594,56.4824219 L102.183594,65 L100.173828,65 Z M130.046875,65 L130.046875,45.3535156 L132.056641,45.3535156 L132.056641,57.3164062 L132.138672,57.3164062 L138.414062,50.6582031 L140.779297,50.6582031 L134.982422,56.8652344 L141.134766,65 L138.701172,65 L133.519531,58.1503906 L132.056641,59.5859375 L132.056641,65 L130.046875,65 Z M143.732422,65 L143.732422,45.3535156 L145.742188,45.3535156 L145.742188,65 L143.732422,65 Z M150.158203,65 L150.158203,50.6855469 L152.167969,50.6855469 L152.167969,52.4765625 L152.277344,52.4765625 C152.532553,51.9205701 152.979163,51.4443379 153.617188,51.0478516 C154.255212,50.6513652 155.025386,50.453125 155.927734,50.453125 C157.02149,50.453125 157.916989,50.6627583 158.614258,51.0820312 C159.311527,51.5013042 159.801431,52.0800744 160.083984,52.8183594 L160.179688,52.8183594 C160.462241,52.1438768 160.984046,51.5810569 161.745117,51.1298828 C162.506189,50.6787087 163.44726,50.453125 164.568359,50.453125 C166.063159,50.453125 167.238928,50.8815061 168.095703,51.7382812 C168.952478,52.5950564 169.380859,53.7708259 169.380859,55.265625 L169.380859,65 L167.384766,65 L167.384766,55.6347656 C167.384766,54.6412711 167.102216,53.8369171 166.537109,53.2216797 C165.972002,52.6064422 165.169927,52.2988281 164.130859,52.2988281 C163.073562,52.2988281 162.25098,52.6292285 161.663086,53.2900391 C161.075192,53.9508497 160.78125,54.8053333 160.78125,55.8535156 L160.78125,65 L158.771484,65 L158.771484,55.8535156 C158.771484,54.714187 158.484378,53.8369171 157.910156,53.2216797 C157.335935,52.6064422 156.529302,52.2988281 155.490234,52.2988281 C154.514969,52.2988281 153.717451,52.6178354 153.097656,53.2558594 C152.477861,53.8938834 152.167969,54.7597602 152.167969,55.8535156 L152.167969,65 L150.158203,65 Z M173.646484,65 L173.646484,50.6855469 L175.65625,50.6855469 L175.65625,52.6269531 L175.710938,52.6269531 C176.002606,52.016273 176.517574,51.5013042 177.255859,51.0820312 C177.994144,50.6627583 178.873693,50.453125 179.894531,50.453125 C181.380216,50.453125 182.612951,50.8974565 183.592773,51.7861328 C184.572596,52.6748091 185.0625,53.902987 185.0625,55.4707031 L185.0625,65 L183.039062,65 L183.039062,56.2226562 C183.039062,54.9374936 182.736006,53.9622429 182.129883,53.296875 C181.52376,52.6315071 180.619147,52.2988281 179.416016,52.2988281 C178.20377,52.2988281 177.274092,52.6565719 176.626953,53.3720703 C175.979814,54.0875687 175.65625,55.0969987 175.65625,56.4003906 L175.65625,65 L173.646484,65 Z M204.339844,69.9628906 L204.339844,50.671875 L206.253906,50.671875 L206.253906,52.7363281 L206.308594,52.7363281 C206.600262,52.0800748 207.122067,51.5354839 207.874023,51.1025391 C208.62598,50.6695942 209.580723,50.453125 210.738281,50.453125 C212.3698,50.453125 213.69368,51.0205021 214.709961,52.1552734 C215.726242,53.2900447 216.234375,54.8372298 216.234375,56.796875 L216.234375,58.9023438 C216.234375,60.8802182 215.723963,62.4296819 214.703125,63.5507812 C213.682287,64.6718806 212.328784,65.2324219 210.642578,65.2324219 C208.628245,65.2324219 207.215499,64.4895908 206.404297,63.0039062 L206.349609,63.0039062 L206.349609,69.9628906 L204.339844,69.9628906 Z M206.349609,58.7246094 C206.349609,60.0371159 206.71191,61.1513626 207.436523,62.0673828 C208.161136,62.983403 209.138666,63.4414062 210.369141,63.4414062 C211.526698,63.4414062 212.458655,63.0244182 213.165039,62.1904297 C213.871423,61.3564411 214.224609,60.1510496 214.224609,58.5742188 L214.224609,57.0703125 C214.224609,55.5299402 213.87598,54.3359417 213.178711,53.4882812 C212.481442,52.6406208 211.526699,52.2167969 210.314453,52.2167969 C209.093093,52.2167969 208.126957,52.6497353 207.416016,53.515625 C206.705075,54.3815147 206.349609,55.4934828 206.349609,56.8515625 L206.349609,58.7246094 Z M219.1875,58.9023438 L219.1875,56.7421875 C219.1875,54.8554593 219.702469,53.3356177 220.732422,52.1826172 C221.762375,51.0296166 223.120434,50.453125 224.806641,50.453125 C226.921235,50.453125 228.356767,51.2141851 229.113281,52.7363281 L229.167969,52.7363281 L229.167969,50.6855469 L231.082031,50.6855469 L231.082031,69.9765625 L229.072266,69.9765625 L229.072266,63.0039062 L229.017578,63.0039062 C228.698566,63.6510449 228.174483,64.1842427 227.445312,64.6035156 C226.716142,65.0227886 225.822922,65.2324219 224.765625,65.2324219 C223.033846,65.2324219 221.671229,64.6604875 220.677734,63.5166016 C219.68424,62.3727156 219.1875,60.8346451 219.1875,58.9023438 L219.1875,58.9023438 Z M221.197266,58.6289062 C221.197266,60.13282 221.545895,61.3154254 222.243164,62.1767578 C222.940433,63.0380902 223.904291,63.46875 225.134766,63.46875 C225.982426,63.46875 226.709307,63.2431663 227.31543,62.7919922 C227.921553,62.3408181 228.365884,61.7620478 228.648438,61.0556641 C228.930991,60.3492803 229.072266,59.5631554 229.072266,58.6972656 L229.072266,57.0292969 C229.072266,55.5709562 228.721358,54.4088585 228.019531,53.5429688 C227.317705,52.677079 226.347011,52.2441406 225.107422,52.2441406 C223.858718,52.2441406 222.89486,52.6679645 222.21582,53.515625 C221.53678,54.3632855 221.197266,55.5481695 221.197266,57.0703125 L221.197266,58.6289062 Z M235.621094,65 L235.621094,50.6855469 L237.617188,50.6855469 L237.617188,52.4628906 L237.671875,52.4628906 C237.79948,52.1894518 237.936197,51.9547536 238.082031,51.7587891 C238.227865,51.5628245 238.432941,51.3554698 238.697266,51.1367188 C238.96159,50.9179677 239.314776,50.7516282 239.756836,50.6376953 C240.198895,50.5237625 240.716143,50.4667969 241.308594,50.4667969 C241.527345,50.4667969 241.819009,50.4850259 242.183594,50.5214844 L242.183594,52.3945312 C241.992187,52.3580727 241.62305,52.3398438 241.076172,52.3398438 C239.873041,52.3398438 238.995771,52.6656868 238.444336,53.3173828 C237.892901,53.9690788 237.617188,54.8554631 237.617188,55.9765625 L237.617188,65 L235.621094,65 Z M243.783203,61.1992188 L245.751953,61.1992188 C245.852214,61.9010452 246.184893,62.4684223 246.75,62.9013672 C247.315107,63.3343121 248.103511,63.5507812 249.115234,63.5507812 C250.254563,63.5507812 251.118161,63.3251976 251.706055,62.8740234 C252.293948,62.4228493 252.587891,61.8281287 252.587891,61.0898438 C252.587891,60.8528634 252.551433,60.6341156 252.478516,60.4335938 C252.405599,60.2330719 252.32129,60.0644538 252.225586,59.9277344 C252.129882,59.7910149 251.979493,59.6588548 251.774414,59.53125 C251.569335,59.4036452 251.387045,59.3033858 251.227539,59.2304688 C251.068033,59.1575517 250.835614,59.0800785 250.530273,58.9980469 C250.224933,58.9160152 249.972006,58.8522138 249.771484,58.8066406 C249.570963,58.7610675 249.283856,58.7018233 248.910156,58.6289062 C248.454425,58.5286453 248.078452,58.4420577 247.782227,58.3691406 C247.486001,58.2962236 247.151044,58.2005214 246.777344,58.0820312 C246.403644,57.9635411 246.098308,57.8404954 245.861328,57.7128906 C245.624348,57.5852858 245.380535,57.4235036 245.129883,57.2275391 C244.879231,57.0315745 244.683269,56.817384 244.541992,56.5849609 C244.400715,56.3525379 244.284506,56.0768245 244.193359,55.7578125 C244.102213,55.4388005 244.056641,55.0833353 244.056641,54.6914062 C244.056641,53.9804652 244.197915,53.3492866 244.480469,52.7978516 C244.763022,52.2464165 245.14811,51.8043636 245.635742,51.4716797 C246.123375,51.1389957 246.670244,50.8860686 247.276367,50.7128906 C247.88249,50.5397127 248.536455,50.453125 249.238281,50.453125 C250.842456,50.453125 252.075191,50.8564413 252.936523,51.6630859 C253.797856,52.4697306 254.228516,53.4746034 254.228516,54.6777344 L252.328125,54.6777344 C252.309896,54.367837 252.243816,54.0738946 252.129883,53.7958984 C252.01595,53.5179023 251.845053,53.2467461 251.617188,52.9824219 C251.389322,52.7180976 251.0612,52.5061857 250.632812,52.3466797 C250.204425,52.1871737 249.707685,52.1074219 249.142578,52.1074219 C248.231115,52.1074219 247.486005,52.3170552 246.907227,52.7363281 C246.328448,53.1556011 246.039062,53.7389286 246.039062,54.4863281 C246.039062,54.8144548 246.111978,55.1038399 246.257812,55.3544922 C246.403647,55.6051445 246.554036,55.8033847 246.708984,55.9492188 C246.863933,56.0950528 247.135089,56.2340488 247.522461,56.3662109 C247.909833,56.4983731 248.194661,56.5849607 248.376953,56.6259766 C248.559246,56.6669924 248.901039,56.7376297 249.402344,56.8378906 C249.484375,56.8561199 249.548177,56.8697916 249.59375,56.8789062 C250.213545,56.9882818 250.735349,57.0976557 251.15918,57.2070312 C251.58301,57.3164068 252.027341,57.4736318 252.492188,57.6787109 C252.957034,57.8837901 253.330728,58.1184883 253.613281,58.3828125 C253.895835,58.6471367 254.128254,58.9889302 254.310547,59.4082031 C254.492839,59.8274761 254.583984,60.3105441 254.583984,60.8574219 C254.583984,62.2428455 254.073573,63.3183555 253.052734,64.0839844 C252.031896,64.8496132 250.692066,65.2324219 249.033203,65.2324219 C247.456372,65.2324219 246.187179,64.8655636 245.225586,64.1318359 C244.263993,63.3981083 243.783203,62.420579 243.783203,61.1992188 L243.783203,61.1992188 Z M280.697266,50.6855469 L282.939453,50.6855469 L286.78125,62.8125 L286.863281,62.8125 L290.9375,50.6855469 L293.083984,50.6855469 L287.847656,65 L285.837891,65 L280.697266,50.6855469 Z M294.396484,50.6855469 L296.679688,50.6855469 L299.414062,62.2929688 L299.509766,62.2929688 L302.859375,50.6855469 L304.759766,50.6855469 L308.205078,62.2929688 L308.300781,62.2929688 L311.089844,50.6855469 L313.113281,50.6855469 L309.257812,65 L307.302734,65 L303.857422,53.625 L303.802734,53.625 L300.425781,65 L298.443359,65 L294.396484,50.6855469 Z M314.34375,65 L319.224609,57.9179688 L314.34375,50.6855469 L316.763672,50.6855469 L320.291016,56.2089844 L320.386719,56.2089844 L324.009766,50.6855469 L326.333984,50.6855469 L321.439453,57.6855469 L326.416016,65 L323.982422,65 L320.359375,59.4492188 L320.277344,59.4492188 L316.640625,65 L314.34375,65 Z M327.988281,50.6855469 L330.216797,50.6855469 L334.304688,62.9082031 L334.400391,62.9082031 L338.474609,50.6855469 L340.607422,50.6855469 L335.439453,65.1367188 L335.042969,66.203125 C334.860676,66.6862003 334.694337,67.0917952 334.543945,67.4199219 C334.393554,67.7480485 334.190756,68.1012351 333.935547,68.4794922 C333.680337,68.8577493 333.406903,69.1608062 333.115234,69.3886719 C332.823566,69.6165376 332.456708,69.8056633 332.014648,69.9560547 C331.572589,70.1064461 331.082685,70.1816406 330.544922,70.1816406 C330.10742,70.1816406 329.651695,70.1451827 329.177734,70.0722656 L329.177734,68.3632812 C329.469403,68.417969 329.82031,68.4453125 330.230469,68.4453125 C331.032556,68.4453125 331.647784,68.2516295 332.076172,67.8642578 C332.504559,67.4768861 332.832681,66.89128 333.060547,66.1074219 L333.320312,65.2324219 L327.988281,50.6855469 Z M342.630859,52.3398438 L342.630859,50.6855469 L353.089844,50.6855469 L353.089844,52.1210938 L345.1875,63.2089844 L345.1875,63.3183594 L353.144531,63.3183594 L353.144531,65 L342.685547,65 L342.685547,63.5644531 L350.574219,52.4628906 L350.574219,52.3398438 L342.630859,52.3398438 Z M361.634766,51.4238281 L361.634766,49.1816406 C363.083992,48.1516876 364.624341,47.2083376 366.255859,46.3515625 L368.115234,46.3515625 L368.115234,65 L366.105469,65 L366.105469,48.6621094 L366.078125,48.6621094 C365.613279,48.9082044 364.897791,49.3320282 363.931641,49.9335938 C362.96549,50.5351593 362.199873,51.0318991 361.634766,51.4238281 L361.634766,51.4238281 Z M372.626953,51.3691406 L372.626953,51.3007812 C372.626953,50.5989548 372.754556,49.9290396 373.009766,49.2910156 C373.264975,48.6529916 373.627276,48.0833358 374.09668,47.5820312 C374.566083,47.0807267 375.172197,46.6819676 375.915039,46.3857422 C376.657881,46.0895167 377.480464,45.9414062 378.382812,45.9414062 C380.087248,45.9414062 381.456701,46.4199171 382.491211,47.3769531 C383.525721,48.3339892 384.042969,49.5462166 384.042969,51.0136719 C384.042969,51.5332057 383.970053,52.0367814 383.824219,52.5244141 C383.678385,53.0120467 383.461915,53.4860003 383.174805,53.9462891 C382.887694,54.4065778 382.589194,54.8372376 382.279297,55.2382812 C381.969399,55.6393249 381.591148,56.104164 381.144531,56.6328125 C381.053385,56.7330734 380.985026,56.8105466 380.939453,56.8652344 L375.580078,63.1542969 L375.580078,63.1816406 L384.412109,63.1816406 L384.412109,65 L372.722656,65 L372.722656,63.6875 L379.777344,55.4570312 C380.114585,55.0651022 380.378905,54.746095 380.570312,54.5 C380.76172,54.253905 380.982746,53.9348978 381.233398,53.5429688 C381.484051,53.1510397 381.666341,52.7568379 381.780273,52.3603516 C381.894206,51.9638652 381.951172,51.5514344 381.951172,51.1230469 C381.951172,50.1022084 381.616214,49.2841828 380.946289,48.6689453 C380.276364,48.0537079 379.408208,47.7460938 378.341797,47.7460938 C377.202468,47.7460938 376.297855,48.0924445 375.62793,48.7851562 C374.958004,49.477868 374.623047,50.3164013 374.623047,51.3007812 L374.623047,51.3691406 L372.626953,51.3691406 Z M387.324219,60.2421875 L389.265625,60.2421875 C389.39323,61.2265674 389.801103,62.0354786 390.489258,62.6689453 C391.177412,63.302412 392.145827,63.6191406 393.394531,63.6191406 C394.761726,63.6191406 395.837236,63.2727899 396.621094,62.5800781 C397.404952,61.8873663 397.787761,60.9895888 397.769531,59.8867188 C397.751302,58.7838487 397.350264,57.9088574 396.566406,57.2617188 C395.782548,56.6145801 394.716153,56.2910156 393.367188,56.2910156 L391.480469,56.2910156 L391.480469,54.4726562 L393.244141,54.4726562 C394.374355,54.4726562 395.29264,54.1490918 395.999023,53.5019531 C396.705407,52.8548145 397.054037,52.0299529 397.044922,51.0273438 C397.035807,50.0520785 396.70085,49.2613963 396.040039,48.6552734 C395.379228,48.0491506 394.492844,47.7460938 393.380859,47.7460938 C392.788408,47.7460938 392.257489,47.8417959 391.788086,48.0332031 C391.318683,48.2246103 390.947267,48.4798161 390.673828,48.7988281 C390.400389,49.1178401 390.188477,49.4550763 390.038086,49.8105469 C389.887695,50.1660174 389.798828,50.5351543 389.771484,50.9179688 L387.802734,50.9179688 C387.811849,50.3255179 387.934895,49.7421904 388.171875,49.1679688 C388.408855,48.5937471 388.74837,48.062828 389.19043,47.5751953 C389.632489,47.0875627 390.218095,46.6933609 390.947266,46.3925781 C391.676436,46.0917954 392.487626,45.9414062 393.380859,45.9414062 C395.07618,45.9414062 396.447911,46.390295 397.496094,47.2880859 C398.544276,48.1858769 399.086588,49.3183525 399.123047,50.6855469 C399.150391,51.9160218 398.794926,52.9550739 398.056641,53.8027344 C397.318356,54.6503949 396.520838,55.1425774 395.664062,55.2792969 L395.664062,55.3066406 C396.101565,55.3430991 396.550453,55.4615875 397.010742,55.6621094 C397.471031,55.8626312 397.915362,56.1383446 398.34375,56.4892578 C398.772138,56.840171 399.125324,57.3095674 399.40332,57.8974609 C399.681316,58.4853545 399.829427,59.1393193 399.847656,59.859375 C399.875,61.4544351 399.271165,62.778315 398.036133,63.8310547 C396.801101,64.8837943 395.231129,65.4101562 393.326172,65.4101562 C392.369136,65.4101562 391.510095,65.2734389 390.749023,65 C389.987952,64.7265611 389.365888,64.3505883 388.882812,63.8720703 C388.399737,63.3935523 388.026043,62.8466828 387.761719,62.2314453 C387.497395,61.6162079 387.351563,60.9531286 387.324219,60.2421875 L387.324219,60.2421875 Z M402.568359,60.9804688 L402.568359,59.203125 C403.206383,58.0546818 403.960608,56.7809315 404.831055,55.3818359 C405.701502,53.9827404 406.804355,52.2509869 408.139648,50.1865234 C409.474942,48.12206 410.297524,46.8437525 410.607422,46.3515625 L413.587891,46.3515625 L413.587891,59.1484375 L416.089844,59.1484375 L416.089844,60.9804688 L413.587891,60.9804688 L413.587891,65 L411.632812,65 L411.632812,60.9804688 L402.568359,60.9804688 Z M404.673828,59.1484375 L411.632812,59.1484375 L411.632812,48.1835938 L411.605469,48.1835938 C408.725246,52.4674693 406.414722,56.1132662 404.673828,59.1210938 L404.673828,59.1484375 Z M418.90625,60.3789062 L420.888672,60.3789062 C421.034506,61.3815154 421.478837,62.169919 422.22168,62.7441406 C422.964522,63.3183622 423.919265,63.6054688 425.085938,63.6054688 C425.605471,63.6054688 426.12044,63.5029307 426.630859,63.2978516 C427.141279,63.0927724 427.608396,62.8033873 428.032227,62.4296875 C428.456057,62.0559877 428.79785,61.570641 429.057617,60.9736328 C429.317384,60.3766246 429.447266,59.7272171 429.447266,59.0253906 C429.447266,57.6673109 429.034835,56.5735719 428.209961,55.7441406 C427.385087,54.9147094 426.357428,54.5 425.126953,54.5 C424.033198,54.5 423.130863,54.7483699 422.419922,55.2451172 C421.708981,55.7418645 421.189455,56.3502568 420.861328,57.0703125 L419.138672,57.0703125 L420.205078,46.3242188 L430.130859,46.3242188 L430.130859,48.1425781 L421.941406,48.1425781 L421.244141,54.4042969 L421.271484,54.4042969 C421.554038,54.0123678 422.075843,53.6341164 422.836914,53.2695312 C423.597986,52.9049461 424.443355,52.7226562 425.373047,52.7226562 C427.095712,52.7226562 428.551752,53.310541 429.741211,54.4863281 C430.93067,55.6621153 431.525391,57.1614492 431.525391,58.984375 C431.525391,60.8528739 430.896491,62.3886659 429.638672,63.5917969 C428.380853,64.7949279 426.81316,65.3964844 424.935547,65.3964844 C424.005855,65.3964844 423.162764,65.2574884 422.40625,64.9794922 C421.649736,64.701496 421.027672,64.3278018 420.540039,63.8583984 C420.052406,63.388995 419.669598,62.8580759 419.391602,62.265625 C419.113605,61.6731741 418.951823,61.0442742 418.90625,60.3789062 L418.90625,60.3789062 Z M434.355469,56.5234375 C434.355469,53.0689931 434.991205,50.4531339 436.262695,48.6757812 C437.534186,46.8984286 439.208974,46.0097656 441.287109,46.0097656 C442.089197,46.0097656 442.832028,46.1442044 443.515625,46.4130859 C444.199222,46.6819675 444.766599,47.0397113 445.217773,47.4863281 C445.668948,47.9329449 446.031249,48.4274061 446.304688,48.9697266 C446.578126,49.512047 446.742187,50.0703096 446.796875,50.6445312 L444.732422,50.6445312 C444.668619,49.9609341 444.324547,49.3160838 443.700195,48.7099609 C443.075843,48.1038381 442.239589,47.8007812 441.191406,47.8007812 C440.544268,47.8007812 439.94499,47.953449 439.393555,48.2587891 C438.84212,48.5641291 438.340823,49.0266896 437.889648,49.6464844 C437.438474,50.2662791 437.076173,51.1002552 436.802734,52.1484375 C436.529296,53.1966198 436.374349,54.4179618 436.337891,55.8125 L436.365234,55.8125 C436.666017,55.0195273 437.253902,54.338219 438.128906,53.7685547 C439.003911,53.1988904 440.020177,52.9140625 441.177734,52.9140625 C441.943363,52.9140625 442.686194,53.0507799 443.40625,53.3242188 C444.126306,53.5976576 444.777992,53.9850235 445.361328,54.4863281 C445.944664,54.9876327 446.411782,55.6347617 446.762695,56.4277344 C447.113609,57.2207071 447.289062,58.0956983 447.289062,59.0527344 C447.289062,60.3378971 447.006513,61.4658155 446.441406,62.4365234 C445.876299,63.4072314 445.117518,64.140948 444.165039,64.6376953 C443.21256,65.1344426 442.148443,65.3828125 440.972656,65.3828125 C438.940094,65.3828125 437.329108,64.64226 436.139648,63.1611328 C434.950189,61.6800056 434.355469,59.4674626 434.355469,56.5234375 L434.355469,56.5234375 Z M436.666016,59.1484375 C436.666016,60.5338611 437.087561,61.6207643 437.930664,62.4091797 C438.773767,63.1975951 439.796869,63.5917969 441,63.5917969 C442.184902,63.5917969 443.192053,63.2089882 444.021484,62.4433594 C444.850916,61.6777305 445.265625,60.5885487 445.265625,59.1757812 C445.265625,58.4557256 445.142579,57.8040394 444.896484,57.2207031 C444.650389,56.6373669 444.322268,56.1702492 443.912109,55.8193359 C443.501951,55.4684227 443.048505,55.1995452 442.551758,55.0126953 C442.055011,54.8258454 441.533206,54.7324219 440.986328,54.7324219 C439.783197,54.7324219 438.762374,55.1289023 437.923828,55.921875 C437.085282,56.7148477 436.666016,57.7903578 436.666016,59.1484375 L436.666016,59.1484375 Z M449.777344,48.1699219 L449.777344,46.3515625 L461.384766,46.3515625 L461.384766,48.2519531 L453.6875,65 L451.541016,65 L459.429688,48.1972656 L459.429688,48.1699219 L449.777344,48.1699219 Z M464.529297,59.9414062 C464.529297,59.2395798 464.652343,58.5970081 464.898438,58.0136719 C465.144532,57.4303356 465.46354,56.9518248 465.855469,56.578125 C466.247398,56.2044252 466.650714,55.9013683 467.06543,55.6689453 C467.480145,55.4365223 467.897133,55.2701828 468.316406,55.1699219 L468.316406,55.1425781 C467.979165,55.0332026 467.641929,54.8691417 467.304688,54.6503906 C466.967446,54.4316395 466.641603,54.1559261 466.327148,53.8232422 C466.012694,53.4905582 465.757488,53.0712916 465.561523,52.5654297 C465.365559,52.0595678 465.267578,51.5104196 465.267578,50.9179688 C465.267578,49.4778574 465.80989,48.2884162 466.894531,47.3496094 C467.979172,46.4108026 469.346346,45.9414062 470.996094,45.9414062 C472.645842,45.9414062 474.013015,46.4108026 475.097656,47.3496094 C476.182297,48.2884162 476.724609,49.4778574 476.724609,50.9179688 C476.724609,51.5195343 476.622071,52.0755183 476.416992,52.5859375 C476.211913,53.0963567 475.945314,53.517902 475.617188,53.8505859 C475.289061,54.1832699 474.960939,54.454426 474.632812,54.6640625 C474.304686,54.873699 473.976564,55.0332026 473.648438,55.1425781 L473.648438,55.1699219 C473.976564,55.2519535 474.306964,55.3704419 474.639648,55.5253906 C474.972332,55.6803393 475.30729,55.8945299 475.644531,56.1679688 C475.981773,56.4414076 476.280272,56.7513004 476.540039,57.0976562 C476.799806,57.4440121 477.011718,57.8610002 477.175781,58.3486328 C477.339845,58.8362655 477.421875,59.3580701 477.421875,59.9140625 C477.421875,61.5273518 476.808925,62.8443959 475.583008,63.8652344 C474.35709,64.8860728 472.805348,65.3964844 470.927734,65.3964844 C469.059235,65.3964844 467.525722,64.8906301 466.327148,63.8789062 C465.128575,62.8671824 464.529297,61.5546956 464.529297,59.9414062 L464.529297,59.9414062 Z M466.511719,59.8730469 C466.511719,60.975917 466.935543,61.8782517 467.783203,62.5800781 C468.630864,63.2819046 469.701816,63.6328125 470.996094,63.6328125 C472.281256,63.6328125 473.345373,63.2819046 474.188477,62.5800781 C475.03158,61.8782517 475.453125,60.975917 475.453125,59.8730469 C475.453125,58.7701768 475.03158,57.8678421 474.188477,57.1660156 C473.345373,56.4641892 472.281256,56.1132812 470.996094,56.1132812 C469.701816,56.1132812 468.630864,56.4641892 467.783203,57.1660156 C466.935543,57.8678421 466.511719,58.7701768 466.511719,59.8730469 L466.511719,59.8730469 Z M467.236328,51.0273438 C467.236328,52.002609 467.591793,52.8046844 468.302734,53.4335938 C469.013675,54.0625031 469.911453,54.3769531 470.996094,54.3769531 C472.080735,54.3769531 472.973955,54.0647818 473.675781,53.4404297 C474.377608,52.8160776 474.728516,52.0117237 474.728516,51.0273438 C474.728516,50.0520785 474.379886,49.2613963 473.682617,48.6552734 C472.985348,48.0491506 472.089849,47.7460938 470.996094,47.7460938 C469.902338,47.7460938 469.002282,48.0491506 468.295898,48.6552734 C467.589515,49.2613963 467.236328,50.0520785 467.236328,51.0273438 L467.236328,51.0273438 Z M480.224609,52.2441406 C480.224609,51.2962192 480.395506,50.4235066 480.737305,49.6259766 C481.079103,48.8284465 481.537107,48.1653672 482.111328,47.6367188 C482.68555,47.1080703 483.344072,46.6979181 484.086914,46.40625 C484.829756,46.1145819 485.60221,45.96875 486.404297,45.96875 C490.86135,45.96875 493.089844,49.0631201 493.089844,55.2519531 C493.089844,58.4694171 492.488287,60.9576735 491.285156,62.7167969 C490.082025,64.4759203 488.391287,65.3554688 486.212891,65.3554688 C485.310542,65.3554688 484.485681,65.2073583 483.738281,64.9111328 C482.990882,64.6149074 482.387047,64.2275415 481.926758,63.7490234 C481.466469,63.2705054 481.106447,62.7509794 480.84668,62.1904297 C480.586913,61.62988 480.434245,61.0579456 480.388672,60.4746094 L482.453125,60.4746094 C482.489584,60.8391945 482.596679,61.1969383 482.774414,61.5478516 C482.952149,61.8987648 483.193683,62.2268865 483.499023,62.5322266 C483.804364,62.8375666 484.203123,63.0836579 484.695312,63.2705078 C485.187502,63.4573577 485.729815,63.5507812 486.322266,63.5507812 C487.844409,63.5507812 489.0179,62.8558012 489.842773,61.4658203 C490.667647,60.0758394 491.089193,58.1093877 491.107422,55.5664062 L491.025391,55.5664062 C490.724608,56.3867229 490.143559,57.0725884 489.282227,57.6240234 C488.420894,58.1754585 487.356777,58.4511719 486.089844,58.4511719 C485.33333,58.4511719 484.608727,58.3167331 483.916016,58.0478516 C483.223304,57.77897 482.598961,57.3916041 482.042969,56.8857422 C481.486976,56.3798803 481.044924,55.7259155 480.716797,54.9238281 C480.38867,54.1217408 480.224609,53.2285205 480.224609,52.2441406 L480.224609,52.2441406 Z M482.248047,52.2304688 C482.248047,53.6523509 482.653642,54.7460899 483.464844,55.5117188 C484.276046,56.2773476 485.27864,56.6601562 486.472656,56.6601562 C487.648443,56.6601562 488.666988,56.2500041 489.52832,55.4296875 C490.389653,54.6093709 490.820312,53.5794333 490.820312,52.3398438 C490.820312,50.8815031 490.416996,49.7535847 489.610352,48.9560547 C488.803707,48.1585247 487.776048,47.7597656 486.527344,47.7597656 C485.971351,47.7597656 485.440432,47.8554678 484.93457,48.046875 C484.428708,48.2382822 483.975262,48.5139956 483.574219,48.8740234 C483.173175,49.2340513 482.851889,49.7034476 482.610352,50.2822266 C482.368814,50.8610055 482.248047,51.5104131 482.248047,52.2304688 L482.248047,52.2304688 Z M495.619141,56.4277344 L495.619141,54.9511719 C495.619141,52.1529808 496.179682,49.9518309 497.300781,48.3476562 C498.421881,46.7434816 500.003245,45.9414062 502.044922,45.9414062 C504.086599,45.9414062 505.663406,46.7434816 506.775391,48.3476562 C507.887375,49.9518309 508.443359,52.1529808 508.443359,54.9511719 L508.443359,56.4277344 C508.443359,59.2259254 507.887375,61.4202394 506.775391,63.0107422 C505.663406,64.6012449 504.086599,65.3964844 502.044922,65.3964844 C500.003245,65.3964844 498.421881,64.6012449 497.300781,63.0107422 C496.179682,61.4202394 495.619141,59.2259254 495.619141,56.4277344 L495.619141,56.4277344 Z M497.65625,56.4140625 C497.65625,58.6836051 498.045895,60.4472593 498.825195,61.7050781 C499.604496,62.9628969 500.677728,63.5917969 502.044922,63.5917969 C503.412116,63.5917969 504.485348,62.9628969 505.264648,61.7050781 C506.043949,60.4472593 506.433594,58.6836051 506.433594,56.4140625 L506.433594,54.9648438 C506.433594,52.6861865 506.043949,50.9134178 505.264648,49.6464844 C504.485348,48.379551 503.412116,47.7460938 502.044922,47.7460938 C500.677728,47.7460938 499.604496,48.379551 498.825195,49.6464844 C498.045895,50.9134178 497.65625,52.6861865 497.65625,54.9648438 L497.65625,56.4140625 Z M0.533203125,94.5644531 L0.533203125,93.0195312 L2.69335938,91.3515625 L4.22460938,91.3515625 L4.22460938,100.498047 L2.69335938,100.498047 L2.69335938,92.9921875 L2.63867188,92.9921875 L0.533203125,94.5644531 Z M0.861328125,110 L7.97070312,100.662109 L15.0527344,91.3515625 L16.8984375,91.3515625 L9.81640625,100.662109 L2.70703125,110 L0.861328125,110 Z M11.8671875,103.724609 L11.8671875,103.615234 C11.8671875,102.840491 12.1383436,102.177412 12.6806641,101.625977 C13.2229845,101.074542 13.9726515,100.798828 14.9296875,100.798828 C15.8411504,100.798828 16.5771456,101.047198 17.1376953,101.543945 C17.698245,102.040693 17.9785156,102.671871 17.9785156,103.4375 C17.9785156,103.966148 17.8395196,104.456052 17.5615234,104.907227 C17.2835273,105.358401 16.8847682,105.852862 16.3652344,106.390625 L13.9179688,108.878906 L18.1425781,108.878906 L18.1425781,110.273438 L11.9902344,110.273438 L11.9902344,109.248047 L15.3808594,105.474609 C16.0735712,104.763668 16.4199219,104.116539 16.4199219,103.533203 C16.4199219,103.123045 16.2786472,102.790366 15.9960938,102.535156 C15.7135403,102.279947 15.3489606,102.152344 14.9023438,102.152344 C14.428383,102.152344 14.0546889,102.293618 13.78125,102.576172 C13.5078111,102.858725 13.3710938,103.205076 13.3710938,103.615234 L13.3710938,103.724609 L11.8671875,103.724609 Z M24.5273438,98.40625 L25.9628906,98.40625 C25.9993491,98.7617205 26.1793604,99.0602201 26.5029297,99.3017578 C26.826499,99.5432955 27.2298153,99.6640625 27.7128906,99.6640625 C28.2506537,99.6640625 28.6858707,99.5250665 29.0185547,99.2470703 C29.3512386,98.9690741 29.5175781,98.6113303 29.5175781,98.1738281 C29.5175781,97.7545552 29.3535173,97.4059259 29.0253906,97.1279297 C28.697264,96.8499335 28.2688829,96.7109375 27.7402344,96.7109375 L26.6601562,96.7109375 L26.6601562,95.3847656 L27.6992188,95.3847656 C28.1458356,95.3847656 28.5081366,95.2571627 28.7861328,95.0019531 C29.064129,94.7467435 29.203125,94.4186218 29.203125,94.0175781 C29.203125,93.6256491 29.0686862,93.3089205 28.7998047,93.0673828 C28.5309231,92.8258451 28.1731793,92.7050781 27.7265625,92.7050781 C27.2799457,92.7050781 26.915366,92.8258451 26.6328125,93.0673828 C26.350259,93.3089205 26.1953126,93.5983056 26.1679688,93.9355469 L24.71875,93.9355469 C24.7460939,93.2337204 25.0263645,92.6344426 25.5595703,92.1376953 C26.0927761,91.640948 26.8196569,91.3925781 27.7402344,91.3925781 C28.6152387,91.3925781 29.3284478,91.6181618 29.8798828,92.0693359 C30.4313179,92.5205101 30.7070312,93.0970017 30.7070312,93.7988281 C30.7070312,94.318362 30.5520849,94.7740866 30.2421875,95.1660156 C29.9322901,95.5579447 29.5266952,95.8222649 29.0253906,95.9589844 C29.5996122,96.0683599 30.0781231,96.309894 30.4609375,96.6835938 C30.8437519,97.0572935 31.0351562,97.5585906 31.0351562,98.1875 C31.0351562,99.0078166 30.7275421,99.6800104 30.1123047,100.204102 C29.4970672,100.728193 28.706385,100.990234 27.7402344,100.990234 C26.7831983,100.990234 26.0130238,100.735029 25.4296875,100.224609 C24.8463512,99.7141902 24.545573,99.1080764 24.5273438,98.40625 L24.5273438,98.40625 Z M25.703125,110 L32.8125,100.662109 L39.8945312,91.3515625 L41.7402344,91.3515625 L34.6582031,100.662109 L27.5488281,110 L25.703125,110 Z M35.3144531,108.25 L35.3144531,107.033203 C35.6516944,106.440752 36.0208313,105.81641 36.421875,105.160156 C36.8229187,104.503903 37.347002,103.66537 37.9941406,102.644531 C38.6412793,101.623693 39.0377597,100.99935 39.1835938,100.771484 L41.2753906,100.771484 L41.2753906,106.951172 L42.3828125,106.951172 L42.3828125,108.25 L41.2753906,108.25 L41.2753906,110 L39.8808594,110 L39.8808594,108.25 L35.3144531,108.25 Z M36.8730469,106.951172 L39.8808594,106.951172 L39.8808594,102.111328 L39.8125,102.111328 C38.8190054,103.606127 37.8391975,105.205721 36.8730469,106.910156 L36.8730469,106.951172 Z M50.5039062,113.103516 L50.5039062,91.3515625 L56.0546875,91.3515625 L56.0546875,92.8691406 L52.4179688,92.8691406 L52.4179688,111.585938 L56.2324219,111.585938 L56.2324219,113.103516 L50.5039062,113.103516 Z M58.9121094,98.5429688 L60.5253906,91.3515625 L62.3710938,91.3515625 L61.2636719,98.5429688 L58.9121094,98.5429688 Z M64.3535156,98.5429688 L65.9667969,91.3515625 L67.7441406,91.3515625 L66.71875,98.5429688 L64.3535156,98.5429688 Z M71.1894531,98.5429688 L72.2148438,91.3515625 L74.5800781,91.3515625 L72.9804688,98.5429688 L71.1894531,98.5429688 Z M76.5761719,98.5429688 L77.6835938,91.3515625 L80.0351562,91.3515625 L78.421875,98.5429688 L76.5761719,98.5429688 Z M83.5898438,108.865234 C83.5898438,108.48242 83.7220039,108.158855 83.9863281,107.894531 C84.2506524,107.630207 84.5696596,107.498047 84.9433594,107.498047 C85.344403,107.498047 85.6793606,107.627928 85.9482422,107.887695 C86.2171237,108.147462 86.3515625,108.473305 86.3515625,108.865234 C86.3515625,109.266278 86.2171237,109.598957 85.9482422,109.863281 C85.6793606,110.127605 85.344403,110.259766 84.9433594,110.259766 C84.5696596,110.259766 84.2506524,110.125327 83.9863281,109.856445 C83.7220039,109.587564 83.5898438,109.257163 83.5898438,108.865234 L83.5898438,108.865234 Z M88.6210938,113.144531 L90.1660156,107.798828 L92.3808594,107.798828 L90.0703125,113.144531 L88.6210938,113.144531 Z M94.6367188,113.089844 L96.1679688,107.798828 L98.3691406,107.798828 L96.0722656,113.089844 L94.6367188,113.089844 Z M95.8808594,98.8984375 C95.8808594,98.5156231 96.0130195,98.1920586 96.2773438,97.9277344 C96.541668,97.6634101 96.8606752,97.53125 97.234375,97.53125 C97.6354187,97.53125 97.9703763,97.6611315 98.2392578,97.9208984 C98.5081394,98.1806654 98.6425781,98.5065085 98.6425781,98.8984375 C98.6425781,99.2994812 98.5081394,99.6321601 98.2392578,99.8964844 C97.9703763,100.160809 97.6354187,100.292969 97.234375,100.292969 C96.8606752,100.292969 96.541668,100.15853 96.2773438,99.8896484 C96.0130195,99.6207669 95.8808594,99.2903665 95.8808594,98.8984375 L95.8808594,98.8984375 Z M101.773438,96.0957031 C101.773438,95.166011 101.937498,94.3548212 102.265625,93.6621094 C102.593752,92.9693976 103.028969,92.4293639 103.571289,92.0419922 C104.113609,91.6546205 104.696937,91.367514 105.321289,91.1806641 C105.945641,90.9938142 106.604163,90.9003906 107.296875,90.9003906 C107.998701,90.9003906 108.664059,90.9960928 109.292969,91.1875 C109.921878,91.3789072 110.489255,91.6568992 110.995117,92.0214844 C111.500979,92.3860695 111.902017,92.866859 112.198242,93.4638672 C112.494468,94.0608754 112.642578,94.7330692 112.642578,95.4804688 C112.642578,96.0091172 112.574219,96.4944639 112.4375,96.9365234 C112.300781,97.3785829 112.088869,97.7841778 111.801758,98.1533203 C111.514647,98.5224628 111.245769,98.8277983 110.995117,99.0693359 C110.744465,99.3108736 110.409507,99.6002587 109.990234,99.9375 C109.124345,100.639326 108.55241,101.193032 108.274414,101.598633 C107.996418,102.004234 107.857422,102.576168 107.857422,103.314453 L107.857422,104.216797 L105.847656,104.216797 L105.847656,102.945312 C105.847656,102.489581 105.913736,102.070314 106.045898,101.6875 C106.178061,101.304686 106.385415,100.937827 106.667969,100.586914 C106.950522,100.236001 107.214843,99.9443371 107.460938,99.7119141 C107.707032,99.479491 108.044269,99.1901059 108.472656,98.84375 C109.2474,98.2148406 109.791991,97.6862001 110.106445,97.2578125 C110.4209,96.8294249 110.578125,96.2734409 110.578125,95.5898438 C110.578125,94.6145785 110.256839,93.8808618 109.614258,93.3886719 C108.971676,92.8964819 108.17188,92.6503906 107.214844,92.6503906 C106.075515,92.6503906 105.209638,92.9762337 104.617188,93.6279297 C104.024737,94.2796257 103.723958,95.1022086 103.714844,96.0957031 L101.773438,96.0957031 Z M105.478516,108.824219 C105.478516,108.404946 105.615233,108.058595 105.888672,107.785156 C106.162111,107.511717 106.49479,107.375 106.886719,107.375 C107.315106,107.375 107.666014,107.509439 107.939453,107.77832 C108.212892,108.047202 108.349609,108.395831 108.349609,108.824219 C108.349609,109.216148 108.210613,109.548827 107.932617,109.822266 C107.654621,110.095704 107.305992,110.232422 106.886719,110.232422 C106.503904,110.232422 106.173504,110.095704 105.895508,109.822266 C105.617512,109.548827 105.478516,109.216148 105.478516,108.824219 L105.478516,108.824219 Z M114.556641,111.585938 L118.384766,111.585938 L118.384766,92.8691406 L114.734375,92.8691406 L114.734375,91.3515625 L120.285156,91.3515625 L120.285156,113.103516 L114.556641,113.103516 L114.556641,111.585938 Z M129.691406,102.261719 C129.691406,101.104161 129.768879,100.017258 129.923828,99.0009766 C130.078777,97.9846954 130.263345,97.1256546 130.477539,96.4238281 C130.691733,95.7220017 130.976561,95.0270217 131.332031,94.3388672 C131.687502,93.6507127 131.999673,93.1084004 132.268555,92.7119141 C132.537436,92.3154277 132.872394,91.866539 133.273438,91.3652344 L134.900391,91.3652344 C134.581379,91.7389342 134.257814,92.2151664 133.929688,92.7939453 C133.601561,93.3727242 133.257489,94.1087195 132.897461,95.0019531 C132.537433,95.8951868 132.243491,96.9752541 132.015625,98.2421875 C131.787759,99.5091209 131.673828,100.839837 131.673828,102.234375 C131.673828,103.364589 131.75358,104.462885 131.913086,105.529297 C132.072592,106.595708 132.250325,107.484371 132.446289,108.195312 C132.642254,108.906254 132.915688,109.662756 133.266602,110.464844 C133.617515,111.266931 133.888671,111.841144 134.080078,112.1875 C134.271485,112.533856 134.535806,112.998695 134.873047,113.582031 L133.150391,113.582031 C132.740232,113.071612 132.357424,112.504235 132.001953,111.879883 C131.646483,111.255531 131.281903,110.480799 130.908203,109.555664 C130.534503,108.630529 130.238282,107.53679 130.019531,106.274414 C129.80078,105.012038 129.691406,103.674486 129.691406,102.261719 L129.691406,102.261719 Z M137.511719,97.0253906 C137.511719,96.132157 137.652993,95.3369175 137.935547,94.6396484 C138.2181,93.9423793 138.571287,93.3909525 138.995117,92.9853516 C139.418947,92.5797506 139.91113,92.2470716 140.47168,91.9873047 C141.032229,91.7275378 141.551755,91.5543624 142.030273,91.4677734 C142.508791,91.3811845 142.985024,91.3378906 143.458984,91.3378906 L145.728516,91.3378906 L145.728516,112.871094 L143.71875,112.871094 L143.71875,102.658203 L143.445312,102.658203 C142.998696,102.658203 142.527021,102.603516 142.030273,102.494141 C141.533526,102.384765 141.011721,102.191082 140.464844,101.913086 C139.917966,101.63509 139.430341,101.291018 139.001953,100.880859 C138.573566,100.470701 138.2181,99.9306674 137.935547,99.2607422 C137.652993,98.590817 137.511719,97.8457072 137.511719,97.0253906 L137.511719,97.0253906 Z M147.916016,112.871094 L147.916016,91.3378906 L149.925781,91.3378906 L149.925781,112.871094 L147.916016,112.871094 Z M153.34375,104.955078 L155.326172,104.955078 C155.38086,105.848312 155.731768,106.591143 156.378906,107.183594 C157.026045,107.776045 157.92838,108.136067 159.085938,108.263672 L159.085938,101.140625 L158.046875,100.853516 C157.472653,100.707682 156.946291,100.513999 156.467773,100.272461 C155.989255,100.030923 155.544924,99.7278664 155.134766,99.3632812 C154.724607,98.9986961 154.403321,98.5429715 154.170898,97.9960938 C153.938475,97.449216 153.822266,96.8339878 153.822266,96.1503906 C153.822266,94.6738207 154.307612,93.5071657 155.27832,92.6503906 C156.249028,91.7936155 157.518221,91.2877612 159.085938,91.1328125 L159.085938,89.328125 L160.740234,89.328125 L160.740234,91.1191406 C162.262377,91.2558601 163.524735,91.7594358 164.527344,92.6298828 C165.529953,93.5003299 166.049479,94.6373628 166.085938,96.0410156 L164.144531,96.0410156 C164.117187,95.220699 163.802737,94.5211617 163.201172,93.9423828 C162.599606,93.3636039 161.779302,93.0195318 160.740234,92.9101562 L160.740234,99.609375 L161.765625,99.8691406 C163.305997,100.279299 164.463538,100.867184 165.238281,101.632812 C166.013025,102.398441 166.400391,103.46028 166.400391,104.818359 C166.400391,105.875656 166.147463,106.789384 165.641602,107.55957 C165.13574,108.329756 164.465824,108.913084 163.631836,109.30957 C162.797847,109.706057 161.83399,109.945312 160.740234,110.027344 L160.740234,111.791016 L159.085938,111.791016 L159.085938,110.041016 C157.253897,109.913411 155.843429,109.36882 154.854492,108.407227 C153.865555,107.445633 153.361979,106.294929 153.34375,104.955078 L153.34375,104.955078 Z M155.763672,96 C155.763672,97.3125066 156.593091,98.2786427 158.251953,98.8984375 C158.58008,99.0169277 158.858072,99.1035154 159.085938,99.1582031 L159.085938,92.9101562 C158.083328,93.0195318 157.278974,93.3408176 156.672852,93.8740234 C156.066729,94.4072292 155.763672,95.115881 155.763672,96 L155.763672,96 Z M160.740234,108.291016 C161.870448,108.190755 162.770504,107.85124 163.44043,107.272461 C164.110355,106.693682 164.445312,105.921229 164.445312,104.955078 C164.445312,104.152991 164.203778,103.494469 163.720703,102.979492 C163.237628,102.464516 162.38998,102.024741 161.177734,101.660156 C161.086588,101.641927 160.940756,101.605469 160.740234,101.550781 L160.740234,108.291016 Z M168.177734,101.222656 L168.177734,99.5957031 L170.966797,99.5957031 L170.966797,95.4257812 C170.966797,93.9947845 171.443029,92.8896523 172.395508,92.1103516 C173.347987,91.3310508 174.548821,90.9414062 175.998047,90.9414062 C177.447273,90.9414062 178.607092,91.3196577 179.477539,92.0761719 C180.347986,92.8326861 180.805989,93.8216085 180.851562,95.0429688 L178.951172,95.0429688 C178.896484,94.3776008 178.60482,93.8147809 178.076172,93.3544922 C177.547523,92.8942034 176.850265,92.6640625 175.984375,92.6640625 C174.981766,92.6640625 174.22982,92.9420545 173.728516,93.4980469 C173.227211,94.0540392 172.976562,94.7649696 172.976562,95.6308594 L172.976562,99.5957031 L177.119141,99.5957031 L177.119141,101.222656 L172.976562,101.222656 L172.976562,104.681641 C172.976562,105.629562 172.908204,106.386065 172.771484,106.951172 C172.634765,107.516279 172.384116,107.912759 172.019531,108.140625 L172.019531,108.277344 L180.933594,108.277344 L180.933594,110 L168.492188,110 L168.492188,108.167969 C168.829429,108.167969 169.089192,108.158854 169.271484,108.140625 C169.453777,108.122396 169.654296,108.079102 169.873047,108.010742 C170.091798,107.942382 170.255859,107.833009 170.365234,107.682617 C170.47461,107.532226 170.581705,107.324871 170.686523,107.060547 C170.791342,106.796223 170.864258,106.461265 170.905273,106.055664 C170.946289,105.650063 170.966797,105.160159 170.966797,104.585938 L170.966797,101.222656 L168.177734,101.222656 Z M182.998047,105.105469 C182.998047,103.984369 183.317054,103.00684 183.955078,102.172852 C184.593102,101.338863 185.509109,100.602868 186.703125,99.9648438 C186.748698,99.9466145 186.858072,99.8896489 187.03125,99.7939453 C187.204428,99.6982417 187.332031,99.6321616 187.414062,99.5957031 C186.648434,98.7845012 186.065106,98.0507845 185.664062,97.3945312 C185.263019,96.738278 185.0625,96.0227903 185.0625,95.2480469 C185.0625,94.1087183 185.495438,93.1471393 186.361328,92.3632812 C187.227218,91.5794232 188.330071,91.1875 189.669922,91.1875 C191.000658,91.1875 192.101233,91.5771445 192.97168,92.3564453 C193.842127,93.1357461 194.277344,94.1223899 194.277344,95.3164062 C194.277344,95.8541694 194.179363,96.3531878 193.983398,96.8134766 C193.787434,97.2737653 193.49577,97.6953106 193.108398,98.078125 C192.721027,98.4609394 192.306317,98.8027329 191.864258,99.1035156 C191.422198,99.4042984 190.882165,99.7187484 190.244141,100.046875 L195.029297,105.255859 C195.649092,104.098302 195.968099,102.33009 195.986328,99.9511719 L195.986328,99.390625 L197.914062,99.390625 L197.914062,99.9511719 C197.895833,102.840509 197.385422,105.064445 196.382812,106.623047 L199.554688,110 L196.943359,110 L195.152344,108.072266 C194.268225,108.874353 193.29981,109.455402 192.24707,109.81543 C191.194331,110.175458 190.166672,110.355469 189.164062,110.355469 C188.033849,110.355469 187.00619,110.152671 186.081055,109.74707 C185.15592,109.341469 184.41081,108.733077 183.845703,107.921875 C183.280596,107.110673 182.998047,106.17188 182.998047,105.105469 L182.998047,105.105469 Z M185.035156,104.996094 C185.035156,106.144537 185.452144,107.035479 186.286133,107.668945 C187.120121,108.302412 188.134109,108.619141 189.328125,108.619141 C190.148442,108.619141 190.97786,108.464194 191.816406,108.154297 C192.654952,107.844399 193.361325,107.37956 193.935547,106.759766 L188.548828,100.839844 C188.330077,100.949219 188.102215,101.067708 187.865234,101.195312 C186.935542,101.696617 186.231448,102.245765 185.75293,102.842773 C185.274412,103.439782 185.035156,104.157548 185.035156,104.996094 L185.035156,104.996094 Z M187.044922,95.3710938 C187.044922,95.8906276 187.195311,96.4055964 187.496094,96.9160156 C187.796877,97.4264348 188.334632,98.0735638 189.109375,98.8574219 C190.20313,98.3014295 191.012042,97.7659531 191.536133,97.2509766 C192.060224,96.736 192.322266,96.1048214 192.322266,95.3574219 C192.322266,94.6009077 192.076174,93.9879581 191.583984,93.5185547 C191.091794,93.0491513 190.458337,92.8144531 189.683594,92.8144531 C188.90885,92.8144531 188.275393,93.0559872 187.783203,93.5390625 C187.291013,94.0221378 187.044922,94.6328088 187.044922,95.3710938 L187.044922,95.3710938 Z M200.580078,102.630859 C200.580078,102.056638 200.650715,101.52344 200.791992,101.03125 C200.933269,100.53906 201.152017,100.090171 201.448242,99.6845703 C201.744468,99.2789693 202.147784,98.9576835 202.658203,98.7207031 C203.168622,98.4837228 203.761064,98.3652344 204.435547,98.3652344 C205.000654,98.3652344 205.533852,98.4951159 206.035156,98.7548828 C206.536461,99.0146497 207.069659,99.4225233 207.634766,99.9785156 C208.054039,100.416018 208.430011,100.753254 208.762695,100.990234 C209.095379,101.227215 209.439451,101.345703 209.794922,101.345703 C210.423831,101.345703 210.895506,101.117841 211.209961,100.662109 C211.524416,100.206378 211.69987,99.6184932 211.736328,98.8984375 L213.582031,98.8984375 C213.582031,99.4635445 213.511394,99.992185 213.370117,100.484375 C213.22884,100.976565 213.012371,101.43229 212.720703,101.851562 C212.429035,102.270835 212.02344,102.603514 211.503906,102.849609 C210.984372,103.095704 210.382816,103.21875 209.699219,103.21875 C209.134112,103.21875 208.605471,103.08659 208.113281,102.822266 C207.621091,102.557941 207.078779,102.138675 206.486328,101.564453 C205.893877,100.981117 205.470053,100.61198 205.214844,100.457031 C204.923176,100.283853 204.640626,100.197266 204.367188,100.197266 C203.738278,100.197266 203.266603,100.422849 202.952148,100.874023 C202.637694,101.325198 202.466797,101.910804 202.439453,102.630859 L200.580078,102.630859 Z M215.673828,96.8613281 L218.695312,95.3027344 L215.673828,93.703125 L216.34375,92.5 L219.255859,94.3867188 L219.119141,90.9277344 L220.458984,90.9277344 L220.308594,94.3867188 L223.220703,92.5 L223.890625,93.6894531 L220.855469,95.3027344 L223.890625,96.8613281 L223.220703,98.0507812 L220.308594,96.2460938 L220.458984,99.6367188 L219.119141,99.6367188 L219.255859,96.2324219 L216.34375,98.0507812 L215.673828,96.8613281 Z M225.996094,91.3652344 L227.595703,91.3652344 C227.996747,91.8756536 228.333983,92.326821 228.607422,92.71875 C228.880861,93.110679 229.197589,93.6529913 229.557617,94.3457031 C229.917645,95.0384149 230.204752,95.733395 230.418945,96.4306641 C230.633139,97.1279332 230.819986,97.9869741 230.979492,99.0078125 C231.138998,100.028651 231.21875,101.113276 231.21875,102.261719 C231.21875,103.674486 231.107097,105.009759 230.883789,106.267578 C230.660481,107.525397 230.357424,108.619136 229.974609,109.548828 C229.591795,110.47852 229.222658,111.255531 228.867188,111.879883 C228.511717,112.504235 228.128908,113.071612 227.71875,113.582031 L226.023438,113.582031 C226.360679,112.998695 226.62272,112.533856 226.80957,112.1875 C226.99642,111.841144 227.265298,111.266931 227.616211,110.464844 C227.967124,109.662756 228.23828,108.906254 228.429688,108.195312 C228.621095,107.484371 228.796549,106.595708 228.956055,105.529297 C229.115561,104.462885 229.195312,103.364589 229.195312,102.234375 C229.195312,100.839837 229.08366,99.5091209 228.860352,98.2421875 C228.637043,96.9752541 228.345379,95.8951868 227.985352,95.0019531 C227.625324,94.1087195 227.28353,93.3727242 226.959961,92.7939453 C226.636392,92.2151664 226.315106,91.7389342 225.996094,91.3652344 L225.996094,91.3652344 Z M239.845703,103.123047 L239.845703,100.880859 C240.748051,100.880859 241.358722,100.668947 241.677734,100.245117 C241.996746,99.8212869 242.15625,99.1126352 242.15625,98.1191406 L242.15625,94.6738281 C242.15625,93.1243412 242.566402,92.0123732 243.386719,91.3378906 C244.207035,90.6634081 245.414706,90.3261719 247.009766,90.3261719 L247.693359,90.3261719 L247.693359,91.9394531 L247.091797,91.9394531 C245.988927,91.9394531 245.202802,92.1718727 244.733398,92.6367188 C244.263995,93.1015648 244.029297,93.8398387 244.029297,94.8515625 L244.029297,98.8164062 C244.029297,100.684905 243.277351,101.696614 241.773438,101.851562 L241.773438,102.138672 C243.277351,102.275391 244.029297,103.282543 244.029297,105.160156 L244.029297,109.699219 C244.029297,110.710943 244.266274,111.451495 244.740234,111.920898 C245.214195,112.390302 245.998041,112.625 247.091797,112.625 L247.693359,112.625 L247.693359,114.251953 L247.009766,114.251953 C245.432935,114.251953 244.229822,113.898767 243.400391,113.192383 C242.570959,112.485999 242.15625,111.344409 242.15625,109.767578 L242.15625,105.884766 C242.15625,104.882156 241.996746,104.171226 241.677734,103.751953 C241.358722,103.33268 240.748051,103.123047 239.845703,103.123047 L239.845703,103.123047 Z M248.623047,110 L255.322266,91.3515625 L257.318359,91.3515625 L264.017578,110 L261.830078,110 L259.847656,104.189453 L252.697266,104.189453 L250.714844,110 L248.623047,110 Z M253.285156,102.507812 L259.273438,102.507812 L256.306641,93.8671875 L256.251953,93.8671875 L253.285156,102.507812 Z M255.0625,89.3007812 L258.535156,86.5527344 L260.845703,86.5527344 L256.894531,89.3007812 L255.0625,89.3007812 Z M265.699219,102.029297 L265.699219,99.4179688 C265.699219,96.7291532 266.34179,94.6442131 267.626953,93.1630859 C268.912116,91.6819587 270.671213,90.9414062 272.904297,90.9414062 C273.988938,90.9414062 274.973303,91.1259747 275.857422,91.4951172 C276.741541,91.8642597 277.452471,92.3473277 277.990234,92.9443359 C278.527997,93.5413441 278.940428,94.1998662 279.227539,94.9199219 C279.51465,95.6399776 279.658203,96.3736942 279.658203,97.1210938 L277.634766,97.1210938 C277.634766,96.6015599 277.529949,96.0888697 277.320312,95.5830078 C277.110676,95.0771459 276.814455,94.6145854 276.431641,94.1953125 C276.048826,93.7760396 275.549808,93.4388034 274.93457,93.1835938 C274.319333,92.9283841 273.642582,92.8007812 272.904297,92.8007812 C271.309237,92.8007812 270.04688,93.3681584 269.117188,94.5029297 C268.187495,95.637701 267.722656,97.2805882 267.722656,99.4316406 L267.722656,102.015625 C267.722656,104.175792 268.182938,105.802729 269.103516,106.896484 C270.024093,107.99024 271.313794,108.537109 272.972656,108.537109 C274.430997,108.537109 275.574866,108.152022 276.404297,107.381836 C277.233728,106.61165 277.648438,105.661464 277.648438,104.53125 L279.671875,104.53125 C279.671875,105.041669 279.59668,105.554359 279.446289,106.069336 C279.295898,106.584312 279.054364,107.092445 278.72168,107.59375 C278.388996,108.095055 277.983401,108.541665 277.504883,108.933594 C277.026365,109.325523 276.436201,109.653645 275.734375,109.917969 C275.032549,110.182293 274.266931,110.337239 273.4375,110.382812 L272.863281,111.927734 C273.756515,111.927734 274.467445,112.110024 274.996094,112.474609 C275.524742,112.839195 275.789062,113.381507 275.789062,114.101562 C275.789062,114.90365 275.506513,115.516599 274.941406,115.94043 C274.376299,116.36426 273.656254,116.594401 272.78125,116.630859 C272.05208,116.667318 271.382165,116.598959 270.771484,116.425781 L270.771484,115.099609 C271.199872,115.227214 271.73307,115.291016 272.371094,115.291016 C272.83594,115.291016 273.234699,115.202149 273.567383,115.024414 C273.900067,114.846679 274.066406,114.552736 274.066406,114.142578 C274.066406,113.914712 274.011719,113.730144 273.902344,113.588867 C273.792968,113.44759 273.62435,113.347331 273.396484,113.288086 C273.168619,113.228841 272.956707,113.190104 272.760742,113.171875 C272.564778,113.153646 272.307293,113.144531 271.988281,113.144531 L271.291016,113.144531 L271.291016,112.173828 L271.974609,110.355469 C269.98762,110.164062 268.444992,109.352872 267.34668,107.921875 C266.248367,106.490878 265.699219,104.526705 265.699219,102.029297 L265.699219,102.029297 Z M283.199219,103.478516 L283.199219,91.3515625 L285.236328,91.3515625 L285.236328,103.533203 C285.236328,105.055346 285.678381,106.269852 286.5625,107.176758 C287.446619,108.083663 288.645175,108.537109 290.158203,108.537109 C291.671232,108.537109 292.872066,108.083663 293.760742,107.176758 C294.649419,106.269852 295.09375,105.055346 295.09375,103.533203 L295.09375,91.3515625 L297.117188,91.3515625 L297.117188,103.533203 C297.117188,105.593109 296.476894,107.251947 295.196289,108.509766 C293.915684,109.767584 292.236339,110.396484 290.158203,110.396484 C288.080068,110.396484 286.400723,109.760749 285.120117,108.489258 C283.839512,107.217767 283.199219,105.547536 283.199219,103.478516 L283.199219,103.478516 Z M287.546875,88.3710938 C287.546875,88.070311 287.644856,87.8173838 287.84082,87.6123047 C288.036785,87.4072255 288.27604,87.3046875 288.558594,87.3046875 C288.850262,87.3046875 289.096353,87.4049469 289.296875,87.6054688 C289.497397,87.8059906 289.597656,88.0611964 289.597656,88.3710938 C289.597656,88.6627619 289.497397,88.9088532 289.296875,89.109375 C289.096353,89.3098968 288.850262,89.4101562 288.558594,89.4101562 C288.27604,89.4101562 288.036785,89.3098968 287.84082,89.109375 C287.644856,88.9088532 287.546875,88.6627619 287.546875,88.3710938 L287.546875,88.3710938 Z M291.402344,88.3710938 C291.402344,88.0611964 291.500325,87.8059906 291.696289,87.6054688 C291.892254,87.4049469 292.136066,87.3046875 292.427734,87.3046875 C292.719403,87.3046875 292.963215,87.4049469 293.15918,87.6054688 C293.355144,87.8059906 293.453125,88.0611964 293.453125,88.3710938 C293.453125,88.6627619 293.355144,88.9088532 293.15918,89.109375 C292.963215,89.3098968 292.719403,89.4101562 292.427734,89.4101562 C292.145181,89.4101562 291.903647,89.3098968 291.703125,89.109375 C291.502603,88.9088532 291.402344,88.6627619 291.402344,88.3710938 L291.402344,88.3710938 Z M300.535156,105.912109 C300.535156,104.645176 300.965816,103.640303 301.827148,102.897461 C302.688481,102.154619 303.921216,101.783203 305.525391,101.783203 L309.421875,101.783203 L309.421875,100.005859 C309.421875,98.173819 308.360037,97.2578125 306.236328,97.2578125 C304.313141,97.2578125 303.251303,98.0507733 303.050781,99.6367188 L301.095703,99.6367188 C301.16862,98.3515561 301.647131,97.3330116 302.53125,96.5810547 C303.415369,95.8290978 304.686841,95.453125 306.345703,95.453125 C307.968107,95.453125 309.225907,95.8245406 310.119141,96.5673828 C311.012374,97.3102251 311.458984,98.447258 311.458984,99.9785156 L311.458984,110 L309.503906,110 L309.503906,108.017578 L309.449219,108.017578 C309.066404,108.655602 308.519535,109.184243 307.808594,109.603516 C307.097653,110.022789 306.231776,110.232422 305.210938,110.232422 C303.816399,110.232422 302.688481,109.83822 301.827148,109.049805 C300.965816,108.261389 300.535156,107.215501 300.535156,105.912109 L300.535156,105.912109 Z M302.613281,105.871094 C302.613281,106.70964 302.909502,107.35449 303.501953,107.805664 C304.094404,108.256838 304.823563,108.482422 305.689453,108.482422 C306.755865,108.482422 307.644528,108.161136 308.355469,107.518555 C309.06641,106.875973 309.421875,106.071619 309.421875,105.105469 L309.421875,103.464844 L305.59375,103.464844 C304.591141,103.464844 303.843752,103.681313 303.351562,104.114258 C302.859373,104.547203 302.613281,105.132809 302.613281,105.871094 L302.613281,105.871094 Z M305.074219,93.4707031 L307.644531,89.7382812 L309.763672,89.7382812 L306.660156,93.4707031 L305.074219,93.4707031 Z M315.013672,103.697266 L315.013672,101.947266 C315.013672,100.024079 315.528641,98.4609435 316.558594,97.2578125 C317.588547,96.0546815 319.019522,95.453125 320.851562,95.453125 C321.680994,95.453125 322.442054,95.5784493 323.134766,95.8291016 C323.827477,96.0797539 324.392576,96.4101542 324.830078,96.8203125 C325.26758,97.2304708 325.607095,97.688474 325.848633,98.1943359 C326.09017,98.7001978 326.215495,99.2174453 326.224609,99.7460938 L324.214844,99.7460938 C324.123697,99.1080697 323.784183,98.5270208 323.196289,98.0029297 C322.608395,97.4788385 321.835942,97.2167969 320.878906,97.2167969 C319.611973,97.2167969 318.650394,97.6656856 317.994141,98.5634766 C317.337887,99.4612675 317.009766,100.621087 317.009766,102.042969 L317.009766,103.710938 C317.009766,105.069017 317.356116,106.180985 318.048828,107.046875 C318.74154,107.912765 319.689447,108.345703 320.892578,108.345703 C321.876958,108.345703 322.653969,108.140627 323.223633,107.730469 C323.793297,107.32031 324.155598,106.800784 324.310547,106.171875 L326.320312,106.171875 C326.265625,107.138026 325.821293,108.015296 324.987305,108.803711 C324.153316,109.592126 323.034512,110.054687 321.630859,110.191406 L320.988281,111.654297 C321.8724,111.654297 322.560544,111.834308 323.052734,112.194336 C323.544924,112.554364 323.791016,113.098955 323.791016,113.828125 C323.791016,114.630212 323.508466,115.243162 322.943359,115.666992 C322.378252,116.090822 321.658208,116.320963 320.783203,116.357422 C320.054033,116.39388 319.384118,116.325522 318.773438,116.152344 L318.773438,114.826172 C319.19271,114.953777 319.725908,115.017578 320.373047,115.017578 C320.837893,115.017578 321.234373,114.928712 321.5625,114.750977 C321.890627,114.573241 322.054688,114.279299 322.054688,113.869141 C322.054688,113.641275 322.006836,113.456706 321.911133,113.31543 C321.815429,113.174153 321.662761,113.073894 321.453125,113.014648 C321.243489,112.955403 321.045248,112.916667 320.858398,112.898438 C320.671549,112.880208 320.423179,112.871094 320.113281,112.871094 L319.402344,112.871094 L319.402344,111.900391 L320.167969,110.191406 C318.527336,110.036458 317.258143,109.3711 316.360352,108.195312 C315.462561,107.019525 315.013672,105.520191 315.013672,103.697266 L315.013672,103.697266 Z M328.070312,112.625 L328.671875,112.625 C329.76563,112.625 330.551755,112.390302 331.030273,111.920898 C331.508791,111.451495 331.748047,110.710943 331.748047,109.699219 L331.748047,105.160156 C331.748047,103.282543 332.499992,102.275391 334.003906,102.138672 L334.003906,101.851562 C332.499992,101.696614 331.748047,100.684905 331.748047,98.8164062 L331.748047,94.8515625 C331.748047,93.8398387 331.51107,93.1015648 331.037109,92.6367188 C330.563149,92.1718727 329.774745,91.9394531 328.671875,91.9394531 L328.070312,91.9394531 L328.070312,90.3261719 L328.753906,90.3261719 C330.348966,90.3261719 331.556637,90.6634081 332.376953,91.3378906 C333.19727,92.0123732 333.607422,93.1243412 333.607422,94.6738281 L333.607422,98.1191406 C333.607422,99.1126352 333.766925,99.8212869 334.085938,100.245117 C334.40495,100.668947 335.01562,100.880859 335.917969,100.880859 L335.917969,103.123047 C335.01562,103.123047 334.40495,103.33268 334.085938,103.751953 C333.766925,104.171226 333.607422,104.882156 333.607422,105.884766 L333.607422,109.767578 C333.607422,111.344409 333.192712,112.485999 332.363281,113.192383 C331.53385,113.898767 330.330737,114.251953 328.753906,114.251953 L328.070312,114.251953 L328.070312,112.625 Z" id="sfd-ABCDEFGHIJKLMNOPQRST-svg" fill="#332C21" sketch:type="MSShapeGroup"></path>
            </g>
        </g>
    </g>
</svg>