<?xml version="1.0" encoding="UTF-8" standalone="no"?>
<svg width="1200px" height="390px" viewBox="0 0 1200 390" version="1.1" xmlns="https://www.w3.org/2000/svg" xmlns:xlink="https://www.w3.org/1999/xlink" xmlns:sketch="https://www.bohemiancoding.com/sketch/ns">
    <!-- Generator: Sketch Beta 3.3 (11855) - https://www.bohemiancoding.com/sketch -->
    <title>Artboard 10</title>
    <desc>Created with Sketch Beta.</desc>
    <defs></defs>
    <g id="Page-1" stroke="none" stroke-width="1" fill="none" fill-rule="evenodd" sketch:type="MSPage">
        <g id="Artboard-10" sketch:type="MSArtboardGroup" fill="#EF431D">
            <path d="M52.0898438,266 L52.0898438,132.796875 L66.0546875,132.796875 L111.855469,239.535156 L112.246094,239.535156 L157.949219,132.796875 L171.914062,132.796875 L171.914062,266 L158.730469,266 L158.730469,165.414062 L158.242188,165.414062 L118.59375,255.746094 L105.410156,255.746094 L65.6640625,165.414062 L65.2734375,165.414062 L65.2734375,266 L52.0898438,266 Z M195.476562,236.800781 C195.476562,227.751257 198.552704,220.573594 204.705078,215.267578 C210.857453,209.961562 219.662703,207.308594 231.121094,207.308594 L258.953125,207.308594 L258.953125,194.613281 C258.953125,181.527278 251.368565,174.984375 236.199219,174.984375 C222.462171,174.984375 214.877611,180.648381 213.445312,191.976562 L199.480469,191.976562 C200.001305,182.796829 203.419239,175.521511 209.734375,170.150391 C216.049511,164.77927 225.131451,162.09375 236.980469,162.09375 C248.569068,162.09375 257.553354,164.746718 263.933594,170.052734 C270.313834,175.35875 273.503906,183.480414 273.503906,194.417969 L273.503906,266 L259.539062,266 L259.539062,251.839844 L259.148438,251.839844 C256.414049,256.397158 252.507838,260.173162 247.429688,263.167969 C242.351537,266.162775 236.166703,267.660156 228.875,267.660156 C218.914013,267.660156 210.857453,264.844429 204.705078,259.212891 C198.552704,253.581352 195.476562,246.110724 195.476562,236.800781 L195.476562,236.800781 Z M210.320312,236.507812 C210.320312,242.497426 212.436177,247.1035 216.667969,250.326172 C220.899761,253.548844 226.108042,255.160156 232.292969,255.160156 C239.910194,255.160156 246.257787,252.865257 251.335938,248.275391 C256.414088,243.685524 258.953125,237.940139 258.953125,231.039062 L258.953125,219.320312 L231.609375,219.320312 C224.447881,219.320312 219.109393,220.866521 215.59375,223.958984 C212.078107,227.051448 210.320312,231.234349 210.320312,236.507812 L210.320312,236.507812 Z M295.894531,220.980469 L295.894531,208.480469 C295.894531,194.743421 299.57288,183.578168 306.929688,174.984375 C314.286495,166.390582 324.507747,162.09375 337.59375,162.09375 C343.518259,162.09375 348.954402,162.988923 353.902344,164.779297 C358.850285,166.56967 362.886703,168.929673 366.011719,171.859375 C369.136734,174.789077 371.56184,178.060529 373.287109,181.673828 C375.012378,185.287127 375.907552,188.981752 375.972656,192.757812 L361.617188,192.757812 C360.966143,188.200498 358.541037,184.050149 354.341797,180.306641 C350.142557,176.563132 344.625034,174.691406 337.789062,174.691406 C328.739538,174.691406 321.871117,177.897754 317.183594,184.310547 C312.49607,190.723339 310.152344,199.007762 310.152344,209.164062 L310.152344,221.078125 C310.152344,230.778694 312.626277,238.721323 317.574219,244.90625 C322.52216,251.091177 329.292926,254.183594 337.886719,254.183594 C344.918004,254.183594 350.468079,252.718765 354.537109,249.789062 C358.60614,246.85936 361.194005,243.14846 362.300781,238.65625 L376.65625,238.65625 C376.460937,242.171893 375.451832,245.622379 373.628906,249.007812 C371.80598,252.393246 369.315771,255.485663 366.158203,258.285156 C363.000635,261.084649 358.931666,263.346997 353.951172,265.072266 C348.970678,266.797535 343.518259,267.660156 337.59375,267.660156 C324.377538,267.660156 314.123734,263.3796 306.832031,254.818359 C299.540328,246.257119 295.894531,234.977935 295.894531,220.980469 L295.894531,220.980469 Z M399.339844,266 L399.339844,163.753906 L413.597656,163.753906 L413.597656,176.449219 L413.988281,176.449219 C414.899744,174.496084 415.876297,172.819668 416.917969,171.419922 C417.959641,170.020175 419.42447,168.53907 421.3125,166.976562 C423.20053,165.414055 425.723292,164.225916 428.880859,163.412109 C432.038427,162.598303 435.733052,162.191406 439.964844,162.191406 C441.527352,162.191406 443.610664,162.321613 446.214844,162.582031 L446.214844,175.960938 C444.847649,175.70052 442.210957,175.570312 438.304688,175.570312 C429.710895,175.570312 423.444681,177.897763 419.505859,182.552734 C415.567038,187.207706 413.597656,193.539022 413.597656,201.546875 L413.597656,266 L399.339844,266 Z M456.59375,219.417969 L456.59375,210.238281 C456.59375,203.206996 457.488923,196.7943 459.279297,191 C461.06967,185.2057 463.706363,180.143902 467.189453,175.814453 C470.672543,171.485004 475.197238,168.115897 480.763672,165.707031 C486.330106,163.298165 492.693975,162.09375 499.855469,162.09375 C514.048248,162.09375 524.790328,166.423134 532.082031,175.082031 C539.373734,183.740929 543.019531,195.459562 543.019531,210.238281 L543.019531,219.417969 C543.019531,234.261793 539.373734,246.012978 532.082031,254.671875 C524.790328,263.330772 514.048248,267.660156 499.855469,267.660156 C485.662689,267.660156 474.904333,263.330772 467.580078,254.671875 C460.255823,246.012978 456.59375,234.261793 456.59375,219.417969 L456.59375,219.417969 Z M470.851562,217.855469 C470.851562,229.053441 473.179013,238.021451 477.833984,244.759766 C482.488956,251.498081 489.829377,254.867188 499.855469,254.867188 C504.998724,254.867188 509.458314,253.923187 513.234375,252.035156 C517.010436,250.147126 519.988921,247.494158 522.169922,244.076172 C524.350922,240.658186 525.962234,236.784527 527.003906,232.455078 C528.045578,228.125629 528.566406,223.259142 528.566406,217.855469 L528.566406,211.898438 C528.566406,206.624974 528.045578,201.823589 527.003906,197.494141 C525.962234,193.164692 524.350922,189.242205 522.169922,185.726562 C519.988921,182.21092 517.010436,179.492848 513.234375,177.572266 C509.458314,175.651683 504.998724,174.691406 499.855469,174.691406 C489.894481,174.691406 482.570336,178.125617 477.882812,184.994141 C473.195289,191.862665 470.851562,200.830674 470.851562,211.898438 L470.851562,217.855469 Z M565.996094,301.449219 L565.996094,163.65625 L579.667969,163.65625 L579.667969,178.402344 L580.058594,178.402344 C582.141938,173.71482 585.869114,169.824885 591.240234,166.732422 C596.611355,163.639958 603.430948,162.09375 611.699219,162.09375 C623.352923,162.09375 632.809208,166.146444 640.068359,174.251953 C647.32751,182.357462 650.957031,193.408784 650.957031,207.40625 L650.957031,222.445312 C650.957031,236.572987 647.311234,247.640585 640.019531,255.648438 C632.727828,263.65629 623.059956,267.660156 611.015625,267.660156 C596.627532,267.660156 586.536487,262.35422 580.742188,251.742188 L580.351562,251.742188 L580.351562,301.449219 L565.996094,301.449219 Z M580.351562,221.175781 C580.351562,230.550828 582.939427,238.509733 588.115234,245.052734 C593.291042,251.595736 600.273394,254.867188 609.0625,254.867188 C617.330771,254.867188 623.987605,251.888702 629.033203,245.931641 C634.078801,239.97458 636.601562,231.36464 636.601562,220.101562 L636.601562,209.359375 C636.601562,198.356716 634.111353,189.828155 629.130859,183.773438 C624.150366,177.71872 617.330772,174.691406 608.671875,174.691406 C599.947873,174.691406 593.0469,177.783823 587.96875,183.96875 C582.8906,190.153677 580.351562,198.096306 580.351562,207.796875 L580.351562,221.175781 Z M674.324219,266 L674.324219,125.667969 L688.679688,125.667969 L688.679688,177.621094 L689.167969,177.621094 C691.055999,173.454406 694.441382,169.824885 699.324219,166.732422 C704.207056,163.639958 710.489545,162.09375 718.171875,162.09375 C729.565161,162.09375 738.761033,165.80465 745.759766,173.226562 C752.758499,180.648475 756.257812,190.218691 756.257812,201.9375 L756.257812,266 L741.804688,266 L741.804688,204.769531 C741.804688,195.91532 739.591168,188.786485 735.164062,183.382812 C730.736957,177.97914 724.356812,175.277344 716.023438,175.277344 C707.36454,175.277344 700.642602,177.930312 695.857422,183.236328 C691.072242,188.542344 688.679688,195.850214 688.679688,205.160156 L688.679688,266 L674.324219,266 Z M777.671875,236.800781 C777.671875,227.751257 780.748016,220.573594 786.900391,215.267578 C793.052765,209.961562 801.858016,207.308594 813.316406,207.308594 L841.148438,207.308594 L841.148438,194.613281 C841.148438,181.527278 833.563878,174.984375 818.394531,174.984375 C804.657483,174.984375 797.072924,180.648381 795.640625,191.976562 L781.675781,191.976562 C782.196617,182.796829 785.614552,175.521511 791.929688,170.150391 C798.244823,164.77927 807.326764,162.09375 819.175781,162.09375 C830.764381,162.09375 839.748666,164.746718 846.128906,170.052734 C852.509146,175.35875 855.699219,183.480414 855.699219,194.417969 L855.699219,266 L841.734375,266 L841.734375,251.839844 L841.34375,251.839844 C838.609361,256.397158 834.70315,260.173162 829.625,263.167969 C824.54685,266.162775 818.362016,267.660156 811.070312,267.660156 C801.109325,267.660156 793.052765,264.844429 786.900391,259.212891 C780.748016,253.581352 777.671875,246.110724 777.671875,236.800781 L777.671875,236.800781 Z M792.515625,236.507812 C792.515625,242.497426 794.631489,247.1035 798.863281,250.326172 C803.095073,253.548844 808.303354,255.160156 814.488281,255.160156 C822.105507,255.160156 828.4531,252.865257 833.53125,248.275391 C838.6094,243.685524 841.148438,237.940139 841.148438,231.039062 L841.148438,219.320312 L813.804688,219.320312 C806.643193,219.320312 801.304705,220.866521 797.789062,223.958984 C794.27342,227.051448 792.515625,231.234349 792.515625,236.507812 L792.515625,236.507812 Z M876.722656,221.273438 L876.722656,206.234375 C876.722656,193.083268 880.596315,182.438843 888.34375,174.300781 C896.091185,166.16272 905.856712,162.09375 917.640625,162.09375 C932.158927,162.09375 942.21742,167.529894 947.816406,178.402344 L948.207031,178.402344 L948.207031,163.753906 L961.878906,163.753906 L961.878906,263.949219 C961.878906,277.230535 958.005247,287.240201 950.257812,293.978516 C942.510378,300.716831 931.80085,304.085938 918.128906,304.085938 C905.824157,304.085938 896.351596,301.221383 889.710938,295.492188 C883.070279,289.762992 879.522138,282.829468 879.066406,274.691406 L894.105469,274.691406 C894.626305,279.248721 896.953755,283.138656 901.087891,286.361328 C905.222026,289.584 911.097618,291.195312 918.714844,291.195312 C928.154995,291.195312 935.332658,288.884138 940.248047,284.261719 C945.163436,279.6393 947.621094,273.063845 947.621094,264.535156 L947.621094,248.128906 L947.230469,248.128906 C945.147125,252.751325 941.436225,256.690088 936.097656,259.945312 C930.759088,263.200537 924.541702,264.828125 917.445312,264.828125 C905.791608,264.828125 896.091185,260.840535 888.34375,252.865234 C880.596315,244.889934 876.722656,234.35944 876.722656,221.273438 L876.722656,221.273438 Z M890.980469,219.125 C890.980469,229.346405 893.698541,237.402965 899.134766,243.294922 C904.570991,249.186878 911.618446,252.132812 920.277344,252.132812 C928.740928,252.132812 935.397762,249.02412 940.248047,242.806641 C945.098332,236.589162 947.523438,229.05343 947.523438,220.199219 L947.523438,208.773438 C947.523438,199.072868 945.049504,190.96748 940.101562,184.457031 C935.153621,177.946582 928.480511,174.691406 920.082031,174.691406 C911.292925,174.691406 904.245469,177.783823 898.939453,183.96875 C893.633437,190.153677 890.980469,198.454375 890.980469,208.871094 L890.980469,219.125 Z M985.050781,220.296875 L985.050781,210.53125 C985.050781,201.025994 986.531886,192.692744 989.494141,185.53125 C992.456395,178.369756 997.095021,172.673198 1003.41016,168.441406 C1009.72529,164.209614 1017.40751,162.09375 1026.45703,162.09375 C1039.99877,162.09375 1050.28512,166.455686 1057.31641,175.179688 C1064.34769,183.903689 1067.86328,195.622322 1067.86328,210.335938 L1067.86328,218.441406 L999.503906,218.441406 L999.503906,221.273438 C999.503906,225.830752 1000.05729,230.078756 1001.16406,234.017578 C1002.27084,237.9564 1003.93098,241.504542 1006.14453,244.662109 C1008.35808,247.819677 1011.30402,250.309887 1014.98242,252.132812 C1018.66083,253.955738 1022.87628,254.867188 1027.62891,254.867188 C1034.66019,254.867188 1040.08006,253.320979 1043.88867,250.228516 C1047.69728,247.136052 1050.15494,243.343772 1051.26172,238.851562 L1066.39844,238.851562 C1065.8125,242.302101 1064.67319,245.606104 1062.98047,248.763672 C1061.28775,251.92124 1058.97658,254.981105 1056.04688,257.943359 C1053.11717,260.905614 1049.21096,263.265616 1044.32812,265.023438 C1039.44529,266.781259 1033.91149,267.660156 1027.72656,267.660156 C1013.7942,267.660156 1003.1986,263.347048 995.939453,254.720703 C988.680302,246.094358 985.050781,234.619863 985.050781,220.296875 L985.050781,220.296875 Z M999.503906,206.039062 L1053.41016,206.039062 L1053.41016,205.746094 C1053.41016,196.501256 1051.00133,189.014352 1046.18359,183.285156 C1041.36586,177.555961 1034.79041,174.691406 1026.45703,174.691406 C1018.18876,174.691406 1011.62958,177.572237 1006.7793,183.333984 C1001.92901,189.095732 999.503906,196.56636 999.503906,205.746094 L999.503906,206.039062 Z M1083.22266,238.851562 L1097.28516,238.851562 C1098.00131,243.864608 1100.37758,247.917302 1104.41406,251.009766 C1108.45054,254.102229 1114.082,255.648438 1121.30859,255.648438 C1129.44666,255.648438 1135.61521,254.037125 1139.81445,250.814453 C1144.01369,247.591781 1146.11328,243.343776 1146.11328,238.070312 C1146.11328,236.377596 1145.85287,234.815111 1145.33203,233.382812 C1144.8112,231.950514 1144.20899,230.746099 1143.52539,229.769531 C1142.84179,228.792964 1141.76759,227.848963 1140.30273,226.9375 C1138.83788,226.026037 1137.53581,225.309898 1136.39648,224.789062 C1135.25716,224.268227 1133.59702,223.714847 1131.41602,223.128906 C1129.23502,222.542966 1127.42839,222.087241 1125.99609,221.761719 C1124.56379,221.436196 1122.51303,221.013023 1119.84375,220.492188 C1116.58853,219.776038 1113.90301,219.157555 1111.78711,218.636719 C1109.67121,218.115883 1107.27866,217.432296 1104.60938,216.585938 C1101.94009,215.739579 1099.75912,214.860682 1098.06641,213.949219 C1096.37369,213.037756 1094.63217,211.882168 1092.8418,210.482422 C1091.05142,209.082675 1089.6517,207.552743 1088.64258,205.892578 C1087.63346,204.232414 1086.80339,202.263032 1086.15234,199.984375 C1085.5013,197.705718 1085.17578,195.166681 1085.17578,192.367188 C1085.17578,187.289037 1086.18489,182.780619 1088.20312,178.841797 C1090.22136,174.902975 1092.97199,171.745455 1096.45508,169.369141 C1099.93817,166.992827 1103.84438,165.186204 1108.17383,163.949219 C1112.50328,162.712233 1117.17445,162.09375 1122.1875,162.09375 C1133.64589,162.09375 1142.45114,164.974581 1148.60352,170.736328 C1154.75589,176.498076 1157.83203,183.675738 1157.83203,192.269531 L1144.25781,192.269531 C1144.1276,190.055979 1143.6556,187.95639 1142.8418,185.970703 C1142.02799,183.985016 1140.8073,182.048187 1139.17969,180.160156 C1137.55208,178.272126 1135.20835,176.758469 1132.14844,175.619141 C1129.08853,174.479812 1125.54038,173.910156 1121.50391,173.910156 C1114.99346,173.910156 1109.67124,175.407537 1105.53711,178.402344 C1101.40297,181.39715 1099.33594,185.563775 1099.33594,190.902344 C1099.33594,193.246105 1099.85677,195.313142 1100.89844,197.103516 C1101.94011,198.893889 1103.01432,200.309891 1104.12109,201.351562 C1105.22787,202.393234 1107.1647,203.386063 1109.93164,204.330078 C1112.69858,205.274093 1114.73307,205.892577 1116.03516,206.185547 C1117.33725,206.478517 1119.77863,206.983069 1123.35938,207.699219 C1123.94532,207.829428 1124.40104,207.927083 1124.72656,207.992188 C1129.15367,208.773441 1132.88084,209.554684 1135.9082,210.335938 C1138.93556,211.117191 1142.10936,212.240227 1145.42969,213.705078 C1148.75002,215.169929 1151.41926,216.846345 1153.4375,218.734375 C1155.45574,220.622405 1157.11588,223.063787 1158.41797,226.058594 C1159.72006,229.0534 1160.37109,232.503887 1160.37109,236.410156 C1160.37109,246.306039 1156.7253,253.988254 1149.43359,259.457031 C1142.14189,264.925809 1132.57167,267.660156 1120.72266,267.660156 C1109.45958,267.660156 1100.39391,265.03974 1093.52539,259.798828 C1086.65687,254.557917 1083.22266,247.575564 1083.22266,238.851562 L1083.22266,238.851562 Z" id="Macrophages-sfd-svg" sketch:type="MSShapeGroup"></path>
        </g>
    </g>
</svg>