<?xml version="1.0" standalone="no"?>
<!DOCTYPE svg PUBLIC "-//W3C//DTD SVG 1.1//EN" "https://www.w3.org/Graphics/SVG/1.1/DTD/svg11.dtd" >
<svg xmlns="https://www.w3.org/2000/svg">
<metadata></metadata>
<defs>
<font id="lexia_readableregular" horiz-adv-x="1153" >
<font-face units-per-em="2048" ascent="1638" descent="-410" />
<missing-glyph horiz-adv-x="610" />
<glyph horiz-adv-x="0" />
<glyph unicode="&#xd;" horiz-adv-x="1024" />
<glyph horiz-adv-x="0" />
<glyph horiz-adv-x="0" />
<glyph unicode="&#x9;" horiz-adv-x="610" />
<glyph unicode="&#xa;" horiz-adv-x="1024" />
<glyph horiz-adv-x="1024" />
<glyph horiz-adv-x="1024" />
<glyph horiz-adv-x="1024" />
<glyph horiz-adv-x="1024" />
<glyph horiz-adv-x="1024" />
<glyph horiz-adv-x="2048" />
<glyph horiz-adv-x="2048" />
<glyph unicode=" "  horiz-adv-x="610" />
<glyph unicode="&#x09;" horiz-adv-x="610" />
<glyph unicode="&#xa0;" horiz-adv-x="610" />
<glyph unicode="!" horiz-adv-x="587" d="M152 1513q0 39 25.5 64t66.5 25h110q41 0 66.5 -25t25.5 -64q0 -23 -13 -47t-36 -36v-1020q0 -41 -27.5 -69t-68.5 -28t-69.5 28t-28.5 69v1020q-23 10 -37 34.5t-14 48.5zM170 55q0 53 40 85t89 32t89 -32t40 -85t-40 -84.5t-89 -31.5t-89 31.5t-40 84.5z" />
<glyph unicode="&#x22;" horiz-adv-x="806" d="M100 1452q0 20 8.5 42t23.5 40t36.5 29.5t50.5 11.5q33 0 55.5 -12.5t37 -31t21.5 -40t7 -39.5q0 -35 -6 -66q-4 -16 -7 -31.5t-8 -33.5l-7 -31.5t-6 -26t-8 -25.5t-13 -34q-16 -41 -29.5 -58.5t-36.5 -17.5q-20 -2 -31.5 12.5t-17.5 30.5q-4 8 -12 29q-14 35 -20.5 59.5 t-18.5 65.5q-4 18 -7 32.5t-8 28.5q-2 14 -3 30t-1 36zM467 1452q2 41 31.5 82t89.5 41q33 0 55.5 -12.5t36.5 -31t21.5 -40t7.5 -39.5q0 -35 -7 -66q-4 -16 -7 -31.5t-7 -33.5t-8 -31.5t-7 -26t-8.5 -25.5t-11.5 -34q-16 -41 -29.5 -58.5t-37.5 -17.5q-20 -2 -30.5 12.5 t-18.5 30.5q-4 6 -5.5 13.5t-5.5 15.5q-14 35 -21 59.5t-18 65.5q-6 18 -8 32.5t-6 28.5q-6 27 -6 66z" />
<glyph unicode="#" horiz-adv-x="1732" d="M51 494q10 43 44 63.5t71 20.5h219l123 413h-279q-49 0 -71.5 28t-12.5 71q10 41 42 59t79 18h291l80 318q25 90 117 90q33 0 60.5 -27.5t16.5 -81.5l-79 -299h436q10 41 25.5 95.5t31.5 103.5q16 57 35 119q12 41 36.5 65.5t78.5 24.5q43 0 63.5 -24.5t5.5 -75.5 q-18 -68 -34 -127q-14 -51 -29 -102.5t-23 -78.5h205q20 0 39.5 -5t35 -17t22.5 -29.5t1 -42.5q-8 -33 -21 -49t-29.5 -23.5t-35 -8.5t-34.5 -1h-238l-104 -413h264q43 0 74.5 -23t21.5 -76q-10 -49 -36.5 -67.5t-72.5 -18.5h-303l-86 -307q-31 -115 -125 -115 q-20 0 -37.5 5.5t-27.5 17.5t-14.5 30.5t4.5 45.5q16 68 32 131q14 53 28.5 107t25.5 85h-451q-12 -43 -30.5 -100t-34.5 -111q-20 -61 -41 -125q-16 -43 -45 -65.5t-66 -22.5q-41 0 -64.5 24.5t-7.5 78.5q20 70 41 133q16 53 31.5 106.5t26.5 81.5h-201q-47 0 -65.5 30 t-8.5 71zM571 578h451l113 413h-439z" />
<glyph unicode="$" horiz-adv-x="1409" d="M174 1081q0 100 35 176t94 127.5t138 80t169 36.5v107q0 45 26 75.5t64 30.5q37 0 62.5 -30.5t25.5 -75.5v-111q96 -16 173 -55t131.5 -90.5t83 -105.5t28.5 -99q0 -66 -71 -84q-35 -8 -68 11.5t-45 60.5q-6 18 -24.5 44.5t-48 52t-69.5 48.5t-90 35v-494 q113 -18 203 -49t152.5 -80t95.5 -119.5t33 -166.5q0 -104 -41 -182.5t-108.5 -130.5t-154.5 -82.5t-180 -39.5v-247q0 -45 -25.5 -76t-62.5 -31q-39 0 -64.5 30.5t-25.5 76.5v247q-96 6 -190 31t-164 84q-16 14 -34.5 34.5t-18.5 43.5q0 35 23.5 67.5t70.5 32.5q23 0 34 -7 t21 -15q70 -39 127.5 -59.5t130.5 -30.5v514q-80 14 -157.5 43.5t-139 79t-100.5 121t-39 171.5zM369 1081q0 -51 20.5 -89t54 -65.5t77.5 -45t89 -29.5v471q-49 -8 -92 -25.5t-76.5 -47t-53 -71.5t-19.5 -98zM788 154q53 8 105.5 26.5t94.5 49t68.5 73.5t26.5 98 t-25.5 94.5t-66.5 67t-94 45t-109 27.5v-481z" />
<glyph unicode="%" horiz-adv-x="2172" d="M102 1087q0 104 34 194.5t92.5 158t137 105.5t169.5 38q90 0 168.5 -38t137 -105.5t92.5 -158t34 -194.5t-34 -193t-92.5 -155.5t-137 -104.5t-168.5 -38t-169 38t-137.5 104.5t-92.5 155.5t-34 193zM217 1087q0 -78 23.5 -146.5t65.5 -120.5t100.5 -81.5t128.5 -29.5 t128 29.5t99 81.5t64.5 120.5t23.5 146.5t-23.5 148t-64.5 122t-99.5 82.5t-127.5 30.5q-70 0 -128.5 -30.5t-100.5 -82.5t-65.5 -122t-23.5 -148zM762 154.5q-6 25.5 10 56.5l549 1186q16 29 42 38t48 -1q23 -10 26.5 -36t-10.5 -57l-550 -1185q-14 -29 -39 -39.5t-47 2.5 q-23 10 -29 35.5zM1217 465q0 104 33.5 194.5t92 157t138.5 104t170 37.5t168.5 -37.5t137 -104t92.5 -157t34 -194.5t-34 -194.5t-92.5 -157t-137 -104.5t-168.5 -38t-170 38t-138.5 104.5t-92 156.5t-33.5 195zM1333 465q0 -78 23.5 -147.5t65.5 -121t100.5 -81 t128.5 -29.5t128 29.5t99 81t64.5 121t23.5 147.5t-23.5 146.5t-64.5 120.5t-99.5 83t-127.5 31q-70 0 -128.5 -31t-100.5 -83t-65.5 -120.5t-23.5 -146.5z" />
<glyph unicode="&#x26;" horiz-adv-x="1267" d="M98 375q-4 90 14.5 162.5t60.5 136t108.5 120t158.5 113.5q-14 18 -22 30.5t-15 23.5q-8 8 -12 16q-47 72 -77.5 134.5t-34.5 148.5q-4 70 17 129t63 102t102.5 67.5t138.5 24.5q98 0 164.5 -32.5t106.5 -81t57.5 -103.5t19.5 -98q2 -45 -14 -97.5t-48 -104.5t-80 -101.5 t-112 -87.5l332 -451l82 66q33 25 63.5 15.5t49 -35.5t18.5 -60.5t-29 -59.5l-82 -67q18 -23 37 -48.5t29 -39.5q23 -29 47.5 -65t26.5 -73q2 -35 -21.5 -59.5t-58.5 -24.5q-25 0 -48.5 14.5t-43.5 37.5q-4 8 -13 16l-12 18l-88 115q-55 -39 -85 -61.5t-56 -38.5 q-82 -53 -164 -80t-174 -27q-80 0 -150.5 36t-126 93.5t-90.5 130t-39 146.5zM283 389q2 -43 22.5 -86t51 -79t70.5 -58.5t81 -22.5q51 0 92 9.5t81 30t87.5 52t110.5 74.5q-49 63 -90 120.5t-80 114t-79 114t-87 120.5q-78 -51 -130.5 -96t-82 -90t-40.5 -94t-7 -109z M473 1268q0 -43 6 -72t18.5 -52.5t30 -47t39.5 -58.5l6 -6q4 -4 7.5 -10t11.5 -14q170 121 168 254q-4 78 -48 112.5t-104 34.5q-31 0 -55.5 -13.5t-41.5 -33t-27.5 -45t-10.5 -49.5z" />
<glyph unicode="'" horiz-adv-x="436" d="M90 1452q0 20 8 42t24.5 40t41 29.5t55.5 11.5q35 0 59.5 -12.5t40 -31t22.5 -40t7 -39.5q0 -35 -6 -66q-4 -16 -8 -31.5t-8 -33.5t-8.5 -30.5t-7.5 -25t-8 -26.5t-13 -35q-16 -41 -30.5 -58.5t-41.5 -17.5q-23 -2 -34 12.5t-19 30.5q-4 8 -6 14.5t-6 14.5 q-14 35 -21.5 59.5t-19.5 65.5q-12 33 -15 61q-6 27 -6 66z" />
<glyph unicode="(" horiz-adv-x="749" d="M117 582q0 104 20.5 230t67.5 258t127 259t200 236q31 29 70 37t64 -17q25 -23 22.5 -56.5t-37.5 -72.5q-92 -106 -153.5 -220t-98.5 -228.5t-51 -225t-14 -209.5q0 -98 17.5 -204.5t55 -214t96 -214t142.5 -206.5q29 -35 38.5 -75t-13.5 -67q-16 -12 -32.5 -20t-36 -5 t-44.5 18.5t-55 47.5q-104 106 -178 224t-120 241t-66.5 246t-20.5 238z" />
<glyph unicode=")" horiz-adv-x="749" d="M66.5 1529q-0.5 34 23.5 56q25 25 64 16.5t69 -36.5q119 -109 200 -236t128 -259t67.5 -258t20.5 -230q0 -115 -21.5 -238t-67.5 -246t-119 -240.5t-177 -224.5q-31 -33 -55.5 -48t-44 -18t-36 5t-32.5 20q-25 27 -15.5 67t38.5 75q168 201 240.5 421t72.5 418 q0 98 -14.5 209t-51.5 225.5t-99 228.5t-155 220q-35 39 -35.5 73z" />
<glyph unicode="*" horiz-adv-x="1042" d="M68 1130q0 39 24.5 64t65.5 25h213l-107 186q-20 35 -11 67.5t42 51.5q35 20 66.5 11t52.5 -44l106 -186l109 186q20 35 53 43t68 -10q33 -18 41 -51t-13 -68l-106 -186h215q39 0 63.5 -25t24.5 -64t-23.5 -62.5t-64.5 -23.5h-217l108 -186q23 -39 10.5 -71.5t-41 -48 t-63.5 -9.5t-55 43l-109 186l-106 -186q-23 -39 -56.5 -45t-61.5 11.5t-41 50t9 69.5l109 186h-215q-41 0 -65.5 24t-24.5 62z" />
<glyph unicode="+" horiz-adv-x="1042" d="M68 600q0 41 26.5 66.5t67.5 25.5h264v291q0 41 27.5 66.5t68.5 25.5t67.5 -25.5t26.5 -66.5v-291h267q41 0 66.5 -25.5t25.5 -66.5t-25.5 -64.5t-66.5 -23.5h-267v-291q0 -41 -26.5 -66.5t-67.5 -25.5t-68.5 25.5t-27.5 66.5v291h-264q-41 0 -67.5 23.5t-26.5 64.5z" />
<glyph unicode="," horiz-adv-x="477" d="M111 72q0 51 37.5 87t91.5 36q55 0 92 -37t37 -86q0 -104 -19.5 -169t-73.5 -130q-16 -23 -36.5 -24t-36.5 9t-21.5 27.5t8.5 34.5q12 14 20.5 36.5t12.5 42t2 35t-14 19.5q-41 10 -70.5 41t-29.5 78z" />
<glyph unicode="-" horiz-adv-x="745" d="M76 600q0 41 25.5 66.5t66.5 25.5h412q41 0 66.5 -25.5t25.5 -66.5t-25.5 -64.5t-66.5 -23.5h-412q-41 0 -66.5 23.5t-25.5 64.5z" />
<glyph unicode="." horiz-adv-x="481" d="M100 66q0 59 41 99t101 40q57 0 98 -40t41 -99t-41 -100.5t-98 -41.5q-59 0 -100.5 41t-41.5 101z" />
<glyph unicode="/" horiz-adv-x="1046" d="M87 -47q-7 37 13 78l723 1560q18 41 54 58.5t65 3.5q31 -16 38 -53t-11 -78l-725 -1561q-18 -41 -54 -58.5t-65 -2.5q-31 16 -38 53z" />
<glyph unicode="0" horiz-adv-x="1421" d="M111 762q0 88 15 184t47 190.5t80 178.5t114.5 148.5t152.5 102.5t191 38q162 0 275.5 -81t186 -206t106.5 -272.5t34 -282.5q0 -139 -34 -280.5t-105.5 -255t-186.5 -185.5t-276 -72q-160 0 -274.5 72t-186.5 186.5t-105.5 255t-33.5 279.5zM307 762q0 -98 17.5 -205.5 t62.5 -197t123 -146.5t201 -57t200.5 57t122.5 146.5t62.5 197t17.5 205.5q0 63 -7 137t-24.5 146.5t-47 139t-75 119t-106.5 83t-143 30.5t-143.5 -30.5t-106.5 -83t-75 -119t-47 -139t-24.5 -146.5t-7.5 -137z" />
<glyph unicode="1" horiz-adv-x="1077" d="M100 92q0 37 32 65.5t89 28.5h213v1203h-213q-57 0 -89 27.5t-32 64.5t32 65.5t89 28.5h305q53 0 79 -32t26 -70v-1287h227q57 0 89 -28.5t32 -65.5q0 -35 -32 -63.5t-89 -28.5h-637q-57 0 -89 28.5t-32 63.5z" />
<glyph unicode="2" horiz-adv-x="1339" d="M148.5 137q9.5 37 48.5 72l653 655q53 53 98 127t45 160q0 55 -21.5 104.5t-62.5 86t-98 57t-127 20.5q-78 0 -139.5 -22.5t-103.5 -59.5t-64.5 -83t-22.5 -93q-2 -47 -31.5 -70.5t-70.5 -23.5q-39 0 -68.5 23.5t-31.5 72.5q0 90 38.5 170t109.5 140.5t166 95.5t210 35 q113 0 208 -36t164.5 -96.5t108.5 -141.5t39 -173q0 -61 -13.5 -115.5t-34 -100.5t-47 -83t-52.5 -63l-625 -625h358h316q49 0 73.5 -26.5t24.5 -58.5t-24.5 -58.5t-73.5 -26.5h-273h-569q-39 0 -67.5 19.5t-39 50t-1 67.5z" />
<glyph unicode="3" horiz-adv-x="1300" d="M94 1167q0 96 41 176t110.5 138.5t161 90.5t193.5 32q111 0 203 -32t156.5 -87t100.5 -131t36 -164q0 -41 -12.5 -91t-35 -99.5t-57.5 -90.5t-78 -63q57 -18 110.5 -54t94.5 -88.5t64.5 -122t23.5 -157.5q0 -102 -39 -186t-110.5 -143.5t-171 -92.5t-219.5 -33h-88 q-111 0 -189 19.5t-125 38.5q-43 16 -53 49t2 62.5t44 47t75 2.5q29 -10 62.5 -18t67.5 -14t65.5 -9.5t56.5 -3.5h49q197 0 288 83t91 218q0 94 -47 150.5t-114 87.5t-139.5 40t-121.5 9q-63 0 -91 26.5t-28 67.5q0 35 26.5 58.5t92.5 23.5q53 0 109.5 13.5t103.5 44 t76.5 83t29.5 130.5q0 109 -78.5 176t-232.5 67q-82 0 -141.5 -25.5t-97 -63.5t-56 -82t-18.5 -83q0 -51 -30 -75.5t-65.5 -24.5t-65.5 25.5t-30 74.5z" />
<glyph unicode="4" horiz-adv-x="1253" d="M45 539q0 27 15.5 49t41.5 37l654 899q35 47 65.5 63.5t77.5 16.5q43 0 78 -28t35 -75v-870h57q16 0 33 2q51 -2 79.5 -26.5t28.5 -65.5t-29.5 -66.5t-78.5 -28.5h-90v-387q0 -35 -28 -61.5t-71 -26.5q-39 0 -69.5 27t-30.5 59v389h-670q-41 0 -69.5 27t-28.5 66z M326 633h487v674z" />
<glyph unicode="5" horiz-adv-x="1300" d="M137 840l64 559q-33 18 -41 39.5t-8 52.5q0 35 26.5 59.5t61.5 24.5h702q47 0 67.5 -27.5t20.5 -74.5q0 -35 -25.5 -58.5t-62.5 -23.5h-541l-47 -410h254q137 0 240.5 -38t174.5 -105.5t106.5 -160.5t35.5 -202q0 -115 -46 -208t-126 -159.5t-185.5 -103.5t-223.5 -37 h-25q-41 0 -108.5 5t-132 20.5t-111.5 43t-47 73.5q0 41 26.5 63.5t67.5 22.5q20 0 50 -8.5t66 -18.5t76.5 -17.5t83.5 -7.5h21q72 2 146.5 22.5t135 62.5t99.5 104.5t39 146.5q0 82 -29 141.5t-79 98.5t-120.5 57.5t-154.5 18.5h-256q-4 -14 -28.5 -38t-76.5 -24 q-41 0 -68.5 26.5t-21.5 80.5z" />
<glyph unicode="6" horiz-adv-x="1390" d="M115 778q0 168 44 317.5t132 262t220 179.5t308 67q43 0 91 -7.5t90 -24t70 -41t28 -61.5q0 -41 -25.5 -66.5t-71.5 -25.5q-14 0 -36.5 6.5t-48 12.5t-53 12t-54.5 6q-133 0 -227.5 -59.5t-153.5 -152.5t-88 -205.5t-29 -219.5q0 -98 18.5 -207.5t66.5 -202t130 -152.5 t209 -60q74 0 137.5 25.5t111.5 70.5t74.5 106.5t26.5 135.5q0 160 -79.5 244.5t-208.5 84.5q-59 0 -101.5 -11t-70.5 -26q-14 -6 -26.5 -13t-23.5 -11q-25 -10 -34 -10q-35 0 -60.5 19.5t-25.5 53.5q0 41 30.5 77t79.5 61.5t109.5 40t122.5 14.5q113 0 204 -37 t154.5 -105.5t97 -165.5t33.5 -216q0 -111 -45 -207.5t-122 -167t-177 -110.5t-211 -40q-160 0 -275.5 65.5t-191.5 177.5t-112.5 258t-36.5 308z" />
<glyph unicode="7" horiz-adv-x="1263" d="M53 1481q0 39 29 66.5t70 27.5h948q39 0 67.5 -13.5t38.5 -48.5q10 -29 -3 -53t-27 -41q-137 -135 -255 -288.5t-211.5 -322.5t-157 -354.5t-89.5 -387.5q-6 -49 -29.5 -77t-85.5 -28q-37 0 -57.5 14.5t-29.5 36t-10 46t3 44.5q37 225 97.5 409.5t141 340.5t182 287 t220.5 247h-743q-41 0 -70 27t-29 68z" />
<glyph unicode="8" horiz-adv-x="1314" d="M111 461q0 119 60 229.5t183 169.5q-76 49 -123 136t-47 190q0 86 38 161.5t102.5 133t150.5 90.5t182 33q98 0 184.5 -33t151 -90.5t101 -133t36.5 -161.5q0 -47 -12 -96.5t-34.5 -93.5t-53.5 -79.5t-69 -56.5q123 -63 184 -171.5t61 -227.5q0 -102 -46 -191.5 t-122.5 -157t-175 -106.5t-205.5 -39q-106 0 -204.5 39t-174 106.5t-121.5 156.5t-46 192zM301 465q0 -135 96.5 -221t259.5 -88q80 -2 146.5 21.5t113 64.5t72 98t25.5 125t-25.5 123t-72 95t-113 61.5t-146.5 21.5t-146.5 -21.5t-112.5 -61.5t-71.5 -95.5t-25.5 -122.5z M375 1182q0 -53 19.5 -100.5t55 -81t88 -52t119.5 -18.5q137 0 209 71.5t72 180.5q0 53 -21.5 96t-60.5 73.5t-90 47t-109 16.5q-57 0 -108 -16.5t-90 -47t-61.5 -73.5t-22.5 -96z" />
<glyph unicode="9" horiz-adv-x="1372" d="M111 1059q0 115 43 214t120.5 173t184 116t233.5 42t232.5 -41t182.5 -114t120 -173t43 -217q0 -104 -31 -189.5t-84 -152.5l-543 -709q-25 -33 -64.5 -38t-72.5 20t-38 63.5t20 71.5l299 393q-16 -2 -32.5 -2h-33.5q-117 0 -222.5 38t-185 108.5t-125.5 172t-46 224.5z M303 1059q0 -78 32 -143.5t85 -112.5t123.5 -75t148.5 -28t147.5 25t123 71t84 112.5t30.5 150.5q0 88 -28.5 154.5t-81 111.5t-123 68.5t-154.5 23.5t-154.5 -23.5t-122 -69.5t-81 -112.5t-29.5 -152.5z" />
<glyph unicode=":" horiz-adv-x="456" d="M100 154q0 49 38 83.5t91 34.5t91 -34.5t38 -83.5q0 -47 -37.5 -82t-91.5 -35q-53 0 -91 34.5t-38 82.5zM100 801q0 47 38 82t91 35t91 -35t38 -82q0 -49 -37.5 -84t-91.5 -35q-53 0 -91 35t-38 84z" />
<glyph unicode=";" horiz-adv-x="456" d="M100 158q0 49 38 83.5t91 34.5q55 0 92 -35.5t37 -82.5q0 -100 -20.5 -163t-71.5 -124q-16 -23 -36.5 -24t-36.5 10q-16 10 -21.5 26.5t8.5 34.5q12 14 20.5 34.5t12.5 40t2 34t-14 18.5q-41 10 -71 40t-30 73zM100 801q0 47 38 82t91 35t91 -35t38 -82q0 -49 -37.5 -83 t-91.5 -34q-53 0 -91 34t-38 83z" />
<glyph unicode="&#x3c;" horiz-adv-x="755" d="M111 516q0 23 9 37t30 37l370 409q16 16 35.5 27.5t42.5 11.5q35 0 56.5 -22.5t21.5 -59.5q0 -29 -9.5 -46t-25.5 -36l-313 -358l311 -354q16 -18 24.5 -34.5t8.5 -39.5q0 -39 -20.5 -63.5t-55.5 -24.5q-23 0 -42 10t-36 27l-368 403q-20 23 -29.5 38.5t-9.5 37.5z" />
<glyph unicode="=" horiz-adv-x="1155" d="M90 432q0 41 27.5 67.5t68.5 26.5h785q41 0 68.5 -26.5t27.5 -67.5t-27.5 -66.5t-68.5 -25.5h-785q-41 0 -68.5 25.5t-27.5 66.5zM90 805q0 41 27.5 67.5t68.5 26.5h785q41 0 68.5 -26.5t27.5 -67.5t-27.5 -66.5t-68.5 -25.5h-785q-41 0 -68.5 25.5t-27.5 66.5z" />
<glyph unicode="&#x3e;" horiz-adv-x="755" d="M111 956q0 37 21.5 59.5t55.5 22.5q20 0 41 -11t37 -28l371 -409q18 -23 28.5 -37t10.5 -37t-9.5 -38t-29.5 -38l-369 -403q-16 -16 -36.5 -26.5t-41.5 -10.5q-35 0 -55 24.5t-20 63.5q0 23 8 39t24 35l310 354l-312 358q-16 18 -25 36t-9 46z" />
<glyph unicode="?" horiz-adv-x="1335" d="M143 1135q0 90 43 175t118 150.5t172 104.5t204 39q119 0 221.5 -39t177 -104.5t116.5 -153t42 -181.5q0 -215 -124 -323.5t-353 -108.5h-55q-98 0 -99 -114v-172q0 -53 -30.5 -79t-69.5 -26q-37 0 -67.5 25.5t-30.5 79.5v202q0 59 12 108.5t42 83.5t79 52t125 18h86 q80 0 133 19.5t84.5 54.5t44 83t12.5 108q0 53 -26.5 103t-72.5 90t-107.5 64.5t-133.5 24.5q-78 0 -141.5 -27.5t-107.5 -69.5t-68.5 -92t-24.5 -97t-29.5 -71t-70.5 -24q-39 -2 -70 22.5t-31 74.5zM389 51q0 49 35 83t82 34q49 0 84 -34t35 -83q0 -47 -35 -80.5t-84 -33.5 q-47 0 -82 33.5t-35 80.5z" />
<glyph unicode="@" horiz-adv-x="1851" d="M100 764q0 180 64.5 340t177.5 277.5t263.5 186t320.5 68.5q172 0 322.5 -68.5t262 -186t177 -277.5t65.5 -340q0 -59 -3 -98t-7 -72q-6 -31 -13.5 -57.5t-17.5 -57.5q-16 -45 -45 -96t-72 -94t-99 -72t-126 -29q-59 2 -104 26t-80 50l-53 55q-41 -33 -83 -47t-104 -14 q-94 0 -179 38t-149.5 103.5t-103.5 157.5t-39 203q0 102 37 193t101.5 160t150.5 109t182 40q41 -2 69.5 -7.5t76.5 -19.5q33 43 77 43q31 0 55.5 -25.5t24.5 -70.5v-629q0 -18 2 -33.5t4 -27.5q4 -10 6.5 -19.5t6.5 -19.5q10 -25 36.5 -50.5t73.5 -25.5t78 29.5t47 62.5 q20 41 40 113.5t20 181.5q0 141 -49.5 266t-135.5 219t-201.5 149.5t-250.5 55.5t-251 -55.5t-201 -149.5t-134 -219t-49 -266q0 -139 49 -265t134 -220.5t201 -149.5t251 -55q23 0 56.5 2t55.5 6q49 6 72 -19.5t27 -54.5q4 -33 -10.5 -64.5t-73.5 -39.5q-25 -4 -65 -7 t-62 -3q-170 0 -320.5 68.5t-263.5 186t-177.5 276.5t-64.5 339zM637 762q0 -70 22.5 -131.5t63.5 -108.5t98.5 -74.5t124.5 -27.5q37 0 70.5 9t68.5 50q-4 16 -5 27.5t-3 21.5v41v498q-41 16 -66.5 24.5t-64.5 6.5q-72 0 -128 -27t-96 -72t-61.5 -106.5t-23.5 -130.5z" />
<glyph unicode="A" horiz-adv-x="1419" d="M59 53q0 10 3.5 19.5t3.5 13.5q2 6 11 29.5t22.5 55.5t28.5 71t32 80q37 94 82 206q-66 0 -84.5 29t-18.5 61q0 33 24.5 60t86.5 27h67l326 825q16 37 40 65.5t81 28.5q59 0 80.5 -31.5t38.5 -72.5l467 -1401q11 -32 11 -58q0 -28 -13 -50q-24 -40 -79 -40h-5 q-41 0 -61.5 23.5t-35.5 64.5l-159 469h-570l-196 -489q-8 -12 -15.5 -24.5t-17.5 -22.5t-27.5 -15.5t-46.5 -5.5q-33 0 -54.5 26t-21.5 56zM510 705h438l-200 612z" />
<glyph unicode="B" horiz-adv-x="1341" d="M150 301v1182q0 41 23.5 75.5t76.5 34.5q33 0 50 -16t22 -39q23 12 59.5 21.5t76.5 16.5t80 11t70 4q123 0 225.5 -29.5t176 -83t114.5 -130t41 -170.5q0 -111 -48 -198t-126 -130q129 -51 194.5 -155.5t65.5 -258.5q0 -127 -54 -216t-145 -144.5t-212 -81t-254 -25.5 q-66 0 -123 3t-129 26q-57 18 -93 53t-56.5 78t-27.5 88t-7 84zM346 322q0 -96 55.5 -133t182.5 -37q88 0 174 15t153.5 51t108.5 94.5t41 144.5q0 66 -24.5 112.5t-64.5 78.5t-91.5 50.5t-105.5 27.5t-105.5 12t-89.5 3h-99.5t-134.5 -14v-405zM346 926q33 -6 69 -9.5 t67.5 -3.5h57h40.5q49 0 119.5 8.5t134 36t108.5 79t45 139.5q0 51 -28.5 95t-80 74.5t-120 48t-148.5 17.5q-68 0 -142.5 -15.5t-121.5 -35.5v-434z" />
<glyph unicode="C" horiz-adv-x="1300" d="M63 760q0 221 54.5 380.5t145.5 262t209 152t241 49.5q100 0 195.5 -37t168 -98.5t116.5 -143.5t44 -172q0 -49 -31.5 -75.5t-68.5 -28.5h-5q-34 -1 -64 23q-32 26 -32 81q0 25 -18.5 70t-59 89t-105.5 76.5t-157 32.5q-90 0 -168.5 -44t-138 -128t-94.5 -206.5 t-35 -282.5q0 -162 35 -277.5t98.5 -189.5t153.5 -110t201 -36q92 0 153.5 29t95.5 47q29 17 54 17q13 0 25 -4q36 -12 54 -44q12 -22 12 -47q0 -10 -2 -21q-7 -38 -48 -65q-27 -16 -57.5 -32.5t-72.5 -28.5t-99.5 -20.5t-135.5 -8.5q-66 0 -139.5 10.5t-147 40t-141.5 84 t-120 142.5t-84 214t-32 300z" />
<glyph unicode="D" horiz-adv-x="1474" d="M139 322v1155q0 47 22.5 80.5t69.5 33.5q41 0 57.5 -15t22.5 -38q61 33 148.5 43t169.5 10q170 0 304 -72.5t226 -189.5t141.5 -265t49.5 -302q0 -178 -56.5 -324.5t-160 -250t-248 -161t-322.5 -57.5q-92 0 -170 15.5t-134 55.5t-88 108.5t-32 173.5zM336 297 q0 -55 28.5 -86t70.5 -45t91 -17.5t90 -3.5q117 0 216.5 46.5t170 128t110.5 193.5t40 245q0 129 -36 248.5t-103.5 211t-165.5 146.5t-223 55q-72 0 -147 -12t-142 -47v-1063z" />
<glyph unicode="E" horiz-adv-x="1320" d="M100 782q0 33 19.5 56.5t62.5 33.5v572q0 72 34 101.5t101 29.5h793q121 0 121 -94q0 -47 -31 -65.5t-90 -18.5h-729v-525h635q47 0 83 -24.5t36 -69.5q0 -47 -35 -65.5t-84 -18.5h-635v-305q0 -66 18.5 -107.5t51 -64t73.5 -31t88 -8.5h486q47 0 83 -20.5t36 -65.5 t-36 -68.5t-83 -23.5h-551q-55 0 -118.5 14.5t-118 50t-90.5 96t-36 152.5q-2 43 -2 101v278q-41 10 -61.5 34t-20.5 56z" />
<glyph unicode="F" horiz-adv-x="1249" d="M100 782q0 72 82 90v449q0 143 66.5 198.5t173.5 55.5h680q47 0 77.5 -23.5t30.5 -70.5t-30.5 -65.5t-77.5 -18.5h-615q-37 0 -70.5 -29t-33.5 -96v-402h594q47 0 78.5 -20.5t31.5 -67.5t-31.5 -66.5t-78.5 -19.5h-594v-639q0 -43 -29.5 -65.5t-70.5 -22.5 q-39 0 -70 22.5t-31 67.5v635q-41 8 -61.5 32t-20.5 56z" />
<glyph unicode="G" horiz-adv-x="1458" d="M109 778q0 150 35.5 297.5t119.5 265t222.5 191.5t342.5 74q61 0 106.5 -5.5t80.5 -12.5t60.5 -15t45.5 -17q49 -20 64 -56q9 -20 9 -39q0 -14 -5 -27q-12 -31 -48 -46q-15 -7 -33 -7q-25 0 -54 12q-41 12 -90.5 21t-137.5 9q-125 0 -222 -45t-163.5 -129t-101.5 -203.5 t-35 -267.5q0 -137 40 -250.5t104.5 -194.5t147.5 -125t171 -44q76 0 150.5 32.5t128 98t77.5 165.5q10 47 10 102q0 62 -14 134h-467q-57 0 -87.5 22.5t-30.5 59.5q0 39 31.5 66.5t86.5 27.5h621q61 0 84.5 -26.5t23.5 -67.5q0 -18 -15 -40.5t-42 -30.5q11 -71 11 -136 q0 -100 -26 -183q-42 -138 -126 -232.5t-194.5 -141.5t-221.5 -47q-135 0 -255 61.5t-210 169t-142 256t-52 324.5z" />
<glyph unicode="H" horiz-adv-x="1409" d="M100 780q0 29 21.5 56.5t71.5 31.5v619q0 55 29.5 87t68.5 32q37 0 66.5 -32t29.5 -87v-615h719v615q0 55 29.5 87t66.5 32q39 0 68.5 -32t29.5 -87v-1399q0 -55 -29.5 -87t-68.5 -32q-37 0 -66.5 32t-29.5 87v608h-719v-608q0 -55 -29.5 -87t-66.5 -32q-39 0 -68.5 32 t-29.5 87v610q-49 6 -71 28t-22 54z" />
<glyph unicode="I" horiz-adv-x="1050" d="M86 90q0 37 26.5 61.5t84.5 24.5h223v1221h-213q-57 0 -84 24.5t-27 61.5t27 64.5t84 27.5h637q57 0 83.5 -27.5t26.5 -64.5t-26.5 -61.5t-83.5 -24.5h-228v-1221h238q57 0 84 -24.5t27 -61.5q0 -35 -28 -62.5t-83 -27.5h-657q-57 0 -84 27.5t-27 62.5z" />
<glyph unicode="J" horiz-adv-x="1329" d="M70 520q0 113 96 113q37 0 63 -27q31 -31 31 -80q0 -86 31 -157.5t76 -114.5q49 -49 108.5 -78t130.5 -29q96 0 165 37t116 103q108 151 108 502v6v512q0 90 -75 90h-291q-127 0 -209 -37q-23 -10 -51 -10q-41 0 -61.5 25.5t-20.5 58.5q0 35 21.5 57t62.5 43 q41 18 102.5 29.5t116.5 11.5h434q168 0 168 -164v-616q0 -436 -160 -633q-76 -94 -189.5 -144.5t-269.5 -50.5q-207 4 -356 160q-76 80 -111.5 178t-35.5 215z" />
<glyph unicode="K" horiz-adv-x="1261" d="M119 784q0 51 45 82v639q0 41 27.5 69t68.5 28h2q41 0 69.5 -28t28.5 -69v-528l611 592q31 29 75 31h6q40 0 62 -25q22 -24 22 -58v-14q-6 -43 -34 -71l-656 -635l703 -658q33 -31 33 -72q0 -35 -27 -63q-25 -27 -61 -27q-2 1 -6 1q-40 2 -72 30l-656 608v-550 q0 -41 -28.5 -69t-69.5 -28h-2q-41 0 -68.5 28t-27.5 69v636q-45 29 -45 82z" />
<glyph unicode="L" horiz-adv-x="1165" d="M100 92q0 57 66 86v1329q0 41 27.5 70t68.5 29t69.5 -29t28.5 -70v-1323h658q41 0 69.5 -27.5t28.5 -64.5q0 -39 -28.5 -65.5t-69.5 -26.5h-819q-53 0 -76 26.5t-23 65.5z" />
<glyph unicode="M" horiz-adv-x="1806" d="M90 94l340 1438q8 35 35 54.5t61 19.5q76 0 95 -74l282 -1120l281 1120q10 39 37.5 56.5t66.5 17.5q35 0 58.5 -20.5t31.5 -53.5l344 -1446q3 -12 3 -24q0 -26 -15 -48q-22 -32 -63 -43q-12 -3 -24 -3q-25 0 -48 14q-33 22 -43 61l-258 1092l-277 -1090 q-8 -35 -34.5 -55.5t-59.5 -20.5q-35 0 -60.5 20.5t-35.5 55.5l-275 1081l-253 -1075q-10 -41 -44 -65q-25 -18 -55 -17q-10 0 -20 2q-40 10 -60 47q-14 25 -13 51q0 12 3 25z" />
<glyph unicode="N" horiz-adv-x="1470" d="M139 68v1439q0 47 29 72t68 25q23 0 44 -9.5t31 -25.5l826 -1229v1169q0 41 27.5 69t68.5 28t68.5 -28t27.5 -69l2 -1441q0 -47 -29.5 -73t-68.5 -26q-53 0 -84 43l-815 1219v-1163q0 -41 -27.5 -70t-68.5 -29t-70 29t-29 70z" />
<glyph unicode="O" horiz-adv-x="1658" d="M109 778q0 174 56 324.5t153.5 262.5t228.5 176.5t282 64.5q152 0 283 -64.5t228.5 -176.5t153.5 -262.5t56 -324.5t-56 -321.5t-153.5 -256t-228.5 -170t-283 -61.5t-282.5 61.5t-228 170t-153.5 256t-56 321.5zM303 780q0 -131 39 -244.5t107.5 -197.5t166 -132 t213.5 -48q117 0 214.5 48t167 132t108.5 197.5t39 244.5q0 129 -39 245t-108.5 203t-167 138t-214.5 51t-214 -51t-165.5 -138t-107.5 -203t-39 -245z" />
<glyph unicode="P" horiz-adv-x="1304" d="M150 68v1411q0 51 25.5 81.5t72.5 30.5q18 0 39.5 -10t31.5 -31q57 20 116 29.5t116 9.5q125 0 246 -33.5t215 -102.5t151.5 -171.5t57.5 -239.5q0 -139 -55.5 -238t-146.5 -162.5t-208 -94.5t-240 -31q-53 0 -113.5 3t-111.5 20v-471q0 -45 -29.5 -72t-72.5 -27 q-41 0 -67.5 29t-26.5 70zM346 721q49 -16 115.5 -22.5t126.5 -6.5q76 0 154.5 18.5t143 60.5t104.5 110t40 166q0 104 -44 174.5t-114.5 113.5t-156.5 60.5t-170 17.5q-41 0 -96.5 -11t-102.5 -30v-651z" />
<glyph unicode="Q" horiz-adv-x="1755" d="M98 784q0 172 64.5 321.5t172 260.5t248 175.5t289.5 64.5q150 0 289 -64.5t247 -175.5t172.5 -260.5t64.5 -321.5q0 -145 -48.5 -275t-134.5 -241l162 -176q25 -25 25 -59v-9q-4 -40 -33 -65q-24 -19 -55 -19h-12q-38 5 -66 35l-152 164q-106 -82 -222 -125t-237 -43 q-150 0 -290 62.5t-247.5 172t-172 258t-64.5 320.5zM291 784q0 -129 48 -243.5t128 -199.5t185.5 -135t219.5 -50q170 0 334 123l-370 411q-25 25 -25 59v10q4 40 33 62q25 22 56 22q5 0 10 -1q38 -4 67 -35l356 -397q59 90 90 182t31 192q0 129 -48 245t-128 203 t-185.5 137t-220.5 50t-220 -50t-185 -137t-128 -203t-48 -245z" />
<glyph unicode="R" horiz-adv-x="1341" d="M150 68v1417q0 37 10 57.5t25.5 31.5t30.5 14t28 3q55 0 75 -43q37 16 99.5 29.5t116.5 13.5q150 0 276.5 -33.5t216.5 -97t141.5 -153.5t51.5 -203q0 -104 -38 -183t-97.5 -134.5t-135.5 -90t-149 -51.5l434 -508q33 -38 33 -71q0 -4 -1 -9q-5 -37 -34 -65 q-23 -23 -56 -23q-6 0 -12 1q-41 5 -69 38l-510 610q-21 -1 -43 -1q-37 1 -73 3q-58 4 -126 15v-567q0 -41 -26.5 -70t-67.5 -29h-6q-41 0 -67.5 29t-26.5 70zM344 821q45 -10 71.5 -14t49.5 -6q-15 25 -15 49q0 8 1 14q6 30 24 45q21 17 46 17q9 0 19 -2q36 -8 64 -41 l70 -82q57 4 119.5 21.5t115 53t86 92t33.5 136.5q0 104 -52 165.5t-127 93.5t-157 40t-139 8q-41 0 -102.5 -10t-106.5 -31v-549z" />
<glyph unicode="S" horiz-adv-x="1409" d="M129 1149q0 119 41 205t112.5 142t171 82t216.5 26q129 0 231.5 -40t175 -98.5t111.5 -125t39 -121.5q0 -70 -78 -89q-10 -2 -20 -2q-27 0 -52 16q-35 22 -49 62q-8 27 -36.5 63t-74 68.5t-105.5 56t-134 23.5q-61 0 -122.5 -15.5t-111 -47t-79 -82.5t-29.5 -121 q0 -74 50 -124t118.5 -81t140.5 -46t119 -21q125 -18 223 -50t167 -84.5t105.5 -129.5t36.5 -181q0 -123 -52 -211t-137 -144t-192.5 -83t-218.5 -27q-59 0 -123.5 4t-128 18.5t-123 38t-106.5 64.5q-18 16 -36.5 38t-18.5 46q0 37 25.5 71t72.5 34q27 0 38 -7.5t23 -15.5 q43 -25 81 -42t77 -29.5t81 -19.5t93 -9h39q61 0 133 15t132.5 48t100.5 84t40 123q0 76 -44 124t-112 78t-146.5 45t-146.5 25q-90 12 -181 41t-167 81.5t-123 131t-47 193.5z" />
<glyph unicode="T" horiz-adv-x="1312" d="M25 1481q0 39 27.5 66.5t68.5 27.5h1069q41 0 69.5 -27.5t28.5 -66.5t-28.5 -65.5t-69.5 -26.5h-434v-1321q0 -41 -29 -70t-70 -29t-68.5 29t-27.5 70v1321h-440q-41 0 -68.5 26.5t-27.5 65.5z" />
<glyph unicode="U" horiz-adv-x="1515" d="M139 584v923q0 45 25.5 72t73.5 27q53 0 74.5 -27t21.5 -74v-921q0 -86 34.5 -161t94 -130t137.5 -88t164 -33t161.5 33t133 88t91.5 130t34 161v923q0 45 27.5 72t70.5 27q41 0 67.5 -29t26.5 -70v-923q0 -127 -48 -240t-131 -195.5t-194.5 -131t-238.5 -48.5 q-129 0 -242.5 48.5t-198.5 132t-134.5 195.5t-49.5 239z" />
<glyph unicode="V" horiz-adv-x="1329" d="M66 1481q-6 15 -6 30q0 21 12 43q20 36 59 45q13 3 26 3q24 0 47 -12q34 -19 48 -58l414 -1190l413 1190q14 38 48 58q22 12 46 13q13 0 27 -4q40 -9 60 -45q12 -21 12 -43q0 -15 -6 -30l-498 -1440q-12 -33 -40 -52.5t-62 -19.5q-35 0 -63 19.5t-38 52.5z" />
<glyph unicode="W" horiz-adv-x="2101" d="M59 1509q0 41 29 69t68 28q33 0 58.5 -20.5t35.5 -51.5l360 -1206l348 1206q12 41 41 56.5t54 15.5q31 0 55.5 -17.5t34.5 -52.5l348 -1208l362 1206q10 31 35 51.5t58 20.5q41 0 68.5 -28t27.5 -69q0 -10 -17.5 -71.5t-46 -158.5t-66.5 -220t-79 -254q-41 -129 -80 -254 t-70.5 -229.5t-55 -179t-32.5 -101.5q-10 -33 -39.5 -52.5t-64.5 -19.5t-63.5 19.5t-38.5 52.5l-338 1130l-336 -1130q-10 -33 -40 -52.5t-65 -19.5t-64.5 19.5t-39.5 52.5q-8 27 -31.5 101.5t-55.5 179t-72 229.5t-79 254q-41 131 -77.5 254t-66.5 220t-47.5 158.5 t-17.5 71.5z" />
<glyph unicode="X" horiz-adv-x="1449" d="M71 54q-1 7 -1 13q0 31 20 58l514 674l-495 651q-19 27 -19 58q0 7 1 14q5 39 38 63q27 20 58 20q7 -1 14 -1q39 -6 63 -37l461 -609l463 609q26 33 64 38q6 1 12 1q31 0 59 -21q33 -25 38 -63q1 -7 1 -14q0 -31 -19 -58l-495 -651l514 -674q20 -27 20 -58v-14 q-6 -39 -39 -63q-28 -21 -60 -21q-7 0 -13 1q-40 5 -64 38l-481 631l-479 -631q-25 -33 -65 -38q-7 -1 -13 -1q-32 0 -59 21q-33 26 -38 64z" />
<glyph unicode="Y" horiz-adv-x="1333" d="M64 1535q12 38 49 58q21 11 43 11q15 0 30 -5q39 -12 60 -47l420 -731l421 731q20 35 59 48q15 4 30 4q22 0 43 -11q37 -18 51 -55q6 -15 6 -30q0 -21 -12 -42l-498 -878v-520q0 -41 -27.5 -70t-68.5 -29t-72 29t-31 70v520l-495 874q-12 22 -12 45q0 14 4 28z" />
<glyph unicode="Z" horiz-adv-x="1363" d="M59 90q0 39 23 68l917 1228h-821q-41 0 -69.5 27t-28.5 68q0 39 28.5 66.5t69.5 27.5l1030 -2q53 0 70.5 -25.5t17.5 -60.5q0 -16 -7 -34.5t-17 -33.5l-907 -1233h843q41 0 70 -26.5t29 -67.5q0 -39 -29 -65.5t-70 -26.5h-1050q-41 0 -70 22.5t-29 67.5z" />
<glyph unicode="[" horiz-adv-x="770" d="M178 -330v1755v7v4q-2 35 24.5 60.5t65.5 25.5h310q37 0 63.5 -26t26.5 -60q0 -35 -27 -60.5t-63 -25.5h-226v-1596h246q39 0 64.5 -25.5t25.5 -60.5t-25.5 -60.5t-64.5 -25.5h-330q-37 0 -63.5 25.5t-26.5 60.5v2z" />
<glyph unicode="\" horiz-adv-x="1046" d="M87 1599.5q7 36.5 38 53.5q29 14 64.5 -3.5t54.5 -58.5l725 -1560q18 -41 11 -78t-38 -53q-29 -14 -64.5 3t-54.5 58l-725 1561q-18 41 -11 77.5z" />
<glyph unicode="]" horiz-adv-x="770" d="M178 -332q0 35 26.5 60.5t63.5 25.5h246v1596h-225q-37 0 -63.5 25.5t-26.5 60.5t26.5 60.5t63.5 25.5h309q39 0 65.5 -25.5t24.5 -60.5v-4v-7v-1755v-2q0 -35 -25.5 -60.5t-64.5 -25.5h-330q-37 0 -63.5 25.5t-26.5 60.5z" />
<glyph unicode="^" horiz-adv-x="1208" d="M225 1161q0 23 11.5 45.5t27.5 38.5l275 246q23 18 38 29.5t41 11.5q27 0 43.5 -11.5t36.5 -29.5l269 -246q18 -16 30.5 -38.5t12.5 -45.5q0 -37 -26 -60.5t-64 -23.5q-33 0 -51.5 10.5t-37.5 26.5l-213 184l-217 -184q-20 -16 -38.5 -25.5t-40.5 -9.5q-41 0 -69 22.5 t-28 59.5z" />
<glyph unicode="_" horiz-adv-x="1085" d="M-59 -248q0 41 25.5 66.5t66.5 25.5h1032q41 0 66.5 -25.5t25.5 -66.5t-25.5 -65.5t-66.5 -24.5h-1032q-41 0 -66.5 24.5t-25.5 65.5z" />
<glyph unicode="`" horiz-adv-x="1179" d="M385 1357.5q-12 28.5 0 57.5q16 31 45 41t68 -6l286 -131q41 -16 54.5 -46t3.5 -59q-12 -33 -45 -41t-72 9l-287 131q-41 16 -53 44.5z" />
<glyph unicode="a" d="M94 508q2 117 44 215t114 169t170 109.5t211 38.5q41 0 95 -13t85 -30q8 20 26.5 33.5t53.5 13.5q82 0 82 -92v-596q0 -53 9 -109.5t30 -94.5q14 -29 25.5 -53.5t11.5 -49.5q0 -37 -29 -63.5t-61 -26.5q-47 0 -69 23.5t-32 42.5q-18 -10 -49 -20.5t-62.5 -19t-63.5 -13.5 t-52 -5q-113 0 -211 36t-171 105.5t-115 170t-42 229.5zM270 508q0 -80 27 -148.5t75 -120t114.5 -81t146.5 -29.5q49 0 98 15.5t82 29.5q-8 29 -11 58.5t-3 46.5v552q-33 18 -80 32t-86 14q-80 0 -146.5 -28t-114.5 -77t-75 -116.5t-27 -147.5z" />
<glyph unicode="b" horiz-adv-x="1202" d="M139 66v1447q0 39 27 65t63 26q39 0 63.5 -26t24.5 -65v-1296q57 -47 136 -65.5t145 -18.5q82 0 143.5 33t102.5 85t62.5 117.5t21.5 133.5q0 74 -20.5 140.5t-57.5 118.5t-88 82.5t-109 30.5q-20 0 -32.5 -2t-22.5 -3t-20.5 -3t-24.5 -2q-31 -2 -54.5 21.5t-23.5 56.5 q0 68 48 83t122 15q98 0 183 -36.5t148.5 -106.5t99.5 -168t36 -223q0 -121 -35 -219.5t-99.5 -169t-155.5 -109.5t-206 -39q-78 2 -157.5 11.5t-147.5 54.5q-14 -49 -37.5 -57.5t-48.5 -8.5q-86 0 -86 97z" />
<glyph unicode="c" horiz-adv-x="1046" d="M86 494q0 104 38 202.5t105.5 175t161.5 122.5t205 46q92 0 185 -25.5t165 -88.5q16 -14 25.5 -30.5t9.5 -39.5q0 -33 -22.5 -54.5t-57.5 -21.5q-20 0 -39 13q-37 25 -66.5 40t-58 24t-61.5 12t-78 3q-82 0 -143.5 -30.5t-103.5 -81.5t-62.5 -121t-20.5 -145 q0 -63 25.5 -127t72 -116t108 -85t132.5 -33q53 0 96 5t95 22q6 4 19 7t20 3q35 0 59.5 -21.5t24.5 -62.5q0 -47 -39 -70.5t-91.5 -34t-106.5 -10.5h-87q-104 0 -197.5 38t-163 107.5t-109.5 166t-40 211.5z" />
<glyph unicode="d" horiz-adv-x="1187" d="M80 506q0 113 42 210t113.5 168.5t170 112.5t212.5 41q76 0 136.5 -13t115.5 -48v532q0 39 26 67t62 28q39 0 65 -28t26 -67v-1454q0 -37 -26 -61.5t-65 -24.5q-33 0 -56 20.5t-28 51.5q-35 -23 -64.5 -37t-59 -21.5t-61.5 -10.5t-71 -3q-115 0 -213 39t-169.5 109.5 t-113.5 169t-42 219.5zM262 506q0 -86 26.5 -155.5t74 -118t113 -74t142.5 -25.5q66 0 131.5 20.5t120.5 65.5v567q-45 41 -110.5 66t-141.5 25q-80 0 -145 -29t-112.5 -78t-73 -116.5t-25.5 -147.5z" />
<glyph unicode="e" horiz-adv-x="1179" d="M94 487q0 111 38 210.5t105.5 176t163 121.5t209.5 45q113 0 202 -39.5t150.5 -108.5t94.5 -163t33 -203q0 -47 -38 -71.5t-79 -24.5h-688q18 -86 57 -142.5t86 -91t96 -49t90 -14.5q59 0 97.5 6t63 12.5t39.5 12.5t32 6q35 0 58.5 -22.5t23.5 -57.5q0 -47 -40 -71.5 t-93.5 -35t-108.5 -12.5t-88 -2q-109 0 -201 41t-159.5 112t-105.5 165t-38 200zM289 594h622q0 49 -21.5 100t-61.5 91t-94 64.5t-122 24.5q-74 0 -132 -25.5t-99 -65.5t-64.5 -90t-27.5 -99z" />
<glyph unicode="f" horiz-adv-x="927" d="M70 956q0 35 22.5 58.5t63.5 23.5h135v131q0 205 101.5 305.5t266.5 100.5h156q41 0 64.5 -22.5t23.5 -59.5q0 -82 -78 -82h-4h-133q-61 0 -102 -22.5t-66.5 -57.5t-37 -77t-11.5 -80v-136h317q41 0 65 -23.5t24 -58.5q0 -33 -24 -56t-65 -23h-317v-809q0 -41 -26.5 -70 t-61.5 -29t-63.5 29t-28.5 70v809h-135q-41 0 -63.5 23.5t-22.5 55.5z" />
<glyph unicode="g" d="M72 496q0 117 46 216t125 171.5t181 113.5t217 41q41 0 97.5 -11t101.5 -30q23 47 80 47q43 0 63.5 -26.5t20.5 -73.5v-1098q0 -139 -48.5 -218t-122 -116.5t-162.5 -46t-171 -8.5q-84 0 -156 13.5t-111 31.5q-41 20 -48 54t1 59q6 23 34 39q16 9 36 9q14 0 31 -5 q16 -4 42.5 -10t56.5 -12.5t59.5 -10.5t52.5 -4h34q61 0 115.5 8.5t93.5 32t61.5 67.5t22.5 115v158q-25 -10 -43 -15t-41 -10q-20 -4 -42.5 -6t-57.5 -2q-115 0 -218.5 35t-182 101.5t-124.5 164.5q-44 95 -44 215v11zM252 496q0 -80 30.5 -146.5t84 -116t124 -77 t150.5 -27.5q41 0 93 11.5t95 27.5v661q-41 20 -94 34t-94 14q-80 0 -151.5 -30t-124 -81t-83 -121t-30.5 -149z" />
<glyph unicode="h" horiz-adv-x="1177" d="M139 59v1446q0 41 27 70t61 29q35 0 61.5 -29t26.5 -70v-530q61 41 121 52t99 11q246 0 382 -132t136 -384v-459q0 -41 -27 -67.5t-61 -26.5q-35 0 -61.5 27t-26.5 67v408q0 82 -19.5 155.5t-59.5 129t-102.5 87t-148.5 31.5q-53 0 -112.5 -16t-119.5 -61v-738 q0 -41 -26.5 -65.5t-61.5 -24.5t-61.5 24.5t-26.5 65.5z" />
<glyph unicode="i" horiz-adv-x="552" d="M150 1380q0 53 36.5 90t89.5 37t90 -37t37 -90t-36.5 -89t-90.5 -36q-53 0 -89.5 36t-36.5 89zM176 80v860q0 41 31 69.5t67 28.5q41 0 72 -28.5t31 -69.5v-860q0 -45 -26.5 -78t-76.5 -33q-47 0 -72.5 33t-25.5 78z" />
<glyph unicode="j" horiz-adv-x="585" d="M-180 -526v8q0 76 117 84q53 4 100 30.5t83 73.5t56.5 113.5t20.5 150.5v1008q0 41 30.5 69.5t67.5 28.5t68.5 -28.5t31.5 -69.5v-1018q0 -119 -36.5 -215t-97 -164.5t-139.5 -105.5t-161 -37h-33h-20q-41 0 -62.5 19.5t-25.5 52.5zM168 1380q0 53 37 90t90 37t89 -37 t36 -90t-36 -89t-89 -36t-90 36t-37 89z" />
<glyph unicode="k" horiz-adv-x="1011" d="M129 68v1441q0 41 25.5 67t64.5 26q41 0 64.5 -26t23.5 -67v-819l78 -78l401 404q34 34 67 34h2q34 -1 56 -18q25 -20 28 -57v-6q0 -34 -32 -66l-405 -403l377 -377q35 -37 35 -66q0 -30 -19 -59q-8 -12 -22.5 -20.5t-32.5 -9.5h-4q-16 0 -32 6q-20 8 -38 24l-459 459 v-389q0 -41 -23.5 -70t-64.5 -29t-65.5 29t-24.5 70z" />
<glyph unicode="l" horiz-adv-x="571" d="M172 350v1155q0 41 27.5 70t68.5 29t67.5 -29t26.5 -70v-1120q0 -102 24.5 -166.5t47.5 -95.5q18 -27 20 -55q0 -5 1 -9q1 -21 -9 -39q-12 -22 -33.5 -36.5t-45.5 -14.5q-47 0 -73 27t-54 63q-23 33 -45.5 106t-22.5 185z" />
<glyph unicode="m" horiz-adv-x="1632" d="M129 68v882q0 55 29.5 72.5t62.5 17.5q41 0 61.5 -24.5t20.5 -63.5q23 25 54.5 42.5t63.5 27.5t60.5 14t46.5 4q115 0 189 -32.5t117 -87.5q70 68 135 93t139 25q193 0 294 -111.5t101 -361.5v-502q0 -41 -25.5 -67.5t-60.5 -26.5t-60.5 27t-25.5 67v480q0 162 -47 245.5 t-174 83.5q-61 0 -119.5 -34.5t-93.5 -73.5q6 -35 9 -64.5t3 -58.5v-25.5v-18.5v-20.5v-31.5v-482q0 -41 -25.5 -67.5t-60.5 -26.5t-61.5 27t-26.5 67v480q0 80 -7 141t-29.5 103t-67.5 63.5t-119 21.5q-57 0 -107.5 -20.5t-101.5 -81.5v-702q0 -41 -25.5 -70t-60.5 -29 t-61.5 29t-26.5 70z" />
<glyph unicode="n" horiz-adv-x="1091" d="M129 68v880q0 45 25.5 67.5t68.5 22.5q41 0 62.5 -24.5t21.5 -65.5q37 41 100.5 65.5t141.5 24.5q215 0 314.5 -118.5t99.5 -337.5v-519q0 -39 -25 -66.5t-64 -27.5t-63.5 28t-24.5 66l2 459q0 66 -7 128.5t-32.5 111.5t-73.5 79.5t-128 30.5q-68 0 -130.5 -25.5 t-109.5 -78.5v-700q0 -37 -24.5 -68t-63.5 -31q-41 0 -65.5 31t-24.5 68z" />
<glyph unicode="o" horiz-adv-x="1157" d="M100 504q0 119 37 218t101.5 170t151.5 110.5t190 39.5q102 0 189 -39.5t151.5 -110.5t101.5 -170t37 -218t-37 -216.5t-101.5 -168t-151.5 -109.5t-189 -39t-189.5 39t-152 109.5t-101.5 168t-37 216.5zM276 494q0 -76 20.5 -141.5t59.5 -115t95.5 -77t128.5 -27.5 t128 27.5t95 77t59.5 115t20.5 141.5t-20.5 145.5t-59.5 121.5t-95.5 84t-127.5 32q-72 0 -128.5 -31t-95.5 -84t-59.5 -123t-20.5 -145z" />
<glyph unicode="p" horiz-adv-x="1202" d="M139 -510v1450q0 41 20.5 70.5t65.5 29.5q35 0 58.5 -22.5t27.5 -56.5q68 45 147 62t158 17q119 0 211.5 -42t156 -114.5t96 -171.5t32.5 -212q0 -109 -29.5 -205t-88 -170t-146.5 -117t-203 -43q-27 0 -55.5 2t-51 11.5t-38 29t-15.5 53.5q0 33 22.5 56.5t55.5 23.5 q23 0 45.5 -5t44.5 -5q70 0 122 36t86 90t50.5 119.5t16.5 125.5q0 72 -22.5 140.5t-64.5 120.5t-103.5 84t-139.5 32q-66 0 -146.5 -25t-134.5 -66v-1298q0 -37 -24.5 -62.5t-63.5 -25.5q-37 0 -63.5 25.5t-26.5 62.5z" />
<glyph unicode="q" horiz-adv-x="1193" d="M80 506q0 113 42 210t113.5 169.5t170 113.5t212.5 41q92 0 155 -17t110 -50q6 37 29.5 56.5t58.5 19.5q37 0 61.5 -21.5t24.5 -60.5v-1151q0 -111 21 -171.5t46 -105.5q10 -20 12 -43v-7q0 -20 -8 -37q-10 -21 -27.5 -35.5t-43.5 -14.5q-35 0 -62.5 22.5t-52.5 63.5 q-27 49 -45 122t-18 171v250q-59 -35 -122 -48.5t-139 -13.5q-115 0 -213 40t-169.5 110.5t-113.5 169t-42 217.5zM260 506q0 -80 25.5 -148.5t74 -119t114 -79t144.5 -28.5q76 0 144 22.5t117 69.5v568q-98 90 -261 90q-80 0 -146 -28t-112.5 -79t-73 -119.5t-26.5 -148.5z " />
<glyph unicode="r" horiz-adv-x="888" d="M129 68v880q0 53 29.5 71.5t62.5 18.5q39 0 61.5 -19.5t22.5 -72.5v-43q35 47 81 76t92 45t90 21.5t77 5.5q53 0 91 -9.5t61 -19.5q51 -24 62 -60q4 -14 4 -29q0 -20 -9 -38q-12 -23 -39 -36q-11 -5 -23 -5q-19 0 -44 12q-41 20 -105 21q-51 0 -106.5 -24.5t-102.5 -64.5 t-82 -92.5t-47 -107.5v-530q0 -41 -26.5 -70t-61.5 -29t-61.5 29t-26.5 70z" />
<glyph unicode="s" horiz-adv-x="1040" d="M106 741q0 80 37 137.5t96.5 93.5t132 53t140.5 17q49 0 105.5 -11t108.5 -33.5t94 -59.5t61 -88q8 -16 8 -41q0 -35 -22.5 -53.5t-55.5 -18.5q-27 0 -41 11.5t-26.5 28t-27 34.5t-40 34.5t-64.5 27t-100 10.5q-31 0 -71 -6.5t-74.5 -21.5t-59 -43t-24.5 -69 q0 -47 22.5 -74.5t57 -44t77.5 -23.5t84 -9q74 -6 150 -22.5t137 -50.5t100 -91t39 -145q0 -94 -39 -154.5t-101 -96.5t-141 -50.5t-157 -14.5q-33 0 -95.5 5t-125 21.5t-108.5 45.5t-46 78q0 29 20.5 54.5t51.5 25.5q20 0 43 -7q39 -10 67.5 -21t55 -20.5t58.5 -14.5t79 -5 q39 0 84 6t84 21.5t65.5 44t26.5 73.5q0 49 -27.5 79t-68.5 47.5t-89 23.5t-91 10q-74 6 -144.5 22.5t-125 50.5t-87.5 90t-33 144z" />
<glyph unicode="t" horiz-adv-x="804" d="M66 961q0 33 28.5 57t71.5 24h94v256q0 41 26.5 70t61.5 29q37 0 63.5 -29t26.5 -70v-256h201q43 0 71.5 -24.5t28.5 -56.5q0 -35 -28.5 -57.5t-71.5 -22.5h-203v-539q0 -92 41 -148.5t137 -60.5h35q35 -2 62.5 -22.5t27.5 -49.5q0 -35 -24.5 -62.5t-65.5 -27.5h-61 q-84 0 -145.5 29t-101.5 77t-60.5 109.5t-20.5 128.5v564h-94q-43 0 -71.5 23.5t-28.5 58.5z" />
<glyph unicode="u" horiz-adv-x="1097" d="M129 430v524q0 41 26.5 65.5t63.5 24.5q35 0 61.5 -24.5t26.5 -65.5v-448q0 -80 10.5 -148.5t38 -118t77.5 -78t132 -28.5q51 0 86 3t61.5 8.5t47 13.5t43.5 18q-10 20 -13.5 52t-3.5 48v672q0 41 27 68.5t61 27.5q35 0 62 -27.5t27 -68.5v-590q0 -88 16 -146.5 t47 -111.5q12 -24 12 -46v-6q-2 -25 -13 -44.5t-31.5 -32t-43.5 -12.5q-41 0 -66.5 20.5t-35.5 47.5q-33 -14 -61.5 -25.5t-61.5 -19t-72 -10.5t-92 -3q-72 0 -147.5 16.5t-139 65.5t-104.5 140.5t-41 238.5z" />
<glyph unicode="v" horiz-adv-x="1009" d="M55 928q-6 16 -6 32q1 18 9 36q16 32 48 44q14 5 28 5l38 -9q33 -16 47 -51l287 -702l285 702q15 35 47 51q18 9 36 10q14 0 29 -6q35 -12 50 -44q8 -17 8 -35q0 -16 -7 -33l-362 -897q-10 -29 -35 -45.5t-51 -16.5q-29 0 -52.5 16.5t-35.5 45.5z" />
<glyph unicode="w" horiz-adv-x="1402" d="M49 965q0 35 22.5 58.5t59.5 23.5t59.5 -16.5t28.5 -41.5l201 -729l198 725q6 25 29 42t53 17q37 0 57.5 -16t28.5 -43l199 -725l199 727q8 29 32.5 44.5t57.5 15.5q35 0 57.5 -23.5t22.5 -58.5q0 -6 -1 -19.5t-7 -34.5l-238 -811q-16 -43 -25 -61q-14 -35 -45 -53 q-25 -14 -53 -15q-14 0 -23.5 3t-21.5 8q-14 8 -32.5 27.5t-22.5 37.5q-4 8 -13.5 40t-23.5 76t-30.5 98t-33.5 110q-39 127 -86 286q-47 -158 -84 -286q-16 -55 -31.5 -109.5t-28.5 -99.5t-23.5 -77t-12.5 -40q-14 -41 -47 -61q-18 -12 -51 -13q-33 0 -51 13 q-29 20 -43.5 45.5t-24.5 58.5l-242 823q-6 20 -8 33.5t-2 20.5z" />
<glyph unicode="x" horiz-adv-x="1093" d="M70 971q8 39 36 59q21 14 46 14q10 0 20 -2q37 -8 66 -43l309 -370l311 370q28 35 64 43q11 2 20 3q24 0 45 -15q29 -20 36 -59q1 -8 1 -16q0 -29 -20 -54l-345 -407l322 -385q21 -24 21 -53q0 -8 -2 -16q-8 -38 -35 -60q-21 -15 -46 -15q-9 1 -19 3q-36 8 -64 42 l-289 348l-289 -346q-28 -33 -64 -42q-11 -3 -21 -3q-23 0 -44 15q-29 22 -36 60q-1 8 -1 16q0 29 21 53l321 383l-344 407q-21 24 -21 53q-1 9 1 17z" />
<glyph unicode="y" horiz-adv-x="1173" d="M129 485v469q0 41 26.5 65.5t61.5 24.5q37 0 62.5 -24.5t25.5 -65.5v-417q0 -80 15.5 -156t50.5 -134.5t90 -93t135 -34.5q27 0 59.5 5t67.5 16.5t69.5 30.5t63.5 48v729q0 41 28.5 68.5t63.5 27.5t60.5 -27.5t25.5 -68.5v-1106q0 -117 -40 -191.5t-103.5 -117.5 t-142 -59.5t-158.5 -16.5q-74 0 -121 3t-82 8.5t-61.5 13.5t-57.5 18q-43 20 -51 56t0 59q10 25 38 40t62 5q27 -10 62 -17.5t69.5 -12.5t66.5 -7t52 -2q92 0 148.5 21.5t88.5 52.5t42 67.5t10 69.5v86v137q-25 -25 -59.5 -42t-69.5 -27.5t-67.5 -15.5t-51.5 -5 q-98 0 -185 23.5t-152.5 82t-103.5 160t-38 254.5z" />
<glyph unicode="z" horiz-adv-x="1064" d="M90 84q0 39 25 68l596 725h-518q-39 0 -65 21.5t-26 55.5q0 37 26 60.5t65 23.5h686q39 0 68.5 -23.5t29.5 -60.5q0 -33 -29 -67l-598 -725h537q39 0 63.5 -21.5t24.5 -56.5q0 -39 -26.5 -61.5t-61.5 -22.5h-688q-41 0 -75 23.5t-34 60.5z" />
<glyph unicode="{" horiz-adv-x="770" d="M4 570q0 40 28.5 73t90.5 33q49 0 62.5 42t15.5 91l10 477q0 55 20.5 114.5t59.5 109t97 81t138 31.5l84 -2q37 0 63.5 -24.5t26.5 -59.5t-26.5 -60.5t-63.5 -25.5h-63q-72 0 -116 -61.5t-46 -159.5l-10 -475q-2 -59 -24.5 -107.5t-78.5 -71.5q53 -23 77 -73.5t26 -98.5 l10 -428q2 -78 55.5 -130t122.5 -52h68q37 0 63.5 -24.5t26.5 -59.5t-26.5 -60.5t-63.5 -25.5h-99q-66 0 -123 27.5t-101 76t-69.5 110t-27.5 128.5l-10 352q0 27 -4 52.5t-13.5 47t-25 35t-35.5 13.5q-59 0 -89 32.5t-30 72.5z" />
<glyph unicode="|" horiz-adv-x="514" d="M160 -262v1866q0 41 29.5 69.5t70.5 28.5t70.5 -28.5t29.5 -69.5v-1866q0 -41 -29.5 -69.5t-70.5 -28.5t-70.5 28.5t-29.5 69.5z" />
<glyph unicode="}" horiz-adv-x="770" d="M53 -291q0 35 26.5 59.5t65.5 24.5h66q72 0 124 52.5t56 129.5l8 428q2 47 27 98.5t78 73.5q-55 23 -79 71t-26 108l-8 475q-4 98 -48 159.5t-116 61.5h-61q-39 0 -64.5 25.5t-25.5 60.5t25.5 59.5t64.5 24.5l84 2q80 0 138 -31.5t97 -81t59.5 -109t20.5 -114.5l10 -477 q2 -49 15.5 -91t62.5 -42q59 0 89 -33t29 -73t-31 -72.5t-87 -32.5q-23 0 -37 -13.5t-23 -35t-13.5 -47t-4.5 -52.5l-10 -352q-2 -68 -28.5 -129t-69.5 -109.5t-101.5 -76t-121.5 -27.5h-99q-39 0 -65.5 25.5t-26.5 60.5z" />
<glyph unicode="~" horiz-adv-x="1085" d="M106 674q0 29 26 62.5t67 63t92 49t104 19.5q78 0 130.5 -26.5t88.5 -57.5q33 -27 68 -53t88 -26q43 0 70.5 14t48.5 31q20 16 39.5 29.5t48.5 13.5q53 0 67.5 -24.5t16.5 -57.5q0 -29 -24.5 -62t-63.5 -61.5t-89 -48t-100 -19.5q-80 0 -138 30t-97 62q-35 31 -72 52.5 t-88 21.5q-33 0 -56.5 -10t-68.5 -51q-16 -14 -42.5 -23.5t-43.5 -9.5q-33 0 -52.5 26.5t-19.5 55.5z" />
<glyph horiz-adv-x="1024" />
<glyph unicode="&#xa1;" horiz-adv-x="587" d="M152 27q0 25 14 49t37 35v1019q0 41 28.5 69t69.5 28t68.5 -28t27.5 -69v-1019q23 -12 36 -36.5t13 -47.5q0 -39 -25.5 -63.5t-66.5 -24.5h-110q-41 0 -66.5 24.5t-25.5 63.5zM170 1485q0 53 40 85t89 32t89 -32t40 -85t-40 -85t-89 -32t-89 32t-40 85z" />
<glyph unicode="&#xa2;" horiz-adv-x="1050" d="M53 1030q0 100 35 189.5t96.5 161t146.5 121.5t185 69v69q0 41 26.5 69t61.5 28t61.5 -28t26.5 -69v-69q68 -12 125 -36t109 -65q35 -29 36 -58.5t-16 -51.5q-16 -25 -45 -33t-57 12q-31 20 -66 36t-86 30v-741q55 16 91 35.5t65 35.5q33 23 61.5 14t44.5 -34 q14 -23 9 -57.5t-48 -65.5q-39 -27 -95 -55.5t-128 -44.5v-68q0 -41 -26.5 -68.5t-61.5 -27.5t-61.5 27.5t-26.5 68.5v65q-100 18 -185 67.5t-146.5 121.5t-96.5 162t-35 190zM240 1030q0 -131 71.5 -229t204.5 -137v739q-133 -41 -204.5 -142.5t-71.5 -230.5z" />
<glyph unicode="&#xa3;" horiz-adv-x="1280" d="M37 780q0 37 13 57.5t34.5 30t49.5 10.5t56 1v98q0 119 25 230.5t82 197.5t149.5 137t227.5 51q94 0 175 -27.5t141.5 -79.5t94 -128t33.5 -172q2 -49 -24.5 -79t-73.5 -30q-45 0 -66.5 25.5t-25.5 56.5t-13.5 75t-35 83t-75.5 66.5t-136 27.5q-72 0 -121 -25.5 t-81 -67.5t-48.5 -97.5t-23.5 -114.5t-8 -118.5t-1 -110.5h389q39 0 63.5 -32t24.5 -67q0 -37 -25.5 -62.5t-62.5 -25.5h-389v-506h365q92 0 171.5 16.5t135.5 45.5q29 14 53 14q37 0 61.5 -29.5t24.5 -66.5q0 -49 -51 -81t-124 -50.5t-150.5 -25.5t-129.5 -7h-598 q-51 0 -71.5 25.5t-20.5 62.5q0 33 9.5 52.5t23.5 29.5t30.5 13t32.5 3h43v412l-2 94h-55q-41 -2 -68.5 22.5t-27.5 65.5z" />
<glyph unicode="&#xa4;" horiz-adv-x="1196" d="M132 1101q-5 32 24 60q29 29 62.5 26t62.5 -32l75 -78q106 74 242 74q133 0 238 -74l8 4l71 74q29 29 61.5 33t61.5 -25t25 -61.5t-33 -61.5l-78 -77q74 -117 74 -240q0 -135 -74 -242l2 -2l74 -73q29 -29 33 -62t-25 -61q-29 -29 -60.5 -25t-60.5 33l-75 76l-4 2 q-106 -72 -238 -72q-137 0 -242 74l-75 -78q-29 -29 -62 -34t-61 24q-29 29 -25 61.5t33 61.5l78 77q-74 111 -74 240q0 127 74 238v4l-78 75q-29 29 -34 61zM326 723q0 -111 77 -193q80 -80 195 -79q117 0 197 79q78 78 77 193q1 115 -79 195q-80 82 -195 81 q-115 0 -195 -81q-78 -84 -77 -195z" />
<glyph unicode="&#xa5;" horiz-adv-x="1323" d="M49 1504.5q12 37.5 49 58.5q35 18 73 5.5t60 -46.5l420 -729l422 729q20 35 58 48t73 -7q37 -18 49 -57t-8 -74l-289 -512h93q41 0 66.5 -26t25.5 -65q0 -41 -25.5 -65.5t-66.5 -24.5h-195l-100 -180h295q41 0 66.5 -24.5t25.5 -65.5t-25.5 -65.5t-66.5 -24.5h-297v-342 q0 -41 -29 -68.5t-70 -27.5t-70.5 27.5t-29.5 68.5v342h-297q-41 0 -66.5 24.5t-25.5 65.5t25.5 65.5t66.5 24.5h295l-100 180h-195q-41 0 -66.5 24.5t-25.5 65.5q0 39 25.5 65t66.5 26h92l-291 512q-20 35 -8 72.5z" />
<glyph unicode="&#xa6;" horiz-adv-x="346" d="M94 -61v682q0 31 21.5 52t52.5 21q29 0 51.5 -21.5t22.5 -51.5v-682q0 -31 -22.5 -52.5t-51.5 -21.5q-31 0 -52.5 21.5t-21.5 52.5zM94 948v682q0 31 21.5 52.5t52.5 21.5q29 0 51.5 -21.5t22.5 -52.5v-682q0 -31 -22.5 -52.5t-51.5 -21.5q-31 0 -52.5 22t-21.5 52z" />
<glyph unicode="&#xa7;" horiz-adv-x="1036" d="M66 782q0 84 37.5 146.5t97.5 105.5q-61 45 -98 115t-37 162q0 88 43 153.5t109.5 108.5t144 63.5t149.5 20.5q78 0 152.5 -19.5t133 -58.5t94.5 -94t36 -125q0 -29 -15.5 -53.5t-56.5 -28.5t-62.5 14.5t-31.5 46.5q-23 84 -94.5 118t-155.5 34q-45 0 -89 -13.5t-80 -37 t-58.5 -56t-22.5 -71.5q0 -66 31 -101.5t79 -51t106.5 -17.5t111.5 -2q82 0 155.5 -22.5t129 -66.5t88 -112t32.5 -156q0 -166 -123 -258q57 -45 90 -111.5t33 -156.5q0 -162 -119.5 -254t-334.5 -92q-29 0 -50.5 -1t-50.5 -1t-81 4t-102 18.5t-87 40t-37 66.5 q0 35 24.5 61.5t59.5 26.5q14 0 31 -6q70 -20 132 -29.5t134 -9.5q39 0 89 7t93 26.5t73 54.5t30 90q0 43 -18.5 74t-48.5 52.5t-67.5 31.5t-76.5 10q-41 0 -75 2t-69 2q-78 0 -146.5 23.5t-120.5 68.5t-81.5 109.5t-29.5 148.5zM262 784q0 -66 30 -100.5t76 -50t103 -17.5 t111 -2q37 2 75.5 12.5t70.5 31t51.5 52t19.5 78.5q0 43 -18.5 74t-48.5 52.5t-67.5 31.5t-76.5 10q-33 0 -61.5 1t-55.5 4q-41 -6 -78 -20.5t-66.5 -38t-47 -53.5t-17.5 -65z" />
<glyph unicode="&#xa8;" d="M279 1260q0 41 28.5 68.5t69.5 27.5t69.5 -27.5t28.5 -68.5t-32.5 -70t-73.5 -29t-65.5 29t-24.5 70zM647 1260q0 41 29 68.5t69 27.5q41 0 70 -27.5t29 -68.5t-29 -70t-70 -29t-69.5 29t-28.5 70z" />
<glyph unicode="&#xa9;" horiz-adv-x="1234" d="M121 1079q0 109 39 205t106.5 167t158.5 112t193 41t193.5 -41t159 -112t106.5 -167t39 -205t-39 -205t-106.5 -166.5t-158.5 -111.5t-194 -41q-102 0 -193 41t-158.5 111.5t-106.5 167t-39 204.5zM201 1081q0 -92 32.5 -174t89 -143.5t132 -97t163.5 -35.5 q86 0 163 35.5t133.5 97t89 143.5t32.5 174q0 94 -32.5 176t-89 143.5t-133 96.5t-163.5 35q-88 0 -163.5 -35t-132 -96.5t-89 -143t-32.5 -176.5zM330 1073q0 63 21.5 122.5t59.5 106t91 74t116 27.5q53 0 106.5 -15.5t92.5 -52.5q19 -19 19 -37q0 -41 -39 -41q-10 0 -19 7 q-43 31 -73.5 41t-83.5 10q-51 0 -89 -19.5t-63 -53.5t-37 -77t-12 -92q0 -41 15.5 -81t43 -72.5t65.5 -54t81 -21.5q33 0 58.5 4t55.5 14q8 4 21 4q16 0 28.5 -10t12.5 -33q0 -25 -19.5 -38t-50.5 -19q-29 -4 -56.5 -5t-56.5 -1q-59 0 -112 22.5t-92 64.5t-61.5 99.5 t-22.5 126.5z" />
<glyph unicode="&#xaa;" horiz-adv-x="909" d="M98 1173.5q2 110.5 50.5 206t143.5 159t234 63.5q31 0 70 -9.5t66 -19.5q10 14 25 23.5t40 9.5q74 0 74 -82v-537q0 -23 4 -55.5t14 -54.5q6 -16 11.5 -32t5.5 -34q0 -35 -22.5 -53.5t-55.5 -18.5q-25 0 -39 10.5t-29 32.5q-35 -16 -81 -26.5t-83 -10.5 q-147 0 -242.5 63.5t-141.5 159t-44 206zM254 1178q0 -59 20.5 -111.5t56.5 -91.5t86 -60.5t109 -21.5q35 0 66.5 9.5t56.5 19.5q-2 10 -3 20t-1 21v34v428q-25 12 -57.5 20.5t-61.5 8.5q-59 0 -109 -21.5t-86 -58.5t-56.5 -87t-20.5 -109z" />
<glyph unicode="&#xab;" horiz-adv-x="1112" d="M90 641q0 23 9.5 38t29.5 36l252 276q14 16 34.5 27.5t41.5 11.5q35 0 56.5 -23.5t21.5 -58.5q0 -31 -9.5 -47t-25.5 -37l-195 -223l195 -231q16 -18 24 -36t8 -40q0 -37 -20 -62.5t-55 -25.5q-20 0 -41 11t-35 28l-252 280q-20 23 -29.5 37t-9.5 39zM580 641q0 23 9 38 t29 36l252 276q16 16 36 27.5t42 11.5q35 0 55.5 -23.5t20.5 -58.5q0 -31 -9 -47t-26 -37l-194 -223l194 -231q16 -18 24.5 -36t8.5 -40q0 -37 -20.5 -62.5t-53.5 -25.5q-23 0 -42 11t-36 28l-252 280q-18 23 -28 37t-10 39z" />
<glyph unicode="&#xac;" horiz-adv-x="1026" d="M61 786q0 41 27 64.5t70 23.5h776v-530q0 -49 -31 -74.5t-66.5 -25.5t-66.5 24.5t-31 75.5v350h-581q-45 0 -71 25.5t-26 66.5z" />
<glyph unicode="&#xad;" horiz-adv-x="745" d="M76 600q0 41 25.5 66.5t66.5 25.5h412q41 0 66.5 -25.5t25.5 -66.5t-25.5 -64.5t-66.5 -23.5h-412q-41 0 -66.5 23.5t-25.5 64.5z" />
<glyph unicode="&#xae;" horiz-adv-x="1234" d="M121 1079q0 109 39 205t106.5 167t158.5 112t193 41t193.5 -41t159 -112t106.5 -167t39 -205t-39 -205t-106.5 -166.5t-158.5 -111.5t-194 -41q-102 0 -193 41t-158.5 111.5t-106.5 167t-39 204.5zM201 1081q0 -92 32.5 -174t89 -143.5t132 -97t163.5 -35.5 q86 0 163 35.5t133.5 97t89 143.5t32.5 174q0 94 -32.5 176t-89 143.5t-133 96.5t-163.5 35q-88 0 -163.5 -35t-132 -96.5t-89 -143t-32.5 -176.5zM422 827v514q0 35 16.5 42.5t26.5 7.5q12 0 29 -13q37 12 73 13q106 0 177 -51.5t71 -139.5q0 -70 -40 -109.5t-99 -60.5 l143 -172q16 -18 13 -35.5t-15 -29.5q-23 -23 -43 -7.5t-43 39.5q-2 2 -19.5 24.5t-40 51.5t-48 60.5t-43.5 54.5h-32t-38 4v-193q0 -18 -12.5 -31.5t-30.5 -13.5h-2q-18 0 -30.5 13.5t-12.5 31.5zM510 1106l31 -6q-4 14 0 22t8 13q14 10 27.5 6t25.5 -19l19 -20 q41 4 74.5 27.5t33.5 70.5q0 33 -16.5 54.5t-41 32.5t-51 15.5t-47.5 4.5q-27 0 -63 -13v-188z" />
<glyph unicode="&#xaf;" horiz-adv-x="1138" d="M279 1262q0 29 23.5 53t68.5 24h510q45 0 68.5 -24t23.5 -53t-23.5 -52.5t-68.5 -23.5h-510q-45 0 -68.5 23.5t-23.5 52.5z" />
<glyph unicode="&#xb0;" horiz-adv-x="690" d="M45 1294q0 61 23.5 116.5t64.5 96.5t96.5 64.5t116.5 23.5t116.5 -23.5t96.5 -64.5t64.5 -96.5t23.5 -116.5t-23.5 -116.5t-64.5 -96.5t-96 -64.5t-117 -23.5q-61 0 -116.5 23.5t-96.5 64.5t-64.5 96.5t-23.5 116.5zM190 1294q0 -66 45.5 -110.5t110.5 -44.5 q66 0 111 44.5t45 110.5t-45 111t-111 45t-111 -45t-45 -111z" />
<glyph unicode="&#xb1;" horiz-adv-x="1042" d="M68 780q0 41 26.5 66.5t67.5 25.5h264v291q0 41 27.5 66.5t68.5 25.5t67.5 -25.5t26.5 -66.5v-291h267q41 0 66.5 -25.5t25.5 -66.5t-25.5 -65.5t-66.5 -24.5h-267v-289q0 -41 -26.5 -66.5t-67.5 -25.5t-68.5 25.5t-27.5 66.5v289h-264q-41 0 -67.5 24.5t-26.5 65.5z M70 150q0 41 25.5 66.5t66.5 25.5h717q41 0 66.5 -25.5t25.5 -66.5q0 -39 -25.5 -64t-66.5 -25h-717q-41 0 -66.5 25t-25.5 64z" />
<glyph unicode="&#xb2;" horiz-adv-x="851" d="M102.5 657.5q-6.5 18.5 0 40t28.5 41.5l391 394q33 31 59.5 75.5t26.5 96.5q0 33 -12 64.5t-36.5 56t-58.5 39t-77 14.5q-47 0 -84 -15.5t-62.5 -40t-39 -54.5t-13.5 -58q0 -29 -18.5 -42.5t-42.5 -15.5q-23 0 -41.5 14.5t-18.5 45.5q0 55 24 104t66 88t100 61.5 t126 22.5t124 -23.5t98 -62.5t65.5 -89t23.5 -105q0 -74 -28.5 -129.5t-59.5 -87.5l-377 -377l217 2h189q29 0 44 -16.5t15 -35t-14.5 -35t-44.5 -16.5h-164h-342q-23 0 -40 12.5t-23.5 31z" />
<glyph unicode="&#xb3;" horiz-adv-x="907" d="M115 1313q0 53 26.5 102t69.5 86t100.5 58.5t118.5 21.5q45 0 96.5 -16.5t94.5 -47t71.5 -75.5t28.5 -103q0 -25 -7 -54.5t-21.5 -59t-34 -54t-46.5 -38.5q70 -23 123 -85.5t53 -166.5q0 -61 -27.5 -112.5t-75.5 -86.5t-111.5 -54.5t-135.5 -19.5h-114q-16 0 -47 4 t-50 11q-27 8 -38 28.5t-6 39t23.5 29.5t51.5 3q16 -4 43 -7t51 -3h68q111 0 180.5 47t69.5 133q0 55 -31 90t-72 54.5t-83 25.5t-66 6q-35 0 -52.5 14.5t-18.5 33t16.5 33.5t54.5 15q27 0 60.5 9.5t62 29t49 51t20.5 78.5q0 39 -15 66.5t-40 43t-54.5 23t-60.5 7.5 q-55 0 -94 -19.5t-63.5 -46.5t-35.5 -53.5t-11 -40.5q0 -33 -18.5 -48.5t-42 -15.5t-42 16.5t-18.5 47.5z" />
<glyph unicode="&#xb4;" horiz-adv-x="1179" d="M342 1184q-10 29 3 58.5t54 47.5l287 129q39 18 68 7t45 -40q12 -29 -0.5 -57.5t-53.5 -46.5l-286 -129q-39 -18 -71 -10t-46 41z" />
<glyph unicode="&#xb5;" horiz-adv-x="1136" d="M117 948q0 41 25.5 68.5t60.5 27.5t63.5 -27.5t28.5 -68.5v-741q29 -29 63.5 -48.5t69.5 -31.5t67.5 -17.5t59.5 -5.5q80 0 136.5 35t90 93.5t49 134t15.5 155.5v432q0 41 25.5 65.5t62.5 24.5q35 0 61.5 -24.5t26.5 -65.5v-483q0 -154 -38 -255t-103.5 -159.5 t-152.5 -82t-185 -23.5q-18 0 -51 5t-68 15.5t-70 27.5t-59 42v-40v-64.5v-78.5v-85v-217q0 -35 -19.5 -67t-68.5 -32q-51 0 -69.5 30t-18.5 69z" />
<glyph unicode="&#xb6;" horiz-adv-x="1255" d="M92 1042q0 137 57.5 242t152.5 175.5t215 106.5t247 36q57 0 114.5 -10.5t114.5 -28.5q12 20 34 30.5t40 10.5q47 0 71.5 -32t24.5 -81v-1454q0 -41 -25.5 -68.5t-66.5 -27.5q-23 0 -41 14t-33 33q-16 23 -30 49v1347q-31 12 -68 21.5t-72 13.5v-1370q0 -45 -28.5 -75.5 t-69.5 -30.5t-69.5 30.5t-28.5 75.5v473q-106 12 -203.5 49t-172.5 100.5t-119 156t-44 214.5zM283 1047q0 -84 29.5 -144.5t78.5 -102.5t111.5 -67t128.5 -35v713q-68 -12 -130.5 -38.5t-111.5 -72t-77.5 -108t-28.5 -145.5z" />
<glyph unicode="&#xb7;" horiz-adv-x="417" d="M68 735q0 59 41 100.5t100 41.5t100 -41.5t41 -100.5t-41 -99t-100 -40t-100 40t-41 99z" />
<glyph unicode="&#xb8;" horiz-adv-x="1300" d="M604 -444q0 23 16.5 37t43.5 14h94q47 0 61.5 20.5t14.5 53.5q0 35 -6.5 55t-16.5 31q-14 12 -32.5 20t-35.5 14l-26 9q-35 12 -52.5 36.5t-17.5 71.5v47q2 35 17.5 48.5t42.5 13.5q25 0 43 -13.5t18 -48.5v-35q0 -10 4 -17t27 -15q72 -25 115.5 -76t43.5 -137 q0 -98 -44 -140.5t-111 -42.5h-135q-35 0 -49.5 15.5t-14.5 38.5z" />
<glyph unicode="&#xb9;" horiz-adv-x="688" d="M76 680q0 23 18.5 39t52.5 16h129v727h-129q-35 0 -53 16.5t-18 39.5t18.5 40t52.5 17h185q31 0 47 -19.5t16 -42.5v-778h135q35 0 53.5 -16t18.5 -39t-18.5 -39t-53.5 -16h-383q-35 0 -53 16t-18 39z" />
<glyph unicode="&#xba;" horiz-adv-x="935" d="M84 1165q0 94 29.5 175t81 139.5t121 91.5t151.5 33t152.5 -33t122 -91.5t81 -139.5t29.5 -175t-29.5 -175t-81 -140t-122 -93t-152.5 -34t-151.5 34t-121 93t-81 140t-29.5 175zM242 1157q0 -59 15 -110.5t44 -91.5t71 -62.5t95 -22.5t95 22.5t72 62.5t45 91.5t15 110.5 q0 57 -15 111.5t-45 95.5t-72 65.5t-95 24.5t-95 -24.5t-71 -65.5t-44 -94t-15 -113z" />
<glyph unicode="&#xbb;" horiz-adv-x="1112" d="M90 948q0 35 20.5 58.5t55.5 23.5q20 0 40.5 -11t37.5 -28l252 -276q18 -23 28.5 -37t10.5 -37q0 -25 -10.5 -39t-28.5 -37l-252 -280q-16 -16 -36 -27.5t-42 -11.5q-33 0 -53.5 25.5t-20.5 62.5q0 41 33 76l194 231l-194 223q-16 20 -25.5 37t-9.5 47zM580 948 q0 35 21.5 58.5t55.5 23.5q20 0 41 -11t35 -28l252 -276q20 -23 29.5 -37t9.5 -37q0 -25 -9 -39t-30 -37l-252 -280q-14 -16 -34.5 -27.5t-41.5 -11.5q-35 0 -55 25.5t-20 62.5q0 23 8 40t24 36l195 231l-195 223q-16 20 -25 37t-9 47z" />
<glyph unicode="&#xbc;" horiz-adv-x="1691" d="M76 680q0 23 18.5 39t52.5 16h129v727h-129q-35 0 -53 16.5t-18 39.5t18.5 40t52.5 17h185q31 0 47 -19.5t16 -42.5v-778h135q35 0 53.5 -16t18.5 -39t-18.5 -39t-53.5 -16h-383q-35 0 -53 16t-18 39zM486 154.5q-5 25.5 10 56.5l551 1186q14 29 40.5 38t49.5 -1 t26.5 -36t-12.5 -57l-549 -1185q-16 -29 -40.5 -39.5t-47.5 2.5q-23 10 -28 35.5zM870 326q0 35 35 51l391 538q23 29 41.5 39.5t46.5 10.5q25 0 45.5 -16.5t20.5 -45.5v-522h49q29 0 49.5 -10t20.5 -45q0 -25 -9.5 -36t-25.5 -16q-8 -4 -16.5 -4h-18.5h-49v-245 q0 -23 -15.5 -37.5t-37.5 -14.5q-23 0 -44.5 15.5t-21.5 36.5v245h-401q-25 0 -42.5 16.5t-17.5 39.5zM1051 381h280l2 407z" />
<glyph unicode="&#xbd;" horiz-adv-x="1740" d="M76 680q0 23 18.5 39t52.5 16h129v727h-129q-35 0 -53 16.5t-18 39.5t18.5 40t52.5 17h185q31 0 47 -19.5t16 -42.5v-778h135q35 0 53.5 -16t18.5 -39t-18.5 -39t-53.5 -16h-383q-35 0 -53 16t-18 39zM486 154.5q-5 25.5 10 56.5l551 1186q14 29 40.5 38t49.5 -1 t26.5 -36t-12.5 -57l-549 -1185q-16 -29 -40.5 -39.5t-47.5 2.5q-23 10 -28 35.5zM1003.5 45q-6.5 18 0 41t28.5 43l391 393q35 31 60.5 76t27.5 96q0 33 -13 65t-37.5 56.5t-58.5 38.5t-77 14q-47 0 -84 -15t-62.5 -40t-39 -54.5t-13.5 -58.5t-18 -42t-41 -15 q-23 0 -42 14.5t-19 44.5q0 55 23.5 104.5t65.5 88.5t100 61.5t126 22.5t124 -23.5t98 -62.5t65.5 -89.5t23.5 -105.5q0 -74 -27.5 -129t-60.5 -88l-375 -377l215 2h189q29 0 44 -16t15 -34.5t-14 -35t-45 -16.5h-162h-344q-23 0 -40 11.5t-23.5 29.5z" />
<glyph unicode="&#xbe;" horiz-adv-x="1800" d="M115 1313q0 53 26.5 102t69.5 86t100.5 58.5t118.5 21.5q45 0 96.5 -16.5t94.5 -47t71.5 -75.5t28.5 -103q0 -25 -7 -54.5t-21.5 -59t-34 -54t-46.5 -38.5q70 -23 123 -85.5t53 -166.5q0 -61 -27.5 -112.5t-75.5 -86.5t-111.5 -54.5t-135.5 -19.5h-114q-16 0 -47 4 t-50 11q-27 8 -38 28.5t-6 39t23.5 29.5t51.5 3q16 -4 43 -7t51 -3h68q111 0 180.5 47t69.5 133q0 55 -31 90t-72 54.5t-83 25.5t-66 6q-35 0 -52.5 14.5t-18.5 33t16.5 33.5t54.5 15q27 0 60.5 9.5t62 29t49 51t20.5 78.5q0 39 -15 66.5t-40 43t-54.5 23t-60.5 7.5 q-55 0 -94 -19.5t-63.5 -46.5t-35.5 -53.5t-11 -40.5q0 -33 -18.5 -48.5t-42 -15.5t-42 16.5t-18.5 47.5zM602 154.5q-6 25.5 10 56.5l549 1186q16 29 42 38t48 -1q23 -10 27 -36t-10 -57l-551 -1185q-14 -29 -39 -39.5t-47 2.5q-23 10 -29 35.5zM987 326q0 35 35 51 l391 538q23 29 40 39.5t46 10.5q27 0 47.5 -16.5t20.5 -45.5v-522h47q31 0 51.5 -10t20.5 -45q0 -25 -9.5 -36t-25.5 -16q-10 -4 -37 -4h-47v-245q0 -23 -15.5 -37.5t-38.5 -14.5t-44 15.5t-21 36.5v245h-404q-23 0 -40 16.5t-17 39.5zM1167 381h281l2 407z" />
<glyph unicode="&#xbf;" horiz-adv-x="1384" d="M147 414q0 215 124 323.5t354 108.5h55q51 0 74.5 26.5t23.5 88.5v169q0 53 31 79t70 26q37 0 67.5 -25.5t30.5 -79.5v-200q0 -59 -12.5 -108.5t-42 -84.5t-78.5 -53t-125 -18h-86q-80 0 -133.5 -19.5t-85 -54.5t-44 -83t-12.5 -106q0 -53 27 -103t73 -90t107.5 -64.5 t132.5 -24.5q78 0 141.5 26.5t107.5 68.5t67.5 93t23.5 99q2 47 32 70.5t71 23.5q39 0 69.5 -23.5t30.5 -72.5q0 -90 -43 -175.5t-117.5 -151t-172 -104t-203.5 -38.5q-121 0 -222.5 38.5t-176.5 104t-117 151.5t-42 183zM760 1487q0 47 34.5 82t84.5 35q47 0 81.5 -35 t34.5 -82t-34.5 -82t-81.5 -35q-49 0 -84 35t-35 82z" />
<glyph unicode="&#xc0;" horiz-adv-x="1423" d="M61 53q0 10 2.5 19.5t4.5 13.5q2 6 11 28.5t22.5 55.5t28.5 71t32 76q37 90 82 201q-68 0 -85.5 28.5t-17.5 61.5t24.5 59.5t86.5 26.5h67l326 813q16 37 39 67t80 30q59 0 81.5 -33t37.5 -74l469 -1378q23 -66 -2 -108t-84 -40q-41 0 -61.5 23.5t-35.5 64.5l-161 459 h-568l-198 -479q-6 -12 -14.5 -24.5t-18.5 -22.5t-26.5 -15.5t-45.5 -5.5q-33 0 -54.5 26t-21.5 56zM510 694h440l-200 602zM551 1888q-12 29 2 58t43 40t68 -6l288 -131q39 -16 53.5 -45.5t2.5 -58.5q-12 -33 -45 -41t-72 8l-287 129q-41 18 -53 47z" />
<glyph unicode="&#xc1;" horiz-adv-x="1423" d="M61 53q0 10 2.5 19.5t4.5 13.5q2 6 11 28.5t22.5 55.5t28.5 71t32 76q37 90 82 201q-68 0 -85.5 28.5t-17.5 61.5t24.5 59.5t86.5 26.5h67l326 813q16 37 39 67t80 30q59 0 81.5 -33t37.5 -74l469 -1378q23 -66 -2 -108t-84 -40q-41 0 -61.5 23.5t-35.5 64.5l-161 459 h-568l-198 -479q-6 -12 -14.5 -24.5t-18.5 -22.5t-26.5 -15.5t-45.5 -5.5q-33 0 -54.5 26t-21.5 56zM510 694h440l-200 602zM530 1724q-10 29 3.5 58.5t54.5 46.5l286 131q39 16 68 6t43 -41q14 -29 2 -57.5t-53 -44.5l-287 -131q-39 -16 -71.5 -8t-45.5 40z" />
<glyph unicode="&#xc2;" horiz-adv-x="1423" d="M61 53q0 10 2.5 19.5t4.5 13.5q2 6 11 28.5t22.5 55.5t28.5 71t32 76q37 90 82 201q-68 0 -85.5 28.5t-17.5 61.5t24.5 59.5t86.5 26.5h67l326 813q16 37 39 67t80 30q59 0 81.5 -33t37.5 -74l469 -1378q23 -66 -2 -108t-84 -40q-41 0 -61.5 23.5t-35.5 64.5l-161 459 h-568l-198 -479q-6 -12 -14.5 -24.5t-18.5 -22.5t-26.5 -15.5t-45.5 -5.5q-33 0 -54.5 26t-21.5 56zM510 694h440l-200 602zM516 1724q0 29 25 54l170 153q14 12 24 18.5t27 6.5q16 0 26.5 -6t22.5 -19l168 -153q10 -10 18.5 -24t8.5 -30q0 -23 -16.5 -37t-39.5 -14t-34 6.5 t-21 16.5l-133 114l-137 -114q-23 -23 -50 -23q-25 0 -42 14.5t-17 36.5z" />
<glyph unicode="&#xc3;" horiz-adv-x="1423" d="M61 53q0 10 2.5 19.5t4.5 13.5q2 6 11 28.5t22.5 55.5t28.5 71t32 76q37 90 82 201q-68 0 -85.5 28.5t-17.5 61.5t24.5 59.5t86.5 26.5h67l326 813q16 37 39 67t80 30q59 0 81.5 -33t37.5 -74l469 -1378q23 -66 -2 -108t-84 -40q-41 0 -61.5 23.5t-35.5 64.5l-161 459 h-568l-198 -479q-6 -12 -14.5 -24.5t-18.5 -22.5t-26.5 -15.5t-45.5 -5.5q-33 0 -54.5 26t-21.5 56zM477 1790q0 20 17.5 41.5t45 40t61.5 30t67 11.5q53 0 86.5 -15.5t56.5 -33.5q10 -8 19.5 -15.5t19.5 -13.5q10 -4 20.5 -8t24.5 -4q23 0 37 6t24 16q16 10 29.5 18.5 t34.5 8.5q43 0 55 -19.5t12 -42.5q0 -20 -17 -40.5t-44 -38t-59.5 -28.5t-63.5 -11q-53 0 -91 17t-62 36q-20 16 -40 26.5t-46 10.5q-14 0 -25.5 -4t-38.5 -27q-12 -10 -31.5 -16t-31.5 -6q-29 0 -44.5 21.5t-15.5 39.5zM510 694h440l-200 602z" />
<glyph unicode="&#xc4;" horiz-adv-x="1423" d="M61 53q0 10 2.5 19.5t4.5 13.5q2 6 11 28.5t22.5 55.5t28.5 71t32 76q37 90 82 201q-68 0 -85.5 28.5t-17.5 61.5t24.5 59.5t86.5 26.5h67l326 813q16 37 39 67t80 30q59 0 81.5 -33t37.5 -74l469 -1378q23 -66 -2 -108t-84 -40q-41 0 -61.5 23.5t-35.5 64.5l-161 459 h-568l-198 -479q-6 -12 -14.5 -24.5t-18.5 -22.5t-26.5 -15.5t-45.5 -5.5q-33 0 -54.5 26t-21.5 56zM467 1790q0 41 28.5 68.5t69.5 27.5t70 -27.5t29 -68.5t-33 -69.5t-74 -28.5t-65.5 28.5t-24.5 69.5zM510 694h440l-200 602zM856 1790q0 41 28.5 68.5t69.5 27.5t70 -27.5 t29 -68.5t-29 -69.5t-70 -28.5t-69.5 28.5t-28.5 69.5z" />
<glyph unicode="&#xc5;" horiz-adv-x="1423" d="M61 53q0 10 2.5 19.5t4.5 13.5q2 6 11 28.5t22.5 55.5t28.5 71t32 76q37 90 82 201q-68 0 -85.5 28.5t-17.5 61.5t24.5 59.5t86.5 26.5h67l326 813q16 37 39 67t80 30q59 0 81.5 -33t37.5 -74l469 -1378q23 -66 -2 -108t-84 -40q-41 0 -61.5 23.5t-35.5 64.5l-161 459 h-568l-198 -479q-6 -12 -14.5 -24.5t-18.5 -22.5t-26.5 -15.5t-45.5 -5.5q-33 0 -54.5 26t-21.5 56zM510 694h440l-200 602zM551 1876q0 43 16.5 82t46 68.5t68.5 46t84 16.5q43 0 82 -16.5t68.5 -46t46 -68.5t16.5 -82t-16.5 -82t-46 -67.5t-68.5 -45t-82 -16.5 q-45 0 -84 16.5t-68.5 45t-46 67.5t-16.5 82zM662 1876q0 -41 30.5 -70.5t73.5 -29.5q41 0 71.5 29.5t30.5 70.5q0 43 -30.5 72.5t-71.5 29.5q-43 0 -73.5 -29.5t-30.5 -72.5z" />
<glyph unicode="&#xc6;" horiz-adv-x="2025" d="M84 53q0 10 2 19.5t2 13.5q2 6 12.5 29.5t23.5 57.5t28.5 73t31.5 80q37 94 84 209q-41 0 -72.5 26.5t-31.5 61.5q0 37 29.5 61.5t89.5 24.5l63 2l318 772q14 37 37.5 64.5t78.5 27.5h1051q53 0 82 -28.5t30 -62.5t-27 -62.5t-85 -28.5h-901l176 -519h647q55 0 84 -28.5 t30 -62t-28 -62.5t-86 -29h-586l172 -502h496q47 0 79 -27.5t32 -66.5t-32 -67.5t-79 -28.5h-479q-29 -29 -78 -29q-41 0 -61.5 23.5t-32.5 64.5l-160 457h-573l-189 -477q-6 -12 -14 -24.5t-19 -22.5q-10 -10 -26.5 -15.5t-44.5 -5.5q-33 0 -53.5 26t-20.5 56zM530 700h435 l-199 572z" />
<glyph unicode="&#xc7;" horiz-adv-x="1300" d="M63 760q0 221 54.5 380.5t145.5 262t209 152t241 49.5q100 0 195.5 -37t168 -98.5t116.5 -143.5t44 -172q0 -49 -30.5 -75.5t-68.5 -28.5t-69 23.5t-31 80.5q0 25 -18.5 70t-59 89t-106.5 76.5t-158 32.5q-90 0 -168.5 -44t-138 -128t-94.5 -206.5t-35 -282.5 q0 -162 35 -277.5t98.5 -189.5t153.5 -110t201 -36q92 0 153.5 29t95.5 47q43 25 79 12.5t53.5 -43t10.5 -68.5t-48 -65q-27 -16 -56.5 -31.5t-69.5 -28.5t-94.5 -21.5t-128.5 -8.5q0 -4 1 -6t1 -6v-35q0 -10 4.5 -17t26.5 -16q72 -25 116 -76t44 -137q0 -98 -44 -140 t-112 -42h-135q-35 0 -50 15.5t-15 37.5q0 23 16 38.5t45 15.5l94 -2q47 0 61.5 20.5t14.5 52.5q0 35 -7 55.5t-18 30.5q-12 12 -31.5 20.5t-35.5 14.5l-27 8q-35 12 -51 37t-16 74v45q0 4 1 9t1 9q-94 10 -193.5 48t-181.5 126.5t-135.5 235.5t-53.5 375z" />
<glyph unicode="&#xc8;" horiz-adv-x="1288" d="M70 782q0 33 19.5 56.5t64.5 33.5v572q0 70 32.5 100.5t100.5 30.5h792q121 0 121 -96q0 -45 -29.5 -63.5t-91.5 -18.5h-729v-525h635q47 0 83 -24.5t36 -69.5q0 -47 -35 -65.5t-84 -18.5h-635v-305q0 -66 18.5 -107.5t51.5 -64t74 -31t88 -8.5h485q47 0 83 -20.5 t36 -65.5t-36 -68.5t-83 -23.5h-549q-55 0 -118.5 14.5t-119 50t-91 96t-35.5 152.5v379q-41 10 -62.5 34t-21.5 56zM455.5 1888q-13.5 29 1.5 58q16 29 44.5 40t67.5 -6l287 -131q39 -16 53 -45.5t4 -58.5q-14 -33 -45.5 -41t-70.5 8l-289 129q-39 18 -52.5 47z" />
<glyph unicode="&#xc9;" horiz-adv-x="1277" d="M70 782q0 33 19.5 56.5t64.5 33.5v572q0 70 32.5 100.5t100.5 30.5h792q121 0 121 -96q0 -45 -29.5 -63.5t-91.5 -18.5h-729v-525h635q47 0 83 -24.5t36 -69.5q0 -47 -35 -65.5t-84 -18.5h-635v-305q0 -66 18.5 -107.5t51.5 -64t74 -31t88 -8.5h485q47 0 83 -20.5 t36 -65.5t-36 -68.5t-83 -23.5h-549q-55 0 -118.5 14.5t-119 50t-91 96t-35.5 152.5v379q-41 10 -62.5 34t-21.5 56zM442 1704q-12 29 2.5 58.5t55.5 47.5l286 129q39 16 68 6.5t43 -40.5q14 -29 2 -56.5t-53 -46.5l-287 -131q-39 -16 -71.5 -8t-45.5 41z" />
<glyph unicode="&#xca;" horiz-adv-x="1288" d="M70 782q0 33 19.5 56.5t64.5 33.5v572q0 70 32.5 100.5t100.5 30.5h792q121 0 121 -96q0 -45 -29.5 -63.5t-91.5 -18.5h-729v-525h635q47 0 83 -24.5t36 -69.5q0 -47 -35 -65.5t-84 -18.5h-635v-305q0 -66 18.5 -107.5t51.5 -64t74 -31t88 -8.5h485q47 0 83 -20.5 t36 -65.5t-36 -68.5t-83 -23.5h-549q-55 0 -118.5 14.5t-119 50t-91 96t-35.5 152.5v379q-41 10 -62.5 34t-21.5 56zM438 1724q0 29 25 54l170 153q14 12 24.5 18.5t26.5 6.5t26.5 -6t24.5 -19l166 -153q10 -10 18.5 -24t8.5 -30q0 -23 -16.5 -37t-39.5 -14q-20 0 -31.5 6.5 t-23.5 16.5l-133 114l-135 -114q-12 -10 -23.5 -16.5t-27.5 -6.5q-25 0 -42.5 14.5t-17.5 36.5z" />
<glyph unicode="&#xcb;" horiz-adv-x="1288" d="M70 782q0 33 19.5 56.5t64.5 33.5v572q0 70 32.5 100.5t100.5 30.5h792q121 0 121 -96q0 -45 -29.5 -63.5t-91.5 -18.5h-729v-525h635q47 0 83 -24.5t36 -69.5q0 -47 -35 -65.5t-84 -18.5h-635v-305q0 -66 18.5 -107.5t51.5 -64t74 -31t88 -8.5h485q47 0 83 -20.5 t36 -65.5t-36 -68.5t-83 -23.5h-549q-55 0 -118.5 14.5t-119 50t-91 96t-35.5 152.5v379q-41 10 -62.5 34t-21.5 56zM391 1790q0 41 29 68.5t69 27.5q41 0 70 -27.5t29 -68.5t-33 -69.5t-74 -28.5t-65.5 28.5t-24.5 69.5zM780 1790q0 41 29 68.5t70 27.5t69.5 -27.5 t28.5 -68.5t-28.5 -69.5t-69.5 -28.5t-70 28.5t-29 69.5z" />
<glyph unicode="&#xcc;" horiz-adv-x="1050" d="M86 82q0 37 26.5 61.5t84.5 24.5h223v1229h-213q-57 0 -84 24.5t-27 61.5t27 64.5t84 27.5h637q57 0 83.5 -28.5t26.5 -65.5t-26.5 -60.5t-83.5 -23.5h-228v-1229h238q57 0 84 -24.5t27 -61.5q0 -35 -27 -62.5t-84 -27.5h-657q-57 0 -84 27.5t-27 62.5zM315.5 1908.5 q-12.5 28.5 1.5 57.5t43 40t68 -7l289 -129q39 -18 53 -47t2 -58q-12 -35 -45 -43t-72 11l-286 129q-41 18 -53.5 46.5z" />
<glyph unicode="&#xcd;" horiz-adv-x="1050" d="M86 82q0 37 26.5 61.5t84.5 24.5h223v1229h-213q-57 0 -84 24.5t-27 61.5t27 64.5t84 27.5h637q57 0 83.5 -28.5t26.5 -65.5t-26.5 -60.5t-83.5 -23.5h-228v-1229h238q57 0 84 -24.5t27 -61.5q0 -35 -27 -62.5t-84 -27.5h-657q-57 0 -84 27.5t-27 62.5zM295 1724 q-10 29 3 58.5t54 46.5l287 131q39 16 68 6t45 -41q12 -29 -0.5 -57.5t-53.5 -44.5l-286 -131q-39 -16 -72 -8t-45 40z" />
<glyph unicode="&#xce;" horiz-adv-x="1050" d="M86 82q0 37 26.5 61.5t84.5 24.5h223v1229h-213q-57 0 -84 24.5t-27 61.5t27 64.5t84 27.5h637q57 0 83.5 -28.5t26.5 -65.5t-26.5 -60.5t-83.5 -23.5h-228v-1229h238q57 0 84 -24.5t27 -61.5q0 -35 -27 -62.5t-84 -27.5h-657q-57 0 -84 27.5t-27 62.5zM276 1724 q0 29 25 54l172 153q12 12 22.5 18.5t26.5 6.5t26.5 -6t24.5 -19l168 -153q10 -10 18.5 -24t8.5 -30q0 -23 -16.5 -37t-40.5 -14q-20 0 -31.5 6.5t-24.5 16.5l-133 114l-135 -114q-27 -23 -49 -23q-27 0 -44.5 14.5t-17.5 36.5z" />
<glyph unicode="&#xcf;" horiz-adv-x="1050" d="M86 82q0 37 26.5 61.5t84.5 24.5h223v1229h-213q-57 0 -84 24.5t-27 61.5t27 64.5t84 27.5h637q57 0 83.5 -28.5t26.5 -65.5t-26.5 -60.5t-83.5 -23.5h-228v-1229h238q57 0 84 -24.5t27 -61.5q0 -35 -27 -62.5t-84 -27.5h-657q-57 0 -84 27.5t-27 62.5zM233 1790 q0 41 29 68.5t70 27.5t69.5 -27.5t28.5 -68.5t-32.5 -69.5t-73.5 -28.5t-66 28.5t-25 69.5zM623 1790q0 41 28.5 68.5t69.5 27.5t69.5 -27.5t28.5 -68.5t-28.5 -69.5t-69.5 -28.5t-69.5 28.5t-28.5 69.5z" />
<glyph unicode="&#xd0;" horiz-adv-x="1460" d="M25 784q0 35 29.5 59.5t70.5 26.5v617q0 47 22.5 82t69.5 35q41 0 57.5 -16.5t22.5 -37.5q31 16 68.5 26.5t79.5 16.5t85 8.5t84 2.5q170 0 304.5 -75t226.5 -195t141 -269t49 -303q0 -178 -58 -324.5t-162.5 -250t-251 -161t-324.5 -57.5q-92 0 -169 15.5t-131.5 55.5 t-84 108.5t-29.5 173.5v374q-41 2 -70.5 28t-29.5 60zM322 297q0 -55 29.5 -86t72.5 -45t92 -17.5t90 -3.5q119 0 217.5 53.5t169 140.5t108.5 196.5t38 222.5q0 117 -33 235.5t-99.5 215t-165 157.5t-227.5 61q-72 0 -148.5 -13t-143.5 -48v-496h133q45 0 75.5 -25.5 t30.5 -60.5q0 -37 -30.5 -62.5t-75.5 -25.5h-133v-399z" />
<glyph unicode="&#xd1;" horiz-adv-x="1630" d="M123 68v1437q0 47 28.5 72t67.5 25q23 0 44.5 -9.5t31.5 -25.5l825 -1227v1167q0 41 28 69t69 28t68.5 -28t27.5 -69l2 -1439q0 -47 -30 -73t-68 -26q-53 0 -84 43l-816 1217v-1161q0 -41 -27.5 -70t-68.5 -29t-69.5 29t-28.5 70zM422 1794q0 20 17.5 42t45 40t61.5 29.5 t66 11.5q51 0 86 -16.5t58 -32.5q10 -8 19 -15.5t20 -13.5q20 -12 45 -12q23 0 37 6t24 14q16 10 29.5 18.5t34.5 8.5q41 0 53 -18.5t14 -40.5q0 -20 -17.5 -42t-44 -39.5t-59 -28.5t-63.5 -11q-53 0 -91 17.5t-63 35.5q-20 16 -39.5 26.5t-46.5 10.5q-14 0 -25.5 -4 t-37.5 -25q-12 -10 -31.5 -16t-32.5 -6q-29 0 -44 20.5t-15 40.5z" />
<glyph unicode="&#xd2;" horiz-adv-x="1634" d="M96 778q0 174 56.5 324.5t153.5 262.5t228.5 175.5t282.5 63.5q150 0 282 -63.5t229 -175.5t153.5 -262.5t56.5 -324.5t-56.5 -321.5t-153.5 -256t-228 -170t-283 -61.5t-283 61.5t-228 170t-153.5 256t-56.5 321.5zM289 780q0 -131 39 -244.5t108.5 -197.5t166.5 -132 t214 -48t214 48t167 132t109 197.5t39 244.5q0 129 -39 245t-109 203t-167 137t-214 50t-214 -50t-166.5 -137t-108.5 -203t-39 -245zM606 1888q-12 29 0 58q16 29 45 40t68 -6l287 -131q41 -16 54 -45.5t3 -58.5q-14 -33 -46 -41t-71 8l-287 129q-41 18 -53 47z" />
<glyph unicode="&#xd3;" horiz-adv-x="1634" d="M96 778q0 174 56.5 324.5t153.5 262.5t228.5 175.5t282.5 63.5q150 0 282 -63.5t229 -175.5t153.5 -262.5t56.5 -324.5t-56.5 -321.5t-153.5 -256t-228 -170t-283 -61.5t-283 61.5t-228 170t-153.5 256t-56.5 321.5zM289 780q0 -131 39 -244.5t108.5 -197.5t166.5 -132 t214 -48t214 48t167 132t109 197.5t39 244.5q0 129 -39 245t-109 203t-167 137t-214 50t-214 -50t-166.5 -137t-108.5 -203t-39 -245zM555 1724q-10 29 3 58.5t54 46.5l287 131q39 16 68 6t43 -41q14 -29 1.5 -57.5t-53.5 -44.5l-286 -131q-39 -16 -72 -8t-45 40z" />
<glyph unicode="&#xd4;" horiz-adv-x="1634" d="M96 778q0 174 56.5 324.5t153.5 262.5t228.5 175.5t282.5 63.5q150 0 282 -63.5t229 -175.5t153.5 -262.5t56.5 -324.5t-56.5 -321.5t-153.5 -256t-228 -170t-283 -61.5t-283 61.5t-228 170t-153.5 256t-56.5 321.5zM289 780q0 -131 39 -244.5t108.5 -197.5t166.5 -132 t214 -48t214 48t167 132t109 197.5t39 244.5q0 129 -39 245t-109 203t-167 137t-214 50t-214 -50t-166.5 -137t-108.5 -203t-39 -245zM573 1724q0 29 25 54l172 153q12 12 22.5 18.5t26.5 6.5t26.5 -6t24.5 -19l168 -153q10 -10 18.5 -24t8.5 -30q0 -23 -16.5 -37t-40.5 -14 q-20 0 -31.5 6.5t-24.5 16.5l-133 114l-135 -114q-27 -23 -49 -23q-27 0 -44.5 14.5t-17.5 36.5z" />
<glyph unicode="&#xd5;" horiz-adv-x="1634" d="M96 778q0 174 56.5 324.5t153.5 262.5t228.5 175.5t282.5 63.5q150 0 282 -63.5t229 -175.5t153.5 -262.5t56.5 -324.5t-56.5 -321.5t-153.5 -256t-228 -170t-283 -61.5t-283 61.5t-228 170t-153.5 256t-56.5 321.5zM289 780q0 -131 39 -244.5t108.5 -197.5t166.5 -132 t214 -48t214 48t167 132t109 197.5t39 244.5q0 129 -39 245t-109 203t-167 137t-214 50t-214 -50t-166.5 -137t-108.5 -203t-39 -245zM520 1790q0 20 17.5 41.5t45 40t61.5 30t67 11.5q53 0 86.5 -15.5t56.5 -33.5q10 -8 19.5 -15.5t19.5 -13.5q10 -4 20.5 -8t24.5 -4 q23 0 37 6t24 16q16 10 29.5 18.5t34.5 8.5q43 0 55 -19.5t12 -42.5q0 -20 -17 -40.5t-44 -38t-59.5 -28.5t-63.5 -11q-53 0 -91 17t-62 36q-20 16 -40 26.5t-46 10.5q-14 0 -25.5 -4t-38.5 -27q-12 -10 -31.5 -16t-31.5 -6q-29 0 -44.5 21.5t-15.5 39.5z" />
<glyph unicode="&#xd6;" horiz-adv-x="1634" d="M96 778q0 174 56.5 324.5t153.5 262.5t228.5 175.5t282.5 63.5q150 0 282 -63.5t229 -175.5t153.5 -262.5t56.5 -324.5t-56.5 -321.5t-153.5 -256t-228 -170t-283 -61.5t-283 61.5t-228 170t-153.5 256t-56.5 321.5zM289 780q0 -131 39 -244.5t108.5 -197.5t166.5 -132 t214 -48t214 48t167 132t109 197.5t39 244.5q0 129 -39 245t-109 203t-167 137t-214 50t-214 -50t-166.5 -137t-108.5 -203t-39 -245zM520 1790q0 41 29 68.5t69 27.5q41 0 70 -27.5t29 -68.5t-33 -69.5t-74 -28.5t-65.5 28.5t-24.5 69.5zM909 1790q0 41 29 68.5t70 27.5 t69.5 -27.5t28.5 -68.5t-28.5 -69.5t-69.5 -28.5t-70 28.5t-29 69.5z" />
<glyph unicode="&#xd7;" horiz-adv-x="1017" d="M140 322.5q3 39.5 36 72.5l207 207l-207 207q-33 33 -36 73t24 66q27 27 66.5 24t72.5 -36l207 -207l207 207q31 33 71.5 36t67.5 -24t24 -66.5t-36 -72.5l-207 -207l207 -207q33 -33 36 -72.5t-24 -66.5t-67.5 -23.5t-71.5 35.5l-207 207l-207 -207q-33 -33 -73 -36 t-66 24q-27 27 -24 66.5z" />
<glyph unicode="&#xd8;" horiz-adv-x="1634" d="M96 778q0 174 56.5 324.5t153.5 262.5t228.5 175.5t282.5 63.5q139 0 266 -58l23 45q18 41 53 58.5t66 3.5q29 -16 36 -53t-12 -78l-26 -58q145 -111 230 -290t85 -396q0 -174 -56.5 -321.5t-153.5 -256t-228 -170t-283 -61.5q-139 0 -262 54l-29 -62q-18 -41 -54 -58.5 t-64 -2.5q-31 16 -38.5 53t11.5 78l33 71q-145 106 -231.5 282.5t-86.5 393.5zM289 780q0 -158 54 -286.5t153 -214.5l510 1097q-84 39 -189 39q-117 0 -214 -50t-166.5 -137t-108.5 -203t-39 -245zM633 193q88 -35 184 -35q117 0 214 48t167 132t109 197.5t39 244.5 q0 154 -53.5 287t-149.5 221z" />
<glyph unicode="&#xd9;" horiz-adv-x="1507" d="M137 584v921q0 45 24.5 72t71.5 27q53 0 75 -27t22 -74v-919q0 -86 34.5 -161t94 -130t137.5 -88t164 -33t162.5 33t133 88t90.5 130t34 161v921q0 45 27.5 72t72.5 27q39 0 65.5 -29t26.5 -70v-921q0 -127 -47 -240t-130 -195.5t-194.5 -131t-240.5 -48.5 q-127 0 -240.5 48.5t-198.5 132t-134.5 195.5t-49.5 239zM526 1946q16 29 45 40t68 -6l287 -131q41 -16 54 -45.5t3 -58.5q-14 -33 -46 -41t-71 8l-286 129q-41 18 -53.5 47t-0.5 58z" />
<glyph unicode="&#xda;" horiz-adv-x="1507" d="M137 584v921q0 45 24.5 72t71.5 27q53 0 75 -27t22 -74v-919q0 -86 34.5 -161t94 -130t137.5 -88t164 -33t162.5 33t133 88t90.5 130t34 161v921q0 45 27.5 72t72.5 27q39 0 65.5 -29t26.5 -70v-921q0 -127 -47 -240t-130 -195.5t-194.5 -131t-240.5 -48.5 q-127 0 -240.5 48.5t-198.5 132t-134.5 195.5t-49.5 239zM535 1724q-10 29 4 58.5t53 46.5l287 131q39 16 67.5 6t44.5 -41q12 -29 0 -57.5t-53 -44.5l-287 -131q-39 -16 -70.5 -8t-45.5 40z" />
<glyph unicode="&#xdb;" horiz-adv-x="1507" d="M137 584v921q0 45 24.5 72t71.5 27q53 0 75 -27t22 -74v-919q0 -86 34.5 -161t94 -130t137.5 -88t164 -33t162.5 33t133 88t90.5 130t34 161v921q0 45 27.5 72t72.5 27q39 0 65.5 -29t26.5 -70v-921q0 -127 -47 -240t-130 -195.5t-194.5 -131t-240.5 -48.5 q-127 0 -240.5 48.5t-198.5 132t-134.5 195.5t-49.5 239zM508 1735q0 29 24 53l173 154q12 10 22 17t27 7q16 0 26.5 -6t24.5 -18l168 -154q24 -24 24 -53q0 -23 -15 -38.5t-40 -15.5q-20 0 -31.5 7.5t-23.5 17.5l-133 115l-136 -115q-12 -10 -23 -16.5t-28 -6.5 q-25 0 -42 14.5t-17 37.5z" />
<glyph unicode="&#xdc;" horiz-adv-x="1507" d="M137 584v921q0 45 24.5 72t71.5 27q53 0 75 -27t22 -74v-919q0 -86 34.5 -161t94 -130t137.5 -88t164 -33t162.5 33t133 88t90.5 130t34 161v921q0 45 27.5 72t72.5 27q39 0 65.5 -29t26.5 -70v-921q0 -127 -47 -240t-130 -195.5t-194.5 -131t-240.5 -48.5 q-127 0 -240.5 48.5t-198.5 132t-134.5 195.5t-49.5 239zM459 1790q0 41 28.5 68.5t69.5 27.5t69.5 -27.5t28.5 -68.5t-32.5 -69.5t-73.5 -28.5t-65.5 28.5t-24.5 69.5zM848 1790q0 41 28.5 68.5t69.5 27.5t69.5 -27.5t28.5 -68.5t-28.5 -69.5t-69.5 -28.5t-69.5 28.5 t-28.5 69.5z" />
<glyph unicode="&#xdd;" horiz-adv-x="1333" d="M64 1535q12 38 49 58q35 18 73.5 6t59.5 -47l420 -731l421 731q20 35 58.5 47.5t73.5 -6.5q37 -18 51 -55t-6 -72l-498 -878v-520q0 -41 -27.5 -70t-68.5 -29t-72 29t-31 70v520l-495 874q-20 35 -8 73zM436 1724q-12 29 2.5 58.5t53.5 46.5l288 131q39 16 68 6t43 -41 q14 -29 2 -57.5t-53 -44.5l-287 -131q-39 -16 -71.5 -8t-45.5 40z" />
<glyph unicode="&#xde;" horiz-adv-x="1255" d="M102 66v1431q0 49 28 80t77 33q43 2 68.5 -27t25.5 -80q-2 -12 -2 -35.5v-46.5v-57q41 8 78 16q33 6 66.5 11.5t60.5 5.5q125 0 242.5 -36t209 -106.5t145.5 -176t54 -242.5t-52 -236.5t-140.5 -163t-201 -94.5t-235.5 -31q-53 0 -106 4t-119 15v-264q0 -43 -29.5 -70 t-74.5 -27q-41 0 -68 28t-27 69zM299 1180l2 -670q66 -12 124 -18.5t118 -6.5q76 0 151.5 19.5t136 61.5t97.5 110t37 164q0 104 -41 175.5t-107.5 116t-149.5 62.5t-167 18q-41 0 -97.5 -10t-103.5 -22z" />
<glyph unicode="&#xdf;" horiz-adv-x="1214" d="M111 -152l2 1321q0 104 36.5 185.5t98 136.5t144.5 84t175 29q104 0 187.5 -38t140.5 -98.5t87 -134t30 -145.5q0 -115 -48.5 -207t-113.5 -135q125 -47 193.5 -161.5t68.5 -266.5q0 -80 -26.5 -160t-87 -144.5t-157 -105.5t-235.5 -41q-23 0 -58.5 1t-69.5 10.5 t-58.5 31t-24.5 64.5q0 35 24.5 58.5t59.5 21.5q37 0 54.5 -6.5t46.5 -6.5q90 0 157.5 22.5t111.5 62.5t66.5 94.5t22.5 115.5q0 76 -29.5 131.5t-82 92t-123 55t-150.5 18.5q-33 0 -66.5 16.5t-33.5 67.5q0 57 30.5 71.5t71.5 16.5q76 2 131 25.5t91 61.5t53.5 86t17.5 98 q0 33 -12.5 75.5t-44 82.5t-87 68t-139.5 28q-125 0 -200.5 -74t-75.5 -203v-1305q0 -37 -26.5 -62.5t-63.5 -25.5t-62.5 25t-25.5 63z" />
<glyph unicode="&#xe0;" d="M94 508q2 117 44 215t114 169t170 109.5t211 38.5q41 0 95 -13t85 -30q8 20 26.5 33.5t53.5 13.5q82 0 82 -92v-596q0 -53 9 -109.5t30 -94.5q14 -29 25.5 -53.5t11.5 -49.5q0 -37 -29 -63.5t-61 -26.5q-47 0 -69 23.5t-32 42.5q-18 -10 -49 -20.5t-62.5 -19t-63.5 -12.5 t-52 -4q-113 0 -211 36t-171 104.5t-115 169t-42 229.5zM270 508q0 -80 27 -147.5t75 -119t114.5 -80t146.5 -28.5q49 0 98 13.5t82 27.5q-8 29 -11 58.5t-3 46.5v552q-33 18 -80 32t-86 14q-80 0 -146.5 -28t-114.5 -77t-75 -116.5t-27 -147.5zM366.5 1357.5 q-12.5 28.5 2.5 57.5q14 31 42.5 41t67.5 -6l289 -131q39 -16 53 -46t2 -59q-12 -33 -45 -41t-71 9l-287 131q-41 16 -53.5 44.5z" />
<glyph unicode="&#xe1;" d="M94 508q2 117 44 215t114 169t170 109.5t211 38.5q41 0 95 -13t85 -30q8 20 26.5 33.5t53.5 13.5q82 0 82 -92v-596q0 -53 9 -109.5t30 -94.5q14 -29 25.5 -53.5t11.5 -49.5q0 -37 -29 -63.5t-61 -26.5q-47 0 -69 23.5t-32 42.5q-18 -10 -49 -20.5t-62.5 -19t-63.5 -13.5 t-52 -5q-113 0 -211 36t-171 105.5t-115 170t-42 229.5zM270 508q0 -80 27 -148.5t75 -120t114.5 -81t146.5 -29.5q49 0 98 15.5t82 29.5q-8 29 -11 58.5t-3 46.5v552q-33 18 -80 32t-86 14q-80 0 -146.5 -28t-114.5 -77t-75 -116.5t-27 -147.5zM315 1184q-12 29 2.5 58.5 t53.5 47.5l286 129q39 18 69 7t44 -40t1 -57.5t-52 -46.5l-289 -129q-37 -18 -69.5 -10t-45.5 41z" />
<glyph unicode="&#xe2;" d="M94 508q2 117 44 215t114 169t170 109.5t211 38.5q41 0 95 -13t85 -30q8 20 26.5 33.5t53.5 13.5q82 0 82 -92v-596q0 -53 9 -109.5t30 -94.5q14 -29 25.5 -53.5t11.5 -49.5q0 -37 -29 -63.5t-61 -26.5q-47 0 -69 23.5t-32 42.5q-18 -10 -49 -20.5t-62.5 -19t-63.5 -12.5 t-52 -4q-113 0 -211 36t-171 104.5t-115 169t-42 229.5zM270 508q0 -80 27 -147.5t75 -119t114.5 -80t146.5 -28.5q49 0 98 13.5t82 27.5q-8 29 -11 58.5t-3 46.5v552q-33 18 -80 32t-86 14q-80 0 -146.5 -28t-114.5 -77t-75 -116.5t-27 -147.5zM309 1198q0 14 8.5 27.5 t18.5 23.5l170 154q14 12 23.5 19.5t25.5 7.5t26.5 -7.5t24.5 -19.5l168 -154q10 -10 18.5 -23.5t8.5 -27.5q0 -23 -16.5 -38t-41.5 -15q-20 0 -31.5 6t-23.5 16l-133 115l-135 -115q-27 -20 -49 -20q-25 0 -43.5 14.5t-18.5 36.5z" />
<glyph unicode="&#xe3;" d="M94 508q2 117 44 215t114 169t170 109.5t211 38.5q41 0 95 -13t85 -30q8 20 26.5 33.5t53.5 13.5q82 0 82 -92v-596q0 -53 9 -109.5t30 -94.5q14 -29 25.5 -53.5t11.5 -49.5q0 -37 -29 -63.5t-61 -26.5q-47 0 -69 23.5t-32 42.5q-18 -10 -49 -20.5t-62.5 -19t-63.5 -12.5 t-52 -4q-113 0 -211 36t-171 104.5t-115 169t-42 229.5zM266 1260q0 18 16.5 40.5t43 41t60.5 30.5t69 12q49 0 82.5 -16t56.5 -35q23 -18 43 -33.5t51 -15.5q27 0 43.5 8t30.5 19q12 10 25.5 18t31.5 8q37 0 47.5 -16t10.5 -39q0 -18 -16.5 -38.5t-42 -39t-57.5 -31 t-63 -12.5q-53 0 -90 18.5t-61 39.5q-23 18 -45.5 31.5t-52.5 13.5q-18 0 -32 -7.5t-42 -29.5q-12 -10 -29.5 -16.5t-28.5 -6.5q-23 0 -37 19.5t-14 36.5zM270 508q0 -80 27 -147.5t75 -119t114.5 -80t146.5 -28.5q49 0 98 13.5t82 27.5q-8 29 -11 58.5t-3 46.5v552 q-33 18 -80 32t-86 14q-80 0 -146.5 -28t-114.5 -77t-75 -116.5t-27 -147.5z" />
<glyph unicode="&#xe4;" d="M94 508q2 117 44 215t114 169t170 109.5t211 38.5q41 0 95 -13t85 -30q8 20 26.5 33.5t53.5 13.5q82 0 82 -92v-596q0 -53 9 -109.5t30 -94.5q14 -29 25.5 -53.5t11.5 -49.5q0 -37 -29 -63.5t-61 -26.5q-47 0 -69 23.5t-32 42.5q-18 -10 -49 -20.5t-62.5 -19t-63.5 -12.5 t-52 -4q-113 0 -211 36t-171 104.5t-115 169t-42 229.5zM270 508q0 -80 27 -147.5t75 -119t114.5 -80t146.5 -28.5q49 0 98 13.5t82 27.5q-8 29 -11 58.5t-3 46.5v552q-33 18 -80 32t-86 14q-80 0 -146.5 -28t-114.5 -77t-75 -116.5t-27 -147.5zM279 1260q0 41 28.5 68.5 t69.5 27.5t69.5 -27.5t28.5 -68.5t-32.5 -70t-73.5 -29t-65.5 29t-24.5 70zM647 1260q0 41 29 68.5t69 27.5q41 0 70 -27.5t29 -68.5t-29 -70t-70 -29t-69.5 29t-28.5 70z" />
<glyph unicode="&#xe5;" d="M94 508q2 117 44 215t114 169t170 109.5t211 38.5q41 0 95 -13t85 -30q8 20 26.5 33.5t53.5 13.5q82 0 82 -92v-596q0 -53 9 -109.5t30 -94.5q14 -29 25.5 -53.5t11.5 -49.5q0 -37 -29 -63.5t-61 -26.5q-47 0 -69 23.5t-32 42.5q-18 -10 -49 -20.5t-62.5 -19t-63.5 -12.5 t-52 -4q-113 0 -211 36t-171 104.5t-115 169t-42 229.5zM270 508q0 -80 27 -147.5t75 -119t114.5 -80t146.5 -28.5q49 0 98 13.5t82 27.5q-8 29 -11 58.5t-3 46.5v552q-33 18 -80 32t-86 14q-80 0 -146.5 -28t-114.5 -77t-75 -116.5t-27 -147.5zM391 1346q0 43 16.5 81.5 t46 67.5t68.5 45t82 16q45 0 84 -16t67.5 -45t45 -67.5t16.5 -81.5t-16.5 -82t-45 -68t-67.5 -45t-84 -16q-43 0 -82 16t-68.5 45t-46 68t-16.5 82zM502 1346q0 -41 29.5 -72t72.5 -31t73 31t30 72t-30 71.5t-73 30.5t-72.5 -31t-29.5 -71z" />
<glyph unicode="&#xe6;" horiz-adv-x="1845" d="M76 508q0 117 42 215t114.5 169t170 109.5t211.5 38.5q41 0 95.5 -13t83.5 -30q10 20 27.5 33.5t51.5 13.5q82 0 82 -92v-45q68 61 154 97t186 36q113 0 202 -39.5t150.5 -109.5t94.5 -163t31 -202q0 -37 -30 -66.5t-87 -29.5h-684q10 -59 38.5 -112.5t71.5 -94.5 t98.5 -65.5t118.5 -24.5q10 0 35 2t54.5 6t59.5 9.5t50 13.5q35 12 66.5 -1t42.5 -48q10 -27 -2.5 -59.5t-47.5 -49.5q-41 -16 -99 -25.5t-105 -11.5h-72q-76 0 -167 21.5t-161 89.5q-57 -47 -150 -79t-188 -32q-113 2 -211 38t-171.5 104.5t-114.5 168t-41 228.5zM250 508 q0 -80 26.5 -147.5t75.5 -119t116 -80t146 -28.5q82 0 135.5 23.5t102.5 58.5q-29 53 -51.5 133t-22.5 184v299q-31 18 -78 32t-86 14q-80 0 -146.5 -28t-115.5 -77t-75.5 -116.5t-26.5 -147.5zM973 594h622q0 49 -22.5 100t-61 91t-94 64.5t-123.5 24.5q-74 0 -131 -25.5 t-98 -65.5t-63.5 -90t-28.5 -99z" />
<glyph unicode="&#xe7;" horiz-adv-x="1046" d="M86 494q0 104 38 202.5t105.5 175t161.5 122.5t205 46q92 0 185 -25.5t165 -88.5q16 -14 25.5 -30.5t9.5 -39.5q0 -33 -22.5 -54.5t-57.5 -21.5q-20 0 -39 13q-37 25 -66.5 40t-58 24t-61.5 12t-78 3q-82 0 -143.5 -30.5t-103.5 -81.5t-62.5 -121t-20.5 -145 q0 -63 25.5 -127t72 -116t108 -85t132.5 -33q53 0 96 5t95 22q6 4 19 7t20 3q35 0 59.5 -21.5t24.5 -62.5q0 -39 -28 -61.5t-70 -35t-89 -15.5t-86 -3v-6v-35q0 -10 4 -17t27 -15q74 -25 118 -76t44 -137q0 -98 -45 -140.5t-113 -42.5h-133q-35 0 -50.5 15.5t-15.5 38.5 t16.5 37t43.5 14h96q47 0 61.5 20.5t14.5 53.5q0 35 -7.5 55t-17.5 31q-12 12 -31.5 20t-35.5 14l-27 9q-35 12 -52.5 36.5t-15.5 71.5v47v10q-94 12 -175 54.5t-140 110t-93 157.5t-34 197z" />
<glyph unicode="&#xe8;" horiz-adv-x="1179" d="M94 487q0 111 38 210.5t105.5 176t163 121.5t209.5 45q113 0 202 -39.5t150.5 -108.5t94.5 -163t33 -203q0 -47 -38 -71.5t-79 -24.5h-688q18 -86 57 -142.5t86 -91t96 -49t90 -14.5q59 0 97.5 6t63 12.5t39.5 12.5t32 6q35 0 58.5 -22.5t23.5 -57.5q0 -49 -40 -73.5 t-93.5 -36t-108.5 -11.5h-88q-109 0 -201 41t-159.5 112t-105.5 165t-38 200zM289 594h622q0 49 -21.5 100t-61.5 91t-94 64.5t-122 24.5q-74 0 -132 -25.5t-99 -65.5t-64.5 -90t-27.5 -99zM385 1357.5q-12 28.5 0 57.5q16 31 45 41t68 -6l286 -131q41 -16 54.5 -46t3.5 -59 q-12 -33 -45 -41t-72 9l-287 131q-41 16 -53 44.5z" />
<glyph unicode="&#xe9;" horiz-adv-x="1179" d="M94 487q0 111 38 210.5t105.5 176t163 121.5t209.5 45q113 0 202 -39.5t150.5 -108.5t94.5 -163t33 -203q0 -47 -38 -71.5t-79 -24.5h-688q18 -86 57 -142.5t86 -91t96 -49t90 -14.5q59 0 97.5 6t63 12.5t39.5 12.5t32 6q35 0 58.5 -22.5t23.5 -57.5q0 -49 -40 -73.5 t-93.5 -36t-108.5 -11.5h-88q-109 0 -201 41t-159.5 112t-105.5 165t-38 200zM289 594h622q0 49 -21.5 100t-61.5 91t-94 64.5t-122 24.5q-74 0 -132 -25.5t-99 -65.5t-64.5 -90t-27.5 -99zM342 1184q-10 29 3 58.5t54 47.5l287 129q39 18 68 7t45 -40q12 -29 -0.5 -57.5 t-53.5 -46.5l-286 -129q-39 -18 -71 -10t-46 41z" />
<glyph unicode="&#xea;" horiz-adv-x="1179" d="M94 487q0 111 38 210.5t105.5 176t163 121.5t209.5 45q113 0 202 -39.5t150.5 -108.5t94.5 -163t33 -203q0 -47 -38 -71.5t-79 -24.5h-688q18 -86 57 -142.5t86 -91t96 -49t90 -14.5q59 0 97.5 6t63 12.5t39.5 12.5t32 6q35 0 58.5 -22.5t23.5 -57.5q0 -49 -40 -73.5 t-93.5 -36t-108.5 -11.5h-88q-109 0 -201 41t-159.5 112t-105.5 165t-38 200zM289 594h622q0 49 -21.5 100t-61.5 91t-94 64.5t-122 24.5q-74 0 -132 -25.5t-99 -65.5t-64.5 -90t-27.5 -99zM358 1198q0 31 25 51l170 154q14 12 24.5 19.5t26.5 7.5t26.5 -7.5t22.5 -19.5 l168 -154q10 -10 18.5 -23.5t8.5 -27.5q0 -23 -16.5 -38t-38.5 -15q-20 0 -31.5 6t-24.5 16l-133 115l-135 -115q-12 -10 -23.5 -15t-27.5 -5q-25 0 -42.5 14.5t-17.5 36.5z" />
<glyph unicode="&#xeb;" horiz-adv-x="1179" d="M94 487q0 111 38 210.5t105.5 176t163 121.5t209.5 45q113 0 202 -39.5t150.5 -108.5t94.5 -163t33 -203q0 -47 -38 -71.5t-79 -24.5h-688q18 -86 57 -142.5t86 -91t96 -49t90 -14.5q59 0 97.5 6t63 12.5t39.5 12.5t32 6q35 0 58.5 -22.5t23.5 -57.5q0 -49 -40 -73.5 t-93.5 -36t-108.5 -11.5h-88q-109 0 -201 41t-159.5 112t-105.5 165t-38 200zM289 594h622q0 49 -21.5 100t-61.5 91t-94 64.5t-122 24.5q-74 0 -132 -25.5t-99 -65.5t-64.5 -90t-27.5 -99zM319 1260q0 41 29 68.5t70 27.5t69.5 -27.5t28.5 -68.5t-32.5 -70t-73.5 -29 t-66 29t-25 70zM688 1260q0 41 28.5 68.5t69.5 27.5t70 -27.5t29 -68.5t-29 -70t-70 -29t-69.5 29t-28.5 70z" />
<glyph unicode="&#xec;" horiz-adv-x="514" d="M38 1357.5q-13 28.5 1 57.5q14 31 44 41t69 -6l286 -131q39 -16 53.5 -46t2.5 -59q-12 -33 -45 -41t-70 9l-289 131q-39 16 -52 44.5zM156 80v860q0 41 30.5 69.5t67.5 28.5q41 0 71.5 -28.5t30.5 -69.5v-860q0 -45 -26.5 -78t-75.5 -33q-47 0 -72.5 33t-25.5 78z" />
<glyph unicode="&#xed;" horiz-adv-x="514" d="M25 1184q-10 29 4 58.5t53 47.5l287 129q39 18 67.5 7t44.5 -40q14 -29 1 -57.5t-52 -46.5l-289 -129q-39 -18 -70.5 -10t-45.5 41zM156 80v860q0 41 30.5 69.5t67.5 28.5q41 0 71.5 -28.5t30.5 -69.5v-860q0 -45 -26.5 -78t-75.5 -33q-47 0 -72.5 33t-25.5 78z" />
<glyph unicode="&#xee;" horiz-adv-x="514" d="M10 1198q0 31 25 51l170 154q14 12 24.5 19.5t26.5 7.5t26.5 -7.5t24.5 -19.5l166 -154q10 -10 18.5 -23.5t8.5 -27.5q0 -23 -16.5 -38t-39.5 -15q-20 0 -31.5 6t-23.5 16l-133 115l-135 -115q-12 -10 -23.5 -15t-27.5 -5q-25 0 -42.5 14.5t-17.5 36.5zM156 80v860 q0 41 30.5 69.5t67.5 28.5q41 0 71.5 -28.5t30.5 -69.5v-860q0 -45 -26.5 -78t-75.5 -33q-47 0 -72.5 33t-25.5 78z" />
<glyph unicode="&#xef;" horiz-adv-x="514" d="M-27 1260q0 41 29 68.5t70 27.5t69.5 -27.5t28.5 -68.5t-33 -70t-74 -29t-65.5 29t-24.5 70zM156 80v860q0 41 30.5 69.5t67.5 28.5q41 0 71.5 -28.5t30.5 -69.5v-860q0 -45 -26.5 -78t-75.5 -33q-47 0 -72.5 33t-25.5 78zM342 1260q0 41 28.5 68.5t69.5 27.5t70 -27.5 t29 -68.5t-29 -70t-70 -29t-69.5 29t-28.5 70z" />
<glyph unicode="&#xf0;" horiz-adv-x="1165" d="M90 506q0 113 42 211t113.5 172t170 117t213.5 43q37 0 65.5 -3.5t56 -9.5t58.5 -18t74 -31q-10 80 -32 142.5t-63 121.5l-90 -67q-23 -16 -38 -21.5t-26 -3.5t-19.5 11.5t-16.5 19.5q-16 20 -19.5 40.5t42.5 55.5l79 60q-16 14 -34.5 29.5t-47.5 35.5q-35 25 -43 53.5 t19 57.5q27 33 57.5 25.5t83.5 -42.5q23 -14 43.5 -29.5t44.5 -37.5l68 49q45 33 64.5 24.5t35.5 -28.5q8 -10 13.5 -20.5t5.5 -23t-9.5 -25.5t-31.5 -30l-60 -43q78 -117 112 -238.5t34 -223.5l2 -813q0 -39 -25.5 -68t-62.5 -29q-25 0 -49.5 14.5t-34.5 49.5 q-37 -25 -68 -38t-59.5 -20.5t-59 -8.5t-69.5 -1q-115 0 -213.5 43t-170 117t-113.5 172t-42 209zM270 506q0 -80 26 -149.5t74 -122t113.5 -82t145.5 -29.5q66 0 131 22.5t121 69.5v582q-61 49 -120 70.5t-132 21.5q-80 0 -145.5 -30t-113.5 -82t-74 -121.5t-26 -149.5z " />
<glyph unicode="&#xf1;" horiz-adv-x="1071" d="M119 68v888q0 53 29.5 72t64.5 19q41 0 59.5 -23t24.5 -66q23 25 52.5 41.5t60 26.5t58.5 15.5t46 5.5q98 0 178 -24t138.5 -83t90 -161.5t31.5 -258.5v-457q0 -41 -25.5 -67.5t-62.5 -26.5t-62.5 27t-25.5 67v406q0 80 -8 155.5t-34.5 135t-76 95.5t-131.5 36 q-55 -2 -112.5 -22.5t-116.5 -80.5v-720q0 -41 -26.5 -70t-63.5 -29q-35 0 -61.5 29t-26.5 70zM242 1231q0 18 16 39.5t43 40t59.5 31t67.5 12.5q51 0 85 -16.5t56 -34.5q23 -16 43.5 -33t51.5 -17q27 2 43 9.5t30 17.5q12 10 25.5 19.5t32.5 9.5q37 0 47 -16.5t10 -39.5 q0 -18 -16.5 -39.5t-42 -39t-57 -29.5t-62.5 -12q-53 0 -90 17t-62 40q-23 18 -45 30.5t-53 12.5q-18 0 -32.5 -6t-43.5 -31q-10 -10 -27.5 -15t-29.5 -5q-23 0 -36 18t-13 37z" />
<glyph unicode="&#xf2;" horiz-adv-x="1177" d="M100 504q0 119 37 218t101.5 170t151.5 110.5t190 39.5q102 0 189 -39.5t151.5 -110.5t101.5 -170t37 -218t-37 -216.5t-101.5 -168t-151.5 -109.5t-189 -39t-189.5 39t-152 109.5t-101.5 168t-37 216.5zM276 494q0 -76 20.5 -141.5t59.5 -115t95.5 -77t128.5 -27.5 t128 27.5t95 77t59.5 115t20.5 141.5t-20.5 145.5t-59.5 121.5t-95.5 84t-127.5 32q-72 0 -128.5 -31t-95.5 -84t-59.5 -123t-20.5 -145zM358 1415q16 31 45 41t68 -6l287 -131q41 -16 54 -46t3 -59q-14 -33 -46 -41t-71 9l-286 131q-41 16 -53.5 44.5t-0.5 57.5z" />
<glyph unicode="&#xf3;" horiz-adv-x="1177" d="M100 504q0 119 37 218t101.5 170t151.5 110.5t190 39.5q102 0 189 -39.5t151.5 -110.5t101.5 -170t37 -218t-37 -216.5t-101.5 -168t-151.5 -109.5t-189 -39t-189.5 39t-152 109.5t-101.5 168t-37 216.5zM276 494q0 -76 20.5 -141.5t59.5 -115t95.5 -77t128.5 -27.5 t128 27.5t95 77t59.5 115t20.5 141.5t-20.5 145.5t-59.5 121.5t-95.5 84t-127.5 32q-72 0 -128.5 -31t-95.5 -84t-59.5 -123t-20.5 -145zM315 1184q-10 29 3.5 58.5t54.5 47.5l286 129q39 18 68 7t43 -40t2 -57.5t-53 -46.5l-287 -129q-39 -18 -71.5 -10t-45.5 41z" />
<glyph unicode="&#xf4;" horiz-adv-x="1177" d="M100 504q0 119 37 218t101.5 170t151.5 110.5t190 39.5q102 0 189 -39.5t151.5 -110.5t101.5 -170t37 -218t-37 -216.5t-101.5 -168t-151.5 -109.5t-189 -39t-189.5 39t-152 109.5t-101.5 168t-37 216.5zM276 494q0 -76 20.5 -141.5t59.5 -115t95.5 -77t128.5 -27.5 t128 27.5t95 77t59.5 115t20.5 141.5t-20.5 145.5t-59.5 121.5t-95.5 84t-127.5 32q-72 0 -128.5 -31t-95.5 -84t-59.5 -123t-20.5 -145zM336 1198q0 31 24 51l170 154q14 12 24.5 19.5t27.5 7.5q16 0 26 -7.5t23 -19.5l168 -154q10 -10 18 -23.5t8 -27.5q0 -23 -16 -38 t-41 -15q-20 0 -31.5 6t-21.5 16l-133 115l-138 -115q-25 -20 -49 -20q-25 0 -42 14.5t-17 36.5z" />
<glyph unicode="&#xf5;" horiz-adv-x="1177" d="M100 504q0 119 37 218t101.5 170t151.5 110.5t190 39.5q102 0 189 -39.5t151.5 -110.5t101.5 -170t37 -218t-37 -216.5t-101.5 -168t-151.5 -109.5t-189 -39t-189.5 39t-152 109.5t-101.5 168t-37 216.5zM276 494q0 -76 20.5 -141.5t59.5 -115t95.5 -77t128.5 -27.5 t128 27.5t95 77t59.5 115t20.5 141.5t-20.5 145.5t-59.5 121.5t-95.5 84t-127.5 32q-72 0 -128.5 -31t-95.5 -84t-59.5 -123t-20.5 -145zM289 1249q0 18 16.5 41t42 41.5t59 30.5t68.5 12q49 0 83 -16.5t56 -34.5q23 -18 43.5 -33.5t53.5 -15.5q27 0 43 8t28 18t25.5 19.5 t32.5 9.5q37 0 47 -17.5t10 -37.5q0 -18 -15.5 -40t-41 -39t-57 -29.5t-64.5 -12.5q-51 0 -89 17.5t-63 39.5q-23 16 -45 29.5t-51 13.5q-20 0 -33.5 -6t-42.5 -30q-12 -10 -29.5 -16.5t-27.5 -6.5q-23 0 -36 19.5t-13 35.5z" />
<glyph unicode="&#xf6;" horiz-adv-x="1177" d="M100 504q0 119 37 218t101.5 170t151.5 110.5t190 39.5q102 0 189 -39.5t151.5 -110.5t101.5 -170t37 -218t-37 -216.5t-101.5 -168t-151.5 -109.5t-189 -39t-189.5 39t-152 109.5t-101.5 168t-37 216.5zM276 494q0 -76 20.5 -141.5t59.5 -115t95.5 -77t128.5 -27.5 t128 27.5t95 77t59.5 115t20.5 141.5t-20.5 145.5t-59.5 121.5t-95.5 84t-127.5 32q-72 0 -128.5 -31t-95.5 -84t-59.5 -123t-20.5 -145zM293 1260q0 41 28.5 68.5t69.5 27.5t69.5 -27.5t28.5 -68.5t-32.5 -70t-73.5 -29t-65.5 29t-24.5 70zM662 1260q0 41 28.5 68.5 t69.5 27.5t69.5 -27.5t28.5 -68.5t-28.5 -70t-69.5 -29t-69.5 29t-28.5 70z" />
<glyph unicode="&#xf7;" horiz-adv-x="1085" d="M90 600q0 41 25.5 66.5t66.5 25.5h723q41 0 65.5 -25.5t24.5 -66.5t-24.5 -64.5t-65.5 -23.5h-723q-41 0 -66.5 23.5t-25.5 64.5zM412 250q0 53 36.5 90t90.5 37q53 0 90 -37t37 -90t-37 -89t-90 -36t-90 36t-37 89zM412 952q0 53 36.5 90t90.5 37q53 0 90 -37t37 -90 t-37 -90t-90 -37t-90 37t-37 90z" />
<glyph unicode="&#xf8;" horiz-adv-x="1177" d="M102 494q0 119 37 219t101.5 174t151.5 114.5t190 40.5q86 0 161 -28l21 43q16 37 48 53t60 2q27 -12 33 -47t-10 -72l-25 -53q88 -74 139.5 -188.5t51.5 -257.5q0 -119 -37 -220.5t-101.5 -175t-151.5 -115.5t-189 -42q-82 0 -158 28l-33 -69q-16 -35 -48 -51.5 t-58 -4.5q-29 14 -35 49t10 70l37 80q-90 74 -142.5 190.5t-52.5 260.5zM279 483q0 -82 23.5 -154.5t68.5 -125.5l303 657q-45 16 -92 17q-72 0 -128.5 -33t-95.5 -87.5t-59 -126t-20 -147.5zM492 119q37 -14 90 -15q72 0 128 31t95 83t59.5 120.5t20.5 144.5 q0 84 -23.5 159t-68.5 130z" />
<glyph unicode="&#xf9;" horiz-adv-x="1064" d="M117 430v524q0 41 25.5 65.5t62.5 24.5q35 0 61.5 -24.5t26.5 -65.5v-448q0 -80 10 -148.5t38 -118t79 -78t131 -28.5q51 0 87 3t61.5 8.5t44 13.5t36.5 20q-4 10 -6 27.5t-2 30.5v712q0 41 26.5 68.5t61.5 27.5t61.5 -27.5t26.5 -68.5v-710q0 -47 11.5 -85t27.5 -75 q8 -23 4 -54.5t-35 -48.5q-25 -14 -46 -14t-37.5 7t-29 21.5t-20.5 30.5q-33 -16 -60.5 -25t-57 -15.5t-67.5 -8.5t-91 -2q-72 0 -147.5 16.5t-138 65.5t-103.5 140.5t-41 238.5zM317.5 1357.5q-12.5 28.5 1.5 57.5q14 31 43 41t68 -6l289 -131q39 -16 53 -46t2 -59 q-12 -33 -45 -41t-72 9l-286 131q-41 16 -53.5 44.5z" />
<glyph unicode="&#xfa;" horiz-adv-x="1064" d="M117 430v524q0 41 25.5 65.5t62.5 24.5q35 0 61.5 -24.5t26.5 -65.5v-448q0 -80 10 -148.5t38 -118t79 -78t131 -28.5q51 0 87 3t61.5 8.5t44 13.5t36.5 20q-4 10 -6 27.5t-2 30.5v712q0 41 26.5 68.5t61.5 27.5t61.5 -27.5t26.5 -68.5v-710q0 -47 11.5 -85t27.5 -75 q8 -23 4 -54.5t-35 -48.5q-25 -14 -46 -14t-37.5 7t-29 21.5t-20.5 30.5q-33 -16 -60.5 -25t-57 -15.5t-67.5 -8.5t-91 -2q-72 0 -147.5 16.5t-138 65.5t-103.5 140.5t-41 238.5zM305 1184q-10 29 3.5 58.5t53.5 47.5l287 129q39 18 68 7t45 -40q12 -29 0 -57.5t-53 -46.5 l-287 -129q-39 -18 -71 -10t-46 41z" />
<glyph unicode="&#xfb;" horiz-adv-x="1064" d="M117 430v524q0 41 25.5 65.5t62.5 24.5q35 0 61.5 -24.5t26.5 -65.5v-448q0 -80 10 -148.5t38 -118t79 -78t131 -28.5q51 0 87 3t61.5 8.5t44 13.5t36.5 20q-4 10 -6 27.5t-2 30.5v712q0 41 26.5 68.5t61.5 27.5t61.5 -27.5t26.5 -68.5v-710q0 -47 11.5 -85t27.5 -75 q8 -23 4 -54.5t-35 -48.5q-25 -14 -46 -14t-37.5 7t-29 21.5t-20.5 30.5q-33 -16 -60.5 -25t-57 -15.5t-67.5 -8.5t-91 -2q-72 0 -147.5 16.5t-138 65.5t-103.5 140.5t-41 238.5zM291 1198q0 31 24 51l172 154q12 12 22.5 19.5t27.5 7.5q16 0 26 -7.5t25 -19.5l168 -154 q24 -20 24 -51q0 -23 -15 -38t-40 -15q-20 0 -31.5 6t-23.5 16l-133 115l-136 -115q-12 -10 -23 -15t-28 -5q-25 0 -42 14.5t-17 36.5z" />
<glyph unicode="&#xfc;" horiz-adv-x="1064" d="M117 430v524q0 41 25.5 65.5t62.5 24.5q35 0 61.5 -24.5t26.5 -65.5v-448q0 -80 10 -148.5t38 -118t79 -78t131 -28.5q51 0 87 3t61.5 8.5t44 13.5t36.5 20q-4 10 -6 27.5t-2 30.5v712q0 41 26.5 68.5t61.5 27.5t61.5 -27.5t26.5 -68.5v-710q0 -47 11.5 -85t27.5 -75 q8 -23 4 -54.5t-35 -48.5q-25 -14 -46 -14t-37.5 7t-29 21.5t-20.5 30.5q-33 -16 -60.5 -25t-57 -15.5t-67.5 -8.5t-91 -2q-72 0 -147.5 16.5t-138 65.5t-103.5 140.5t-41 238.5zM254 1260q0 41 28.5 68.5t69.5 27.5t70 -27.5t29 -68.5t-33 -70t-74 -29t-65.5 29t-24.5 70z M623 1260q0 41 28.5 68.5t69.5 27.5t69.5 -27.5t28.5 -68.5t-28.5 -70t-69.5 -29t-69.5 29t-28.5 70z" />
<glyph unicode="&#xfd;" horiz-adv-x="1173" d="M129 481v473q0 41 26.5 65.5t61.5 24.5q37 0 62.5 -24.5t25.5 -65.5v-422q0 -80 15.5 -155.5t50.5 -134t90 -93t135 -34.5q27 0 59.5 5t67.5 16t69.5 30.5t63.5 48.5v733q0 41 28.5 68.5t63.5 27.5t60.5 -27.5t25.5 -68.5v-1095q0 -117 -40 -192t-103.5 -118t-142 -59 t-158.5 -16q-74 0 -121 3t-82 8t-61.5 13t-57.5 19q-43 20 -51 56t0 58q10 25 38 40.5t62 4.5q27 -10 62 -17t69.5 -12.5t66.5 -7.5t52 -2q92 0 148.5 21.5t88.5 52.5t42 66.5t10 68.5v80v131q-25 -25 -59.5 -42t-69.5 -27.5t-67.5 -15.5t-51.5 -5q-98 0 -185 23.5 t-152.5 82t-103.5 160t-38 254.5zM336 1233q-12 29 2 58.5t53 45.5l289 131q39 16 68 5.5t43 -39.5t1.5 -57.5t-53.5 -47.5l-286 -129q-39 -16 -72 -8t-45 41z" />
<glyph unicode="&#xfe;" horiz-adv-x="1214" d="M111 -500v1977q0 41 24.5 69.5t65.5 28.5t64.5 -29.5t23.5 -68.5v-490q72 45 147.5 54.5t153.5 9.5q111 0 205 -44t162.5 -118t107.5 -172t39 -207q0 -121 -28.5 -220.5t-89 -169t-154 -107.5t-222.5 -38q-29 0 -65.5 4.5t-70.5 15.5t-56.5 31.5t-22.5 55.5 q0 29 22.5 53.5t51.5 24.5q35 0 69.5 -8.5t71.5 -8.5q76 0 135.5 33t99.5 85t60.5 118.5t20.5 134.5q0 72 -23.5 140.5t-66.5 120.5t-105.5 84t-140.5 32q-70 0 -157 -22.5t-144 -67.5v-1301q0 -37 -24.5 -67.5t-63.5 -30.5t-64.5 30.5t-25.5 67.5z" />
<glyph unicode="&#xff;" horiz-adv-x="1173" d="M129 471v483q0 41 26.5 65.5t61.5 24.5q37 0 62.5 -24.5t25.5 -65.5v-432q0 -80 15.5 -155.5t50.5 -134t90 -93.5t135 -35q27 0 59.5 5.5t67.5 17.5t69.5 31.5t63.5 48.5v741q0 41 28.5 68.5t63.5 27.5t60.5 -27.5t25.5 -68.5v-1106q0 -117 -40 -191.5t-103.5 -117.5 t-142 -59.5t-158.5 -16.5q-74 0 -121 3t-82 8.5t-61.5 13.5t-57.5 18q-43 20 -51 56t0 59q10 25 38 40t62 5q27 -10 62 -17.5t69.5 -12.5t66.5 -7t52 -2q92 0 148.5 21.5t88.5 52.5t42 67.5t10 69.5v78v131q-25 -25 -59.5 -42t-69.5 -27.5t-67.5 -15.5t-51.5 -5 q-98 0 -185 23.5t-152.5 82t-103.5 159.5t-38 255zM297 1260q0 41 28.5 68.5t69.5 27.5t70 -27.5t29 -68.5t-33 -70t-74 -29t-65.5 29t-24.5 70zM666 1260q0 41 28.5 68.5t69.5 27.5t69.5 -27.5t28.5 -68.5t-28.5 -70t-69.5 -29t-69.5 29t-28.5 70z" />
<glyph unicode="&#x152;" horiz-adv-x="2490" d="M96 778q0 174 56.5 324.5t153.5 262.5t228.5 175.5t282.5 63.5q158 0 293 -69t233 -187v96q0 70 33 100.5t101 30.5h792q121 0 121 -96q0 -45 -29.5 -63.5t-91.5 -18.5h-729v-525h637q47 0 82 -24.5t35 -69.5q0 -47 -35 -65.5t-82 -18.5h-637v-305q0 -66 18.5 -107.5 t51 -64t73.5 -31t89 -8.5h485q47 0 83 -20.5t36 -65.5t-36 -68.5t-83 -23.5h-549q-49 0 -104.5 11.5t-105.5 38t-89 70.5t-55 109q-98 -123 -236.5 -191.5t-300.5 -68.5q-152 0 -283 61.5t-228 170t-153.5 256t-56.5 321.5zM289 780q0 -131 39 -244.5t108.5 -197.5 t166.5 -132t214 -48q106 0 197.5 41t160 112.5t111.5 169.5t55 213q-41 8 -61 32t-20 56q0 70 79 90q-12 113 -55 212.5t-111.5 173t-158.5 115.5t-197 42q-117 0 -214 -50t-166.5 -137t-108.5 -203t-39 -245z" />
<glyph unicode="&#x153;" horiz-adv-x="1961" d="M102 494q0 106 33 204.5t94.5 175t150.5 122.5t202 46q125 0 227 -61t168 -168q72 109 180.5 168t237.5 59q113 0 202 -39.5t150 -108.5t94 -163t33 -203q0 -47 -38 -71.5t-79 -24.5h-686q33 -141 123 -220t207 -77q51 0 102 7t96 24q14 6 31 6q35 0 58.5 -22.5 t23.5 -57.5q0 -49 -39 -73.5t-93 -35t-109.5 -11.5t-88.5 -1q-121 0 -226 54.5t-177 152.5q-66 -109 -168 -162t-229 -53q-115 0 -204 44t-150.5 118t-93.5 170t-32 201zM279 483q0 -68 18 -132t55 -114.5t94.5 -81t135.5 -30.5q63 0 118.5 25.5t95.5 67.5t63.5 98.5 t23.5 117.5v103q0 61 -23.5 121.5t-63.5 109.5t-95.5 79t-118.5 30q-78 0 -135.5 -36t-94.5 -93.5t-55 -127t-18 -137.5zM1073 594h625q0 59 -25.5 110.5t-67.5 89t-96.5 59t-111.5 21.5q-61 0 -117.5 -20t-99.5 -57t-72 -89.5t-35 -113.5z" />
<glyph unicode="&#x178;" horiz-adv-x="1333" d="M64 1535q12 38 49 58q35 18 73.5 6t59.5 -47l420 -731l421 731q20 35 58.5 47.5t73.5 -6.5q37 -18 51 -55t-6 -72l-498 -878v-520q0 -41 -27.5 -70t-68.5 -29t-72 29t-31 70v520l-495 874q-20 35 -8 73zM383 1790q0 41 28.5 68.5t69.5 27.5t70 -27.5t29 -68.5t-33 -69.5 t-74 -28.5t-65.5 28.5t-24.5 69.5zM772 1790q0 41 28.5 68.5t69.5 27.5t70 -27.5t29 -68.5t-29 -69.5t-70 -28.5t-69.5 28.5t-28.5 69.5z" />
<glyph unicode="&#x2c6;" horiz-adv-x="1040" d="M256 1198q0 14 8 27.5t19 23.5l170 154q14 12 23 19.5t26 7.5q16 0 26.5 -7.5t24.5 -19.5l168 -154q10 -10 18.5 -23.5t8.5 -27.5q0 -23 -16.5 -38t-41.5 -15q-20 0 -31.5 6t-23.5 16l-133 115l-135 -115q-27 -20 -50 -20q-25 0 -43 14.5t-18 36.5z" />
<glyph unicode="&#x2dc;" horiz-adv-x="1071" d="M242 1231q0 18 16 39.5t43 40t59.5 31t67.5 12.5q51 0 85 -16.5t56 -34.5q23 -16 43.5 -33t51.5 -17q27 2 43 9.5t30 17.5q12 10 25.5 19.5t32.5 9.5q37 0 47 -16.5t10 -39.5q0 -18 -16.5 -39.5t-42 -39t-57 -29.5t-62.5 -12q-53 0 -90 17t-62 40q-23 18 -45 30.5 t-53 12.5q-18 0 -32.5 -6t-43.5 -31q-10 -10 -27.5 -15t-29.5 -5q-23 0 -36 18t-13 37z" />
<glyph unicode="&#x2000;" horiz-adv-x="1044" />
<glyph unicode="&#x2001;" horiz-adv-x="2089" />
<glyph unicode="&#x2002;" horiz-adv-x="1044" />
<glyph unicode="&#x2003;" horiz-adv-x="2089" />
<glyph unicode="&#x2004;" horiz-adv-x="696" />
<glyph unicode="&#x2005;" horiz-adv-x="522" />
<glyph unicode="&#x2006;" horiz-adv-x="348" />
<glyph unicode="&#x2007;" horiz-adv-x="348" />
<glyph unicode="&#x2008;" horiz-adv-x="261" />
<glyph unicode="&#x2009;" horiz-adv-x="417" />
<glyph unicode="&#x200a;" horiz-adv-x="116" />
<glyph unicode="&#x2010;" horiz-adv-x="745" d="M76 600q0 41 25.5 66.5t66.5 25.5h412q41 0 66.5 -25.5t25.5 -66.5t-25.5 -64.5t-66.5 -23.5h-412q-41 0 -66.5 23.5t-25.5 64.5z" />
<glyph unicode="&#x2011;" horiz-adv-x="745" d="M76 600q0 41 25.5 66.5t66.5 25.5h412q41 0 66.5 -25.5t25.5 -66.5t-25.5 -64.5t-66.5 -23.5h-412q-41 0 -66.5 23.5t-25.5 64.5z" />
<glyph unicode="&#x2012;" horiz-adv-x="745" d="M76 600q0 41 25.5 66.5t66.5 25.5h412q41 0 66.5 -25.5t25.5 -66.5t-25.5 -64.5t-66.5 -23.5h-412q-41 0 -66.5 23.5t-25.5 64.5z" />
<glyph unicode="&#x2013;" horiz-adv-x="995" d="M49 600q0 41 26.5 66.5t67.5 25.5h711q41 0 66.5 -25.5t25.5 -66.5t-25.5 -64.5t-66.5 -23.5h-711q-41 0 -67.5 23.5t-26.5 64.5z" />
<glyph unicode="&#x2014;" horiz-adv-x="1374" d="M49 600q0 41 26.5 66.5t67.5 25.5h1092q41 0 66.5 -25.5t25.5 -66.5t-25.5 -64.5t-66.5 -23.5h-1092q-41 0 -67.5 23.5t-26.5 64.5z" />
<glyph unicode="&#x2018;" horiz-adv-x="436" d="M90 1264q0 104 20.5 169.5t71.5 129.5q16 23 37 24.5t37 -8.5t20.5 -27.5t-8.5 -35.5q-12 -16 -20 -38t-12.5 -41.5t-2 -36t14.5 -18.5q39 -10 69.5 -40.5t30.5 -77.5q0 -51 -38 -86t-91 -35q-55 0 -92 35.5t-37 85.5z" />
<glyph unicode="&#x2019;" horiz-adv-x="436" d="M90 1456q0 51 38 87t91 36q55 0 92 -36t37 -87q0 -104 -20.5 -169.5t-71.5 -129.5q-16 -23 -36.5 -23.5t-37.5 9.5q-16 10 -21 27.5t9 33.5q12 14 20.5 37t12.5 43.5t2 35.5t-15 17q-39 10 -69.5 41t-30.5 78z" />
<glyph unicode="&#x201a;" horiz-adv-x="425" d="M86 74q2 41 35 82t94 41q35 0 59.5 -12.5t40 -31t22.5 -40t7 -39.5q0 -35 -6 -66q-4 -16 -7 -31.5t-7 -33.5t-8.5 -31.5t-8.5 -26t-9 -26t-13 -33.5q-16 -41 -29.5 -58.5t-40.5 -19.5q-23 0 -34 14.5t-19 30.5q-4 6 -6 13.5t-6 13.5q-14 35 -22.5 60.5t-21.5 66.5 q-8 29 -14 61q-2 14 -4 29.5t-2 36.5z" />
<glyph unicode="&#x201c;" horiz-adv-x="804" d="M100 1264q0 51 4.5 93t14.5 76.5t26.5 66.5t38.5 63q16 23 36 24.5t34 -8.5q16 -10 20.5 -27.5t-10.5 -35.5q-10 -16 -18 -38t-11.5 -41.5t-1 -36t12.5 -18.5q37 -10 65.5 -40.5t28.5 -77.5q0 -51 -35 -86t-86 -35t-85 35.5t-34 85.5zM465 1264q2 104 20.5 169.5 t65.5 129.5q16 23 35.5 24.5t34.5 -8.5q14 -10 18 -27.5t-8 -35.5q-10 -16 -18.5 -38t-12.5 -41.5t-1 -36t13 -18.5q37 -10 66 -40.5t29 -77.5q0 -51 -36 -86t-85 -35q-53 0 -87 35.5t-34 85.5z" />
<glyph unicode="&#x201d;" horiz-adv-x="804" d="M100 1456q0 51 35 87t84 36q53 0 87 -36t34 -87q0 -104 -19.5 -169.5t-66.5 -129.5q-16 -23 -34.5 -23.5t-33.5 9.5q-16 10 -20 27.5t8 35.5q10 14 18.5 36t12.5 42.5t2 35.5t-12 17q-37 10 -66 41t-29 78zM465 1456q0 51 36 87t85 36q53 0 87 -36t34 -87 q0 -104 -19.5 -169.5t-66.5 -129.5q-16 -23 -35 -23.5t-35 9.5q-14 10 -18.5 27.5t8.5 35.5q10 14 18 36t12 42.5t1 35.5t-13 17q-35 10 -64.5 41t-29.5 78z" />
<glyph unicode="&#x201e;" horiz-adv-x="763" d="M78 82q0 20 8 41.5t23.5 40t38 30t51.5 11.5q31 0 53 -12.5t36.5 -31t21.5 -40t7 -39.5q0 -35 -6 -66q-2 -16 -6 -31.5t-8 -33.5q-8 -37 -13 -56.5t-22 -60.5q-14 -41 -28.5 -58.5t-36.5 -17.5q-20 -2 -30.5 12.5t-19.5 30.5q-4 8 -6 14.5t-6 14.5q-12 35 -19 59.5 t-20 65.5q-10 39 -12 61q-6 27 -6 66zM446 82q0 20 8.5 41.5t24 40t37 30t49.5 11.5q33 0 55.5 -12.5t37 -31t21.5 -40t7 -39.5q0 -35 -6 -66q-4 -16 -7 -31.5t-7 -33.5t-7.5 -30.5t-7.5 -25t-8 -26.5t-12 -35q-16 -41 -29.5 -58.5t-36.5 -17.5q-20 -2 -31.5 12.5 t-17.5 30.5q-4 8 -6 14.5t-6 14.5q-14 35 -21.5 59.5t-17.5 65.5q-4 18 -7 32.5t-7 28.5q-2 14 -3.5 29.5t-1.5 36.5z" />
<glyph unicode="&#x2022;" horiz-adv-x="792" d="M182 758q0 84 58.5 142t142.5 58t142.5 -58t58.5 -142t-58.5 -142.5t-142.5 -58.5t-142.5 58.5t-58.5 142.5z" />
<glyph unicode="&#x2026;" horiz-adv-x="1331" d="M82 66q0 53 37 90t90 37t90 -37t37 -90t-37 -90t-90 -37t-90 36.5t-37 90.5zM522 66q0 53 37 90t90 37t90 -37t37 -90t-37 -90t-90 -37t-90 36.5t-37 90.5zM963 66q0 53 36.5 90t90.5 37q53 0 90 -37t37 -90t-37 -90t-90 -37t-90 36.5t-37 90.5z" />
<glyph unicode="&#x202f;" horiz-adv-x="417" />
<glyph unicode="&#x2039;" horiz-adv-x="632" d="M90 641q0 23 9.5 38t29.5 36l258 276q16 16 36.5 27.5t41.5 11.5q35 0 57.5 -23.5t22.5 -58.5q0 -31 -10.5 -47t-26.5 -37l-199 -223l199 -231q16 -18 25.5 -36t9.5 -40q0 -37 -21.5 -62.5t-56.5 -25.5q-20 0 -41 11t-37 28l-258 280q-20 23 -29.5 37t-9.5 39z" />
<glyph unicode="&#x203a;" horiz-adv-x="632" d="M90 948q0 35 21.5 58.5t56.5 23.5q23 0 43 -11t37 -28l256 -276q20 -20 30.5 -35.5t10.5 -38.5q0 -25 -10.5 -39t-30.5 -37l-256 -280q-16 -16 -37 -27.5t-43 -11.5q-35 0 -55.5 25.5t-20.5 62.5q0 23 8.5 40t24.5 36l199 231l-199 223q-16 20 -25.5 37t-9.5 47z" />
<glyph unicode="&#x205f;" horiz-adv-x="522" />
<glyph unicode="&#x20ac;" horiz-adv-x="1476" d="M49 610q0 35 26.5 58.5t71.5 23.5h31q0 16 -1 33.5t-1 34.5q0 31 1 60.5t3 58.5h-33q-45 0 -71.5 22.5t-26.5 56.5q0 33 26.5 56.5t71.5 23.5h58q31 145 93 252t145 176.5t181.5 103.5t200.5 34q100 0 195.5 -37t168.5 -98.5t117 -143.5t44 -172q0 -49 -32 -75.5 t-69 -28.5t-68.5 23.5t-31.5 80.5q0 25 -18.5 70t-59.5 89t-105.5 76.5t-156.5 32.5q-135 0 -242.5 -99t-158.5 -284h311q43 0 69.5 -23.5t26.5 -56.5q0 -35 -26.5 -57t-69.5 -22h-340q-6 -59 -6 -119v-34.5t2 -33.5h344q43 0 69.5 -23.5t26.5 -58.5q0 -33 -26.5 -56.5 t-69.5 -23.5h-328q14 -121 66.5 -195.5t118 -115.5t135 -56.5t118.5 -15.5q86 0 152 25t129 61q35 23 67.5 15t49.5 -27q16 -29 22 -55q4 -25 -5 -52.5t-50 -50.5q-86 -47 -159.5 -70.5t-164.5 -23.5q-33 0 -90 2t-126.5 16.5t-143.5 48.5t-139.5 95.5t-113.5 158.5t-67 240 h-43q-45 0 -71.5 24t-26.5 56z" />
<glyph unicode="&#x2122;" horiz-adv-x="1064" d="M121 1546q0 10 8 19.5t21 9.5h319q12 0 21.5 -9.5t9.5 -19.5q0 -12 -9.5 -20t-21.5 -8h-129v-406q0 -10 -9 -19.5t-22 -9.5q-12 0 -20 9.5t-8 19.5v406h-131q-29 0 -29 28zM453 1118l104 436q4 23 29 23q23 0 28 -23l84 -335l84 335q8 27 33 23q18 0 27 -23l104 -436 q4 -29 -22 -35q-27 -6 -35 23l-78 330l-84 -330q-6 -23 -29 -23t-28 23l-82 328l-78 -328q-4 -12 -14.5 -19.5t-20.5 -3.5q-29 8 -22 35z" />
<glyph unicode="&#x25fc;" horiz-adv-x="1044" d="M0 0v1044h1044v-1044h-1044z" />
<glyph unicode="&#xfb01;" horiz-adv-x="1343" d="M84 956q0 41 24.5 59.5t59.5 23.5t73 2t64 -3v131q0 406 404 406q35 0 66.5 -20.5t31.5 -61.5q0 -82 -80 -82q-117 0 -179.5 -60.5t-62.5 -176.5v-136h580q41 0 71.5 -28.5t30.5 -69.5v-836v-28q2 -45 -26.5 -77t-75.5 -32q-35 0 -57.5 18.5t-32.5 49.5q-4 10 -6 21.5 t-2 23.5v797h-482v-814q0 -37 -24.5 -66.5t-63.5 -29.5t-65.5 30t-26.5 66v814q-23 0 -46 -1.5t-46 -1.5t-45.5 2.5t-40.5 11.5t-30.5 24.5t-12.5 43.5zM940 1382q0 53 37 89t90 36t90 -36t37 -89t-37 -90t-90 -37t-90 37t-37 90z" />
<glyph unicode="&#xfb02;" horiz-adv-x="1361" d="M84 956q0 43 24.5 60.5t59.5 22.5t73 2t64 -3v131q0 88 22.5 163t67.5 129.5t115 84t164 29.5h317q29 29 70 29t67.5 -29t26.5 -70v-1120q0 -74 16.5 -136.5t55.5 -125.5q20 -31 20 -62q0 -37 -25.5 -64.5t-62.5 -27.5q-59 0 -96 44t-59.5 104.5t-30.5 125t-8 107.5v1061 h-265q-104 0 -159.5 -69.5t-55.5 -167.5v-136h246q37 0 62.5 -21.5t25.5 -60.5t-25.5 -59t-62.5 -20h-246v-814q0 -37 -24.5 -66.5t-63.5 -29.5t-65.5 30t-26.5 66v814q-25 0 -62.5 -3.5t-72.5 2t-60.5 22.5t-25.5 58z" />
</font>
</defs>
</svg>
