<?xml version="1.0" standalone="no"?>
<!DOCTYPE svg PUBLIC "-//W3C//DTD SVG 1.1//EN" "http://www.w3.org/Graphics/SVG/1.1/DTD/svg11.dtd" >
<svg xmlns="http://www.w3.org/2000/svg">
<metadata></metadata>
<defs>
<font id="moriston_personallight" horiz-adv-x="1277" >
<font-face units-per-em="2048" ascent="1638" descent="-410" />
<missing-glyph horiz-adv-x="503" />
<glyph horiz-adv-x="0" />
<glyph horiz-adv-x="682" />
<glyph horiz-adv-x="0" />
<glyph horiz-adv-x="0" />
<glyph unicode="&#xd;" horiz-adv-x="503" />
<glyph unicode=" "  horiz-adv-x="503" />
<glyph unicode="&#x09;" horiz-adv-x="503" />
<glyph unicode="&#xa0;" horiz-adv-x="503" />
<glyph unicode="!" horiz-adv-x="485" d="M186 0v240h117v-240h-117zM190 1638h107l-10 -1230h-86z" />
<glyph unicode="&#x22;" horiz-adv-x="503" d="M88 1536h119l-21 -557h-77zM301 1536h117l-21 -557h-75z" />
<glyph unicode="#" horiz-adv-x="1312" d="M2 471v82h281l102 448h-285v82h306l104 453h88l-106 -453h411l105 453h88l-107 -453h262v-82h-280l-105 -448h287v-82h-307l-109 -473h-86l109 473h-412l-108 -473h-86l108 473h-260zM369 553h411l103 448h-410z" />
<glyph unicode="$" horiz-adv-x="1112" d="M27 442l98 13q17 -102 59.5 -180t101.5 -124.5t122.5 -72t134.5 -33.5l4 715q-80 18 -145 40t-125 56t-100.5 77t-64.5 103t-24 133q0 176 127 289.5t332 122.5v195h94l-2 -197q102 -9 184 -46.5t134.5 -94.5t84 -123.5t43.5 -140.5l-106 -7q-13 132 -100.5 221 t-239.5 103v-641q85 -20 148 -40.5t130 -56t109 -80t69 -112t27 -151.5q0 -136 -65.5 -238.5t-174.5 -155.5t-247 -59v-186h-92v186q-217 17 -352.5 147t-163.5 338zM195 1182q0 -73 23 -125.5t73.5 -87.5t108.5 -57t149 -44v115l-2 510q-160 -9 -256 -95.5t-96 -215.5z M635 41q169 9 275 112t106 250q0 135 -88 213.5t-289 124.5v-295h-2z" />
<glyph unicode="%" horiz-adv-x="1460" d="M14 1174q0 94 28.5 169t75.5 119t101.5 67t110.5 23q57 0 112 -23.5t101.5 -68t75 -120t28.5 -169.5q0 -95 -28.5 -171t-75 -121t-101.5 -68t-112 -23q-56 0 -110.5 23.5t-101.5 69t-75.5 122t-28.5 171.5zM100 1171q0 -143 68 -226t162 -83q95 0 162 82.5t67 226.5 q0 143 -67 225.5t-162 82.5q-94 0 -162 -83t-68 -225zM184 0l1008 1536h96l-1005 -1536h-99zM825 367q0 95 28.5 170t75.5 119t101 66.5t111 22.5t112 -23t101.5 -67.5t75 -119.5t28.5 -170t-28.5 -170.5t-75 -120.5t-101.5 -68.5t-112 -23.5q-56 0 -110.5 23.5t-101.5 69 t-75.5 121.5t-28.5 171zM911 365q0 -143 68 -226.5t162 -83.5q95 0 162 83t67 227q0 143 -67 225t-162 82q-94 0 -162 -82.5t-68 -224.5z" />
<glyph unicode="&#x26;" horiz-adv-x="1271" d="M49 369q0 70 23.5 131.5t59.5 105.5t87 82t97.5 61.5t99.5 43.5q-43 47 -69.5 80.5t-59 86t-48.5 112.5t-16 128q0 161 111.5 268t277.5 107q63 0 118.5 -15t106.5 -50t88 -87.5t60.5 -132.5t26.5 -180h-111q0 193 -79 285t-212 92q-87 0 -153 -44.5t-96.5 -108.5 t-30.5 -132q0 -37 7 -73t23.5 -70.5t30.5 -60.5t40 -58.5t39.5 -49t42.5 -48t36 -39.5l381 -422q90 178 137 430l94 -25q-57 -289 -166 -481l265 -305h-136l-180 207q-183 -248 -473 -248q-192 0 -307 118t-115 292zM156 358q0 -130 97 -219.5t228 -89.5q130 0 223.5 58 t174.5 174l-385 434q-71 -25 -128.5 -57t-106.5 -75.5t-76 -101t-27 -123.5z" />
<glyph unicode="'" horiz-adv-x="296" d="M104 1536h89l-13 -557h-63z" />
<glyph unicode="(" horiz-adv-x="524" d="M98 578q0 135 18 266t47 232.5t64 192.5t70 155t64 111t47 70l18 23l55 -59q-12 -17 -32 -47.5t-70.5 -132t-89.5 -210t-71 -273t-32 -328.5q0 -120 16.5 -239t42.5 -214.5t57.5 -182.5t62.5 -150.5t57 -111t42 -70.5l17 -24l-55 -59q-7 8 -18.5 23.5t-46 69t-65.5 113 t-68.5 154t-65 194t-46 231t-18.5 266.5z" />
<glyph unicode=")" horiz-adv-x="524" d="M43 -414q12 17 32 47.5t70.5 132.5t89.5 210.5t71 273t32 328.5q0 120 -16.5 239t-42.5 214t-57 182.5t-62.5 150.5t-57.5 110.5t-42 71.5l-17 23l55 59q7 -8 18.5 -23.5t45.5 -69t65 -112.5t68.5 -153.5t64.5 -194t45.5 -231t18.5 -266.5t-18 -266t-46.5 -232.5 t-63.5 -192.5t-70 -155.5t-63.5 -111.5t-46.5 -70l-18 -23z" />
<glyph unicode="*" horiz-adv-x="1009" d="M109 1214l28 93l330 -125l-8 354h92l-6 -352l327 123l29 -95l-332 -108l207 -295l-71 -59l-201 309l-201 -307l-74 57l213 297z" />
<glyph unicode="+" horiz-adv-x="1388" d="M156 485v101h487v483h100v-483h490v-101h-490v-485h-100v485h-487z" />
<glyph unicode="," horiz-adv-x="524" d="M180 0v223h164v-223q0 -103 -40 -171.5t-118 -86.5v88q37 14 52 49.5t18 120.5h-76z" />
<glyph unicode="-" horiz-adv-x="806" d="M180 582v86h447v-86h-447z" />
<glyph unicode="." horiz-adv-x="524" d="M180 0v223h164v-223h-164z" />
<glyph unicode="/" horiz-adv-x="794" d="M20 -158l654 1913h100l-655 -1913h-99z" />
<glyph unicode="0" horiz-adv-x="1353" d="M96 756q0 224 75 406t208 286t297 104t297.5 -104t208.5 -286t75 -406q0 -225 -75 -408t-208.5 -288t-297.5 -105t-297 105t-208 288t-75 408zM201 756q0 -196 56.5 -356.5t166 -256.5t252.5 -96t252.5 96t167 256.5t57.5 356.5q0 195 -57.5 354.5t-167 254.5t-252.5 95 t-252 -95t-166 -254.5t-57 -354.5z" />
<glyph unicode="1" horiz-adv-x="827" d="M117 1257v86q93 9 166 61.5t106 131.5h103v-1448h227v-88h-563v88h233v1294q-145 -125 -272 -125z" />
<glyph unicode="2" horiz-adv-x="1107" d="M92 0v82q42 39 117 109.5t116.5 109.5t108 103.5t104.5 105t91 100.5t83.5 103.5t65 99.5t52.5 104t30 101.5t12 105.5q0 172 -89 259t-228 87q-156 0 -253 -114t-97 -330l-105 4q0 233 120.5 382t326.5 149q197 0 313.5 -115.5t116.5 -310.5q0 -61 -13 -122t-33 -115.5 t-57.5 -116t-72 -111.5t-92.5 -114.5t-103.5 -112t-120 -117.5t-126.5 -116.5t-138 -123.5h797v-86h-926z" />
<glyph unicode="3" horiz-adv-x="1118" d="M63 436l99 8q15 -168 121 -270.5t274 -101.5q175 1 273 94t98 235q0 178 -125.5 269.5t-343.5 91.5h-58v98h54q76 0 147 21.5t128 61.5t91.5 104.5t34.5 144.5q0 125 -83.5 197.5t-225.5 72.5q-140 0 -235 -98.5t-97 -237.5l-98 7q2 75 33.5 149t85 134.5t134.5 98 t175 37.5q192 0 305 -105.5t113 -264.5q0 -130 -80.5 -223t-245.5 -136q395 -71 395 -409q0 -192 -132 -312t-341 -120q-211 0 -344 127.5t-152 326.5z" />
<glyph unicode="4" horiz-adv-x="1163" d="M70 487v86l680 963h116v-963h226v-86h-226v-487h-98v487h-698zM186 573h582v838z" />
<glyph unicode="5" horiz-adv-x="1165" d="M78 424l88 18q31 -180 144 -279.5t268 -99.5q77 0 146.5 28.5t122 81.5t83.5 133.5t31 178.5q0 197 -105.5 319t-259.5 122q-119 0 -220 -69t-147 -181h-96l76 860h754v-86h-666l-53 -612q142 170 354 170q211 0 339 -144t128 -377q0 -229 -137 -367t-353 -138 q-206 0 -334.5 121.5t-162.5 320.5z" />
<glyph unicode="6" horiz-adv-x="1171" d="M96 748q0 174 36.5 315.5t93 230t130 149t144 85t137.5 24.5q154 0 269 -101.5t136 -242.5l-88 -6q-6 38 -29.5 81t-61 84t-97 68t-127.5 27q-61 0 -120.5 -23.5t-118.5 -79.5t-103.5 -139t-72 -213.5t-27.5 -291.5l2 -115q37 187 154 301.5t270 114.5q92 0 177.5 -39.5 t149 -107.5t102 -165t38.5 -206q0 -135 -66 -254t-179 -190.5t-243 -71.5q-101 0 -191.5 49.5t-161 143t-112 241.5t-41.5 332zM252 496q0 -172 105 -298t251 -126q148 0 261.5 125t113.5 297q0 189 -105.5 311.5t-256.5 122.5t-260 -123.5t-109 -308.5z" />
<glyph unicode="7" horiz-adv-x="888" d="M57 1450v86h832v-88q-57 -78 -127.5 -205t-155.5 -309.5t-169.5 -429t-145.5 -504.5h-109q61 252 149 502t175.5 438t153.5 312t114 198h-717z" />
<glyph unicode="8" horiz-adv-x="1189" d="M96 436q0 148 86 252.5t221 151.5q-109 41 -173 129.5t-64 212.5q0 87 38 158.5t100 117t137 70t153 24.5t153.5 -24.5t137.5 -70t100.5 -117.5t38.5 -158q0 -124 -65 -212.5t-175 -129.5q136 -48 223 -152.5t87 -251.5q0 -103 -44.5 -191t-117 -144t-160.5 -87.5 t-178 -31.5t-177.5 31.5t-159.5 87.5t-116.5 143.5t-44.5 191.5zM199 436q0 -107 58 -192t147.5 -128.5t189.5 -43.5t189.5 43.5t147.5 128.5t58 192q0 109 -58 193t-147 126t-190 42t-190 -42t-147 -126t-58 -193zM270 1182q0 -133 97 -218t227 -85t228 85t98 218 q0 132 -96 206t-230 74t-229 -74t-95 -206z" />
<glyph unicode="9" horiz-adv-x="1171" d="M96 1036q0 135 66 254t179 190.5t243 71.5q101 0 191.5 -49.5t161 -143t112 -241.5t41.5 -332q0 -174 -34 -315.5t-87.5 -230.5t-124 -149t-138.5 -84.5t-135 -24.5q-84 0 -161 35t-131.5 90t-91 119.5t-48.5 127.5l92 13q11 -50 37.5 -100t67 -94.5t100.5 -72.5t129 -28 q47 0 94.5 17t95.5 52t89.5 95.5t73.5 140t50.5 193.5t18.5 249q0 72 -2 115q-35 -188 -152 -302t-270 -114q-92 0 -177.5 39.5t-149 107.5t-102 165t-38.5 206zM203 1040q0 -189 105.5 -311.5t256.5 -122.5t260 123.5t109 308.5q0 172 -105 298t-251 126 q-148 0 -261.5 -125t-113.5 -297z" />
<glyph unicode=":" horiz-adv-x="524" d="M180 0v223h164v-223h-164zM180 903v223h164v-223h-164z" />
<glyph unicode=";" horiz-adv-x="524" d="M180 0v223h164v-223q0 -103 -40 -171.5t-118 -86.5v88q37 14 52 49.5t18 120.5h-76zM180 903v223h164v-223h-164z" />
<glyph unicode="&#x3c;" horiz-adv-x="1282" d="M123 481v142l1036 430v-121l-928 -381l928 -379v-121z" />
<glyph unicode="=" horiz-adv-x="1388" d="M156 293v100h1077v-100h-1077zM156 672v100h1077v-100h-1077z" />
<glyph unicode="&#x3e;" horiz-adv-x="1200" d="M82 51v121l928 379l-928 381v121l1036 -430v-142z" />
<glyph unicode="?" horiz-adv-x="1048" d="M102 1094q0 207 125.5 344t325.5 137q178 0 293 -103t115 -280q0 -51 -11 -98.5t-26 -83.5t-42.5 -73t-47.5 -59.5t-54.5 -51.5t-50.5 -41t-48 -34q-12 -8 -17 -12q-75 -52 -111.5 -105.5t-36.5 -144.5v-81h-102v77q0 39 6 74t13 60t24.5 51.5t27.5 41t35.5 37t36 31 t39.5 31.5q10 8 51.5 38t60.5 45.5t52.5 51t50 66.5t30 79t13.5 101q0 138 -83.5 217.5t-217.5 79.5q-153 0 -250.5 -115.5t-97.5 -279.5h-103zM406 0v240h116v-240h-116z" />
<glyph unicode="@" horiz-adv-x="1970" d="M61 573q0 155 44.5 302t128.5 269.5t198.5 215t263 144.5t312.5 52q166 0 309.5 -44t248.5 -121.5t180 -181t112.5 -224t37.5 -248.5q0 -190 -63.5 -342t-168 -233.5t-228.5 -81.5q-105 0 -164.5 66t-57.5 155q-119 -215 -346 -215q-181 0 -282.5 135t-69.5 350 q20 138 89 244.5t169.5 163.5t214.5 57q147 0 229 -89t97 -222l63 254h95l-156 -580q-25 -100 8 -171.5t119 -71.5q98 0 179.5 77.5t127 209.5t45.5 288q0 215 -104 382.5t-281 257t-395 89.5q-129 0 -252.5 -39t-231 -117t-189 -185t-128.5 -251.5t-47 -308.5 q0 -129 31 -247.5t87 -214.5t135 -175.5t172.5 -133t202 -83t222.5 -29.5q275 0 541 185l51 -72q-103 -94 -272.5 -151.5t-327.5 -57.5q-85 0 -174 17t-182.5 55.5t-179 93.5t-161.5 137t-131.5 181t-88 230t-32.5 279zM621 553q-24 -168 44.5 -265.5t202.5 -97.5 q139 0 246.5 104.5t128.5 276.5q23 165 -46.5 262t-203.5 97q-140 0 -245.5 -103t-126.5 -274z" />
<glyph unicode="A" horiz-adv-x="1335" d="M51 2l567 1534h121l545 -1534h-100l-180 485h-678l-172 -485h-103zM358 569h613l-287 858h-4z" />
<glyph unicode="B" horiz-adv-x="1345" d="M188 0v1536h543q208 0 327.5 -94.5t119.5 -280.5q0 -82 -29 -146t-78 -103t-100 -62t-109 -35q49 -4 98.5 -16.5t106.5 -41.5t99.5 -70.5t71 -109.5t28.5 -153q0 -95 -29.5 -169.5t-78.5 -121.5t-118 -77.5t-142.5 -43t-158.5 -12.5h-551zM291 86h414q105 0 185 17.5 t142 56t94.5 106.5t32.5 164q0 76 -25.5 134.5t-68.5 94.5t-106.5 58.5t-131.5 31.5t-151 9h-385v-672zM291 842h342q63 0 122.5 9.5t118.5 32.5t103 58t71 90.5t27 124.5q0 70 -20.5 122.5t-55 84.5t-88 51.5t-112 27t-133.5 7.5h-375v-608z" />
<glyph unicode="C" horiz-adv-x="1570" d="M96 766q0 185 56.5 340t152.5 258t222.5 160t265.5 57q117 0 226 -41t198.5 -116t154.5 -187.5t94 -249.5l-106 -12q-55 238 -209.5 379t-357.5 141q-121 0 -229.5 -53t-188 -147t-126 -231.5t-46.5 -297.5q0 -158 46 -294t125.5 -230t188 -147.5t230.5 -53.5 q198 0 349 132t210 355l108 -6q-44 -173 -146.5 -303t-237.5 -197t-283 -67q-134 0 -259 57.5t-222.5 159.5t-156.5 257t-59 337z" />
<glyph unicode="D" horiz-adv-x="1435" d="M188 0v1536h396q152 0 286.5 -52t236 -147.5t161 -243t59.5 -327.5q0 -179 -59.5 -326t-162 -242t-236.5 -146.5t-285 -51.5h-396zM291 86h266q139 0 258 42.5t210.5 124.5t143.5 214t52 299t-54 299.5t-146.5 215.5t-211 126t-252.5 43h-266v-1364z" />
<glyph unicode="E" horiz-adv-x="1167" d="M188 2v1534h897v-86h-794v-635h702v-86h-702v-641h794v-88z" />
<glyph unicode="F" horiz-adv-x="1126" d="M188 0v1536h856v-86h-753v-686h663v-86h-663v-678h-103z" />
<glyph unicode="G" horiz-adv-x="1630" d="M109 766q0 183 56.5 337.5t152.5 258t222 161.5t265 58q157 0 295.5 -71.5t239.5 -209t139 -319.5l-107 -6q-56 235 -210.5 377.5t-356.5 142.5q-162 0 -296.5 -91.5t-214 -259.5t-79.5 -378q0 -158 46 -294t125.5 -230t188 -147.5t230.5 -53.5q102 0 193 36.5t159 98 t119 141t79.5 167t33.5 175.5h-459v99h557v-758h-78v416q-43 -145 -136 -250.5t-213.5 -158t-254.5 -52.5q-107 0 -209 36t-190 106t-154.5 166.5t-104.5 226.5t-38 276z" />
<glyph unicode="H" horiz-adv-x="1513" d="M188 0v1536h103v-737h932v737h102v-1536h-102v717h-932v-717h-103z" />
<glyph unicode="I" horiz-adv-x="479" d="M188 0v1536h103v-1536h-103z" />
<glyph unicode="J" horiz-adv-x="808" d="M43 4l4 92q18 -2 45 -2q225 0 325.5 134.5t100.5 400.5v907h103v-913q0 -309 -129.5 -465t-399.5 -156q-31 0 -49 2z" />
<glyph unicode="K" horiz-adv-x="1177" d="M188 0v1536h103v-756l645 758h133l-661 -770l753 -768h-143l-727 741v-741h-103z" />
<glyph unicode="L" horiz-adv-x="964" d="M188 0v1534h103v-1448h571v-86h-674z" />
<glyph unicode="M" horiz-adv-x="1808" d="M188 0v1536h170l537 -1395l551 1395h174v-1536h-102v1470l-586 -1470h-82l-563 1452v-1450z" />
<glyph unicode="N" horiz-adv-x="1505" d="M188 0v1536h88l947 -1372v1370l94 2v-1536h-90l-944 1370v-1370h-95z" />
<glyph unicode="O" horiz-adv-x="1609" d="M109 766q0 185 56.5 340t152.5 258t222 160t265 57t265 -57t222 -160t152.5 -258t56.5 -340q0 -146 -38 -276t-104.5 -226.5t-154.5 -166.5t-190 -106t-209 -36t-209 36t-190 106t-154.5 166.5t-104.5 226.5t-38 276zM215 766q0 -158 46 -294t125.5 -230t188 -147.5 t230.5 -53.5t230.5 53.5t188 147.5t125.5 230t46 294q0 160 -46.5 297.5t-126 231.5t-188 147t-229.5 53t-229.5 -53t-188 -147t-126 -231.5t-46.5 -297.5z" />
<glyph unicode="P" horiz-adv-x="1325" d="M188 0v1536h562q100 0 188.5 -26.5t162 -79.5t116.5 -144t43 -209q0 -95 -31.5 -173t-83.5 -129t-122 -86t-144.5 -50.5t-153.5 -15.5h-434v-623h-103zM291 705h428q65 0 126 12.5t117.5 41t98.5 70t67 104t25 138.5q0 95 -34 169.5t-91.5 119t-128.5 67.5t-151 23h-457 v-745z" />
<glyph unicode="Q" horiz-adv-x="1609" d="M109 766q0 185 56.5 340t152.5 258t222 160t265 57t265 -57t222 -160t152.5 -258t56.5 -340q0 -214 -77 -383.5t-210 -278.5l172 -229l-65 -55l-176 235q-162 -100 -340 -100q-107 0 -209 36t-190 106t-154.5 166.5t-104.5 226.5t-38 276zM215 766q0 -158 46 -294 t125.5 -230t188 -147.5t230.5 -53.5q155 0 289 86l-179 240l66 53l180 -242q109 98 171.5 250t62.5 338q0 160 -46.5 297.5t-126 231.5t-188 147t-229.5 53t-229.5 -53t-188 -147t-126 -231.5t-46.5 -297.5z" />
<glyph unicode="R" horiz-adv-x="1353" d="M188 0v1536h553q221 0 353.5 -106.5t132.5 -296.5q0 -148 -88 -246.5t-224 -134.5q137 -18 209 -94.5t72 -223.5v-164q0 -169 80 -256v-14h-115q-71 89 -71 272v152q0 139 -82 206.5t-224 67.5h-493v-698h-103zM291 782h407q198 0 310 96.5t112 249.5q0 152 -97 237 t-288 85h-444v-668z" />
<glyph unicode="S" horiz-adv-x="1236" d="M63 442l99 13q15 -92 52 -164.5t85 -118.5t108 -76t118.5 -42.5t119.5 -12.5q180 0 294 104t114 258q0 144 -100.5 224.5t-334.5 126.5q-109 22 -191.5 51.5t-154 77.5t-109.5 120t-38 166q0 184 136 298t355 114q94 0 173.5 -23t135.5 -61t97.5 -91t65.5 -110.5 t34 -121.5l-106 -7q-13 144 -116 236t-282 92q-174 0 -280.5 -88.5t-106.5 -224.5q0 -45 10 -82.5t26.5 -66t45.5 -52t59.5 -40.5t76 -32.5t87 -26.5t101.5 -24q65 -14 113.5 -27t106 -34t98.5 -43.5t82 -56.5t66 -74t40.5 -94.5t15.5 -118.5q0 -142 -71 -247t-187.5 -156.5 t-263.5 -51.5q-241 0 -392.5 132.5t-181.5 354.5z" />
<glyph unicode="T" horiz-adv-x="1073" d="M51 1446v90h971v-90h-434v-1446h-103v1446h-434z" />
<glyph unicode="U" horiz-adv-x="1486" d="M188 610v926h103v-883q0 -107 9.5 -190t38.5 -165.5t77 -136t130.5 -87t194.5 -33.5q81 0 146.5 17t112.5 46t82 73.5t56.5 94t34.5 113.5t18 126.5t5 137.5v887h102v-926q0 -318 -133.5 -486.5t-423.5 -168.5q-288 0 -420.5 168.5t-132.5 486.5z" />
<glyph unicode="V" horiz-adv-x="1255" d="M41 1536h109l464 -1413h11l485 1413h104l-536 -1534h-115z" />
<glyph unicode="W" horiz-adv-x="2127" d="M41 1536h109l397 -1436h12l447 1436h147l418 -1419l409 1419h107l-463 -1536h-115l-430 1427h-8l-446 -1427h-142z" />
<glyph unicode="X" horiz-adv-x="1241" d="M41 1536h133l449 -688l442 688h125l-510 -772l520 -764h-133l-453 690l-448 -690h-121l512 776z" />
<glyph unicode="Y" horiz-adv-x="1175" d="M41 1536h115l428 -756l450 756h101l-500 -850v-686h-107v682z" />
<glyph unicode="Z" horiz-adv-x="1275" d="M92 0v76l914 1374h-859v86h988v-76l-920 -1374h969v-86h-1092z" />
<glyph unicode="[" horiz-adv-x="524" d="M154 -461v1997h346v-92h-252v-1813h252v-92h-346z" />
<glyph unicode="\" horiz-adv-x="794" d="M20 1755h101l653 -1913h-98z" />
<glyph unicode="]" horiz-adv-x="524" d="M20 -379h254v1833h-254v82h347v-1997h-347v82z" />
<glyph unicode="^" horiz-adv-x="899" d="M160 1266l237 286h107l235 -286h-114l-174 217l-172 -217h-119z" />
<glyph unicode="_" horiz-adv-x="1062" d="M39 -139h956v-86h-956v86z" />
<glyph unicode="`" horiz-adv-x="335" d="M37 1638h149l150 -247h-107z" />
<glyph unicode="a" d="M92 567q0 172 65 310t179.5 216t257.5 78q134 0 238 -75.5t165 -204.5v235h101v-1126h-101v244q-61 -133 -165 -211t-238 -78q-215 0 -358.5 175t-143.5 437zM193 567q0 -141 51.5 -260t144.5 -190.5t207 -71.5q173 0 290.5 147.5t117.5 374.5t-117 370.5t-291 143.5 q-114 0 -207 -69t-144.5 -186.5t-51.5 -258.5z" />
<glyph unicode="b" d="M180 0v1638h101v-747q61 129 165 204.5t238 75.5q143 0 257.5 -78t179.5 -216t65 -310q0 -262 -143.5 -437t-358.5 -175q-134 0 -238 78t-165 211v-244h-101zM274 567q0 -227 117.5 -377.5t290.5 -150.5q114 0 207 73t144.5 193.5t51.5 261.5t-51.5 260t-144.5 189.5 t-207 70.5q-174 0 -291 -146t-117 -374z" />
<glyph unicode="c" horiz-adv-x="1187" d="M92 565q0 171 66.5 309.5t185.5 217.5t268 79q177 0 304 -112.5t178 -296.5l-103 -4q-50 148 -148 238.5t-229 90.5q-118 0 -215.5 -71.5t-151.5 -191t-54 -259.5q0 -139 54 -259.5t151.5 -193.5t215.5 -73q135 0 235.5 100t147.5 256l101 -4q-46 -195 -174.5 -315.5 t-311.5 -120.5q-149 0 -268.5 80.5t-185.5 220t-66 309.5z" />
<glyph unicode="d" d="M92 567q0 172 65 310t179.5 216t257.5 78q134 0 238 -75.5t165 -204.5v747h101v-1638h-101v244q-61 -133 -165 -211t-238 -78q-215 0 -358.5 175t-143.5 437zM193 567q0 -141 51.5 -261.5t144.5 -193.5t207 -73q173 0 290.5 150.5t117.5 377.5q0 228 -117 374t-291 146 q-114 0 -207 -70.5t-144.5 -189.5t-51.5 -260z" />
<glyph unicode="e" horiz-adv-x="1187" d="M92 559q0 165 68 306t185.5 223.5t256.5 82.5q136 0 252 -81t181 -210t65 -272v-73h-907q7 -218 127.5 -357t293.5 -139q84 0 158 35t120.5 87t74 108t30.5 104h95q0 -42 -21.5 -96.5t-65 -111t-100 -103.5t-134.5 -77t-161 -30q-143 0 -262.5 81.5t-187.5 220t-68 302.5 zM195 612h811q-17 210 -131 342.5t-273 132.5q-161 0 -276.5 -133.5t-130.5 -341.5z" />
<glyph unicode="f" horiz-adv-x="716" d="M123 1044v82h156v148q0 174 65.5 273.5t185.5 99.5q20 0 49 -2.5t47 -4.5l19 -2v-79q-59 4 -86 4q-95 0 -137.5 -70.5t-42.5 -208.5v-158h235v-82h-235v-1044h-100v1044h-156z" />
<glyph unicode="g" horiz-adv-x="1280" d="M92 561q0 174 65 313.5t179.5 218t257.5 78.5q139 0 247 -82t167 -221v258h92v-1118q0 -123 -39.5 -219t-108 -155t-155.5 -89t-187 -30q-187 0 -302 95t-142 249h102q20 -121 111 -189.5t227 -68.5q56 0 108.5 11.5t107 42t95 78t66 126t25.5 178.5v219 q-59 -138 -167 -219.5t-247 -81.5q-215 0 -358.5 172.5t-143.5 433.5zM190 561q0 -141 52 -261.5t146 -193.5t208 -73q173 0 291.5 150.5t118.5 377.5q0 228 -118.5 378.5t-291.5 150.5q-114 0 -207.5 -72.5t-146 -194t-52.5 -262.5z" />
<glyph unicode="h" d="M180 0v1638h101v-790q47 145 156 234t274 89q183 0 285 -116.5t102 -341.5v-713h-101v705q-1 195 -79 287.5t-230 92.5q-175 0 -288 -144.5t-119 -401.5v-539h-101z" />
<glyph unicode="i" horiz-adv-x="462" d="M180 0v1126h101v-1126h-101zM182 1391v247h101v-247h-101z" />
<glyph unicode="j" horiz-adv-x="419" d="M-92 -387q22 -6 67 -6q170 0 170 278v1241h95v-1235q0 -174 -65 -273t-185 -99q-20 0 -40.5 2t-31.5 4l-10 2v86zM150 1391v247h100v-247h-100z" />
<glyph unicode="k" horiz-adv-x="972" d="M180 0v1618h94v-1008l510 516h134l-527 -526l563 -600h-133l-547 584v-584h-94z" />
<glyph unicode="l" horiz-adv-x="460" d="M180 0v1638h101v-1638h-101z" />
<glyph unicode="m" horiz-adv-x="1916" d="M180 0v1126h101v-270q44 141 139.5 228t234.5 87q268 0 340 -327q50 157 150.5 242t236.5 85q168 0 261.5 -116.5t93.5 -341.5v-713h-101v705q-1 195 -69.5 287.5t-202.5 92.5q-158 0 -257 -151.5t-99 -421.5v-512h-101v705q-1 196 -69 288t-203 92q-155 0 -252.5 -144 t-101.5 -402v-539h-101z" />
<glyph unicode="n" d="M180 0v1126h101v-278q47 145 156 234t274 89q183 0 285 -116.5t102 -341.5v-713h-101v705q-1 195 -79 287.5t-230 92.5q-175 0 -288 -144.5t-119 -401.5v-539h-101z" />
<glyph unicode="o" horiz-adv-x="1230" d="M92 563q0 176 66.5 314.5t185 216t268.5 77.5q228 0 377.5 -170t149.5 -434q0 -269 -148.5 -440.5t-376.5 -171.5t-375 171t-147 437zM193 563q0 -141 54 -261t151.5 -191.5t215.5 -71.5q117 0 214.5 71t153.5 191.5t56 261.5q0 142 -56 262.5t-153.5 191t-214.5 70.5 q-118 0 -215.5 -71t-151.5 -191t-54 -262z" />
<glyph unicode="p" d="M180 -461v1587h101v-243q61 132 165 210t238 78q215 0 358.5 -175t143.5 -437q0 -172 -65 -310t-179.5 -216t-257.5 -78q-134 0 -238.5 75.5t-164.5 205.5v-697h-101zM274 559q0 -228 117 -374t291 -146q114 0 207 70.5t144.5 189.5t51.5 260t-51.5 261.5t-144.5 193.5 t-207 73q-173 0 -290.5 -150.5t-117.5 -377.5z" />
<glyph unicode="q" d="M92 559q0 262 143.5 437t358.5 175q134 0 238 -78t165 -210v243h101v-1587h-101v697q-60 -130 -164.5 -205.5t-238.5 -75.5q-143 0 -257.5 78t-179.5 216t-65 310zM193 559q0 -141 51.5 -260t144.5 -189.5t207 -70.5q174 0 291 146t117 374q0 227 -117.5 377.5 t-290.5 150.5q-114 0 -207 -73t-144.5 -193.5t-51.5 -261.5z" />
<glyph unicode="r" horiz-adv-x="702" d="M180 0v1126h101v-264q54 144 155.5 226.5t208.5 82.5v-90q-38 0 -82.5 -16.5t-95 -59t-91.5 -104.5t-68 -163.5t-27 -225.5v-512h-101z" />
<glyph unicode="s" horiz-adv-x="970" d="M63 330l97 4q19 -142 104 -218.5t232 -76.5q134 0 216.5 63t82.5 168q0 113 -82.5 180.5t-231.5 86.5q-168 22 -269 102.5t-101 222.5q0 144 102 226.5t268 82.5q171 0 272 -91t115 -236l-98 -4q-13 120 -89.5 183.5t-201.5 63.5q-122 0 -195 -55t-73 -158q0 -61 21 -104 t64 -70.5t95.5 -43t128.5 -27.5q184 -27 279.5 -117t95.5 -231q0 -110 -57 -185.5t-146 -108t-203 -32.5q-193 0 -299 96.5t-127 278.5z" />
<glyph unicode="t" horiz-adv-x="710" d="M123 1044v82h131v269h100v-269h199v-82h-199v-725q0 -134 39 -191.5t127 -57.5l68 4v-82q-35 -6 -80 -6q-254 0 -254 338v720h-131z" />
<glyph unicode="u" d="M180 412v714h101v-704q3 -383 309 -383q175 0 288 145t119 400v542h101v-1126h-101v279q-49 -146 -157.5 -235t-272.5 -89q-183 0 -285 116t-102 341z" />
<glyph unicode="v" horiz-adv-x="942" d="M20 1126h109l336 -999l354 999h103l-420 -1126h-86z" />
<glyph unicode="w" horiz-adv-x="1585" d="M20 1126h107l295 -1007l311 1007h111l258 -1013l354 1013h109l-414 -1126h-107l-262 1026l-305 -1026h-108z" />
<glyph unicode="x" horiz-adv-x="1011" d="M20 0l424 569l-409 557h127l350 -479l330 479h123l-400 -553l426 -573h-127l-360 489l-365 -489h-119z" />
<glyph unicode="y" horiz-adv-x="978" d="M20 1126h107l360 -1003l367 1003h104l-604 -1587h-106l184 471z" />
<glyph unicode="z" horiz-adv-x="933" d="M63 0v63l660 979h-619v84h748v-59l-662 -983h680v-84h-807z" />
<glyph unicode="{" horiz-adv-x="524" d="M72 485v107h59q96 0 96 117v565q0 126 57.5 195t164.5 69h106v-92h-137q-96 0 -96 -117v-545q0 -66 -5.5 -106.5t-22 -67t-36.5 -40.5t-59 -31q38 -17 58.5 -31.5t37 -41.5t22 -67t5.5 -106v-545q0 -117 96 -117h137v-92h-106q-107 0 -164.5 69t-57.5 195v566 q0 116 -96 116h-59z" />
<glyph unicode="|" horiz-adv-x="366" d="M137 -623v2384h92v-2384h-92z" />
<glyph unicode="}" horiz-adv-x="524" d="M-31 -369h137q97 0 97 117v545q0 87 12 133.5t35.5 68.5t73.5 44q-51 23 -73.5 44t-35 67t-12.5 134v545q0 117 -97 117h-137v92h107q107 0 164 -68.5t57 -195.5v-565q0 -117 96 -117h60v-107h-60q-96 0 -96 -116v-566q0 -127 -57 -195.5t-164 -68.5h-107v92z" />
<glyph unicode="~" horiz-adv-x="970" d="M160 1290q0 72 50 127.5t130 55.5q50 0 94 -16.5t69.5 -36t60 -36t69.5 -16.5q41 0 70.5 34t29.5 64h78q0 -71 -51 -126.5t-129 -55.5q-50 0 -94 16.5t-69.5 36t-60 36t-69.5 16.5q-42 0 -71 -34t-29 -65h-78z" />
<glyph unicode="&#xa1;" horiz-adv-x="378" d="M133 850v240h117v-240h-117zM139 -549l11 1231h86l10 -1231h-107z" />
<glyph unicode="&#xa2;" horiz-adv-x="1177" d="M80 567q0 166 65.5 300t174 210t241.5 88v176h92v-178q163 -15 287.5 -126.5t163.5 -286.5h-98q-38 134 -135 222.5t-218 106.5v-1022q119 15 214.5 101.5t133.5 218.5h103q-42 -171 -166 -280t-285 -124v-184h-92v182q-132 12 -240.5 87t-174.5 208.5t-66 300.5z M176 567q0 -212 111 -353t274 -159v1026q-163 -19 -274 -160.5t-111 -353.5z" />
<glyph unicode="&#xa3;" horiz-adv-x="1243" d="M0 190q0 103 70 163.5t190 60.5q119 0 225 -99q0 5 1 15.5t1 15.5q0 66 -15.5 141t-31.5 123t-47 133q-7 18 -10 27h-274v86h243q-59 175 -59 315q0 196 104.5 303t284.5 107q183 0 282 -126t99 -390h-102q0 430 -275 430q-135 0 -211 -80t-76 -244q0 -125 64 -315h362 v-86h-331q35 -99 50 -147.5t32.5 -131.5t17.5 -151q0 -55 -19 -123q31 -36 47.5 -54t47 -46.5t54.5 -42t57 -24.5t67 -11q127 0 201.5 116t74.5 314h103q0 -254 -101.5 -384t-273.5 -130q-103 0 -175.5 44t-139.5 122q-41 -75 -109 -120.5t-158 -45.5q-130 0 -200 64.5 t-70 170.5zM106 190q0 -65 43 -108t119 -43q151 0 201 164q-52 61 -100 94t-109 33q-67 0 -110.5 -39t-43.5 -101z" />
<glyph unicode="&#xa4;" horiz-adv-x="1220" d="M80 111l129 131q-117 158 -117 346q0 189 117 344l-129 133l67 72l123 -138q142 117 332 117q192 0 334 -117l123 138l67 -72l-131 -133q119 -153 119 -344q0 -190 -119 -346l131 -131l-67 -72l-123 137q-145 -119 -334 -119q-187 0 -332 119l-123 -137zM190 588 q0 -199 120 -322t292 -123q175 0 294.5 123t119.5 322q0 131 -56.5 232.5t-150 155.5t-207.5 54q-172 0 -292 -123t-120 -319z" />
<glyph unicode="&#xa5;" horiz-adv-x="1130" d="M49 1536h103l399 -741h22l408 741h100l-434 -778h373v-82h-412v-236h412v-82h-412v-358h-98v358h-416v82h416v236h-416v82h375z" />
<glyph unicode="&#xa6;" horiz-adv-x="366" d="M137 350h92v-973h-92v973zM137 848v913h92v-913h-92z" />
<glyph unicode="&#xa7;" horiz-adv-x="1083" d="M39 -14l98 10q14 -83 47.5 -147.5t76.5 -104.5t97.5 -65.5t106.5 -35.5t108 -10q164 0 266.5 90t102.5 228q0 128 -89 197t-302 112q-114 24 -193.5 52.5t-141.5 72.5t-92 107t-30 149q0 95 46.5 173t127.5 126q-149 101 -149 270q0 165 128.5 268t327.5 103 q105 0 190.5 -31t141 -84t89.5 -117t46 -137l-106 -4q-13 129 -105 208t-253 79q-159 0 -255 -76t-96 -198q0 -41 9 -74.5t23.5 -59t41.5 -46.5t53.5 -35t69 -28.5t78.5 -23.5t92 -22q58 -13 102.5 -25t97 -31t91 -40t76 -52t61.5 -67.5t38.5 -85.5t14.5 -107 q0 -182 -147 -305q121 -99 121 -264q0 -128 -67 -222.5t-175 -141t-240 -46.5q-218 0 -359.5 121t-168.5 320zM201 653q0 -41 9 -74.5t23.5 -58.5t41.5 -46t53 -35.5t69 -28.5t78.5 -23t91.5 -22q188 -44 283 -95q56 45 87.5 109.5t31.5 138.5q0 129 -89 199t-302 112 q-126 23 -220 64q-75 -37 -116 -99.5t-41 -140.5z" />
<glyph unicode="&#xa8;" horiz-adv-x="385" d="M0 1391v247h100v-247h-100zM285 1391v247h100v-247h-100z" />
<glyph unicode="&#xa9;" horiz-adv-x="1636" d="M20 764q0 162 63 312.5t169.5 260.5t255.5 176t313 66t313.5 -70t254 -183.5t166 -261.5t61.5 -300q0 -122 -39 -241.5t-111.5 -221.5t-169 -180.5t-220 -123.5t-255.5 -46q-131 -1 -254 41t-221 118t-172 176.5t-114 224t-40 253.5zM117 766q0 -119 39 -231.5 t107.5 -200.5t157 -155t192.5 -102.5t208 -35.5q131 0 257.5 56.5t224 152t157.5 231.5t60 285t-60 284.5t-157.5 230.5t-224 151.5t-257.5 56.5t-258.5 -56.5t-226 -151.5t-159 -230.5t-60.5 -284.5zM449 772q-3 176 106 294t262 118q147 0 240 -86.5t117 -227.5h-97 q-20 102 -87.5 169t-172.5 67q-112 0 -191 -91.5t-79 -242.5q0 -150 80 -241t190 -91q102 0 169 64t87 158h101q-27 -135 -120 -217.5t-237 -82.5q-153 0 -260 117t-108 293z" />
<glyph unicode="&#xaa;" horiz-adv-x="782" d="M51 1198q0 166 85.5 274.5t215.5 108.5q80 0 140.5 -47t95.5 -129l2 147h92v-712h-92l-2 149q-35 -82 -96 -130t-140 -48q-130 0 -215.5 110t-85.5 277zM147 1198q0 -132 63 -224.5t159 -92.5q95 0 158 89.5t63 227.5q0 139 -63 225t-158 86q-96 0 -159 -89t-63 -222z " />
<glyph unicode="&#xab;" horiz-adv-x="1075" d="M152 565l241 426h135l-241 -426l241 -426h-135zM500 565l241 426h133l-241 -426l241 -426h-133z" />
<glyph unicode="&#xac;" horiz-adv-x="1388" d="M156 580v100h1077v-498h-100v398h-977z" />
<glyph unicode="&#xad;" horiz-adv-x="806" d="M180 582v86h447v-86h-447z" />
<glyph unicode="&#xae;" horiz-adv-x="1583" d="M-6 764q0 162 63 312.5t169.5 260.5t255.5 176t313 66t313.5 -70t253.5 -183.5t165.5 -261.5t61.5 -300q0 -122 -38.5 -241.5t-111.5 -221.5t-169 -180.5t-219.5 -123.5t-255.5 -46q-131 -1 -254 41t-221 118t-172 176.5t-114 224t-40 253.5zM90 766q0 -149 61 -285 t159.5 -231.5t226 -152t258.5 -56.5t257.5 56.5t223.5 152t157 231.5t60 285t-60 284.5t-157 230.5t-223.5 151.5t-257.5 56.5t-258.5 -56.5t-226 -151.5t-159.5 -230.5t-61 -284.5zM514 379v782h303q260 0 260 -207q0 -59 -27.5 -102t-64 -63t-82.5 -29q74 -8 113 -46 t39 -118v-59q0 -47 12.5 -91t32.5 -59v-10h-84q-60 44 -60 168v39q0 71 -32 100t-99 29h-217v-334h-94zM608 797h187q77 0 130.5 35.5t53.5 109.5q0 141 -172 141h-199v-286z" />
<glyph unicode="&#xb0;" horiz-adv-x="737" d="M102 1249q0 120 78 203.5t189 83.5q112 0 190 -83.5t78 -203.5t-78 -203t-190 -83q-111 0 -189 83t-78 203zM188 1249q0 -91 50.5 -154t130.5 -63q81 0 131.5 62.5t50.5 154.5t-50.5 154.5t-131.5 62.5q-80 0 -130.5 -63t-50.5 -154z" />
<glyph unicode="&#xb1;" horiz-adv-x="1388" d="M156 0v100h1077v-100h-1077zM156 578v100h487v391h100v-391h490v-100h-490v-394h-100v394h-487z" />
<glyph unicode="&#xb2;" horiz-adv-x="724" d="M43 522v72q214 192 276 254q181 182 223 322q15 51 15 102q0 112 -56 169.5t-141 57.5q-99 0 -159 -77t-60 -222l-96 2q0 164 85 266.5t226 102.5q136 0 217.5 -80.5t81.5 -218.5q0 -52 -14 -104t-34.5 -96t-60.5 -96.5t-74 -90.5t-95 -95t-102.5 -93.5t-116.5 -100.5 h524v-74h-639z" />
<glyph unicode="&#xb3;" horiz-adv-x="751" d="M43 821l92 6q8 -114 73 -183.5t171 -68.5q110 0 170.5 61.5t60.5 156.5q0 117 -78.5 175t-216.5 58h-39v82h37q102 0 178 60t76 163q0 83 -52 131.5t-140 48.5q-89 0 -148 -66t-61 -163l-90 4q5 118 87 207.5t212 89.5q133 0 211 -73.5t78 -184.5q0 -90 -55 -154.5 t-160 -93.5q260 -50 260 -274q0 -134 -92 -217.5t-236 -83.5q-145 0 -236 88.5t-102 230.5z" />
<glyph unicode="&#xb4;" horiz-adv-x="337" d="M2 1391l150 247h149l-192 -247h-107z" />
<glyph unicode="&#xb5;" d="M0 0v41h1278v-41h-1278z" />
<glyph unicode="&#xb6;" horiz-adv-x="1128" d="M133 1124q0 182 130.5 297t357.5 115h61v-1769h-90v956q-209 0 -334 111t-125 290zM854 -233v1769h244v-92h-154v-1677h-90z" />
<glyph unicode="&#xb7;" horiz-adv-x="524" d="M180 537v223h164v-223h-164z" />
<glyph unicode="&#xb8;" horiz-adv-x="434" d="M-2 -379l22 64q85 -47 181 -47q57 0 93 22t36 57q0 29 -23 50.5t-69 21.5q-50 0 -119 -43l-53 16l120 275h76l-104 -209q59 31 116 31q68 0 112 -35t44 -98q0 -45 -21.5 -78t-57.5 -50t-74 -24.5t-80 -7.5q-51 0 -101 14t-74 28z" />
<glyph unicode="&#xb9;" horiz-adv-x="518" d="M43 1358v67q68 6 123 43t80 93h73v-969h156v-72h-412v72h160v842q-94 -76 -180 -76z" />
<glyph unicode="&#xba;" horiz-adv-x="753" d="M51 1196q0 170 91 277.5t233 107.5t234.5 -107t92.5 -276q0 -171 -91.5 -279t-233.5 -108q-143 0 -234.5 107.5t-91.5 277.5zM147 1196q0 -137 65 -227t165 -90q97 0 163 90.5t66 226.5t-66 228t-163 92q-99 0 -164.5 -91.5t-65.5 -228.5z" />
<glyph unicode="&#xbb;" horiz-adv-x="1075" d="M201 139l241 426l-241 426h133l241 -426l-241 -426h-133zM549 139l242 426l-242 426h133l242 -426l-242 -426h-133z" />
<glyph unicode="&#xbc;" horiz-adv-x="1669" d="M20 1358v67q68 6 123 43t80 93h74v-969h156v-72h-412v72h160v842q-94 -76 -181 -76zM274 0l998 1536h88l-1000 -1536h-86zM922 317v68l442 657h111v-653h151v-72h-151v-315h-95v315h-458zM1026 389h354v541z" />
<glyph unicode="&#xbd;" horiz-adv-x="1841" d="M20 1358v67q68 6 123 43t80 93h74v-969h156v-72h-412v72h160v842q-94 -76 -181 -76zM274 0l998 1536h88l-1000 -1536h-86zM1159 2v72q214 192 276 254q181 182 223 322q15 51 15 102q0 112 -55.5 169.5t-140.5 57.5q-99 0 -159.5 -77t-60.5 -222l-96 2q0 164 85.5 266.5 t226.5 102.5q136 0 217.5 -80.5t81.5 -218.5q0 -52 -14 -104t-34.5 -95.5t-61 -96.5t-74 -91t-95 -95.5t-102.5 -93t-117 -100.5h524v-74h-639z" />
<glyph unicode="&#xbe;" horiz-adv-x="1902" d="M2 821l92 6q8 -114 73 -183.5t171 -68.5q110 0 170.5 61.5t60.5 156.5q0 117 -78.5 175t-216.5 58h-38v82h36q102 0 178 60t76 163q0 83 -52 131.5t-140 48.5q-89 0 -148 -66t-61 -163l-90 4q5 118 87 207.5t212 89.5q133 0 211 -73.5t78 -184.5q0 -90 -55 -154.5 t-160 -93.5q260 -50 260 -274q0 -134 -92 -217.5t-236 -83.5q-145 0 -236 88.5t-102 230.5zM508 0l997 1536h88l-999 -1536h-86zM1155 317v68l442 657h111v-653h152v-72h-152v-315h-94v315h-459zM1260 389h354v541z" />
<glyph unicode="&#xbf;" horiz-adv-x="1050" d="M61 -102q0 71 22 135t53 108t76 85t79.5 65.5t74.5 49.5l15 9q82 52 122 105.5t40 144.5v82h102v-78q0 -55 -11 -100t-25.5 -74.5t-43.5 -60t-50 -46.5t-60 -44q-12 -8 -57.5 -38t-66.5 -45.5t-58.5 -51t-56 -66.5t-33.5 -79t-15 -101q0 -138 93.5 -217.5t242.5 -79.5 q169 0 278 115.5t109 279.5h106q0 -136 -60 -245t-173.5 -172.5t-259.5 -63.5q-198 0 -320.5 102.5t-122.5 280.5zM537 850v240h116v-240h-116z" />
<glyph unicode="&#xc0;" horiz-adv-x="1335" d="M51 2l567 1534h121l545 -1534h-100l-180 485h-678l-172 -485h-103zM358 569h613l-287 858h-4zM424 1956h170l149 -248h-127z" />
<glyph unicode="&#xc1;" horiz-adv-x="1335" d="M51 2l567 1534h121l545 -1534h-100l-180 485h-678l-172 -485h-103zM358 569h613l-287 858h-4zM627 1708l186 260h150l-230 -260h-106z" />
<glyph unicode="&#xc2;" horiz-adv-x="1335" d="M51 2l567 1534h121l545 -1534h-100l-180 485h-678l-172 -485h-103zM358 569h613l-287 858h-4zM389 1708l238 287h106l236 -287h-135l-154 197l-152 -197h-139z" />
<glyph unicode="&#xc3;" horiz-adv-x="1335" d="M51 2l567 1534h121l545 -1534h-100l-180 485h-678l-172 -485h-103zM330 1745q0 74 51 138.5t129 64.5q50 0 94 -16.5t69.5 -36t60 -36t69.5 -16.5q41 0 70.5 34.5t29.5 64.5h78q0 -73 -51.5 -138t-128.5 -65q-50 0 -94 16.5t-69.5 35.5t-60 35.5t-69.5 16.5 q-42 0 -71 -33.5t-29 -64.5h-78zM358 569h613l-287 858h-4z" />
<glyph unicode="&#xc4;" horiz-adv-x="1335" d="M51 2l567 1534h121l545 -1534h-100l-180 485h-678l-172 -485h-103zM358 569h613l-287 858h-4zM487 1708v248h121v-248h-121zM752 1708v248h120v-248h-120z" />
<glyph unicode="&#xc5;" horiz-adv-x="1335" d="M51 2l567 1534h121l545 -1534h-100l-180 485h-678l-172 -485h-103zM358 569h613l-287 858h-4zM471 1833q0 90 61 153.5t148 63.5q88 0 149.5 -63t61.5 -154q0 -89 -61.5 -152t-149.5 -63q-86 0 -147.5 63t-61.5 152zM565 1833q0 -54 32.5 -92.5t82.5 -38.5q51 0 84 38.5 t33 92.5q0 55 -33 94t-84 39q-50 0 -82.5 -39t-32.5 -94z" />
<glyph unicode="&#xc6;" horiz-adv-x="1869" d="M51 -2l799 1538h938v-86h-795v-635h703v-86h-703v-641h795v-88l-897 2v485h-479l-252 -489h-109zM453 569h438v850z" />
<glyph unicode="&#xc7;" horiz-adv-x="1570" d="M96 766q0 185 56.5 340t152.5 258t222.5 160t265.5 57q117 0 226 -41t198.5 -116t154.5 -187.5t94 -249.5l-106 -12q-55 238 -209.5 379t-357.5 141q-121 0 -229.5 -53t-188 -147t-126 -231.5t-46.5 -297.5q0 -158 46 -294t125.5 -230t188 -147.5t230.5 -53.5 q198 0 349 132t210 355l108 -6q-43 -168 -141 -296t-227.5 -196.5t-272.5 -74.5l-80 -160q46 31 103 31q68 0 117 -39t49 -102q0 -59 -41 -99.5t-93.5 -55.5t-109.5 -15q-51 0 -101 16.5t-74 32.5l-24 16l23 64q85 -47 180 -47q57 0 93 22t36 57q0 29 -23 50.5t-69 21.5 q-50 0 -119 -43l-53 16l102 236q-126 12 -241 74t-203.5 164t-141.5 250.5t-53 320.5z" />
<glyph unicode="&#xc8;" horiz-adv-x="1167" d="M188 2v1534h897v-86h-794v-635h702v-86h-702v-641h794v-88zM395 1956h170l150 -248h-127z" />
<glyph unicode="&#xc9;" horiz-adv-x="1167" d="M188 2v1534h897v-86h-794v-635h702v-86h-702v-641h794v-88zM598 1708l186 260h150l-229 -260h-107z" />
<glyph unicode="&#xca;" horiz-adv-x="1167" d="M188 2v1534h897v-86h-794v-635h702v-86h-702v-641h794v-88zM360 1708l238 287h107l235 -287h-135l-154 197l-151 -197h-140z" />
<glyph unicode="&#xcb;" horiz-adv-x="1167" d="M188 2v1534h897v-86h-794v-635h702v-86h-702v-641h794v-88zM459 1708v248h121v-248h-121zM723 1708v248h121v-248h-121z" />
<glyph unicode="&#xcc;" horiz-adv-x="479" d="M-16 1956h170l149 -248h-127zM188 0v1536h103v-1536h-103z" />
<glyph unicode="&#xcd;" horiz-adv-x="479" d="M186 1708l187 260h149l-229 -260h-107zM188 0v1536h103v-1536h-103z" />
<glyph unicode="&#xce;" horiz-adv-x="479" d="M-51 1708l237 287h107l235 -287h-135l-153 197l-152 -197h-139zM188 0v1536h103v-1536h-103z" />
<glyph unicode="&#xcf;" horiz-adv-x="479" d="M47 1708v248h121v-248h-121zM188 0v1536h103v-1536h-103zM311 1708v248h121v-248h-121z" />
<glyph unicode="&#xd0;" horiz-adv-x="1435" d="M10 729v86h178v721h396q152 0 286.5 -52t236 -147.5t161 -243t59.5 -327.5q0 -179 -59.5 -326t-162 -242t-236.5 -146.5t-285 -51.5h-396v729h-178zM291 86h266q139 0 258 42.5t210.5 124.5t143.5 214t52 299t-54 299.5t-146.5 215.5t-211 126t-252.5 43h-266v-635h588 v-86h-588v-643z" />
<glyph unicode="&#xd1;" horiz-adv-x="1505" d="M188 0v1536h88l947 -1372v1370l94 2v-1536h-90l-944 1370v-1370h-95zM410 1745q0 74 51 138.5t129 64.5q50 0 94 -16.5t69.5 -36t60 -36t69.5 -16.5q41 0 70.5 34.5t29.5 64.5h78q0 -73 -51.5 -138t-128.5 -65q-50 0 -94 16.5t-69.5 35.5t-60 35.5t-69.5 16.5 q-42 0 -71.5 -33.5t-29.5 -64.5h-77z" />
<glyph unicode="&#xd2;" horiz-adv-x="1609" d="M109 766q0 185 56.5 340t152.5 258t222 160t265 57t265 -57t222 -160t152.5 -258t56.5 -340q0 -146 -38 -276t-104.5 -226.5t-154.5 -166.5t-190 -106t-209 -36t-209 36t-190 106t-154.5 166.5t-104.5 226.5t-38 276zM215 766q0 -158 46 -294t125.5 -230t188 -147.5 t230.5 -53.5t230.5 53.5t188 147.5t125.5 230t46 294q0 160 -46.5 297.5t-126 231.5t-188 147t-229.5 53t-229.5 -53t-188 -147t-126 -231.5t-46.5 -297.5zM549 1956h170l149 -248h-127z" />
<glyph unicode="&#xd3;" horiz-adv-x="1609" d="M109 766q0 185 56.5 340t152.5 258t222 160t265 57t265 -57t222 -160t152.5 -258t56.5 -340q0 -146 -38 -276t-104.5 -226.5t-154.5 -166.5t-190 -106t-209 -36t-209 36t-190 106t-154.5 166.5t-104.5 226.5t-38 276zM215 766q0 -158 46 -294t125.5 -230t188 -147.5 t230.5 -53.5t230.5 53.5t188 147.5t125.5 230t46 294q0 160 -46.5 297.5t-126 231.5t-188 147t-229.5 53t-229.5 -53t-188 -147t-126 -231.5t-46.5 -297.5zM752 1708l186 260h149l-229 -260h-106z" />
<glyph unicode="&#xd4;" horiz-adv-x="1609" d="M109 766q0 185 56.5 340t152.5 258t222 160t265 57t265 -57t222 -160t152.5 -258t56.5 -340q0 -146 -38 -276t-104.5 -226.5t-154.5 -166.5t-190 -106t-209 -36t-209 36t-190 106t-154.5 166.5t-104.5 226.5t-38 276zM215 766q0 -158 46 -294t125.5 -230t188 -147.5 t230.5 -53.5t230.5 53.5t188 147.5t125.5 230t46 294q0 160 -46.5 297.5t-126 231.5t-188 147t-229.5 53t-229.5 -53t-188 -147t-126 -231.5t-46.5 -297.5zM514 1708l238 287h106l236 -287h-136l-153 197l-152 -197h-139z" />
<glyph unicode="&#xd5;" horiz-adv-x="1609" d="M109 766q0 185 56.5 340t152.5 258t222 160t265 57t265 -57t222 -160t152.5 -258t56.5 -340q0 -146 -38 -276t-104.5 -226.5t-154.5 -166.5t-190 -106t-209 -36t-209 36t-190 106t-154.5 166.5t-104.5 226.5t-38 276zM215 766q0 -158 46 -294t125.5 -230t188 -147.5 t230.5 -53.5t230.5 53.5t188 147.5t125.5 230t46 294q0 160 -46.5 297.5t-126 231.5t-188 147t-229.5 53t-229.5 -53t-188 -147t-126 -231.5t-46.5 -297.5zM455 1745q0 74 51 138.5t129 64.5q50 0 94 -16.5t69.5 -36t60 -36t69.5 -16.5q41 0 70.5 34.5t29.5 64.5h78 q0 -73 -51.5 -138t-128.5 -65q-50 0 -94 16.5t-69.5 35.5t-60 35.5t-69.5 16.5q-42 0 -71.5 -33.5t-29.5 -64.5h-77z" />
<glyph unicode="&#xd6;" horiz-adv-x="1609" d="M109 766q0 185 56.5 340t152.5 258t222 160t265 57t265 -57t222 -160t152.5 -258t56.5 -340q0 -146 -38 -276t-104.5 -226.5t-154.5 -166.5t-190 -106t-209 -36t-209 36t-190 106t-154.5 166.5t-104.5 226.5t-38 276zM215 766q0 -158 46 -294t125.5 -230t188 -147.5 t230.5 -53.5t230.5 53.5t188 147.5t125.5 230t46 294q0 160 -46.5 297.5t-126 231.5t-188 147t-229.5 53t-229.5 -53t-188 -147t-126 -231.5t-46.5 -297.5zM612 1708v248h121v-248h-121zM877 1708v248h120v-248h-120z" />
<glyph unicode="&#xd7;" horiz-adv-x="1071" d="M123 82l342 342l-342 344l70 72l344 -344l342 342l69 -68l-344 -344l344 -342l-69 -72l-344 344l-342 -342z" />
<glyph unicode="&#xd8;" horiz-adv-x="1609" d="M109 766q0 185 56.5 340t152.5 258t222 160t265 57q229 0 409 -145l152 215l74 -52l-160 -225q105 -109 163 -263.5t58 -344.5q0 -146 -38 -276t-104.5 -226.5t-154.5 -166.5t-190 -106t-209 -36q-234 0 -418 158l-145 -205l-74 51l154 215q-213 233 -213 592zM215 766 q0 -306 162 -512l782 1104q-153 137 -354 137q-121 0 -229.5 -53t-188 -147t-126 -231.5t-46.5 -297.5zM438 186q154 -145 367 -145q122 0 230.5 53.5t188 147.5t125.5 230t46 294q0 159 -45 293.5t-127 232.5z" />
<glyph unicode="&#xd9;" horiz-adv-x="1486" d="M188 610v926h103v-883q0 -107 9.5 -190t38.5 -165.5t77 -136t130.5 -87t194.5 -33.5q81 0 146.5 17t112.5 46t82 73.5t56.5 94t34.5 113.5t18 126.5t5 137.5v887h102v-926q0 -318 -133.5 -486.5t-423.5 -168.5q-288 0 -420.5 168.5t-132.5 486.5zM487 1956h170l150 -248 h-127z" />
<glyph unicode="&#xda;" horiz-adv-x="1486" d="M188 610v926h103v-883q0 -107 9.5 -190t38.5 -165.5t77 -136t130.5 -87t194.5 -33.5q81 0 146.5 17t112.5 46t82 73.5t56.5 94t34.5 113.5t18 126.5t5 137.5v887h102v-926q0 -318 -133.5 -486.5t-423.5 -168.5q-288 0 -420.5 168.5t-132.5 486.5zM690 1708l187 260h149 l-229 -260h-107z" />
<glyph unicode="&#xdb;" horiz-adv-x="1486" d="M188 610v926h103v-883q0 -107 9.5 -190t38.5 -165.5t77 -136t130.5 -87t194.5 -33.5q81 0 146.5 17t112.5 46t82 73.5t56.5 94t34.5 113.5t18 126.5t5 137.5v887h102v-926q0 -318 -133.5 -486.5t-423.5 -168.5q-288 0 -420.5 168.5t-132.5 486.5zM453 1708l237 287h107 l235 -287h-135l-154 197l-151 -197h-139z" />
<glyph unicode="&#xdc;" horiz-adv-x="1486" d="M188 610v926h103v-883q0 -107 9.5 -190t38.5 -165.5t77 -136t130.5 -87t194.5 -33.5q81 0 146.5 17t112.5 46t82 73.5t56.5 94t34.5 113.5t18 126.5t5 137.5v887h102v-926q0 -318 -133.5 -486.5t-423.5 -168.5q-288 0 -420.5 168.5t-132.5 486.5zM551 1708v248h121v-248 h-121zM815 1708v248h121v-248h-121z" />
<glyph unicode="&#xdd;" horiz-adv-x="1175" d="M41 1536h115l428 -756l450 756h101l-500 -850v-686h-107v682zM535 1708l186 260h149l-229 -260h-106z" />
<glyph unicode="&#xde;" horiz-adv-x="1284" d="M188 0v1536h103v-272h418q100 0 188.5 -26.5t162 -79.5t116.5 -144t43 -209q0 -95 -31.5 -173t-83.5 -129.5t-122 -86.5t-144.5 -50.5t-153.5 -15.5h-393v-350h-103zM291 432h387q82 0 157 21t138.5 63.5t101 115.5t37.5 167q0 95 -34 169.5t-91.5 119t-128.5 67.5 t-151 23h-416v-746z" />
<glyph unicode="&#xdf;" horiz-adv-x="1202" d="M180 0v1151q0 255 120 382.5t323 127.5q102 0 181 -33t126.5 -89.5t71.5 -128t24 -153.5q0 -86 -32.5 -160t-88 -125.5t-122 -87t-140.5 -53.5q230 -6 348.5 -117.5t118.5 -301.5q0 -183 -120.5 -297.5t-323.5 -114.5q-173 0 -258 63v93q34 -27 101 -47.5t157 -20.5 q159 0 250.5 77t91.5 234q0 167 -104 263t-300 96h-131v94q60 14 117 34t119.5 54.5t108.5 77t76 104.5t30 133q0 150 -80 235t-219 85q-159 0 -251.5 -101t-92.5 -319v-1155h-101z" />
<glyph unicode="&#xe0;" d="M92 567q0 172 65 310t179.5 216t257.5 78q134 0 238 -75.5t165 -204.5v235h101v-1126h-101v244q-61 -133 -165 -211t-238 -78q-215 0 -358.5 175t-143.5 437zM193 567q0 -141 51.5 -260t144.5 -190.5t207 -71.5q173 0 290.5 147.5t117.5 374.5t-117 370.5t-291 143.5 q-114 0 -207 -69t-144.5 -186.5t-51.5 -258.5zM403 1634h150l149 -248h-106z" />
<glyph unicode="&#xe1;" d="M92 567q0 172 65 310t179.5 216t257.5 78q134 0 238 -75.5t165 -204.5v235h101v-1126h-101v244q-61 -133 -165 -211t-238 -78q-215 0 -358.5 175t-143.5 437zM193 567q0 -141 51.5 -260t144.5 -190.5t207 -71.5q173 0 290.5 147.5t117.5 374.5t-117 370.5t-291 143.5 q-114 0 -207 -69t-144.5 -186.5t-51.5 -258.5zM586 1386l186 261h150l-230 -261h-106z" />
<glyph unicode="&#xe2;" d="M92 567q0 -262 143.5 -437t358.5 -175q134 0 238 78t165 211v-244h101v1126h-101v-235q-61 129 -165 204.5t-238 75.5q-143 0 -257.5 -78t-179.5 -216t-65 -310zM193 567q0 141 51.5 258.5t144.5 186.5t207 69q174 0 291 -143.5t117 -370.5t-117.5 -374.5t-290.5 -147.5 q-114 0 -207 71.5t-144.5 190.5t-51.5 260zM348 1386l238 287h106l236 -287h-115l-174 218l-172 -218h-119z" />
<glyph unicode="&#xe3;" d="M92 567q0 -262 143.5 -437t358.5 -175q134 0 238 78t165 211v-244h101v1126h-101v-235q-61 129 -165 204.5t-238 75.5q-143 0 -257.5 -78t-179.5 -216t-65 -310zM193 567q0 141 51.5 258.5t144.5 186.5t207 69q174 0 291 -143.5t117 -370.5t-117.5 -374.5t-290.5 -147.5 q-114 0 -207 71.5t-144.5 190.5t-51.5 260zM289 1423q0 72 50 127.5t130 55.5q50 0 94 -16.5t69.5 -36t60 -36t69.5 -16.5q41 0 70.5 34t29.5 64h78q0 -71 -51 -126.5t-129 -55.5q-50 0 -94 16.5t-69.5 36t-60 36t-69.5 16.5q-42 0 -71 -34t-29 -65h-78z" />
<glyph unicode="&#xe4;" d="M92 567q0 -262 143.5 -437t358.5 -175q134 0 238 78t165 211v-244h101v1126h-101v-235q-61 129 -165 204.5t-238 75.5q-143 0 -257.5 -78t-179.5 -216t-65 -310zM193 567q0 141 51.5 258.5t144.5 186.5t207 69q174 0 291 -143.5t117 -370.5t-117.5 -374.5t-290.5 -147.5 q-114 0 -207 71.5t-144.5 190.5t-51.5 260zM446 1386v248h101v-248h-101zM731 1386v248h100v-248h-100z" />
<glyph unicode="&#xe5;" d="M92 567q0 -262 143.5 -437t358.5 -175q134 0 238 78t165 211v-244h101v1126h-101v-235q-61 129 -165 204.5t-238 75.5q-143 0 -257.5 -78t-179.5 -216t-65 -310zM193 567q0 141 51.5 258.5t144.5 186.5t207 69q174 0 291 -143.5t117 -370.5t-117.5 -374.5t-290.5 -147.5 q-114 0 -207 71.5t-144.5 190.5t-51.5 260zM430 1511q0 91 61.5 154.5t147.5 63.5q88 0 149.5 -63.5t61.5 -154.5q0 -89 -61.5 -152t-149.5 -63q-86 0 -147.5 63t-61.5 152zM518 1511q0 -57 34 -97t87 -40q54 0 88.5 40t34.5 97q0 58 -34.5 99t-88.5 41q-53 0 -87 -41 t-34 -99z" />
<glyph unicode="&#xe6;" horiz-adv-x="1961" d="M25 293q0 44 11.5 86t40 84t71 73t109 50.5t149.5 19.5h460q-6 241 -98 358t-258 117q-147 0 -236 -87t-102 -210h-94q20 170 141.5 275.5t284.5 105.5q349 0 422 -354q56 161 173.5 257.5t276.5 96.5q136 0 252 -81t181 -210t65 -272v-74h-907q7 -217 127.5 -356 t294.5 -139q84 0 158 35t120.5 87t74 108t30.5 104h94q0 -42 -21.5 -96.5t-65 -111t-100 -103.5t-134.5 -77t-161 -30q-175 0 -299.5 108.5t-173.5 286.5q-57 -176 -191.5 -283.5t-307.5 -111.5q-83 -2 -151 20t-110.5 58t-72 83t-41.5 93t-12 90zM125 297 q0 -125 79.5 -194.5t225.5 -69.5q70 0 142 35t134 96.5t105.5 157t52.5 206.5h-432q-138 0 -222.5 -56.5t-84.5 -174.5zM969 606h811q-17 210 -131 342.5t-273 132.5q-161 0 -276.5 -133.5t-130.5 -341.5z" />
<glyph unicode="&#xe7;" horiz-adv-x="1187" d="M92 565q0 171 66.5 309.5t185.5 217.5t268 79q177 0 304 -112.5t178 -296.5l-103 -4q-50 148 -148 238.5t-229 90.5q-118 0 -215.5 -71.5t-151.5 -191t-54 -259.5q0 -139 54 -259.5t151.5 -193.5t215.5 -73q135 0 235.5 100t147.5 256l101 -4q-46 -192 -170.5 -312 t-302.5 -124l-84 -168q59 31 116 31q68 0 112 -35t44 -98q0 -45 -21.5 -78t-57.5 -50t-74 -24.5t-80 -7.5q-51 0 -101 13.5t-74 27.5l-24 14l22 64q85 -47 181 -47q57 0 93 22t36 57q0 29 -23 50.5t-69 21.5q-50 0 -119 -43l-53 16l104 238q-204 25 -332.5 194.5 t-128.5 411.5z" />
<glyph unicode="&#xe8;" horiz-adv-x="1187" d="M92 559q0 165 68 306t185.5 223.5t256.5 82.5q136 0 252 -81t181 -210t65 -272v-73h-907q7 -218 127.5 -357t293.5 -139q84 0 158 35t120.5 87t74 108t30.5 104h95q0 -42 -21.5 -96.5t-65 -111t-100 -103.5t-134.5 -77t-161 -30q-143 0 -262.5 81.5t-187.5 220t-68 302.5 zM195 612h811q-17 210 -131 342.5t-273 132.5q-161 0 -276.5 -133.5t-130.5 -341.5zM358 1634h150l149 -248h-106z" />
<glyph unicode="&#xe9;" horiz-adv-x="1187" d="M92 559q0 165 68 306t185.5 223.5t256.5 82.5q136 0 252 -81t181 -210t65 -272v-73h-907q7 -218 127.5 -357t293.5 -139q84 0 158 35t120.5 87t74 108t30.5 104h95q0 -42 -21.5 -96.5t-65 -111t-100 -103.5t-134.5 -77t-161 -30q-143 0 -262.5 81.5t-187.5 220t-68 302.5 zM195 612h811q-17 210 -131 342.5t-273 132.5q-161 0 -276.5 -133.5t-130.5 -341.5zM541 1386l186 261h150l-230 -261h-106z" />
<glyph unicode="&#xea;" horiz-adv-x="1187" d="M92 559q0 165 68 306t185.5 223.5t256.5 82.5q136 0 252 -81t181 -210t65 -272v-73h-907q7 -218 127.5 -357t293.5 -139q84 0 158 35t120.5 87t74 108t30.5 104h95q0 -42 -21.5 -96.5t-65 -111t-100 -103.5t-134.5 -77t-161 -30q-143 0 -262.5 81.5t-187.5 220t-68 302.5 zM195 612h811q-17 210 -131 342.5t-273 132.5q-161 0 -276.5 -133.5t-130.5 -341.5zM303 1386l238 287h106l236 -287h-115l-174 218l-172 -218h-119z" />
<glyph unicode="&#xeb;" horiz-adv-x="1187" d="M92 559q0 165 68 306t185.5 223.5t256.5 82.5q136 0 252 -81t181 -210t65 -272v-73h-907q7 -218 127.5 -357t293.5 -139q84 0 158 35t120.5 87t74 108t30.5 104h95q0 -42 -21.5 -96.5t-65 -111t-100 -103.5t-134.5 -77t-161 -30q-143 0 -262.5 81.5t-187.5 220t-68 302.5 zM195 612h811q-17 210 -131 342.5t-273 132.5q-161 0 -276.5 -133.5t-130.5 -341.5zM401 1386v248h101v-248h-101zM686 1386v248h100v-248h-100z" />
<glyph unicode="&#xec;" horiz-adv-x="462" d="M-4 1634h149l150 -248h-107zM180 0v1126h101v-1126h-101z" />
<glyph unicode="&#xed;" horiz-adv-x="462" d="M178 1386l187 261h149l-229 -261h-107zM180 0v1126h101v-1126h-101z" />
<glyph unicode="&#xee;" horiz-adv-x="462" d="M-59 1386l237 287h107l235 -287h-114l-175 218l-172 -218h-118zM180 0v1126h101v-1126h-101z" />
<glyph unicode="&#xef;" horiz-adv-x="462" d="M39 1386v248h100v-248h-100zM180 0v1126h101v-1126h-101zM324 1386v248h100v-248h-100z" />
<glyph unicode="&#xf0;" horiz-adv-x="1230" d="M92 563q0 176 66.5 314.5t185 216t268.5 77.5q117 0 230.5 -74.5t183.5 -199.5q-66 155 -181.5 290t-258.5 238l-121 -161l-78 51l123 164q-80 53 -172 98l51 80q108 -57 178 -103l103 136l73 -52l-100 -135q496 -361 496 -936q0 -269 -148.5 -440.5t-376.5 -171.5 t-375 171t-147 437zM193 563q0 -141 54 -261t151.5 -191.5t215.5 -71.5q117 0 214.5 71t153.5 191.5t56 261.5q0 142 -56 262.5t-153.5 191t-214.5 70.5q-118 0 -215.5 -71t-151.5 -191t-54 -262z" />
<glyph unicode="&#xf1;" d="M180 0v1126h101v-278q47 145 156 234t274 89q183 0 285 -116.5t102 -341.5v-713h-101v705q-1 195 -79 287.5t-230 92.5q-175 0 -288 -144.5t-119 -401.5v-539h-101zM289 1423q0 72 50 127.5t130 55.5q50 0 94 -16.5t69.5 -36t60 -36t69.5 -16.5q41 0 70.5 34t29.5 64h78 q0 -71 -51 -126.5t-129 -55.5q-50 0 -94 16.5t-69.5 36t-60 36t-69.5 16.5q-42 0 -71 -34t-29 -65h-78z" />
<glyph unicode="&#xf2;" horiz-adv-x="1230" d="M92 563q0 176 66.5 314.5t185 216t268.5 77.5q228 0 377.5 -170t149.5 -434q0 -269 -148.5 -440.5t-376.5 -171.5t-375 171t-147 437zM193 563q0 -141 54 -261t151.5 -191.5t215.5 -71.5q117 0 214.5 71t153.5 191.5t56 261.5q0 142 -56 262.5t-153.5 191t-214.5 70.5 q-118 0 -215.5 -71t-151.5 -191t-54 -262zM379 1634h149l150 -248h-107z" />
<glyph unicode="&#xf3;" horiz-adv-x="1230" d="M92 563q0 176 66.5 314.5t185 216t268.5 77.5q228 0 377.5 -170t149.5 -434q0 -269 -148.5 -440.5t-376.5 -171.5t-375 171t-147 437zM193 563q0 -141 54 -261t151.5 -191.5t215.5 -71.5q117 0 214.5 71t153.5 191.5t56 261.5q0 142 -56 262.5t-153.5 191t-214.5 70.5 q-118 0 -215.5 -71t-151.5 -191t-54 -262zM561 1386l187 261h149l-229 -261h-107z" />
<glyph unicode="&#xf4;" horiz-adv-x="1230" d="M92 563q0 176 66.5 314.5t185 216t268.5 77.5q228 0 377.5 -170t149.5 -434q0 -269 -148.5 -440.5t-376.5 -171.5t-375 171t-147 437zM193 563q0 -141 54 -261t151.5 -191.5t215.5 -71.5q117 0 214.5 71t153.5 191.5t56 261.5q0 142 -56 262.5t-153.5 191t-214.5 70.5 q-118 0 -215.5 -71t-151.5 -191t-54 -262zM324 1386l237 287h107l235 -287h-115l-174 218l-172 -218h-118z" />
<glyph unicode="&#xf5;" horiz-adv-x="1230" d="M92 563q0 176 66.5 314.5t185 216t268.5 77.5q228 0 377.5 -170t149.5 -434q0 -269 -148.5 -440.5t-376.5 -171.5t-375 171t-147 437zM193 563q0 -141 54 -261t151.5 -191.5t215.5 -71.5q117 0 214.5 71t153.5 191.5t56 261.5q0 142 -56 262.5t-153.5 191t-214.5 70.5 q-118 0 -215.5 -71t-151.5 -191t-54 -262zM264 1423q0 72 50 127.5t130 55.5q50 0 94 -16.5t69.5 -36t60 -36t69.5 -16.5q41 0 71 34t30 64h77q0 -71 -51 -126.5t-129 -55.5q-50 0 -94 16.5t-69.5 36t-60 36t-69.5 16.5q-42 0 -71 -34t-29 -65h-78z" />
<glyph unicode="&#xf6;" horiz-adv-x="1230" d="M92 563q0 176 66.5 314.5t185 216t268.5 77.5q228 0 377.5 -170t149.5 -434q0 -269 -148.5 -440.5t-376.5 -171.5t-375 171t-147 437zM193 563q0 -141 54 -261t151.5 -191.5t215.5 -71.5q117 0 214.5 71t153.5 191.5t56 261.5q0 142 -56 262.5t-153.5 191t-214.5 70.5 q-118 0 -215.5 -71t-151.5 -191t-54 -262zM422 1386v248h100v-248h-100zM707 1386v248h100v-248h-100z" />
<glyph unicode="&#xf7;" horiz-adv-x="1388" d="M156 485v101h1077v-101h-1077zM643 0v217h100v-217h-100zM643 852v217h100v-217h-100z" />
<glyph unicode="&#xf8;" horiz-adv-x="1230" d="M76 -96l157 227q-141 175 -141 432q0 176 66.5 314.5t185 216t268.5 77.5q156 0 287 -88l137 197l74 -51l-143 -205q81 -81 126.5 -199t45.5 -258q0 -269 -148.5 -440.5t-376.5 -171.5q-180 0 -315 113l-149 -215zM193 563q0 -202 102 -344l549 785q-103 83 -230 83 q-118 0 -215.5 -71t-151.5 -191t-54 -262zM354 147q114 -108 260 -108q117 0 214.5 71t153.5 191.5t56 261.5q0 222 -129 377z" />
<glyph unicode="&#xf9;" d="M180 412v714h101v-704q3 -383 309 -383q180 0 293.5 152.5t113.5 420.5v514h101v-1126h-101v279q-49 -146 -157.5 -235t-272.5 -89q-183 0 -285 116t-102 341zM403 1634h150l149 -248h-106z" />
<glyph unicode="&#xfa;" d="M180 412v714h101v-704q3 -383 309 -383q175 0 288 145t119 400v542h101v-1126h-101v279q-49 -146 -157.5 -235t-272.5 -89q-183 0 -285 116t-102 341zM586 1386l186 261h150l-230 -261h-106z" />
<glyph unicode="&#xfb;" d="M180 412v714h101v-704q3 -383 309 -383q175 0 288 145t119 400v542h101v-1126h-101v279q-49 -146 -157.5 -235t-272.5 -89q-183 0 -285 116t-102 341zM348 1386l238 287h106l236 -287h-115l-174 218l-172 -218h-119z" />
<glyph unicode="&#xfc;" d="M180 412v714h101v-704q3 -383 309 -383q180 0 293.5 152.5t113.5 420.5v514h101v-1126h-101v279q-49 -146 -157.5 -235t-272.5 -89q-183 0 -285 116t-102 341zM446 1386v248h101v-248h-101zM731 1386v248h100v-248h-100z" />
<glyph unicode="&#xfd;" horiz-adv-x="978" d="M20 1126h107l360 -1003l367 1003h104l-604 -1587h-106l184 471zM436 1386l187 261h149l-229 -261h-107z" />
<glyph unicode="&#xfe;" d="M180 -461v2099h101v-755q61 132 165 210t238 78q215 0 358.5 -175t143.5 -437q0 -172 -65 -310t-179.5 -216t-257.5 -78q-134 0 -238.5 75.5t-164.5 205.5v-697h-101zM274 559q0 -228 117 -374t291 -146q114 0 207 70.5t144.5 189.5t51.5 260t-51.5 261.5t-144.5 193.5 t-207 73q-173 0 -290.5 -150.5t-117.5 -377.5z" />
<glyph unicode="&#xff;" horiz-adv-x="978" d="M20 1126h107l360 -1003l367 1003h104l-604 -1587h-106l184 471zM297 1386v248h100v-248h-100zM582 1386v248h100v-248h-100z" />
<glyph unicode="&#x152;" horiz-adv-x="2029" d="M96 766q0 186 48.5 340t134 257.5t203.5 160.5t257 57q65 0 130.5 -6.5t104 -12.5t148.5 -26h826v-86h-795v-635h702v-86h-702v-641h795v-88l-826 2q-193 -47 -383 -47q-133 0 -250.5 57t-204.5 160t-137.5 257t-50.5 337zM203 766q0 -325 146 -525t390 -200 q163 0 312 31v1394q-19 3 -64 9t-63 8.5t-52.5 6t-65 4.5t-67.5 1q-161 0 -283 -91t-187.5 -256.5t-65.5 -381.5z" />
<glyph unicode="&#x153;" horiz-adv-x="2070" d="M96 553q0 124 37.5 237t102 195.5t156 131t194.5 48.5q164 0 281.5 -104t166.5 -275q51 172 169 275.5t282 103.5q136 0 252 -81t180.5 -210t64.5 -272v-74h-907q7 -217 127.5 -356t294.5 -139q84 0 158 35t120.5 87t74 108t30.5 104h94q0 -43 -21.5 -97t-64.5 -110.5 t-99.5 -103.5t-134.5 -77t-161 -30q-168 0 -288 101.5t-171 271.5q-49 -170 -168 -271.5t-288 -101.5q-142 0 -253 82t-170 219t-59 303zM180 553q0 -231 108 -375.5t285 -144.5q179 0 300.5 147t121.5 373q0 227 -119 377.5t-290 150.5t-288.5 -150t-117.5 -378zM1077 606 h811q-17 210 -130.5 342.5t-272.5 132.5q-161 0 -277 -133.5t-131 -341.5z" />
<glyph unicode="&#x178;" horiz-adv-x="1175" d="M41 1536h115l428 -756l450 756h101l-500 -850v-686h-107v682zM395 1708v248h121v-248h-121zM659 1708v248h121v-248h-121z" />
<glyph unicode="&#x2c6;" horiz-adv-x="579" d="M0 1391l238 286h106l236 -286h-115l-174 217l-172 -217h-119z" />
<glyph unicode="&#x2dc;" horiz-adv-x="651" d="M0 1432q0 72 50 127t130 55q50 0 94 -16.5t69.5 -36t60 -36t69.5 -16.5q41 0 70.5 34.5t29.5 64.5h78q0 -71 -51 -127t-129 -56q-50 0 -94 16.5t-69.5 36t-60 36t-69.5 16.5q-42 0 -71 -33.5t-29 -64.5h-78z" />
<glyph unicode="&#x2000;" horiz-adv-x="1025" />
<glyph unicode="&#x2001;" horiz-adv-x="2050" />
<glyph unicode="&#x2002;" horiz-adv-x="1025" />
<glyph unicode="&#x2003;" horiz-adv-x="2050" />
<glyph unicode="&#x2004;" horiz-adv-x="683" />
<glyph unicode="&#x2005;" horiz-adv-x="512" />
<glyph unicode="&#x2006;" horiz-adv-x="341" />
<glyph unicode="&#x2007;" horiz-adv-x="341" />
<glyph unicode="&#x2008;" horiz-adv-x="256" />
<glyph unicode="&#x2009;" horiz-adv-x="410" />
<glyph unicode="&#x200a;" horiz-adv-x="113" />
<glyph unicode="&#x2010;" horiz-adv-x="806" d="M180 582v86h447v-86h-447z" />
<glyph unicode="&#x2011;" horiz-adv-x="806" d="M180 582v86h447v-86h-447z" />
<glyph unicode="&#x2012;" horiz-adv-x="806" d="M180 582v86h447v-86h-447z" />
<glyph unicode="&#x2013;" horiz-adv-x="1159" d="M180 582v86h799v-86h-799z" />
<glyph unicode="&#x2014;" horiz-adv-x="1519" d="M180 575v103h1159v-103h-1159z" />
<glyph unicode="&#x2018;" horiz-adv-x="528" d="M180 1063v223q0 103 40.5 171.5t119.5 86.5v-88q-37 -14 -53.5 -49.5t-20.5 -120.5h82v-223h-168z" />
<glyph unicode="&#x2019;" horiz-adv-x="528" d="M180 1321v223h168v-223q0 -103 -40.5 -171.5t-119.5 -86.5v88q37 12 53 48.5t19 121.5h-80z" />
<glyph unicode="&#x201a;" horiz-adv-x="524" d="M180 0v223h164v-223q0 -103 -40 -171.5t-118 -86.5v88q37 14 52 49.5t18 120.5h-76z" />
<glyph unicode="&#x201c;" horiz-adv-x="821" d="M180 1063v223q0 103 40.5 171.5t119.5 86.5v-88q-37 -14 -53.5 -49.5t-20.5 -120.5h82v-223h-168zM477 1063v223q0 103 40 171.5t118 86.5v-88q-38 -14 -53.5 -49.5t-18.5 -120.5h78v-223h-164z" />
<glyph unicode="&#x201d;" horiz-adv-x="821" d="M180 1321v223h164v-223q0 -103 -40 -171.5t-118 -86.5v88q37 12 52 47.5t18 122.5h-76zM473 1321v223h168v-223q0 -103 -40.5 -171.5t-119.5 -86.5v88q37 12 53 48.5t19 121.5h-80z" />
<glyph unicode="&#x201e;" horiz-adv-x="821" d="M180 0v223h164v-223q0 -103 -40 -171.5t-118 -86.5v88q37 14 52 49.5t18 120.5h-76zM473 0v223h168v-223q0 -103 -40.5 -171.5t-119.5 -86.5v88q37 14 53 50t19 120h-80z" />
<glyph unicode="&#x2022;" horiz-adv-x="1069" d="M328 672q0 90 60 152.5t147 62.5q86 0 146 -62t60 -153t-60 -153t-146 -62q-87 0 -147 62.5t-60 152.5z" />
<glyph unicode="&#x2026;" horiz-adv-x="1347" d="M180 0v223h164v-223h-164zM592 0v223h164v-223h-164zM1004 0v223h163v-223h-163z" />
<glyph unicode="&#x202f;" horiz-adv-x="410" />
<glyph unicode="&#x2039;" horiz-adv-x="759" d="M168 565l242 426h127l-242 -426l242 -426h-127z" />
<glyph unicode="&#x203a;" horiz-adv-x="759" d="M223 139l242 426l-242 426h127l242 -426l-242 -426h-127z" />
<glyph unicode="&#x205f;" horiz-adv-x="512" />
<glyph unicode="&#x20ac;" horiz-adv-x="1247" d="M66 582l34 82h144q-4 33 -4 102q0 76 8 133h-182l34 82h160q54 266 227 430t418 164q139 0 287 -72l-43 -71q-108 57 -244 57q-206 0 -347.5 -140t-190.5 -368h696l-35 -82h-674q-8 -57 -8 -133q0 -69 4 -102h643l-35 -82h-596q43 -241 187 -391t356 -150q178 0 295 86 l47 -70q-56 -44 -149 -73t-193 -29q-251 0 -427 173.5t-224 453.5h-188z" />
<glyph unicode="&#x2122;" horiz-adv-x="1484" d="M-35 1456v80h512v-80h-211v-708h-90v708h-211zM567 748v788h150l262 -694l289 694h125v-788h-90v671l-287 -671h-92l-277 729v-729h-80z" />
<glyph unicode="&#x25fc;" horiz-adv-x="1126" d="M0 0v1126h1126v-1126h-1126z" />
<glyph unicode="&#xfb01;" horiz-adv-x="1179" d="M123 1044v82h156v148q0 174 65.5 273.5t185.5 99.5q20 0 49 -2.5t47 -4.5l19 -2v-79q-59 4 -86 4q-95 0 -137.5 -70.5t-42.5 -208.5v-158h235v-82h-235v-1044h-100v1044h-156zM897 0v1126h100v-1126h-100zM899 1391v247h100v-247h-100z" />
<glyph unicode="&#xfb02;" horiz-adv-x="1177" d="M123 1044v82h156v148q0 174 65.5 273.5t185.5 99.5q20 0 49 -2.5t47 -4.5l19 -2v-79q-59 4 -86 4q-95 0 -137.5 -70.5t-42.5 -208.5v-158h235v-82h-235v-1044h-100v1044h-156zM897 0v1638h100v-1638h-100z" />
</font>
</defs>
</svg>
