<?xml version="1.0" standalone="no"?>
<!DOCTYPE svg PUBLIC "-//W3C//DTD SVG 1.1//EN" "http://www.w3.org/Graphics/SVG/1.1/DTD/svg11.dtd" >
<svg xmlns="http://www.w3.org/2000/svg">
<metadata></metadata>
<defs>
<font id="moriston_personalmedium" horiz-adv-x="1392" >
<font-face units-per-em="2048" ascent="1638" descent="-410" />
<missing-glyph horiz-adv-x="573" />
<glyph horiz-adv-x="0" />
<glyph horiz-adv-x="682" />
<glyph horiz-adv-x="0" />
<glyph horiz-adv-x="0" />
<glyph unicode="&#xd;" horiz-adv-x="573" />
<glyph unicode=" "  horiz-adv-x="573" />
<glyph unicode="&#x09;" horiz-adv-x="573" />
<glyph unicode="&#xa0;" horiz-adv-x="573" />
<glyph unicode="!" horiz-adv-x="638" d="M195 1638h249l-38 -1187h-173zM201 0v283h239v-283h-239z" />
<glyph unicode="&#x22;" horiz-adv-x="749" d="M115 1536h198l-28 -692h-142zM424 1536h197l-29 -692h-139z" />
<glyph unicode="#" horiz-adv-x="1495" d="M29 440v123h286l105 430h-279v121h310l102 422h158l-103 -422h377l102 422h158l-102 -422h264v-121h-295l-104 -430h286v-123h-317l-107 -442h-157l106 442h-377l-106 -442h-158l107 442h-256zM473 563h377l104 430h-376z" />
<glyph unicode="$" horiz-adv-x="1271" d="M45 444l217 15q26 -148 121 -228.5t223 -97.5l4 572q-6 0 -10 2q-83 19 -151 43t-134 61.5t-111 84t-72.5 112.5t-27.5 145q0 185 140.5 303t361.5 129l-2 199h152l-2 -203q194 -25 308.5 -135.5t149.5 -284.5l-219 -12q-11 95 -71 161.5t-170 88.5l-4 -514 q62 -16 107.5 -30t101.5 -36t95.5 -45.5t79.5 -58t64 -74.5t39.5 -93.5t15.5 -115.5q0 -204 -139 -328t-364 -145l2 -197h-148l2 195q-239 17 -384 147t-175 340zM332 1169q0 -100 68 -154t210 -95l-4 487q-123 -10 -198.5 -76.5t-75.5 -161.5zM748 135q121 20 195.5 97 t74.5 180q0 89 -66.5 151t-203.5 105v-533z" />
<glyph unicode="%" horiz-adv-x="1703" d="M49 1174q0 74 20.5 137t54.5 107t79 74.5t94 45t100 14.5q65 0 126.5 -24t112.5 -69.5t81.5 -120.5t30.5 -167q0 -93 -30.5 -167.5t-81.5 -120t-112 -69t-127 -23.5q-64 0 -124.5 24t-111.5 69.5t-81.5 120.5t-30.5 169zM195 1171q0 -126 58.5 -200t145.5 -74 q85 0 144 74t59 200t-59 200.5t-144 74.5q-87 0 -145.5 -74.5t-58.5 -200.5zM231 0l1057 1536h189l-1055 -1536h-191zM965 365q0 75 20.5 138t54.5 106.5t79.5 74.5t95 45t100.5 14q65 0 126 -24t111.5 -69t81.5 -120t31 -168q0 -92 -31 -166.5t-81.5 -120t-111.5 -69.5 t-126 -24t-126 24t-111.5 70t-81.5 121t-31 168zM1110 362q0 -126 59 -200t146 -74t145 74t58 200t-58.5 200.5t-144.5 74.5q-87 0 -146 -74.5t-59 -200.5z" />
<glyph unicode="&#x26;" horiz-adv-x="1476" d="M41 369q0 86 33.5 159t91.5 124.5t123 87t141 59.5q-38 40 -67 77t-59 87t-46 108t-16 119q0 170 126 281.5t330 111.5q210 0 336.5 -117.5t132.5 -363.5l-221 -4q0 165 -67.5 245t-180.5 80q-108 0 -170.5 -70.5t-62.5 -162.5q0 -35 12 -73t25 -64.5t42.5 -65 t42.5 -53.5t47.5 -52t37.5 -40l346 -377q127 197 178 387l154 -80q-59 -212 -211 -436l307 -336h-281l-161 176q-219 -219 -504 -219q-199 0 -329 114.5t-130 297.5zM279 395q0 -105 83 -178.5t201 -73.5q189 0 336 150l-358 391q-262 -107 -262 -289z" />
<glyph unicode="'" horiz-adv-x="462" d="M143 1536h176l-22 -600h-131z" />
<glyph unicode="(" horiz-adv-x="673" d="M106 578q0 135 19 267t49.5 235t67.5 196t73.5 159t67 115t49.5 73l19 24l167 -99q-12 -15 -32.5 -44.5t-72.5 -127t-91.5 -203t-72 -268t-32.5 -327.5q0 -120 16.5 -239t43 -212t59 -178t64.5 -146t58.5 -106t43.5 -67l16 -23l-167 -99q-7 9 -19.5 25t-48.5 71.5 t-68.5 116.5t-72 158t-68.5 197.5t-48.5 233.5t-19.5 268z" />
<glyph unicode=")" horiz-adv-x="659" d="M41 -393q12 16 32.5 45t72.5 126.5t91.5 203t72 268.5t32.5 328q0 120 -16.5 239t-43 212t-58.5 178t-64.5 145.5t-59 106t-42.5 67.5l-17 22l168 99q7 -9 19.5 -25t48 -71t68 -116.5t72.5 -158t68.5 -197.5t48 -233.5t19.5 -267.5t-19 -267t-49.5 -235t-67 -196.5 t-73 -159.5t-67 -115t-49.5 -73l-19 -24z" />
<glyph unicode="*" horiz-adv-x="1099" d="M135 1176l51 155l308 -133l-25 338h160l-21 -336l305 131l52 -155l-322 -89l211 -266l-127 -96l-178 295l-176 -295l-129 96l213 269z" />
<glyph unicode="+" horiz-adv-x="1406" d="M156 455v182h456v453h183v-453h456v-182h-456v-455h-183v455h-456z" />
<glyph unicode="," horiz-adv-x="626" d="M176 0v281h275v-281q0 -128 -74.5 -222.5t-188.5 -109.5v127q58 14 87 60t36 145h-135z" />
<glyph unicode="-" horiz-adv-x="909" d="M180 563v152h547v-152h-547z" />
<glyph unicode="." horiz-adv-x="626" d="M176 0v281h275v-281h-275z" />
<glyph unicode="/" horiz-adv-x="915" d="M41 -158l653 1913h180l-655 -1913h-178z" />
<glyph unicode="0" horiz-adv-x="1511" d="M104 758q0 229 84.5 414t233.5 289t334 104t334 -104.5t233 -289t84 -413.5q0 -228 -84 -411.5t-233 -287.5t-334 -104q-139 0 -260 61t-207 167t-135.5 255.5t-49.5 319.5zM350 758q0 -273 113.5 -445t292.5 -172q181 0 293 171.5t112 445.5q0 278 -112 450t-293 172 q-179 0 -292.5 -172.5t-113.5 -449.5z" />
<glyph unicode="1" horiz-adv-x="997" d="M129 1165v166q121 6 223 66t154 151h129v-1368h252v-180h-737v180h256v1080q-148 -95 -277 -95z" />
<glyph unicode="2" horiz-adv-x="1284" d="M102 1010q0 258 145.5 410.5t381.5 152.5q228 0 368 -123.5t140 -341.5q0 -127 -50 -248.5t-148.5 -236.5t-217 -216.5t-283.5 -218.5h738v-188h-1067v184q147 108 253 192.5t214.5 184.5t175.5 184.5t109 177t42 177.5q0 149 -74.5 226t-197.5 77q-140 0 -222 -104.5 t-81 -292.5z" />
<glyph unicode="3" horiz-adv-x="1282" d="M74 455l215 10q11 -136 102 -227.5t238 -90.5q149 0 234 84t85 201q0 142 -109 214.5t-307 72.5h-63v178h61q97 0 177.5 29.5t133 92.5t52.5 148q0 107 -73.5 168.5t-196.5 61.5t-207 -80.5t-84 -202.5l-213 8q5 87 43 167t101.5 142t158 99t205.5 37q224 0 354.5 -109.5 t130.5 -277.5q0 -132 -89 -226.5t-243 -136.5q192 -35 298 -133.5t106 -261.5q0 -200 -156 -324.5t-395 -124.5t-390.5 131t-168.5 351z" />
<glyph unicode="4" horiz-adv-x="1325" d="M78 436v125l670 983h266v-954h235v-154h-235v-436h-223v436h-713zM313 590h478v733z" />
<glyph unicode="5" horiz-adv-x="1314" d="M92 432l199 19q23 -151 118 -236.5t232 -85.5q143 0 237.5 94.5t94.5 255.5q0 162 -91 263.5t-229 101.5q-108 0 -193.5 -59.5t-121.5 -145.5l-184 31l86 874h854l-7 -178h-667l-53 -487q134 131 340 131q140 0 254 -63t180.5 -181.5t66.5 -271.5q0 -232 -155.5 -376.5 t-401.5 -144.5q-233 0 -380.5 124.5t-178.5 334.5z" />
<glyph unicode="6" horiz-adv-x="1323" d="M104 758q0 168 36 306.5t95.5 230t138 154.5t161 90.5t167.5 27.5q197 0 326.5 -110t153.5 -275l-205 -6q-5 30 -25 63.5t-52.5 66t-85 53.5t-112.5 21q-53 0 -104.5 -21.5t-101 -71.5t-87 -123.5t-60.5 -186t-23 -250.5q0 -19 -2 -29q53 140 163 221.5t252 81.5 q98 0 188 -36.5t158.5 -101.5t109 -161.5t40.5 -209.5q0 -143 -75.5 -262.5t-203.5 -188t-278 -68.5q-118 0 -221.5 51.5t-182 148t-124 247.5t-46.5 338zM367 487q0 -143 93 -245.5t226 -102.5q136 0 235 101t99 245q0 155 -93.5 254t-230.5 99q-139 0 -234 -99t-95 -252z " />
<glyph unicode="7" horiz-adv-x="1032" d="M72 1358v186h940v-153q-154 -154 -314.5 -530t-248.5 -861h-240q41 223 115 444.5t159 395t165 304t151 214.5h-727z" />
<glyph unicode="8" horiz-adv-x="1357" d="M104 436q0 149 93 252t243 150q-116 46 -183 134t-67 208q0 114 70.5 204t181 136.5t236.5 46.5q95 0 183 -27.5t157 -76.5t110 -122.5t41 -160.5q0 -120 -68 -208t-186 -134q151 -47 244.5 -150t93.5 -252q0 -136 -82 -243.5t-212 -163.5t-281 -56q-111 0 -215 33 t-183.5 92t-127.5 147t-48 191zM336 440q0 -89 49.5 -159t127 -106t165.5 -36q138 0 240 84t102 217q0 134 -101.5 216.5t-240.5 82.5q-88 0 -165.5 -35t-127 -105t-49.5 -159zM397 1169q0 -113 83.5 -183.5t197.5 -70.5q115 0 200 70.5t85 183.5q0 111 -83.5 173.5 t-201.5 62.5q-116 0 -198.5 -62.5t-82.5 -173.5z" />
<glyph unicode="9" horiz-adv-x="1323" d="M100 1047q0 108 44.5 204.5t119.5 165.5t177.5 109.5t213.5 40.5q118 0 221.5 -51.5t182 -148t123.5 -247t45 -336.5q0 -141 -24 -261.5t-67 -207.5t-99 -154t-122.5 -107.5t-135 -60.5t-138.5 -20q-104 0 -195 36.5t-152.5 96t-100.5 129t-52 140.5l205 12 q20 -93 99 -167.5t198 -74.5q55 0 106 25t97.5 80t81.5 134.5t56.5 196.5t23.5 259q-53 -141 -163 -223t-249 -82q-99 0 -189 37t-158 102.5t-108.5 162.5t-40.5 210zM313 1053q0 -155 93.5 -254t230.5 -99t233.5 100t96.5 253q0 143 -93.5 243.5t-226.5 100.5 q-137 0 -235.5 -99.5t-98.5 -244.5z" />
<glyph unicode=":" horiz-adv-x="626" d="M176 0v281h275v-281h-275zM176 866v281h275v-281h-275z" />
<glyph unicode=";" horiz-adv-x="626" d="M176 0v281h275v-281q0 -128 -74.5 -222.5t-188.5 -109.5v127q58 14 87 60t36 145h-135zM176 866v281h275v-281h-275z" />
<glyph unicode="&#x3c;" horiz-adv-x="1331" d="M131 432v232l1069 411v-205l-878 -321l878 -322v-207z" />
<glyph unicode="=" horiz-adv-x="1406" d="M156 209v182h1095v-182h-1095zM156 659v183h1095v-183h-1095z" />
<glyph unicode="&#x3e;" horiz-adv-x="1271" d="M102 20v207l877 322l-877 321v205l1067 -411v-232z" />
<glyph unicode="?" horiz-adv-x="1236" d="M106 1090q0 226 150.5 367.5t386.5 141.5q217 0 351 -108t134 -289q0 -71 -22 -135.5t-51 -107.5t-76 -85t-78 -63.5t-76 -48.5q-78 -50 -117.5 -101.5t-39.5 -138.5v-71h-199v75q0 54 10.5 100t24.5 75.5t41 60t45.5 46t53.5 43.5q6 5 9 7q12 9 49 35.5t55 40.5 t47.5 44.5t44 58t26.5 69.5t12 90q0 112 -68.5 182t-183.5 70q-131 0 -212 -106.5t-81 -251.5h-236zM451 0v283h239v-283h-239z" />
<glyph unicode="@" horiz-adv-x="2091" d="M86 582q0 200 73.5 382.5t201.5 317.5t313 215t397 80q172 0 321 -45.5t256.5 -125t184 -185.5t114.5 -228t38 -252q0 -144 -39 -267t-106 -206.5t-158 -130.5t-193 -47q-120 0 -188 62t-74 157q-119 -213 -342 -213q-183 0 -279.5 137t-58.5 357q33 206 164.5 330 t306.5 124q143 0 218.5 -78.5t88.5 -207.5l64 239h170l-156 -575q-24 -92 6 -155.5t109 -63.5q135 0 229 150.5t94 375.5q0 214 -100 378t-272.5 251.5t-389.5 87.5q-166 0 -317.5 -62t-267.5 -173t-185 -279t-69 -367q0 -156 45 -292.5t123.5 -237t184 -172.5t228.5 -108 t254 -36q169 0 298.5 46.5t254.5 130.5l78 -101q-108 -95 -284.5 -153t-352.5 -58q-93 0 -188 18t-192 57.5t-185 96t-164.5 139t-132.5 182t-88.5 229.5t-32.5 276zM739 569q-27 -156 25.5 -249t161.5 -93q115 0 205 96.5t116 256.5q26 154 -27.5 242.5t-162.5 88.5 q-116 0 -205 -92.5t-113 -249.5z" />
<glyph unicode="A" horiz-adv-x="1495" d="M57 0l553 1536h293l531 -1536h-271l-137 399h-608l-135 -399h-226zM477 569h490l-230 727z" />
<glyph unicode="B" horiz-adv-x="1507" d="M186 0v1536h676q102 0 186 -21.5t149 -65t100.5 -116.5t35.5 -170q0 -66 -20 -121t-51.5 -92.5t-76.5 -66t-90.5 -45t-97.5 -27.5q61 -5 116.5 -19t112.5 -43.5t98 -71.5t67 -109t26 -150q0 -91 -28.5 -163t-76.5 -119.5t-117 -78.5t-145 -44t-165 -13h-699zM436 178h342 q69 0 124.5 8t103.5 28t80 51.5t50.5 79t18.5 110.5q0 76 -31 129.5t-88 81.5t-124 39.5t-154 11.5h-322v-539zM436 868h285q68 0 129 12.5t118 40t90.5 80.5t33.5 125q0 59 -18 102.5t-47 69t-75.5 41t-95 20.5t-113.5 5h-307v-496z" />
<glyph unicode="C" horiz-adv-x="1662" d="M104 768q0 187 57.5 342t157.5 257.5t234.5 159t288.5 56.5q272 0 466.5 -166t243.5 -448l-247 -15q-43 201 -168 325t-289 124q-132 0 -240.5 -77t-173.5 -223t-65 -335q0 -283 137.5 -459t341.5 -176q160 0 283.5 117t168.5 301l248 -8q-51 -262 -247 -426t-459 -164 q-120 0 -230 35.5t-202.5 105.5t-160.5 167t-106.5 227.5t-38.5 279.5z" />
<glyph unicode="D" horiz-adv-x="1581" d="M186 0v1536h506q162 0 303 -52.5t246 -149.5t165 -244t60 -326t-60.5 -325t-165.5 -241t-245.5 -146.5t-302.5 -51.5h-506zM436 166h213q118 0 218.5 40.5t175 115t117 188.5t42.5 254v6q0 136 -42 250q-44 116 -119.5 192t-176 117t-215.5 41h-213v-1204z" />
<glyph unicode="E" horiz-adv-x="1294" d="M186 2v1534h1000v-180h-758v-496h674v-168h-674v-510h758v-182z" />
<glyph unicode="F" horiz-adv-x="1263" d="M186 0v1536h971v-180h-729v-539h645v-168h-645v-649h-242z" />
<glyph unicode="G" horiz-adv-x="1693" d="M115 768q0 185 58 340t158.5 258t235 160t287.5 57q258 0 448 -160.5t250 -435.5l-241 -14q-45 190 -170.5 310t-286.5 120q-203 0 -340 -177t-137 -458q0 -140 39 -260t106 -201.5t156.5 -127.5t189.5 -46q94 0 177.5 41.5t142 110t96.5 152.5t51 173h-383v166h611v-778 h-152l-20 293q-84 -156 -229 -247t-326 -91q-143 0 -273.5 57t-230 159.5t-158.5 258t-59 340.5z" />
<glyph unicode="H" horiz-adv-x="1634" d="M186 0v1536h250v-686h762v686h250v-1536h-250v684h-762v-684h-250z" />
<glyph unicode="I" horiz-adv-x="632" d="M193 0v1536h249v-1536h-249z" />
<glyph unicode="J" horiz-adv-x="952" d="M63 6l5 168q31 -4 88 -4q188 0 272 109.5t84 328.5v928h254v-924q0 -310 -135.5 -462t-423.5 -152q-96 0 -144 8z" />
<glyph unicode="K" horiz-adv-x="1386" d="M186 0v1536h250v-690l557 692h277l-615 -745l701 -793h-322l-598 690v-690h-250z" />
<glyph unicode="L" horiz-adv-x="1085" d="M186 0v1534h250v-1354h545v-180h-795z" />
<glyph unicode="M" horiz-adv-x="1990" d="M186 0v1536h328l479 -1235l486 1235h325v-1536h-241l2 1270l-508 -1270h-160l-483 1249l-2 -1247z" />
<glyph unicode="N" horiz-adv-x="1605" d="M186 0v1536h238l782 -1137v1135l213 2v-1536h-231l-789 1143v-1143h-213z" />
<glyph unicode="O" horiz-adv-x="1710" d="M115 768q0 187 58.5 342t159 257.5t235.5 159t288 56.5t288 -56.5t235.5 -159t159 -257.5t58.5 -342q0 -186 -60 -341.5t-162 -258t-236 -159t-283 -56.5t-283 56.5t-236 159t-162 258t-60 341.5zM377 762q0 -138 38 -256.5t102.5 -199.5t152.5 -127t186 -46 q203 0 340 175.5t137 453.5q0 144 -37 265.5t-101.5 203t-152 127t-186.5 45.5q-202 0 -340.5 -177t-138.5 -464z" />
<glyph unicode="P" horiz-adv-x="1476" d="M186 0v1536h686q80 0 154.5 -16.5t143.5 -53.5t120.5 -91t82 -135t30.5 -179q0 -99 -34 -180.5t-90 -135.5t-131 -91t-155 -53.5t-164 -16.5h-391v-584h-252zM438 743h324q75 0 142.5 18.5t122 55t86.5 98t32 140.5t-29.5 140.5t-80 99t-115 56.5t-138.5 19h-344v-627z " />
<glyph unicode="Q" horiz-adv-x="1710" d="M115 768q0 187 58.5 342t159 257.5t235.5 159t288 56.5t288 -56.5t235.5 -159t159 -257.5t58.5 -342q0 -206 -71 -370.5t-197 -272.5l162 -211l-158 -119l-170 225q-146 -67 -307 -67q-149 0 -283 56.5t-236 159t-162 258t-60 341.5zM377 762q0 -138 38 -256.5 t102.5 -199.5t152.5 -127t186 -46q100 0 188 45l-161 217l151 113l158 -205q141 178 141 459q0 144 -37 265.5t-101.5 203t-152 127t-186.5 45.5q-202 0 -340.5 -177t-138.5 -464z" />
<glyph unicode="R" horiz-adv-x="1517" d="M184 0v1536h678q107 0 198.5 -25t162.5 -74t111 -129t40 -182q0 -159 -96.5 -258.5t-247.5 -132.5q161 -15 240.5 -93.5t79.5 -238.5v-135q0 -179 90 -248v-24h-215q-129 69 -129 291v131q0 125 -73 186.5t-202 61.5h-385v-666h-252zM436 825h322q166 0 264 79.5 t98 203.5q0 121 -88 191.5t-248 70.5h-348v-545z" />
<glyph unicode="S" horiz-adv-x="1349" d="M70 444l215 15q15 -87 57.5 -153.5t100.5 -104t121.5 -56t131.5 -18.5q150 0 247 83t97 202q0 111 -100.5 179.5t-316.5 115.5q-83 19 -151 43t-133.5 62t-110.5 84.5t-72 112t-27 144.5q0 194 153 314t390 120q241 0 383 -114t182 -312l-221 -12q-13 116 -99 188 t-243 72q-141 0 -230.5 -68t-89.5 -172q0 -41 11 -74t36 -58.5t54 -45t75 -37t88 -29.5t105 -28q56 -14 89.5 -23.5t86.5 -26t86 -30.5t76.5 -36.5t71 -45.5t57 -55.5t46 -68t27.5 -81.5t11 -98q0 -149 -78 -258t-209.5 -164t-300.5 -55q-263 0 -423.5 132.5t-192.5 356.5z " />
<glyph unicode="T" horiz-adv-x="1208" d="M70 1354v182h1069v-182h-410v-1354h-250v1354h-409z" />
<glyph unicode="U" horiz-adv-x="1613" d="M186 633v903h250v-893q0 -88 8.5 -158t32.5 -138t64 -113.5t107 -73t157 -27.5t157 27t108 72t65.5 112t33.5 137t9 158v897h252v-903q0 -339 -152.5 -509.5t-472.5 -170.5q-318 0 -468.5 170t-150.5 510z" />
<glyph unicode="V" horiz-adv-x="1388" d="M53 1536h266l383 -1315l400 1315h233l-524 -1536h-246z" />
<glyph unicode="W" horiz-adv-x="2289" d="M53 1536h266l320 -1327l385 1327h289l356 -1294l332 1294h235l-458 -1536h-244l-377 1305l-405 -1305h-258z" />
<glyph unicode="X" horiz-adv-x="1456" d="M55 0l551 776l-538 760h292l381 -602l381 602h269l-537 -768l549 -768h-287l-391 600l-410 -600h-260z" />
<glyph unicode="Y" horiz-adv-x="1341" d="M53 1536h271l358 -694l375 694h231l-493 -870v-666h-254v659z" />
<glyph unicode="Z" horiz-adv-x="1359" d="M100 0v117l840 1290h-782v129h1063v-111l-846 -1296h885v-129h-1160z" />
<glyph unicode="[" horiz-adv-x="714" d="M162 -446v1982h485v-145h-264v-1692h264v-145h-485z" />
<glyph unicode="\" horiz-adv-x="915" d="M41 1755h180l653 -1913h-178z" />
<glyph unicode="]" horiz-adv-x="714" d="M66 -307h264v1706h-264v137h485v-1982h-485v139z" />
<glyph unicode="^" horiz-adv-x="1099" d="M190 1286l250 303h219l252 -303h-194l-166 213l-164 -213h-197z" />
<glyph unicode="_" horiz-adv-x="1103" d="M59 -139h957v-113h-957v113z" />
<glyph unicode="`" horiz-adv-x="430" d="M16 1638h238l156 -258h-189z" />
<glyph unicode="a" d="M100 578q0 268 142.5 440t365.5 172q131 0 229.5 -71.5t155.5 -198.5l8 227h216v-1147h-216l-8 231q-57 -130 -155.5 -203t-229.5 -73q-221 0 -364.5 176t-143.5 447zM328 578q0 -120 43.5 -223.5t120.5 -165.5t170 -62q140 0 236.5 129t96.5 319q0 191 -96.5 318 t-236.5 127q-93 0 -170 -60.5t-120.5 -162t-43.5 -219.5z" />
<glyph unicode="b" d="M176 0v1638h227v-708q57 123 154.5 191.5t228.5 68.5q146 0 262 -78t181 -217.5t65 -316.5q0 -271 -143.5 -447t-364.5 -176q-133 0 -231.5 72t-155.5 200l-8 -227h-215zM397 575q0 -194 96.5 -323t237.5 -129q94 0 171.5 62.5t120 166.5t42.5 226q0 185 -95.5 315.5 t-238.5 130.5q-141 0 -237.5 -128t-96.5 -321z" />
<glyph unicode="c" horiz-adv-x="1296" d="M100 575q0 177 72.5 317.5t202 219t293.5 78.5q204 0 346 -118.5t188 -317.5l-219 -9q-38 120 -119.5 199.5t-189.5 79.5q-97 0 -177 -62t-124.5 -165t-44.5 -222q0 -120 44.5 -224t124.5 -167t177 -63q110 0 194 88.5t119 212.5l219 -6q-40 -209 -183 -335t-355 -126 q-163 0 -293.5 80.5t-202.5 222t-72 317.5z" />
<glyph unicode="d" d="M100 578q0 268 142.5 440t365.5 172q132 0 229 -69.5t154 -194.5v712h226v-1638h-216l-8 231q-57 -130 -155.5 -203t-229.5 -73q-221 0 -364.5 176t-143.5 447zM328 578q0 -189 96.5 -322t237.5 -133t237 128t96 324t-96 322.5t-237 126.5q-93 0 -170 -60t-120.5 -162 t-43.5 -224z" />
<glyph unicode="e" horiz-adv-x="1302" d="M100 571q0 130 43.5 245t117.5 197t178 129.5t220 47.5q154 0 278.5 -77t195 -207.5t75.5 -287.5v-79h-880q10 -184 107 -301t235 -117q69 0 129.5 27t99.5 67.5t62.5 85t27.5 82.5l211 -2q-3 -67 -43.5 -140.5t-108 -137.5t-170.5 -106t-219 -42q-158 0 -286.5 81 t-200.5 222t-72 313zM334 678h651q-26 154 -116 250t-207 96q-121 0 -212 -96t-116 -250z" />
<glyph unicode="f" horiz-adv-x="829" d="M109 1014v133h155v117q0 187 85.5 287t234.5 100q43 0 86 -4.5t64 -8.5l22 -4v-135q-3 0 -41.5 2t-55.5 2q-89 0 -128 -62t-39 -186v-108h237v-133h-237v-1014h-228v1014h-155z" />
<glyph unicode="g" d="M100 573q0 133 38 248t104.5 196t161 127t204.5 46q133 0 232.5 -73t154.5 -202l11 232h206v-1096q0 -138 -41 -244t-114.5 -170.5t-169.5 -97.5t-211 -33q-220 0 -344.5 96.5t-153.5 258.5h217q18 -103 92.5 -165.5t186.5 -62.5q60 0 113.5 18t103 58.5t79 116.5 t29.5 180v230q-57 -132 -157 -206.5t-234 -74.5q-221 0 -364.5 174t-143.5 444zM326 573q0 -188 97.5 -321t238.5 -133t238 129t97 325q0 194 -97 322.5t-238 128.5t-238.5 -132.5t-97.5 -318.5z" />
<glyph unicode="h" d="M176 0v1638h227v-720q57 126 165.5 199t254.5 73q187 0 289 -118t102 -357v-715h-225v674q-3 338 -256 338q-143 0 -234.5 -121.5t-95.5 -337.5v-553h-227z" />
<glyph unicode="i" horiz-adv-x="581" d="M176 0v1147h227v-1147h-227zM178 1380v258h228v-258h-228z" />
<glyph unicode="j" horiz-adv-x="548" d="M-100 -319q33 -7 82 -7q168 0 168 267v1206h223v-1223q0 -407 -328 -407q-39 0 -75.5 4t-53.5 8l-16 4v148zM154 1380v258h227v-258h-227z" />
<glyph unicode="k" horiz-adv-x="1165" d="M176 0v1624h223v-995l453 518h246l-482 -526l521 -621h-265l-473 586v-586h-223z" />
<glyph unicode="l" horiz-adv-x="581" d="M176 0v1638h227v-1638h-227z" />
<glyph unicode="m" horiz-adv-x="2080" d="M176 0v1147h221l4 -223q54 123 152.5 194.5t228.5 71.5q270 0 346 -299q53 144 158 221.5t240 77.5q176 0 273 -118t97 -357v-715h-227v674q0 170 -59 254t-170 84q-129 0 -209 -126t-80 -347v-539h-227v674q0 338 -230 338q-127 0 -207 -119t-84 -332v-561h-227z" />
<glyph unicode="n" d="M176 0v1147h217l6 -238q57 131 166 206t258 75q187 0 289 -118t102 -357v-715h-225v674q-3 338 -256 338q-143 0 -234.5 -121.5t-95.5 -337.5v-553h-227z" />
<glyph unicode="o" horiz-adv-x="1341" d="M100 573q0 278 158.5 447.5t409.5 169.5q124 0 229.5 -44t181.5 -123t119 -194.5t43 -253.5q0 -278 -160 -449t-411 -171q-252 0 -411 170.5t-159 447.5zM328 573q0 -194 97 -322t245 -128q145 0 244.5 128.5t99.5 321.5q0 190 -99.5 320.5t-244.5 130.5 q-147 0 -244.5 -129.5t-97.5 -321.5z" />
<glyph unicode="p" d="M176 -461v1608h215l8 -232q57 129 156 202t231 73q221 0 364.5 -175.5t143.5 -445.5q0 -269 -143 -441.5t-365 -172.5q-132 0 -229 68.5t-154 191.5v-676h-227zM397 569q0 -193 96.5 -319.5t237.5 -126.5q143 0 238.5 130.5t95.5 315.5q0 186 -96 320.5t-238 134.5 q-140 0 -237 -130.5t-97 -324.5z" />
<glyph unicode="q" d="M100 569q0 270 143.5 445.5t364.5 175.5q131 0 229 -74t156 -203l8 234h216v-1608h-226v680q-57 -125 -154 -194.5t-229 -69.5q-147 0 -263 78.5t-180.5 218.5t-64.5 317zM328 569q0 -122 43.5 -224t120.5 -162t170 -60q141 0 237 126.5t96 319.5q0 194 -96.5 324.5 t-236.5 130.5q-93 0 -170 -62.5t-120.5 -167t-43.5 -225.5z" />
<glyph unicode="r" horiz-adv-x="856" d="M176 0v1147h221l6 -279q50 153 152 237.5t229 84.5v-213q-9 1 -18 1q-30 0 -60 -8q-40 -10 -83.5 -32t-82 -63t-69.5 -96t-49.5 -134.5t-18.5 -173.5v-471h-227z" />
<glyph unicode="s" horiz-adv-x="1110" d="M72 332l196 8q15 -108 89.5 -167.5t203.5 -59.5q114 0 185 49t71 133q0 90 -75.5 141.5t-225.5 73.5q-185 28 -293 115.5t-108 234.5q0 153 122 241.5t310 88.5q191 0 309.5 -87.5t138.5 -244.5l-192 -8q-10 88 -78 135t-178 47q-104 0 -166 -43t-62 -123q0 -37 14 -65.5 t37.5 -48t64.5 -34.5t83.5 -24.5t106.5 -19.5q195 -30 298 -123t103 -246q0 -116 -64 -196.5t-169 -117t-244 -36.5q-216 0 -336 98t-141 279z" />
<glyph unicode="t" horiz-adv-x="829" d="M104 1016v131h142v287h227v-287h207v-131h-207v-654q0 -121 39.5 -173t118.5 -52q21 0 41.5 2t30.5 4l10 2v-147q-56 -21 -154 -21q-155 0 -234 84.5t-79 286.5v668h-142z" />
<glyph unicode="u" horiz-adv-x="1390" d="M176 432v715h227v-684q3 -340 259 -340q140 0 230.5 122t94.5 337v565h227v-1147h-219l-6 233q-56 -128 -163.5 -203t-254.5 -75q-188 0 -291.5 119t-103.5 358z" />
<glyph unicode="v" horiz-adv-x="1089" d="M29 1147h237l283 -924l295 924h215l-414 -1147h-219z" />
<glyph unicode="w" horiz-adv-x="1783" d="M29 1147h239l242 -934l274 934h236l221 -946l297 946h217l-391 -1147h-246l-227 969l-279 -969h-231z" />
<glyph unicode="x" horiz-adv-x="1163" d="M33 0l432 575l-426 572h254l303 -436l299 436h215l-418 -567l443 -580h-258l-312 438l-315 -438h-217z" />
<glyph unicode="y" horiz-adv-x="1146" d="M29 1147h252l301 -932l319 932h215l-612 -1608h-215l178 449z" />
<glyph unicode="z" horiz-adv-x="1075" d="M76 0v104l614 887h-571v156h860v-103l-608 -888h628v-156h-923z" />
<glyph unicode="{" horiz-adv-x="739" d="M106 451v176h64q100 0 100 116v531q0 126 60 195t172 69h233v-141h-143q-103 0 -103 -117v-485q0 -66 -10 -110t-33.5 -71.5t-50.5 -42.5t-73 -32q37 -14 59.5 -25t45.5 -30.5t35 -44.5t19.5 -64t7.5 -92v-486q0 -61 26 -88.5t77 -27.5h143v-142h-233q-112 0 -172 69 t-60 195v531q0 117 -100 117h-64z" />
<glyph unicode="|" horiz-adv-x="483" d="M154 -623v2384h176v-2384h-176z" />
<glyph unicode="}" horiz-adv-x="739" d="M4 -319h143q51 0 77 27.5t26 88.5v486q0 66 10 109.5t34.5 71.5t50.5 42.5t73 32.5q-47 17 -73.5 32t-50.5 42.5t-34 71.5t-10 110v485q0 117 -103 117h-143v141h234q112 0 171.5 -68.5t59.5 -195.5v-531q0 -116 100 -116h64v-181h-64q-100 0 -100 -116v-527 q0 -127 -59.5 -195.5t-171.5 -68.5h-234v142z" />
<glyph unicode="~" horiz-adv-x="1136" d="M207 1300q0 106 60 173t153 67q54 0 101.5 -15.5t75.5 -34.5t66 -34.5t74 -15.5q47 0 77 32t30 64h100q0 -105 -61 -170.5t-154 -65.5q-53 0 -100.5 16t-76 34.5t-66 34.5t-74.5 16q-46 0 -75.5 -33.5t-29.5 -67.5h-100z" />
<glyph unicode="&#xa1;" horiz-adv-x="544" d="M154 487l12 306v34l6 131h203l4 -131h4v-100l10 -240h-8l6 -655h-233l4 655h-8z" />
<glyph unicode="&#xa2;" horiz-adv-x="1300" d="M94 567q0 248 142 410t362 186l-2 187h149l-2 -189q178 -21 305.5 -134t163.5 -294l-215 -6q-24 107 -94 179.5t-162 94.5l-4 -426l4 -438q90 21 159 91t95 175l219 -2q-38 -182 -164.5 -293.5t-306.5 -132.5l2 -194h-149l2 192q-219 24 -361.5 185.5t-142.5 408.5z M322 567q0 -176 77 -289.5t199 -140.5l4 438l-4 426q-121 -27 -198.5 -142.5t-77.5 -291.5z" />
<glyph unicode="&#xa3;" horiz-adv-x="1437" d="M33 201q0 110 79.5 172.5t215.5 62.5q114 0 200 -57q-2 34 -8 69.5t-12.5 61t-20 64t-20.5 56t-25.5 62.5t-23.5 58h-275v106h234q-49 139 -49 285q0 203 123 321.5t340 118.5q222 0 343.5 -132.5t125.5 -399.5l-207 -7q0 212 -66 310t-180 98q-120 0 -187 -77t-67 -228 q0 -122 55 -289h375v-106h-338q30 -85 45 -133.5t30 -123t15 -137.5q0 -79 -26 -147q56 -59 106.5 -90t116.5 -31q122 0 194 104t72 295l205 -2q0 -261 -112.5 -395.5t-309.5 -134.5q-109 0 -185.5 40t-142.5 111q-53 -70 -131.5 -110.5t-175.5 -40.5q-152 0 -232.5 66.5 t-80.5 179.5zM172 203q0 -60 42.5 -97.5t115.5 -37.5q76 0 124 48t66 136q-91 84 -192 84q-69 0 -112.5 -37t-43.5 -96z" />
<glyph unicode="&#xa4;" horiz-adv-x="1292" d="M96 127l125 127q-108 147 -108 334q0 188 108 332l-125 129l101 102l125 -137q140 100 319 100q180 0 317 -100l127 137l101 -102l-127 -129q110 -147 110 -332q0 -184 -110 -334l127 -127l-101 -104l-127 137q-138 -101 -317 -101q-178 0 -319 101l-125 -137zM313 588 q0 -193 93.5 -302.5t234.5 -109.5t234.5 109.5t93.5 302.5q0 190 -94 300.5t-234 110.5t-234 -110.5t-94 -300.5z" />
<glyph unicode="&#xa5;" horiz-adv-x="1296" d="M59 1536h260l369 -698h4l381 696l166 2l-420 -756h346v-108h-399v-209h399v-109h-399v-354h-248v354h-393v109h393v209h-393v108h338z" />
<glyph unicode="&#xa6;" horiz-adv-x="483" d="M154 362h176v-985h-176v985zM154 866v895h176v-895h-176z" />
<glyph unicode="&#xa7;" horiz-adv-x="1261" d="M57 -18l217 14q15 -87 53.5 -151.5t93 -100t113.5 -52t125 -16.5q137 0 225.5 72.5t88.5 183.5q0 108 -88 172t-293 105q-236 47 -357.5 140t-121.5 259q0 90 52 169.5t142 133.5q-166 107 -166 283q0 175 144.5 282t369.5 107t361.5 -108t167.5 -277l-211 -10 q-13 119 -91 191.5t-218 72.5q-135 0 -216 -63.5t-81 -165.5q0 -58 21 -99t67 -69.5t99.5 -46.5t137.5 -37q92 -19 161.5 -38.5t142.5 -53.5t120 -76.5t77 -107t30 -144.5q0 -182 -170 -293q157 -101 157 -287q0 -198 -158.5 -313t-400.5 -115q-248 0 -407 121t-187 318z M307 649q0 -49 16 -86t41.5 -62t72.5 -45.5t93 -33.5t119 -29q193 -42 260 -65q99 77 99 176q0 118 -81.5 183t-267.5 101q-118 22 -215 58q-137 -62 -137 -197z" />
<glyph unicode="&#xa8;" horiz-adv-x="587" d="M20 1376v273h185v-273h-185zM381 1376v273h186v-273h-186z" />
<glyph unicode="&#xa9;" horiz-adv-x="1718" d="M53 764q0 167 63 318t171 260t258 173t317 64q112 0 217.5 -30.5t193.5 -85t162 -131t125 -166t79 -193t28 -209.5q0 -159 -62.5 -307.5t-169 -259.5t-256.5 -178t-317 -68t-317 63t-258 172.5t-171 259.5t-63 318zM172 766q0 -147 57 -280t152 -226.5t221 -149 t260 -55.5t259.5 55.5t218.5 149t149.5 226.5t56.5 280t-56 279.5t-149.5 226t-219 148.5t-259.5 55t-260 -55t-221 -148.5t-152 -226t-57 -279.5zM473 772q-1 183 109 298.5t276 115.5q158 0 255 -87t118 -231l-156 -2q-14 87 -70.5 144t-142.5 57q-94 0 -158.5 -78 t-64.5 -217q0 -136 65.5 -213.5t157.5 -77.5q85 0 140.5 55t68.5 136l160 -2q-21 -136 -119 -222t-254 -86q-165 0 -274.5 114t-110.5 296z" />
<glyph unicode="&#xaa;" horiz-adv-x="886" d="M63 1194q0 171 87.5 280t224.5 109q79 0 137.5 -44.5t91.5 -123.5l6 141h168v-727h-166l-8 144q-70 -170 -229 -170q-137 0 -224.5 109.5t-87.5 281.5zM246 1194q0 -127 51 -210t129 -83q75 0 126.5 81t51.5 212q0 130 -51.5 210.5t-126.5 80.5q-78 0 -129 -82t-51 -209z " />
<glyph unicode="&#xab;" horiz-adv-x="1282" d="M180 575l238 426h215l-238 -426l238 -425h-215zM598 575l238 426h215l-238 -426l238 -425h-215z" />
<glyph unicode="&#xac;" horiz-adv-x="1406" d="M156 563v180h1095v-563h-180v383h-915z" />
<glyph unicode="&#xad;" horiz-adv-x="909" d="M180 563v152h547v-152h-547z" />
<glyph unicode="&#xae;" horiz-adv-x="1681" d="M33 764q0 167 63.5 318t171.5 260t258.5 173t317.5 64q133 0 257 -43t222 -120.5t171.5 -178.5t113 -223.5t39.5 -249.5q0 -159 -62.5 -307.5t-168.5 -259.5t-256 -178t-316 -68q-167 -1 -317.5 63t-258.5 172.5t-171.5 259.5t-63.5 318zM154 766q0 -147 57 -280 t152 -226.5t221 -149t260 -55.5q133 0 258.5 55.5t219 149t150 226.5t56.5 280t-56.5 279.5t-150 226t-219 148.5t-258.5 55q-134 0 -260 -55t-221 -148.5t-152 -226t-57 -279.5zM528 379v784h361q56 0 101.5 -10t85 -32.5t61.5 -64.5t22 -100q0 -91 -54.5 -137.5 t-137.5 -58.5q88 -5 131 -43.5t43 -126.5v-60q0 -50 14.5 -89t36.5 -50v-16h-129q-84 30 -84 170v39q0 65 -27 91.5t-88 26.5h-178v-323h-158zM686 805h154q67 0 112 32t45 99q0 127 -147 127h-164v-258z" />
<glyph unicode="&#xb0;" horiz-adv-x="792" d="M119 1249q0 123 81 205t197 82t197.5 -82t81.5 -205t-81.5 -204.5t-197.5 -81.5t-197 81.5t-81 204.5zM240 1249q0 -90 44.5 -146t112.5 -56t113 56t45 146q-1 90 -45.5 146.5t-112.5 56.5t-112.5 -56.5t-44.5 -146.5z" />
<glyph unicode="&#xb1;" horiz-adv-x="1406" d="M156 0v166h1095v-166h-1095zM156 602v182h456v328h183v-328h456v-182h-456v-332h-183v332h-456z" />
<glyph unicode="&#xb2;" horiz-adv-x="827" d="M49 1174q0 183 100.5 287t260.5 104q155 0 250.5 -85t95.5 -241q0 -71 -26.5 -139.5t-68.5 -126t-111 -121t-136.5 -114.5t-163.5 -117h532v-117h-729v114q130 97 219 173t161 156t106 155.5t34 152.5q0 102 -46.5 155.5t-116.5 53.5q-87 0 -136.5 -77t-48.5 -218z" />
<glyph unicode="&#xb3;" horiz-adv-x="854" d="M57 815l170 8q5 -111 58 -178t145 -67t143.5 56t51.5 140q0 102 -67 159.5t-187 57.5h-43v115h41q93 0 158 55.5t65 147.5q0 75 -45 119.5t-117 44.5q-75 0 -127 -61.5t-53 -158.5l-164 7q8 134 101 224.5t245 90.5q153 0 242.5 -76.5t89.5 -193.5q0 -92 -59.5 -155 t-157.5 -91q262 -53 262 -271q0 -140 -107 -226.5t-268 -86.5q-162 0 -264.5 91.5t-112.5 248.5z" />
<glyph unicode="&#xb4;" horiz-adv-x="378" d="M-74 1380l158 258h238l-205 -258h-191z" />
<glyph unicode="&#xb5;" horiz-adv-x="1390" d="M20 0v41h1350v-41h-1350z" />
<glyph unicode="&#xb6;" horiz-adv-x="1308" d="M143 1098q0 194 135 316t369 122h107v-1769h-142v905q-212 0 -340.5 118.5t-128.5 307.5zM926 -233v1769h317v-121h-174v-1648h-143z" />
<glyph unicode="&#xb7;" horiz-adv-x="626" d="M176 512v281h275v-281h-275z" />
<glyph unicode="&#xb8;" horiz-adv-x="518" d="M18 -424l27 84q98 -47 182 -47q61 0 98 22.5t37 59.5q0 31 -25.5 52.5t-72.5 21.5q-54 0 -123 -43l-71 16l116 278h105l-92 -190q73 29 120 29q73 0 124 -39.5t51 -114.5q0 -65 -41 -107.5t-97.5 -58.5t-124.5 -16q-56 0 -109.5 13.5t-78.5 26.5z" />
<glyph unicode="&#xb9;" horiz-adv-x="638" d="M63 1311v94q86 4 160 47t111 107h92v-943h168v-108h-522v108h172v750q-94 -55 -181 -55z" />
<glyph unicode="&#xba;" horiz-adv-x="854" d="M63 1194q0 177 101 283t262 106t263 -106t102 -283q0 -176 -102 -283.5t-261 -107.5q-163 0 -264 107t-101 284zM246 1194q0 -138 50.5 -216.5t131.5 -78.5q79 0 129.5 79t50.5 216q0 136 -51 216.5t-129 80.5q-81 0 -131.5 -80t-50.5 -217z" />
<glyph unicode="&#xbb;" horiz-adv-x="1282" d="M375 274l239 420l-57 299l31 -119l112 -206l15 26l-60 299l33 -119l227 -419l-282 -299l-58 43l-40 -43z" />
<glyph unicode="&#xbc;" horiz-adv-x="2074" d="M41 1309v94q86 4 159.5 46.5t110.5 106.5h92v-942h168v-108h-522v108h172v750q-94 -55 -180 -55zM438 0l998 1536h157l-999 -1536h-156zM1217 287v96l440 674h211v-662h155v-108h-155v-285h-178v285h-473zM1370 395h320v516z" />
<glyph unicode="&#xbd;" horiz-adv-x="2220" d="M49 1309v94q86 4 159.5 46.5t110.5 106.5h93v-942h168v-108h-523v108h172v750q-94 -55 -180 -55zM446 0l998 1536h158l-1000 -1536h-156zM1395 672q0 183 100 287t260 104q155 0 250.5 -85t95.5 -241q0 -71 -26.5 -139.5t-68.5 -126t-111 -121t-136.5 -114.5t-163.5 -117 h533v-117h-729v115q130 97 219 173t161 156t106 155.5t34 152.5q0 102 -46.5 155.5t-117.5 53.5q-87 0 -136 -77t-48 -218z" />
<glyph unicode="&#xbe;" horiz-adv-x="2289" d="M23 815l170 8q5 -111 57.5 -178t144.5 -67t143.5 56t51.5 140q0 102 -67 159.5t-187 57.5h-43v115h41q93 0 158 55.5t65 147.5q0 75 -44.5 119.5t-117.5 44.5q-75 0 -127 -61.5t-53 -158.5l-164 7q8 134 101 224.5t245 90.5q153 0 242.5 -76.5t89.5 -193.5 q0 -92 -59.5 -155t-157.5 -91q262 -53 262 -271q0 -140 -107 -226.5t-268 -86.5q-162 0 -264 91.5t-112 248.5zM653 0l998 1536h157l-999 -1536h-156zM1432 287v96l440 674h211v-662h155v-108h-155v-285h-178v285h-473zM1585 395h320v516z" />
<glyph unicode="&#xbf;" horiz-adv-x="1200" d="M76 -82q0 52 12 100t29.5 84.5t47 72t54.5 59.5t62 50.5t59.5 40t56.5 33.5q40 25 65 43.5t51.5 47.5t39 65t12.5 82v74h197v-78q0 -56 -11.5 -102.5t-26 -76.5t-43.5 -61t-49.5 -47t-58.5 -43q-12 -9 -53 -36t-59.5 -41t-51 -44.5t-48.5 -58t-29 -69.5t-13 -89 q0 -113 75 -182.5t202 -69.5q96 0 171 51.5t113 132.5t38 175h235q0 -227 -157.5 -369.5t-409.5 -142.5q-230 0 -370 108.5t-140 290.5zM543 838v282h239v-282h-239z" />
<glyph unicode="&#xc0;" horiz-adv-x="1495" d="M57 0l553 1536h293l531 -1536h-271l-137 399h-608l-135 -399h-226zM446 1960h261l153 -258h-209zM477 569h490l-230 727z" />
<glyph unicode="&#xc1;" horiz-adv-x="1495" d="M57 0l553 1536h293l531 -1536h-271l-137 399h-608l-135 -399h-226zM477 569h490l-230 727zM662 1708l180 266h245l-231 -266h-194z" />
<glyph unicode="&#xc2;" horiz-adv-x="1495" d="M57 0l553 1536h293l531 -1536h-271l-137 399h-608l-135 -399h-226zM426 1702l238 287h188l235 -287h-188l-141 180l-140 -180h-192zM477 569h490l-230 727z" />
<glyph unicode="&#xc3;" horiz-adv-x="1495" d="M57 0l553 1536h293l531 -1536h-271l-137 399h-608l-135 -399h-226zM377 1726q0 101 61.5 172.5t153.5 71.5q53 0 100.5 -15.5t76 -34.5t65.5 -34.5t73 -15.5q47 0 77 31.5t30 64.5h100q0 -102 -61.5 -172t-151.5 -70q-54 0 -101.5 16t-76 35.5t-66 35.5t-73.5 16 q-46 0 -76.5 -34t-30.5 -67h-100zM477 569h490l-230 727z" />
<glyph unicode="&#xc4;" horiz-adv-x="1495" d="M57 0l553 1536h293l531 -1536h-271l-137 399h-608l-135 -399h-226zM477 569h490l-230 727zM479 1702v258h207v-258h-207zM829 1702v258h209v-258h-209z" />
<glyph unicode="&#xc5;" horiz-adv-x="1495" d="M57 0l553 1536h293l531 -1536h-271l-137 399h-608l-135 -399h-226zM477 569h490l-230 727zM532 1874q0 95 66.5 162t159.5 67q94 0 160.5 -67t66.5 -162t-66.5 -162t-160.5 -67q-93 0 -159.5 67t-66.5 162zM647 1874q0 -52 31 -88.5t80 -36.5q50 0 81 36.5t31 88.5 q0 53 -31 90t-81 37q-48 0 -79.5 -37.5t-31.5 -89.5z" />
<glyph unicode="&#xc6;" horiz-adv-x="2095" d="M57 -2l820 1538h1110v-129h-760v-565h674v-129h-674v-582h760v-131l-1002 2v422h-463l-215 -426h-250zM580 539h405v802z" />
<glyph unicode="&#xc7;" horiz-adv-x="1662" d="M104 768q0 187 57.5 342t157.5 257.5t234.5 159t288.5 56.5q272 0 466.5 -166t243.5 -448l-247 -15q-43 201 -168 325t-289 124q-132 0 -240.5 -77t-173.5 -223t-65 -335q0 -283 137.5 -459t341.5 -176q160 0 283.5 117t168.5 301l248 -8q-49 -254 -235 -415.5 t-439 -172.5l-69 -150q52 31 110 31q73 0 128 -42.5t55 -117.5q0 -65 -43 -109.5t-102 -62.5t-126 -18q-56 0 -109.5 15t-78.5 31l-25 15l27 84q98 -47 182 -47q61 0 98 22.5t37 59.5q0 31 -25.5 52.5t-72.5 21.5q-54 0 -123 -43l-71 16l102 244q-138 13 -258.5 75t-211 164 t-142.5 250t-52 322z" />
<glyph unicode="&#xc8;" horiz-adv-x="1294" d="M186 2v1534h1000v-180h-758v-496h674v-168h-674v-510h758v-182zM383 1962h260l154 -258h-209z" />
<glyph unicode="&#xc9;" horiz-adv-x="1294" d="M186 2v1534h1000v-180h-758v-496h674v-168h-674v-510h758v-182zM600 1710l180 266h246l-231 -266h-195z" />
<glyph unicode="&#xca;" horiz-adv-x="1294" d="M186 2v1534h1000v-180h-758v-496h674v-168h-674v-510h758v-182zM362 1704l238 287h188l236 -287h-188l-142 180l-139 -180h-193z" />
<glyph unicode="&#xcb;" horiz-adv-x="1294" d="M186 2v1534h1000v-180h-758v-496h674v-168h-674v-510h758v-182zM418 1704v258h207v-258h-207zM768 1704v258h209v-258h-209z" />
<glyph unicode="&#xcc;" horiz-adv-x="632" d="M4 1962h260l154 -258h-209zM193 0v1536h249v-1536h-249z" />
<glyph unicode="&#xcd;" horiz-adv-x="632" d="M193 0v1536h249v-1536h-249zM221 1710l180 266h246l-231 -266h-195z" />
<glyph unicode="&#xce;" horiz-adv-x="632" d="M-16 1704l237 287h189l235 -287h-188l-142 180l-139 -180h-192zM193 0v1536h249v-1536h-249z" />
<glyph unicode="&#xcf;" horiz-adv-x="632" d="M39 1704v258h207v-258h-207zM193 0v1536h249v-1536h-249zM389 1704v258h209v-258h-209z" />
<glyph unicode="&#xd0;" horiz-adv-x="1581" d="M18 713v129h168v694h506q162 0 303 -52.5t246 -149.5t165 -244t60 -326t-60.5 -325t-165.5 -241t-245.5 -146.5t-302.5 -51.5h-506v713h-168zM436 166h213q118 0 218.5 40.5t175 115t117 188.5t42.5 254q1 141 -42.5 256.5t-119 191.5t-176 117t-215.5 41h-213v-528h422 v-129h-422v-547z" />
<glyph unicode="&#xd1;" horiz-adv-x="1605" d="M186 0v1536h238l782 -1137v1135l213 2v-1536h-231l-789 1143v-1143h-213zM426 1729q0 101 61.5 172t153.5 71q53 0 100.5 -15.5t76 -34.5t65.5 -34.5t73 -15.5q47 0 77 31.5t30 64.5h100q0 -102 -61.5 -172t-151.5 -70q-54 0 -101.5 16t-76 35.5t-66 35.5t-73.5 16 q-46 0 -76.5 -33.5t-30.5 -66.5h-100z" />
<glyph unicode="&#xd2;" horiz-adv-x="1710" d="M115 768q0 187 58.5 342t159 257.5t235.5 159t288 56.5t288 -56.5t235.5 -159t159 -257.5t58.5 -342q0 -186 -60 -341.5t-162 -258t-236 -159t-283 -56.5t-283 56.5t-236 159t-162 258t-60 341.5zM377 762q0 -138 38 -256.5t102.5 -199.5t152.5 -127t186 -46 q203 0 340 175.5t137 453.5q0 144 -37 265.5t-101.5 203t-152 127t-186.5 45.5q-202 0 -340.5 -177t-138.5 -464zM543 1962h260l153 -258h-208z" />
<glyph unicode="&#xd3;" horiz-adv-x="1710" d="M115 768q0 187 58.5 342t159 257.5t235.5 159t288 56.5t288 -56.5t235.5 -159t159 -257.5t58.5 -342q0 -186 -60 -341.5t-162 -258t-236 -159t-283 -56.5t-283 56.5t-236 159t-162 258t-60 341.5zM377 762q0 -138 38 -256.5t102.5 -199.5t152.5 -127t186 -46 q203 0 340 175.5t137 453.5q0 144 -37 265.5t-101.5 203t-152 127t-186.5 45.5q-202 0 -340.5 -177t-138.5 -464zM760 1710l180 266h246l-232 -266h-194z" />
<glyph unicode="&#xd4;" horiz-adv-x="1710" d="M115 768q0 187 58.5 342t159 257.5t235.5 159t288 56.5t288 -56.5t235.5 -159t159 -257.5t58.5 -342q0 -186 -60 -341.5t-162 -258t-236 -159t-283 -56.5t-283 56.5t-236 159t-162 258t-60 341.5zM377 762q0 -138 38 -256.5t102.5 -199.5t152.5 -127t186 -46 q203 0 340 175.5t137 453.5q0 144 -37 265.5t-101.5 203t-152 127t-186.5 45.5q-202 0 -340.5 -177t-138.5 -464zM522 1704l238 287h188l236 -287h-189l-141 180l-139 -180h-193z" />
<glyph unicode="&#xd5;" horiz-adv-x="1710" d="M115 768q0 187 58.5 342t159 257.5t235.5 159t288 56.5t288 -56.5t235.5 -159t159 -257.5t58.5 -342q0 -186 -60 -341.5t-162 -258t-236 -159t-283 -56.5t-283 56.5t-236 159t-162 258t-60 341.5zM377 762q0 -138 38 -256.5t102.5 -199.5t152.5 -127t186 -46 q203 0 340 175.5t137 453.5q0 144 -37 265.5t-101.5 203t-152 127t-186.5 45.5q-202 0 -340.5 -177t-138.5 -464zM473 1729q0 101 61.5 172t153.5 71q53 0 100.5 -15.5t76 -34.5t66 -34.5t73.5 -15.5q47 0 76.5 31.5t29.5 64.5h100q0 -102 -61.5 -172t-151.5 -70 q-54 0 -101.5 16t-76 35.5t-66 35.5t-73.5 16q-46 0 -76.5 -33.5t-30.5 -66.5h-100z" />
<glyph unicode="&#xd6;" horiz-adv-x="1710" d="M115 768q0 187 58.5 342t159 257.5t235.5 159t288 56.5t288 -56.5t235.5 -159t159 -257.5t58.5 -342q0 -186 -60 -341.5t-162 -258t-236 -159t-283 -56.5t-283 56.5t-236 159t-162 258t-60 341.5zM377 762q0 -138 38 -256.5t102.5 -199.5t152.5 -127t186 -46 q203 0 340 175.5t137 453.5q0 144 -37 265.5t-101.5 203t-152 127t-186.5 45.5q-202 0 -340.5 -177t-138.5 -464zM575 1704v258h207v-258h-207zM926 1704v258h209v-258h-209z" />
<glyph unicode="&#xd7;" horiz-adv-x="1179" d="M131 125l330 330l-328 329l127 129l330 -329l330 329l127 -127l-330 -329l330 -330l-127 -129l-332 330l-328 -328z" />
<glyph unicode="&#xd8;" horiz-adv-x="1710" d="M115 768q0 187 58.5 342t159 257.5t235.5 159t288 56.5q258 0 451 -151l157 198l86 -71l-161 -203q99 -107 153.5 -256.5t54.5 -331.5q0 -186 -60 -341.5t-162 -258t-236 -159t-283 -56.5q-129 0 -248.5 42.5t-214.5 121.5l-164 -205l-86 70l170 211q-198 224 -198 575z M377 762q0 -216 88 -379l702 877q-127 143 -311 143q-202 0 -340.5 -177t-138.5 -464zM530 289q134 -156 326 -156q203 0 340 175.5t137 453.5q0 235 -98 405z" />
<glyph unicode="&#xd9;" horiz-adv-x="1613" d="M186 633v903h250v-893q0 -88 8.5 -158t32.5 -138t64 -113.5t107 -73t157 -27.5t157 27t108 72t65.5 112t33.5 137t9 158v897h252v-903q0 -339 -152.5 -509.5t-472.5 -170.5q-318 0 -468.5 170t-150.5 510zM496 1962h260l153 -258h-209z" />
<glyph unicode="&#xda;" horiz-adv-x="1613" d="M186 633v903h250v-893q0 -88 8.5 -158t32.5 -138t64 -113.5t107 -73t157 -27.5t157 27t108 72t65.5 112t33.5 137t9 158v897h252v-903q0 -339 -152.5 -509.5t-472.5 -170.5q-318 0 -468.5 170t-150.5 510zM711 1710l180 266h246l-232 -266h-194z" />
<glyph unicode="&#xdb;" horiz-adv-x="1613" d="M186 633v903h250v-893q0 -88 8.5 -158t32.5 -138t64 -113.5t107 -73t157 -27.5t157 27t108 72t65.5 112t33.5 137t9 158v897h252v-903q0 -339 -152.5 -509.5t-472.5 -170.5q-318 0 -468.5 170t-150.5 510zM473 1704l238 287h188l236 -287h-189l-141 180l-139 -180h-193z " />
<glyph unicode="&#xdc;" horiz-adv-x="1613" d="M186 633v903h250v-893q0 -88 8.5 -158t32.5 -138t64 -113.5t107 -73t157 -27.5t157 27t108 72t65.5 112t33.5 137t9 158v897h252v-903q0 -339 -152.5 -509.5t-472.5 -170.5q-318 0 -468.5 170t-150.5 510zM528 1704v258h207v-258h-207zM879 1704v258h208v-258h-208z" />
<glyph unicode="&#xdd;" horiz-adv-x="1341" d="M53 1536h271l358 -694l375 694h231l-493 -870v-666h-254v659zM575 1710l181 266h245l-231 -266h-195z" />
<glyph unicode="&#xde;" horiz-adv-x="1437" d="M186 0v1536h252v-260h398q79 0 153.5 -16.5t143.5 -53.5t120.5 -90.5t82 -134.5t30.5 -180t-33.5 -180t-89.5 -134.5t-131 -90.5t-155.5 -53.5t-165.5 -16.5h-353v-326h-252zM438 436h285q77 0 143.5 20t121.5 60.5t86.5 110t31.5 161.5q0 91 -29 161.5t-80 113 t-115.5 63.5t-138.5 21h-305v-711z" />
<glyph unicode="&#xdf;" horiz-adv-x="1353" d="M176 0v1110q0 276 136.5 413.5t379.5 137.5q119 0 211 -33t148.5 -91t85 -134.5t28.5 -167.5q0 -83 -30.5 -154.5t-83 -122t-119.5 -85.5t-144 -52q226 -12 344.5 -121.5t118.5 -298.5q0 -182 -124.5 -294.5t-327.5 -112.5q-189 0 -277 76v161q28 -21 83.5 -36t125.5 -15 q131 0 207 64t76 196q0 139 -85 212t-249 73h-107v154q73 16 134.5 42t119 67.5t90.5 106t33 144.5q0 120 -69 187t-187 67q-134 0 -212.5 -79.5t-78.5 -248.5v-1165h-227z" />
<glyph unicode="&#xe0;" d="M100 578q0 268 142.5 440t365.5 172q131 0 229.5 -71.5t155.5 -198.5l8 227h216v-1147h-216l-8 231q-57 -130 -155.5 -203t-229.5 -73q-221 0 -364.5 176t-143.5 447zM328 578q0 -120 43.5 -223.5t120.5 -165.5t170 -62q140 0 236.5 129t96.5 319q0 191 -96.5 318 t-236.5 127q-93 0 -170 -60.5t-120.5 -162t-43.5 -219.5zM403 1636h238l156 -258h-189z" />
<glyph unicode="&#xe1;" d="M100 578q0 268 142.5 440t365.5 172q131 0 229.5 -71.5t155.5 -198.5l8 227h216v-1147h-216l-8 231q-57 -130 -155.5 -203t-229.5 -73q-221 0 -364.5 176t-143.5 447zM328 578q0 -120 43.5 -223.5t120.5 -165.5t170 -62q140 0 236.5 129t96.5 319q0 191 -96.5 318 t-236.5 127q-93 0 -170 -60.5t-120.5 -162t-43.5 -219.5zM602 1384l180 267h240l-231 -267h-189z" />
<glyph unicode="&#xe2;" d="M100 578q0 -271 143.5 -447t364.5 -176q131 0 229.5 73t155.5 203l8 -231h216v1147h-216l-8 -227q-57 127 -155.5 198.5t-229.5 71.5q-223 0 -365.5 -172t-142.5 -440zM328 578q0 118 43.5 219.5t120.5 162t170 60.5q140 0 236.5 -127t96.5 -318q0 -190 -96.5 -319 t-236.5 -129q-93 0 -170 62t-120.5 165.5t-43.5 223.5zM371 1378l237 287h176l236 -287h-166l-158 195l-153 -195h-172z" />
<glyph unicode="&#xe3;" d="M100 578q0 -271 143.5 -447t364.5 -176q131 0 229.5 73t155.5 203l8 -231h216v1147h-216l-8 -227q-57 127 -155.5 198.5t-229.5 71.5q-223 0 -365.5 -172t-142.5 -440zM315 1403q0 100 60 161.5t155 61.5q53 0 100.5 -15.5t76 -34.5t66 -34.5t73.5 -15.5q47 0 76.5 31.5 t29.5 64.5h101q0 -100 -60.5 -160.5t-152.5 -60.5q-54 0 -102 16t-76.5 35t-66 35t-73.5 16q-46 0 -76 -33.5t-30 -66.5h-101zM328 578q0 118 43.5 219.5t120.5 162t170 60.5q140 0 236.5 -127t96.5 -318q0 -190 -96.5 -319t-236.5 -129q-93 0 -170 62t-120.5 165.5 t-43.5 223.5z" />
<glyph unicode="&#xe4;" d="M100 578q0 -271 143.5 -447t364.5 -176q131 0 229.5 73t155.5 203l8 -231h216v1147h-216l-8 -227q-57 127 -155.5 198.5t-229.5 71.5q-223 0 -365.5 -172t-142.5 -440zM328 578q0 118 43.5 219.5t120.5 162t170 60.5q140 0 236.5 -127t96.5 -318q0 -190 -96.5 -319 t-236.5 -129q-93 0 -170 62t-120.5 165.5t-43.5 223.5zM418 1374v273h184v-273h-184zM778 1374v273h187v-273h-187z" />
<glyph unicode="&#xe5;" d="M100 578q0 -271 143.5 -447t364.5 -176q131 0 229.5 73t155.5 203l8 -231h216v1147h-216l-8 -227q-57 127 -155.5 198.5t-229.5 71.5q-223 0 -365.5 -172t-142.5 -440zM328 578q0 118 43.5 219.5t120.5 162t170 60.5q140 0 236.5 -127t96.5 -318q0 -190 -96.5 -319 t-236.5 -129q-93 0 -170 62t-120.5 165.5t-43.5 223.5zM475 1550q0 95 65 162.5t156 67.5q94 0 159 -67.5t65 -162.5t-65 -162t-159 -67q-91 0 -156 67t-65 162zM582 1550q0 -54 32 -92.5t82 -38.5q52 0 84.5 38.5t32.5 92.5q0 56 -32 94.5t-85 38.5q-50 0 -82 -39t-32 -94z " />
<glyph unicode="&#xe6;" horiz-adv-x="2074" d="M49 303q0 156 113 250t313 94h412q-22 373 -293 373q-118 0 -197 -70.5t-90 -167.5l-211 4q20 178 158.5 287t335.5 109q305 0 422 -240q69 113 178.5 176.5t247.5 63.5q152 0 275 -78.5t192.5 -210t74.5 -289.5v-106h-878q15 -183 109 -285t233 -102q68 0 128 26.5 t99 66.5t62.5 84.5t27.5 84.5l211 -2q-3 -67 -43 -140t-107 -137t-168 -105.5t-214 -41.5q-155 0 -271 72.5t-182 201.5q-76 -127 -202.5 -199t-286.5 -75q-105 -1 -192 28.5t-142 80t-85 114.5t-30 133zM279 309q0 -95 68 -145.5t190 -50.5q120 0 222 101.5t124 279.5h-346 q-258 0 -258 -185zM1104 651h655q-23 170 -112 267.5t-213 97.5q-127 0 -218 -98t-112 -267z" />
<glyph unicode="&#xe7;" horiz-adv-x="1296" d="M100 575q0 177 72.5 317.5t202 219t293.5 78.5q204 0 346 -118.5t188 -317.5l-219 -9q-38 120 -119.5 199.5t-189.5 79.5q-97 0 -177 -62t-124.5 -165t-44.5 -222q0 -120 44.5 -224t124.5 -167t177 -63q110 0 194 88.5t119 212.5l219 -6q-40 -204 -176.5 -329 t-339.5 -132l-74 -154q73 29 121 29q73 0 123.5 -39.5t50.5 -114.5q0 -49 -23 -86t-61.5 -57t-83 -29.5t-94.5 -9.5q-56 0 -109.5 13t-78.5 27l-25 13l27 84q98 -47 182 -47q61 0 98 22.5t37 59.5q0 31 -25.5 52.5t-72.5 21.5q-54 0 -123 -43l-72 16l103 248 q-218 28 -354 198t-136 416z" />
<glyph unicode="&#xe8;" horiz-adv-x="1302" d="M100 571q0 130 43.5 245t117.5 197t178 129.5t220 47.5q154 0 278.5 -77t195 -207.5t75.5 -287.5v-79h-880q10 -184 107 -301t235 -117q69 0 129.5 27t99.5 67.5t62.5 85t27.5 82.5l211 -2q-3 -67 -43.5 -140.5t-108 -137.5t-170.5 -106t-219 -42q-158 0 -286.5 81 t-200.5 222t-72 313zM334 678h651q-26 154 -116 250t-207 96q-121 0 -212 -96t-116 -250zM358 1636h238l156 -258h-189z" />
<glyph unicode="&#xe9;" horiz-adv-x="1302" d="M100 571q0 130 43.5 245t117.5 197t178 129.5t220 47.5q154 0 278.5 -77t195 -207.5t75.5 -287.5v-79h-880q10 -184 107 -301t235 -117q69 0 129.5 27t99.5 67.5t62.5 85t27.5 82.5l211 -2q-3 -67 -43.5 -140.5t-108 -137.5t-170.5 -106t-219 -42q-158 0 -286.5 81 t-200.5 222t-72 313zM334 678h651q-26 154 -116 250t-207 96q-121 0 -212 -96t-116 -250zM557 1384l180 267h240l-232 -267h-188z" />
<glyph unicode="&#xea;" horiz-adv-x="1302" d="M100 571q0 130 43.5 245t117.5 197t178 129.5t220 47.5q154 0 278.5 -77t195 -207.5t75.5 -287.5v-79h-880q10 -184 107 -301t235 -117q69 0 129.5 27t99.5 67.5t62.5 85t27.5 82.5l211 -2q-3 -67 -43.5 -140.5t-108 -137.5t-170.5 -106t-219 -42q-158 0 -286.5 81 t-200.5 222t-72 313zM326 1378l237 287h176l236 -287h-166l-158 195l-153 -195h-172zM334 678h651q-26 154 -116 250t-207 96q-121 0 -212 -96t-116 -250z" />
<glyph unicode="&#xeb;" horiz-adv-x="1302" d="M100 571q0 130 43.5 245t117.5 197t178 129.5t220 47.5q154 0 278.5 -77t195 -207.5t75.5 -287.5v-79h-880q10 -184 107 -301t235 -117q69 0 129.5 27t99.5 67.5t62.5 85t27.5 82.5l211 -2q-3 -67 -43.5 -140.5t-108 -137.5t-170.5 -106t-219 -42q-158 0 -286.5 81 t-200.5 222t-72 313zM334 678h651q-26 154 -116 250t-207 96q-121 0 -212 -96t-116 -250zM373 1374v273h184v-273h-184zM733 1374v273h187v-273h-187z" />
<glyph unicode="&#xec;" horiz-adv-x="581" d="M-2 1636h238l155 -258h-188zM176 0v1147h227v-1147h-227z" />
<glyph unicode="&#xed;" horiz-adv-x="581" d="M176 0v1147h227v-1147h-227zM197 1384l180 267h239l-231 -267h-188z" />
<glyph unicode="&#xee;" horiz-adv-x="581" d="M-37 1378l238 287h176l235 -287h-166l-157 195l-154 -195h-172zM176 0v1147h227v-1147h-227z" />
<glyph unicode="&#xef;" horiz-adv-x="581" d="M12 1374v273h185v-273h-185zM176 0v1147h227v-1147h-227zM373 1374v273h186v-273h-186z" />
<glyph unicode="&#xf0;" horiz-adv-x="1341" d="M100 573q0 137 41.5 253t114 195.5t173 124t216.5 44.5q131 0 252 -77t195 -204q-124 282 -453 512l-109 -147l-88 57l111 146q-67 42 -164 92l80 127q123 -65 176 -99l94 125l82 -57l-92 -123q108 -74 193 -158.5t156.5 -194t113 -248t47.5 -298.5q2 -18 2 -55 q0 -279 -160.5 -456t-410.5 -177q-252 0 -411 170.5t-159 447.5zM328 573q0 -218 96.5 -352.5t245.5 -134.5q147 0 245.5 135.5t98.5 351.5q0 217 -98.5 353.5t-245.5 136.5q-149 0 -245.5 -136t-96.5 -354z" />
<glyph unicode="&#xf1;" d="M176 0v1147h217l6 -238q57 131 166 206t258 75q187 0 289 -118t102 -357v-715h-225v674q-3 338 -256 338q-146 0 -238 -128t-92 -354v-530h-227zM315 1403q0 100 60 161.5t155 61.5q53 0 100.5 -15.5t76 -34.5t66 -34.5t73.5 -15.5q47 0 76.5 31.5t29.5 64.5h101 q0 -100 -60.5 -160.5t-152.5 -60.5q-54 0 -102 16t-76.5 35t-66 35t-73.5 16q-46 0 -76 -33.5t-30 -66.5h-101z" />
<glyph unicode="&#xf2;" horiz-adv-x="1341" d="M100 573q0 278 158.5 447.5t409.5 169.5q124 0 229.5 -44t181.5 -123t119 -194.5t43 -253.5q0 -278 -160 -449t-411 -171q-252 0 -411 170.5t-159 447.5zM328 573q0 -194 97 -322t245 -128q145 0 244.5 128.5t99.5 321.5q0 190 -99.5 320.5t-244.5 130.5 q-147 0 -244.5 -129.5t-97.5 -321.5zM377 1636h237l156 -258h-188z" />
<glyph unicode="&#xf3;" horiz-adv-x="1341" d="M100 573q0 278 158.5 447.5t409.5 169.5q124 0 229.5 -44t181.5 -123t119 -194.5t43 -253.5q0 -278 -160 -449t-411 -171q-252 0 -411 170.5t-159 447.5zM328 573q0 -194 97 -322t245 -128q145 0 244.5 128.5t99.5 321.5q0 190 -99.5 320.5t-244.5 130.5 q-147 0 -244.5 -129.5t-97.5 -321.5zM575 1384l181 267h239l-231 -267h-189z" />
<glyph unicode="&#xf4;" horiz-adv-x="1341" d="M100 573q0 278 158.5 447.5t409.5 169.5q124 0 229.5 -44t181.5 -123t119 -194.5t43 -253.5q0 -278 -160 -449t-411 -171q-252 0 -411 170.5t-159 447.5zM328 573q0 -194 97 -322t245 -128q145 0 244.5 128.5t99.5 321.5q0 190 -99.5 320.5t-244.5 130.5 q-147 0 -244.5 -129.5t-97.5 -321.5zM344 1378l238 287h176l235 -287h-166l-157 195l-154 -195h-172z" />
<glyph unicode="&#xf5;" horiz-adv-x="1341" d="M100 573q0 278 158.5 447.5t409.5 169.5q124 0 229.5 -44t181.5 -123t119 -194.5t43 -253.5q0 -278 -160 -449t-411 -171q-252 0 -411 170.5t-159 447.5zM289 1403q0 100 60 161.5t155 61.5q53 0 100.5 -15.5t76 -34.5t65.5 -34.5t73 -15.5q47 0 77 31.5t30 64.5h100 q0 -100 -60.5 -160.5t-152.5 -60.5q-54 0 -101.5 16t-76 35t-66 35t-73.5 16q-46 0 -76.5 -33.5t-30.5 -66.5h-100zM328 573q0 -194 97 -322t245 -128q145 0 244.5 128.5t99.5 321.5q0 190 -99.5 320.5t-244.5 130.5q-147 0 -244.5 -129.5t-97.5 -321.5z" />
<glyph unicode="&#xf6;" horiz-adv-x="1341" d="M100 573q0 278 158.5 447.5t409.5 169.5q124 0 229.5 -44t181.5 -123t119 -194.5t43 -253.5q0 -278 -160 -449t-411 -171q-252 0 -411 170.5t-159 447.5zM328 573q0 -194 97 -322t245 -128q145 0 244.5 128.5t99.5 321.5q0 190 -99.5 320.5t-244.5 130.5 q-147 0 -244.5 -129.5t-97.5 -321.5zM391 1374v273h184v-273h-184zM752 1374v273h186v-273h-186z" />
<glyph unicode="&#xf7;" horiz-adv-x="1406" d="M156 455v182h1095v-182h-1095zM612 0v236h183v-236h-183zM612 854v236h183v-236h-183z" />
<glyph unicode="&#xf8;" horiz-adv-x="1341" d="M100 573q0 278 158.5 447.5t409.5 169.5q158 0 290 -74l142 203l92 -64l-143 -204q91 -84 141.5 -205.5t50.5 -270.5q0 -278 -160 -449t-411 -171q-183 0 -320 92l-145 -207l-92 64l151 217q-164 172 -164 452zM328 573q0 -156 63 -270l457 655q-82 66 -178 66 q-147 0 -244.5 -129.5t-97.5 -321.5zM461 209q89 -86 209 -86q145 0 244.5 128.5t99.5 321.5q0 176 -88 301z" />
<glyph unicode="&#xf9;" horiz-adv-x="1390" d="M176 432v715h227v-684q3 -340 259 -340q140 0 230.5 122t94.5 337v565h227v-1147h-219l-6 233q-56 -128 -163.5 -203t-254.5 -75q-188 0 -291.5 119t-103.5 358zM401 1636h238l156 -258h-189z" />
<glyph unicode="&#xfa;" horiz-adv-x="1390" d="M176 432v715h227v-684q3 -340 259 -340q140 0 230.5 122t94.5 337v565h227v-1147h-219l-6 233q-56 -128 -163.5 -203t-254.5 -75q-188 0 -291.5 119t-103.5 358zM602 1384l180 267h240l-231 -267h-189z" />
<glyph unicode="&#xfb;" horiz-adv-x="1390" d="M176 432v715h227v-684q3 -340 259 -340q145 0 235 128t90 353v543h227v-1147h-219l-6 233q-56 -128 -163.5 -203t-254.5 -75q-188 0 -291.5 119t-103.5 358zM369 1378l237 287h176l236 -287h-166l-158 195l-153 -195h-172z" />
<glyph unicode="&#xfc;" horiz-adv-x="1390" d="M176 432v715h227v-684q3 -340 259 -340q145 0 235 128t90 353v543h227v-1147h-219l-6 233q-56 -128 -163.5 -203t-254.5 -75q-188 0 -291.5 119t-103.5 358zM416 1374v273h184v-273h-184zM776 1374v273h187v-273h-187z" />
<glyph unicode="&#xfd;" horiz-adv-x="1146" d="M29 1147h252l301 -932l319 932h215l-612 -1608h-215l178 449zM479 1384l180 267h240l-231 -267h-189z" />
<glyph unicode="&#xfe;" d="M176 -461v2099h227v-716q58 126 155 197t228 71q221 0 364.5 -175.5t143.5 -445.5q0 -269 -143 -441.5t-365 -172.5q-132 0 -229 68.5t-154 191.5v-676h-227zM397 569q0 -214 95.5 -345.5t238.5 -131.5q145 0 239.5 135.5t94.5 341.5q0 207 -95 346.5t-239 139.5 q-142 0 -238 -135.5t-96 -350.5z" />
<glyph unicode="&#xff;" horiz-adv-x="1146" d="M29 1147h252l301 -932l319 932h215l-612 -1608h-215l178 449zM295 1374v273h184v-273h-184zM655 1374v273h187v-273h-187z" />
<glyph unicode="&#x152;" horiz-adv-x="2191" d="M104 768q0 188 53 342t146.5 257.5t223 159.5t282.5 56q150 0 274 -65v18h1002v-129h-760v-565h674v-129h-674v-582h760v-131l-1002 2v16q-136 -65 -274 -65q-149 0 -277.5 56.5t-223.5 159.5t-149.5 257.5t-54.5 341.5zM369 768q0 -322 120 -504t322 -182 q72 0 133.5 26.5t138.5 96.5v1134q-72 65 -130 90t-142 25q-202 0 -322 -180.5t-120 -505.5z" />
<glyph unicode="&#x153;" horiz-adv-x="2154" d="M111 563q0 175 68.5 316.5t191 222t274.5 80.5q146 0 258 -69t178 -193q66 123 177.5 192.5t257.5 69.5q152 0 275.5 -78.5t193 -210t73.5 -289.5v-84h-880q10 -210 106 -330t238 -120q68 0 127.5 29t99 74.5t63 97.5t27.5 102l211 -2q-3 -67 -43 -140t-107 -137 t-168 -105.5t-214 -41.5q-150 0 -261.5 67t-175.5 189q-66 -121 -177 -188.5t-259 -67.5q-158 0 -280.5 80.5t-188 220.5t-65.5 315zM315 563q-1 -222 90.5 -357.5t235.5 -135.5q148 0 246 136.5t98 356.5q0 218 -96.5 356t-237.5 138t-238.5 -137.5t-97.5 -356.5zM1180 631 h659q-17 193 -108.5 309.5t-219.5 116.5q-129 0 -222.5 -117.5t-108.5 -308.5z" />
<glyph unicode="&#x178;" horiz-adv-x="1341" d="M53 1536h271l358 -694l375 694h231l-493 -870v-666h-254v659zM391 1704v258h207v-258h-207zM741 1704v258h209v-258h-209z" />
<glyph unicode="&#x2c6;" horiz-adv-x="677" d="M14 1380l238 287h176l236 -287h-166l-158 195l-154 -195h-172z" />
<glyph unicode="&#x2dc;" horiz-adv-x="778" d="M20 1411q0 100 60.5 161.5t155.5 61.5q53 0 100.5 -15.5t76 -34.5t65.5 -34.5t73 -15.5q47 0 76.5 31.5t29.5 64.5h101q0 -100 -60.5 -160.5t-152.5 -60.5q-54 0 -101.5 16t-76.5 35t-66.5 35t-73.5 16q-46 0 -76 -33.5t-30 -66.5h-101z" />
<glyph unicode="&#x2000;" horiz-adv-x="1051" />
<glyph unicode="&#x2001;" horiz-adv-x="2103" />
<glyph unicode="&#x2002;" horiz-adv-x="1051" />
<glyph unicode="&#x2003;" horiz-adv-x="2103" />
<glyph unicode="&#x2004;" horiz-adv-x="701" />
<glyph unicode="&#x2005;" horiz-adv-x="525" />
<glyph unicode="&#x2006;" horiz-adv-x="350" />
<glyph unicode="&#x2007;" horiz-adv-x="350" />
<glyph unicode="&#x2008;" horiz-adv-x="262" />
<glyph unicode="&#x2009;" horiz-adv-x="420" />
<glyph unicode="&#x200a;" horiz-adv-x="116" />
<glyph unicode="&#x2010;" horiz-adv-x="909" d="M180 563v152h547v-152h-547z" />
<glyph unicode="&#x2011;" horiz-adv-x="909" d="M180 563v152h547v-152h-547z" />
<glyph unicode="&#x2012;" horiz-adv-x="909" d="M180 563v152h547v-152h-547z" />
<glyph unicode="&#x2013;" horiz-adv-x="1257" d="M180 563v152h897v-152h-897z" />
<glyph unicode="&#x2014;" horiz-adv-x="1634" d="M180 559v162h1274v-162h-1274z" />
<glyph unicode="&#x2018;" horiz-adv-x="630" d="M176 938v272q0 128 74.5 222.5t189.5 109.5v-129q-58 -14 -88 -59.5t-39 -143.5h140v-272h-277z" />
<glyph unicode="&#x2019;" horiz-adv-x="630" d="M176 1270v272h277v-272q0 -127 -74.5 -222t-190.5 -110v129q59 14 88.5 59.5t36.5 143.5h-137z" />
<glyph unicode="&#x201a;" horiz-adv-x="626" d="M176 0v281h275v-281q0 -128 -74.5 -222.5t-188.5 -109.5v127q58 14 87 60t36 145h-135z" />
<glyph unicode="&#x201c;" horiz-adv-x="1030" d="M176 930v280q0 128 74.5 222.5t189.5 109.5v-129q-58 -14 -88 -59.5t-39 -143.5h140v-280h-277zM582 930v280q0 128 73.5 222.5t188.5 109.5v-129q-60 -14 -89 -59t-38 -144h137v-280h-272z" />
<glyph unicode="&#x201d;" horiz-adv-x="1030" d="M176 1262v280h275v-280q0 -127 -75 -222t-188 -110v129q59 14 87.5 59t35.5 144h-135zM578 1262v280h276v-280q0 -127 -74.5 -222t-189.5 -110v129q59 14 88.5 59.5t36.5 143.5h-137z" />
<glyph unicode="&#x201e;" horiz-adv-x="1030" d="M176 0v281h275v-281q0 -127 -75 -222t-188 -110v129q59 14 87.5 59t35.5 144h-135zM578 0v281h276v-281q0 -127 -74.5 -222t-189.5 -110v129q59 14 88.5 59.5t36.5 143.5h-137z" />
<glyph unicode="&#x2022;" horiz-adv-x="1140" d="M313 672q0 110 75 186t183 76q106 0 181 -76t75 -186q0 -109 -75 -185.5t-181 -76.5q-107 0 -182.5 76.5t-75.5 185.5z" />
<glyph unicode="&#x2026;" horiz-adv-x="1656" d="M176 0v270h275v-270h-275zM692 0v270h273v-270h-273zM1206 0v270h275v-270h-275z" />
<glyph unicode="&#x202f;" horiz-adv-x="420" />
<glyph unicode="&#x2039;" horiz-adv-x="884" d="M190 575l238 426h211l-238 -426l238 -425h-211z" />
<glyph unicode="&#x203a;" horiz-adv-x="884" d="M248 150l237 425l-237 426h209l237 -426l-237 -425h-209z" />
<glyph unicode="&#x205f;" horiz-adv-x="525" />
<glyph unicode="&#x20ac;" horiz-adv-x="1390" d="M86 569l37 107h143q-4 58 -4 88q0 62 6 121h-182l37 108h164q60 263 243.5 422.5t444.5 159.5q186 0 334 -102l-84 -113q-112 84 -236 84q-169 0 -285.5 -120t-158.5 -331h612l-39 -108h-590q-4 -39 -4 -121q0 -59 2 -88h559l-36 -107h-510q37 -224 155 -351.5 t295 -127.5q160 0 273 107l92 -115q-57 -56 -160.5 -92.5t-226.5 -36.5q-269 0 -452.5 169.5t-235.5 446.5h-193z" />
<glyph unicode="&#x2122;" horiz-adv-x="1640" d="M6 1427v109h561v-109h-202v-679h-156v679h-203zM647 748v788h209l227 -590l254 590h205v-788h-153v624l-273 -624h-98l-250 622v-622h-121z" />
<glyph unicode="&#x25fc;" horiz-adv-x="1146" d="M0 0v1147h1147v-1147h-1147z" />
<glyph unicode="&#xfb01;" horiz-adv-x="1411" d="M109 1014v133h155v117q0 187 85.5 287t234.5 100q43 0 86 -4.5t64 -8.5l22 -4v-135q-3 0 -41.5 2t-55.5 2q-89 0 -128 -62t-39 -186v-108h237v-133h-237v-1014h-228v1014h-155zM1006 0v1147h227v-1147h-227zM1008 1380v258h227v-258h-227z" />
<glyph unicode="&#xfb02;" horiz-adv-x="1411" d="M109 1014v133h155v117q0 187 85.5 287t234.5 100q43 0 86 -4.5t64 -8.5l22 -4v-135q-3 0 -41.5 2t-55.5 2q-89 0 -128 -62t-39 -186v-108h237v-133h-237v-1014h-228v1014h-155zM1006 0v1638h227v-1638h-227z" />
</font>
</defs>
</svg>
