<?xml version="1.0" standalone="no"?>
<!DOCTYPE svg PUBLIC "-//W3C//DTD SVG 1.1//EN" "http://www.w3.org/Graphics/SVG/1.1/DTD/svg11.dtd" >
<svg xmlns="http://www.w3.org/2000/svg">
<metadata></metadata>
<defs>
<font id="dyslexieregular" horiz-adv-x="1350" >
<font-face units-per-em="2048" ascent="1638" descent="-410" />
<missing-glyph horiz-adv-x="1128" />
<glyph horiz-adv-x="0" />
<glyph horiz-adv-x="0" />
<glyph unicode="&#xd;" horiz-adv-x="1024" />
<glyph unicode=" "  horiz-adv-x="1128" />
<glyph unicode="&#x09;" horiz-adv-x="1128" />
<glyph unicode="&#xa0;" horiz-adv-x="1128" />
<glyph unicode="!" horiz-adv-x="1227" d="M412 156q0 42 16 79t43 65t64 44t79 16t79 -16t64.5 -44t43.5 -65t16 -79t-16 -78.5t-43.5 -64.5t-64.5 -44t-79 -16t-79 16t-64 44t-43 64.5t-16 78.5zM467 580l41 1333h215l39 -1333h-295z" />
<glyph unicode="&#x22;" horiz-adv-x="1452" d="M205 1399q0 42 16 79t43.5 64.5t64.5 43.5t79 16t79 -16t64 -43.5t43 -64.5t16 -79q0 -122 -5 -203.5t-15.5 -136t-27.5 -88.5t-40 -62q-26 -30 -58.5 -50t-62.5 -31q-35 -14 -71 -21l-25 131q38 11 66 29.5t53 46.5q12 17 20.5 35t13.5 40.5t7 50.5t2 66q-11 -6 -28 -8 t-31 -2q-42 0 -79 16t-64.5 43.5t-43.5 64.5t-16 79zM860 1399q0 42 16 79t44 64.5t65.5 43.5t79.5 16t78.5 -16t64.5 -43.5t44 -64.5t16 -79q0 -122 -5.5 -203.5t-16.5 -136t-28 -88.5t-40 -62q-26 -30 -59 -50t-63 -31q-35 -14 -71 -21l-22 131q38 11 65.5 29.5t50.5 46.5 q13 17 21.5 35t14 40.5t7.5 50.5t2 66q-12 -6 -29.5 -8t-29.5 -2q-42 0 -79.5 16t-65.5 43.5t-44 64.5t-16 79z" />
<glyph unicode="#" horiz-adv-x="1884" d="M145 485v205h328l82 387h-410v207h455l94 449h228l-97 -449h387l97 449h227l-96 -449h274v-207h-317l-84 -387h401v-205h-444l-103 -485h-227l102 485h-387l-102 -485h-227l102 485h-283zM700 690h387l82 387h-387z" />
<glyph unicode="$" horiz-adv-x="1778" d="M205 440h323q7 -21 15 -32.5t16 -22.5q34 -45 82.5 -73.5t126.5 -39.5l10 564q-8 3 -15 5t-15 5q-55 20 -96.5 36t-77 32t-69.5 33.5t-73 41.5q-80 47 -119 118t-39 173q0 58 8.5 108t26.5 93t47 80.5t70 72.5q35 31 74 53.5t83 38t95.5 24t112.5 11.5l4 152h186l2 -154 q51 -5 93 -13.5t79 -21.5q26 -9 51 -18.5t49 -22t47.5 -30.5t47.5 -45q46 -53 75 -124.5t29 -146.5h-246q0 37 -16 76t-51 68q-23 20 -59 36t-95 25l8 -479q5 -2 10 -3.5t8 -2.5q4 -1 7 -2q58 -17 113.5 -34.5t106 -36t93 -37.5t74.5 -38q38 -24 68.5 -62t51.5 -86.5 t32.5 -104t11.5 -113.5q0 -10 1 -19t-1 -18q-5 -106 -43 -197t-123 -172q-43 -40 -99.5 -76t-125.5 -61q-41 -14 -82 -25.5t-86 -17.5l2 -156h-252l2 156q-59 6 -112 18t-99 29q-118 46 -199 131q-35 39 -61 73t-43.5 69.5t-28.5 75t-16 87.5zM526 1317q0 -31 7 -48.5 t22 -35.5q17 -19 38.5 -32t53.5 -27q11 -7 49.5 -19.5t85.5 -26.5l6 420q-69 -6 -115 -28.5t-83 -53.5t-50.5 -65.5t-13.5 -83.5zM999 764l9 -483q46 12 87 30t76 41q47 31 65.5 74t20.5 113q0 35 -6 58t-20 46t-35.5 40.5t-50.5 31.5q-20 9 -58 21t-88 28z" />
<glyph unicode="%" horiz-adv-x="1925" d="M141 1290q0 -65 25 -122.5t68 -100.5t100.5 -67.5t122.5 -24.5t122.5 24.5t100 67.5t67.5 100.5t25 122.5t-25 122.5t-67.5 100.5t-100 68t-122.5 25t-122.5 -25t-100.5 -68t-68 -100.5t-25 -122.5zM305 1290q0 31 12 59t32.5 48.5t48 32.5t59.5 12q31 0 59 -12t48 -32.5 t32 -48.5t12 -59q0 -32 -12 -59.5t-32 -47.5t-48 -32t-59 -12q-32 0 -59.5 12t-48 32t-32.5 47.5t-12 59.5zM537 0l534 1778h305l-534 -1778h-305zM1141 580q0 -65 24.5 -123t67.5 -101.5t100.5 -68.5t122.5 -25q66 0 124 25t101 68.5t68 101.5t25 123t-25 122.5t-68 100 t-101 67.5t-124 25q-65 0 -122.5 -25t-100.5 -67.5t-67.5 -100t-24.5 -122.5zM1305 580q0 31 12 59t32.5 48t48 32t58.5 12t59 -12t49 -32t33.5 -48t12.5 -59q0 -32 -12.5 -59.5t-33.5 -48t-49 -32.5t-59 -12t-58.5 12t-48 32.5t-32.5 48t-12 59.5z" />
<glyph unicode="&#x26;" horiz-adv-x="1909" d="M190 479q0 110 37.5 211.5t96.5 181.5q35 51 103.5 117.5t178.5 132.5q-31 36 -52 64.5t-36 54t-26 48t-21 46.5q-20 48 -27.5 94t-7.5 91q0 46 5 82.5t18 68.5t33.5 61t52.5 60q124 121 334 121q100 0 178.5 -27t132.5 -86q22 -25 39.5 -50.5t29.5 -53.5t18.5 -60 t6.5 -71q0 -46 -4 -86t-14.5 -77t-29.5 -71.5t-48 -68.5q-32 -41 -90.5 -97t-136.5 -108l284 -377q10 15 16.5 27t11 23t8.5 23l9 27q3 10 12 43.5t11 79.5h237q-5 -46 -11 -82t-14.5 -69t-20 -67.5t-27.5 -76.5q-12 -31 -23.5 -54t-20.5 -39q-11 -18 -20 -32l377 -483h-365 l-163 231q-45 -71 -94 -115t-93 -73q-38 -26 -73 -42.5t-72.5 -26t-79 -13.5t-92.5 -4q-297 0 -432 160q-136 160 -136 362zM449 596q-8 -72 1 -114t33 -74q23 -31 56.5 -52.5t70.5 -35t74.5 -19.5t69.5 -6q72 0 127 16t106 47q17 11 32.5 26t29 31t25.5 31t22 27l-351 483 q-46 -31 -79 -52.5t-57 -38t-41 -30.5t-31 -30q-23 -26 -38 -49t-25 -46.5t-15.5 -51t-9.5 -62.5zM647 1548q0 -40 12 -77t33 -74q23 -38 44.5 -68.5t38.5 -52.5q19 -26 36 -45q12 8 36 22.5t52 32t55 36t45 34.5q45 38 63.5 87t18.5 103q0 42 -13.5 74t-41.5 63t-65.5 40.5 t-83.5 9.5q-73 0 -123 -18t-78 -66q-14 -25 -21.5 -48.5t-7.5 -52.5z" />
<glyph unicode="'" horiz-adv-x="797" d="M205 1395q0 42 16 79t44 64t64.5 43t78.5 16t79 -16t65 -43t44 -64t16 -79q0 -122 -5.5 -203.5t-16.5 -136t-28 -88.5t-40 -62q-26 -30 -58.5 -50t-62.5 -31q-35 -14 -71 -21l-25 133q40 9 68 27.5t51 46.5q12 17 20.5 35t13.5 40.5t7 50.5t2 66q-11 -6 -28 -8t-31 -2 q-42 0 -78.5 16t-64.5 43.5t-44 64.5t-16 79z" />
<glyph unicode="(" horiz-adv-x="868" d="M115 635q0 100 7.5 189.5t21 172t32.5 161t43 157.5q29 100 95.5 248.5t160.5 349.5h207q-78 -209 -121.5 -361t-66.5 -249q-19 -75 -34.5 -150t-26.5 -154t-17 -165t-6 -183q0 -99 9 -199.5t23.5 -198t33 -190t38.5 -174.5q25 -100 78 -244.5t127 -334.5h-238 q-72 156 -117.5 254.5t-62.5 140.5q-17 43 -41.5 101t-44.5 133q-28 102 -52.5 208.5t-35.5 221.5q-3 30 -5.5 65t-4 71t-2 69.5t-0.5 60.5z" />
<glyph unicode=")" horiz-adv-x="889" d="M195 -688q74 190 127 334.5t79 244.5q20 82 39 174.5t33.5 190t23.5 198t9 199.5q0 97 -6.5 183t-18 165t-26.5 154t-33 150q-23 97 -66.5 248.5t-122.5 359.5h207q94 -201 160.5 -348.5t95.5 -247.5q23 -79 42 -157.5t32.5 -161t21 -172t7.5 -189.5q0 -27 -0.5 -60.5 t-1.5 -69.5t-3.5 -71t-5.5 -65q-11 -115 -35.5 -221.5t-52.5 -208.5q-20 -75 -44.5 -133t-41.5 -101q-18 -42 -63 -140.5t-119 -254.5h-237z" />
<glyph unicode="*" horiz-adv-x="1419" d="M395 1139v143h131l-94 92l103 103l92 -95v131h143v-131l92 95l103 -103l-95 -92h134v-143h-134l95 -92l-103 -103l-92 94v-133h-143v133l-92 -94l-103 103l94 92h-131z" />
<glyph unicode="+" horiz-adv-x="1250" d="M55 422v291h422v422h293v-422h419v-291h-419v-422h-293v422h-422z" />
<glyph unicode="," horiz-adv-x="813" d="M205 162q0 42 16 79t43.5 64.5t64.5 43.5t79 16t79 -16t64 -43.5t43 -64.5t16 -79q0 -122 -5 -203.5t-16 -136t-28 -88.5t-41 -62q-26 -30 -58.5 -50t-62.5 -31q-35 -14 -71 -21l-23 131q38 11 66 29.5t53 46.5q12 17 20.5 35t13.5 40.5t7 50.5t2 66q-11 -6 -29 -8 t-30 -2q-42 0 -79 16t-64.5 43.5t-43.5 64.5t-16 79z" />
<glyph unicode="-" horiz-adv-x="1544" d="M215 483v293h1135v-293h-1135z" />
<glyph unicode="." horiz-adv-x="817" d="M205 178q0 42 16 79.5t43.5 65.5t64.5 44t79 16t79 -16t64 -44t43 -65.5t16 -79.5q0 -41 -16 -78t-43 -65t-64 -44t-79 -16t-79 16t-64.5 44t-43.5 65t-16 78z" />
<glyph unicode="/" horiz-adv-x="1176" d="M131 -86l645 1999h236l-594 -1999h-287z" />
<glyph unicode="0" d="M154 729q0 127 15.5 235t49.5 199q120 338 436 338q159 0 270 -83.5t173 -254.5q65 -183 65 -434q0 -164 -27 -293.5t-81 -226.5q-129 -234 -396 -234h-2q-266 0 -395 234q-108 193 -108 520zM354 795q0 -115 24 -212.5t58 -162.5q15 -29 34.5 -54t45.5 -43t60.5 -28 t78.5 -10h4q45 0 80 10t61 28t46 43t35 54q34 65 58 162.5t24 212.5q0 75 -2 126.5t-8 91.5t-16.5 74t-27.5 74q-16 40 -42.5 71.5t-60 53.5t-72.5 33.5t-81 11.5h9q-41 0 -80 -11.5t-73 -33.5t-60.5 -53.5t-42.5 -71.5q-17 -40 -27 -74t-15.5 -74t-7.5 -91.5t-2 -126.5z " />
<glyph unicode="1" d="M294 1118v154q102 9 175 26t113 37q21 12 37 22t29 24t24 36t21 58h145l60 -1475h-320l62 1118h-346z" />
<glyph unicode="2" d="M172 0q2 48 4.5 95t7.5 91.5t14.5 85.5t26.5 76q18 35 47 72.5t67 74t83 71t94 63.5l198 112q66 39 112.5 72.5t74.5 60.5q21 22 34 43.5t21 44t11 47t3 52.5q0 32 -1.5 57t-7 46t-16.5 39.5t-30 37.5q-38 37 -95 59.5t-122 22.5q-83 0 -130.5 -20.5t-76.5 -51.5 q-18 -17 -34.5 -49.5t-22.5 -71.5h-189q1 24 5 50q3 22 9.5 48.5t18.5 51.5q21 46 53.5 86.5t82.5 70.5t120 47t168 17q128 0 220 -37t151 -106q59 -68 87.5 -152.5t28.5 -169.5q0 -88 -29.5 -156t-94.5 -128q-32 -31 -61.5 -56t-58 -47.5t-58 -44t-60.5 -45.5 q-52 -39 -97 -72q-19 -14 -38.5 -29t-36.5 -28t-30.5 -24t-20.5 -17q-26 -23 -38.5 -46t-17.5 -42q-5 -22 -4 -43h637v-258h-1009z" />
<glyph unicode="3" d="M154 393h249q4 -5 9 -14q5 -8 12 -19.5t18 -27.5q16 -23 61.5 -36t139.5 -13q36 0 70 0.5t64 4.5t54 13t39 25q20 21 31.5 41.5t17.5 42.5t7.5 47t1.5 57q0 38 -3.5 62.5t-12.5 41.5t-24.5 30t-39.5 28q-23 15 -47 25.5t-51.5 16.5t-60.5 8.5t-75 2.5h-36q-10 0 -20 -1 t-19 -1v166q15 -2 26.5 -3t22.5 -1h41q52 0 95 8t77 25q29 15 51 31.5t36.5 37.5t22 48.5t7.5 64.5q0 56 -12 99.5t-50 72.5q-20 15 -46 26t-54.5 18t-57.5 10t-55 3q-46 0 -79.5 -9t-57.5 -23t-38.5 -30t-23.5 -30q-9 -15 -13 -32t-5 -31q-2 -17 0 -33h-215q0 30 4 58 q3 24 8.5 50t16.5 45q54 101 153.5 153t243.5 52q114 0 200 -23.5t148 -74.5q125 -101 125 -293q0 -35 -4.5 -62t-14 -50.5t-23.5 -44t-32 -42.5q-23 -26 -52 -47t-64 -35q115 -33 182 -124q32 -47 47.5 -97t15.5 -116q0 -53 -6.5 -108t-21.5 -106t-39 -96.5t-60 -79.5 q-69 -66 -173 -97.5t-232 -31.5q-131 0 -225 37.5t-154 108.5q-23 27 -40.5 54.5t-29.5 59.5t-19.5 70.5t-10.5 87.5z" />
<glyph unicode="4" d="M154 254v264l675 961h156l14 -981h203v-244h-186l28 -254h-307l31 254h-614zM356 498h422l56 745z" />
<glyph unicode="5" d="M174 377h239q0 -8 2.5 -18.5t9.5 -21t19.5 -21t32.5 -17.5q17 -6 32 -9.5t34.5 -5t47.5 -1.5h70t76.5 3t63 12t52.5 25.5t44 43.5t31.5 50.5t17.5 48t8 51t2 58.5q0 81 -18 143t-66 107q-46 43 -95.5 59.5t-115.5 16.5q-24 0 -42 -1t-34 -4.5t-31 -9.5t-32 -16 q-34 -18 -66 -38.5t-51 -43.5h-184l4 691h874v-172h-688l-2 -330q25 22 49 36t47 25q85 35 191 35q203 0 344 -135q35 -33 61.5 -74t44 -87.5t26.5 -97t9 -101.5q0 -149 -30.5 -254.5t-94.5 -188.5q-65 -81 -169 -120.5t-246 -39.5q-91 0 -170 18t-148 70q-35 26 -61.5 61.5 t-44.5 77t-28.5 86t-14.5 89.5z" />
<glyph unicode="6" d="M154 664q0 274 65 469q129 368 471 368q62 0 109.5 -8t86.5 -22t71.5 -34.5t64.5 -45.5q12 -9 27.5 -31t30 -49.5t24 -57t8.5 -53.5h-184q-5 22 -13 39.5t-34 40.5t-71.5 39t-113.5 16q-48 -1 -85.5 -6.5t-68 -19.5t-56 -37.5t-48.5 -59.5t-39.5 -83t-28 -102.5 t-18 -117.5t-8.5 -129q64 96 160 142q45 20 94 30.5t104 10.5q187 0 324 -119t137 -355q0 -202 -131 -358q-65 -77 -157.5 -116.5t-212.5 -39.5q-106 0 -195 40t-164 118q-149 159 -149 531zM370 464.5q1 -20.5 5.5 -37.5t13 -32.5t21.5 -32.5q41 -49 103 -64t151 -15 q36 0 75 3t75 11.5t66 24t48 40.5t28 42t14 35t4.5 40t0.5 56q0 28 -4 51.5t-11 44t-18 39t-24 37.5q-38 48 -101 67t-149 19q-60 0 -111 -16t-96 -56q-23 -20 -39 -40t-27 -44.5t-17 -54.5t-7 -70q-2 -27 -1 -47.5z" />
<glyph unicode="7" d="M172 1307v172h1024v-209q-22 -17 -43 -34.5t-43.5 -40t-47.5 -53t-55 -73.5q-29 -44 -54 -83.5t-47.5 -79.5t-44.5 -83t-46 -94q-18 -38 -33 -92.5t-27 -111.5t-20 -108.5t-12 -82.5q-7 -54 -18.5 -135t-22.5 -199h-320q18 108 49 220.5t73.5 226.5t94.5 226t111 218 q35 63 72.5 116.5t76 103t77.5 97t77 99.5h-821z" />
<glyph unicode="8" d="M154 432q0 66 15.5 122.5t47.5 104.5q64 95 191 148q-39 15 -69.5 34.5t-51.5 41.5q-82 84 -82 215q0 167 119 284q118 119 338 119q210 0 331 -110q121 -115 121 -263q0 -71 -17.5 -126t-52.5 -99q-20 -25 -50 -48t-72 -46q46 -22 82.5 -46t62.5 -52q98 -104 98 -269 q0 -197 -131 -331q-65 -70 -156.5 -103t-211.5 -33q-109 0 -199 28.5t-164 88.5q-149 116 -149 340zM356 494q0 -24 3 -42.5t9 -34t15.5 -30t22.5 -29.5q21 -25 43.5 -40t53 -22.5t71 -10t96.5 -2.5q86 0 151.5 20.5t96.5 61.5q17 21 27 35.5t15.5 27t7 26t1.5 33.5 q0 36 -5.5 61.5t-17 45t-28 35.5t-37.5 35q-88 75 -224 75q-68 0 -121.5 -19t-95.5 -56q-21 -20 -37 -36.5t-26.5 -35t-16 -42t-4.5 -56.5zM399 1104q0 -26 5 -45.5t15 -35.5t24.5 -29.5t33.5 -28.5q75 -60 180 -60q123 0 191 68q35 35 52.5 64.5t17.5 76.5q0 42 -9 79.5 t-41 72.5q-34 34 -88 49.5t-121 15.5q-68 0 -123.5 -16t-84.5 -51q-31 -35 -41.5 -74.5t-10.5 -85.5z" />
<glyph unicode="9" d="M194 1038q0 51 7.5 91.5t22.5 76t37.5 69.5t52.5 73q123 153 361 153q321 0 444 -293q34 -80 41.5 -178.5t7.5 -220.5q0 -136 -10.5 -256.5t-50.5 -226.5q-135 -351 -457 -351q-217 0 -327 115q-57 57 -84 134.5t-27 164.5h211q11 -23 18.5 -40.5t24.5 -31.5 q13 -9 34.5 -15.5t45 -11t47 -6.5t41.5 -1q33 1 67 0t66.5 3.5t62 17.5t52.5 42q24 28 42 61.5t32 80t25 109t20 148.5q-31 -50 -63 -77.5t-77 -46.5q-46 -20 -101 -25.5t-108 -5.5t-104 8.5t-95.5 23t-80 34.5t-56.5 44q-61 69 -91.5 151t-30.5 187zM384 1012 q0 -16 0.5 -31t4.5 -31t13 -33t27 -38q18 -22 43.5 -37.5t57.5 -26t68 -15.5t75 -5q28 0 59 4t62 12t60 21.5t52 31.5t37.5 41t22.5 46.5t11 47t3 43.5q0 41 -3.5 70.5t-12.5 53t-23 43t-35 40.5q-42 41 -102 61.5t-123 20.5q-68 0 -129.5 -28t-101.5 -74q-20 -23 -33 -45.5 t-20.5 -48t-10 -55.5t-2.5 -68z" />
<glyph unicode=":" horiz-adv-x="817" d="M205 178q0 42 16 79t43.5 64.5t64.5 43.5t79 16t79 -16t64 -43.5t43 -64.5t16 -79t-16 -79t-43 -64.5t-64 -43.5t-79 -16t-79 16t-64.5 43.5t-43.5 64.5t-16 79zM205 1028q0 42 16 79t43.5 64.5t64.5 43.5t79 16t79 -16t64 -43.5t43 -64.5t16 -79t-16 -79t-43 -64.5 t-64 -43.5t-79 -16t-79 16t-64.5 43.5t-43.5 64.5t-16 79z" />
<glyph unicode=";" horiz-adv-x="817" d="M205 162q0 -42 16 -79t43.5 -64.5t64.5 -43.5t79 -16q12 0 30 2t29 8q0 -38 -2 -66t-7 -50.5t-13.5 -40.5t-20.5 -35q-25 -28 -53 -46.5t-66 -29.5l23 -131q36 7 71 21q30 11 62.5 31t58.5 50q24 28 41 62t28 88.5t16 136t5 203.5q0 42 -16 79t-43 64.5t-64 43.5t-79 16 t-79 -16t-64.5 -43.5t-43.5 -64.5t-16 -79zM205 1012q0 42 16 79t43.5 64t64.5 43t79 16t79 -16t64 -43t43 -64t16 -79t-16 -79t-43 -64.5t-64 -43.5t-79 -16t-79 16t-64.5 43.5t-43.5 64.5t-16 79z" />
<glyph unicode="&#x3c;" horiz-adv-x="942" d="M104 635l422 579h215l-405 -579l407 -635h-268z" />
<glyph unicode="=" d="M109 184v293h1134v-293h-1134zM109 700v293h1134v-293h-1134z" />
<glyph unicode="&#x3e;" horiz-adv-x="948" d="M205 0l405 635l-405 579h215l422 -579l-371 -635h-266z" />
<glyph unicode="?" horiz-adv-x="1378" d="M183 1569q1 34 10 72.5t27.5 77t53.5 71.5q72 66 172 94.5t222 28.5q57 0 114 -7t110 -21.5t99 -36t80 -50.5q135 -114 135 -291q0 -26 -1.5 -57t-6.5 -62.5t-14.5 -60.5t-26.5 -51q-17 -23 -36.5 -44.5t-43.5 -45t-53.5 -49.5t-67.5 -58q-27 -23 -48 -49t-37 -52 t-27.5 -49t-20.5 -40q-8 -16 -12.5 -53.5t-6.5 -82t-2.5 -90t-0.5 -77.5h-293q0 37 3 87t8.5 99.5t13.5 92t18 65.5q9 22 28 54t44.5 67.5t56.5 71.5t65 65l84 72q20 18 38 35t38 44q12 16 20.5 38t14.5 45.5t9 46t3 40.5q0 25 -1 47t-5.5 42t-14 38.5t-26.5 36.5 q-34 37 -99.5 54.5t-143.5 17.5q-49 0 -86 -4t-66 -14.5t-50.5 -27.5t-39.5 -44q-12 -17 -18 -41t-8.5 -46t-2.5 -38.5v-18.5h-207q-2 24 -1 58zM461 160q0 42 16 79.5t43.5 65t64.5 44t79 16.5t79 -16.5t64 -44t43 -65t16 -79.5t-16 -78.5t-43 -64.5t-64 -44t-79 -16 t-79 16t-64.5 44t-43.5 64.5t-16 78.5z" />
<glyph unicode="@" horiz-adv-x="2445" d="M188 887q0 208 76.5 383.5t216.5 320.5q155 160 362 241t468 81q113 0 218 -10.5t198 -35t171.5 -66.5t137.5 -105q56 -60 94 -118.5t61 -122.5t33 -135.5t10 -156.5q0 -73 -9.5 -134t-28.5 -115.5t-48 -105.5t-69 -103q-41 -54 -92 -96t-107 -71t-113 -44t-110 -15 q-63 0 -113 17t-71 61q-15 29 -19 63t-3.5 63t4 50t5.5 25q-17 -37 -32 -67.5t-31 -56t-35 -46.5t-43 -39q-48 -35 -103.5 -52.5t-132.5 -17.5q-39 0 -78 9t-74.5 25t-66.5 39t-55 52q-25 28 -41.5 55.5t-27 60t-15 72t-4.5 91.5q2 127 45 242.5t127 211.5q84 97 175 145 t187 48q131 0 213 -76q44 -37 65.5 -81t25.5 -97l79 211h162q-30 -72 -58 -145q-12 -31 -25 -65.5t-25 -69t-22.5 -68.5t-18.5 -64q-17 -61 -30 -123.5t-17.5 -115t0.5 -89t24 -45.5t41.5 -13.5t34.5 -2.5q34 3 62 11t54.5 22.5t52 37.5t54.5 56q53 62 82 148.5t29 207.5 q0 74 -6.5 130.5t-23.5 105t-47 94t-77 96.5q-44 49 -103 81.5t-129.5 51.5t-151 27t-167.5 8q-480 0 -735 -282q-54 -60 -88.5 -127.5t-54 -142.5t-26.5 -157.5t-5 -172.5q1 -83 16.5 -145.5t40.5 -112t58 -89.5t71 -77q62 -62 132 -107.5t151 -75t176 -43.5t207 -14 q53 0 102 1t95.5 5.5t91.5 13.5t90 25q91 34 176.5 77.5t161.5 98.5l104 -250q-29 -25 -61 -46.5t-70 -42t-84 -41t-102 -42.5q-57 -22 -121.5 -34t-133 -17.5t-139 -6.5t-139.5 -1q-266 0 -476 81.5t-353 246.5q-116 133 -173 280.5t-57 321.5zM946 915q0 -32 3 -56 t9 -43.5t15.5 -36.5t23.5 -34q53 -65 136 -65q85 0 153.5 40t116.5 140q24 50 41.5 93.5t29 83.5t17.5 78.5t6 78.5q0 81 -51 141q-26 32 -66.5 55t-87.5 23q-72 0 -141.5 -45.5t-122.5 -130.5q-26 -43 -42 -83t-25 -79t-12 -78.5t-3 -81.5z" />
<glyph unicode="A" horiz-adv-x="2066" d="M168 0l727 1913h276l725 -1913h-364l-156 565h-686l-155 -565h-367zM750 805h565l-283 887z" />
<glyph unicode="B" horiz-adv-x="1849" d="M207 0l53 1913h739q102 0 198.5 -34.5t172.5 -94.5t122 -140t46 -171q0 -63 -10.5 -121t-37.5 -108.5t-74.5 -91.5t-121.5 -69l-2 -2q83 -25 153 -74.5t121 -116.5q52 -68 80 -151q28 -80 27 -168v-6q0 -76 -21 -147t-58.5 -134t-90 -115t-115 -89.5t-133 -58.5 t-145.5 -21h-903zM504 1692l14 -504h479q55 0 103 23t84 60t57 84.5t21 96.5q0 50 -21.5 93.5t-58 76t-84.5 51.5t-101 19h-493zM526 913l17 -618h540q64 0 120 24.5t98 66.5t66 98t24 120t-24 120t-66 98t-98 66.5t-120 24.5h-557z" />
<glyph unicode="C" horiz-adv-x="2007" d="M190 922q0 242 59.5 423t176.5 316q59 67 131 118t152.5 84.5t168 50.5t179.5 17q309 0 504 -151q68 -51 118.5 -129t69.5 -178h-311q-8 38 -26.5 70t-47.5 63q-53 52 -126 75t-181 23q-74 0 -144.5 -23t-132 -65t-111 -101t-81.5 -131q-21 -47 -36 -85t-24 -78.5 t-13.5 -90t-4.5 -118.5v-11q0 -65 11 -127q12 -68 29.5 -128.5t38 -108.5t36.5 -76q8 -14 19.5 -38t30.5 -51.5t48 -56t72 -51t101.5 -37t137.5 -14.5q48 1 94.5 5.5t86 11.5t69.5 16t45 19q32 23 50.5 59t23.5 80h397q-1 -84 -23.5 -149.5t-56 -115.5t-73.5 -87t-76 -62 q-55 -38 -119 -60.5t-135 -34.5t-147.5 -16t-157.5 -4q-180 0 -332.5 64t-259.5 197q-109 133 -169.5 309.5t-60.5 376.5z" />
<glyph unicode="D" horiz-adv-x="1966" d="M205 0l53 1913h643q122 0 235.5 -33.5t212 -96t179.5 -150t139 -194t89.5 -229t31.5 -254.5t-24 -254t-70.5 -228.5t-114 -193.5t-155 -149.5t-193 -96.5t-227.5 -34h-799zM504 1683l39 -1388l364 2q131 0 240 51.5t187 142t121.5 213t43.5 263.5q0 94 -22 183.5t-63 169 t-98 146.5t-127.5 115t-151.5 75t-169 27h-364z" />
<glyph unicode="E" horiz-adv-x="1630" d="M205 0l53 1913l1137 2v-2v-230h-891l14 -546h703l-2 -267h-693l15 -573h854v-297h-1190z" />
<glyph unicode="F" horiz-adv-x="1589" d="M205 0l53 1913h1106v-230h-862l14 -546h655v-129l-108 -134h-539l25 -874h-344z" />
<glyph unicode="G" horiz-adv-x="2077" d="M190 922q0 242 58.5 423t177.5 316q58 67 130 118t152.5 84.5t168 50.5t178.5 17q156 0 282.5 -37t223.5 -114q133 -103 194 -307h-319q-14 35 -31 63.5t-45 54.5q-28 25 -58.5 46t-67 36t-80 23t-97.5 8q-74 0 -144.5 -23t-132 -65t-111.5 -101t-81 -131 q-21 -47 -36 -85t-24.5 -78.5t-14 -90t-5.5 -118.5q0 -70 13 -140.5t31 -131.5t37.5 -108t33.5 -71q10 -16 23 -41t34 -53.5t50.5 -57t72 -52t99.5 -38t132 -14.5h6q56 0 100.5 3t83.5 11.5t76 23.5t78 40q14 9 34.5 24t40 40.5t33.5 62.5t15 88h-297v274h639l29 -897h-307 l12 256q-25 -48 -62 -90.5t-96 -83.5q-71 -46 -170.5 -64t-236.5 -18q-183 0 -334.5 64.5t-259.5 196.5q-107 133 -167.5 309.5t-60.5 376.5z" />
<glyph unicode="H" horiz-adv-x="1964" d="M205 0l53 1913h238l20 -754l428 -12l504 12l20 754h240l51 -1913h-344l25 874l-494 11l-422 -11l25 -874h-344z" />
<glyph unicode="I" horiz-adv-x="795" d="M225 0l54 1913h237l53 -1913h-344z" />
<glyph unicode="J" horiz-adv-x="1489" d="M182 487h275q0 -39 19 -73.5t51.5 -60.5t76.5 -41t94 -15q49 0 92 15t75.5 41t51.5 60.5t21 73.5l55 1426h238l24 -1426q0 -110 -41 -203.5t-113 -162t-169 -107.5t-209 -39q-111 0 -209.5 39t-172 107.5t-116.5 162t-43 203.5z" />
<glyph unicode="K" horiz-adv-x="1806" d="M205 0l53 1913h246l14 -764l707 764l293 2v-2l-760 -852l844 -967v-94h-381l-697 877l45 -877h-364z" />
<glyph unicode="L" horiz-adv-x="1501" d="M205 0l53 1913h238l45 -1616h663l92 -129v-168h-1091z" />
<glyph unicode="M" horiz-adv-x="2439" d="M205 0l129 1913h321l564 -1329l565 1329h321l129 -1913h-366l45 1686l-498 -1389h-391l-500 1389l45 -1686h-364z" />
<glyph unicode="N" horiz-adv-x="2013" d="M205 0l57 1913h268l949 -1426l32 1207l162 219h82l53 -1913h-399l-872 1446l32 -1446h-364z" />
<glyph unicode="O" horiz-adv-x="2128" d="M205 924q0 54 4.5 111.5t13.5 114.5t22 111t31 101q32 87 79.5 164.5t107.5 148.5q109 130 260 195q74 32 158 45.5t180 15.5h6q96 -2 180 -15.5t158 -45.5q75 -32 139.5 -81t120.5 -114q60 -71 107 -148.5t79 -164.5q18 -47 31.5 -101t22.5 -111t13.5 -114.5t4.5 -111.5 q0 -51 -4.5 -105.5t-13.5 -108.5t-22 -105t-30 -95q-31 -81 -75 -153t-101 -138q-52 -62 -114.5 -108.5t-135.5 -75.5q-71 -31 -152.5 -45.5t-172.5 -14.5h-76q-91 0 -172.5 14.5t-153.5 45.5q-72 29 -134.5 75.5t-114.5 108.5q-57 66 -101.5 138t-75.5 153q-18 44 -31 95 t-21.5 105t-12.5 108.5t-4 105.5zM504 1012q0 -155 28.5 -279.5t90.5 -220.5q32 -53 75.5 -93t102.5 -65q51 -20 111.5 -29.5t138.5 -9.5h26q149 0 250 39q59 25 102.5 65t75.5 93q62 96 90.5 220.5t28.5 279.5q0 149 -39.5 272.5t-107.5 216.5q-41 55 -90.5 93t-103 62 t-107.5 35t-105 11h-14q-51 0 -105.5 -11t-107.5 -35t-102.5 -62t-90.5 -93q-68 -93 -107.5 -216.5t-39.5 -272.5z" />
<glyph unicode="P" horiz-adv-x="1729" d="M205 0q9 172 18 334q4 69 7.5 142.5t7 145t6 136.5t4.5 116q1 52 2 124t2 155t1.5 171.5t0.5 172.5v416h238l8 -92q6 5 11 9t9 7.5t6 5.5q22 14 42.5 22.5t42 15t44.5 11.5t50 11t70 8t84 3q48 0 99 -1q118 0 221 -43.5t179.5 -119t121 -177.5t44.5 -219t-47 -218 t-126 -175t-181 -117.5t-212 -44.5h-4q-23 -1 -45 -1q-65 0 -117 5q-70 6 -139 18q-30 6 -51 13t-36 13t-24.5 11t-15.5 8l29 -866h-350zM506 1554l10 -387q0 -24 14.5 -40.5t44.5 -28.5q21 -8 63 -12t96 -5.5t115 -1.5h120t110.5 25t90 66.5t61 96t22.5 113.5t-22.5 113.5 t-61.5 96t-90.5 66.5t-109.5 25q-119 0 -201 -2t-133 -16q-23 -7 -45 -17t-39.5 -23.5t-29.5 -30.5t-15 -38z" />
<glyph unicode="Q" horiz-adv-x="2073" d="M205 924q0 54 4 111.5t12.5 114.5t20.5 111t28 101q58 172 168 313q100 130 236 195q66 32 142 45.5t163 15.5h6q85 -2 162 -15.5t143 -45.5q136 -65 236 -195q54 -71 96.5 -148.5t71.5 -164.5q16 -47 28 -101t20.5 -111t12.5 -114.5t4 -111.5q0 -51 -4 -105.5 t-12 -108.5t-20 -105t-27 -95q-10 -25 -19.5 -49.5t-21.5 -48.5l241 -250v-162h-225l-164 184q-43 -49 -92 -86t-104 -63q-65 -31 -138.5 -45.5t-156.5 -14.5h-68q-83 0 -156.5 14.5t-138.5 45.5q-65 29 -121 75.5t-106 108.5q-102 132 -160 291q-15 44 -26.5 95t-19 105 t-11.5 108.5t-4 105.5zM475 1012q0 -155 25.5 -279.5t81.5 -220.5q31 -53 70 -93t91 -65q47 -20 103 -29.5t125 -9.5h22q69 0 124.5 9.5t103.5 29.5q47 24 79 60l-317 356l166 172l289 -303q26 80 37.5 173t11.5 200q0 149 -34.5 271.5t-96.5 215.5q-37 55 -82 93.5t-93 63 t-97.5 35.5t-94.5 11h-14q-45 0 -94.5 -11t-97.5 -35.5t-93 -63t-82 -93.5q-62 -93 -97.5 -215.5t-35.5 -271.5z" />
<glyph unicode="R" horiz-adv-x="1952" d="M205 0l53 1913h795h14q126 0 232 -44.5t183 -120.5t120 -178t43 -216q0 -93 -31 -178t-84.5 -154.5t-126 -121.5t-156.5 -79l500 -696v-125h-344l-383 668q-8 14 -23 36t-39.5 43t-59.5 36.5t-83 15.5h-289l23 -799h-344zM502 1681l16 -604h567q58 0 110 26.5t91 70 t61.5 100t22.5 115.5t-19.5 112t-56.5 93t-90 63.5t-119 23.5h-583z" />
<glyph unicode="S" horiz-adv-x="1886" d="M205 504h350q8 -23 17 -37t18 -25q23 -32 52.5 -55.5t70.5 -39.5t95 -24t126 -8q100 0 176.5 26t138.5 67q25 16 42.5 35.5t28 44t15.5 54t6 66.5q2 38 -5 63t-21 50q-16 25 -39 44.5t-55 33.5q-23 10 -70 25.5t-106 34t-125 39.5t-127 42q-59 21 -104 38.5t-84 35 t-75.5 37t-78.5 45.5q-85 49 -127.5 126.5t-42.5 188.5q0 126 38 217t125 166q44 37 92 63t105 42.5t124.5 24t149.5 7.5q101 0 178 -9.5t140 -31.5q28 -10 54.5 -20t52.5 -24t51 -34t51 -49q25 -28 46 -62.5t36 -72t23.5 -77t8.5 -78.5h-266q0 38 -17.5 79.5t-55.5 73.5 q-19 16 -45 30t-64 24t-90.5 16t-124.5 6q-98 0 -161.5 -26t-110.5 -66q-39 -32 -53.5 -69t-14.5 -91q0 -34 7 -52t24 -38q18 -22 41 -36t57 -30q9 -4 30.5 -11.5t51.5 -17t65.5 -21t71.5 -22.5q84 -26 184 -57q62 -18 122.5 -36.5t115 -38t100.5 -39.5t80 -41 q42 -26 75.5 -67.5t56 -94t34.5 -112.5t12 -124v-39q-6 -115 -47.5 -213t-132.5 -186q-45 -43 -106 -78.5t-135 -60.5q-79 -28 -165 -44t-177 -16q-98 0 -181.5 15t-154.5 43q-65 23 -118 58t-95 81q-39 42 -67.5 79.5t-48 75.5t-31 81t-17.5 96z" />
<glyph unicode="T" horiz-adv-x="1661" d="M82 1683v230h1497v-230h-625l47 -1683h-344l48 1683h-623z" />
<glyph unicode="U" horiz-adv-x="2007" d="M205 610l37 1303h239l35 -1254v-47t4 -60.5t14 -63t29 -54.5q38 -45 81.5 -69.5t86 -36t80 -13.5t63.5 -2q42 0 81.5 10t75.5 26.5t68.5 38t61.5 44.5q27 22 53.5 51t50 63t42.5 71.5t32 78.5q14 45 24 80t17 74t10 87t3 118l24 858h238q9 -363 18 -661q2 -85 5 -169.5 t5.5 -164t5 -150.5t5 -128t4.5 -97t4 -58q3 -27 8.5 -61.5t13 -73.5t16 -80t17.5 -80q20 -92 45 -190h-274l-84 117l-2 301l-11 -22q-6 -12 -17 -32.5t-28 -52.5q-65 -130 -174 -209q-50 -36 -97 -60.5t-95.5 -39t-100.5 -21t-110 -6.5q-199 0 -338.5 69.5t-204.5 191.5 q-37 69 -49 163t-12 211z" />
<glyph unicode="V" horiz-adv-x="1937" d="M168 1913h238l563 -1426l561 1426h239l-624 -1913h-352z" />
<glyph unicode="W" horiz-adv-x="2732" d="M168 1913h285l415 -1585l342 1040h312l342 -1040l415 1585h285l-518 -1913h-365l-315 1139l-315 -1139h-365z" />
<glyph unicode="X" horiz-adv-x="2064" d="M205 0l606 1063l-514 850h281l454 -649l451 649h284l-548 -850l641 -1063h-396l-432 862l-434 -862h-393z" />
<glyph unicode="Y" horiz-adv-x="1837" d="M168 1913h256l539 -918l432 918h274l-577 -1096q-13 -174 -24 -312q-5 -59 -9 -116t-7.5 -103t-5.5 -75.5t-2 -32.5q-2 -3 -9.5 -12t-18.5 -21.5t-24.5 -28.5t-27.5 -32q-33 -38 -73 -84h-209l121 817z" />
<glyph unicode="Z" horiz-adv-x="2095" d="M205 0l8 328l1165 1355h-1028v230h1366v-264l-1048 -1336h1106l116 -313h-1685z" />
<glyph unicode="[" horiz-adv-x="1182" d="M270 -686l27 2599h584v-215h-367l21 -2116h346v-268h-611z" />
<glyph unicode="\" horiz-adv-x="1208" d="M205 1999h235l645 -1999h-315z" />
<glyph unicode="]" horiz-adv-x="1182" d="M231 -418h347l20 2116h-367v215h584l27 -2599h-611v268z" />
<glyph unicode="^" d="M227 900l394 909h107l394 -909h-192l-256 746l-255 -746h-192z" />
<glyph unicode="_" horiz-adv-x="1858" d="M95 -50h1668v-234h-1668v234z" />
<glyph unicode="`" horiz-adv-x="1706" d="M402 1727l191 187l358 -381l-164 -164z" />
<glyph unicode="a" horiz-adv-x="1442" d="M162 317q3 62 12.5 105t25.5 74t37.5 54.5t47.5 47.5q54 46 116 80t144 45q35 5 79 7q44 4 90 4h45h43q44 0 79 -1q34 0 53 5.5t28.5 16.5t12 27t2.5 37l2 68q0 52 -17 93.5t-53 66.5q-74 51 -211 51q-80 0 -124.5 -9.5t-67.5 -23.5q-30 -19 -48.5 -47t-23.5 -70h-205 q0 28 6.5 58.5t20.5 59.5t37.5 55.5t58.5 47.5q71 45 161 64.5t183 19.5q109 0 195.5 -23.5t152.5 -64.5q134 -83 134 -256l2 -690q-1 -9 2 -17q2 -7 8.5 -13.5t19.5 -10.5q5 -1 10 -1h10t11 1l72 -86l2 -92q-25 -6 -43.5 -11t-42.5 -7q-19 -2 -34.5 -2t-37.5 2 q-63 3 -95 28.5t-48 63.5q-6 11 -11.5 24.5t-10.5 25.5q-5 14 -11 28q-26 -31 -54 -60q-24 -25 -53.5 -50.5t-58.5 -39.5q-60 -31 -129.5 -38t-138.5 -7q-174 0 -277 102q-54 51 -82 115q-26 58 -26 128v15zM399 350v-10q-1 -19 5 -37q8 -22 36 -45q17 -15 40.5 -23t50 -12 t52.5 -5t48 -1q28 0 57.5 3t56.5 8t50.5 11t38.5 11q33 12 57.5 25.5t41.5 33.5t25.5 50t10.5 75l2 160h-137h-55h-53t-45.5 -0.5t-33.5 -1.5q-52 -3 -101 -23.5t-77 -46.5q-22 -21 -36 -40.5t-21.5 -40t-10 -42.5t-2.5 -49z" />
<glyph unicode="b" horiz-adv-x="1438" d="M139 0q16 75 30 145q6 30 11.5 62t10.5 63.5t8.5 60t5.5 52.5t4.5 102t5 190.5l5.5 247.5t6 273q6 323 14 717h213l-25 -795q9 13 19 25t23 23.5t29 23t38 22.5q46 25 99.5 33t108.5 8q69 0 119 -11t88 -32t68.5 -52t62.5 -71q63 -81 107 -191t76 -247q24 -104 23 -200 q-1 -33 -3 -67q-12 -126 -80 -222q-35 -48 -84.5 -87t-109.5 -66q-58 -27 -126 -41q-52 -10 -106 -10q-16 0 -32 1q-70 3 -129 19.5t-107 50.5q-29 20 -48.5 45.5t-39.5 56.5l-16 -129h-269zM412 766.5q0 -45.5 4 -113.5q2 -53 4 -98.5t8.5 -85.5t20 -75.5t40.5 -67.5 q31 -36 66 -57.5t74.5 -32.5t83.5 -14t92 -3q28 0 75.5 18t94.5 50q15 11 28.5 22.5t24.5 28.5q17 25 30 66q14 41 18 93q2 22 1 46q0 31 -3 65q-6 60 -27 123q-18 55 -33.5 97t-31 74.5t-31 57.5t-33.5 46q-24 28 -46.5 46t-46 28t-49 14t-55.5 4q-45 0 -83.5 -12t-70 -31 t-56 -43.5t-42.5 -48.5q-21 -30 -33.5 -56.5t-18 -60.5t-5.5 -79.5z" />
<glyph unicode="c" horiz-adv-x="1382" d="M150 584q0 162 38.5 280.5t116.5 208.5q79 91 187 135.5t229 44.5q206 0 336 -100q45 -34 76 -85.5t53 -119.5h-221q-10 25 -20 45.5t-25 34.5q-19 16 -39 29t-43 22t-51.5 14t-63.5 5q-49 0 -94 -15t-84 -42t-70.5 -65.5t-52.5 -86.5q-13 -31 -21 -55t-12.5 -49.5 t-6 -57.5t-1.5 -78q0 -91 15 -160t46 -135q14 -29 28.5 -53.5t41.5 -42.5t73 -28t124 -11q31 0 61.5 1t56 3.5t45.5 6.5t31 10q23 11 34.5 24.5t14.5 42.5h262q0 -41 -15 -80.5t-37.5 -74t-49 -62.5t-49.5 -45q-39 -29 -82 -46.5t-89.5 -26.5t-96.5 -12t-103 -3 q-59 0 -115.5 10t-108.5 31t-97 53t-80 76q-71 88 -106 207t-35 250z" />
<glyph unicode="d" horiz-adv-x="1477" d="M141 728q-2 23 -2 45q1 42 7 81q10 60 36 115t72 108q72 84 176 130t229 46q72 0 127 -17t103 -46q26 -17 57 -41t68 -66l55 830h215l-55 -975q0 -62 -0.5 -120t0.5 -112q0 -47 1 -95t2 -92t3 -81t4 -61t7 -53.5t11.5 -60.5t14.5 -62.5t16 -60.5q18 -69 41 -140h-289v182 q-42 -66 -85.5 -109t-94.5 -69q-50 -26 -100 -38q-43 -10 -95 -9h-18q-64 0 -108 14t-76 36.5t-55.5 51.5t-45.5 60q-26 35 -54.5 86.5t-56 113t-51 130t-38.5 137.5q-16 76 -21 142zM352 734q4 -56 16.5 -109t24.5 -86q17 -45 29.5 -75t24.5 -53.5t26 -44.5t33 -49 q22 -30 39.5 -49.5t42.5 -31t63.5 -15.5t102.5 -4q69 0 119.5 25t82.5 63q24 28 38.5 58.5t23 63.5t11.5 68.5t5 73.5v22q0 43 -3 83q-4 50 -13 93.5t-21.5 78.5t-27.5 59q-28 46 -64.5 84t-80.5 63.5t-94 36.5q-29 6 -58 6q-22 0 -45 -3q-84 -13 -141.5 -54t-100.5 -106 q-25 -34 -31 -88q-4 -32 -5 -65q1 -22 3 -45z" />
<glyph unicode="e" horiz-adv-x="1397" d="M139 565q0 147 44 270t124 216q79 93 182.5 147.5t231.5 54.5q88 0 149.5 -17.5t104.5 -39.5q21 -10 45.5 -27t49.5 -39t47.5 -48.5t37.5 -55.5q26 -49 48.5 -101t33.5 -114q2 -17 1 -32q0 -49 -16 -87q-22 -50 -67 -82.5t-107.5 -48.5t-136.5 -18l-530 -29 q1 -24 5 -50.5t11.5 -52.5t19.5 -50.5t29 -43.5q19 -23 39.5 -41t48 -31t65 -19.5t89.5 -6.5q39 1 76.5 1.5t69.5 2t56.5 4.5t39.5 9q17 6 34.5 20t22.5 51h262q-1 -51 -16.5 -92t-38 -73t-49 -55.5t-49.5 -41.5q-54 -40 -110 -57t-105 -25q-19 -2 -42.5 -3.5t-49 -2 t-51.5 -0.5h-50q-112 0 -208 36t-175 118q-78 83 -122 194t-44 260zM371 686l520 27q103 3 134 61q12 23 12 52q0 46 -29 108q-38 77 -110 120.5t-171 43.5q-48 0 -85 -11t-67 -29.5t-55 -42.5t-49 -50q-46 -51 -71.5 -125.5t-28.5 -153.5z" />
<glyph unicode="f" horiz-adv-x="1020" d="M66 1028v184h253l11 373q2 76 8.5 134t23.5 89q19 34 47.5 58t84.5 37q13 3 32.5 5t41 3t43.5 1.5t40 0.5h41.5t44 -2.5t47 -9t50.5 -19.5q21 -9 34 -21t25 -26l-53 -184q-7 28 -17.5 45t-22.5 26.5t-26 13.5t-29 7q-5 1 -17 2t-26 1h-29.5t-27.5 -1q-18 -1 -37.5 -10.5 t-35 -25t-25.5 -35.5t-10 -42v-34.5t-0.5 -61t-0.5 -78.5t-0.5 -86.5t-0.5 -85v-74.5h303v-184h-299l18 -809l-84 -219h-178l20 1028h-249z" />
<glyph unicode="g" horiz-adv-x="1389" d="M139 565q0 76 6 148t21 136t39.5 119.5t62.5 98.5q37 43 79.5 78t89 59t96.5 37q46 12 95 12h7q53 -1 89 -4.5t62.5 -10t46.5 -15.5t41 -21q13 -7 30 -21t33.5 -31t29.5 -36t18 -35l49 135h215q-17 -44 -29 -91q-11 -40 -19.5 -86.5t-8.5 -88.5q0 -12 -0.5 -54.5t-1 -104 t-1 -136t-0.5 -150.5q-2 -179 -3 -399q0 -105 -4 -191.5t-13 -156.5t-24 -125.5t-37 -97.5q-34 -62 -79.5 -103.5t-104.5 -67t-134 -36.5q-68 -10 -150 -10h-15q-73 0 -120.5 3.5t-81.5 12.5t-61.5 24.5t-60.5 39.5q-26 19 -50 47.5t-43 69.5t-32.5 95.5t-19.5 125.5 l260 -76q6 -21 10.5 -34.5t10 -22.5t13 -15t19.5 -12q25 -14 65.5 -20.5t108.5 -6.5q38 0 81 3t83 17t74 42t55 78q10 24 16 73.5t9 112t4 131.5q1 34 1 67t-1 64q-13 -26 -32 -52.5t-56 -55.5q-39 -31 -94 -50.5t-134 -19.5q-99 0 -188.5 39t-163.5 108q-74 71 -116 184.5 t-42 276.5zM370 683v-31q0 -30 1 -60q6 -103 23.5 -176t58.5 -119q38 -44 88.5 -61t124.5 -17q64 1 106 9t70.5 23t48 36.5t39.5 48.5q13 18 23.5 39.5t18.5 51.5t12.5 70t6.5 95v28q0 42 -2 82q-3 54 -10.5 101.5t-21.5 87t-35 67.5q-22 29 -48.5 54.5t-56.5 44.5t-63 30 t-68 11q-108 0 -178 -52.5t-111 -154.5q-7 -17 -12.5 -49t-9.5 -72.5t-5 -86.5z" />
<glyph unicode="h" horiz-adv-x="1384" d="M186 0l33 1012l39 901h213l-22 -768q14 15 37.5 33.5t68.5 38.5q88 36 242 36q133 0 227.5 -42t142.5 -136q12 -25 22 -65t16.5 -86t10.5 -93.5t5 -87.5q0 -20 1 -62.5t2.5 -98.5t2.5 -121t3 -129q4 -152 7 -332h-268l16 729q1 35 1 71v18q0 27 -2 53q-2 35 -7 66t-16 52 q-13 22 -32.5 41.5t-45.5 34.5t-58.5 24t-70.5 9q-131 0 -232 -107q-24 -25 -37.5 -63.5t-19.5 -87t-7 -105t-1 -117.5l-2 -618h-269z" />
<glyph unicode="i" horiz-adv-x="700" d="M188 1702q0 34 12.5 63.5t34.5 51.5t51.5 34.5t63.5 12.5q33 0 62 -12.5t51 -34.5t34.5 -51.5t12.5 -63.5q0 -33 -12.5 -62.5t-34.5 -51.5t-51 -35t-62 -13q-34 0 -63.5 13t-51.5 35t-34.5 51.5t-12.5 62.5zM217 0l27 1214h215l26 -1214h-268z" />
<glyph unicode="j" horiz-adv-x="891" d="M6 -604q21 -23 52 -41q26 -16 65.5 -28.5t93.5 -12.5t90.5 5t62.5 15t44.5 24.5t38.5 33.5q19 21 33 42.5t24 50t16.5 67t10.5 94.5q3 51 6 89t6 75.5t5.5 82t4.5 109.5q1 34 3.5 103.5t6.5 161t8 197.5t9 211q10 246 22 539h-213q-19 -300 -34 -550q-6 -107 -12.5 -213 t-11.5 -196t-8.5 -156.5t-4.5 -94.5q-2 -55 -4 -99t-5 -83t-6.5 -75.5t-7.5 -76.5q-5 -40 -18.5 -64t-32 -37t-39.5 -17.5t-41 -4.5t-33.5 4.5t-23.5 10.5q-11 7 -19 16zM342 1751q0 34 12.5 63.5t34.5 51.5t51.5 34.5t63.5 12.5q33 0 62 -12.5t51 -34.5t34.5 -51.5 t12.5 -63.5q0 -33 -12.5 -62.5t-34.5 -51.5t-51 -35t-62 -13q-34 0 -63.5 13t-51.5 35t-34.5 51.5t-12.5 62.5z" />
<glyph unicode="k" horiz-adv-x="1303" d="M139 0q5 194 9 373q2 76 4 156t3.5 155t2.5 141.5t2 114.5q0 37 1.5 110t4.5 162q2 55 4 115t4.5 120t5 117.5t5.5 109.5q5 121 12 239h213q-9 -133 -15 -261q-3 -54 -5 -113t-4.5 -116.5t-3.5 -111.5t-1 -99q0 -51 0.5 -111t2.5 -112q1 -61 3 -121l426 344h291 l-580 -479l631 -643v-90h-266l-496 575l15 -575h-269z" />
<glyph unicode="l" horiz-adv-x="854" d="M147 135v84q0 2 0.5 35t2 88t3.5 127t3.5 152t4 163.5t4.5 161.5t3.5 146.5t3.5 117.5q1 48 2.5 103.5t2.5 114t1.5 117t1.5 112.5q1 127 2 256h215q1 -128 1 -254q0 -54 -0.5 -112t-1 -116.5t-2 -114.5t-3.5 -104q-2 -50 -3.5 -115.5t-2.5 -139.5t-1.5 -152t-0.5 -151 q0 -172 2 -359v-14q0 -34 12 -50q8 -11 29.5 -11.5t56.5 -0.5h111l90 -219h-401q-29 0 -57.5 13t-45.5 36q-15 19 -24 38t-9 48z" />
<glyph unicode="m" horiz-adv-x="1962" d="M139 0l23 1214h211v-88q23 26 48 45t60 37q12 7 27.5 15t38.5 14.5t55.5 11t77.5 4.5q74 0 124.5 -18t84.5 -43q57 -38 96 -98q31 37 61 64t76 50q24 12 54.5 20.5t63 13.5t65 7.5t61.5 3.5q106 0 197.5 -39.5t154.5 -119.5q48 -59 70 -130q21 -65 20 -151v-16l15 -797 h-269l19 846q-1 34 -8 62.5t-17 50.5t-21.5 38t-21.5 25q-15 15 -31 28.5t-36 24t-45 17t-56 6.5q-38 0 -66.5 -8t-51 -21t-39 -29t-29.5 -32q-18 -23 -28.5 -43.5t-16 -40t-7 -38.5t-1.5 -40l16 -846h-266l16 846q0 42 -11.5 80.5t-33.5 70.5q-13 19 -29.5 37.5t-39 32.5 t-53 22.5t-70.5 8.5q-36 0 -63.5 -6t-49.5 -19t-40.5 -32t-37.5 -44q-21 -27 -33 -65t-14 -84q0 -42 2 -92q1 -25 1 -52t-1 -57q0 -15 0.5 -51t2 -84.5t2.5 -105t3 -113.5q4 -134 9 -293h-269z" />
<glyph unicode="n" horiz-adv-x="1413" d="M168 0q12 228 22 422q4 82 8 165t6 155t4 126q1 33 1 56v26q-1 33 -4 78t-7 87q-4 48 -10 99h213l15 -198q18 28 38.5 57t43 54.5t46.5 46t48 32.5q49 23 104.5 35t114.5 12q131 0 218.5 -48.5t133.5 -139.5q25 -51 36 -120.5t13 -166.5q1 -25 2.5 -71.5t4 -105.5 t5.5 -126.5t6 -134.5q7 -157 15 -340h-268q5 164 8.5 282t5.5 200t3 133t1 81v45v25q0 75 -4.5 115.5t-15.5 66.5q-11 25 -25.5 51.5t-37.5 48.5t-56.5 36t-81.5 14q-37 0 -74.5 -14.5t-60.5 -32.5q-42 -32 -75 -65.5t-64 -74.5q-25 -32 -40 -58t-26 -65q-12 -34 -14 -72 q-1 -21 -1 -49q0 -22 1 -49q0 -15 0.5 -49.5t2 -80.5t2.5 -100.5t3 -108.5q4 -128 8 -279h-268z" />
<glyph unicode="o" horiz-adv-x="1466" d="M139 584q0 76 13 145t36 130.5t55 115t70 98.5q153 177 412 180h12q255 -3 408 -180q38 -45 70 -98.5t55 -115t36 -130.5t13 -145q0 -144 -46 -257t-120 -200q-147 -170 -397 -170h-54q-250 0 -397 170q-74 87 -120 200t-46 257zM371 635q0 -48 4 -89t13 -77t24 -69 t37 -66q42 -65 109.5 -90t160.5 -25h12q93 0 160.5 25t109.5 90q22 33 38 65.5t26.5 68t16 76t5.5 89.5q0 50 -6.5 92t-18.5 79.5t-30 72t-41 69.5q-23 34 -49 62.5t-57 48t-68.5 30.5t-83.5 11h-8q-46 0 -83.5 -11.5t-68.5 -32t-57 -48t-49 -60.5q-24 -34 -42 -68t-30 -71 t-18 -79t-6 -93z" />
<glyph unicode="p" horiz-adv-x="1386" d="M139 -684q12 222 23 434q4 90 8.5 187.5t8 192t5.5 183t2 160.5q0 144 1 277.5t3 236.5q2 121 5 227h213l2 -137q10 14 26 31t34 33.5t37.5 32t37.5 26.5q21 13 48 23t56.5 16.5t59 10t55.5 3.5q51 0 95 -15.5t82 -42.5t71.5 -64t64.5 -80q18 -26 37.5 -62.5t38.5 -78 t36 -84t30 -81t20.5 -70t7.5 -50.5q0 -30 -4.5 -71t-16.5 -90t-34 -105.5t-57 -116.5q-48 -81 -94 -136t-95.5 -88t-104.5 -47t-122 -14q-35 -1 -63.5 1t-54 7t-49.5 13.5t-48 21.5q-42 23 -62 49t-34 55l-2 -788h-267zM406 604l4 -207q3 -25 11 -42t21 -30.5t30.5 -24.5 t39.5 -24q45 -27 86.5 -42t93.5 -15q51 1 89.5 17t67.5 41.5t51.5 57.5t41.5 64q19 33 36 66t30 62.5t20.5 54.5t7.5 43q0 21 -10.5 57t-25 74.5t-30 72.5t-24.5 52q-26 48 -49 87.5t-47.5 68.5t-52.5 45t-64 16q-57 0 -108 -26t-99 -66q-21 -17 -42 -38t-38 -45.5t-28 -52 t-12 -55.5v-211z" />
<glyph unicode="q" horiz-adv-x="1425" d="M139 582q0 73 9 143.5t27.5 134t46 119t63.5 98.5q74 87 166 131.5t217 44.5q111 0 195.5 -40t158.5 -117q34 -35 62 -84.5t49 -110.5t34 -129.5t15 -140.5q1 -17 1 -35q0 -78 -11 -154q-14 -94 -42 -166l156 -159v-117h-207l-73 100q-32 -32 -65.5 -58.5t-75.5 -45.5 t-96 -29t-128 -10q-119 0 -206 39.5t-156 120.5q-36 40 -62 92.5t-43.5 112.5t-26 126t-8.5 134zM330 586q0 -36 3.5 -66.5t11.5 -58.5t20 -56t30 -59q12 -21 34 -43.5t55 -41t77 -30.5t101 -12q80 0 126.5 13t69.5 30l-264 283l129 135l248 -260q18 48 20 104q1 28 1 54 t-1 49q-1 38 -7.5 79t-17 80t-23 73.5t-25.5 60.5q-20 40 -44 72.5t-54 56t-68.5 36.5t-87.5 13q-88 0 -146 -41.5t-98 -110.5q-20 -34 -36.5 -76.5t-28.5 -89.5t-18.5 -96.5t-6.5 -97.5z" />
<glyph unicode="r" horiz-adv-x="1026" d="M139 1214h213l72 -120q9 15 16 26.5t15 22t19.5 21.5t29.5 24q57 40 115 52.5t120 12.5q1 0 26 -0.5t59 -4.5t70 -12.5t60 -23.5l-71 -182q-35 32 -74 50t-100 18q-39 0 -69 -11.5t-54.5 -31.5t-45 -47.5t-40.5 -59.5q-29 -48 -43.5 -94.5t-20.5 -91.5q-5 -41 -4 -82v-8 v-88q0 -23 1 -60t2 -82t2.5 -95.5t2.5 -99.5q3 -115 6 -247h-266q9 250 17 452q3 86 6.5 170.5t6 153.5t4 116.5t1.5 59.5q0 41 -12 87t-26 85q-17 46 -38 90z" />
<glyph unicode="s" horiz-adv-x="1290" d="M139 358h262q-2 -37 7 -59.5t26 -38.5q9 -8 22.5 -15.5t36 -13t56.5 -9t82 -3.5q39 0 67 2t50.5 7t41 14t39.5 24q18 12 31 24.5t21 27t12 32t4 41.5q-1 27 -12.5 48t-30.5 37.5t-42.5 28.5t-47.5 21q-8 3 -22 7.5t-31.5 9.5t-37 11t-38.5 12q-45 13 -96 28q-32 8 -63 19 t-60 23t-54.5 24t-44.5 24q-33 21 -56 43.5t-38 49.5t-22.5 58.5t-10.5 69.5q-1 13 -1 24q0 29 4 55q5 34 18.5 63.5t35.5 55.5t54 52q31 27 66 45.5t74.5 30.5t85 17t98.5 5q138 0 225 -25.5t143 -82.5q35 -35 59.5 -86t24.5 -111h-209q2 23 -5 43t-27 41q-25 28 -72.5 47 t-134.5 19q-60 0 -103.5 -13t-74.5 -34q-15 -12 -26.5 -22.5t-19 -23t-11 -29t-3.5 -40.5q0 -40 19 -64.5t57 -50.5q28 -20 58 -31t75 -22l129 -33q113 -26 190 -52.5t123 -61.5q25 -19 46 -43.5t35 -57t21 -73.5q5 -32 5 -70v-23q-2 -41 -10 -75t-23 -65.5t-37 -60.5 t-53 -59q-32 -29 -74 -54t-93 -43.5t-109.5 -29t-122.5 -10.5q-138 0 -230.5 36t-148.5 101q-26 31 -44.5 59.5t-31 59t-20 66t-13.5 79.5z" />
<glyph unicode="t" horiz-adv-x="1223" d="M113 1028v186h309l31 523h96l98 -127l-10 -396h313l84 -110v-76h-397l-4 -704q0 -16 1.5 -33.5t6 -33t12 -29t19.5 -21.5q18 -13 44.5 -16t57.5 -3q32 0 75.5 7t78.5 18q34 11 49 23t29 20l69 -225q-18 -11 -32.5 -17.5t-30 -11.5t-34 -9t-44.5 -9q-21 -5 -45 -10 t-53 -8.5t-64 -6t-80 -2.5q-84 0 -146.5 24.5t-94.5 59.5q-14 15 -25 33t-18 42q-8 22 -12 52q-3 24 -3 53v15l23 792h-303z" />
<glyph unicode="u" horiz-adv-x="1442" d="M150 424l20 790h209l8 -788q3 -50 13 -87t22 -54q16 -23 37 -36t46.5 -19.5t56.5 -8.5t67 -2q51 0 89.5 15.5t68 42t52.5 61t44 72.5q24 45 34 108t13 162l6 534h207q3 -226 7 -414q1 -80 3.5 -160t4.5 -148t5 -117.5t6 -69.5q6 -40 28 -92t45 -100q27 -55 61 -113h-254 l-86 217q-10 -18 -24 -41t-30 -46t-32 -43t-31 -32q-59 -48 -123 -73t-145 -25q-130 0 -221.5 48.5t-145.5 131.5q-29 45 -46 117q-15 64 -15 149v21z" />
<glyph unicode="v" d="M113 1214h213l348 -878l350 878h213l-428 -1214h-268z" />
<glyph unicode="w" horiz-adv-x="1905" d="M139 1214h215l277 -995l211 670h213l215 -670l274 995h213l-352 -1214h-268l-189 702l-190 -702h-269z" />
<glyph unicode="x" horiz-adv-x="1378" d="M147 0l402 633l-361 581h213l287 -440l287 440h215l-381 -581l422 -633h-268l-275 467l-272 -467h-269z" />
<glyph unicode="y" horiz-adv-x="1341" d="M113 -612l28 190q12 -9 36 -16q20 -6 54 -10.5t88 -4.5q28 0 53 6t36 17q18 18 25.5 36.5t12.5 35.5q6 16 18 52t28 83t35 102t37 110q43 128 95 281l-487 944h215l365 -686l237 686h213q-110 -329 -202 -602q-26 -78 -52 -155.5t-50.5 -150t-46.5 -137.5t-39.5 -117.5 t-30 -89.5t-17.5 -54q-36 -111 -62 -193.5t-46.5 -142.5t-38 -99.5t-37.5 -64.5q-25 -29 -48.5 -47.5t-53 -29t-69 -14t-94.5 -3.5q-63 0 -114 20t-88 54z" />
<glyph unicode="z" horiz-adv-x="1415" d="M139 0v231l742 807h-691l3 176h937v-182l-655 -794h717l84 -238h-1137z" />
<glyph unicode="{" horiz-adv-x="1264" d="M213 627q55 26 101 58q19 13 38.5 29t35 34t26.5 38t14 41v11v2v-2q12 131 36.5 245t59.5 230q22 77 66.5 183.5t107.5 242.5q20 38 50 70t67 55t80 36t90 13h2q-40 -104 -70 -194t-52.5 -166.5t-39 -140t-28.5 -112.5q-26 -112 -46.5 -224.5t-29.5 -237.5v-13 q-3 -21 -13.5 -40.5t-25.5 -37.5t-33.5 -34t-37.5 -29q-45 -32 -99 -57q59 -29 106 -62q20 -15 39 -32t34 -36t24.5 -40t9.5 -43v10q14 -144 39.5 -278.5t54.5 -251.5q25 -101 78 -245.5t127 -334.5q-48 0 -97.5 16t-94.5 43t-81.5 63t-56.5 77q-34 71 -55.5 120.5 t-32.5 75.5q-18 44 -42 101.5t-44 132.5q-29 102 -53 206.5t-35 219.5q-2 14 -3 27.5t-3 27.5v-10q0 22 -9.5 43t-24.5 40t-34 36t-39 32q-47 33 -106 62z" />
<glyph unicode="|" horiz-adv-x="854" d="M287 -43l26 1956h215l27 -1956h-268z" />
<glyph unicode="}" horiz-adv-x="1260" d="M213 -686q74 190 127.5 334.5t79.5 245.5q29 117 54.5 251.5t37.5 278.5v-10q0 22 9 43t24 40t34.5 36t39.5 32q48 33 108 62q-55 25 -99 57q-19 13 -37.5 29t-34 34t-25.5 37.5t-13 40.5v13q-11 125 -30.5 238t-47.5 224q-23 100 -66.5 252t-121.5 361h2q46 0 89 -13 t79.5 -36t66.5 -55t50 -70q63 -136 108 -242.5t68 -183.5q34 -116 58.5 -230t35.5 -245v2v-2q2 -3 2 -6v-5q3 -21 13.5 -41t26 -38t34.5 -34t39 -29q46 -32 102 -58q-60 -29 -108 -62q-20 -15 -39.5 -32t-34.5 -36t-24 -40t-9 -43v10q0 -14 -1 -27.5t-3 -27.5 q-11 -115 -35.5 -219.5t-52.5 -206.5q-20 -75 -44.5 -132.5t-41.5 -101.5q-11 -26 -33.5 -75.5t-54.5 -120.5q-20 -41 -56 -77t-81.5 -63t-96 -43t-98.5 -16z" />
<glyph unicode="~" horiz-adv-x="1229" d="M147 549l330 348l262 -244l195 244l139 -137l-334 -395l-262 249l-184 -211z" />
<glyph unicode="&#xa1;" horiz-adv-x="1227" d="M471 1416q0 42 16 79.5t43.5 65t64.5 43.5t79 16t79 -16t64.5 -43.5t43.5 -65t16 -79.5t-16 -78.5t-43.5 -64t-64.5 -43.5t-79 -16t-79 16t-64.5 43.5t-43.5 64t-16 78.5zM527 -336h294l-38 1334h-215z" />
<glyph unicode="&#xa2;" horiz-adv-x="1382" d="M150 584q0 161 39 280.5t117 209.5t187 134.5t230 44.5q35 0 70 -3l77 297l91 -23l-70 -291q94 -24 167 -80q87 -68 128 -204h-221q-9 23 -20 44t-25 37q-14 17 -31 26t-37 18l-205 -852q14 -1 30 -1.5t33 -0.5q31 0 61.5 1t56.5 3t46 6t31 9q23 11 34 25t14 43h262 q0 -41 -15 -80.5t-37.5 -74t-49.5 -62.5t-50 -46q-38 -29 -80.5 -46t-89 -26t-96.5 -12t-103 -3q-57 0 -109 9l-73 -303l-124 31l79 305q-51 21 -95.5 53t-79.5 75q-71 88 -106.5 207t-35.5 250zM382 650q0 -46 4 -85.5t11.5 -75.5t19 -69.5t27.5 -66.5q8 -17 15.5 -32 t17 -28t23 -24.5t32.5 -20.5l221 849h-29q-49 0 -94 -14.5t-84 -41.5t-70 -65.5t-52 -86.5q-14 -31 -22 -55.5t-12.5 -50t-6 -57t-1.5 -76.5z" />
<glyph unicode="&#xa3;" horiz-adv-x="1976" d="M205 920v200h293q1 74 1.5 135t1.5 106q1 52 1 93q0 67 23.5 127t64 111t95.5 92t118.5 69.5t133 44t138.5 15.5t138 -16t133 -45t119 -70.5t96 -92.5t64.5 -110.5t23.5 -124.5h-271q0 51 -28 94t-71.5 73.5t-97.5 47.5t-106 17q-53 0 -107 -17.5t-98 -48.5t-72 -73.5 t-28 -92.5q2 -41 6 -93q2 -45 5 -106t5 -135h474v-200h-474q-2 -44 -4.5 -95.5t-6 -103.5t-8.5 -101.5t-11 -89.5q-5 -38 -11.5 -68t-17.5 -61q28 26 67 42t77 25t69 12t43 3q52 0 100 -15t92.5 -37.5t86.5 -48.5t82 -48.5t78.5 -37.5t76.5 -15q30 0 57 8t52 22.5t47 32.5 t40 37q42 45 77 102q-8 -83 -16 -154q-3 -31 -7 -62t-8.5 -59t-9.5 -51t-9 -36q-8 -23 -25.5 -51t-44.5 -53.5t-65 -42.5t-88 -17q-40 0 -86.5 15.5t-97 38.5t-104 50.5t-108 50.5t-108.5 38.5t-106 15.5q-76 0 -124 -15.5t-84 -38.5t-69 -50.5t-79.5 -50.5t-115.5 -38.5 t-177 -15.5l2 8q5 13 17 45t28.5 76.5t35.5 98.5t38 111.5t36 114.5t29 107q13 55 23.5 111t19 108.5t14.5 99t9 83.5h-287z" />
<glyph unicode="&#xa5;" horiz-adv-x="1862" d="M138 1914h255l538 -701l538 701h255l-488 -701h396v-230h-556l7 -229h549v-229h-543l15 -525h-345l14 525h-543v229h550l6 229h-556v230h397z" />
<glyph unicode="&#xa7;" horiz-adv-x="1369" d="M205 180h265q-1 -38 7.5 -61t25.5 -39q9 -8 23 -15.5t37.5 -13t57.5 -8.5t83 -3q39 0 68 2t52 7t42.5 14t40.5 24q35 25 51.5 52t15.5 74q-1 28 -13 49.5t-30.5 38t-42.5 28.5t-49 21q-8 3 -22.5 7.5t-32 10t-37.5 11.5t-39 12q-46 13 -98 29q-32 9 -63.5 20t-61 23 t-54.5 24.5t-44 24.5q-69 42 -100.5 101t-29.5 124q3 91 46 151t107 77q12 3 32.5 6t44.5 6l-15 7.5t-13 8.5q-56 34 -79.5 77.5t-27.5 108.5q-2 36 2.5 64.5t15.5 53.5t29.5 47t45.5 45q53 45 117.5 64t153.5 19q117 0 189.5 -23t120.5 -70q29 -30 50 -72t21 -93h-175 q1 19 -5 35.5t-23 34.5q-20 24 -60.5 40t-114.5 16q-50 0 -86 -11t-62 -29q-13 -9 -22.5 -18t-15.5 -19.5t-9 -25t-3 -34.5q0 -33 15.5 -53t47.5 -43q23 -17 48.5 -26.5t63.5 -18.5l109 -27q46 -11 82.5 -22t65.5 -22.5t52 -24t43 -27.5q21 -15 43 -39.5t37 -56.5t19 -71 t-11 -84q-12 -36 -34 -63.5t-50.5 -47t-61.5 -31t-66 -14.5q66 -19 115 -39t83 -45q52 -38 81.5 -102.5t25.5 -167.5q-2 -41 -9.5 -76.5t-22.5 -67.5t-38 -61.5t-54 -59.5q-32 -30 -75 -55.5t-95 -43.5t-112 -28.5t-124 -10.5q-140 0 -234 36.5t-149 101.5 q-55 63 -82.5 132.5t-28.5 134.5zM439 767q0 -41 19 -70.5t62 -49.5q31 -14 69 -27t84 -24q37 -6 65.5 -6.5t51 4t41.5 13t36 20.5q30 20 44.5 41t13.5 61q-1 47 -25.5 81t-65.5 49q-14 4 -45.5 13.5t-63.5 19.5q-38 11 -81 24q-2 1 -5 1.5t-5 1.5q-43 5 -69 -2t-48 -15 q-36 -14 -57 -50t-21 -85z" />
<glyph unicode="&#xa8;" horiz-adv-x="1448" d="M297 1638q0 36 14 68t38 55.5t56 37t68 13.5q35 0 66.5 -13.5t55.5 -37t38 -55.5t14 -68t-14 -67.5t-38 -55.5t-55.5 -37.5t-66.5 -13.5q-36 0 -68 13.5t-56 37.5t-38 55.5t-14 67.5zM803 1638q0 36 13.5 68t37.5 55.5t55.5 37t67.5 13.5t67.5 -13.5t55.5 -37t37.5 -55.5 t13.5 -68t-13.5 -67.5t-37.5 -55.5t-55.5 -37.5t-67.5 -13.5t-67.5 13.5t-55.5 37.5t-37.5 55.5t-13.5 67.5z" />
<glyph unicode="&#xa9;" horiz-adv-x="1706" d="M201 606q0 89 23 172t65 154.5t101 130.5t131 101.5t154.5 65.5t172.5 23t172.5 -23t154.5 -65.5t131 -101.5t101 -130.5t65 -154.5t23 -172t-23 -172t-65 -155t-101 -131.5t-131 -102t-155 -65.5t-172 -23q-135 0 -252.5 51t-205.5 139t-138.5 206.5t-50.5 252.5z M311 606q0 -111 42 -209t115 -170.5t171 -114.5t209 -42t209 42t170.5 114.5t114.5 170.5t42 209t-42 208.5t-114.5 170.5t-170.5 115.5t-209 42.5t-209 -42.5t-171 -115.5t-115 -170.5t-42 -208.5zM516 594q0 96 23 167.5t71 125.5q47 54 112.5 80t137.5 26q121 0 201 -59 q51 -42 76 -123h-133q-10 26 -27 43q-22 20 -47.5 27.5t-69.5 7.5q-59 0 -109.5 -28t-76.5 -85q-9 -18 -14.5 -33t-9.5 -31.5t-5.5 -36t-1.5 -46.5q0 -28 5 -55t11.5 -51t14.5 -43t14 -29q4 -9 13 -25.5t27 -33t47.5 -28.5t76.5 -12q18 0 36.5 1.5t34 4.5t27 7t17.5 8 q27 18 30 55h158q-1 -33 -10 -59t-22.5 -46t-29 -34.5t-30.5 -24.5q-43 -31 -99.5 -39t-121.5 -8q-71 0 -131.5 26t-104.5 79q-42 52 -66 122.5t-24 149.5z" />
<glyph unicode="&#xaa;" horiz-adv-x="981" d="M192 1385q1 35 6.5 59t14.5 41.5t21 30.5t27 27q29 26 64.5 45.5t81.5 25.5q20 3 45 4t50.5 1.5t50 0.5h44.5q37 0 46 12.5t9 35.5v38q0 29 -9 53.5t-30 36.5q-22 14 -51.5 21.5t-68.5 7.5q-45 0 -69.5 -5.5t-38.5 -12.5q-34 -20 -40 -66h-116q0 32 15 66.5t55 58.5 q40 25 91 36t103 11q61 0 109.5 -13.5t86.5 -36.5q75 -47 75 -145l2 -389q-1 -6 1 -10t4.5 -7.5t10.5 -5.5h18l41 -49l1 -51q-14 -3 -24.5 -6t-24.5 -4q-11 -1 -19 -1t-21 1q-35 1 -53 15t-28 36q-3 6 -6.5 14t-6.5 15q-4 8 -6 16q-14 -18 -30 -34q-14 -14 -30 -28.5 t-33 -22.5q-35 -17 -74 -21t-77 -4q-99 0 -157 57q-29 29 -45.5 65.5t-14.5 80.5zM325 1403q-1 -14 3.5 -26.5t20.5 -24.5q9 -9 22.5 -13.5t28.5 -7t29.5 -3t26.5 -0.5q31 0 64 6.5t51 13.5q18 6 32 13.5t23.5 19t14.5 28t5 41.5l1 85h-77h-61t-44 -1q-29 -2 -57 -13.5 t-44 -25.5q-25 -24 -32 -43t-7 -49z" />
<glyph unicode="&#xab;" horiz-adv-x="2011" d="M369 635l424 579h215l-408 -579l408 -635h-269zM975 635l422 579h215l-406 -579l406 -635h-266z" />
<glyph unicode="&#xac;" horiz-adv-x="1707" d="M222 703v182h1138l20 -552h-222l14 370h-950z" />
<glyph unicode="&#xad;" horiz-adv-x="1544" d="M215 483v293h1135v-293h-1135z" />
<glyph unicode="&#xae;" horiz-adv-x="1706" d="M168 606q0 89 23 172t65.5 154.5t102 130.5t131.5 101.5t154.5 65.5t172.5 23q89 0 172 -23t154.5 -65.5t130.5 -101.5t101.5 -130.5t65.5 -154.5t23 -172t-23 -172t-65.5 -155t-101.5 -131.5t-130.5 -102t-154.5 -65.5t-172 -23q-134 0 -252.5 51t-206.5 139t-139 206.5 t-51 252.5zM279 606q0 -111 42.5 -209t115.5 -170.5t171 -114.5t209 -42t208.5 42t170.5 114.5t115.5 170.5t42.5 209t-42.5 208.5t-115.5 170.5t-170.5 115.5t-208.5 42.5t-209 -42.5t-171 -115.5t-115.5 -170.5t-42.5 -208.5zM545 258l18 752h324h6q49 0 90.5 -17.5 t71.5 -47.5t46.5 -70t16.5 -84q0 -37 -12 -70.5t-32.5 -61t-49 -47.5t-61.5 -30l196 -275v-49h-147l-138 264q-3 5 -9 13.5t-15.5 17t-23.5 14.5t-33 6h-111l6 -315h-143zM674 905l6 -223h219q23 0 43.5 8.5t36 24t24.5 36t9 44.5q0 23 -9 43t-24.5 35t-36 23.5t-43.5 8.5 h-225z" />
<glyph unicode="&#xb0;" horiz-adv-x="905" d="M205 1038q0 52 19.5 97t53 78.5t78.5 53t97 19.5q51 0 96 -19.5t78.5 -53t53 -78.5t19.5 -97q0 -51 -19.5 -96t-53 -78.5t-78.5 -53t-96 -19.5q-52 0 -97 19.5t-78.5 53t-53 78.5t-19.5 96zM334 1038q0 -24 9.5 -45.5t25.5 -37.5t37.5 -25.5t46.5 -9.5q24 0 45.5 9.5 t37.5 25.5t25.5 37.5t9.5 45.5q0 25 -9.5 46.5t-25.5 37.5t-37.5 25.5t-45.5 9.5q-25 0 -46.5 -9.5t-37.5 -25.5t-25.5 -37.5t-9.5 -46.5z" />
<glyph unicode="&#xb1;" horiz-adv-x="1250" d="M215 0v217h832v-217h-832zM215 729v215h307v309h216v-309h309v-215h-309v-307h-216v307h-307z" />
<glyph unicode="&#xb2;" horiz-adv-x="854" d="M188 1217q1 22 2 43.5t3.5 42.5t7 39.5t12.5 34.5q8 17 21.5 34t31 34t38 33t43.5 29l91 52q30 18 51.5 33.5t34.5 27.5q10 10 16 20t9.5 20.5t5 21.5t1.5 24q0 15 -0.5 26.5t-3.5 21t-8 18t-13 17.5q-18 17 -44 27.5t-56 10.5q-39 0 -60.5 -9.5t-35.5 -23.5 q-8 -8 -15.5 -23t-10.5 -33h-87q0 11 2 23q2 10 5 22.5t8 23.5q10 21 25 40t38 32.5t55 21.5t77 8q59 0 101.5 -17t69.5 -49q28 -31 41 -70t13 -78q0 -41 -13.5 -72.5t-43.5 -58.5q-15 -15 -28.5 -26.5t-26.5 -21.5t-27 -20t-28 -21q-24 -18 -45 -33q-8 -7 -17 -14t-17 -13 t-14 -11t-10 -8q-12 -10 -17.5 -20.5t-8.5 -19.5q-2 -10 -1 -20h293v-119h-465z" />
<glyph unicode="&#xb3;" horiz-adv-x="770" d="M148 1406h114q2 -2 4 -6q3 -4 6 -9t8 -12q8 -11 28.5 -17t63.5 -6q17 0 32.5 0.5t29 2t24.5 5.5t18 12q9 9 14.5 18.5t8 19.5t3.5 21.5t1 26.5q0 17 -2 28t-6 19t-11 14t-18 12q-11 7 -22 12t-23.5 7.5t-27.5 4t-34 1.5h-17q-4 0 -8.5 -0.5t-8.5 -0.5v76q6 -1 11.5 -1.5 t10.5 -0.5h19q24 0 43.5 3.5t34.5 11.5q14 7 24 14.5t16.5 17t10 22t3.5 29.5q0 25 -5.5 45t-22.5 33q-10 7 -21.5 12t-24.5 8.5t-26.5 4.5t-25.5 1q-21 0 -36.5 -4t-26 -10.5t-17.5 -13.5t-11 -14t-6 -14.5t-2 -13.5q-1 -8 0 -15h-98q0 13 1 26q2 11 4.5 23t7.5 20 q25 46 70.5 70t110.5 24q53 0 92 -11t68 -34q57 -46 57 -134q0 -16 -2 -28t-6.5 -23t-11 -20t-14.5 -19q-11 -12 -24 -21.5t-29 -16.5q53 -15 83 -56q15 -22 22 -44.5t7 -53.5q0 -24 -3 -49t-10 -48t-18 -44t-27 -37q-32 -30 -79.5 -44t-105.5 -14q-60 0 -103 17t-71 49 q-10 13 -18 25.5t-13.5 27t-9 32t-5.5 39.5z" />
<glyph unicode="&#xb4;" horiz-adv-x="1706" d="M573 1522l367 391l190 -191l-393 -366z" />
<glyph unicode="&#xb5;" horiz-adv-x="1457" d="M200 -687l25 1113l5 788h208l6 -784q2 -50 13 -88.5t24 -55.5q16 -22 37 -35t46.5 -19.5t56.5 -8.5t67 -2q52 0 90.5 15.5t68 42t53 61t44.5 72.5q23 43 33 107t12 163l7 532h208q5 -224 10 -411q2 -80 4 -159.5t4 -147t3.5 -117.5t2.5 -71q1 -20 2.5 -52t3.5 -70 t4.5 -80t5.5 -83q6 -96 13 -205h-246l11 401q-10 -17 -24 -40t-29.5 -46t-32 -43.5t-31.5 -32.5q-58 -48 -122.5 -73.5t-146.5 -25.5q-102 0 -183 32l14 -677h-267z" />
<glyph unicode="&#xb6;" horiz-adv-x="1459" d="M205 1337q0 73 28.5 137.5t76.5 112.5t111.5 75.5t133.5 27.5h699v-182h-26q-66 -1 -117.5 -39.5t-71.5 -100.5l-5 -19q-17 -78 -28 -169t-11 -194q0 -35 3.5 -96.5t8.5 -139t12 -165.5t14 -174q17 -202 39 -437q0 -41 -15.5 -77.5t-42.5 -63.5t-63.5 -42.5t-77.5 -15.5 h-126v1211q0 107 12.5 201t32.5 173l4 14q10 30 28 54.5t42.5 42t54 27.5t61.5 10h-198q-32 0 -61 -10t-53 -27.5t-43 -42t-29 -54.5l-4 -13q-19 -80 -30 -174t-11 -201q0 -50 1.5 -128t3.5 -172.5t5.5 -198.5t6.5 -205q8 -238 18 -507h-263q17 317 31 575q6 110 11.5 217.5 t10 195.5t7 148t2.5 75v21.5t1 21.5q-41 22 -75 54.5t-58 72t-37 85.5t-13 96z" />
<glyph unicode="&#xb7;" horiz-adv-x="799" d="M190 936q0 42 16.5 79t44 64.5t65 43.5t79.5 16t78.5 -16t64.5 -43.5t44 -64.5t16 -79t-16 -79t-44 -64.5t-64.5 -43.5t-78.5 -16t-79.5 16t-65 43.5t-44 64.5t-16.5 79z" />
<glyph unicode="&#xb8;" horiz-adv-x="1706" d="M604 -356h131q22 0 42 8.5t34 23.5t22.5 34.5t8.5 41.5t-8.5 42t-22.5 34t-34 22.5t-42 8.5h-90v141h90v-45q42 0 79 -16t64.5 -44t43.5 -64.5t16 -78.5t-16 -79.5t-43.5 -65t-64.5 -44t-79 -16.5h-131v97z" />
<glyph unicode="&#xb9;" horiz-adv-x="625" d="M213 1744v72q48 5 82 13t53 17l17.5 10.5t13.5 11.5t11.5 17.5t10.5 27.5h68l28 -699h-151l30 530h-163z" />
<glyph unicode="&#xba;" horiz-adv-x="1466" d="M389 931q0 74 23.5 132.5t60.5 102.5q72 85 198 87h6q122 -2 196 -87q37 -44 60.5 -102.5t23.5 -132.5q0 -69 -22.5 -123.5t-57.5 -96.5q-71 -81 -191 -81h-26q-121 0 -191 81q-35 42 -57.5 96.5t-22.5 123.5zM501 956q0 -47 8 -80t29 -65q20 -31 52.5 -43t77.5 -12h6 q45 0 77.5 12t52.5 43q21 32 31 64t10 80t-11.5 82.5t-34.5 67.5q-23 34 -51 53.5t-73 19.5h-4q-45 0 -73 -20.5t-51 -52.5t-34.5 -66t-11.5 -83z" />
<glyph unicode="&#xbb;" horiz-adv-x="2011" d="M399 0l406 635l-406 579h215l422 -579l-370 -635h-267zM1004 0l407 635l-405 579h215l421 -579l-370 -635h-268z" />
<glyph unicode="&#xbc;" horiz-adv-x="2048" d="M200 1312v91q60 6 104 16t69 23q12 6 22 12t17.5 14.5t14 22t12.5 35.5h88l36 -886h-192l37 672h-208zM575 0l535 1777h239l-534 -1777h-240zM1091 152v158l406 577h93l9 -588h121v-147h-112l17 -152h-184l18 152h-368zM1193 299h272l34 465z" />
<glyph unicode="&#xbd;" horiz-adv-x="2048" d="M200 1312v91q60 6 104 16t69 23q12 6 22 12t17.5 14.5t13.5 22t12 35.5h89l35 -886h-192l38 672h-208zM574 0l535 1777h239l-535 -1777h-239zM1193 0q3 57 7.5 106.5t25.5 92.5q10 21 27.5 43t40 44t49.5 42.5t57 37.5l119 69q81 47 111 79q26 26 34 52.5t8 59.5 q0 19 -1 34t-4 27.5t-9.5 23.5t-17.5 23q-23 23 -57.5 36t-72.5 13q-51 0 -79.5 -12t-45.5 -30q-11 -11 -21 -30.5t-13 -41.5h-113q3 20 7 38q3 15 6 29.5t6 22.5q11 28 30.5 51.5t49.5 40.5t73 26.5t102 9.5q151 0 222 -82q69 -84 69 -184q0 -53 -18 -98.5t-56 -82.5 t-71 -62t-72 -54q-32 -23 -58 -43q-23 -17 -45 -33.5t-31 -24.5q-16 -14 -23 -26.5t-10 -21.5q-4 -11 -3 -20h383v-155h-606z" />
<glyph unicode="&#xbe;" horiz-adv-x="2047" d="M200 873h150q1 -3 5 -8q3 -5 7 -11.5t11 -15.5q10 -14 36.5 -22t83.5 -8q44 0 81 3t55 22q25 26 30 51t5 62q0 23 -2 37.5t-7.5 25t-14.5 18t-23 16.5q-29 19 -60 26t-80 7h-23q-6 -1 -11.5 -1h-11.5v99q8 -2 15.5 -2t12.5 -1h26q65 0 102 20q35 17 53 41t18 68 q0 34 -7 60t-31 45q-23 17 -59 25.5t-67 8.5q-28 0 -48.5 -5.5t-34.5 -14t-23 -18.5t-14 -19q-5 -8 -7.5 -18t-3.5 -18q-1 -10 -1 -20h-128q0 18 2 35q2 14 5 29.5t9 26.5q33 60 93 92.5t147 32.5q136 0 209 -61q74 -60 74 -176q0 -42 -11 -67.5t-32 -50.5q-28 -32 -71 -50 q70 -19 109 -75q20 -28 29.5 -57.5t9.5 -69.5q0 -65 -17 -129t-59 -105q-42 -40 -104.5 -59t-139.5 -19q-78 0 -134.5 22.5t-92.5 65.5q-28 33 -42.5 68.5t-17.5 93.5zM758 0l536 1777h238l-534 -1777h-240zM1275 152v158l405 577h94l8 -588h122v-147h-111l16 -152h-184 l18 152h-368zM1378 299h271l34 465z" />
<glyph unicode="&#xbf;" horiz-adv-x="1378" d="M99 372q0 54 9.5 117t29.5 116q13 34 30 64.5t39.5 60.5t52 60t67.5 63q28 24 46.5 37.5t32 23t25 17t25.5 19.5q15 12 26 35t18.5 52.5t12.5 63.5t8 67q6 78 5 170h263q1 -93 -3 -172q-2 -34 -5 -68t-8 -63t-12 -51.5t-16 -33.5q-21 -25 -38 -44t-36.5 -38t-43.5 -40.5 t-57 -49.5q-30 -21 -57 -46q-24 -21 -49.5 -48t-45.5 -56q-14 -20 -21.5 -43t-11 -46.5t-4 -45t-0.5 -39.5q0 -50 13.5 -90.5t47.5 -76.5q35 -37 84.5 -51.5t127.5 -14.5q48 0 85 4t66 14.5t51 27.5t40 44q11 17 16.5 40.5t8 46t3 38.5t0.5 18h242q1 -24 -5.5 -70 t-21.5 -98.5t-39.5 -104t-59.5 -84.5q-70 -66 -170 -103t-223 -37q-57 0 -114 7t-110 21.5t-99 35.5t-80 50q-69 57 -107 134.5t-38 166.5zM516 1733q0 30 11 55.5t30.5 45t45 30.5t55.5 11q29 0 55 -11t45 -30.5t30 -45t11 -55.5t-11 -55.5t-30 -45t-45 -30.5t-55 -11 q-30 0 -55.5 11t-45 30.5t-30.5 45t-11 55.5z" />
<glyph unicode="&#xc0;" horiz-adv-x="2066" d="M168 0l727 1913h276l725 -1913h-364l-156 565h-686l-155 -565h-367zM644 2289l191 187l358 -381l-164 -164zM750 805h565l-283 887z" />
<glyph unicode="&#xc1;" horiz-adv-x="2066" d="M168 0l727 1913h276l725 -1913h-364l-156 565h-686l-155 -565h-367zM750 805h565l-283 887zM860 2097l367 391l190 -191l-393 -366z" />
<glyph unicode="&#xc2;" horiz-adv-x="2066" d="M168 0l727 1913h276l725 -1913h-364l-156 565h-686l-155 -565h-367zM705 2064l329 348l328 -348l-133 -133l-195 198l-196 -198zM750 805h565l-283 887z" />
<glyph unicode="&#xc3;" horiz-adv-x="2066" d="M168 0l727 1913h276l725 -1913h-364l-156 565h-686l-155 -565h-367zM617 2116l330 348l262 -244l195 244l139 -137l-334 -396l-262 250l-184 -211zM750 805h565l-283 887z" />
<glyph unicode="&#xc4;" horiz-adv-x="2066" d="M168 0l727 1913h276l725 -1913h-364l-156 565h-686l-155 -565h-367zM604 2105q0 36 14 68t38 55.5t56 37t68 13.5q35 0 66.5 -13.5t55.5 -37t38 -55.5t14 -68t-14 -67.5t-38 -55.5t-55.5 -37.5t-66.5 -13.5q-36 0 -68 13.5t-56 37.5t-38 55.5t-14 67.5zM750 805h565 l-283 887zM1110 2105q0 36 13.5 68t37.5 55.5t55.5 37t67.5 13.5t67.5 -13.5t55.5 -37t37.5 -55.5t13.5 -68t-13.5 -67.5t-37.5 -55.5t-55.5 -37.5t-67.5 -13.5t-67.5 13.5t-55.5 37.5t-37.5 55.5t-13.5 67.5z" />
<glyph unicode="&#xc5;" horiz-adv-x="2066" d="M168 0l727 1913h276l725 -1913h-364l-156 565h-686l-155 -565h-367zM750 805h565l-283 887zM781 2183q0 52 20 98t54 80t80 54t98 20t98.5 -20t81 -54t54.5 -80t20 -98t-20 -98t-54.5 -80t-81 -54t-98.5 -20t-98 20t-80 54t-54 80t-20 98zM872 2183q0 -34 13 -63.5 t34.5 -51.5t51 -34.5t62.5 -12.5q34 0 63.5 12.5t51.5 34.5t34.5 51.5t12.5 63.5t-12.5 63.5t-34.5 51.5t-51.5 34.5t-63.5 12.5q-33 0 -62.5 -12.5t-51 -34.5t-34.5 -51.5t-13 -63.5z" />
<glyph unicode="&#xc6;" horiz-adv-x="2726" d="M111 0l1140 1913h1282v-221h-893l17 -555h700v-267h-694l16 -573h852v-297h-1188l17 567h-555l-328 -567h-366zM899 807h467l25 881v4z" />
<glyph unicode="&#xc7;" horiz-adv-x="2130" d="M225 922q0 241 58.5 422.5t177.5 316.5q58 67 129.5 118t152.5 84.5t168.5 50.5t178.5 17q310 0 505 -151q66 -53 116 -128.5t73 -181.5h-314q-5 39 -24 71.5t-41 53.5q-28 30 -60 50.5t-70.5 33t-83.5 18t-99 5.5q-75 0 -145.5 -23t-132 -65t-111 -101t-80.5 -131 q-21 -47 -36 -85t-24.5 -78.5t-14 -89.5t-5.5 -117q0 -71 12 -140t29 -129t37 -108t36 -76q8 -14 20 -38t31.5 -51t48.5 -55t72.5 -50.5t102 -37t137.5 -14.5q48 0 94 4.5t85.5 11.5t69 16.5t44.5 19.5q32 21 51.5 57t24.5 80h395q-1 -83 -23 -148.5t-55.5 -115.5t-73 -86.5 t-75.5 -61.5q-51 -35 -110 -57t-123.5 -34.5t-134 -17.5t-142.5 -6v-73q58 0 109.5 -22.5t89.5 -60.5t60.5 -90t22.5 -110q0 -59 -22.5 -110.5t-60.5 -89.5t-89.5 -60.5t-109.5 -22.5h-183v134h183q31 0 58 11.5t47 32t32 47.5t12 58t-12 58t-32 47.5t-47 32.5t-58 12h-125 v208q-158 13 -289.5 76.5t-228.5 182.5q-109 133 -168.5 309.5t-59.5 376.5z" />
<glyph unicode="&#xc8;" horiz-adv-x="1630" d="M205 0l53 1913l1137 2v-2v-230h-891l14 -546h703l-2 -267h-693l15 -573h854v-297h-1190zM461 2289l191 187l358 -381l-164 -164z" />
<glyph unicode="&#xc9;" horiz-adv-x="1630" d="M205 0l53 1913l1137 2v-2v-230h-891l14 -546h703l-2 -267h-693l15 -573h854v-297h-1190zM633 2097l367 391l190 -191l-393 -366z" />
<glyph unicode="&#xca;" horiz-adv-x="1630" d="M205 0l53 1913l1137 2v-2v-230h-891l14 -546h703l-2 -267h-693l15 -573h854v-297h-1190zM486 2064l329 348l328 -348l-133 -133l-195 198l-196 -198z" />
<glyph unicode="&#xcb;" horiz-adv-x="1630" d="M205 0l53 1913l1137 2v-2v-230h-891l14 -546h703l-2 -267h-693l15 -573h854v-297h-1190zM396 2105q0 36 14 68t38 55.5t56 37t68 13.5q35 0 66.5 -13.5t55.5 -37t38 -55.5t14 -68t-14 -67.5t-38 -55.5t-55.5 -37.5t-66.5 -13.5q-36 0 -68 13.5t-56 37.5t-38 55.5 t-14 67.5zM902 2105q0 36 13.5 68t37.5 55.5t55.5 37t67.5 13.5t67.5 -13.5t55.5 -37t37.5 -55.5t13.5 -68t-13.5 -67.5t-37.5 -55.5t-55.5 -37.5t-67.5 -13.5t-67.5 13.5t-55.5 37.5t-37.5 55.5t-13.5 67.5z" />
<glyph unicode="&#xcc;" horiz-adv-x="795" d="M22 2289l191 187l358 -381l-164 -164zM225 0l54 1913h237l53 -1913h-344z" />
<glyph unicode="&#xcd;" horiz-adv-x="795" d="M221 2097l367 391l190 -191l-393 -366zM225 0l54 1913h237l53 -1913h-344z" />
<glyph unicode="&#xce;" horiz-adv-x="795" d="M70 2064l329 348l328 -348l-133 -133l-195 198l-196 -198zM225 0l54 1913h237l53 -1913h-344z" />
<glyph unicode="&#xcf;" horiz-adv-x="795" d="M-37 2105q0 36 14 68t38 55.5t56 37t68 13.5q35 0 66.5 -13.5t55.5 -37t38 -55.5t14 -68t-14 -67.5t-38 -55.5t-55.5 -37.5t-66.5 -13.5q-36 0 -68 13.5t-56 37.5t-38 55.5t-14 67.5zM225 0l54 1913h237l53 -1913h-344zM469 2105q0 36 13.5 68t37.5 55.5t55.5 37 t67.5 13.5t67.5 -13.5t55.5 -37t37.5 -55.5t13.5 -68t-13.5 -67.5t-37.5 -55.5t-55.5 -37.5t-67.5 -13.5t-67.5 13.5t-55.5 37.5t-37.5 55.5t-13.5 67.5z" />
<glyph unicode="&#xd0;" horiz-adv-x="2096" d="M90 948v149h275l23 816h642q122 0 235.5 -34t211.5 -96t179 -149.5t139 -193.5t89.5 -228t31.5 -254t-24 -254.5t-70.5 -229t-114 -193.5t-154.5 -149.5t-192.5 -97t-227.5 -34.5h-798l26 948h-271zM632 1685l17 -588h476v-149h-472l18 -651h366q131 0 240 52t187 142.5 t121.5 213t43.5 263.5q0 94 -22.5 183.5t-63.5 169.5t-98 146.5t-127.5 115t-151.5 75.5t-169 27h-365z" />
<glyph unicode="&#xd1;" horiz-adv-x="2013" d="M205 0l57 1913h268l949 -1426l32 1207l162 219h82l53 -1913h-399l-872 1446l32 -1446h-364zM609 2116l330 348l262 -244l195 244l139 -137l-334 -396l-262 250l-184 -211z" />
<glyph unicode="&#xd2;" horiz-adv-x="2128" d="M205 924q0 54 4.5 111.5t13.5 114.5t22 111t31 101q32 87 79.5 164.5t107.5 148.5q109 130 260 195q74 32 158 45.5t180 15.5h6q96 -2 180 -15.5t158 -45.5q75 -32 139.5 -81t120.5 -114q60 -71 107 -148.5t79 -164.5q18 -47 31.5 -101t22.5 -111t13.5 -114.5t4.5 -111.5 q0 -51 -4.5 -105.5t-13.5 -108.5t-22 -105t-30 -95q-31 -81 -75 -153t-101 -138q-52 -62 -114.5 -108.5t-135.5 -75.5q-71 -31 -152.5 -45.5t-172.5 -14.5h-76q-91 0 -172.5 14.5t-153.5 45.5q-72 29 -134.5 75.5t-114.5 108.5q-57 66 -101.5 138t-75.5 153q-18 44 -31 95 t-21.5 105t-12.5 108.5t-4 105.5zM504 1012q0 -155 28.5 -279.5t90.5 -220.5q32 -53 75.5 -93t102.5 -65q51 -20 111.5 -29.5t138.5 -9.5h26q149 0 250 39q59 25 102.5 65t75.5 93q62 96 90.5 220.5t28.5 279.5q0 149 -39.5 272.5t-107.5 216.5q-41 55 -90.5 93t-103 62 t-107.5 35t-105 11h-14q-51 0 -105.5 -11t-107.5 -35t-102.5 -62t-90.5 -93q-68 -93 -107.5 -216.5t-39.5 -272.5zM668 2289l191 187l358 -381l-164 -164z" />
<glyph unicode="&#xd3;" horiz-adv-x="2128" d="M205 924q0 54 4.5 111.5t13.5 114.5t22 111t31 101q32 87 79.5 164.5t107.5 148.5q109 130 260 195q74 32 158 45.5t180 15.5h6q96 -2 180 -15.5t158 -45.5q75 -32 139.5 -81t120.5 -114q60 -71 107 -148.5t79 -164.5q18 -47 31.5 -101t22.5 -111t13.5 -114.5t4.5 -111.5 q0 -51 -4.5 -105.5t-13.5 -108.5t-22 -105t-30 -95q-31 -81 -75 -153t-101 -138q-52 -62 -114.5 -108.5t-135.5 -75.5q-71 -31 -152.5 -45.5t-172.5 -14.5h-76q-91 0 -172.5 14.5t-153.5 45.5q-72 29 -134.5 75.5t-114.5 108.5q-57 66 -101.5 138t-75.5 153q-18 44 -31 95 t-21.5 105t-12.5 108.5t-4 105.5zM504 1012q0 -155 28.5 -279.5t90.5 -220.5q32 -53 75.5 -93t102.5 -65q51 -20 111.5 -29.5t138.5 -9.5h26q149 0 250 39q59 25 102.5 65t75.5 93q62 96 90.5 220.5t28.5 279.5q0 149 -39.5 272.5t-107.5 216.5q-41 55 -90.5 93t-103 62 t-107.5 35t-105 11h-14q-51 0 -105.5 -11t-107.5 -35t-102.5 -62t-90.5 -93q-68 -93 -107.5 -216.5t-39.5 -272.5zM890 2097l367 391l190 -191l-393 -366z" />
<glyph unicode="&#xd4;" horiz-adv-x="2128" d="M205 924q0 54 4.5 111.5t13.5 114.5t22 111t31 101q32 87 79.5 164.5t107.5 148.5q109 130 260 195q74 32 158 45.5t180 15.5h6q96 -2 180 -15.5t158 -45.5q75 -32 139.5 -81t120.5 -114q60 -71 107 -148.5t79 -164.5q18 -47 31.5 -101t22.5 -111t13.5 -114.5t4.5 -111.5 q0 -51 -4.5 -105.5t-13.5 -108.5t-22 -105t-30 -95q-31 -81 -75 -153t-101 -138q-52 -62 -114.5 -108.5t-135.5 -75.5q-71 -31 -152.5 -45.5t-172.5 -14.5h-76q-91 0 -172.5 14.5t-153.5 45.5q-72 29 -134.5 75.5t-114.5 108.5q-57 66 -101.5 138t-75.5 153q-18 44 -31 95 t-21.5 105t-12.5 108.5t-4 105.5zM504 1012q0 -155 28.5 -279.5t90.5 -220.5q32 -53 75.5 -93t102.5 -65q51 -20 111.5 -29.5t138.5 -9.5h26q149 0 250 39q59 25 102.5 65t75.5 93q62 96 90.5 220.5t28.5 279.5q0 149 -39.5 272.5t-107.5 216.5q-41 55 -90.5 93t-103 62 t-107.5 35t-105 11h-14q-51 0 -105.5 -11t-107.5 -35t-102.5 -62t-90.5 -93q-68 -93 -107.5 -216.5t-39.5 -272.5zM736 2064l329 348l328 -348l-133 -133l-195 198l-196 -198z" />
<glyph unicode="&#xd5;" horiz-adv-x="2128" d="M205 924q0 54 4.5 111.5t13.5 114.5t22 111t31 101q32 87 79.5 164.5t107.5 148.5q109 130 260 195q74 32 158 45.5t180 15.5h6q96 -2 180 -15.5t158 -45.5q75 -32 139.5 -81t120.5 -114q60 -71 107 -148.5t79 -164.5q18 -47 31.5 -101t22.5 -111t13.5 -114.5t4.5 -111.5 q0 -51 -4.5 -105.5t-13.5 -108.5t-22 -105t-30 -95q-31 -81 -75 -153t-101 -138q-52 -62 -114.5 -108.5t-135.5 -75.5q-71 -31 -152.5 -45.5t-172.5 -14.5h-76q-91 0 -172.5 14.5t-153.5 45.5q-72 29 -134.5 75.5t-114.5 108.5q-57 66 -101.5 138t-75.5 153q-18 44 -31 95 t-21.5 105t-12.5 108.5t-4 105.5zM504 1012q0 -155 28.5 -279.5t90.5 -220.5q32 -53 75.5 -93t102.5 -65q51 -20 111.5 -29.5t138.5 -9.5h26q149 0 250 39q59 25 102.5 65t75.5 93q62 96 90.5 220.5t28.5 279.5q0 149 -39.5 272.5t-107.5 216.5q-41 55 -90.5 93t-103 62 t-107.5 35t-105 11h-14q-51 0 -105.5 -11t-107.5 -35t-102.5 -62t-90.5 -93q-68 -93 -107.5 -216.5t-39.5 -272.5zM653 2116l330 348l262 -244l195 244l139 -137l-334 -396l-262 250l-184 -211z" />
<glyph unicode="&#xd6;" horiz-adv-x="2128" d="M205 924q0 54 4.5 111.5t13.5 114.5t22 111t31 101q32 87 79.5 164.5t107.5 148.5q109 130 260 195q74 32 158 45.5t180 15.5h6q96 -2 180 -15.5t158 -45.5q75 -32 139.5 -81t120.5 -114q60 -71 107 -148.5t79 -164.5q18 -47 31.5 -101t22.5 -111t13.5 -114.5t4.5 -111.5 q0 -51 -4.5 -105.5t-13.5 -108.5t-22 -105t-30 -95q-31 -81 -75 -153t-101 -138q-52 -62 -114.5 -108.5t-135.5 -75.5q-71 -31 -152.5 -45.5t-172.5 -14.5h-76q-91 0 -172.5 14.5t-153.5 45.5q-72 29 -134.5 75.5t-114.5 108.5q-57 66 -101.5 138t-75.5 153q-18 44 -31 95 t-21.5 105t-12.5 108.5t-4 105.5zM504 1012q0 -155 28.5 -279.5t90.5 -220.5q32 -53 75.5 -93t102.5 -65q51 -20 111.5 -29.5t138.5 -9.5h26q149 0 250 39q59 25 102.5 65t75.5 93q62 96 90.5 220.5t28.5 279.5q0 149 -39.5 272.5t-107.5 216.5q-41 55 -90.5 93t-103 62 t-107.5 35t-105 11h-14q-51 0 -105.5 -11t-107.5 -35t-102.5 -62t-90.5 -93q-68 -93 -107.5 -216.5t-39.5 -272.5zM639 2105q0 36 14 68t38 55.5t56 37t68 13.5q35 0 66.5 -13.5t55.5 -37t38 -55.5t14 -68t-14 -67.5t-38 -55.5t-55.5 -37.5t-66.5 -13.5q-36 0 -68 13.5 t-56 37.5t-38 55.5t-14 67.5zM1145 2105q0 36 13.5 68t37.5 55.5t55.5 37t67.5 13.5t67.5 -13.5t55.5 -37t37.5 -55.5t13.5 -68t-13.5 -67.5t-37.5 -55.5t-55.5 -37.5t-67.5 -13.5t-67.5 13.5t-55.5 37.5t-37.5 55.5t-13.5 67.5z" />
<glyph unicode="&#xd7;" horiz-adv-x="1419" d="M205 207l299 299l-299 297l207 207l299 -297l297 297l206 -207l-296 -297l296 -299l-206 -207l-297 299l-299 -299z" />
<glyph unicode="&#xd8;" horiz-adv-x="2058" d="M188 903q0 109 18.5 207t51.5 184.5t78.5 162t99.5 140.5q218 256 584 261h18q93 -2 175.5 -19t154.5 -51l74 125h303l-156 -283l15.5 -15.5t13.5 -17.5q55 -65 101 -140.5t79 -162t51.5 -184.5t18.5 -207q0 -101 -17.5 -192.5t-49 -172.5t-75.5 -151.5t-96 -130.5 q-105 -122 -245 -189t-320 -67h-76q-74 0 -140 17.5t-128 37.5l-53 -98h-359l152 262q-9 8 -18 17t-17 20q-52 60 -96 130.5t-75.5 151.5t-49 172.5t-17.5 192.5zM518 977q0 -69 6 -127t19 -109.5t34 -98.5t52 -93q3 -5 6 -9.5t6 -9.5l602 1041q-43 23 -94.5 35t-116.5 12 h-10q-66 0 -119.5 -14t-98 -39.5t-81.5 -62.5t-70 -83q-34 -48 -59 -96.5t-42 -101t-25.5 -112.5t-8.5 -132zM907 393q22 -14 49.5 -17t55.5 -3h18q131 0 228 41.5t157 134.5q30 46 52.5 91.5t38 96t23 108t7.5 126.5q0 61 -6 114t-18 99.5t-30 89t-42 84.5z" />
<glyph unicode="&#xd9;" horiz-adv-x="2007" d="M205 610l37 1303h239l35 -1254v-47t4 -60.5t14 -63t29 -54.5q38 -45 81.5 -69.5t86 -36t80 -13.5t63.5 -2q42 0 81.5 10t75.5 26.5t68.5 38t61.5 44.5q27 22 53.5 51t50 63t42.5 71.5t32 78.5q14 45 24 80t17 74t10 87t3 118l24 858h238q9 -363 18 -661q2 -85 5 -169.5 t5.5 -164t5 -150.5t5 -128t4.5 -97t4 -58q3 -27 8.5 -61.5t13 -73.5t16 -80t17.5 -80q20 -92 45 -190h-274l-84 117l-2 301l-11 -22q-6 -12 -17 -32.5t-28 -52.5q-65 -130 -174 -209q-50 -36 -97 -60.5t-95.5 -39t-100.5 -21t-110 -6.5q-199 0 -338.5 69.5t-204.5 191.5 q-37 69 -49 163t-12 211zM699 2289l191 187l358 -381l-164 -164z" />
<glyph unicode="&#xda;" horiz-adv-x="2007" d="M205 610l37 1303h239l35 -1254v-47t4 -60.5t14 -63t29 -54.5q38 -45 81.5 -69.5t86 -36t80 -13.5t63.5 -2q42 0 81.5 10t75.5 26.5t68.5 38t61.5 44.5q27 22 53.5 51t50 63t42.5 71.5t32 78.5q14 45 24 80t17 74t10 87t3 118l24 858h238q9 -363 18 -661q2 -85 5 -169.5 t5.5 -164t5 -150.5t5 -128t4.5 -97t4 -58q3 -27 8.5 -61.5t13 -73.5t16 -80t17.5 -80q20 -92 45 -190h-274l-84 117l-2 301l-11 -22q-6 -12 -17 -32.5t-28 -52.5q-65 -130 -174 -209q-50 -36 -97 -60.5t-95.5 -39t-100.5 -21t-110 -6.5q-199 0 -338.5 69.5t-204.5 191.5 q-37 69 -49 163t-12 211zM720 2097l367 391l190 -191l-393 -366z" />
<glyph unicode="&#xdb;" horiz-adv-x="2007" d="M205 610l37 1303h239l35 -1254v-47t4 -60.5t14 -63t29 -54.5q38 -45 81.5 -69.5t86 -36t80 -13.5t63.5 -2q42 0 81.5 10t75.5 26.5t68.5 38t61.5 44.5q27 22 53.5 51t50 63t42.5 71.5t32 78.5q14 45 24 80t17 74t10 87t3 118l24 858h238q9 -363 18 -661q2 -85 5 -169.5 t5.5 -164t5 -150.5t5 -128t4.5 -97t4 -58q3 -27 8.5 -61.5t13 -73.5t16 -80t17.5 -80q20 -92 45 -190h-274l-84 117l-2 301l-11 -22q-6 -12 -17 -32.5t-28 -52.5q-65 -130 -174 -209q-50 -36 -97 -60.5t-95.5 -39t-100.5 -21t-110 -6.5q-199 0 -338.5 69.5t-204.5 191.5 q-37 69 -49 163t-12 211zM667 2064l329 348l328 -348l-133 -133l-195 198l-196 -198z" />
<glyph unicode="&#xdc;" horiz-adv-x="2007" d="M205 610l37 1303h239l35 -1254v-47t4 -60.5t14 -63t29 -54.5q38 -45 81.5 -69.5t86 -36t80 -13.5t63.5 -2q42 0 81.5 10t75.5 26.5t68.5 38t61.5 44.5q27 22 53.5 51t50 63t42.5 71.5t32 78.5q14 45 24 80t17 74t10 87t3 118l24 858h238q9 -363 18 -661q2 -85 5 -169.5 t5.5 -164t5 -150.5t5 -128t4.5 -97t4 -58q3 -27 8.5 -61.5t13 -73.5t16 -80t17.5 -80q20 -92 45 -190h-274l-84 117l-2 301l-11 -22q-6 -12 -17 -32.5t-28 -52.5q-65 -130 -174 -209q-50 -36 -97 -60.5t-95.5 -39t-100.5 -21t-110 -6.5q-199 0 -338.5 69.5t-204.5 191.5 q-37 69 -49 163t-12 211zM475 2105q0 36 14 68t38 55.5t56 37t68 13.5q35 0 66.5 -13.5t55.5 -37t38 -55.5t14 -68t-14 -67.5t-38 -55.5t-55.5 -37.5t-66.5 -13.5q-36 0 -68 13.5t-56 37.5t-38 55.5t-14 67.5zM981 2105q0 36 13.5 68t37.5 55.5t55.5 37t67.5 13.5 t67.5 -13.5t55.5 -37t37.5 -55.5t13.5 -68t-13.5 -67.5t-37.5 -55.5t-55.5 -37.5t-67.5 -13.5t-67.5 13.5t-55.5 37.5t-37.5 55.5t-13.5 67.5z" />
<glyph unicode="&#xdd;" horiz-adv-x="1837" d="M168 1913h256l539 -918l432 918h274l-577 -1096q-13 -174 -24 -312q-5 -59 -9 -116t-7.5 -103t-5.5 -75.5t-2 -32.5q-2 -3 -9.5 -12t-18.5 -21.5t-24.5 -28.5t-27.5 -32q-33 -38 -73 -84h-209l121 817zM770 2097l367 391l190 -191l-393 -366z" />
<glyph unicode="&#xde;" horiz-adv-x="1529" d="M239 0q12 121 23 255q9 115 16.5 257t7.5 287q1 138 2 248q0 47 0.5 92t1 80.5t0.5 58.5v25q0 161 -8 275.5t-18 189.5q-11 87 -25 145h226l5 -34.5t11.5 -100.5t14 -161.5t13.5 -218.5q11 14 26.5 31t33.5 33.5t37.5 32t37.5 26.5q22 13 49.5 23t56.5 17t58.5 10.5 t55.5 3.5q51 0 95.5 -15t83 -42t71.5 -64.5t63 -82.5q25 -38 46.5 -91.5t37 -116t23 -130.5t5.5 -133.5t-15 -126t-40 -108.5q-46 -83 -91.5 -137t-95 -86.5t-106 -46t-123.5 -14.5q-34 0 -62.5 1.5t-54 6t-49.5 12.5t-48 22q-41 23 -62 49t-35 55l-1 -527h-267zM506 987 l4 -168q2 -25 10.5 -44t22 -34t30.5 -27t36 -24q38 -24 84.5 -36t99.5 -11q51 1 91 16t70 39.5t51.5 56.5t36.5 67q23 56 32.5 106t8.5 96.5t-11 90t-26 86.5q-37 102 -88.5 160t-123.5 58q-57 0 -108.5 -27t-99.5 -67q-20 -17 -41 -38t-38 -45.5t-28.5 -51.5t-12.5 -56 v-147z" />
<glyph unicode="&#xdf;" horiz-adv-x="1898" d="M215 0l35 1489q0 83 41.5 159.5t120.5 139.5q75 60 170 92.5t192 32.5h250q99 0 193 -32.5t172 -92.5q78 -63 119.5 -139.5t41.5 -159.5q0 -75 -11 -132t-37.5 -101t-71 -78.5t-111.5 -63.5l-76 -37l76 -22q82 -26 150.5 -75.5t118 -116t76.5 -146.5t26 -166 q0 -73 -20.5 -142.5t-57.5 -130.5t-88 -112t-112 -88t-130.5 -57.5t-142.5 -20.5h-209l-6 242h188q72 0 136 27.5t111.5 75t75 111.5t27.5 136q0 73 -27.5 136.5t-75 111t-111.5 75t-136 27.5h-203l-4 221h119q62 0 117.5 23t97 62t66 91t24.5 111q0 57 -23.5 110t-66.5 97 q-45 43 -101 65.5t-116 22.5h-248q-60 0 -113 -22.5t-92 -65.5q-35 -42 -54 -94t-19 -109l30 -1454h-311z" />
<glyph unicode="&#xe0;" horiz-adv-x="1481" d="M162 317q3 62 12.5 105t25.5 74t37.5 54.5t47.5 47.5q54 46 116 80t144 45q35 5 79 7.5t89.5 3t89 0t78.5 -0.5q34 0 53 5.5t28.5 16.5t12 27t2.5 37l2 68q0 52 -17 93.5t-53 66.5q-74 51 -211 51q-80 0 -124.5 -9.5t-67.5 -23.5q-30 -19 -48.5 -47t-23.5 -70h-205 q0 28 6.5 58.5t20.5 59.5t37.5 55.5t58.5 47.5q71 45 161 64.5t183 19.5q109 0 195.5 -23.5t152.5 -64.5q134 -83 134 -256l2 -690q-1 -9 2 -17q2 -7 8.5 -13.5t19.5 -10.5q5 -1 10 -1h10t11 1l72 -86l2 -92q-25 -6 -43.5 -11t-42.5 -7q-19 -2 -34.5 -2t-37.5 2 q-63 3 -95 28.5t-48 63.5q-6 11 -11.5 24.5t-10.5 25.5q-5 14 -11 28q-26 -31 -54 -60q-24 -25 -53.5 -50.5t-58.5 -39.5q-60 -31 -129.5 -38t-138.5 -7q-174 0 -277 102q-54 51 -82.5 115.5t-25.5 142.5zM312 1727l191 187l358 -381l-164 -164zM399 350q-2 -25 5.5 -47 t35.5 -45q17 -15 40.5 -23t50 -12t52.5 -5t48 -1q28 0 57.5 3t56.5 8t50.5 11t38.5 11q33 12 57.5 25.5t41.5 33.5t25.5 50t10.5 75l2 160h-137h-55h-53t-45.5 -0.5t-33.5 -1.5q-52 -3 -101 -23.5t-77 -46.5q-22 -21 -36 -40.5t-21.5 -40t-10 -42.5t-2.5 -49z" />
<glyph unicode="&#xe1;" horiz-adv-x="1481" d="M162 317q3 62 12.5 105t25.5 74t37.5 54.5t47.5 47.5q54 46 116 80t144 45q35 5 79 7.5t89.5 3t89 0t78.5 -0.5q34 0 53 5.5t28.5 16.5t12 27t2.5 37l2 68q0 52 -17 93.5t-53 66.5q-74 51 -211 51q-80 0 -124.5 -9.5t-67.5 -23.5q-30 -19 -48.5 -47t-23.5 -70h-205 q0 28 6.5 58.5t20.5 59.5t37.5 55.5t58.5 47.5q71 45 161 64.5t183 19.5q109 0 195.5 -23.5t152.5 -64.5q134 -83 134 -256l2 -690q-1 -9 2 -17q2 -7 8.5 -13.5t19.5 -10.5q5 -1 10 -1h10t11 1l72 -86l2 -92q-25 -6 -43.5 -11t-42.5 -7q-19 -2 -34.5 -2t-37.5 2 q-63 3 -95 28.5t-48 63.5q-6 11 -11.5 24.5t-10.5 25.5q-5 14 -11 28q-26 -31 -54 -60q-24 -25 -53.5 -50.5t-58.5 -39.5q-60 -31 -129.5 -38t-138.5 -7q-174 0 -277 102q-54 51 -82.5 115.5t-25.5 142.5zM399 350q-2 -25 5.5 -47t35.5 -45q17 -15 40.5 -23t50 -12t52.5 -5 t48 -1q28 0 57.5 3t56.5 8t50.5 11t38.5 11q33 12 57.5 25.5t41.5 33.5t25.5 50t10.5 75l2 160h-137h-55h-53t-45.5 -0.5t-33.5 -1.5q-52 -3 -101 -23.5t-77 -46.5q-22 -21 -36 -40.5t-21.5 -40t-10 -42.5t-2.5 -49zM573 1522l367 391l190 -191l-393 -366z" />
<glyph unicode="&#xe2;" horiz-adv-x="1440" d="M162 317q3 62 12.5 105t25.5 74t37.5 54.5t47.5 47.5q54 46 116 80t144 45q35 5 79 7.5t89.5 3t89 0t78.5 -0.5q34 0 53 5.5t28.5 16.5t12 27t2.5 37l2 68q0 52 -17 93.5t-53 66.5q-74 51 -211 51q-80 0 -124.5 -9.5t-67.5 -23.5q-30 -19 -48.5 -47t-23.5 -70h-205 q0 28 6.5 58.5t20.5 59.5t37.5 55.5t58.5 47.5q71 45 161 64.5t183 19.5q109 0 195.5 -23.5t152.5 -64.5q134 -83 134 -256l2 -690q-1 -9 2 -17q2 -7 8.5 -13.5t19.5 -10.5q5 -1 10 -1h10t11 1l72 -86l2 -92q-25 -6 -43.5 -11t-42.5 -7q-19 -2 -34.5 -2t-37.5 2 q-63 3 -95 28.5t-48 63.5q-6 11 -11.5 24.5t-10.5 25.5q-5 14 -11 28q-26 -31 -54 -60q-24 -25 -53.5 -50.5t-58.5 -39.5q-60 -31 -129.5 -38t-138.5 -7q-174 0 -277 102q-54 51 -82.5 115.5t-25.5 142.5zM360 1565l329 348l328 -348l-133 -133l-195 198l-196 -198zM399 350 q-2 -25 5.5 -47t35.5 -45q17 -15 40.5 -23t50 -12t52.5 -5t48 -1q28 0 57.5 3t56.5 8t50.5 11t38.5 11q33 12 57.5 25.5t41.5 33.5t25.5 50t10.5 75l2 160h-137h-55h-53t-45.5 -0.5t-33.5 -1.5q-52 -3 -101 -23.5t-77 -46.5q-22 -21 -36 -40.5t-21.5 -40t-10 -42.5t-2.5 -49 z" />
<glyph unicode="&#xe3;" horiz-adv-x="1440" d="M162 317q3 62 12.5 105t25.5 74t37.5 54.5t47.5 47.5q54 46 116 80t144 45q35 5 79 7.5t89.5 3t89 0t78.5 -0.5q34 0 53 5.5t28.5 16.5t12 27t2.5 37l2 68q0 52 -17 93.5t-53 66.5q-74 51 -211 51q-80 0 -124.5 -9.5t-67.5 -23.5q-30 -19 -48.5 -47t-23.5 -70h-205 q0 28 6.5 58.5t20.5 59.5t37.5 55.5t58.5 47.5q71 45 161 64.5t183 19.5q109 0 195.5 -23.5t152.5 -64.5q134 -83 134 -256l2 -690q-1 -9 2 -17q2 -7 8.5 -13.5t19.5 -10.5q5 -1 10 -1h10t11 1l72 -86l2 -92q-25 -6 -43.5 -11t-42.5 -7q-19 -2 -34.5 -2t-37.5 2 q-63 3 -95 28.5t-48 63.5q-6 11 -11.5 24.5t-10.5 25.5q-5 14 -11 28q-26 -31 -54 -60q-24 -25 -53.5 -50.5t-58.5 -39.5q-60 -31 -129.5 -38t-138.5 -7q-174 0 -277 102q-54 51 -82.5 115.5t-25.5 142.5zM235 1565l330 348l262 -244l195 244l139 -137l-334 -396l-262 250 l-184 -211zM399 350q-2 -25 5.5 -47t35.5 -45q17 -15 40.5 -23t50 -12t52.5 -5t48 -1q28 0 57.5 3t56.5 8t50.5 11t38.5 11q33 12 57.5 25.5t41.5 33.5t25.5 50t10.5 75l2 160h-137h-55h-53t-45.5 -0.5t-33.5 -1.5q-52 -3 -101 -23.5t-77 -46.5q-22 -21 -36 -40.5t-21.5 -40 t-10 -42.5t-2.5 -49z" />
<glyph unicode="&#xe4;" horiz-adv-x="1481" d="M162 317q3 62 12.5 105t25.5 74t37.5 54.5t47.5 47.5q54 46 116 80t144 45q35 5 79 7.5t89.5 3t89 0t78.5 -0.5q34 0 53 5.5t28.5 16.5t12 27t2.5 37l2 68q0 52 -17 93.5t-53 66.5q-74 51 -211 51q-80 0 -124.5 -9.5t-67.5 -23.5q-30 -19 -48.5 -47t-23.5 -70h-205 q0 28 6.5 58.5t20.5 59.5t37.5 55.5t58.5 47.5q71 45 161 64.5t183 19.5q109 0 195.5 -23.5t152.5 -64.5q134 -83 134 -256l2 -690q-1 -9 2 -17q2 -7 8.5 -13.5t19.5 -10.5q5 -1 10 -1h10t11 1l72 -86l2 -92q-25 -6 -43.5 -11t-42.5 -7q-19 -2 -34.5 -2t-37.5 2 q-63 3 -95 28.5t-48 63.5q-6 11 -11.5 24.5t-10.5 25.5q-5 14 -11 28q-26 -31 -54 -60q-24 -25 -53.5 -50.5t-58.5 -39.5q-60 -31 -129.5 -38t-138.5 -7q-174 0 -277 102q-54 51 -82.5 115.5t-25.5 142.5zM267 1638q0 36 14 68t38 55.5t56 37t68 13.5q35 0 66.5 -13.5 t55.5 -37t38 -55.5t14 -68t-14 -67.5t-38 -55.5t-55.5 -37.5t-66.5 -13.5q-36 0 -68 13.5t-56 37.5t-38 55.5t-14 67.5zM399 350q-2 -25 5.5 -47t35.5 -45q17 -15 40.5 -23t50 -12t52.5 -5t48 -1q28 0 57.5 3t56.5 8t50.5 11t38.5 11q33 12 57.5 25.5t41.5 33.5t25.5 50 t10.5 75l2 160h-137h-55h-53t-45.5 -0.5t-33.5 -1.5q-52 -3 -101 -23.5t-77 -46.5q-22 -21 -36 -40.5t-21.5 -40t-10 -42.5t-2.5 -49zM773 1638q0 36 13.5 68t37.5 55.5t55.5 37t67.5 13.5t67.5 -13.5t55.5 -37t37.5 -55.5t13.5 -68t-13.5 -67.5t-37.5 -55.5t-55.5 -37.5 t-67.5 -13.5t-67.5 13.5t-55.5 37.5t-37.5 55.5t-13.5 67.5z" />
<glyph unicode="&#xe5;" horiz-adv-x="1440" d="M162 317q3 62 12.5 105t25.5 74t37.5 54.5t47.5 47.5q54 46 116 80t144 45q35 5 79 7.5t89.5 3t89 0t78.5 -0.5q34 0 53 5.5t28.5 16.5t12 27t2.5 37l2 68q0 52 -17 93.5t-53 66.5q-74 51 -211 51q-80 0 -124.5 -9.5t-67.5 -23.5q-30 -19 -48.5 -47t-23.5 -70h-205 q0 28 6.5 58.5t20.5 59.5t37.5 55.5t58.5 47.5q71 45 161 64.5t183 19.5q109 0 195.5 -23.5t152.5 -64.5q134 -83 134 -256l2 -690q-1 -9 2 -17q2 -7 8.5 -13.5t19.5 -10.5q5 -1 10 -1h10t11 1l72 -86l2 -92q-25 -6 -43.5 -11t-42.5 -7q-19 -2 -34.5 -2t-37.5 2 q-63 3 -95 28.5t-48 63.5q-6 11 -11.5 24.5t-10.5 25.5q-5 14 -11 28q-26 -31 -54 -60q-24 -25 -53.5 -50.5t-58.5 -39.5q-60 -31 -129.5 -38t-138.5 -7q-174 0 -277 102q-54 51 -82.5 115.5t-25.5 142.5zM399 350q-2 -25 5.5 -47t35.5 -45q17 -15 40.5 -23t50 -12t52.5 -5 t48 -1q28 0 57.5 3t56.5 8t50.5 11t38.5 11q33 12 57.5 25.5t41.5 33.5t25.5 50t10.5 75l2 160h-137h-55h-53t-45.5 -0.5t-33.5 -1.5q-52 -3 -101 -23.5t-77 -46.5q-22 -21 -36 -40.5t-21.5 -40t-10 -42.5t-2.5 -49zM446 1661q0 52 20 98t54 80t80 54t98 20t98.5 -20t81 -54 t54.5 -80t20 -98t-20 -98t-54.5 -80t-81 -54t-98.5 -20t-98 20t-80 54t-54 80t-20 98zM537 1661q0 -34 13 -63.5t34.5 -51.5t51 -34.5t62.5 -12.5q34 0 63.5 12.5t51.5 34.5t34.5 51.5t12.5 63.5t-12.5 63.5t-34.5 51.5t-51.5 34.5t-63.5 12.5q-33 0 -62.5 -12.5t-51 -34.5 t-34.5 -51.5t-13 -63.5z" />
<glyph unicode="&#xe6;" horiz-adv-x="2265" d="M174 317q2 62 12 105t25.5 74t37.5 54t48 46q53 48 114.5 82t145.5 45q35 5 79 7.5t89.5 3t88.5 0t77 -0.5t54 5.5t29.5 16.5t12 27t2.5 37l2 68q0 52 -17 94.5t-54 65.5q-38 24 -90 37.5t-121 13.5q-80 0 -124.5 -10.5t-66.5 -22.5q-31 -17 -49 -47t-23 -70h-206 q1 28 7 58t20.5 59t38 55.5t59.5 48.5q34 22 75 38t85.5 26.5t91 15t92.5 4.5q106 0 193 -23.5t155 -64.5q67 -42 100 -106q79 88 180.5 141t227.5 53q87 0 148 -17.5t106 -39.5q21 -9 45.5 -26t49 -39t47 -49t38.5 -56q26 -48 48.5 -100.5t33.5 -112.5q7 -70 -16 -119.5 t-67.5 -82t-107 -49t-135.5 -19.5l-530 -29q2 -49 16.5 -102.5t46.5 -94.5q19 -22 40 -40t49 -31t65.5 -20t89.5 -7q39 1 76 1.5t68.5 2t57 4.5t40.5 9q7 3 16 7.5t17.5 12.5t14 20.5t7.5 30.5h264q-1 -51 -16.5 -92t-38 -72.5t-49.5 -55t-50 -40.5q-54 -42 -109.5 -59 t-105.5 -23q-19 -3 -43 -4.5t-49.5 -2.5t-51 -1h-48.5q-113 0 -209 36t-174 120q-23 24 -44 50.5t-38 55.5q-47 -50 -92 -94q-19 -19 -39.5 -38t-40 -36t-37.5 -30.5t-33 -20.5q-58 -29 -127.5 -36t-140.5 -7q-171 0 -276 102q-54 51 -82 115.5t-25 142.5zM410 350 q0 -25 7.5 -47t33.5 -45q18 -15 41.5 -22.5t50 -11.5t52.5 -4.5t48 -0.5q27 0 56.5 3t57 7.5t51 10t38.5 10.5q33 12 57.5 25.5t41.5 33.5t25.5 50t10.5 75v109v22v17q-3 0 -23 0.5t-50.5 1t-67 0.5h-71.5t-65 -0.5t-47 -1.5q-52 -5 -101 -24.5t-77 -47.5q-22 -21 -35.5 -39 t-20.5 -36t-9.5 -38.5t-3.5 -46.5zM1214 686l521 27q103 3 133.5 61t-17.5 160q-37 77 -109 120.5t-171 43.5q-35 0 -70.5 -11t-69 -29.5t-63 -42t-53.5 -48.5q-48 -53 -72.5 -127.5t-28.5 -153.5z" />
<glyph unicode="&#xe7;" horiz-adv-x="1352" d="M123 584q0 162 39 280.5t117 208.5t187 135t230 45q104 0 186.5 -25t147.5 -75q45 -34 77 -85.5t52 -119.5h-221q-9 25 -19.5 45.5t-25.5 34.5q-18 16 -37.5 29t-43 22t-52 14t-64.5 5q-48 0 -93 -15t-84 -42t-70 -65.5t-52 -86.5q-14 -32 -22 -56t-12.5 -49.5t-5.5 -57 t-1 -77.5q0 -45 3.5 -84.5t11 -75.5t19.5 -69.5t28 -67.5q13 -29 27 -53t40.5 -41.5t72.5 -27.5t124 -11q32 0 63 1t57 3.5t46 6.5t31 10q21 11 32.5 24.5t14.5 42.5h262q0 -41 -15 -80.5t-37.5 -74t-49.5 -62.5t-50 -45q-35 -27 -74 -44t-81 -26.5t-86.5 -13t-92.5 -4.5 v-45q42 0 79 -16t64.5 -43.5t43.5 -64.5t16 -79t-16 -79t-43.5 -64.5t-64.5 -43.5t-79 -16h-131v95h131q22 0 42 8.5t34 23.5t22.5 34.5t8.5 41.5t-8.5 42t-22.5 34t-34 22.5t-42 8.5h-90v143q-105 9 -194.5 50t-151.5 118q-72 88 -107.5 207t-35.5 250z" />
<glyph unicode="&#xe8;" horiz-adv-x="1374" d="M139 565q0 -149 44 -260t122 -194q79 -82 175 -118t208 -36h50t51.5 0.5t49 2t42.5 3.5q49 8 105 25t110 57q23 18 49.5 41.5t49 55.5t38 73t16.5 92h-262q-5 -37 -22.5 -51t-34.5 -20q-15 -6 -39.5 -9t-56.5 -4.5t-69.5 -2t-76.5 -1.5q-52 0 -89.5 6.5t-65 19.5t-48 31 t-39.5 41q-17 19 -29 43.5t-19.5 50.5t-11.5 52.5t-5 50.5l530 29q74 2 136.5 18t107 48.5t67 82t15.5 119.5q-11 62 -33.5 114t-48.5 101q-15 29 -37.5 55.5t-47.5 48.5t-49.5 39t-45.5 27q-43 22 -104.5 39.5t-149.5 17.5q-128 0 -231.5 -54.5t-182.5 -147.5 q-80 -93 -124 -216t-44 -270zM324 1722l190 191l369 -391l-166 -166zM371 686q3 79 28.5 153.5t71.5 125.5q24 26 49 50t55 42.5t67 29.5t85 11q99 0 171 -43.5t110 -120.5q48 -102 17 -160t-134 -61z" />
<glyph unicode="&#xe9;" horiz-adv-x="1374" d="M139 565q0 147 44 270t124 216q79 93 182.5 147.5t231.5 54.5q88 0 149.5 -17.5t104.5 -39.5q21 -10 45.5 -27t49.5 -39t47.5 -48.5t37.5 -55.5q26 -49 48.5 -101t33.5 -114q7 -70 -15.5 -119.5t-67 -82t-107 -48.5t-136.5 -18l-530 -29q1 -24 5 -50.5t11.5 -52.5 t19.5 -50.5t29 -43.5q19 -23 39.5 -41t48 -31t65 -19.5t89.5 -6.5q39 1 76.5 1.5t69.5 2t56.5 4.5t39.5 9q17 6 34.5 20t22.5 51h262q-1 -51 -16.5 -92t-38 -73t-49 -55.5t-49.5 -41.5q-54 -40 -110 -57t-105 -25q-19 -2 -42.5 -3.5t-49 -2t-51.5 -0.5h-50q-112 0 -208 36 t-175 118q-78 83 -122 194t-44 260zM371 686l520 27q103 3 134 61t-17 160q-38 77 -110 120.5t-171 43.5q-48 0 -85 -11t-67 -29.5t-55 -42.5t-49 -50q-46 -51 -71.5 -125.5t-28.5 -153.5zM582 1530l358 383l190 -191l-385 -358z" />
<glyph unicode="&#xea;" horiz-adv-x="1393" d="M139 565q0 147 44 270t124 216q79 93 182.5 147.5t231.5 54.5q88 0 149.5 -17.5t104.5 -39.5q21 -10 45.5 -27t49.5 -39t47.5 -48.5t37.5 -55.5q26 -49 48.5 -101t33.5 -114q7 -70 -15.5 -119.5t-67 -82t-107 -48.5t-136.5 -18l-530 -29q1 -24 5 -50.5t11.5 -52.5 t19.5 -50.5t29 -43.5q19 -23 39.5 -41t48 -31t65 -19.5t89.5 -6.5q39 1 76.5 1.5t69.5 2t56.5 4.5t39.5 9q17 6 34.5 20t22.5 51h262q-1 -51 -16.5 -92t-38 -73t-49 -55.5t-49.5 -41.5q-54 -40 -110 -57t-105 -25q-19 -2 -42.5 -3.5t-49 -2t-51.5 -0.5h-50q-112 0 -208 36 t-175 118q-78 83 -122 194t-44 260zM371 686l520 27q103 3 134 61t-17 160q-38 77 -110 120.5t-171 43.5q-48 0 -85 -11t-67 -29.5t-55 -42.5t-49 -50q-46 -51 -71.5 -125.5t-28.5 -153.5zM428 1565l328 348l327 -348l-133 -133l-192 198l-199 -198z" />
<glyph unicode="&#xeb;" horiz-adv-x="1374" d="M139 565q0 -149 44 -260t122 -194q79 -82 175 -118t208 -36h50t51.5 0.5t49 2t42.5 3.5q49 8 105 25t110 57q23 18 49.5 41.5t49 55.5t38 73t16.5 92h-262q-5 -37 -22.5 -51t-34.5 -20q-15 -6 -39.5 -9t-56.5 -4.5t-69.5 -2t-76.5 -1.5q-52 0 -89.5 6.5t-65 19.5t-48 31 t-39.5 41q-17 19 -29 43.5t-19.5 50.5t-11.5 52.5t-5 50.5l530 29q74 2 136.5 18t107 48.5t67 82t15.5 119.5q-11 62 -33.5 114t-48.5 101q-15 29 -37.5 55.5t-47.5 48.5t-49.5 39t-45.5 27q-43 22 -104.5 39.5t-149.5 17.5q-128 0 -231.5 -54.5t-182.5 -147.5 q-80 -93 -124 -216t-44 -270zM272 1636q0 36 13.5 68t37.5 55.5t55.5 37t67.5 13.5t68 -13.5t56 -37t37.5 -55.5t13.5 -68t-13.5 -67.5t-37.5 -55.5t-56 -37.5t-68 -13.5t-67.5 13.5t-55.5 37.5t-37.5 55.5t-13.5 67.5zM371 686q3 79 28.5 153.5t71.5 125.5q24 26 49 50 t55 42.5t67 29.5t85 11q99 0 171 -43.5t110 -120.5q48 -102 17 -160t-134 -61zM776 1636q0 36 13.5 68t37.5 55.5t55.5 37t67.5 13.5t68 -13.5t55.5 -37t37 -55.5t13.5 -68t-13.5 -67.5t-37 -55.5t-55.5 -37.5t-68 -13.5t-67.5 13.5t-55.5 37.5t-37.5 55.5t-13.5 67.5z" />
<glyph unicode="&#xec;" horiz-adv-x="1141" d="M142 1727l191 187l358 -381l-164 -164zM434 0l27 1214h215l26 -1214h-268z" />
<glyph unicode="&#xed;" horiz-adv-x="844" d="M205 1522l368 391l191 -191l-393 -366zM240 -2l26 1214h215l27 -1214h-268z" />
<glyph unicode="&#xee;" horiz-adv-x="973" d="M158 1563l327 348l330 -348l-133 -133l-195 198l-196 -198zM352 0l27 1214h215l24 -1214h-266z" />
<glyph unicode="&#xef;" horiz-adv-x="1141" d="M143 1636q0 36 13.5 68t37.5 55.5t55.5 37t67.5 13.5t68 -13.5t56 -37t37.5 -55.5t13.5 -68t-13.5 -67.5t-37.5 -55.5t-56 -37.5t-68 -13.5t-67.5 13.5t-55.5 37.5t-37.5 55.5t-13.5 67.5zM434 0l27 1214h215l26 -1214h-268zM647 1636q0 36 13.5 68t37.5 55.5t55.5 37 t67.5 13.5t68 -13.5t55.5 -37t37 -55.5t13.5 -68t-13.5 -67.5t-37 -55.5t-55.5 -37.5t-68 -13.5t-67.5 13.5t-55.5 37.5t-37.5 55.5t-13.5 67.5z" />
<glyph unicode="&#xf0;" horiz-adv-x="1465" d="M137 583q0 77 13 146t36 130t55 114t71 99q153 179 411 181h12q45 0 78 -2t58.5 -6.5t45.5 -12t40 -19.5q-15 49 -47 107q-27 50 -73.5 116t-118.5 141q-1 2 -2 2.5t-2 2.5l-306 -161l-62 119l264 139q-63 57 -124 100.5t-109 73.5q-56 34 -106 60h214q40 -14 86 -36 q39 -19 88 -48t103 -69l290 153l62 -119l-239 -126q22 -20 42.5 -40.5t40.5 -43.5q67 -77 114.5 -147t80.5 -133.5t54 -121.5t36 -111t30 -114t26 -127.5t16 -137t1 -142.5q-4 -71 -17.5 -131t-34.5 -111.5t-50 -96t-63 -84.5q-145 -170 -396 -170h-54q-251 0 -397 170 q-74 85 -120.5 199t-46.5 257zM369 634q0 -49 4 -90t13.5 -77t24.5 -68.5t36 -64.5q42 -65 110 -90t160 -25h13q92 0 158.5 25.5t111.5 89.5q22 32 38.5 64t27 67.5t15.5 76t5 89.5q0 51 -4.5 93.5t-14 81t-25.5 73t-39 69.5q-47 69 -112 109.5t-159 40.5h-8 q-47 0 -84.5 -11.5t-68.5 -32t-57 -48.5t-49 -61q-24 -34 -42 -67.5t-30 -71t-18 -79.5t-6 -93z" />
<glyph unicode="&#xf1;" horiz-adv-x="1364" d="M168 0q12 228 22 422q4 82 8 165t6.5 155t4 126.5t0.5 81.5q-1 33 -4 78t-7 87q-4 48 -10 99h213l15 -198q18 28 38.5 57t43 54.5t46.5 46t48 32.5q49 23 104.5 35t114.5 12q131 0 218.5 -48.5t133.5 -139.5q25 -51 36 -120.5t13 -166.5q1 -25 2.5 -71.5t4 -105.5 t5.5 -126.5t6 -134.5q7 -157 15 -340h-268q5 164 8.5 282t5.5 200t3 133t1 81v45v25q0 75 -4.5 115.5t-15.5 66.5q-11 25 -25.5 51.5t-37.5 48.5t-56.5 36t-81.5 14q-37 0 -74.5 -14.5t-60.5 -32.5q-42 -32 -75 -65.5t-64 -74.5q-25 -32 -40 -58t-26 -65 q-11 -35 -13.5 -72.5t-0.5 -97.5q0 -15 0.5 -49.5t2 -80.5t2.5 -100.5t3 -108.5q4 -128 8 -279h-268zM279 1563l327 350l264 -244l193 244l139 -139l-332 -394l-262 248l-186 -211z" />
<glyph unicode="&#xf2;" horiz-adv-x="1448" d="M139 584q0 -144 46 -257t120 -200q147 -170 397 -170h54q250 0 397 170q74 87 120 200t46 257q0 76 -13 145t-36 130.5t-55 115t-70 98.5q-153 177 -408 180h-12q-259 -3 -412 -180q-38 -45 -70 -98.5t-55 -115t-36 -130.5t-13 -145zM340 1722l190 191l367 -391 l-166 -166zM371 635q0 51 6 93t18 79t30 71t42 68q23 33 49 60.5t57 48t68.5 32t83.5 11.5h8q46 0 83.5 -11t68.5 -30.5t57 -48t49 -62.5q23 -35 41 -69.5t30 -72t18.5 -79.5t6.5 -92q0 -49 -5.5 -89.5t-16 -76t-26.5 -68t-38 -65.5q-42 -65 -109.5 -90t-160.5 -25h-12 q-93 0 -160.5 25t-109.5 90q-22 33 -37 66t-24 69t-13 77t-4 89z" />
<glyph unicode="&#xf3;" horiz-adv-x="1448" d="M139 584q0 76 13 145t36 130.5t55 115t70 98.5q153 177 412 180h12q255 -3 408 -180q38 -45 70 -98.5t55 -115t36 -130.5t13 -145q0 -144 -46 -257t-120 -200q-147 -170 -397 -170h-54q-250 0 -397 170q-74 87 -120 200t-46 257zM371 635q0 -48 4 -89t13 -77t24 -69 t37 -66q42 -65 109.5 -90t160.5 -25h12q93 0 160.5 25t109.5 90q22 33 38 65.5t26.5 68t16 76t5.5 89.5q0 50 -6.5 92t-18.5 79.5t-30 72t-41 69.5q-23 34 -49 62.5t-57 48t-68.5 30.5t-83.5 11h-8q-46 0 -83.5 -11.5t-68.5 -32t-57 -48t-49 -60.5q-24 -34 -42 -68t-30 -71 t-18 -79t-6 -93zM565 1522l367 391l190 -191l-393 -366z" />
<glyph unicode="&#xf4;" horiz-adv-x="1466" d="M139 584q0 76 13 145t36 130.5t55 115t70 98.5q153 177 412 180h12q255 -3 408 -180q38 -45 70 -98.5t55 -115t36 -130.5t13 -145q0 -144 -46 -257t-120 -200q-147 -170 -397 -170h-54q-250 0 -397 170q-74 87 -120 200t-46 257zM371 635q0 -48 4 -89t13 -77t24 -69 t37 -66q42 -65 109.5 -90t160.5 -25h12q93 0 160.5 25t109.5 90q22 33 38 65.5t26.5 68t16 76t5.5 89.5q0 50 -6.5 92t-18.5 79.5t-30 72t-41 69.5q-23 34 -49 62.5t-57 48t-68.5 30.5t-83.5 11h-8q-46 0 -83.5 -11.5t-68.5 -32t-57 -48t-49 -60.5q-24 -34 -42 -68t-30 -71 t-18 -79t-6 -93zM401 1565l328 348l330 -348l-133 -133l-195 198l-196 -198z" />
<glyph unicode="&#xf5;" horiz-adv-x="1466" d="M139 584q0 76 13 145t36 130.5t55 115t70 98.5q153 177 412 180h12q255 -3 408 -180q38 -45 70 -98.5t55 -115t36 -130.5t13 -145q0 -144 -46 -257t-120 -200q-147 -170 -397 -170h-54q-250 0 -397 170q-74 87 -120 200t-46 257zM268 1565l328 348l264 -244l193 244 l139 -137l-332 -396l-262 250l-186 -211zM371 635q0 -48 4 -89t13 -77t24 -69t37 -66q42 -65 109.5 -90t160.5 -25h12q93 0 160.5 25t109.5 90q22 33 38 65.5t26.5 68t16 76t5.5 89.5q0 50 -6.5 92t-18.5 79.5t-30 72t-41 69.5q-23 34 -49 62.5t-57 48t-68.5 30.5t-83.5 11 h-8q-46 0 -83.5 -11.5t-68.5 -32t-57 -48t-49 -60.5q-24 -34 -42 -68t-30 -71t-18 -79t-6 -93z" />
<glyph unicode="&#xf6;" horiz-adv-x="1448" d="M139 584q0 -144 46 -257t120 -200q147 -170 397 -170h54q250 0 397 170q74 87 120 200t46 257q0 76 -13 145t-36 130.5t-55 115t-70 98.5q-153 177 -408 180h-12q-259 -3 -412 -180q-38 -45 -70 -98.5t-55 -115t-36 -130.5t-13 -145zM303 1636q0 36 13.5 68t37.5 55.5 t55.5 37t67.5 13.5t67.5 -13.5t55.5 -37t37.5 -55.5t13.5 -68t-13.5 -67.5t-37.5 -55.5t-55.5 -37.5t-67.5 -13.5t-67.5 13.5t-55.5 37.5t-37.5 55.5t-13.5 67.5zM371 635q0 51 6 93t18 79t30 71t42 68q23 33 49 60.5t57 48t68.5 32t83.5 11.5h8q46 0 83.5 -11t68.5 -30.5 t57 -48t49 -62.5q23 -35 41 -69.5t30 -72t18.5 -79.5t6.5 -92q0 -49 -5.5 -89.5t-16 -76t-26.5 -68t-38 -65.5q-42 -65 -109.5 -90t-160.5 -25h-12q-93 0 -160.5 25t-109.5 90q-22 33 -37 66t-24 69t-13 77t-4 89zM807 1636q0 36 13.5 68t37.5 55.5t55.5 37t67.5 13.5 t67.5 -13.5t55.5 -37t37.5 -55.5t13.5 -68t-13.5 -67.5t-37.5 -55.5t-55.5 -37.5t-67.5 -13.5t-67.5 13.5t-55.5 37.5t-37.5 55.5t-13.5 67.5z" />
<glyph unicode="&#xf7;" horiz-adv-x="1544" d="M217 510v178h1137v-178h-1137zM582 160q0 42 16 79.5t44 65t65 44t79 16.5t78.5 -16.5t64.5 -44t44 -65t16 -79.5t-16 -78.5t-44 -64.5t-64.5 -44t-78.5 -16t-79 16t-65 44t-44 64.5t-16 78.5zM582 1051q0 42 16 79t44 64t65 43t79 16t78.5 -16t64.5 -43t44 -64t16 -79 t-16 -79t-44 -64.5t-64.5 -43.5t-78.5 -16t-79 16t-65 43.5t-44 64.5t-16 79z" />
<glyph unicode="&#xf8;" horiz-adv-x="1466" d="M141 584q0 76 13 144.5t36 129.5t55 114.5t70 98.5q78 91 180 135.5t232 46.5h12q65 -2 123 -13t109 -36l51 90h215l-111 -200q7 -5 11.5 -11t9.5 -12q38 -45 70 -98.5t55 -114.5t36 -129.5t13 -144.5q0 -72 -12 -137t-34 -122t-52.5 -106.5t-67.5 -91.5 q-74 -87 -172 -128.5t-225 -41.5h-53q-53 0 -99.5 7.5t-89.5 21.5l-39 -70h-252l107 184q-6 7 -12.5 13t-12.5 14q-72 85 -119 198.5t-47 258.5zM373 633q0 -48 4 -89t13 -77t24 -68.5t37 -64.5q2 -3 4 -7l4 -8l424 734q-31 15 -67 23.5t-81 8.5h-8q-46 0 -83.5 -9.5 t-68.5 -28t-57 -44.5t-49 -59q-25 -34 -43 -67.5t-30 -71t-17.5 -79.5t-5.5 -93zM647 223q17 -3 35.5 -3.5t38.5 -0.5h12q93 0 161 25t110 90q21 32 37.5 64t27 67.5t16 76t5.5 89.5q0 86 -18 149.5t-50 120.5z" />
<glyph unicode="&#xf9;" horiz-adv-x="1419" d="M150 424l20 790h209l8 -788q3 -50 13 -87t22 -54q16 -23 37 -36t46.5 -19.5t56.5 -8.5t67 -2q51 0 89.5 15.5t68 42t52.5 61t44 72.5q24 45 34 108t13 162l6 534h207q3 -226 7 -414q1 -80 3.5 -160t4.5 -148t5 -117.5t6 -69.5q6 -40 28 -92t45 -100q27 -55 61 -113h-254 l-86 217q-10 -18 -24 -41t-30 -46t-32 -43t-31 -32q-59 -48 -123 -73t-145 -25q-130 0 -221.5 48.5t-145.5 131.5q-29 45 -46 116.5t-15 170.5zM312 1727l191 187l358 -381l-164 -164z" />
<glyph unicode="&#xfa;" horiz-adv-x="1419" d="M150 424l20 790h209l8 -788q3 -50 13 -87t22 -54q16 -23 37 -36t46.5 -19.5t56.5 -8.5t67 -2q51 0 89.5 15.5t68 42t52.5 61t44 72.5q24 45 34 108t13 162l6 534h207q3 -226 7 -414q1 -80 3.5 -160t4.5 -148t5 -117.5t6 -69.5q6 -40 28 -92t45 -100q27 -55 61 -113h-254 l-86 217q-10 -18 -24 -41t-30 -46t-32 -43t-31 -32q-59 -48 -123 -73t-145 -25q-130 0 -221.5 48.5t-145.5 131.5q-29 45 -46 116.5t-15 170.5zM423 1522l367 391l190 -191l-393 -366z" />
<glyph unicode="&#xfb;" horiz-adv-x="1427" d="M150 424l20 790h209l8 -788q3 -50 13 -87t22 -54q16 -23 37 -36t46.5 -19.5t56.5 -8.5t67 -2q51 0 89.5 15.5t68 42t52.5 61t44 72.5q24 45 34 108t13 162l6 534h207q3 -226 7 -414q1 -80 3.5 -160t4.5 -148t5 -117.5t6 -69.5q6 -40 28 -92t45 -100q27 -55 61 -113h-254 l-86 217q-10 -18 -24 -41t-30 -46t-32 -43t-31 -32q-59 -48 -123 -73t-145 -25q-130 0 -221.5 48.5t-145.5 131.5q-29 45 -46 116.5t-15 170.5zM322 1565l329 348l328 -348l-133 -133l-195 198l-196 -198z" />
<glyph unicode="&#xfc;" horiz-adv-x="1419" d="M150 424l20 790h209l8 -788q3 -50 13 -87t22 -54q16 -23 37 -36t46.5 -19.5t56.5 -8.5t67 -2q51 0 89.5 15.5t68 42t52.5 61t44 72.5q24 45 34 108t13 162l6 534h207q3 -226 7 -414q1 -80 3.5 -160t4.5 -148t5 -117.5t6 -69.5q6 -40 28 -92t45 -100q27 -55 61 -113h-254 l-86 217q-10 -18 -24 -41t-30 -46t-32 -43t-31 -32q-59 -48 -123 -73t-145 -25q-130 0 -221.5 48.5t-145.5 131.5q-29 45 -46 116.5t-15 170.5zM237 1638q0 36 14 68t38 55.5t56 37t68 13.5q35 0 66.5 -13.5t55.5 -37t38 -55.5t14 -68t-14 -67.5t-38 -55.5t-55.5 -37.5 t-66.5 -13.5q-36 0 -68 13.5t-56 37.5t-38 55.5t-14 67.5zM743 1638q0 36 13.5 68t37.5 55.5t55.5 37t67.5 13.5t67.5 -13.5t55.5 -37t37.5 -55.5t13.5 -68t-13.5 -67.5t-37.5 -55.5t-55.5 -37.5t-67.5 -13.5t-67.5 13.5t-55.5 37.5t-37.5 55.5t-13.5 67.5z" />
<glyph unicode="&#xfd;" horiz-adv-x="1341" d="M113 -612l28 190q12 -9 36 -16q20 -6 54 -10.5t88 -4.5q28 0 53 6t36 17q18 18 25.5 36.5t12.5 35.5q6 16 18 52t28 83t35 102t37 110q43 128 95 281l-487 944h215l365 -686l237 686h213q-110 -329 -202 -602q-26 -78 -52 -155.5t-50.5 -150t-46.5 -137.5t-39.5 -117.5 t-30 -89.5t-17.5 -54q-36 -111 -62 -193.5t-46.5 -142.5t-38 -99.5t-37.5 -64.5q-25 -29 -48.5 -47.5t-53 -29t-69 -14t-94.5 -3.5q-63 0 -114 20t-88 54zM503 1522l367 391l190 -191l-393 -366z" />
<glyph unicode="&#xfe;" horiz-adv-x="1347" d="M100 -684q12 221 23 433q4 90 8.5 187.5t8 192t5.5 182.5t2 160q1 138 2 248q0 47 0.5 92t1 81t0.5 59v25q2 185 -6 353.5t-18 299.5q-11 152 -27 285l227 -1q9 -110 17 -242q7 -113 14.5 -265t12.5 -329q10 14 25.5 30.5t33.5 33.5t37.5 32t37.5 26q22 13 49.5 23 t56.5 17t58.5 10.5t55.5 3.5q51 0 95.5 -15t83 -42t71.5 -64.5t63 -82.5q25 -38 46.5 -99t37 -135t23.5 -155t6 -158t-15 -145.5t-40 -116.5q-47 -82 -92.5 -136.5t-95 -86.5t-106 -45.5t-123.5 -14.5q-34 0 -62.5 1.5t-54 6t-49.5 12.5t-48 22q-41 23 -61.5 49t-34.5 55 l-2 -787h-267zM367 604l4 -209q3 -25 11 -42t21 -30t30.5 -24.5t39.5 -24.5q45 -26 87 -41t95 -14q51 1 89.5 16.5t68 40.5t51 57t39.5 65q25 46 34.5 111t8 133t-12 131t-26.5 106q-37 103 -88.5 161t-122.5 58q-58 0 -109.5 -27t-99.5 -67q-20 -17 -41 -38t-38 -45.5 t-28 -52t-12 -55.5z" />
<glyph unicode="&#xff;" horiz-adv-x="1341" d="M113 -612q37 -34 88 -54t114 -20q55 0 94.5 3.5t69 14t53 29t48.5 47.5q20 25 37.5 64.5t38 99.5t46.5 142.5t62 193.5q5 17 17.5 54t30 89.5t39.5 117.5t46.5 137.5t50.5 150t52 155.5q92 273 202 602h-213l-237 -686l-365 686h-215l487 -944q-52 -153 -95 -281 q-18 -55 -37 -110t-35 -102t-28 -83t-18 -52q-5 -17 -12.5 -35.5t-25.5 -36.5q-11 -11 -36 -17t-53 -6q-54 0 -88 4.5t-54 10.5q-24 7 -36 16zM324 1638q0 36 13.5 68t37 55.5t55.5 37t68 13.5t67.5 -13.5t55.5 -37t37.5 -55.5t13.5 -68t-13.5 -67.5t-37.5 -55.5 t-55.5 -37.5t-67.5 -13.5t-68 13.5t-55.5 37.5t-37 55.5t-13.5 67.5zM827 1638q0 36 13.5 68t37.5 55.5t55.5 37t67.5 13.5t68 -13.5t56 -37t37.5 -55.5t13.5 -68t-13.5 -67.5t-37.5 -55.5t-56 -37.5t-68 -13.5t-67.5 13.5t-55.5 37.5t-37.5 55.5t-13.5 67.5z" />
<glyph unicode="&#x152;" horiz-adv-x="2951" d="M172 903q0 54 4.5 111.5t13.5 114.5t22.5 111t31.5 101q65 174 184 314q56 65 121 113.5t139 80.5t159 48t179 16h8q94 0 179 -16t159 -48q139 -59 244 -176l6 240h1137v-223h-893l16 -555h701v-267h-693l15 -573h854v-295h-1190l4 127q-40 -35 -85 -64t-93 -49 q-73 -31 -154 -44t-174 -13h-76q-91 0 -172 13t-153 44q-143 62 -250 185q-57 66 -101 139t-75 151q-17 45 -29.5 96.5t-21 105.5t-13 108t-4.5 104zM471 991q0 -153 28.5 -277.5t88.5 -221.5q34 -53 77.5 -93t100.5 -63q53 -22 113.5 -31.5t138.5 -9.5h24q78 0 139 9.5 t113 31.5q57 23 100.5 63t78.5 93q60 97 88 221.5t28 277.5q0 150 -38.5 273.5t-106.5 216.5q-41 54 -91 93.5t-103.5 65t-108 38t-105.5 12.5h-14q-50 0 -104.5 -12.5t-107.5 -38t-103 -65t-91 -93.5q-68 -93 -106.5 -216.5t-38.5 -273.5z" />
<glyph unicode="&#x153;" horiz-adv-x="2404" d="M172 584q0 153 49 274.5t127 212.5t179 136.5t231 45.5h12q130 -2 231 -46.5t179 -135.5q33 -36 61 -84q11 17 23 32.5t26 31.5q79 90 182.5 146t231.5 56q88 0 148.5 -17.5t105.5 -39.5q21 -10 45.5 -27t49 -39t47 -48.5t38.5 -55.5q26 -49 48.5 -101t33.5 -114 q7 -70 -16 -119.5t-67.5 -82t-107 -48.5t-135.5 -18l-530 -31q1 -24 5 -50t11.5 -51.5t19 -50t27.5 -43.5q19 -23 40.5 -41t49 -31t65 -19.5t89.5 -6.5q79 0 145 3t97 14q7 3 16 7.5t17.5 12.5t14 20.5t7.5 30.5h264q-1 -51 -16.5 -92t-38 -73t-49 -55.5t-49.5 -41.5 q-54 -40 -110 -57t-105 -25q-20 -2 -43.5 -3.5t-49 -2t-51.5 -0.5h-49q-112 0 -208 35t-175 119q-15 17 -30 35t-27 36q-11 -14 -22 -27.5t-23 -27.5q-72 -85 -171 -127.5t-224 -42.5h-56q-248 0 -395 170q-37 42 -67.5 92t-53 107t-35 121.5t-12.5 136.5zM406 635 q0 -49 4 -90t13 -77t23 -69t35 -65q44 -65 112 -90t159 -25h14q91 0 159 25t111 90q21 32 36.5 64.5t26 68t16 76t5.5 88.5q0 51 -6 93.5t-18 80t-29.5 72t-40.5 69.5q-23 34 -49 62.5t-57 48t-68.5 30.5t-83.5 11h-8q-47 0 -85 -11.5t-69 -32t-57 -48.5t-49 -60 q-24 -34 -41.5 -67.5t-29.5 -71t-17.5 -79.5t-5.5 -93zM1354 686l520 25q102 5 133.5 63t-16.5 160q-37 77 -110.5 120.5t-170.5 43.5q-48 0 -85 -11.5t-67 -30t-55 -42.5t-49 -49q-48 -51 -72.5 -125.5t-27.5 -153.5z" />
<glyph unicode="&#x178;" horiz-adv-x="1837" d="M168 1913h256l539 -918l432 918h274l-577 -1096q-13 -174 -24 -312q-5 -59 -9 -116t-7.5 -103t-5.5 -75.5t-2 -32.5q-2 -3 -9.5 -12t-18.5 -21.5t-24.5 -28.5t-27.5 -32q-33 -38 -73 -84h-209l121 817zM508 2105q0 36 14 68t38 55.5t56 37t68 13.5q35 0 66.5 -13.5 t55.5 -37t38 -55.5t14 -68t-14 -67.5t-38 -55.5t-55.5 -37.5t-66.5 -13.5q-36 0 -68 13.5t-56 37.5t-38 55.5t-14 67.5zM1014 2105q0 36 13.5 68t37.5 55.5t55.5 37t67.5 13.5t67.5 -13.5t55.5 -37t37.5 -55.5t13.5 -68t-13.5 -67.5t-37.5 -55.5t-55.5 -37.5t-67.5 -13.5 t-67.5 13.5t-55.5 37.5t-37.5 55.5t-13.5 67.5z" />
<glyph unicode="&#x2c6;" horiz-adv-x="1151" d="M240 1565l329 348l328 -348l-133 -133l-195 198l-196 -198z" />
<glyph unicode="&#x2dc;" horiz-adv-x="1706" d="M395 1565l330 348l262 -244l195 244l139 -137l-334 -396l-262 250l-184 -211z" />
<glyph unicode="&#x2000;" horiz-adv-x="1244" />
<glyph unicode="&#x2001;" horiz-adv-x="2488" />
<glyph unicode="&#x2002;" horiz-adv-x="1244" />
<glyph unicode="&#x2003;" horiz-adv-x="2488" />
<glyph unicode="&#x2004;" horiz-adv-x="829" />
<glyph unicode="&#x2005;" horiz-adv-x="622" />
<glyph unicode="&#x2006;" horiz-adv-x="414" />
<glyph unicode="&#x2007;" horiz-adv-x="414" />
<glyph unicode="&#x2008;" horiz-adv-x="311" />
<glyph unicode="&#x2009;" horiz-adv-x="497" />
<glyph unicode="&#x200a;" horiz-adv-x="138" />
<glyph unicode="&#x2010;" horiz-adv-x="1544" d="M215 483v293h1135v-293h-1135z" />
<glyph unicode="&#x2011;" horiz-adv-x="1544" d="M215 483v293h1135v-293h-1135z" />
<glyph unicode="&#x2012;" horiz-adv-x="1544" d="M215 483v293h1135v-293h-1135z" />
<glyph unicode="&#x2013;" horiz-adv-x="2382" d="M219 516v232h1555v-232h-1555z" />
<glyph unicode="&#x2014;" horiz-adv-x="2383" d="M219 516v232h1555v-232h-1555z" />
<glyph unicode="&#x2018;" horiz-adv-x="866" d="M154 1010q0 122 5.5 203t16.5 135.5t28 88.5t40 62q25 30 58 49.5t63 31.5q35 14 71 22l23 -134q-38 -9 -66 -27t-51 -46q-13 -17 -21.5 -35t-14 -40.5t-7.5 -51t-2 -66.5q12 6 29.5 8t29.5 2q42 0 79 -16t64.5 -43t43.5 -64t16 -79t-16 -79t-43.5 -64.5t-64.5 -43.5 t-79 -16t-79 16t-64 43.5t-43 64.5t-16 79z" />
<glyph unicode="&#x2019;" horiz-adv-x="868" d="M154 1360q0 42 16 79t43.5 64.5t64.5 43.5t78 16q42 0 79.5 -16t65.5 -43.5t44 -64.5t16 -79q0 -122 -5.5 -203.5t-16.5 -136t-28 -88.5t-40 -62q-26 -30 -59.5 -49.5t-62.5 -31.5q-35 -14 -70 -21l-25 133q40 9 68 27.5t51 46.5q12 17 20.5 35t13.5 40.5t7 50.5t2 66 q-11 -6 -28.5 -8t-31.5 -2q-41 0 -78 16t-64.5 43.5t-43.5 64.5t-16 79z" />
<glyph unicode="&#x201a;" horiz-adv-x="813" d="M205 162q0 42 16 79t43.5 64.5t64.5 43.5t79 16t79 -16t64 -43.5t43 -64.5t16 -79q0 -122 -5 -203.5t-16 -136t-28 -88.5t-41 -62q-26 -30 -58.5 -50t-62.5 -31q-35 -14 -71 -21l-23 131q38 11 66 29.5t53 46.5q12 17 20.5 35t13.5 40.5t7 50.5t2 66q-11 -6 -29 -8 t-30 -2q-42 0 -79 16t-64.5 43.5t-43.5 64.5t-16 79z" />
<glyph unicode="&#x201c;" horiz-adv-x="1522" d="M154 1010q0 122 5 203t15.5 135.5t27.5 88.5t40 62q25 30 58 49.5t63 31.5q35 14 71 22l25 -134q-38 -9 -66 -27t-53 -46q-12 -17 -20.5 -35t-13.5 -40.5t-7 -51t-2 -66.5q11 6 28 8t31 2q42 0 79 -16t64.5 -43t43.5 -64t16 -79t-16 -79t-43.5 -64.5t-64.5 -43.5t-79 -16 t-79 16t-64 43.5t-43 64.5t-16 79zM809 1010q0 122 5.5 203t16.5 135.5t28 88.5t40 62q26 30 59 49.5t63 31.5q35 14 71 22l22 -134q-38 -9 -66 -27t-51 -46q-13 -17 -21.5 -35t-14 -40.5t-7.5 -51t-2 -66.5q13 6 30 8t30 2q42 0 79 -16t64 -43t43 -64t16 -79t-16 -79 t-43 -64.5t-64 -43.5t-79 -16t-79 16t-64.5 43.5t-43.5 64.5t-16 79z" />
<glyph unicode="&#x201d;" horiz-adv-x="1526" d="M154 1360q0 42 16 79t43 64.5t64 43.5t79 16t79 -16t64.5 -43.5t43.5 -64.5t16 -79q0 -122 -5 -203.5t-16 -136t-27.5 -88.5t-39.5 -62q-26 -30 -59.5 -49.5t-62.5 -31.5q-35 -14 -70 -21l-25 131q38 11 66 29.5t53 46.5q12 17 20.5 35t13.5 40.5t7 50.5t2 66 q-11 -6 -28.5 -8t-31.5 -2q-42 0 -79 16t-64 43.5t-43 64.5t-16 79zM809 1360q0 42 16 79t44 64.5t65.5 43.5t79.5 16q41 0 78 -16t64.5 -43.5t44 -64.5t16.5 -79q0 -122 -5.5 -203.5t-17 -136t-28.5 -88.5t-40 -62q-26 -30 -58.5 -49.5t-62.5 -31.5q-35 -14 -71 -21 l-23 131q39 11 66.5 29.5t50.5 46.5q13 17 21.5 35t14 40.5t7.5 50.5t2 66q-12 -6 -29.5 -8t-29.5 -2q-42 0 -79.5 16t-65.5 43.5t-44 64.5t-16 79z" />
<glyph unicode="&#x201e;" horiz-adv-x="1468" d="M205 162q0 42 16 79t43.5 64.5t64.5 43.5t79 16t79 -16t64 -43.5t43 -64.5t16 -79q0 -122 -5 -203.5t-15.5 -136t-27.5 -88.5t-40 -62q-26 -30 -58.5 -50t-62.5 -31q-35 -14 -71 -21l-25 131q38 11 66 29.5t53 46.5q12 17 20.5 35t13.5 40.5t7 50.5t2 66q-11 -6 -28 -8 t-31 -2q-42 0 -79 16t-64.5 43.5t-43.5 64.5t-16 79zM860 162q0 42 16 79t44 64.5t65.5 43.5t79.5 16t78.5 -16t64.5 -43.5t44 -64.5t16 -79q0 -122 -5.5 -203.5t-16.5 -136t-28 -88.5t-40 -62q-26 -30 -59 -50t-63 -31q-35 -14 -71 -21l-22 131q38 11 65.5 29.5t50.5 46.5 q13 17 21.5 35t14 40.5t7.5 50.5t2 66q-12 -6 -29.5 -8t-29.5 -2q-42 0 -79.5 16t-65.5 43.5t-44 64.5t-16 79z" />
<glyph unicode="&#x2022;" horiz-adv-x="1436" d="M309 631q0 74 28.5 139.5t77.5 114.5t114.5 77.5t140.5 28.5t140.5 -28.5t114.5 -77.5t77 -114.5t28 -139.5q0 -75 -28 -140.5t-77 -114.5t-114.5 -77.5t-140.5 -28.5t-140.5 28.5t-114.5 77.5t-77.5 114.5t-28.5 140.5z" />
<glyph unicode="&#x2026;" horiz-adv-x="2568" d="M205 178q0 42 16 79.5t43.5 65.5t64.5 44t79 16t79 -16t64 -44t43 -65.5t16 -79.5q0 -41 -16 -78t-43 -65t-64 -44t-79 -16t-79 16t-64.5 44t-43.5 65t-16 78zM1022 178q0 42 16 79.5t43.5 65.5t64.5 44t79 16t79 -16t64 -44t43 -65.5t16 -79.5q0 -41 -16 -78t-43 -65 t-64 -44t-79 -16t-79 16t-64.5 44t-43.5 65t-16 78zM1839 178q0 42 16 79.5t43.5 65.5t64.5 44t79 16t79 -16t64.5 -44t43.5 -65.5t16 -79.5q0 -41 -16 -78t-43.5 -65t-64.5 -44t-79 -16t-79 16t-64.5 44t-43.5 65t-16 78z" />
<glyph unicode="&#x202f;" horiz-adv-x="497" />
<glyph unicode="&#x2039;" horiz-adv-x="1706" d="M545 635l422 579h215l-406 -579l406 -635h-269z" />
<glyph unicode="&#x203a;" horiz-adv-x="1706" d="M522 0l408 635l-408 579h215l424 -579l-370 -635h-269z" />
<glyph unicode="&#x205f;" horiz-adv-x="622" />
<glyph unicode="&#x20ac;" horiz-adv-x="2404" d="M225 705v215h326q0 105 12 200h-338v183h377q58 198 184 339q58 68 130 119t152.5 84.5t168.5 50.5t178 17q156 0 282.5 -37t223.5 -113q134 -105 195 -309h-318q-6 38 -26 70t-41 55q-54 58 -130 82.5t-184 24.5q-74 0 -144.5 -23t-132 -65t-111.5 -101t-81 -131 q-8 -17 -14 -32.5t-12 -30.5h647v-183h-695q-6 -53 -6 -127q0 -18 1 -36.5t3 -36.5h697v-215h-654q17 -53 35.5 -94.5t32.5 -67.5q8 -14 20 -38t31.5 -51.5t48.5 -55.5t72 -50.5t102 -36.5t138 -14q48 0 94.5 4t85.5 10.5t68.5 16t44.5 20.5q32 22 51 58t24 79h396 q0 -84 -22 -149.5t-55.5 -115.5t-74 -86t-76.5 -60q-55 -38 -119.5 -61t-135.5 -35.5t-147.5 -16.5t-156.5 -4q-183 0 -334 64.5t-260 197.5q-80 97 -134 221t-77 265h-342z" />
<glyph unicode="&#x2122;" horiz-adv-x="1419" d="M168 1845v68h434v-68h-180l12 -489h-98l12 489h-180zM662 1356l36 557h95l163 -387l164 387h94l37 -557h-106l12 491l-143 -403h-115l-145 403l14 -491h-106z" />
<glyph unicode="&#x25fc;" horiz-adv-x="1215" d="M0 0v1215h1215v-1215h-1215z" />
</font>
</defs>
</svg>
