<svg xmlns="http://www.w3.org/2000/svg" width="18" height="18" viewBox="0 0 18 18"><title>github</title><path d="M9.006,1a8.006,8.006,0,0,0-2.532,15.6c.4.075.547-.172.547-.384,0-.19-.006-.693-.01-1.361-2.227.483-2.7-1.074-2.7-1.074a2.123,2.123,0,0,0-.891-1.174c-.725-.5.056-.486.056-.486a1.679,1.679,0,0,1,1.226.825,1.7,1.7,0,0,0,2.309.675l.022-.013a1.707,1.707,0,0,1,.508-1.071c-1.778-.2-3.647-.888-3.647-3.955a3.091,3.091,0,0,1,.824-2.149,2.843,2.843,0,0,1,.07-2.12s.67-.214,2.2.821a7.554,7.554,0,0,1,4,0c1.521-1.036,2.192-.821,2.192-.821a2.928,2.928,0,0,1,.08,2.12,3.107,3.107,0,0,1,.821,2.149c0,3.075-1.872,3.752-3.653,3.948a1.917,1.917,0,0,1,.54,1.481c0,1.072-.01,1.933-.01,2.193,0,.21.14.46.551.38A8,8,0,0,0,9.006,1Z"></path></svg>