<svg xmlns="http://www.w3.org/2000/svg" width="18" height="18" viewBox="0 0 18 18"><title>twitter</title><path d="M16.969,4.549a6.624,6.624,0,0,1-1.883.516A3.307,3.307,0,0,0,16.528,3.25a6.777,6.777,0,0,1-2.084.789A3.279,3.279,0,0,0,8.769,6.278a3.373,3.373,0,0,0,.084.749,9.291,9.291,0,0,1-6.76-3.421,3.222,3.222,0,0,0-.444,1.65,3.28,3.28,0,0,0,1.458,2.73,3.274,3.274,0,0,1-1.485-.41v.04a3.281,3.281,0,0,0,2.63,3.218,3.317,3.317,0,0,1-.864.114,3.282,3.282,0,0,1-.61-.057,3.292,3.292,0,0,0,3.069,2.278A6.579,6.579,0,0,1,1.78,14.576,7,7,0,0,1,1,14.532a9.333,9.333,0,0,0,5.038,1.474,9.265,9.265,0,0,0,9.332-9.2V6.68c0-.139,0-.28-.01-.42A6.62,6.62,0,0,0,17,4.562Z"></path></svg>