<?xml version="1.0" standalone="no"?>
<!DOCTYPE svg PUBLIC "-//W3C//DTD SVG 1.1//EN" "http://www.w3.org/Graphics/SVG/1.1/DTD/svg11.dtd" >
<svg xmlns="http://www.w3.org/2000/svg">
<metadata></metadata>
<defs>
<font id="san_francisco_textMdIt" horiz-adv-x="1270" >
<font-face units-per-em="2048" ascent="1638" descent="-410" />
<missing-glyph horiz-adv-x="461" />
<glyph horiz-adv-x="0" />
<glyph unicode="&#xd;" horiz-adv-x="0" />
<glyph unicode=" "  horiz-adv-x="461" />
<glyph unicode="&#x09;" horiz-adv-x="461" />
<glyph unicode="&#xa0;" horiz-adv-x="461" />
<glyph unicode="!" horiz-adv-x="621" d="M187 125q0 65 43 107t108 42q68 0 111 -41t43 -105t-43.5 -105t-112.5 -41q-64 0 -106.5 40.5t-42.5 102.5zM300 429l133 937h226l-199 -937h-160z" />
<glyph unicode="&#x22;" horiz-adv-x="1039" d="M378 841l61 525h224l-120 -525h-165zM797 841l61 525h224l-120 -525h-165z" />
<glyph unicode="#" horiz-adv-x="1255" d="M156 379l50 168h203l109 289h-193l50 168h194l131 362h165l-131 -362h263l126 362h164l-130 -362h213l-49 -168h-210l-110 -289h200l-50 -168h-200q-20 -49 -67.5 -189.5t-67.5 -189.5h-165l135 379h-263q-20 -49 -67.5 -189.5t-67.5 -189.5h-165l135 379h-202zM574 547 h263l108 289h-262z" />
<glyph unicode="$" horiz-adv-x="1163" d="M155 343q0 24 1 34h175q-1 -5 -1 -13q0 -67 49.5 -125t133.5 -83l105 476q-14 5 -45 18q-286 121 -286 356q0 118 64 207t169 133.5t234 44.5q26 0 29 -1l27 123h129l-31 -142q131 -33 211.5 -119.5t80.5 -219.5v-22h-163q0 14 -1 22q-7 64 -51 111.5t-111 70.5l-98 -440 q3 -1 16.5 -7t17.5 -7q81 -32 133.5 -61t101.5 -72.5t72.5 -103t23.5 -136.5q0 -192 -140.5 -300t-363.5 -108q-23 0 -34 1l-23 -109h-128l27 126q-154 34 -239 128.5t-85 217.5zM474 1018q0 -67 41.5 -110.5t126.5 -80.5q3 -2 16 -7l92 416h-11q-65 0 -124 -23t-100 -74 t-41 -121zM636 134h16q136 0 222 62.5t86 167.5q0 81 -53.5 130t-157.5 90q-5 1 -13 5z" />
<glyph unicode="%" horiz-adv-x="1518" d="M186 973q0 41 6 82l5 35q20 128 100 207t196 79q118 0 186 -82.5t68 -211.5q0 -32 -6 -80l-5 -35q-19 -125 -99 -207t-199 -82q-120 0 -186 81.5t-66 213.5zM230 0l563 683l563 683h172l-563 -683l-562 -683h-173zM326 968q0 -70 30 -114t89 -44q61 0 101 46.5t51 128.5 l4 33q5 37 5 63q0 72 -29.5 117.5t-87.5 45.5q-62 0 -101.5 -48.5t-51.5 -130.5l-4 -27q-6 -33 -6 -70zM1010 285q0 44 7 82l5 35q20 128 99.5 207t196.5 79t185.5 -82.5t68.5 -211.5q0 -40 -7 -80l-5 -36q-18 -125 -98.5 -206.5t-199.5 -81.5t-185.5 81.5t-66.5 213.5z M1151 280q0 -71 29.5 -114.5t88.5 -43.5q61 0 101.5 46.5t51.5 128.5l4 33q5 37 5 62q0 72 -29.5 117.5t-87.5 45.5q-61 0 -101.5 -48.5t-52.5 -129.5l-3 -28q-6 -33 -6 -69z" />
<glyph unicode="&#x26;" horiz-adv-x="1406" d="M188 367q0 78 29.5 143t85 114.5t114.5 84t139 69.5l27 12q-61 94 -91 162.5t-30 140.5q0 142 107.5 223.5t262.5 81.5q157 0 252 -80.5t95 -206.5q0 -66 -25 -121.5t-72.5 -98.5t-98 -74t-119.5 -63l-10 -5l-17 -8.5t-10 -4.5l264 -365q85 114 113 256q12 57 16 121h179 q-12 -102 -22 -153q-36 -203 -188 -372l156 -223l-221 -1l-73 104q-181 -121 -400 -121q-221 0 -342 110t-121 275zM387 378q0 -42 16.5 -82t48.5 -74t87 -54.5t126 -20.5q82 0 161 25t135 71l-293 415l-23 -9q-258 -109 -258 -271zM647 1080q0 -86 97 -220q1 1 11 4.5 t11 3.5q233 92 233 232q0 65 -50 102t-120 37q-75 0 -128.5 -41.5t-53.5 -117.5z" />
<glyph unicode="'" horiz-adv-x="621" d="M378 841l61 525h224l-120 -525h-165z" />
<glyph unicode="(" horiz-adv-x="701" d="M233 377q5 182 45 345.5t103 284t129 207t139 150.5h189q-43 -38 -88 -90t-101 -142.5t-99 -193.5t-74.5 -247t-35.5 -298q-10 -218 23 -367t101 -290h-190q-68 125 -109.5 290.5t-31.5 350.5z" />
<glyph unicode=")" horiz-adv-x="699" d="M58 -264q45 44 88.5 97t100.5 146t99.5 195t74 246.5t35.5 298.5q10 216 -24 366.5t-102 278.5h189q160 -301 143 -629q-5 -182 -45 -348t-103 -289t-129.5 -212t-137.5 -150h-189z" />
<glyph unicode="*" horiz-adv-x="984" d="M270 913l307 94l-268 175l92 125l239 -219l20 321l149 -22l-70 -313l290 146l56 -148l-308 -93l269 -176l-92 -125l-238 217l-21 -319l-149 22l68 311l-288 -144z" />
<glyph unicode="+" horiz-adv-x="1181" d="M184 459l30 180h398l75 420h178l-75 -420h400l-30 -180h-400l-78 -437h-177l78 437h-399z" />
<glyph unicode="," horiz-adv-x="544" d="M15 -400l255 606h242l-326 -606h-171z" />
<glyph unicode="-" horiz-adv-x="867" d="M201 466l31 193h633l-32 -193h-632z" />
<glyph unicode="." horiz-adv-x="563" d="M152 131q0 70 44.5 114.5t108.5 44.5q66 0 109 -42.5t43 -109.5q0 -68 -45 -112t-112 -44q-62 0 -105 42t-43 107z" />
<glyph unicode="/" horiz-adv-x="736" d="M3 -284l729 1704h186l-728 -1704h-187z" />
<glyph unicode="0" horiz-adv-x="1234" d="M237 508q0 106 16 198l15 93q45 276 183 434.5t356 158.5q206 0 321 -139t115 -404q0 -103 -16 -190l-17 -94q-24 -132 -68.5 -238t-110 -186.5t-157.5 -124t-203 -43.5q-207 0 -320.5 136.5t-113.5 398.5zM437 498q0 -165 60 -250.5t173 -85.5q129 0 216 108t124 320 l16 105q16 89 16 177q0 153 -61 242.5t-177 89.5q-250 0 -334 -430l-17 -104q-16 -84 -16 -172z" />
<glyph unicode="1" horiz-adv-x="959" d="M319 968l30 210l337 188h216l-241 -1366h-209l206 1152h-14z" />
<glyph unicode="2" horiz-adv-x="1152" d="M164 0l26 159l563 532q48 45 77 75.5t64.5 75t53 88.5t17.5 87q0 78 -59 136.5t-164 58.5t-169 -58t-72 -142v-5h-195l1 14q6 160 129 267t317 107q184 0 298.5 -99.5t114.5 -263.5q0 -68 -20.5 -130.5t-63.5 -121.5t-86 -105.5t-111 -108.5l-401 -368l-3 -14h609 l-32 -184h-894z" />
<glyph unicode="3" horiz-adv-x="1159" d="M169 329q0 30 4 46h196q-1 -6 -1 -22q0 -75 73 -134t189 -59q118 0 195.5 63.5t77.5 166.5q0 104 -77 167.5t-193 67.5l-91 2l29 179q63 -3 102 -3q124 0 210 57t86 161q-1 91 -68 143.5t-167 52.5q-94 0 -149.5 -43.5t-70.5 -106.5h-199q14 147 130 237.5t296 90.5 q81 0 154.5 -20t135 -60t98 -108t37.5 -156q0 -75 -26 -138t-70 -103.5t-96.5 -65t-108.5 -29.5l-2 -14q118 -26 184 -111t66 -208q-1 -185 -139 -296t-350 -111q-203 0 -329 101t-126 253z" />
<glyph unicode="4" horiz-adv-x="1237" d="M170 275l27 186q94 138 225 309.5t222 284t255 311.5h302l-158 -909h200l-28 -182h-202l-49 -275h-197l50 275h-647zM402 457h445l133 725h-15q-14 -17 -78.5 -97t-86.5 -107.5t-78.5 -97.5t-87 -109.5t-76 -98t-82.5 -108.5t-72 -98z" />
<glyph unicode="5" horiz-adv-x="1184" d="M211 315q0 17 5 57h189q-2 -14 -2 -20q0 -73 66 -134.5t178 -61.5q131 0 220 87.5t90 224.5q0 119 -69 186.5t-178 67.5q-68 0 -133 -26.5t-102 -75.5h-193l177 746h746l-26 -185h-573l-99 -394h14q39 48 112.5 75t151.5 27q162 0 268 -111t107 -299q0 -140 -60.5 -254 t-180 -182.5t-277.5 -68.5q-106 0 -191.5 31.5t-136 82t-77 109t-26.5 118.5z" />
<glyph unicode="6" horiz-adv-x="1200" d="M239 527q0 282 87 487q35 78 80 141.5t107 117t146 83.5t183 30q90 0 166 -29t125 -77t76 -106.5t28 -118.5q2 -13 0 -24h-186q-8 72 -70 121t-152 49q-145 0 -243.5 -128t-126.5 -344h14q37 64 109.5 109.5t182.5 45.5q164 0 279 -111.5t115 -298.5 q0 -211 -131.5 -349.5t-337.5 -138.5q-215 0 -333 145t-118 396zM445 442q0 -119 69.5 -199t180.5 -80q119 0 190 84.5t71 216.5q0 116 -71 185.5t-181 69.5q-117 0 -188 -80t-71 -197z" />
<glyph unicode="7" horiz-adv-x="1122" d="M196 0l752 1167l1 14h-666l25 185h892l-22 -176l-752 -1190h-230z" />
<glyph unicode="8" horiz-adv-x="1224" d="M201 361q0 69 22.5 128t58.5 100t83.5 71t95 46.5t94.5 21.5l3 15q-196 101 -196 291q0 110 62 193.5t161.5 125.5t219.5 42q115 0 210.5 -39t156.5 -119.5t61 -189.5q0 -70 -26 -130t-68.5 -100t-92.5 -64.5t-102 -31.5l-2 -15q45 -14 86 -39.5t78 -64.5t59 -98t22 -129 q0 -78 -27.5 -144t-74.5 -112.5t-110.5 -79.5t-135 -48.5t-148.5 -15.5q-72 0 -140.5 13.5t-132.5 44t-112 74t-76.5 109.5t-28.5 145zM415 379q0 -110 80 -171t195 -61q123 0 206.5 69t83.5 181q0 111 -82.5 174.5t-195.5 63.5q-121 0 -204 -72.5t-83 -183.5zM565 1005 q0 -92 64.5 -146.5t160.5 -54.5q104 0 172.5 62t68.5 160q0 95 -64.5 148.5t-159.5 53.5q-105 0 -173.5 -64t-68.5 -159z" />
<glyph unicode="9" horiz-adv-x="1194" d="M215 320q0 19 1 28h189q3 -78 69.5 -127t166.5 -49q140 0 228.5 123t120.5 355h-13q-31 -62 -108.5 -109.5t-183.5 -47.5q-105 0 -193.5 47.5t-145 143t-56.5 222.5q0 133 58 243t166 175t244 65q208 0 325.5 -135.5t117.5 -386.5q0 -212 -49 -396q-133 -484 -524 -484 q-175 0 -292.5 97.5t-120.5 235.5zM498 914q0 -114 67.5 -184t175.5 -70q118 0 189 80.5t71 196.5q0 120 -68 196.5t-179 76.5q-113 0 -184.5 -85t-71.5 -211z" />
<glyph unicode=":" horiz-adv-x="567" d="M154 131q0 70 44.5 114.5t108.5 44.5q66 0 108.5 -42.5t42.5 -109.5q0 -68 -45 -112t-112 -44q-62 0 -104.5 42t-42.5 107zM274 809q0 70 44.5 115t108.5 45q66 0 109 -43t43 -110q0 -68 -45 -112t-112 -44q-62 0 -105 42t-43 107z" />
<glyph unicode=";" horiz-adv-x="557" d="M-14 -400l255 606h242l-326 -606h-171zM272 809q0 70 44.5 115t108.5 45q66 0 109 -43t43 -110q0 -68 -45.5 -112t-112.5 -44q-62 0 -104.5 42t-42.5 107z" />
<glyph unicode="&#x3c;" horiz-adv-x="1095" d="M248 431l27 162l835 521l-38 -228l-633 -371l-3 -11l513 -340l-37 -217z" />
<glyph unicode="=" horiz-adv-x="1185" d="M206 258l29 180h865l-25 -180h-869zM274 661l30 181h864l-29 -181h-865z" />
<glyph unicode="&#x3e;" horiz-adv-x="1095" d="M165 -53l37 226l635 347l2 12l-509 363l37 205l658 -509l-26 -157z" />
<glyph unicode="?" horiz-adv-x="1056" d="M289 1033q17 158 126 260t301 102q115 0 207.5 -36.5t151 -115.5t58.5 -189q0 -66 -21 -121t-61.5 -97.5t-77.5 -69.5t-92 -59q-49 -28 -64 -37t-46.5 -32t-42.5 -39t-23.5 -43t-16.5 -60l-12 -63h-189l11 67q15 119 64.5 183t174.5 135q29 16 41 23t37.5 24t38 27.5 t30.5 29.5t26.5 35.5t15 39t6.5 46.5q0 83 -63.5 129t-156.5 46q-98 0 -157 -52t-73 -133h-193zM394 125q0 65 43 107t109 42q67 0 110.5 -41t43.5 -105t-43.5 -105t-112.5 -41q-65 0 -107.5 40.5t-42.5 102.5z" />
<glyph unicode="@" horiz-adv-x="1737" d="M213 408q0 -166 55.5 -297t155 -215t233.5 -127.5t295 -43.5q120 0 199 23l23 135q-69 -22 -200 -22q-134 0 -244 34.5t-192 101.5t-127 175t-45 247q0 80 13 148l8 43q33 176 127.5 305t229 195t294.5 66q159 0 286.5 -57.5t203.5 -170.5t76 -264q0 -65 -7 -107l-5 -33 q-23 -144 -84.5 -214t-138.5 -70q-46 0 -76 26.5t-30 70.5q0 19 3 33l83 471h-153l-23 -131h-8q-6 62 -59.5 108t-139.5 46q-118 0 -197.5 -79.5t-105.5 -220.5l-16 -87q-8 -41 -8 -95q0 -120 70 -193t182 -73q89 0 148 39.5t84 99.5h10q11 -58 74 -99t146 -41 q139 0 243.5 98.5t137.5 283.5l9 50q8 43 8 127q0 128 -49.5 241t-139 197t-225.5 133t-299 49q-305 0 -523 -181t-276 -500l-10 -56q-16 -85 -16 -169zM804 425q0 37 7 72l12 59q20 95 64.5 141.5t104.5 46.5q68 0 106.5 -46t38.5 -109q0 -21 -5 -53l-14 -81 q-32 -181 -169 -181q-70 0 -107.5 42.5t-37.5 108.5z" />
<glyph unicode="A" d="M44 0l714 1366h235l234 -1366h-217l-59 383h-492l-197 -383h-218zM539 554h391l-86 577h-13z" />
<glyph unicode="B" horiz-adv-x="1291" d="M184 0l241 1366h481q106 0 184.5 -25.5t122 -70t63.5 -97t20 -113.5q0 -130 -83 -222t-194 -116l-2 -12q110 -19 177.5 -96t67.5 -202q0 -193 -148 -302.5t-409 -109.5h-521zM419 172h291q150 0 246 66t96 183q0 95 -70 147.5t-216 52.5h-266zM528 788h259 q129 0 211 63.5t82 173.5q0 86 -59 128t-184 42h-234z" />
<glyph unicode="C" horiz-adv-x="1306" d="M230 510q0 92 9 140l45 228q47 247 199.5 381t372.5 134q115 0 211 -35.5t158.5 -95t97 -134.5t34.5 -156q0 -36 -5 -54h-199q1 11 1 38q-4 44 -24 85t-55 77t-93 57.5t-129 21.5q-290 0 -363 -356l-37 -179q-13 -69 -13 -151q0 -168 91.5 -254t234.5 -86 q130 0 208.5 62.5t98.5 158.5h202q-1 -5 -4 -22t-3 -19q-13 -71 -50 -135.5t-98 -120.5t-156.5 -89t-212.5 -33q-86 0 -163 20t-143 63t-113.5 105t-74.5 151.5t-27 197.5z" />
<glyph unicode="D" horiz-adv-x="1365" d="M184 0l241 1366h409q262 0 403.5 -142.5t141.5 -381.5q0 -79 -11 -146q0 -6 -12 -71t-15 -77q-51 -266 -240 -407t-508 -141h-409zM423 188h162q224 0 367.5 95.5t181.5 286.5q2 7 13 66.5t12 66.5q9 52 9 123q0 177 -101.5 264.5t-294.5 87.5h-169z" />
<glyph unicode="E" horiz-adv-x="1146" d="M184 0l241 1366h830l-31 -188h-622l-73 -389h591l-28 -179h-592l-78 -422h627l-30 -188h-835z" />
<glyph unicode="F" horiz-adv-x="1121" d="M184 0l242 1366h828l-30 -188h-621l-79 -424h571l-28 -184h-573l-102 -570h-208z" />
<glyph unicode="G" horiz-adv-x="1362" d="M228 504q0 83 12 153l45 224q46 245 202 378.5t384 133.5q123 0 223 -37.5t160.5 -98.5t92.5 -133.5t32 -148.5q0 -28 -2 -35h-201q0 18 -1 27q-3 38 -21 76t-52.5 74.5t-96 59.5t-139.5 23q-151 0 -246.5 -92.5t-129.5 -265.5l-38 -184q-14 -84 -14 -149 q0 -170 93.5 -257.5t239.5 -87.5q119 0 212 58.5t112 160.5l29 157h-327l30 170h528l-60 -332q-33 -188 -181 -296.5t-357 -108.5q-108 0 -200.5 31t-167.5 93t-118 166.5t-43 240.5z" />
<glyph unicode="H" horiz-adv-x="1430" d="M184 0l241 1366h208l-101 -569h646l101 569h208l-241 -1366h-202l103 609h-646l-109 -609h-208z" />
<glyph unicode="I" horiz-adv-x="576" d="M184 0l241 1366h208l-241 -1366h-208z" />
<glyph unicode="J" horiz-adv-x="1048" d="M114 322q0 43 6 67h195q-2 -32 -2 -37q0 -77 52.5 -128t140.5 -51q83 0 141.5 53.5t79.5 169.5l172 970h208l-176 -992q-36 -208 -148 -304t-272 -96q-173 0 -285 96t-112 252z" />
<glyph unicode="K" horiz-adv-x="1295" d="M184 0l242 1366h207l-119 -643h13l688 643h259l-638 -612l405 -754h-237l-331 630l-201 -178l-80 -452h-208z" />
<glyph unicode="L" horiz-adv-x="1056" d="M184 0l241 1366h208l-211 -1175h610l-32 -191h-816z" />
<glyph unicode="M" horiz-adv-x="1647" d="M184 0l241 1366h205l259 -913h9l581 913h225l-241 -1366h-194l173 970h-11l-517 -802h-126l-226 802h-13l-170 -970h-195z" />
<glyph unicode="N" horiz-adv-x="1429" d="M184 0l241 1366h189l477 -998h11l181 998h202l-240 -1366h-187l-481 998h-11l-180 -998h-202z" />
<glyph unicode="O" horiz-adv-x="1388" d="M226 487q0 109 14 189l37 205q44 243 200.5 377.5t381.5 134.5q247 0 397.5 -143t150.5 -392q0 -81 -15 -163l-38 -206q-46 -249 -196 -382.5t-401 -133.5q-232 0 -381.5 137.5t-149.5 376.5zM436 513q0 -158 92 -251t254 -93q302 0 369 371l35 192q9 48 9 128 q0 154 -92.5 246.5t-250.5 92.5q-142 0 -237.5 -86.5t-129.5 -270.5l-34 -180q-15 -78 -15 -149z" />
<glyph unicode="P" horiz-adv-x="1208" d="M184 0l241 1366h459q195 0 303.5 -103.5t108.5 -270.5q0 -45 -6 -90q-28 -199 -167 -306.5t-390 -107.5h-253l-88 -488h-208zM510 673h234q164 0 244.5 66t93.5 172q6 30 6 66q0 97 -60.5 154t-184.5 57h-240z" />
<glyph unicode="Q" horiz-adv-x="1407" d="M227 492q0 107 15 188l35 196q44 244 200 380.5t380 136.5q247 0 397.5 -143.5t150.5 -396.5q0 -82 -16 -163l-36 -197q-52 -278 -234 -406l132 -227h-212l-85 138q-87 -25 -195 -25q-233 0 -382.5 138t-149.5 381zM435 503q0 -162 92 -254t253 -92q35 0 79 7l-147 242 h206l91 -147q105 87 140 273l37 201q9 51 9 132q0 154 -93 245t-249 91q-143 0 -238.5 -88t-129.5 -270l-36 -185q-14 -84 -14 -155z" />
<glyph unicode="R" horiz-adv-x="1282" d="M184 0l242 1366h475q196 0 302 -98t106 -263q0 -42 -6 -78q-18 -140 -103.5 -235t-211.5 -133l186 -559h-222l-170 528q-23 -1 -64 -1h-232l-94 -527h-208zM516 704h242q298 0 330 229q5 30 5 61q0 90 -59.5 140.5t-181.5 50.5h-248z" />
<glyph unicode="S" horiz-adv-x="1226" d="M175 347q0 24 3 45h200q-1 -7 -1 -23q0 -86 84 -149.5t219 -63.5q126 0 205 57.5t79 154.5q0 44 -17.5 77.5t-54 58.5t-71.5 40.5t-92 35.5l-72 27q-58 21 -104.5 43t-95.5 56t-81.5 73.5t-53.5 95t-21 119.5q0 185 137 292t344 107q190 0 322 -100.5t132 -263.5 q0 -3 -1 -19t-1 -17h-193l1 2v6v8q0 91 -76.5 146t-185.5 55q-67 0 -125.5 -20.5t-98.5 -66.5t-40 -109q0 -76 62 -125t180 -92l89 -34q60 -22 101 -41t88 -50.5t75.5 -67t47.5 -89t19 -118.5q0 -198 -141.5 -311t-366.5 -113q-216 0 -355.5 107t-139.5 267z" />
<glyph unicode="T" horiz-adv-x="1124" d="M260 1176l31 190h1024l-30 -190h-407l-210 -1176h-208l211 1176h-411z" />
<glyph unicode="U" horiz-adv-x="1389" d="M250 417q0 59 13 131l144 818h211l-146 -825q-8 -34 -8 -92q0 -125 79 -200.5t216 -75.5q126 0 213 71t113 214l161 908h211l-166 -944q-39 -222 -183 -335.5t-356 -113.5q-220 0 -361 118t-141 326z" />
<glyph unicode="V" horiz-adv-x="1260" d="M278 1366h226l158 -1124h11l560 1124h230l-714 -1366h-236z" />
<glyph unicode="W" horiz-adv-x="1793" d="M306 1366h219l31 -1057h13l471 1057h180l103 -1057h13l414 1057h219l-568 -1366h-205l-115 1011h-12l-467 -1011h-209z" />
<glyph unicode="X" horiz-adv-x="1241" d="M41 0h244l419 524l10 -1l254 -523h231l-336 682l576 684h-248l-430 -521l-10 1l-235 520h-236l319 -677z" />
<glyph unicode="Y" horiz-adv-x="1158" d="M248 1366h220l232 -612h11l438 612h236l-603 -814l-99 -552h-207l98 548z" />
<glyph unicode="Z" horiz-adv-x="1214" d="M146 0l25 158l873 1008l2 15h-693l30 185h947l-25 -163l-871 -1004l-2 -14h722l-32 -185h-976z" />
<glyph unicode="[" horiz-adv-x="710" d="M107 -229l282 1595h464l-27 -161h-271l-229 -1272h285l-27 -162h-477z" />
<glyph unicode="\" horiz-adv-x="661" d="M266 1420h187l218 -1704h-187z" />
<glyph unicode="]" horiz-adv-x="710" d="M46 -229l26 162h285l229 1272h-273l27 161h464l-282 -1595h-476z" />
<glyph unicode="^" horiz-adv-x="851" d="M185 798l366 568h190l168 -568h-176l-106 393h-11l-250 -393h-181z" />
<glyph unicode="_" horiz-adv-x="903" d="M-15 -261l31 169h922l-33 -169h-920z" />
<glyph unicode="`" horiz-adv-x="1000" d="M460 1554h211l189 -345h-159z" />
<glyph unicode="a" horiz-adv-x="1116" d="M162 280q0 22 2 36q11 143 121 222.5t307 79.5h274l12 69q4 20 4 44q0 71 -50.5 122t-156.5 51q-84 0 -137 -33t-70 -85h-195q22 125 132 206.5t285 81.5q185 0 285.5 -92t100.5 -247q0 -44 -17 -144l-104 -591h-194l25 140h-13q-32 -63 -108.5 -110t-185.5 -47 q-135 0 -226 80t-91 217zM366 307q0 -67 48 -110t131 -43q99 0 176 57t94 144l24 121h-245q-112 0 -170 -48t-58 -121z" />
<glyph unicode="b" horiz-adv-x="1212" d="M167 0l253 1423h204l-98 -543h14q15 35 38 65.5t58.5 60.5t88.5 47.5t117 17.5q164 0 263.5 -106t99.5 -287q0 -75 -10 -131l-31 -167q-31 -180 -143 -288.5t-291 -108.5q-120 0 -206 67.5t-105 155.5h-12l-37 -206h-203zM459 433q0 -123 73.5 -194t169.5 -71 q108 0 179.5 73t91.5 188l25 133q4 24 4 88q0 114 -63 179.5t-174 65.5q-110 0 -184 -76t-95 -203l-22 -129q-5 -30 -5 -54z" />
<glyph unicode="c" horiz-adv-x="1078" d="M191 394q0 69 14 148l24 136q33 194 157 295t307 101q185 0 297.5 -97.5t112.5 -248.5q0 -17 -1 -20h-189v12q0 67 -59.5 122.5t-161.5 55.5q-103 0 -175 -67.5t-95 -191.5l-20 -113q-10 -59 -10 -102q0 -124 60.5 -192.5t178.5 -68.5q86 0 141.5 35.5t69.5 91.5h200 q-22 -145 -138.5 -227t-283.5 -82q-196 0 -312.5 112t-116.5 301z" />
<glyph unicode="d" horiz-adv-x="1211" d="M190 384q0 75 10 131l34 165q33 178 146 284.5t292 106.5q126 0 209 -69t96 -150h14l99 571h204l-250 -1423h-201l31 175h-14q-24 -73 -102 -131.5t-198 -58.5q-165 0 -267.5 109.5t-102.5 289.5zM397 416q0 -114 64.5 -182t176.5 -68q111 0 183.5 75.5t96.5 204.5 l25 130q5 31 5 58q0 123 -73.5 191.5t-171.5 68.5q-109 0 -179 -71.5t-94 -190.5l-27 -131q-6 -32 -6 -85z" />
<glyph unicode="e" horiz-adv-x="1111" d="M191 391q0 70 17 155l24 131q33 190 161.5 293.5t314.5 103.5q91 0 164 -26t119.5 -70t75.5 -102t37 -122q4 -33 5 -66q0 -31 -4 -63q0 -2 -25 -146h-685q-9 -36 -9 -88q0 -100 57.5 -167t179.5 -67q88 0 146.5 35.5t74.5 89.5h198q-9 -57 -43.5 -110.5t-88.5 -96 t-132.5 -68.5t-168.5 -26q-186 0 -302 106.5t-116 303.5zM423 624h486q3 9 3 21q6 30 6 57q0 74 -42 128q-56 74 -174 74q-96 0 -169 -55.5t-97 -164.5z" />
<glyph unicode="f" horiz-adv-x="768" d="M216 869l28 170h171l11 74q28 166 120.5 244.5t263.5 78.5q74 0 129 -11l-27 -160q-30 7 -94 7q-88 0 -131.5 -38.5t-58.5 -118.5l-13 -76h239l-30 -170h-236l-155 -869h-202l155 869h-170z" />
<glyph unicode="g" horiz-adv-x="1209" d="M132 -79l1 7h195q0 -10 1 -12q2 -56 67.5 -98.5t163.5 -42.5q130 0 199 65.5t93 195.5l27 151h-15q-30 -73 -106.5 -119.5t-187.5 -46.5q-155 0 -264.5 110t-109.5 293q0 77 14 144l21 103q20 102 63 180t102 125t127 71t143 24q124 0 205.5 -61t106.5 -155h14l36 200 h201l-186 -1058q-70 -394 -493 -394q-190 0 -304 92t-114 217v9zM400 442q0 -123 65.5 -190t180.5 -67q102 0 176.5 73.5t96.5 199.5l16 86q9 57 9 95q0 117 -68.5 186.5t-177.5 69.5q-106 0 -176.5 -73t-94.5 -201l-15 -77q-12 -60 -12 -102z" />
<glyph unicode="h" horiz-adv-x="1215" d="M168 0l250 1423h204l-99 -536h14q40 86 119 135.5t192 49.5q157 0 241.5 -93t84.5 -234q0 -62 -21 -180l-100 -565h-204l102 576q13 75 13 122q0 89 -48 144t-144 55q-120 0 -195.5 -82t-98.5 -210l-106 -605h-204z" />
<glyph unicode="i" horiz-adv-x="566" d="M182 0l187 1056h203l-186 -1056h-204zM372 1370q0 60 39.5 98t99.5 38q62 0 100 -37.5t38 -95.5q0 -59 -40 -96.5t-102 -37.5q-59 0 -97 37t-38 94z" />
<glyph unicode="j" horiz-adv-x="574" d="M-103 -332l33 171q37 -10 79 -10q71 0 118 42t61 118l188 1067h204l-187 -1060q-32 -181 -127 -261t-264 -80q-48 0 -105 13zM380 1370q0 60 39.5 98t99.5 38q62 0 100 -37.5t38 -95.5q0 -59 -40 -96.5t-102 -37.5q-59 0 -97 37t-38 94z" />
<glyph unicode="k" horiz-adv-x="1105" d="M167 0l252 1423h200l-137 -776h13l475 409h262l-501 -427l324 -629h-221l-261 518l-131 -106l-73 -412h-202z" />
<glyph unicode="l" horiz-adv-x="566" d="M181 0l252 1423h203l-251 -1423h-204z" />
<glyph unicode="m" horiz-adv-x="1791" d="M168 0l185 1056h198l-31 -175h13q35 82 108.5 136.5t185.5 54.5q114 0 188 -53.5t102 -141.5h12q16 35 40 66t61 62t92 49t121 18q152 0 230 -89.5t78 -228.5q0 -59 -21 -183l-101 -571h-203l102 583q12 67 12 116q0 92 -41 145t-128 53q-100 0 -164.5 -75.5 t-89.5 -208.5l-109 -613h-200l103 583q11 62 11 117q0 90 -40.5 143.5t-132.5 53.5q-112 0 -179.5 -77.5t-89.5 -207.5l-109 -612h-203z" />
<glyph unicode="n" horiz-adv-x="1209" d="M168 0l185 1056h200l-31 -169h13q93 185 311 185q81 0 144 -26t101 -71.5t57.5 -103.5t19.5 -125q0 -66 -21 -181l-100 -565h-203l101 576q13 78 13 121q0 89 -46.5 144.5t-142.5 55.5q-120 0 -194 -80.5t-97 -211.5l-107 -605h-203z" />
<glyph unicode="o" horiz-adv-x="1154" d="M192 403q0 88 11 145l22 122q33 185 160 294.5t309 109.5q201 0 325 -116t124 -319q0 -59 -12 -126l-23 -123q-36 -190 -158 -298.5t-323 -108.5q-189 0 -312 112.5t-123 307.5zM394 416q0 -115 67 -185.5t183 -70.5q107 0 175.5 72t91.5 202l21 122q5 36 5 92 q0 110 -66.5 180t-179.5 70q-103 0 -173.5 -68t-92.5 -196l-21 -114q-10 -62 -10 -104z" />
<glyph unicode="p" horiz-adv-x="1211" d="M104 -360l248 1415h202l-31 -175h14q14 34 35.5 64t56 60.5t88.5 48.5t119 18q165 0 266 -106.5t101 -286.5q0 -86 -9 -131l-32 -167q-28 -179 -143 -288t-295 -109q-121 0 -204.5 69t-99.5 154h-13l-99 -566h-204zM452 433q0 -123 73.5 -194t168.5 -71q110 0 183 73 t94 188l25 133q5 30 5 88q0 114 -65.5 179.5t-177.5 65.5q-111 0 -184.5 -76t-94.5 -203l-22 -129q-5 -30 -5 -54z" />
<glyph unicode="q" horiz-adv-x="1208" d="M190 383q0 82 10 132l35 165q33 176 147 283.5t290 107.5q125 0 208.5 -68t98.5 -151h14l36 203h200l-253 -1414h-203l98 532h-14q-14 -32 -36.5 -62t-57 -59.5t-87 -47t-114.5 -17.5q-164 0 -268 108.5t-104 287.5zM397 416q0 -113 65.5 -180.5t176.5 -67.5t184.5 75 t94.5 203l23 130q4 23 4 59q0 84 -37 144.5t-90.5 87.5t-114.5 27q-108 0 -178.5 -75t-93.5 -187l-28 -131q-6 -26 -6 -85z" />
<glyph unicode="r" horiz-adv-x="805" d="M167 0l186 1056h193l-32 -176h14q30 81 107 136.5t186 55.5q46 0 93 -13l-40 -196q-39 16 -97 16q-129 0 -204 -82.5t-99 -217.5l-103 -579h-204z" />
<glyph unicode="s" horiz-adv-x="1046" d="M147 293v17h188q0 -7 2 -19q11 -61 75.5 -102.5t163.5 -41.5q100 0 155 40.5t55 108.5q0 18 -3.5 33.5t-14.5 28.5t-18.5 22t-28 19.5t-29.5 16t-38 15t-38 12.5t-43 13q-32 10 -53 18t-56 23t-58.5 30.5t-51 39.5t-44 50.5t-28 63t-11.5 77.5q0 144 102 230.5t287 86.5 q92 0 167.5 -25t124 -66.5t74.5 -93.5t26 -108v-24h-184v11q0 55 -56 101.5t-152 46.5q-89 0 -140.5 -39t-51.5 -97q0 -33 15.5 -57.5t45.5 -41.5t62 -29.5t78 -27.5q17 -5 26 -8q52 -17 91 -33t78.5 -41.5t64.5 -56t41 -74t16 -97.5q0 -159 -114.5 -246t-305.5 -87 q-180 0 -299.5 88t-119.5 223z" />
<glyph unicode="t" horiz-adv-x="779" d="M219 869l29 170h157l50 275h198l-47 -275h227l-28 -170h-227l-83 -466q-19 -108 -19 -133q0 -52 28 -77.5t97 -25.5q66 0 120 10l-29 -165q-52 -15 -150 -15q-276 0 -276 210q0 54 14 125l96 537h-157z" />
<glyph unicode="u" horiz-adv-x="1198" d="M214 308q0 75 20 181l104 567h203l-103 -572q-13 -80 -13 -128q0 -90 51 -140.5t148 -50.5q119 0 191.5 80t95.5 211l105 600h199l-185 -1056h-194l31 175h-14q-39 -85 -119 -138.5t-190 -53.5q-156 0 -243 90.5t-87 234.5z" />
<glyph unicode="v" horiz-adv-x="1058" d="M228 1056h210l105 -842h11l388 842h210l-523 -1056h-227z" />
<glyph unicode="w" horiz-adv-x="1505" d="M210 1056h205l55 -836h10l338 836h185l68 -836h11l333 836h206l-463 -1056h-216l-67 789h-9l-318 -789h-222z" />
<glyph unicode="x" horiz-adv-x="1037" d="M54 0l426 530l-259 526h221l180 -393h9l303 393h231l-439 -532l264 -524h-220l-183 386h-7l-301 -386h-225z" />
<glyph unicode="y" horiz-adv-x="1060" d="M72 -341l35 167q40 -10 80 -10q84 0 130 37.5t81 111.5l23 53l-191 1038h212l121 -836h12l386 836h216l-531 -1046q-1 -3 -20 -37t-19 -35q-34 -66 -62.5 -109.5t-64.5 -81t-78 -58t-97.5 -32t-128.5 -11.5q-52 0 -104 13z" />
<glyph unicode="z" horiz-adv-x="987" d="M116 0l29 167l658 708l3 14h-557l31 167h796l-30 -172l-652 -699l-2 -13h554l-29 -172h-801z" />
<glyph unicode="{" horiz-adv-x="788" d="M187 473l36 211q98 0 144 46.5t65 154.5l40 212q14 82 43 142t67.5 97t91.5 59.5t108 31t126 8.5h70l-27 -163h-42q-123 0 -179.5 -53t-73.5 -152l-47 -254q-18 -110 -71 -162.5t-146 -58.5l-4 -26q78 -9 116.5 -68.5t21.5 -160.5q-59 -308 -59 -341q-2 -61 11 -92 t53.5 -46.5t120.5 -15.5h42l-26 -163h-80q-169 0 -245.5 65t-68.5 199q0 55 52 330q19 107 -10 153.5t-129 46.5z" />
<glyph unicode="|" horiz-adv-x="694" d="M209 -289l301 1709h187l-301 -1709h-187z" />
<glyph unicode="}" horiz-adv-x="787" d="M7 -321l27 163h42q123 0 179.5 53t73.5 152l52 290q19 111 72.5 166.5t145.5 62.5l5 26q-79 8 -118 64t-21 157q52 268 52 304q4 90 -32 122.5t-153 32.5h-42l27 163h79q170 0 246.5 -64.5t68.5 -196.5q0 -60 -13 -143t-26 -143t-13 -66q-3 -72 30 -105t115 -33l-35 -211 q-99 0 -144.5 -46.5t-64.5 -153.5l-47 -253q-18 -102 -57 -170.5t-98 -105t-126 -51t-156 -14.5h-69z" />
<glyph unicode="~" horiz-adv-x="1167" d="M184 563q3 89 38.5 165t103.5 124t154 48q55 0 106 -22.5t78 -45.5t69 -65q35 -36 53 -52.5t50.5 -33t64.5 -16.5q57 0 92.5 41.5t46.5 103.5h163q-9 -140 -90 -234t-205 -94q-76 0 -132 31.5t-112 86.5q-4 4 -21 21.5t-22 22t-19.5 18.5t-21.5 19t-20.5 14t-23.5 12.5 t-22.5 6.5t-25.5 3q-53 0 -92 -43.5t-49 -110.5h-163z" />
<glyph unicode="&#xa1;" horiz-adv-x="620" d="M148 -309l199 937h160l-133 -937h-226zM315 930q0 63 43.5 104.5t112.5 41.5q64 0 107 -41t43 -102q0 -65 -43.5 -107t-108.5 -42q-68 0 -111 40.5t-43 105.5z" />
<glyph unicode="&#xa2;" horiz-adv-x="1155" d="M244 544q0 67 14 148l24 136q31 183 148 283.5t290 108.5l42 235h164l-45 -250q128 -32 202 -122t74 -205q0 -3 -0.5 -11t-0.5 -10h-190v13q0 68 -59 123t-161 55q-104 0 -176 -67t-94 -192l-20 -114q-11 -55 -11 -101q0 -124 60.5 -193t178.5 -69q86 0 142 36t70 91h200 q-22 -135 -133.5 -217t-268.5 -86h-1l-40 -221h-164l41 236q-132 36 -209 140t-77 253z" />
<glyph unicode="&#xa3;" horiz-adv-x="1155" d="M100 0l31 188q26 1 38.5 1.5t39 5t42 12t38 23.5t37.5 38.5t30 58t25 80.5q3 5 22.5 99.5t20.5 105.5h-189l27 157h185l59 317q25 147 128 226.5t257 79.5q183 0 288.5 -102t90.5 -269h-187q10 79 -43 135.5t-148 56.5q-85 0 -133.5 -46.5t-62.5 -123.5l-51 -274h299 l-27 -157h-295q-1 -11 -20.5 -108.5t-22.5 -102.5q-36 -164 -146 -210v-12h722l-30 -179h-1025z" />
<glyph unicode="&#xa4;" horiz-adv-x="1163" d="M147 326l207 152q-39 81 -39 181q0 136 93 242l-139 190l122 104l138 -189q79 42 177 42q134 0 238 -95l221 161l95 -130l-222 -160q39 -83 39 -178q0 -140 -104 -252l128 -174l-120 -102l-130 176q-70 -35 -162 -35q-138 0 -240 91l-208 -152zM462 652 q0 -98 68.5 -167.5t165.5 -69.5t165.5 69.5t68.5 167.5q0 99 -68.5 168.5t-165.5 69.5t-165.5 -69.5t-68.5 -168.5z" />
<glyph unicode="&#xa5;" horiz-adv-x="1155" d="M246 248l24 144h280l24 136h-279l24 144h215l-282 694h222l232 -611h11l437 611h236l-521 -694h231l-25 -144h-293l-24 -136h292l-23 -144h-294l-45 -248h-208l46 248h-280z" />
<glyph unicode="&#xa6;" horiz-adv-x="682" d="M206 -304l120 682h175l-120 -682h-175zM398 782l115 655h175l-115 -655h-175z" />
<glyph unicode="&#xa7;" horiz-adv-x="984" d="M111 58q0 15 3 27h179v-4q1 -83 64 -126t159 -43q91 0 143.5 41.5t52.5 104.5q0 59 -46 94t-156 81q-1 0 -8.5 3t-8.5 4q-138 56 -212 128.5t-74 190.5q0 103 63.5 171.5t155.5 97.5l1 8q-48 33 -84.5 93t-36.5 142q0 150 110 236t278 86q151 0 261 -89t108 -227 q0 -21 -4 -40h-175q2 18 2 22q1 75 -59.5 120.5t-140.5 45.5q-78 0 -134 -37t-56 -104t49.5 -108.5t160.5 -85.5q56 -23 95.5 -43t80 -48.5t65.5 -59t41 -72t16 -90.5q0 -103 -57 -177.5t-146 -110.5v-8q103 -85 103 -206q0 -155 -115.5 -243t-285.5 -88q-72 0 -142 21.5 t-126.5 60t-90.5 99.5t-33 133zM398 576q0 -58 45.5 -100t129.5 -79q21 -10 85 -30q61 15 106 65.5t45 117.5q0 59 -45.5 101.5t-133.5 76.5q-44 17 -69 23q-65 -11 -114 -62t-49 -113z" />
<glyph unicode="&#xa8;" horiz-adv-x="1000" d="M428 1312q0 49 32 80t81 31q50 0 82 -31t32 -80q0 -47 -32 -78t-82 -31q-49 0 -81 31t-32 78zM798 1312q0 49 31 80t79 31q52 0 84 -30.5t32 -80.5q0 -48 -32.5 -78.5t-83.5 -30.5q-47 0 -78.5 31t-31.5 78z" />
<glyph unicode="&#xa9;" horiz-adv-x="1726" d="M259 629q0 51 6 102l13 103q20 173 118 309.5t255.5 213.5t347.5 77q156 0 290 -54t226 -146t144.5 -217.5t52.5 -266.5q0 -41 -5 -91l-13 -102q-33 -278 -235.5 -450.5t-494.5 -172.5q-208 0 -369.5 91.5t-248.5 249.5t-87 354zM384 622q0 -252 160.5 -408.5 t417.5 -156.5q244 0 413.5 140.5t196.5 371.5l12 106q4 32 4 66q0 162 -77.5 292.5t-213 203.5t-303.5 73q-239 0 -403.5 -140.5t-188.5 -351.5l-13 -105q-5 -48 -5 -91zM648 590q0 33 9 98l18 102q23 133 108.5 206.5t219.5 73.5q136 0 215 -71t79 -170q0 -21 -1 -26h-136 v15q0 49 -42 88t-112 39q-77 0 -128 -50t-67 -140l-13 -76q-7 -42 -7 -71q0 -90 42.5 -139.5t128.5 -49.5q60 0 100 25t50 66h140q-17 -101 -98 -161t-201 -60q-140 0 -222.5 81.5t-82.5 219.5z" />
<glyph unicode="&#xaa;" horiz-adv-x="718" d="M270 886q0 92 67.5 138t182.5 46h137l7 40q0 2 0.5 6t0.5 9q0 40 -26 63t-73 23q-36 0 -64 -15t-34 -42h-137q11 72 75 121t170 49q107 0 167 -51.5t60 -145.5q0 -15 -4 -39l-63 -363h-135l14 77h-8q-18 -35 -60 -60.5t-100 -25.5q-75 0 -126 44.5t-51 125.5zM410 899 q0 -33 24 -54t66 -21q48 0 84 27.5t45 70.5l12 62h-119q-55 0 -83.5 -24t-28.5 -61z" />
<glyph unicode="&#xab;" horiz-adv-x="1314" d="M247 557l2 8l415 404h213l-418 -414l-1 -6l258 -394h-203zM718 557l2 8l415 404h213l-419 -414l-1 -6l258 -394h-203z" />
<glyph unicode="&#xac;" horiz-adv-x="1163" d="M184 456l29 175h974l-94 -538h-180l65 363h-794z" />
<glyph unicode="&#xad;" horiz-adv-x="867" d="M201 466l31 193h633l-32 -193h-632z" />
<glyph unicode="&#xae;" horiz-adv-x="1215" d="M274 893q0 12 2 28l2 21q8 214 143 344t353 130q214 0 351.5 -132.5t137.5 -343.5q0 -23 -1 -30l-2 -26q-13 -217 -146.5 -343.5t-351.5 -126.5q-217 0 -352.5 131t-135.5 348zM374 892q0 -173 107 -275.5t281 -102.5q178 0 282.5 100t115.5 276l2 24q1 6 1 25 q0 169 -109 273t-281 104q-178 0 -284.5 -103.5t-111.5 -276.5l-2 -21q-1 -6 -1 -23zM547 666l93 519h190q77 0 119 -39t42 -110q0 -1 -0.5 -8.5t-0.5 -12.5q-5 -52 -37 -89.5t-82 -54.5l70 -205h-106l-59 191h-27h-67l-33 -191h-102zM696 938h79q102 0 114 78q2 12 2 20 q0 29 -22 46.5t-62 17.5h-81z" />
<glyph unicode="&#xaf;" horiz-adv-x="1000" d="M374 1211l20 117h680l-20 -117h-680z" />
<glyph unicode="&#xb0;" horiz-adv-x="723" d="M259 1096q0 120 83.5 204t204.5 84q118 0 202 -84t84 -204t-84 -205t-202 -85q-121 0 -204.5 84.5t-83.5 205.5zM397 1096q0 -60 45 -103.5t105 -43.5q62 0 106 43.5t44 103.5q0 61 -44 104.5t-106 43.5q-61 0 -105.5 -43.5t-44.5 -104.5z" />
<glyph unicode="&#xb1;" horiz-adv-x="1155" d="M124 111l27 165h957l-28 -165h-956zM211 651l28 169h391l46 256h171l-45 -256h393l-28 -169h-394l-49 -271h-171l49 271h-391z" />
<glyph unicode="&#xb2;" horiz-adv-x="743" d="M300 689l18 105l274 242q30 28 43.5 41t32 42.5t18.5 54.5q0 32 -22.5 53.5t-61.5 21.5q-41 0 -66.5 -25t-29.5 -63h-140q7 95 74 155t173 60q96 0 160 -52t64 -140q0 -64 -35 -113.5t-106 -110.5q-5 -3 -86 -70.5t-88 -73.5v-2h282l-22 -125h-482z" />
<glyph unicode="&#xb3;" horiz-adv-x="749" d="M270 895h133q-1 -1 -1 -3q4 -40 34 -64t76 -24q47 0 77.5 24.5t30.5 67.5q0 75 -103 85q-12 1 -59 1l7 115h60q52 0 89.5 22t37.5 62q0 34 -25.5 54t-64.5 20q-37 0 -60 -18.5t-29 -46.5h-142q8 82 71.5 134t161.5 52q94 0 163.5 -47t69.5 -133q0 -63 -38 -106.5 t-91 -54.5l-1 -3q48 -16 75.5 -55.5t27.5 -95.5q0 -93 -73.5 -149.5t-188.5 -53.5q-104 3 -168 54.5t-69 136.5q-1 12 -1 26z" />
<glyph unicode="&#xb4;" horiz-adv-x="1000" d="M467 1209l283 347h208l-338 -347h-153z" />
<glyph unicode="&#xb6;" horiz-adv-x="1338" d="M320 905q0 16 3 32q7 198 154.5 313t367.5 115h215l-278 -1575h-196l121 678l-19 3q-59 11 -119 41.5t-118 81.5t-94.5 132.5t-36.5 178.5zM942 -210l278 1575h196l-278 -1575h-196z" />
<glyph unicode="&#xb7;" horiz-adv-x="562" d="M261 752q0 70 44.5 114.5t108.5 44.5q66 0 109 -42.5t43 -109.5q0 -68 -45 -112t-112 -44q-62 0 -105 42t-43 107z" />
<glyph unicode="&#xb8;" horiz-adv-x="1000" d="M257 -457l19 112q62 -19 127 -19q106 0 107 67v3q0 66 -133 66h-52l10 77l51 165h137l-44 -141q81 -2 131.5 -42t50.5 -112v-10q-4 -92 -72 -141.5t-175 -49.5q-82 0 -157 25z" />
<glyph unicode="&#xb9;" horiz-adv-x="713" d="M362 1126l24 142l176 98h144l-119 -677h-144l93 528h-6z" />
<glyph unicode="&#xba;" horiz-adv-x="751" d="M283 1005q-19 -141 57.5 -221t203.5 -80q107 0 178.5 60t89.5 172l6 36q7 35 7 44q18 135 -58 217.5t-203 82.5q-105 0 -177.5 -61.5t-90.5 -167.5l-7 -37q0 -3 -3 -23t-3 -22zM418 990q0 2 3 18.5t3 17.5l7 37q11 62 47 99.5t91 37.5q65 0 98.5 -48t21.5 -121 q0 -2 -3 -18.5t-3 -17.5l-7 -36q-11 -62 -45.5 -100t-93.5 -38q-67 0 -99 48t-20 121z" />
<glyph unicode="&#xbb;" horiz-adv-x="1314" d="M161 155l418 414l1 6l-258 394h202l267 -402l-2 -8l-413 -404h-215zM637 155l418 414l1 6l-258 394h201l268 -402l-2 -8l-414 -404h-214z" />
<glyph unicode="&#xbc;" horiz-adv-x="1597" d="M243 0l563 683l563 683h172l-563 -683l-562 -683h-173zM297 1126l24 142l176 98h144l-119 -677h-144l93 528h-6zM944 129l18 118q97 143 339 431h212l-75 -431h88l-17 -118h-89l-23 -129h-141l22 129h-334zM1108 241h192l59 319h-8q-184 -232 -242 -314z" />
<glyph unicode="&#xbd;" horiz-adv-x="1597" d="M242 0l563 683l563 683h172l-563 -683l-562 -683h-173zM296 1126l24 142l176 98h144l-119 -677h-144l93 528h-6zM1047 1l19 105l274 242q30 28 43.5 41t32 42.5t18.5 55.5q0 32 -22.5 53.5t-61.5 21.5q-41 0 -66.5 -25t-29.5 -63h-140q7 95 74 155t173 60q96 0 160 -52 t64 -140q0 -65 -35 -114.5t-106 -110.5q-5 -3 -86 -70.5t-88 -73.5v-2h282l-22 -125h-483z" />
<glyph unicode="&#xbe;" horiz-adv-x="1529" d="M151 898h132q-1 -1 -1 -3q4 -40 34 -63.5t76 -23.5q47 0 77.5 24t30.5 67q0 75 -103 85q-12 1 -59 1l7 114h60q52 0 89 22t37 62q0 33 -25.5 53t-63.5 20q-37 0 -60 -18.5t-29 -46.5h-141q8 82 71 133.5t161 51.5q93 0 162.5 -46.5t69.5 -132.5q0 -63 -38 -106t-91 -54 l-1 -3q48 -16 75.5 -55t27.5 -95q0 -92 -73.5 -148.5t-187.5 -53.5q-104 3 -167.5 54t-68.5 136q-1 12 -1 26zM235 0l563 683l563 683h172l-563 -683l-562 -683h-173zM949 129l18 118q97 143 339 431h212l-75 -431h88l-17 -118h-89l-23 -129h-141l22 129h-334zM1113 241h192 l59 319h-8q-184 -232 -242 -314z" />
<glyph unicode="&#xbf;" horiz-adv-x="1056" d="M113 26q0 66 21 121t61.5 97.5t77.5 69.5t92 59q100 58 128 83q55 48 65 128l12 62h190l-12 -66q-15 -119 -64.5 -183t-174.5 -135q-31 -18 -41 -23.5t-37 -23.5t-38 -28t-30 -29t-27 -35.5t-15 -39t-7 -46.5q0 -83 63.5 -129t156.5 -46q98 0 157 52t73 133h194 q-8 -75 -38 -139.5t-81.5 -115t-130.5 -79.5t-178 -29q-115 0 -207.5 36.5t-151 115.5t-58.5 190zM547 952q0 64 43.5 105t112.5 41q64 0 106.5 -40.5t42.5 -102.5q0 -65 -43 -107t-109 -42q-67 0 -110 41t-43 105z" />
<glyph unicode="&#xc0;" d="M44 0l714 1366h235l234 -1366h-217l-59 383h-492l-197 -383h-218zM513 1698h236l279 -200h-205zM539 554h391l-86 577h-13z" />
<glyph unicode="&#xc1;" d="M44 0l714 1366h235l234 -1366h-217l-59 383h-492l-197 -383h-218zM539 554h391l-86 577h-13zM741 1498l294 204h245l-330 -204h-209z" />
<glyph unicode="&#xc2;" d="M44 0l714 1366h235l234 -1366h-217l-59 383h-492l-197 -383h-218zM539 554h391l-86 577h-13zM547 1481l294 238h195l203 -238h-183l-127 139h-13l-175 -139h-194z" />
<glyph unicode="&#xc3;" d="M44 0l714 1366h235l234 -1366h-217l-59 383h-492l-197 -383h-218zM539 554h391l-86 577h-13zM572 1479q0 93 49.5 160t143.5 67q49 0 85.5 -18t76.5 -56q4 -4 20 -19.5t22 -20.5t19.5 -11t26.5 -6q36 0 54.5 35t21.5 78h130q0 -90 -54 -160t-140 -70q-58 0 -93 17t-70 50 q-2 2 -9 9.5t-10 10t-10 9t-11 9t-10.5 7t-12 6.5t-12.5 3.5t-14 1.5q-66 0 -73 -102h-130z" />
<glyph unicode="&#xc4;" d="M44 0l714 1366h235l234 -1366h-217l-59 383h-492l-197 -383h-218zM539 554h391l-86 577h-13zM620 1584q0 50 30.5 80t79.5 30q48 0 79 -30t31 -80q0 -46 -31 -75.5t-79 -29.5t-79 29.5t-31 75.5zM979 1584q0 49 30.5 79.5t77.5 30.5q50 0 81 -30t31 -80q0 -47 -31 -76 t-81 -29q-46 0 -77 29.5t-31 75.5z" />
<glyph unicode="&#xc5;" d="M44 0l700 1333q-82 61 -82 164q0 94 63 158.5t154 64.5q90 0 153 -64t63 -158q0 -54 -26.5 -101t-70.5 -75l229 -1322h-217l-59 383h-492l-197 -383h-218zM539 554h391l-86 577h-13zM793 1524q-9 -32 10.5 -63t54.5 -45q35 -13 66.5 3t40.5 49t-9.5 63.5t-54.5 43.5 q-34 13 -66 -2.5t-42 -48.5z" />
<glyph unicode="&#xc6;" horiz-adv-x="1853" d="M17 0l1017 1366h929l-31 -186h-624l-72 -391h592l-29 -179h-593l-78 -424h628l-30 -186h-832l68 376h-415l-294 -376h-236zM656 552h336l107 570h-17z" />
<glyph unicode="&#xc7;" horiz-adv-x="1306" d="M230 510q0 92 9 140l45 228q47 247 199.5 381t372.5 134q115 0 211 -35.5t158.5 -95t97 -134.5t34.5 -156q0 -36 -5 -54h-199q1 11 1 38q-4 44 -24 85t-55 77t-93 57.5t-129 21.5q-290 0 -363 -356l-37 -179q-13 -69 -13 -151q0 -168 91.5 -254t234.5 -86 q130 0 208.5 62.5t98.5 158.5h202q-1 -5 -4 -22t-3 -19q-13 -69 -48.5 -132t-94 -118t-150 -89.5t-203.5 -37.5l-31 -101q81 -2 131.5 -42t50.5 -112v-10q-4 -92 -72 -141.5t-175 -49.5q-82 0 -157 25l19 112q62 -19 127 -19q105 0 107 67v3q0 66 -134 66h-51l10 77l40 134 q-183 32 -295 165t-112 362z" />
<glyph unicode="&#xc8;" horiz-adv-x="1146" d="M184 0l241 1366h830l-31 -188h-622l-73 -389h591l-28 -179h-592l-78 -422h627l-30 -188h-835zM468 1698h236l279 -200h-205z" />
<glyph unicode="&#xc9;" horiz-adv-x="1146" d="M184 0l241 1366h830l-31 -188h-622l-73 -389h591l-28 -179h-592l-78 -422h627l-30 -188h-835zM696 1498l294 204h245l-330 -204h-209z" />
<glyph unicode="&#xca;" horiz-adv-x="1146" d="M184 0l241 1366h830l-31 -188h-622l-73 -389h591l-28 -179h-592l-78 -422h627l-30 -188h-835zM502 1481l294 238h195l203 -238h-183l-127 139h-13l-175 -139h-194z" />
<glyph unicode="&#xcb;" horiz-adv-x="1146" d="M184 0l241 1366h830l-31 -188h-622l-73 -389h591l-28 -179h-592l-78 -422h627l-30 -188h-835zM575 1584q0 50 30.5 80t79.5 30q48 0 79 -30t31 -80q0 -46 -31 -75.5t-79 -29.5t-79 29.5t-31 75.5zM934 1584q0 49 30.5 79.5t77.5 30.5q50 0 81 -30t31 -80q0 -47 -31 -76 t-81 -29q-46 0 -77 29.5t-31 75.5z" />
<glyph unicode="&#xcc;" horiz-adv-x="576" d="M173 1698h236l279 -200h-205zM184 0l241 1366h208l-241 -1366h-208z" />
<glyph unicode="&#xcd;" horiz-adv-x="576" d="M184 0l241 1366h208l-241 -1366h-208zM401 1498l294 204h245l-330 -204h-209z" />
<glyph unicode="&#xce;" horiz-adv-x="576" d="M184 0l241 1366h208l-241 -1366h-208zM207 1481l294 238h195l203 -238h-183l-127 139h-13l-175 -139h-194z" />
<glyph unicode="&#xcf;" horiz-adv-x="576" d="M184 0l241 1366h208l-241 -1366h-208zM280 1584q0 50 30.5 80t79.5 30q48 0 79 -30t31 -80q0 -46 -31 -75.5t-79 -29.5t-79 29.5t-31 75.5zM639 1584q0 49 30.5 79.5t77.5 30.5q50 0 81 -30t31 -80q0 -47 -31 -76t-81 -29q-46 0 -77 29.5t-31 75.5z" />
<glyph unicode="&#xd0;" horiz-adv-x="1459" d="M222 599l32 193h162l103 574h409q262 0 403.5 -142.5t141.5 -381.5q0 -79 -11 -146q-6 -53 -27 -148q-51 -267 -240 -407.5t-509 -140.5h-408l107 599h-163zM516 188h163q224 0 367 95.5t182 286.5q0 3 12 65t13 68q8 47 8 123q0 177 -101 264.5t-295 87.5h-169l-71 -386 h284l-32 -193h-284z" />
<glyph unicode="&#xd1;" horiz-adv-x="1429" d="M184 0l241 1366h189l477 -998h11l181 998h202l-240 -1366h-187l-481 998h-11l-180 -998h-202zM668 1479q0 93 49.5 160t143.5 67q49 0 85.5 -18t76.5 -56q4 -4 20 -19.5t22 -20.5t19.5 -11t26.5 -6q36 0 54.5 35t21.5 78h130q0 -90 -54 -160t-140 -70q-58 0 -93 17 t-70 50q-2 2 -9 9.5t-10 10t-10 9t-11 9t-10.5 7t-12 6.5t-12.5 3.5t-14 1.5q-66 0 -73 -102h-130z" />
<glyph unicode="&#xd2;" horiz-adv-x="1388" d="M226 487q0 109 14 189l37 205q44 243 200.5 377.5t381.5 134.5q247 0 397.5 -143t150.5 -392q0 -81 -15 -163l-38 -206q-46 -249 -196 -382.5t-401 -133.5q-232 0 -381.5 137.5t-149.5 376.5zM436 513q0 -158 92 -251t254 -93q302 0 369 371l35 192q9 48 9 128 q0 154 -92.5 246.5t-250.5 92.5q-142 0 -237.5 -86.5t-129.5 -270.5l-34 -180q-15 -78 -15 -149zM576 1698h236l279 -200h-205z" />
<glyph unicode="&#xd3;" horiz-adv-x="1388" d="M226 487q0 109 14 189l37 205q44 243 200.5 377.5t381.5 134.5q247 0 397.5 -143t150.5 -392q0 -81 -15 -163l-38 -206q-46 -249 -196 -382.5t-401 -133.5q-232 0 -381.5 137.5t-149.5 376.5zM436 513q0 -158 92 -251t254 -93q302 0 369 371l35 192q9 48 9 128 q0 154 -92.5 246.5t-250.5 92.5q-142 0 -237.5 -86.5t-129.5 -270.5l-34 -180q-15 -78 -15 -149zM804 1498l294 204h245l-330 -204h-209z" />
<glyph unicode="&#xd4;" horiz-adv-x="1388" d="M226 487q0 109 14 189l37 205q44 243 200.5 377.5t381.5 134.5q247 0 397.5 -143t150.5 -392q0 -81 -15 -163l-38 -206q-46 -249 -196 -382.5t-401 -133.5q-232 0 -381.5 137.5t-149.5 376.5zM436 513q0 -158 92 -251t254 -93q302 0 369 371l35 192q9 48 9 128 q0 154 -92.5 246.5t-250.5 92.5q-142 0 -237.5 -86.5t-129.5 -270.5l-34 -180q-15 -78 -15 -149zM610 1481l294 238h195l203 -238h-183l-127 139h-13l-175 -139h-194z" />
<glyph unicode="&#xd5;" horiz-adv-x="1388" d="M226 487q0 109 14 189l37 205q44 243 200.5 377.5t381.5 134.5q247 0 397.5 -143t150.5 -392q0 -81 -15 -163l-38 -206q-46 -249 -196 -382.5t-401 -133.5q-232 0 -381.5 137.5t-149.5 376.5zM436 513q0 -158 92 -251t254 -93q302 0 369 371l35 192q9 48 9 128 q0 154 -92.5 246.5t-250.5 92.5q-142 0 -237.5 -86.5t-129.5 -270.5l-34 -180q-15 -78 -15 -149zM635 1479q0 93 49.5 160t143.5 67q49 0 85.5 -18t76.5 -56q4 -4 20 -19.5t22 -20.5t19.5 -11t26.5 -6q36 0 54.5 35t21.5 78h130q0 -90 -54 -160t-140 -70q-58 0 -93 17 t-70 50q-2 2 -9 9.5t-10 10t-10 9t-11 9t-10.5 7t-12 6.5t-12.5 3.5t-14 1.5q-66 0 -73 -102h-130z" />
<glyph unicode="&#xd6;" horiz-adv-x="1388" d="M226 487q0 109 14 189l37 205q44 243 200.5 377.5t381.5 134.5q247 0 397.5 -143t150.5 -392q0 -81 -15 -163l-38 -206q-46 -249 -196 -382.5t-401 -133.5q-232 0 -381.5 137.5t-149.5 376.5zM436 513q0 -158 92 -251t254 -93q302 0 369 371l35 192q9 48 9 128 q0 154 -92.5 246.5t-250.5 92.5q-142 0 -237.5 -86.5t-129.5 -270.5l-34 -180q-15 -78 -15 -149zM683 1584q0 50 30.5 80t79.5 30q48 0 79 -30t31 -80q0 -46 -31 -75.5t-79 -29.5t-79 29.5t-31 75.5zM1042 1584q0 49 30.5 79.5t77.5 30.5q50 0 81 -30t31 -80q0 -47 -31 -76 t-81 -29q-46 0 -77 29.5t-31 75.5z" />
<glyph unicode="&#xd7;" horiz-adv-x="1155" d="M207 227l344 290l-253 315l130 117l254 -315l361 293l100 -137l-362 -293l255 -315l-130 -118l-255 316l-344 -291z" />
<glyph unicode="&#xd8;" horiz-adv-x="1387" d="M138 147l126 119q-41 97 -41 221q0 115 14 189l37 205q43 243 199.5 377.5t381.5 134.5q139 0 250.5 -46.5t182.5 -134.5l110 103l92 -96l-132 -123q45 -104 45 -238q0 -88 -15 -163l-38 -206q-46 -249 -196 -382.5t-400 -133.5q-132 0 -240.5 45t-178.5 131l-109 -103z M433 526q0 -43 9 -79l695 614q-43 66 -117 102t-171 36q-142 0 -237.5 -86.5t-130.5 -270.5l-34 -180q-13 -67 -14 -136zM489 303q90 -134 290 -134q148 0 242 93t127 278l33 177q9 42 9 116q0 46 -8 83z" />
<glyph unicode="&#xd9;" horiz-adv-x="1389" d="M250 417q0 59 13 131l144 818h211l-146 -825q-8 -34 -8 -92q0 -125 79 -200.5t216 -75.5q126 0 213 71t113 214l161 908h211l-166 -944q-39 -222 -183 -335.5t-356 -113.5q-220 0 -361 118t-141 326zM580 1698h236l279 -200h-205z" />
<glyph unicode="&#xda;" horiz-adv-x="1389" d="M250 417q0 59 13 131l144 818h211l-146 -825q-8 -34 -8 -92q0 -125 79 -200.5t216 -75.5q126 0 213 71t113 214l161 908h211l-166 -944q-39 -222 -183 -335.5t-356 -113.5q-220 0 -361 118t-141 326zM808 1498l294 204h245l-330 -204h-209z" />
<glyph unicode="&#xdb;" horiz-adv-x="1389" d="M250 417q0 59 13 131l144 818h211l-146 -825q-8 -34 -8 -92q0 -125 79 -200.5t216 -75.5q126 0 213 71t113 214l161 908h211l-166 -944q-39 -222 -183 -335.5t-356 -113.5q-220 0 -361 118t-141 326zM614 1481l294 238h195l203 -238h-183l-127 139h-13l-175 -139h-194z " />
<glyph unicode="&#xdc;" horiz-adv-x="1389" d="M250 417q0 59 13 131l144 818h211l-146 -825q-8 -34 -8 -92q0 -125 79 -200.5t216 -75.5q126 0 213 71t113 214l161 908h211l-166 -944q-39 -222 -183 -335.5t-356 -113.5q-220 0 -361 118t-141 326zM687 1584q0 50 30.5 80t79.5 30q48 0 79 -30t31 -80q0 -46 -31 -75.5 t-79 -29.5t-79 29.5t-31 75.5zM1046 1584q0 49 30.5 79.5t77.5 30.5q50 0 81 -30t31 -80q0 -47 -31 -76t-81 -29q-46 0 -77 29.5t-31 75.5z" />
<glyph unicode="&#xdd;" horiz-adv-x="1158" d="M248 1366h220l232 -612h11l438 612h236l-603 -814l-99 -552h-207l98 548zM687 1498l294 204h245l-330 -204h-209z" />
<glyph unicode="&#xde;" horiz-adv-x="1213" d="M182 0l241 1365h205l-45 -252h250q194 0 300 -95t106 -256q0 -30 -7 -83q-53 -392 -548 -392h-244l-52 -287h-206zM469 464h225q112 0 184.5 30t104.5 76t43 114q6 38 6 61q0 189 -242 189h-237z" />
<glyph unicode="&#xdf;" horiz-adv-x="1299" d="M185 0l205 1151q25 141 136.5 222t280.5 81q194 0 321 -104.5t127 -275.5q0 -75 -28.5 -140.5t-73.5 -107.5t-96.5 -68t-101.5 -32l-1 -10q131 -24 213.5 -113.5t82.5 -247.5q0 -92 -35 -166.5t-94 -122.5t-135.5 -73.5t-162.5 -25.5q-78 0 -150.5 18t-108.5 38l30 170 q28 -16 87 -31.5t118 -15.5q104 0 178 60t74 170q0 121 -86 190.5t-207 70.5h-64l32 191h62q121 0 196 63t75 171q0 102 -72 157.5t-181 55.5q-91 0 -147.5 -43.5t-72.5 -128.5l-196 -1103h-205z" />
<glyph unicode="&#xe0;" horiz-adv-x="1116" d="M162 280q0 22 2 36q11 143 121 222.5t307 79.5h274l12 69q4 20 4 44q0 71 -50.5 122t-156.5 51q-84 0 -137 -33t-70 -85h-195q22 125 132 206.5t285 81.5q185 0 285.5 -92t100.5 -247q0 -44 -17 -144l-104 -591h-194l25 140h-13q-32 -63 -108.5 -110t-185.5 -47 q-135 0 -226 80t-91 217zM366 307q0 -67 48 -110t131 -43q99 0 176 57t94 144l24 121h-245q-112 0 -170 -48t-58 -121zM450 1556h211l189 -345h-159z" />
<glyph unicode="&#xe1;" horiz-adv-x="1116" d="M162 280q0 22 2 36q11 143 121 222.5t307 79.5h274l12 69q4 20 4 44q0 71 -50.5 122t-156.5 51q-84 0 -137 -33t-70 -85h-195q22 125 132 206.5t285 81.5q185 0 285.5 -92t100.5 -247q0 -44 -17 -144l-104 -591h-194l25 140h-13q-32 -63 -108.5 -110t-185.5 -47 q-135 0 -226 80t-91 217zM366 307q0 -67 48 -110t131 -43q99 0 176 57t94 144l24 121h-245q-112 0 -170 -48t-58 -121zM603 1211l283 347h208l-338 -347h-153z" />
<glyph unicode="&#xe2;" horiz-adv-x="1116" d="M162 280q0 22 2 36q11 143 121 222.5t307 79.5h274l12 69q4 20 4 44q0 71 -50.5 122t-156.5 51q-84 0 -137 -33t-70 -85h-195q22 125 132 206.5t285 81.5q185 0 285.5 -92t100.5 -247q0 -44 -17 -144l-104 -591h-194l25 140h-13q-32 -63 -108.5 -110t-185.5 -47 q-135 0 -226 80t-91 217zM366 307q0 -67 48 -110t131 -43q99 0 176 57t94 144l24 121h-245q-112 0 -170 -48t-58 -121zM421 1208l308 368h141l182 -368h-164l-104 245h-7l-190 -245h-166z" />
<glyph unicode="&#xe3;" horiz-adv-x="1116" d="M162 280q0 22 2 36q11 143 121 222.5t307 79.5h274l12 69q4 20 4 44q0 71 -50.5 122t-156.5 51q-84 0 -137 -33t-70 -85h-195q22 125 132 206.5t285 81.5q185 0 285.5 -92t100.5 -247q0 -44 -17 -144l-104 -591h-194l25 140h-13q-32 -63 -108.5 -110t-185.5 -47 q-135 0 -226 80t-91 217zM366 307q0 -67 48 -110t131 -43q99 0 176 57t94 144l24 121h-245q-112 0 -170 -48t-58 -121zM392 1186q9 115 65.5 184.5t144.5 69.5q32 0 57.5 -8t47.5 -27t32.5 -31t31.5 -38q2 -2 7.5 -9.5t7 -10t6.5 -9t7.5 -8.5t7 -7t7.5 -7l7.5 -5t8.5 -4 t9 -2t10 -1q35 0 56 34.5t29 81.5h130q-5 -103 -67 -179t-153 -76q-49 0 -82.5 22.5t-63.5 62.5q-2 3 -15.5 21t-18 23t-15.5 15.5t-22 14t-24 3.5q-36 0 -54 -30t-27 -80h-130z" />
<glyph unicode="&#xe4;" horiz-adv-x="1116" d="M162 280q0 22 2 36q11 143 121 222.5t307 79.5h274l12 69q4 20 4 44q0 71 -50.5 122t-156.5 51q-84 0 -137 -33t-70 -85h-195q22 125 132 206.5t285 81.5q185 0 285.5 -92t100.5 -247q0 -44 -17 -144l-104 -591h-194l25 140h-13q-32 -63 -108.5 -110t-185.5 -47 q-135 0 -226 80t-91 217zM366 307q0 -67 48 -110t131 -43q99 0 176 57t94 144l24 121h-245q-112 0 -170 -48t-58 -121zM453 1303q0 49 32 80t81 31q50 0 82 -31t32 -80q0 -47 -32 -78t-82 -31q-49 0 -81 31t-32 78zM823 1303q0 49 31 80t79 31q52 0 84 -30.5t32 -80.5 q0 -48 -32.5 -78.5t-83.5 -30.5q-47 0 -78.5 31t-31.5 78z" />
<glyph unicode="&#xe5;" horiz-adv-x="1116" d="M162 280q0 22 2 36q11 143 121 222.5t307 79.5h274l12 69q4 20 4 44q0 71 -50.5 122t-156.5 51q-84 0 -137 -33t-70 -85h-195q22 125 132 206.5t285 81.5q185 0 285.5 -92t100.5 -247q0 -44 -17 -144l-104 -591h-194l25 140h-13q-32 -63 -108.5 -110t-185.5 -47 q-135 0 -226 80t-91 217zM366 307q0 -67 48 -110t131 -43q99 0 176 57t94 144l24 121h-245q-112 0 -170 -48t-58 -121zM575 1413q0 84 58.5 141.5t141.5 57.5q82 0 138.5 -58t56.5 -141q0 -84 -57.5 -142t-139.5 -58q-83 0 -140.5 58.5t-57.5 141.5zM672 1413 q0 -40 30.5 -69.5t71.5 -29.5q42 0 71.5 29t29.5 70q0 42 -29.5 70.5t-71.5 28.5t-72 -28.5t-30 -70.5z" />
<glyph unicode="&#xe6;" horiz-adv-x="1762" d="M162 288q0 161 114 245.5t319 84.5h271l13 74q3 21 3 41q0 69 -51 120t-157 51q-84 0 -136.5 -33t-69.5 -85h-195q21 124 131.5 206t279.5 82q227 0 322 -144h4q60 68 150.5 106t198.5 38q90 0 161.5 -26t117.5 -70t74.5 -102t37 -121.5t0.5 -129.5q0 -2 -25 -146h-682 q-11 -58 -11 -86q0 -102 57.5 -169t178.5 -67q87 0 146 35t75 90h198q-18 -119 -134.5 -210t-283.5 -91q-128 0 -222.5 58t-137.5 166h-4q-124 -222 -393 -222q-162 0 -256 79t-94 226zM366 303q0 -66 47 -107.5t131 -41.5q101 0 177.5 58.5t95.5 150.5l22 113h-245 q-113 0 -170.5 -49.5t-57.5 -123.5zM1067 624h491q0 2 1.5 11t1.5 10q20 110 -36.5 184.5t-174.5 74.5q-98 0 -172.5 -56.5t-97.5 -163.5q-5 -21 -8 -35t-4 -19t-1 -6z" />
<glyph unicode="&#xe7;" horiz-adv-x="1078" d="M191 394q0 69 14 148l24 136q33 194 157 295t307 101q185 0 297.5 -97.5t112.5 -248.5q0 -17 -1 -20h-189v12q0 67 -59.5 122.5t-161.5 55.5q-103 0 -175 -67.5t-95 -191.5l-20 -113q-10 -59 -10 -102q0 -124 60.5 -192.5t178.5 -68.5q86 0 141.5 35.5t69.5 91.5h200 q-22 -141 -134.5 -222.5t-275.5 -85.5h-14l-35 -109q82 -2 132.5 -42t50.5 -112q0 -7 -1 -10q-3 -92 -71 -141.5t-175 -49.5q-85 0 -157 25l19 112q62 -19 126 -19q106 0 107 67v3q0 66 -133 66h-51l9 77l46 148q-138 36 -216 139.5t-78 257.5z" />
<glyph unicode="&#xe8;" horiz-adv-x="1111" d="M191 391q0 70 17 155l24 131q33 190 161.5 293.5t314.5 103.5q91 0 164 -26t119.5 -70t75.5 -102t37.5 -121.5t0.5 -129.5q0 -2 -25 -146h-685q-9 -36 -9 -88q0 -100 57.5 -167t179.5 -67q88 0 146.5 35.5t74.5 89.5h198q-9 -57 -43.5 -110.5t-88.5 -96t-132.5 -68.5 t-168.5 -26q-186 0 -302 106.5t-116 303.5zM423 624h486q3 9 3 21q21 110 -35.5 184.5t-174.5 74.5q-96 0 -169 -55.5t-97 -164.5zM475 1556h211l189 -345h-159z" />
<glyph unicode="&#xe9;" horiz-adv-x="1111" d="M191 391q0 70 17 155l24 131q33 190 161.5 293.5t314.5 103.5q91 0 164 -26t119.5 -70t75.5 -102t37.5 -121.5t0.5 -129.5q0 -2 -25 -146h-685q-9 -36 -9 -88q0 -100 57.5 -167t179.5 -67q88 0 146.5 35.5t74.5 89.5h198q-9 -57 -43.5 -110.5t-88.5 -96t-132.5 -68.5 t-168.5 -26q-186 0 -302 106.5t-116 303.5zM423 624h486q3 9 3 21q21 110 -35.5 184.5t-174.5 74.5q-96 0 -169 -55.5t-97 -164.5zM628 1211l283 347h208l-338 -347h-153z" />
<glyph unicode="&#xea;" horiz-adv-x="1111" d="M191 391q0 70 17 155l24 131q33 190 161.5 293.5t314.5 103.5q91 0 164 -26t119.5 -70t75.5 -102t37.5 -121.5t0.5 -129.5q0 -2 -25 -146h-685q-9 -36 -9 -88q0 -100 57.5 -167t179.5 -67q88 0 146.5 35.5t74.5 89.5h198q-9 -57 -43.5 -110.5t-88.5 -96t-132.5 -68.5 t-168.5 -26q-186 0 -302 106.5t-116 303.5zM423 624h486q3 9 3 21q21 110 -35.5 184.5t-174.5 74.5q-96 0 -169 -55.5t-97 -164.5zM446 1208l308 368h141l182 -368h-164l-104 245h-7l-190 -245h-166z" />
<glyph unicode="&#xeb;" horiz-adv-x="1111" d="M191 391q0 70 17 155l24 131q33 190 161.5 293.5t314.5 103.5q91 0 164 -26t119.5 -70t75.5 -102t37.5 -121.5t0.5 -129.5q0 -2 -25 -146h-685q-9 -36 -9 -88q0 -100 57.5 -167t179.5 -67q88 0 146.5 35.5t74.5 89.5h198q-9 -57 -43.5 -110.5t-88.5 -96t-132.5 -68.5 t-168.5 -26q-186 0 -302 106.5t-116 303.5zM423 624h486q3 9 3 21q21 110 -35.5 184.5t-174.5 74.5q-96 0 -169 -55.5t-97 -164.5zM478 1303q0 49 32 80t81 31q50 0 82 -31t32 -80q0 -47 -32 -78t-82 -31q-49 0 -81 31t-32 78zM848 1303q0 49 31 80t79 31q52 0 84 -30.5 t32 -80.5q0 -48 -32.5 -78.5t-83.5 -30.5q-47 0 -78.5 31t-31.5 78z" />
<glyph unicode="&#xec;" horiz-adv-x="600" d="M187 0l187 1056h203l-187 -1056h-203zM215 1556h211l189 -345h-159z" />
<glyph unicode="&#xed;" horiz-adv-x="600" d="M187 0l187 1056h203l-187 -1056h-203zM368 1211l283 347h208l-338 -347h-153z" />
<glyph unicode="&#xee;" horiz-adv-x="600" d="M186 1208l308 368h141l182 -368h-164l-104 245h-7l-190 -245h-166zM187 0l187 1056h203l-187 -1056h-203z" />
<glyph unicode="&#xef;" horiz-adv-x="600" d="M187 0l187 1056h203l-187 -1056h-203zM218 1303q0 49 32 80t81 31q50 0 82 -31t32 -80q0 -47 -32 -78t-82 -31q-49 0 -81 31t-32 78zM588 1303q0 49 31 80t79 31q52 0 84 -30.5t32 -80.5q0 -48 -32.5 -78.5t-83.5 -30.5q-47 0 -78.5 31t-31.5 78z" />
<glyph unicode="&#xf0;" horiz-adv-x="1201" d="M191 418q0 58 11 120q1 6 6 33.5t10 52.5l4 25q32 175 154 276.5t289 101.5q116 0 188.5 -45t110.5 -108l7 -1q0 63 -2 70q-2 125 -81 258l-292 -66l-18 116l242 52q-76 99 -166 179l173 72q91 -66 183 -199l251 57l23 -112l-209 -44q104 -198 90 -452q0 -71 -14 -147 l-50 -268q-35 -183 -156 -296.5t-310 -113.5q-200 0 -322 120t-122 319zM392 422q0 -119 64 -191t178 -72q110 0 180.5 71.5t92.5 197.5l14 87q9 47 9 93q0 117 -65.5 183.5t-172.5 66.5q-112 0 -185.5 -73t-94.5 -197l-12 -76q-8 -48 -8 -90z" />
<glyph unicode="&#xf1;" horiz-adv-x="1209" d="M168 0l185 1056h200l-31 -169h13q93 185 311 185q81 0 144 -26t101 -71.5t57.5 -103.5t19.5 -125q0 -66 -21 -181l-100 -565h-203l101 576q13 78 13 121q0 89 -46.5 144.5t-142.5 55.5q-120 0 -194 -80.5t-97 -211.5l-107 -605h-203zM475 1186q9 115 65.5 184.5 t144.5 69.5q32 0 57.5 -8t47.5 -27t32.5 -31t31.5 -38q2 -2 7.5 -9.5t7 -10t6.5 -9t7.5 -8.5t7 -7t7.5 -7l7.5 -5t8.5 -4t9 -2t10 -1q35 0 56 34.5t29 81.5h130q-5 -103 -67 -179t-153 -76q-49 0 -82.5 22.5t-63.5 62.5q-2 3 -15.5 21t-18 23t-15.5 15.5t-22 14t-24 3.5 q-36 0 -54 -30t-27 -80h-130z" />
<glyph unicode="&#xf2;" horiz-adv-x="1154" d="M192 403q0 88 11 145l22 122q33 185 160 294.5t309 109.5q201 0 325 -116t124 -319q0 -59 -12 -126l-23 -123q-36 -190 -158 -298.5t-323 -108.5q-189 0 -312 112.5t-123 307.5zM394 416q0 -115 67 -185.5t183 -70.5q107 0 175.5 72t91.5 202l21 122q5 36 5 92 q0 110 -66.5 180t-179.5 70q-103 0 -173.5 -68t-92.5 -196l-21 -114q-10 -62 -10 -104zM492 1556h211l189 -345h-159z" />
<glyph unicode="&#xf3;" horiz-adv-x="1154" d="M192 403q0 88 11 145l22 122q33 185 160 294.5t309 109.5q201 0 325 -116t124 -319q0 -59 -12 -126l-23 -123q-36 -190 -158 -298.5t-323 -108.5q-189 0 -312 112.5t-123 307.5zM394 416q0 -115 67 -185.5t183 -70.5q107 0 175.5 72t91.5 202l21 122q5 36 5 92 q0 110 -66.5 180t-179.5 70q-103 0 -173.5 -68t-92.5 -196l-21 -114q-10 -62 -10 -104zM645 1211l283 347h208l-338 -347h-153z" />
<glyph unicode="&#xf4;" horiz-adv-x="1154" d="M192 403q0 88 11 145l22 122q33 185 160 294.5t309 109.5q201 0 325 -116t124 -319q0 -59 -12 -126l-23 -123q-36 -190 -158 -298.5t-323 -108.5q-189 0 -312 112.5t-123 307.5zM394 416q0 -115 67 -185.5t183 -70.5q107 0 175.5 72t91.5 202l21 122q5 36 5 92 q0 110 -66.5 180t-179.5 70q-103 0 -173.5 -68t-92.5 -196l-21 -114q-10 -62 -10 -104zM463 1208l308 368h141l182 -368h-164l-104 245h-7l-190 -245h-166z" />
<glyph unicode="&#xf5;" horiz-adv-x="1154" d="M192 403q0 88 11 145l22 122q33 185 160 294.5t309 109.5q201 0 325 -116t124 -319q0 -59 -12 -126l-23 -123q-36 -190 -158 -298.5t-323 -108.5q-189 0 -312 112.5t-123 307.5zM394 416q0 -115 67 -185.5t183 -70.5q107 0 175.5 72t91.5 202l21 122q5 36 5 92 q0 110 -66.5 180t-179.5 70q-103 0 -173.5 -68t-92.5 -196l-21 -114q-10 -62 -10 -104zM434 1186q9 115 65.5 184.5t144.5 69.5q32 0 57.5 -8t47.5 -27t32.5 -31t31.5 -38q2 -2 7.5 -9.5t7 -10t6.5 -9t7.5 -8.5t7 -7t7.5 -7l7.5 -5t8.5 -4t9 -2t10 -1q35 0 56 34.5t29 81.5 h130q-5 -103 -67 -179t-153 -76q-49 0 -82.5 22.5t-63.5 62.5q-2 3 -15.5 21t-18 23t-15.5 15.5t-22 14t-24 3.5q-36 0 -54 -30t-27 -80h-130z" />
<glyph unicode="&#xf6;" horiz-adv-x="1154" d="M192 403q0 88 11 145l22 122q33 185 160 294.5t309 109.5q201 0 325 -116t124 -319q0 -59 -12 -126l-23 -123q-36 -190 -158 -298.5t-323 -108.5q-189 0 -312 112.5t-123 307.5zM394 416q0 -115 67 -185.5t183 -70.5q107 0 175.5 72t91.5 202l21 122q5 36 5 92 q0 110 -66.5 180t-179.5 70q-103 0 -173.5 -68t-92.5 -196l-21 -114q-10 -62 -10 -104zM495 1303q0 49 32 80t81 31q50 0 82 -31t32 -80q0 -47 -32 -78t-82 -31q-49 0 -81 31t-32 78zM865 1303q0 49 31 80t79 31q52 0 84 -30.5t32 -80.5q0 -48 -32.5 -78.5t-83.5 -30.5 q-47 0 -78.5 31t-31.5 78z" />
<glyph unicode="&#xf7;" horiz-adv-x="1181" d="M185 465l28 169h977l-29 -169h-976zM483 146q0 62 41.5 102.5t103.5 40.5q65 0 106.5 -39.5t41.5 -100.5q0 -62 -42 -101t-108 -39q-62 0 -102.5 38.5t-40.5 98.5zM585 955q0 63 41 103t104 40q65 0 106 -39.5t41 -100.5t-42 -100.5t-107 -39.5q-62 0 -102.5 38.5 t-40.5 98.5z" />
<glyph unicode="&#xf8;" horiz-adv-x="1154" d="M93 92l135 121q-38 85 -38 190q0 82 12 145l22 122q33 185 159.5 294.5t308.5 109.5q221 0 345 -136l123 111l87 -99l-140 -125q34 -83 34 -186q0 -64 -11 -126l-24 -123q-37 -190 -158 -298.5t-322 -108.5q-204 0 -326 124l-126 -113zM393 426q0 -29 6 -56l494 426 q-67 102 -204 102q-103 0 -173 -68t-93 -196l-20 -114q-10 -56 -10 -94zM444 249q67 -89 198 -89q107 0 175.5 72t91.5 202l21 122q5 29 5 76q0 18 -3 35z" />
<glyph unicode="&#xf9;" horiz-adv-x="1198" d="M214 308q0 75 20 181l104 567h203l-103 -572q-13 -80 -13 -128q0 -90 51 -140.5t148 -50.5q119 0 191.5 80t95.5 211l105 600h199l-185 -1056h-194l31 175h-14q-39 -85 -119 -138.5t-190 -53.5q-156 0 -243 90.5t-87 234.5zM519 1556h211l189 -345h-159z" />
<glyph unicode="&#xfa;" horiz-adv-x="1198" d="M214 308q0 75 20 181l104 567h203l-103 -572q-13 -80 -13 -128q0 -90 51 -140.5t148 -50.5q119 0 191.5 80t95.5 211l105 600h199l-185 -1056h-194l31 175h-14q-39 -85 -119 -138.5t-190 -53.5q-156 0 -243 90.5t-87 234.5zM672 1211l283 347h208l-338 -347h-153z" />
<glyph unicode="&#xfb;" horiz-adv-x="1198" d="M214 308q0 75 20 181l104 567h203l-103 -572q-13 -80 -13 -128q0 -90 51 -140.5t148 -50.5q119 0 191.5 80t95.5 211l105 600h199l-185 -1056h-194l31 175h-14q-39 -85 -119 -138.5t-190 -53.5q-156 0 -243 90.5t-87 234.5zM490 1208l308 368h141l182 -368h-164l-104 245 h-7l-190 -245h-166z" />
<glyph unicode="&#xfc;" horiz-adv-x="1198" d="M214 308q0 75 20 181l104 567h203l-103 -572q-13 -80 -13 -128q0 -90 51 -140.5t148 -50.5q119 0 191.5 80t95.5 211l105 600h199l-185 -1056h-194l31 175h-14q-39 -85 -119 -138.5t-190 -53.5q-156 0 -243 90.5t-87 234.5zM522 1303q0 49 32 80t81 31q50 0 82 -31 t32 -80q0 -47 -32 -78t-82 -31q-49 0 -81 31t-32 78zM892 1303q0 49 31 80t79 31q52 0 84 -30.5t32 -80.5q0 -48 -32.5 -78.5t-83.5 -30.5q-47 0 -78.5 31t-31.5 78z" />
<glyph unicode="&#xfd;" horiz-adv-x="1060" d="M72 -341l35 167q40 -10 80 -10q84 0 130 37.5t81 111.5l23 53l-191 1038h212l121 -836h12l386 836h216l-531 -1046q-1 -3 -20 -37t-19 -35q-34 -66 -62.5 -109.5t-64.5 -81t-78 -58t-97.5 -32t-128.5 -11.5q-52 0 -104 13zM608 1211l283 347h208l-338 -347h-153z" />
<glyph unicode="&#xfe;" horiz-adv-x="1206" d="M103 -357l317 1794h198l-97 -557h13q85 191 304 191q164 0 262 -106.5t98 -294.5q0 -67 -10 -123l-31 -167q-31 -178 -142.5 -287.5t-279.5 -109.5q-133 0 -216.5 65.5t-105.5 157.5h-8l-98 -563h-204zM452 433q0 -124 73.5 -194.5t173.5 -70.5q102 0 174 73t93 188 l25 133q4 25 4 74q0 125 -61.5 192t-168.5 67q-116 0 -190.5 -75t-95.5 -204l-22 -129q-5 -24 -5 -54z" />
<glyph unicode="&#xff;" horiz-adv-x="1060" d="M72 -341l35 167q40 -10 80 -10q84 0 130 37.5t81 111.5l23 53l-191 1038h212l121 -836h12l386 836h216l-531 -1046q-1 -3 -20 -37t-19 -35q-34 -66 -62.5 -109.5t-64.5 -81t-78 -58t-97.5 -32t-128.5 -11.5q-52 0 -104 13zM458 1303q0 49 32 80t81 31q50 0 82 -31t32 -80 q0 -47 -32 -78t-82 -31q-49 0 -81 31t-32 78zM828 1303q0 49 31 80t79 31q52 0 84 -30.5t32 -80.5q0 -48 -32.5 -78.5t-83.5 -30.5q-47 0 -78.5 31t-31.5 78z" />
<glyph unicode="&#x152;" horiz-adv-x="2025" d="M228 488q0 97 14 177l36 194q44 251 205 390t396 139q136 0 260 -53.5t163 -142.5l33 173h804l-32 -187h-625l-72 -394h589l-30 -180h-589l-76 -416h625l-31 -188h-804l19 100q-50 -63 -157.5 -92.5t-211.5 -29.5q-236 0 -376 130.5t-140 379.5zM441 513q0 -167 94 -257 t252 -90q145 0 240 79t121 224l41 252q4 22 11.5 92.5t7.5 83.5q0 128 -96 214.5t-243 86.5q-145 0 -246 -92.5t-134 -267.5l-35 -185q-13 -73 -13 -140z" />
<glyph unicode="&#x153;" horiz-adv-x="1839" d="M191 410q0 64 11 136l23 128q31 182 155.5 291t304.5 109q125 0 224.5 -53.5t144.5 -156.5h4q118 210 378 210q112 0 196 -40.5t129 -106.5t63.5 -143t8.5 -157q0 -12 -12.5 -79.5t-12.5 -68.5h-685q0 -1 -2.5 -13t-2.5 -14q-4 -24 -4 -56q0 -104 57.5 -171.5 t179.5 -67.5q88 0 146.5 35.5t74.5 89.5h198q-18 -119 -137.5 -210t-288.5 -91q-124 0 -215.5 53.5t-132.5 154.5h-4q-48 -97 -145.5 -151.5t-226.5 -54.5q-186 0 -307.5 111t-121.5 316zM392 419q0 -116 66 -187.5t180 -71.5q111 0 179.5 71.5t91.5 202.5l21 122q5 30 5 83 q0 117 -66 188t-179 71q-104 0 -174 -67.5t-93 -196.5l-21 -114q-10 -62 -10 -101zM1151 624h486q3 9 3 21q20 110 -35.5 184.5t-173.5 74.5q-97 0 -170 -56t-97 -164z" />
<glyph unicode="&#x178;" horiz-adv-x="1158" d="M248 1366h220l232 -612h11l438 612h236l-603 -814l-99 -552h-207l98 548zM566 1584q0 50 30.5 80t79.5 30q48 0 79 -30t31 -80q0 -46 -31 -75.5t-79 -29.5t-79 29.5t-31 75.5zM925 1584q0 49 30.5 79.5t77.5 30.5q50 0 81 -30t31 -80q0 -47 -31 -76t-81 -29 q-46 0 -77 29.5t-31 75.5z" />
<glyph unicode="&#x2c6;" horiz-adv-x="1000" d="M396 1195l308 368h141l182 -368h-164l-104 245h-7l-190 -245h-166z" />
<glyph unicode="&#x2dc;" horiz-adv-x="1000" d="M398 1223q9 115 65.5 184.5t144.5 69.5q32 0 57.5 -8t47.5 -27t32.5 -31t31.5 -38q2 -2 7.5 -9.5t7 -10t6.5 -9t7.5 -8.5t7 -7t7.5 -7l7.5 -5t8.5 -4t9 -2t10 -1q35 0 56 34.5t29 81.5h130q-5 -103 -67 -179t-153 -76q-49 0 -82.5 22.5t-63.5 62.5q-2 3 -15.5 21t-18 23 t-15.5 15.5t-22 14t-24 3.5q-36 0 -54 -30t-27 -80h-130z" />
<glyph unicode="&#x2000;" horiz-adv-x="860" />
<glyph unicode="&#x2001;" horiz-adv-x="1720" />
<glyph unicode="&#x2002;" horiz-adv-x="860" />
<glyph unicode="&#x2003;" horiz-adv-x="1720" />
<glyph unicode="&#x2004;" horiz-adv-x="573" />
<glyph unicode="&#x2005;" horiz-adv-x="430" />
<glyph unicode="&#x2006;" horiz-adv-x="286" />
<glyph unicode="&#x2007;" horiz-adv-x="286" />
<glyph unicode="&#x2008;" horiz-adv-x="215" />
<glyph unicode="&#x2009;" horiz-adv-x="344" />
<glyph unicode="&#x200a;" horiz-adv-x="95" />
<glyph unicode="&#x2010;" horiz-adv-x="867" d="M201 466l31 193h633l-32 -193h-632z" />
<glyph unicode="&#x2011;" horiz-adv-x="867" d="M201 466l31 193h633l-32 -193h-632z" />
<glyph unicode="&#x2012;" horiz-adv-x="867" d="M201 466l31 193h633l-32 -193h-632z" />
<glyph unicode="&#x2013;" horiz-adv-x="1209" d="M83 466l32 193h1208l-31 -193h-1209z" />
<glyph unicode="&#x2014;" horiz-adv-x="2048" d="M84 466l31 193h2048l-32 -193h-2047z" />
<glyph unicode="&#x2018;" horiz-adv-x="647" d="M295 800l272 565h168l-211 -565h-229z" />
<glyph unicode="&#x2019;" horiz-adv-x="648" d="M295 800l211 565h229l-272 -565h-168z" />
<glyph unicode="&#x201a;" horiz-adv-x="647" d="M73 -459l211 565h229l-272 -565h-168z" />
<glyph unicode="&#x201c;" horiz-adv-x="1054" d="M295 800l221 565h179l-178 -565h-222zM746 800l220 565h175l-173 -565h-222z" />
<glyph unicode="&#x201d;" horiz-adv-x="1054" d="M295 800l173 565h222l-220 -565h-175zM742 800l177 565h222l-220 -565h-179z" />
<glyph unicode="&#x201e;" horiz-adv-x="1053" d="M73 -458l173 565h222l-220 -565h-175zM520 -458l177 565h222l-220 -565h-179z" />
<glyph unicode="&#x2022;" horiz-adv-x="983" d="M287 605q0 130 90 222t218 92t218.5 -92t90.5 -222q0 -128 -91 -220t-218 -92t-217.5 92t-90.5 220z" />
<glyph unicode="&#x2026;" horiz-adv-x="1572" d="M158 131q0 69 44.5 114t108.5 45q66 0 109 -42.5t43 -110.5t-45 -111.5t-112 -43.5q-62 0 -105 42t-43 107zM661 131q0 69 44.5 114t108.5 45q66 0 109 -42.5t43 -110.5t-45 -111.5t-112 -43.5q-62 0 -105 42t-43 107zM1164 131q0 69 44.5 114t108.5 45q66 0 109 -42.5 t43 -110.5t-45 -111.5t-112 -43.5q-62 0 -105 42t-43 107z" />
<glyph unicode="&#x202f;" horiz-adv-x="344" />
<glyph unicode="&#x2039;" horiz-adv-x="856" d="M247 557l2 8l415 404h213l-418 -409l-1 -6l258 -399h-203z" />
<glyph unicode="&#x203a;" horiz-adv-x="856" d="M178 155l401 409l1 6l-259 399h204l272 -404l-1 -8l-406 -402h-212z" />
<glyph unicode="&#x205f;" horiz-adv-x="430" />
<glyph unicode="&#x20ac;" horiz-adv-x="1155" d="M99 479l23 138h144q7 82 17 149h-134l24 138h134q108 489 521 489q113 0 202 -35.5t142.5 -95t81.5 -133.5t28 -156q0 -37 -5 -55h-199q2 19 0 38q-20 241 -254 241q-48 0 -88.5 -12t-82.5 -41.5t-76.5 -90.5t-56.5 -149h315l-23 -138h-320q-8 -50 -16 -149h308l-23 -138 h-287q2 -161 61.5 -234.5t195.5 -73.5q125 0 184.5 57.5t82.5 163.5h201q-6 -35 -7 -41q-11 -58 -30.5 -109t-56.5 -101.5t-87 -86.5t-124.5 -58.5t-165.5 -22.5q-216 0 -340.5 125t-125.5 380v1h-163z" />
<glyph unicode="&#x2122;" horiz-adv-x="1751" d="M332 1235l21 130h615l-21 -130h-238l-101 -560h-143l101 560h-234zM989 675l122 690h152l148 -436h9l304 436h156l-122 -690h-126l83 464h-10l-281 -403h-79l-137 403h-9l-83 -464h-127z" />
<glyph unicode="&#x25fc;" horiz-adv-x="1055" d="M0 0v1055h1055v-1055h-1055z" />
<glyph unicode="&#xfb01;" horiz-adv-x="1359" d="M216 869l28 170h171l11 74q28 166 120.5 244.5t263.5 78.5q74 0 129 -11l-27 -160q-30 7 -94 7q-88 0 -131.5 -38.5t-58.5 -118.5l-13 -76h239l-30 -170h-236l-155 -869h-202l155 869h-170zM975 0l187 1056h203l-186 -1056h-204zM1165 1370q0 60 39.5 98t99.5 38 q62 0 100 -37.5t38 -95.5q0 -59 -40 -96.5t-102 -37.5q-59 0 -97 37t-38 94z" />
<glyph unicode="&#xfb02;" horiz-adv-x="1365" d="M216 869l28 170h171l11 74q28 166 120.5 244.5t263.5 78.5q74 0 129 -11l-27 -160q-30 7 -94 7q-88 0 -131.5 -38.5t-58.5 -118.5l-13 -76h239l-30 -170h-236l-155 -869h-202l155 869h-170zM980 0l252 1423h203l-251 -1423h-204z" />
</font>
</defs>
</svg>
