<?xml version="1.0" standalone="no"?>
<!DOCTYPE svg PUBLIC "-//W3C//DTD SVG 1.1//EN" "http://www.w3.org/Graphics/SVG/1.1/DTD/svg11.dtd" >
<svg xmlns="http://www.w3.org/2000/svg">
<metadata></metadata>
<defs>
<font id="san_francisco_textSBdIt" horiz-adv-x="1125" >
<font-face units-per-em="2048" ascent="1638" descent="-410" />
<missing-glyph horiz-adv-x="455" />
<glyph horiz-adv-x="0" />
<glyph unicode="&#xd;" horiz-adv-x="0" />
<glyph unicode=" "  horiz-adv-x="455" />
<glyph unicode="&#x09;" horiz-adv-x="455" />
<glyph unicode="&#xa0;" horiz-adv-x="455" />
<glyph unicode="!" horiz-adv-x="627" d="M176 129q0 68 46.5 111t120.5 43t119.5 -41.5t45.5 -108.5t-47 -109.5t-123 -42.5q-71 0 -116.5 41.5t-45.5 106.5zM286 429l132 937h262l-202 -937h-192z" />
<glyph unicode="&#x22;" horiz-adv-x="1076" d="M361 824l62 541h259l-127 -541h-194zM814 824l62 541h259l-127 -541h-194z" />
<glyph unicode="#" horiz-adv-x="1268" d="M157 373l51 184h200l96 270h-191l50 183h192l119 355h187l-119 -355h243l114 355h187l-119 -355h210l-50 -183h-207l-96 -270h198l-50 -184h-199q-16 -40 -61 -184.5t-63 -188.5h-187l123 373h-242q-16 -42 -61 -186.5t-62 -186.5h-187l123 373h-199zM595 557h242l95 270 h-242z" />
<glyph unicode="$" horiz-adv-x="1190" d="M161 347q0 25 2 36h198q-1 -5 -1 -14q0 -65 46.5 -120t124.5 -79l101 449q-36 14 -48 18q-294 120 -294 361q0 121 66 211t174 135t241 45h34l28 124h130l-33 -144q134 -33 216 -121t82 -220q0 -4 -0.5 -14t-0.5 -11h-186q0 13 -1 21q-5 61 -45.5 106.5t-103.5 68.5 l-95 -418q14 -3 43 -16q51 -20 89 -38t78 -42t67.5 -52t50.5 -63t34 -79.5t11 -97.5q-1 -195 -145 -304.5t-372 -109.5q-24 0 -36 2l-25 -110h-128l29 126q-155 34 -243 129t-88 221zM506 1014q0 -64 39 -106.5t120 -76.5q2 -1 6.5 -2.5t6.5 -2.5l89 395h-9q-100 0 -176 -55 t-76 -152zM654 148h13q127 0 209.5 59t82.5 159q0 77 -50.5 123.5t-148.5 83.5q-4 2 -10 4z" />
<glyph unicode="%" horiz-adv-x="1543" d="M186 971q0 44 7 80l6 39q19 128 100.5 207t200.5 79q120 0 191 -81.5t71 -210.5q0 -32 -6 -78l-6 -40q-19 -126 -100.5 -207t-203.5 -81q-121 0 -190.5 81t-69.5 212zM228 0l568 683l568 682h189l-567 -682l-568 -683h-190zM343 963q0 -64 27.5 -105t81.5 -41 q56 0 94 43.5t48 122.5l6 42q5 35 5 60q0 67 -27.5 109t-81.5 42q-56 0 -93.5 -46t-48.5 -123l-6 -37q-5 -35 -5 -67zM1021 283q0 40 6 79l6 39q20 129 101 208t200 79q120 0 191 -81.5t71 -211.5q0 -33 -6 -77l-6 -40q-19 -126 -100.5 -207t-202.5 -81q-122 0 -191 80.5 t-69 212.5zM1177 275q0 -65 27.5 -105.5t81.5 -40.5q56 0 94 43.5t48 122.5l6 42q5 35 5 59q0 66 -27 108.5t-81 42.5q-57 0 -94.5 -45.5t-48.5 -123.5l-6 -36q-5 -35 -5 -67z" />
<glyph unicode="&#x26;" horiz-adv-x="1417" d="M182 367q0 62 20 116t52.5 95t81.5 78.5t98.5 64.5t112.5 54l28 11q-62 90 -93 160.5t-31 141.5q0 144 111 226.5t271 82.5q164 0 263 -81t99 -208q0 -66 -24.5 -121.5t-71 -98.5t-96 -74t-117.5 -63q-10 -7 -41 -20l247 -346q82 113 106 249q12 56 14 110h200 q-6 -71 -21 -150q-35 -199 -189 -369l159 -225l-251 -1l-67 97q-182 -115 -394 -115q-221 0 -344 109.5t-123 276.5zM407 380q0 -88 66.5 -154t193.5 -66q76 0 149.5 23t126.5 65l-276 396l-22 -9q-238 -102 -238 -255zM661 1075q0 -82 92 -210q1 0 10 3.5t10 4.5 q217 87 217 222q0 62 -47 97.5t-113 35.5q-70 0 -119.5 -40.5t-49.5 -112.5z" />
<glyph unicode="'" horiz-adv-x="623" d="M361 824l62 541h259l-127 -541h-194z" />
<glyph unicode="(" horiz-adv-x="718" d="M229 404q7 144 36.5 277t70 233t95 189t105.5 149.5t107 110.5h223q-41 -36 -84.5 -87.5t-98 -139t-97.5 -187.5t-75.5 -240t-39.5 -290q-16 -228 17 -383.5t102 -299.5h-225q-70 127 -111 297.5t-25 370.5z" />
<glyph unicode=")" horiz-adv-x="717" d="M47 -264q45 46 87 98t97.5 143.5t97 190.5t74 239t39.5 290q29 396 -120 666h222q170 -307 140 -652q-9 -178 -50.5 -340.5t-104 -282.5t-126.5 -206t-132 -146h-224z" />
<glyph unicode="*" horiz-adv-x="984" d="M265 919l304 88l-267 168l104 138l230 -221l13 318l169 -25l-76 -308l282 150l64 -162l-306 -87l269 -169l-104 -138l-230 219l-13 -316l-169 25l74 306l-280 -148z" />
<glyph unicode="+" horiz-adv-x="1204" d="M183 449l35 204h394l74 416h208l-74 -416h396l-36 -204h-395l-76 -429h-208l76 429h-394z" />
<glyph unicode="," horiz-adv-x="554" d="M13 -394l248 611h265l-317 -611h-196z" />
<glyph unicode="-" horiz-adv-x="868" d="M199 453l36 217h633l-37 -217h-632z" />
<glyph unicode="." horiz-adv-x="575" d="M147 137q0 76 48.5 123.5t119.5 47.5q70 0 116.5 -44.5t46.5 -115.5q0 -74 -49.5 -120.5t-122.5 -46.5q-68 0 -113.5 43.5t-45.5 112.5z" />
<glyph unicode="/" horiz-adv-x="751" d="M3 -282l725 1705h216l-726 -1705h-215z" />
<glyph unicode="0" horiz-adv-x="1252" d="M232 514q0 93 16 188l15 98q43 274 184 432.5t363 158.5q212 0 333 -140.5t121 -405.5q0 -99 -15 -181l-17 -100q-23 -131 -68 -237.5t-111.5 -186.5t-160 -123.5t-207.5 -43.5q-213 0 -333 139t-120 402zM468 498q0 -153 54.5 -234t159.5 -81q119 0 199 101.5t114 303.5 l18 116q15 89 15 168q0 142 -55.5 226t-162.5 84q-232 0 -308 -406l-19 -115q-15 -82 -15 -163z" />
<glyph unicode="1" horiz-adv-x="972" d="M305 946l36 231l338 188h250l-240 -1365h-245l201 1132h-15z" />
<glyph unicode="2" horiz-adv-x="1172" d="M160 0l30 181l559 515q46 42 75 72t63 72.5t51 84.5t17 84q0 75 -54 130t-151 55q-96 0 -157 -55t-68 -135l-1 -8h-224l1 21q8 163 135 271t325 108q121 0 217.5 -42.5t154.5 -127t58 -198.5q0 -69 -21 -132.5t-64 -122.5t-87.5 -105t-111.5 -106l-384 -345l-3 -14h595 l-36 -203h-919z" />
<glyph unicode="3" horiz-adv-x="1183" d="M166 340q0 22 4 48h231q-1 -5 -1 -24q0 -72 68 -127.5t175 -55.5q108 0 179.5 59.5t71.5 156.5t-70.5 157.5t-178.5 63.5l-93 2l31 191q35 -2 107 -2q114 0 193.5 55t78.5 153q0 85 -62 134.5t-155 49.5q-87 0 -138.5 -41.5t-66.5 -103.5h-232q18 156 141 248t306 92 q82 0 157.5 -20t139 -60t102.5 -108.5t40 -157.5q1 -144 -88.5 -234t-214.5 -101l-2 -14q120 -25 186 -109.5t66 -207.5q0 -124 -69 -218t-182.5 -142t-252.5 -48q-133 0 -240 45t-169 128.5t-62 190.5z" />
<glyph unicode="4" horiz-adv-x="1263" d="M163 264l31 205q92 137 224 311.5t210.5 273.5t248.5 311h351l-156 -901h200l-33 -200h-201l-47 -264h-227l47 264h-648zM426 464h418l128 701h-15q-23 -29 -127 -161.5t-150 -191.5t-121.5 -160t-131.5 -180z" />
<glyph unicode="5" horiz-adv-x="1204" d="M208 323q0 29 6 61h220q-2 -14 -2 -21q0 -70 61.5 -128.5t166.5 -58.5q123 0 205 83t83 213q0 111 -63 175.5t-165 64.5q-63 0 -123.5 -25t-95.5 -70h-224l180 748h773l-31 -203h-576l-94 -371h15q40 49 113.5 76t152.5 27q78 0 145.5 -27.5t118.5 -78t80.5 -128 t30.5 -172.5q0 -106 -35.5 -198.5t-101.5 -163t-168 -111t-227 -40.5q-109 0 -196.5 31.5t-140.5 82.5t-80.5 111t-27.5 123z" />
<glyph unicode="6" horiz-adv-x="1225" d="M236 540q0 276 94 484q36 77 83.5 140t111.5 115t148 80.5t182 28.5q95 0 174 -30t129 -79.5t77.5 -108.5t29.5 -120q2 -14 0 -26h-219q-6 68 -64.5 114.5t-143.5 46.5q-140 0 -233.5 -125.5t-116.5 -329.5h15q37 64 111 109t183 45q107 0 195.5 -47.5t143.5 -141.5 t55 -217q0 -212 -135.5 -352t-350.5 -140q-224 0 -346.5 148.5t-122.5 405.5zM477 443q0 -112 65 -187t168 -75q112 0 179 80.5t67 204.5q0 109 -66 175.5t-168 66.5q-109 0 -177 -77t-68 -188z" />
<glyph unicode="7" horiz-adv-x="1130" d="M184 0l741 1147l2 15h-653l29 203h917l-28 -195l-739 -1170h-269z" />
<glyph unicode="8" horiz-adv-x="1250" d="M198 365q0 84 32.5 153t85.5 112t113.5 68.5t124.5 32.5l3 16q-200 96 -200 290q0 111 65 194t167.5 124t223.5 41t221.5 -40t164 -121.5t63.5 -190.5q0 -69 -26 -128.5t-68 -99.5t-93 -65t-105 -31l-2 -16q47 -14 88.5 -39.5t78.5 -64.5t59 -97t22 -128 q0 -98 -43.5 -176t-116.5 -125.5t-162.5 -72.5t-187.5 -25q-73 0 -143.5 13.5t-137 44t-116.5 74.5t-80.5 110.5t-30.5 146.5zM445 383q0 -104 75 -162.5t183 -58.5q115 0 193.5 66.5t78.5 172.5t-77.5 167t-183.5 61q-114 0 -191.5 -69.5t-77.5 -176.5zM590 1001 q0 -88 60.5 -140t150.5 -52q97 0 162 60t65 153q0 88 -60.5 140t-149.5 52q-99 0 -163.5 -61t-64.5 -152z" />
<glyph unicode="9" horiz-adv-x="1215" d="M210 323q-2 17 0 32h221q2 -74 65 -120t154 -46q134 0 219 121t113 338h-13q-33 -62 -110.5 -109t-183.5 -47q-164 0 -278.5 111.5t-114.5 298.5q0 206 135.5 347t349.5 141q217 0 337.5 -139.5t120.5 -394.5q0 -230 -64 -415q-139 -455 -522 -455q-183 0 -303.5 99 t-125.5 238zM523 912q0 -107 62.5 -173t162.5 -66q110 0 176.5 77t66.5 186q0 112 -63 184t-165 72q-105 0 -172.5 -81t-67.5 -199z" />
<glyph unicode=":" horiz-adv-x="580" d="M149 137q0 76 49 123.5t120 47.5q70 0 116 -44.5t46 -115.5q0 -74 -49 -120.5t-122 -46.5q-68 0 -114 43.5t-46 112.5zM268 813q0 76 49 123.5t120 47.5q70 0 116 -44.5t46 -115.5q0 -74 -49 -120.5t-123 -46.5q-67 0 -113 43.5t-46 112.5z" />
<glyph unicode=";" horiz-adv-x="565" d="M-12 -394l248 611h265l-318 -611h-195zM266 813q0 76 49 123.5t120 47.5q70 0 116 -44.5t46 -115.5q0 -74 -49.5 -120.5t-122.5 -46.5q-67 0 -113 43.5t-46 112.5z" />
<glyph unicode="&#x3c;" horiz-adv-x="1077" d="M237 426l29 171l835 519l-43 -252l-600 -349l-2 -12l486 -323l-42 -240z" />
<glyph unicode="=" horiz-adv-x="1236" d="M209 237l34 205h901l-31 -205h-904zM282 660l35 204h900l-35 -204h-900z" />
<glyph unicode="&#x3e;" horiz-adv-x="1077" d="M153 -60l42 250l602 330l2 12l-483 341l41 231l658 -507l-28 -167z" />
<glyph unicode="?" horiz-adv-x="1080" d="M275 1019q14 164 128.5 270.5t317.5 106.5q119 0 215 -37.5t156.5 -117.5t60.5 -191q0 -53 -14.5 -99.5t-36.5 -80t-57 -65.5t-65.5 -53t-71.5 -44q-6 -3 -32 -18t-31.5 -18t-26.5 -16.5t-26.5 -18t-21.5 -17.5t-21 -20.5t-15 -21t-14 -26t-8.5 -28.5t-6.5 -33l-9 -56 h-217l9 61q13 120 66 188.5t174 137.5q36 20 46.5 26.5t41 26.5t42 33t29 34t24 44t6.5 50q0 77 -59 120.5t-145 43.5q-93 0 -148.5 -51t-68.5 -130h-221zM389 129q0 68 46.5 111t119.5 43q74 0 120 -41.5t46 -108.5t-47 -109.5t-123 -42.5q-71 0 -116.5 41.5t-45.5 106.5z " />
<glyph unicode="@" horiz-adv-x="1751" d="M213 412q0 -167 56.5 -299t157 -216t236 -127.5t297.5 -43.5q119 0 188 21l24 142q-66 -19 -188 -19q-132 0 -240.5 33t-191 99t-128.5 173.5t-46 247.5q0 75 13 146l8 41q48 263 224.5 413.5t419.5 150.5q160 0 287 -57.5t202 -169.5t75 -261q0 -64 -6 -108l-5 -32 q-23 -141 -80.5 -209t-131.5 -68q-44 0 -72 25t-28 66q0 18 4 36l82 469h-169l-23 -132h-8q-7 63 -61.5 110.5t-142.5 47.5q-119 0 -200.5 -79.5t-107.5 -222.5l-16 -88q-8 -50 -8 -94q0 -121 72 -195.5t186 -74.5q90 0 149.5 39.5t84.5 101.5h10q14 -60 78.5 -101.5 t150.5 -41.5q141 0 247 98.5t138 284.5l9 49q8 51 8 130q0 129 -50.5 243t-142.5 198t-229 133t-301 49q-309 0 -528.5 -182.5t-276.5 -503.5l-10 -53q-16 -92 -16 -169zM818 430q0 35 7 70l11 58q19 91 61.5 136t100.5 45q64 0 101 -43t37 -104q0 -21 -5 -51l-14 -82 q-16 -90 -58 -132.5t-102 -42.5q-68 0 -103.5 41t-35.5 105z" />
<glyph unicode="A" horiz-adv-x="1289" d="M39 0l702 1365h285l224 -1365h-257l-51 365h-469l-182 -365h-252zM560 554h362l-73 561h-16z" />
<glyph unicode="B" horiz-adv-x="1303" d="M175 0l241 1365h511q104 0 181.5 -25t122 -68.5t65.5 -96.5t21 -115q0 -132 -87 -224.5t-198 -113.5l-2 -14q108 -16 179 -94.5t71 -201.5q0 -195 -150 -303.5t-409 -108.5h-546zM448 187h269q139 0 228 63t89 175q0 91 -65.5 140.5t-198.5 49.5h-245zM556 795h238 q120 0 196.5 60t76.5 165q0 161 -226 161h-216z" />
<glyph unicode="C" horiz-adv-x="1314" d="M222 516q0 85 9 136l42 217q46 250 200.5 386.5t384.5 136.5q118 0 217 -36t162.5 -96.5t98.5 -136.5t35 -158q0 -45 -7 -66h-232q2 29 1 44q-7 92 -79 162.5t-199 70.5q-271 0 -339 -347l-34 -168q-13 -61 -13 -145q0 -157 83.5 -239.5t218.5 -82.5q121 0 194.5 60 t91.5 153h233q0 -20 -6 -38q-10 -60 -35 -115.5t-69.5 -107t-103.5 -89.5t-142.5 -60.5t-181.5 -22.5q-113 0 -208.5 33.5t-168 98.5t-113 170t-40.5 240z" />
<glyph unicode="D" horiz-adv-x="1372" d="M175 0l241 1365h438q259 0 400 -143.5t141 -384.5q0 -74 -10 -141q-2 -14 -13 -75t-14 -70q-52 -265 -242.5 -408t-503.5 -143h-437zM454 208h145q207 0 342 92t173 276q2 9 12.5 64.5t11.5 64.5q8 54 8 117q0 169 -96 252t-273 83h-152z" />
<glyph unicode="E" horiz-adv-x="1155" d="M175 0l241 1365h854l-35 -208h-611l-67 -363h579l-32 -195h-580l-71 -391h615l-35 -208h-858z" />
<glyph unicode="F" horiz-adv-x="1127" d="M175 0l242 1365h852l-35 -207h-609l-73 -399h559l-33 -203h-560l-100 -556h-243z" />
<glyph unicode="G" horiz-adv-x="1368" d="M220 508q0 86 13 153l41 213q46 246 203 382t394 136q128 0 230.5 -38t164 -100t94 -135.5t32.5 -150.5q0 -29 -2 -36h-235q0 18 -1 27q-2 28 -12 56.5t-32 58.5t-53.5 53t-80.5 37.5t-108 14.5q-141 0 -231 -89.5t-123 -257.5l-35 -176q-13 -83 -13 -143 q0 -160 86.5 -244t222.5 -84q114 0 201.5 56t105.5 151l26 141h-304l32 182h535l-57 -323q-34 -194 -184 -306t-369 -112q-112 0 -207 31.5t-171 94t-119.5 167.5t-43.5 241z" />
<glyph unicode="H" horiz-adv-x="1441" d="M175 0l241 1365h243l-98 -560h604l99 560h243l-241 -1365h-239l102 596h-604l-107 -596h-243z" />
<glyph unicode="I" horiz-adv-x="593" d="M175 0l241 1365h243l-241 -1365h-243z" />
<glyph unicode="J" horiz-adv-x="1082" d="M115 337q0 40 8 72l229 1q-3 -25 -3 -39q0 -75 49 -124t133 -49q80 0 134 52.5t74 161.5l169 953h243l-173 -981q-37 -211 -155.5 -310t-288.5 -99q-181 0 -300 99t-119 263z" />
<glyph unicode="K" horiz-adv-x="1313" d="M175 0l242 1365h243l-116 -626h14l647 626h300l-626 -613l391 -752h-275l-309 613l-190 -174l-78 -439h-243z" />
<glyph unicode="L" horiz-adv-x="1061" d="M175 0l241 1365h243l-205 -1152h591l-37 -213h-833z" />
<glyph unicode="M" horiz-adv-x="1658" d="M175 0l241 1365h246l239 -872h10l546 872h267l-241 -1365h-224l168 941h-13l-486 -767h-141l-209 767h-13l-165 -941h-225z" />
<glyph unicode="N" horiz-adv-x="1431" d="M175 0l241 1365h211l454 -949h12l170 949h233l-240 -1365h-208l-458 951h-12l-169 -951h-234z" />
<glyph unicode="O" horiz-adv-x="1390" d="M218 490q0 104 13 183l37 202q44 245 203 381t391 136q250 0 402 -143t152 -391q0 -87 -14 -161l-37 -203q-47 -251 -200 -386t-407 -135q-237 0 -388.5 138.5t-151.5 378.5zM464 516q0 -149 84.5 -237.5t234.5 -88.5q137 0 224.5 89.5t120.5 269.5l33 182q8 49 8 126 q0 145 -84 233.5t-231 88.5q-132 0 -221.5 -84.5t-122.5 -262.5l-32 -172q-14 -73 -14 -144z" />
<glyph unicode="P" horiz-adv-x="1222" d="M175 0l241 1366h477q199 0 310.5 -105.5t111.5 -278.5q0 -45 -8 -96q-30 -198 -170.5 -307t-389.5 -109h-245l-84 -470h-243zM537 675h214q148 0 223 62.5t90 162.5q7 35 7 67q0 94 -59 149t-172 55h-214z" />
<glyph unicode="Q" horiz-adv-x="1410" d="M220 497q0 102 14 183l34 188q44 246 202 385t389 139q249 0 401.5 -143.5t152.5 -397.5q0 -79 -15 -161l-35 -189q-49 -269 -224 -401l137 -232h-242l-79 131q-90 -26 -194 -26q-116 0 -214.5 35t-171 100t-114 165t-41.5 224zM462 504q0 -154 85 -241.5t233 -87.5 q36 0 68 6l-141 235h221l76 -126q90 81 121 250l35 194q9 50 9 130q0 146 -85.5 231.5t-229.5 85.5q-134 0 -223 -85.5t-121 -261.5l-34 -180q-14 -75 -14 -150z" />
<glyph unicode="R" horiz-adv-x="1298" d="M175 0l242 1366h496q200 0 309.5 -99t109.5 -270q0 -37 -5 -74q-17 -141 -101 -238t-212 -137l184 -548h-258l-165 514q-19 -1 -61 -1h-204l-91 -513h-244zM543 707h226q147 0 220.5 60t88.5 159q4 32 4 56q0 88 -58 136.5t-170 48.5h-228z" />
<glyph unicode="S" horiz-adv-x="1239" d="M168 354q0 24 3 44h232q-2 -12 -2 -22q0 -83 79.5 -142.5t204.5 -59.5q115 0 190 52.5t75 143.5q0 41 -16.5 72t-51 54.5t-68 38t-87.5 33.5l-86 30q-72 25 -128.5 55t-109 75t-81.5 109.5t-29 144.5q0 128 67.5 222t179 141t251.5 47q200 0 334.5 -103t134.5 -267 q0 -5 -1 -20.5t-1 -16.5h-223l1 5v11q0 87 -72 138.5t-175 51.5q-100 0 -172.5 -48.5t-72.5 -134.5q0 -71 58 -117t169 -86l102 -35q58 -21 99 -39.5t87 -50t74.5 -67.5t47.5 -90t19 -119q0 -135 -69.5 -233.5t-187 -147.5t-268.5 -49q-217 0 -362 106.5t-145 273.5z" />
<glyph unicode="T" d="M250 1154l36 211h1034l-34 -211h-393l-206 -1154h-243l206 1154h-400z" />
<glyph unicode="U" horiz-adv-x="1396" d="M241 420q0 55 13 126l143 819h246l-145 -822q-7 -40 -7 -88q0 -117 74 -188t201 -71q118 0 198 67.5t104 203.5l160 898h246l-166 -945q-39 -219 -186.5 -332.5t-365.5 -113.5q-146 0 -261 50t-184.5 152.5t-69.5 243.5z" />
<glyph unicode="V" horiz-adv-x="1279" d="M274 1365h264l138 -1104h13l529 1104h268l-701 -1365h-287z" />
<glyph unicode="W" horiz-adv-x="1810" d="M297 1365h255l24 -1026h14l447 1026h205l92 -1026h14l392 1026h256l-572 -1365h-236l-106 971h-12l-442 -971h-241z" />
<glyph unicode="X" horiz-adv-x="1259" d="M33 0h278l394 504l11 -1l235 -503h272l-328 682l567 683h-285l-401 -503l-11 1l-215 502h-278l311 -676z" />
<glyph unicode="Y" horiz-adv-x="1178" d="M242 1365h259l212 -600h12l417 600h270l-606 -832l-94 -533h-244l95 528z" />
<glyph unicode="Z" horiz-adv-x="1220" d="M139 0l28 173l839 972l2 16h-666l35 204h962l-28 -177l-837 -968l-2 -15h694l-36 -205h-991z" />
<glyph unicode="[" horiz-adv-x="736" d="M101 -228l281 1593h500l-30 -179h-275l-220 -1234h288l-32 -180h-512z" />
<glyph unicode="\" horiz-adv-x="669" d="M262 1423h215l200 -1705h-215z" />
<glyph unicode="]" horiz-adv-x="736" d="M42 -228l31 180h287l221 1234h-276l31 179h500l-281 -1593h-513z" />
<glyph unicode="^" horiz-adv-x="893" d="M174 797l379 568h212l181 -568h-207l-104 374h-12l-242 -374h-207z" />
<glyph unicode="_" horiz-adv-x="906" d="M-25 -282l34 188h924l-36 -188h-922z" />
<glyph unicode="`" horiz-adv-x="1000" d="M447 1550h232l191 -340h-181z" />
<glyph unicode="a" d="M155 282q0 19 1 31q10 147 122 227.5t309 80.5h265l12 70q4 20 4 40q0 67 -47 113.5t-142 46.5q-76 0 -124.5 -31t-63.5 -81h-226q22 129 134 214t297 85q189 0 294 -93t105 -252q0 -49 -15 -132l-106 -601h-225l25 139h-13q-33 -63 -108 -109t-182 -46 q-135 0 -225.5 80.5t-90.5 217.5zM392 313q0 -64 44.5 -104t120.5 -40q89 0 158.5 52t85.5 132l23 118h-223q-101 0 -155 -45t-54 -113z" />
<glyph unicode="b" horiz-adv-x="1224" d="M158 0l253 1425h238l-99 -547h15q15 35 37.5 66.5t58 62t89 48.5t117.5 18q163 0 260.5 -106.5t97.5 -286.5q0 -77 -10 -137l-28 -150q-33 -189 -145.5 -299t-289.5 -110q-119 0 -204 65t-104 155h-13l-36 -204h-237zM484 435q0 -114 66 -181t155 -67q100 0 166.5 69.5 t86.5 181.5l22 122q5 30 5 89q0 106 -57.5 167.5t-158.5 61.5q-103 0 -171 -72t-89 -195l-20 -119q-5 -28 -5 -57z" />
<glyph unicode="c" horiz-adv-x="1091" d="M184 398q0 67 14 146l23 130q33 199 162 301.5t316 102.5t305 -98.5t118 -255.5q0 -20 -2 -25h-221q1 4 1 13q0 64 -54.5 117t-148.5 53t-161.5 -64t-88.5 -182l-19 -111q-10 -57 -10 -99q0 -116 55 -180.5t165 -64.5q81 0 132.5 34t64.5 88h229q-23 -153 -144.5 -237.5 t-295.5 -84.5q-202 0 -321 112.5t-119 304.5z" />
<glyph unicode="d" horiz-adv-x="1223" d="M182 384q0 79 11 135l30 149q35 187 148 296t289 109q127 0 209 -68.5t95 -150.5h14l99 571h238l-250 -1425h-235l30 174h-15q-11 -33 -34.5 -64.5t-59.5 -60t-89.5 -46.5t-115.5 -18q-165 0 -264.5 109t-99.5 290zM427 421q0 -107 58 -171.5t161 -64.5q102 0 170 71.5 t90 196.5l22 119q6 30 6 62q0 114 -66 178.5t-157 64.5q-101 0 -166 -68.5t-88 -184.5l-24 -120q-6 -32 -6 -83z" />
<glyph unicode="e" horiz-adv-x="1124" d="M185 397q0 65 15 151l23 121q34 197 166.5 303t322.5 106q110 0 195 -38t134 -102t71 -144q15 -57 14 -118q0 -25 -2 -51q0 -6 -9.5 -65t-14.5 -84h-678q-9 -36 -9 -86q0 -94 54 -156t166 -62q82 0 136.5 33.5t69.5 87.5h227q-18 -127 -141 -219.5t-308 -92.5 q-193 0 -312.5 107.5t-119.5 308.5zM450 629h447q3 15 3 24q4 25 4 49q0 70 -38 122q-52 68 -160 68q-88 0 -154.5 -53t-89.5 -155z" />
<glyph unicode="f" horiz-adv-x="789" d="M209 853l33 188h170l13 79q28 168 123.5 245t275.5 77q67 0 140 -11l-30 -175q-40 7 -96 7q-83 0 -125.5 -36t-56.5 -110l-13 -76h238l-33 -188h-234l-151 -853h-236l151 853h-169z" />
<glyph unicode="g" horiz-adv-x="1223" d="M127 -84q0 3 0.5 7.5t0.5 8.5v3h225q0 -1 0.5 -7t0.5 -7q5 -52 66 -91t151 -39q121 0 184 61.5t86 183.5l26 149h-15q-31 -71 -107 -117t-185 -46q-156 0 -262.5 110t-106.5 295q0 75 14 145l19 94q41 203 159.5 305t275.5 102q123 0 203.5 -60.5t105.5 -154.5h13l36 199 h236l-187 -1065q-34 -193 -162.5 -291t-343.5 -98q-201 0 -317 92.5t-116 220.5zM431 443q0 -114 59.5 -178t165.5 -64q95 0 163.5 70t90.5 192l14 82q9 53 9 94q0 109 -62 173.5t-162 64.5q-98 0 -164 -69.5t-89 -192.5l-14 -74q-11 -66 -11 -98z" />
<glyph unicode="h" horiz-adv-x="1228" d="M158 0l251 1425h238l-97 -533h14q40 84 118 133.5t190 49.5q155 0 240.5 -92t85.5 -233q0 -63 -22 -186l-99 -564h-238l101 577q12 70 12 117q0 84 -46 135.5t-133 51.5q-110 0 -179.5 -77t-90.5 -200l-106 -604h-239z" />
<glyph unicode="i" horiz-adv-x="578" d="M172 0l187 1059h238l-187 -1059h-238zM364 1369q0 64 44.5 104t112.5 40q69 0 110.5 -38.5t41.5 -99.5q0 -64 -44.5 -103.5t-114.5 -39.5q-66 0 -108 38.5t-42 98.5z" />
<glyph unicode="j" horiz-adv-x="592" d="M-98 -333l37 189q30 -9 76 -9q68 0 113 39.5t58 111.5l187 1061h237l-186 -1057q-33 -186 -134.5 -267t-276.5 -81q-51 0 -111 13zM379 1369q0 64 44 104t113 40t110.5 -38.5t41.5 -99.5q0 -64 -44.5 -103.5t-114.5 -39.5q-67 0 -108.5 38.5t-41.5 98.5z" />
<glyph unicode="k" horiz-adv-x="1126" d="M158 0l251 1425h233l-137 -772h16l446 406h294l-492 -435l315 -624h-254l-245 502l-123 -103l-71 -399h-233z" />
<glyph unicode="l" horiz-adv-x="578" d="M170 0l252 1425h238l-252 -1425h-238z" />
<glyph unicode="m" horiz-adv-x="1808" d="M158 0l186 1059h231l-31 -175h14q34 82 108 136.5t188 54.5q113 0 186 -53.5t100 -140.5h13q17 35 40.5 65.5t61 61.5t93 49t121.5 18q150 0 230 -89t80 -229q0 -56 -22 -188l-100 -569h-238l102 583q11 57 11 111q0 87 -39.5 137t-119.5 50q-91 0 -150.5 -71t-82.5 -199 l-109 -611h-231l103 583q9 59 9 113q0 84 -38.5 134.5t-121.5 50.5q-103 0 -165 -73t-83 -197l-108 -611h-238z" />
<glyph unicode="n" horiz-adv-x="1222" d="M158 0l186 1059h234l-31 -167h14q43 85 120 134t189 49q156 0 239 -92t83 -233q0 -63 -22 -186l-100 -564h-237l101 577q12 70 12 116q0 85 -44.5 136.5t-131.5 51.5q-109 0 -177 -75.5t-90 -201.5l-107 -604h-238z" />
<glyph unicode="o" horiz-adv-x="1170" d="M186 411q0 87 11 144l20 113q34 187 165 298.5t321 111.5q207 0 335.5 -117.5t128.5 -323.5q0 -66 -11 -128l-22 -113q-37 -192 -163 -302t-333 -110q-197 0 -324.5 113.5t-127.5 313.5zM424 418q0 -107 60.5 -174t167.5 -67q100 0 163.5 70.5t84.5 193.5l20 117 q6 34 6 91q0 103 -60.5 169t-164.5 66q-97 0 -162 -66.5t-86 -188.5l-19 -110q-10 -60 -10 -101z" />
<glyph unicode="p" horiz-adv-x="1223" d="M96 -355l247 1412h238l-33 -179h15q14 34 35.5 65t56.5 62t88.5 49.5t119.5 18.5q163 0 262 -106t99 -287q0 -84 -10 -137l-28 -150q-31 -188 -145 -298.5t-293 -110.5q-119 0 -202.5 66t-100.5 154h-13l-98 -559h-238zM478 435q0 -114 66 -181t155 -67q102 0 169.5 69.5 t87.5 181.5l22 122q6 36 6 89q0 105 -59.5 167t-162.5 62q-102 0 -170 -72.5t-89 -194.5l-20 -119q-5 -28 -5 -57z" />
<glyph unicode="q" horiz-adv-x="1220" d="M182 382q0 86 10 137l31 149q35 185 149.5 295t287.5 110q124 0 206.5 -67t97.5 -152h16l36 203h234l-251 -1411h-238l97 526h-15q-14 -33 -37 -63t-58 -59t-87 -46.5t-112 -17.5q-164 0 -265.5 108.5t-101.5 287.5zM426 421q0 -106 59 -170t161 -64q103 0 171 71t89 195 l20 119q5 29 5 64q0 114 -65.5 177.5t-154.5 63.5q-101 0 -167 -71t-88 -182l-25 -120q-5 -26 -5 -83z" />
<glyph unicode="r" horiz-adv-x="822" d="M158 0l186 1059h225l-31 -175h14q29 80 104 135.5t182 55.5q47 0 101 -16l-44 -218q-44 20 -109 20q-125 0 -195.5 -80t-94.5 -213l-101 -568h-237z" />
<glyph unicode="s" horiz-adv-x="1059" d="M142 297q0 3 0.5 11t0.5 10h216q0 -2 0.5 -9t0.5 -10q9 -59 69.5 -99t152.5 -40t142.5 38t50.5 100q0 21 -6 38t-20.5 31t-27.5 23.5t-40.5 20.5t-44 16.5t-52.5 16.5q-10 3 -16 5q-32 10 -54.5 18t-57 23t-58.5 31t-51.5 40t-44.5 51t-28 64t-11 79q0 146 105 235 t298 89q185 0 296 -87.5t111 -209.5q0 -3 -0.5 -14t-0.5 -12h-211v12q0 52 -52 95.5t-141 43.5q-83 0 -130 -36.5t-47 -91.5q0 -17 5.5 -32.5t13 -26.5t24 -22.5t27.5 -18t36 -16t37.5 -13.5t43.5 -14t44 -14q65 -21 112 -43.5t89.5 -57.5t64 -85.5t21.5 -115.5 q0 -161 -121.5 -249.5t-314.5 -88.5q-182 0 -306.5 87.5t-124.5 227.5z" />
<glyph unicode="t" horiz-adv-x="794" d="M210 853l33 188h157l49 273h230l-48 -273h225l-32 -188h-223l-80 -451q-16 -90 -16 -117q0 -51 28.5 -76.5t95.5 -25.5q63 0 113 10l-33 -182q-62 -14 -154 -14q-295 0 -295 215q0 46 12 117l94 524h-156z" />
<glyph unicode="u" horiz-adv-x="1212" d="M206 307q0 75 20 181l104 571h237l-102 -573q-12 -72 -12 -122q0 -86 48 -133.5t136 -47.5q109 0 175.5 74.5t88.5 201.5l105 600h234l-185 -1059h-228l31 172h-15q-40 -83 -119 -135.5t-190 -52.5q-152 0 -240 89t-88 234z" />
<glyph unicode="v" horiz-adv-x="1077" d="M223 1059h247l91 -827h12l367 827h246l-522 -1059h-269z" />
<glyph unicode="w" horiz-adv-x="1539" d="M208 1059h238l42 -821h11l324 821h219l59 -821h12l314 821h239l-459 -1059h-252l-61 773h-10l-307 -773h-258z" />
<glyph unicode="x" horiz-adv-x="1063" d="M51 0l419 531l-252 528h259l162 -383h10l285 383h266l-436 -533l255 -526h-254l-165 376h-9l-281 -376h-259z" />
<glyph unicode="y" horiz-adv-x="1075" d="M65 -342l37 183q41 -10 84 -10q81 0 124.5 34t74.5 101l23 52l-183 1041h245l107 -826h12l363 826h252l-525 -1047q-1 -3 -9.5 -19t-16.5 -31.5t-9 -16.5q-44 -85 -83.5 -137.5t-92.5 -91.5t-121 -55.5t-162 -16.5q-66 0 -120 14z" />
<glyph unicode="z" horiz-adv-x="1003" d="M111 0l29 172l638 688l3 14h-533l34 185h815l-32 -181l-625 -675l-3 -14h529l-33 -189h-822z" />
<glyph unicode="{" horiz-adv-x="815" d="M187 460l39 230q97 0 141 46t63 153l37 197q18 103 57 172t99.5 106t130 52t165.5 15h83l-30 -180h-42q-121 0 -175 -50t-71 -150l-44 -242q-19 -110 -73.5 -161.5t-151.5 -58.5l-5 -28q84 -8 124 -68t22 -163q-54 -293 -54 -316q-6 -93 28.5 -125.5t150.5 -32.5h42 l-30 -180h-91q-183 0 -262 68.5t-66 214.5q0 43 47 302q19 106 -9 152.5t-125 46.5z" />
<glyph unicode="|" horiz-adv-x="713" d="M203 -289l302 1712h215l-302 -1712h-215z" />
<glyph unicode="}" horiz-adv-x="815" d="M9 -324l30 180h42q121 0 175 50t71 151l49 273q19 112 75.5 168t151.5 63l5 28q-85 9 -125.5 63.5t-22.5 156.5q49 255 49 284q6 93 -28.5 125.5t-151.5 32.5h-41l30 180h91q183 0 262 -67.5t67 -211.5q0 -51 -12 -126t-23.5 -130.5t-11.5 -60.5q-6 -75 25.5 -110 t114.5 -35l-40 -230q-96 0 -140.5 -46t-63.5 -153l-43 -237q-18 -103 -57 -172.5t-99.5 -107t-131 -53t-165.5 -15.5h-82z" />
<glyph unicode="~" horiz-adv-x="1167" d="M183 551q3 149 84 252t215 103q54 0 103 -21t76 -43t67 -61q65 -61 92 -77q37 -21 74 -21q55 0 88 41t43 103h181q-8 -151 -89 -249.5t-210 -98.5q-73 0 -128 30t-111 83q-7 7 -24 23t-24.5 23.5t-22 20t-24.5 18.5t-23.5 13t-26.5 10t-27 3q-52 0 -87.5 -43t-44.5 -109 h-181z" />
<glyph unicode="&#xa1;" horiz-adv-x="626" d="M134 -305l202 937h191l-131 -937h-262zM306 928q0 67 47 109.5t122 42.5q71 0 117 -41.5t46 -106.5q0 -68 -46.5 -111t-120.5 -43t-119.5 41.5t-45.5 108.5z" />
<glyph unicode="&#xa2;" horiz-adv-x="1183" d="M246 546q0 74 13 146l23 130q31 185 149 287t290 112l41 230h192l-45 -247q126 -33 200 -123.5t74 -207.5q0 -21 -2 -26h-220v13q0 67 -54 119.5t-148 52.5q-95 0 -162.5 -64t-88.5 -183l-19 -112q-9 -50 -9 -99q0 -116 55 -180.5t164 -64.5q81 0 132.5 34.5t64.5 88.5 h229q-21 -140 -134 -225t-269 -90h-1l-39 -221h-192l42 235q-133 37 -209.5 141t-76.5 254z" />
<glyph unicode="&#xa3;" horiz-adv-x="1183" d="M95 0l36 208q24 1 35.5 2t36 5.5t39 12t35.5 22t35 35t28.5 52t24.5 71.5q6 6 23.5 85t22.5 107h-183l30 171h179l55 299q27 154 134 237.5t274 83.5q193 0 302 -104.5t90 -278.5h-217q10 76 -38.5 130.5t-137.5 54.5q-80 0 -126 -45.5t-60 -120.5l-46 -256h294l-30 -171 h-291q-2 -18 -20.5 -103.5t-23.5 -93.5q-35 -147 -137 -192v-12h721l-34 -199h-1051z" />
<glyph unicode="&#xa4;" horiz-adv-x="1189" d="M167 317l197 151q-42 86 -42 189q0 133 87 241l-140 183l134 117l139 -183q84 45 186 45q133 0 239 -90l208 159l111 -139l-209 -158q42 -87 42 -187q0 -136 -96 -249l131 -170l-133 -115l-132 172q-77 -39 -174 -39q-136 0 -240 87l-197 -151zM495 651q0 -95 66 -162 t159 -67t159 67t66 162t-66 162.5t-159 67.5t-159 -67.5t-66 -162.5z" />
<glyph unicode="&#xa5;" horiz-adv-x="1183" d="M238 225l27 157h280l23 128h-280l27 157h208l-272 699h261l213 -600h12l415 600h269l-514 -699h224l-27 -157h-293l-23 -128h293l-27 -157h-293l-41 -225h-243l41 225h-280z" />
<glyph unicode="&#xa6;" horiz-adv-x="706" d="M201 -302l120 681h208l-120 -681h-208zM392 781l115 656h209l-115 -656h-209z" />
<glyph unicode="&#xa7;" horiz-adv-x="984" d="M105 63q0 5 3 23h199v-3q1 -78 59.5 -119t148.5 -41q81 0 129 37.5t48 95.5q0 55 -44 88t-150 77q-1 0 -8 3t-8 4q-65 27 -112 53.5t-89.5 64.5t-64.5 89t-22 114q0 106 65 175t158 97l1 8q-49 35 -86 95t-37 143q0 152 111.5 239t283.5 87q165 0 273.5 -93t105.5 -232 q0 -10 -4 -34h-197q2 14 2 19q3 72 -54 115t-132 43q-71 0 -122.5 -34.5t-51.5 -96.5q0 -63 48.5 -101.5t155.5 -82.5q71 -29 119.5 -56t92 -64t64.5 -85t21 -109q0 -107 -59 -182.5t-149 -110.5v-8q105 -82 105 -208q0 -155 -116.5 -243.5t-289.5 -88.5q-164 0 -282 90 t-115 232zM412 569q0 -56 40 -94.5t115 -73.5q21 -10 79 -29q58 16 100.5 65.5t42.5 113.5q0 55 -40.5 94.5t-119.5 71.5q-60 21 -63 22q-63 -12 -108.5 -61t-45.5 -109z" />
<glyph unicode="&#xa8;" horiz-adv-x="1000" d="M422 1324q0 51 33 82.5t85 31.5q53 0 86 -31.5t33 -82.5q0 -50 -33 -81.5t-86 -31.5q-52 0 -85 31.5t-33 81.5zM802 1324q0 51 32 82.5t83 31.5q55 0 88 -31.5t33 -82.5q0 -50 -33.5 -81.5t-87.5 -31.5q-51 0 -83 31.5t-32 81.5z" />
<glyph unicode="&#xa9;" horiz-adv-x="1721" d="M256 629q0 58 7 108l13 103q34 261 235 427.5t487 166.5q156 0 289.5 -54t225.5 -146t144 -217.5t52 -266.5q0 -59 -6 -97l-13 -102q-35 -276 -237.5 -446.5t-491.5 -170.5q-208 0 -369.5 91.5t-248.5 249.5t-87 354zM384 623q0 -250 160 -407t416 -157q158 0 288.5 62 t213.5 177.5t102 266.5l13 105q5 33 5 72q0 243 -167.5 404.5t-421.5 161.5q-236 0 -399.5 -138t-190.5 -348l-13 -105q-6 -45 -6 -94zM641 594q0 42 9 93l17 99q23 135 110 210t224 75q139 0 220 -72t81 -172q0 -25 -3 -33h-152q0 3 0.5 10.5t0.5 8.5q0 48 -39.5 85.5 t-104.5 37.5q-72 0 -119.5 -48t-63.5 -138l-13 -73q-7 -39 -7 -70q0 -84 40 -131t120 -47q57 0 94.5 24.5t46.5 66.5h156q-17 -106 -99 -168t-207 -62q-144 0 -227.5 82t-83.5 222z" />
<glyph unicode="&#xaa;" horiz-adv-x="722" d="M263 888q0 93 68.5 139t183.5 46h136l7 40q0 2 0.5 6.5t0.5 8.5q0 37 -24 58.5t-66 21.5q-34 0 -59 -14.5t-32 -40.5h-154q11 73 77 124t177 51q109 0 173 -51.5t64 -145.5q0 -18 -4 -42l-64 -363h-151l14 76h-9q-17 -35 -58.5 -60t-99.5 -25q-76 0 -128 44t-52 127z M420 903q0 -32 22.5 -52t61.5 -20q44 0 77.5 25.5t41.5 65.5l12 61h-112q-50 0 -76.5 -22.5t-26.5 -57.5z" />
<glyph unicode="&#xab;" horiz-adv-x="1325" d="M239 557l2 8l415 404h233l-417 -415l-1 -6l260 -393h-227zM716 557l2 8l415 404h234l-417 -415l-1 -6l259 -393h-226z" />
<glyph unicode="&#xac;" horiz-adv-x="1189" d="M184 445l34 196h993l-97 -551h-212l63 355h-781z" />
<glyph unicode="&#xad;" horiz-adv-x="868" d="M199 453l36 217h633l-37 -217h-632z" />
<glyph unicode="&#xae;" horiz-adv-x="1214" d="M270 895q0 21 3 40l4 28q12 209 148.5 335.5t349.5 126.5q216 0 355 -134t139 -344q0 -24 -3 -39l-4 -33q-16 -213 -150.5 -337t-349.5 -124q-218 0 -355 132.5t-137 348.5zM375 894q0 -171 107 -273.5t281 -102.5q173 0 277.5 98t117.5 268l4 31q2 16 2 31 q0 166 -109 270.5t-282 104.5t-278.5 -100.5t-112.5 -267.5l-4 -27q-3 -14 -3 -32zM542 669l93 521h197q79 0 122 -39.5t43 -111.5q0 -12 -1 -20q-4 -52 -36 -90.5t-82 -56.5l70 -203h-117l-59 188h-25h-60l-33 -188h-112zM701 943h76q96 0 108 75q1 6 1 19q0 29 -21.5 46 t-58.5 17h-76z" />
<glyph unicode="&#xaf;" horiz-adv-x="1000" d="M376 1215l21 123h680l-21 -123h-680z" />
<glyph unicode="&#xb0;" horiz-adv-x="718" d="M248 1094q0 121 85.5 206.5t207.5 85.5q120 0 205.5 -85.5t85.5 -206.5q0 -122 -85.5 -208.5t-205.5 -86.5q-122 0 -207.5 86.5t-85.5 208.5zM397 1094q0 -58 43 -100.5t101 -42.5q60 0 102 42.5t42 100.5q0 59 -42 100.5t-102 41.5q-58 0 -101 -41.5t-43 -100.5z" />
<glyph unicode="&#xb1;" horiz-adv-x="1183" d="M133 103l31 182h962l-32 -182h-961zM222 647l32 187h376l43 245h206l-43 -245h380l-32 -187h-380l-47 -261h-206l47 261h-376z" />
<glyph unicode="&#xb2;" horiz-adv-x="783" d="M305 689l19 111l273 236q2 2 15.5 14t19 17.5l17.5 17.5t17.5 20t13 20t10.5 23t3 22q0 30 -21 50t-57 20q-37 0 -60.5 -23t-27.5 -59h-158q6 95 74.5 156.5t183.5 61.5q99 0 167.5 -52.5t68.5 -142.5q0 -65 -35.5 -113.5t-108.5 -107.5q-6 -4 -82 -66.5t-83 -67.5l-1 -3 h277l-23 -134h-502z" />
<glyph unicode="&#xb3;" horiz-adv-x="788" d="M281 873v25h150v-4q3 -38 31.5 -60t71.5 -22q44 0 72.5 23t28.5 63q0 71 -96 79q-9 1 -62 1l11 121q54 -1 63 -1q49 0 83 21.5t34 58.5q0 31 -24.5 50t-60.5 19t-58 -18t-27 -44h-159q8 84 74 137.5t171 53.5q99 0 173.5 -47t74.5 -134q0 -64 -39 -107t-96 -53l-1 -4 q49 -15 78 -54.5t29 -95.5q0 -93 -76 -149.5t-195 -53.5q-108 2 -177.5 53.5t-73.5 141.5z" />
<glyph unicode="&#xb4;" horiz-adv-x="1000" d="M462 1210l274 342h233l-330 -342h-177z" />
<glyph unicode="&#xb6;" horiz-adv-x="1388" d="M302 890q0 27 4 47q13 196 161 312t372 116h245l-277 -1575h-227l118 660l-19 3q-48 7 -98.5 27t-100.5 57.5t-89.5 86.5t-64 118.5t-24.5 147.5zM968 -210l277 1575h227l-278 -1575h-226z" />
<glyph unicode="&#xb7;" horiz-adv-x="574" d="M256 758q0 76 48.5 123.5t119.5 47.5q70 0 116.5 -44.5t46.5 -115.5q0 -74 -49.5 -120.5t-122.5 -46.5q-68 0 -113.5 43.5t-45.5 112.5z" />
<glyph unicode="&#xb8;" horiz-adv-x="1000" d="M262 -458l20 117q58 -17 124 -17q103 0 105 62v5q0 62 -127 62h-53l10 76l48 165h149l-40 -134q80 -2 128 -41.5t48 -111.5q0 -9 -1 -14q-6 -93 -75.5 -143t-180.5 -50q-88 0 -155 24z" />
<glyph unicode="&#xb9;" horiz-adv-x="758" d="M376 1115l26 152l178 98h165l-119 -676h-165l92 518h-8z" />
<glyph unicode="&#xba;" horiz-adv-x="750" d="M271 1001q-16 -141 64.5 -219t210.5 -78q112 0 185.5 61.5t92.5 176.5l6 36q7 24 7 47q15 135 -65.5 215.5t-208.5 80.5q-110 0 -185.5 -63.5t-94.5 -171.5l-6 -36q0 -3 -2 -14.5t-3 -21.5t-1 -13zM426 986q0 8 6 38l7 38q10 60 43.5 96.5t86.5 36.5q60 0 91 -44t21 -112 q0 -2 -6 -38l-7 -37q-11 -59 -43 -96.5t-87 -37.5q-62 0 -92.5 44t-19.5 112z" />
<glyph unicode="&#xbb;" horiz-adv-x="1325" d="M151 155l416 416l1 6l-259 392h223l269 -403l-2 -8l-412 -403h-236zM637 155l417 416l1 6l-260 392h224l268 -403l-2 -8l-412 -403h-236z" />
<glyph unicode="&#xbc;" horiz-adv-x="1624" d="M247 0l568 683l568 682h189l-567 -682l-568 -683h-190zM284 1115l26 152l178 98h165l-119 -676h-165l92 518h-8zM966 123l21 129q86 126 331 426h240l-74 -427h86l-20 -128h-86l-23 -123h-159l22 123h-338zM1145 243h186l57 310h-9q-175 -222 -233 -306z" />
<glyph unicode="&#xbd;" horiz-adv-x="1624" d="M237 0l568 683l568 682h189l-567 -682l-568 -683h-190zM282 1115l26 152l178 98h165l-119 -676h-165l92 518h-8zM1065 0l19 112l274 236q2 2 15.5 14t19 17.5l17.5 17.5t17.5 20t13 20t10.5 23t3 22q0 30 -21 50t-57 20q-37 0 -60.5 -23t-27.5 -59h-159q7 95 75.5 157 t183.5 62q99 0 167.5 -53t68.5 -143q0 -65 -35.5 -113.5t-108.5 -107.5q-6 -4 -82 -66.5t-83 -67.5l-1 -3h277l-23 -135h-503z" />
<glyph unicode="&#xbe;" horiz-adv-x="1567" d="M162 877v9.5v9v6.5h149v-4q3 -38 31 -59.5t71 -21.5q45 0 72.5 22.5t27.5 62.5q0 70 -95 78q-9 1 -61 1l11 120q53 -1 62 -1q48 0 82 21.5t34 58.5q0 31 -24 49.5t-60 18.5t-58 -17.5t-27 -43.5h-157q8 84 73.5 136.5t169.5 52.5q98 0 172 -46.5t74 -133.5 q0 -64 -39 -106t-95 -52l-1 -4q49 -15 77.5 -54t28.5 -95q0 -92 -75.5 -148t-193.5 -53q-107 2 -176 53t-73 140zM245 0l568 683l568 682h189l-567 -682l-568 -683h-190zM975 123l21 129q86 126 331 426h240l-74 -427h85l-19 -128h-87l-22 -123h-159l21 123h-337zM1154 243 h186l57 310h-9q-175 -222 -233 -306z" />
<glyph unicode="&#xbf;" horiz-adv-x="1079" d="M117 32q0 65 20.5 119.5t59 95.5t76 69t90.5 58q8 5 32 18.5t31 17.5t26.5 16.5t26.5 18t22 17.5t20.5 20.5t15 21.5t14 25.5t8.5 28.5t6 33l9 56h218l-10 -61q-13 -120 -66 -188.5t-174 -137.5q-36 -20 -46.5 -26.5t-41 -26.5t-42 -33t-29 -34t-24 -44t-6.5 -50 q0 -77 59.5 -120.5t144.5 -43.5q93 0 148.5 51t68.5 130h222q-7 -78 -38 -145t-84.5 -119.5t-137 -82.5t-186.5 -30q-120 0 -216 37.5t-156.5 117.5t-60.5 191zM549 949q0 67 47.5 109.5t122.5 42.5q71 0 116.5 -41.5t45.5 -106.5q0 -68 -46.5 -111t-119.5 -43 q-74 0 -120 41.5t-46 108.5z" />
<glyph unicode="&#xc0;" horiz-adv-x="1289" d="M39 0l702 1365h285l224 -1365h-257l-51 365h-469l-182 -365h-252zM500 1702h264l281 -205h-229zM560 554h362l-73 561h-16z" />
<glyph unicode="&#xc1;" horiz-adv-x="1289" d="M39 0l702 1365h285l224 -1365h-257l-51 365h-469l-182 -365h-252zM560 554h362l-73 561h-16zM738 1497l295 211h271l-333 -211h-233z" />
<glyph unicode="&#xc2;" horiz-adv-x="1289" d="M39 0l702 1365h285l224 -1365h-257l-51 365h-469l-182 -365h-252zM547 1480l290 240h212l207 -240h-200l-120 135h-15l-165 -135h-209zM560 554h362l-73 561h-16z" />
<glyph unicode="&#xc3;" horiz-adv-x="1289" d="M39 0l702 1365h285l224 -1365h-257l-51 365h-469l-182 -365h-252zM560 554h362l-73 561h-16zM574 1478q0 94 50.5 161.5t146.5 67.5q50 0 86 -17.5t76 -53.5q4 -4 20.5 -19.5t22.5 -20t19.5 -10.5t26.5 -6q35 0 52.5 33.5t20.5 76.5h139q0 -93 -55.5 -163.5t-142.5 -70.5 q-59 0 -93.5 16.5t-67.5 48.5q-3 3 -15 14.5t-17.5 16t-15.5 11.5t-20 10t-21 3q-65 0 -72 -98h-140z" />
<glyph unicode="&#xc4;" horiz-adv-x="1289" d="M39 0l702 1365h285l224 -1365h-257l-51 365h-469l-182 -365h-252zM560 554h362l-73 561h-16zM616 1582q0 53 31.5 84t83.5 31t85 -31t33 -84q0 -49 -33 -79t-85 -30q-51 0 -83 30t-32 79zM987 1582q0 52 32.5 83.5t82.5 31.5q53 0 85 -31t32 -84q0 -49 -32 -79t-85 -30 q-50 0 -82.5 30.5t-32.5 78.5z" />
<glyph unicode="&#xc5;" horiz-adv-x="1289" d="M39 0l681 1320q-76 63 -76 165q0 103 70 172.5t171 69.5q100 0 169.5 -68.5t69.5 -171.5q0 -111 -91 -179l217 -1308h-257l-51 365h-469l-182 -365h-252zM560 554h362l-73 561h-16zM807.5 1466.5q9.5 -30.5 39.5 -50.5q30 -17 61 -8.5t48 36.5q16 28 6 58.5t-39 49.5 q-29 18 -61 10t-49 -37q-15 -28 -5.5 -58.5z" />
<glyph unicode="&#xc6;" horiz-adv-x="1874" d="M15 0l980 1366h994l-35 -206h-613l-67 -365h580l-32 -196h-581l-71 -393h616l-35 -206h-853l63 356h-404l-267 -356h-275zM676 551h319l105 560h-22z" />
<glyph unicode="&#xc7;" horiz-adv-x="1314" d="M222 516q0 85 9 136l42 217q46 250 200.5 386.5t384.5 136.5q118 0 217 -36t162.5 -96.5t98.5 -136.5t35 -158q0 -45 -7 -66h-232q2 29 1 44q-7 92 -79 162.5t-199 70.5q-271 0 -339 -347l-34 -168q-13 -61 -13 -145q0 -157 83.5 -239.5t218.5 -82.5q121 0 194.5 60 t91.5 153h233q0 -20 -6 -38q-12 -73 -48 -139.5t-95.5 -123t-152.5 -92t-207 -39.5l-28 -97q79 -2 127 -41.5t48 -111.5q0 -9 -1 -14q-6 -93 -75.5 -143t-180.5 -50q-88 0 -155 24l20 117q58 -17 124 -17q103 0 105 62v5q0 62 -127 62h-52l9 76l39 137q-187 32 -299.5 167 t-112.5 365z" />
<glyph unicode="&#xc8;" horiz-adv-x="1155" d="M175 0l241 1365h854l-35 -208h-611l-67 -363h579l-32 -195h-580l-71 -391h615l-35 -208h-858zM450 1702h264l281 -205h-229z" />
<glyph unicode="&#xc9;" horiz-adv-x="1155" d="M175 0l241 1365h854l-35 -208h-611l-67 -363h579l-32 -195h-580l-71 -391h615l-35 -208h-858zM688 1497l295 211h271l-333 -211h-233z" />
<glyph unicode="&#xca;" horiz-adv-x="1155" d="M175 0l241 1365h854l-35 -208h-611l-67 -363h579l-32 -195h-580l-71 -391h615l-35 -208h-858zM497 1480l290 240h212l207 -240h-200l-120 135h-15l-165 -135h-209z" />
<glyph unicode="&#xcb;" horiz-adv-x="1155" d="M175 0l241 1365h854l-35 -208h-611l-67 -363h579l-32 -195h-580l-71 -391h615l-35 -208h-858zM566 1582q0 53 31.5 84t83.5 31t85 -31t33 -84q0 -49 -33 -79t-85 -30q-51 0 -83 30t-32 79zM937 1582q0 52 32.5 83.5t82.5 31.5q53 0 85 -31t32 -84q0 -49 -32 -79t-85 -30 q-50 0 -82.5 30.5t-32.5 78.5z" />
<glyph unicode="&#xcc;" horiz-adv-x="593" d="M160 1702h264l281 -205h-229zM175 0l241 1365h243l-241 -1365h-243z" />
<glyph unicode="&#xcd;" horiz-adv-x="593" d="M175 0l241 1365h243l-241 -1365h-243zM398 1497l295 211h271l-333 -211h-233z" />
<glyph unicode="&#xce;" horiz-adv-x="593" d="M175 0l241 1365h243l-241 -1365h-243zM207 1480l290 240h212l207 -240h-200l-120 135h-15l-165 -135h-209z" />
<glyph unicode="&#xcf;" horiz-adv-x="593" d="M175 0l241 1365h243l-241 -1365h-243zM276 1582q0 53 31.5 84t83.5 31t85 -31t33 -84q0 -49 -33 -79t-85 -30q-51 0 -83 30t-32 79zM647 1582q0 52 32.5 83.5t82.5 31.5q53 0 85 -31t32 -84q0 -49 -32 -79t-85 -30q-50 0 -82.5 30.5t-32.5 78.5z" />
<glyph unicode="&#xd0;" horiz-adv-x="1474" d="M214 586l38 217h165l100 562h438q259 0 400 -143.5t141 -384.5q0 -74 -10 -141q-11 -74 -26 -146q-53 -265 -243 -407.5t-503 -142.5h-437l104 586h-167zM555 208h145q207 0 342 92t173 276q2 9 12.5 64.5t11.5 64.5q8 45 8 117q0 169 -96 252t-272 83h-153l-65 -354h261 l-38 -217h-260z" />
<glyph unicode="&#xd1;" horiz-adv-x="1431" d="M175 0l241 1365h211l454 -949h12l170 949h233l-240 -1365h-208l-458 951h-12l-169 -951h-234zM664 1478q0 94 50.5 161.5t146.5 67.5q50 0 86 -17.5t76 -53.5q4 -4 20.5 -19.5t22.5 -20t19.5 -10.5t26.5 -6q35 0 52.5 33.5t20.5 76.5h139q0 -93 -55.5 -163.5 t-142.5 -70.5q-59 0 -93.5 16.5t-67.5 48.5q-3 3 -15 14.5t-17.5 16t-15.5 11.5t-20 10t-21 3q-65 0 -72 -98h-140z" />
<glyph unicode="&#xd2;" horiz-adv-x="1390" d="M218 490q0 104 13 183l37 202q44 245 203 381t391 136q250 0 402 -143t152 -391q0 -87 -14 -161l-37 -203q-47 -251 -200 -386t-407 -135q-237 0 -388.5 138.5t-151.5 378.5zM464 516q0 -149 84.5 -237.5t234.5 -88.5q137 0 224.5 89.5t120.5 269.5l33 182q8 49 8 126 q0 145 -84 233.5t-231 88.5q-132 0 -221.5 -84.5t-122.5 -262.5l-32 -172q-14 -73 -14 -144zM555 1702h264l281 -205h-229z" />
<glyph unicode="&#xd3;" horiz-adv-x="1390" d="M218 490q0 104 13 183l37 202q44 245 203 381t391 136q250 0 402 -143t152 -391q0 -87 -14 -161l-37 -203q-47 -251 -200 -386t-407 -135q-237 0 -388.5 138.5t-151.5 378.5zM464 516q0 -149 84.5 -237.5t234.5 -88.5q137 0 224.5 89.5t120.5 269.5l33 182q8 49 8 126 q0 145 -84 233.5t-231 88.5q-132 0 -221.5 -84.5t-122.5 -262.5l-32 -172q-14 -73 -14 -144zM793 1497l295 211h271l-333 -211h-233z" />
<glyph unicode="&#xd4;" horiz-adv-x="1390" d="M218 490q0 104 13 183l37 202q44 245 203 381t391 136q250 0 402 -143t152 -391q0 -87 -14 -161l-37 -203q-47 -251 -200 -386t-407 -135q-237 0 -388.5 138.5t-151.5 378.5zM464 516q0 -149 84.5 -237.5t234.5 -88.5q137 0 224.5 89.5t120.5 269.5l33 182q8 49 8 126 q0 145 -84 233.5t-231 88.5q-132 0 -221.5 -84.5t-122.5 -262.5l-32 -172q-14 -73 -14 -144zM602 1480l290 240h212l207 -240h-200l-120 135h-15l-165 -135h-209z" />
<glyph unicode="&#xd5;" horiz-adv-x="1390" d="M218 490q0 104 13 183l37 202q44 245 203 381t391 136q250 0 402 -143t152 -391q0 -87 -14 -161l-37 -203q-47 -251 -200 -386t-407 -135q-237 0 -388.5 138.5t-151.5 378.5zM464 516q0 -149 84.5 -237.5t234.5 -88.5q137 0 224.5 89.5t120.5 269.5l33 182q8 49 8 126 q0 145 -84 233.5t-231 88.5q-132 0 -221.5 -84.5t-122.5 -262.5l-32 -172q-14 -73 -14 -144zM629 1478q0 94 50.5 161.5t146.5 67.5q50 0 86 -17.5t76 -53.5q4 -4 20.5 -19.5t22.5 -20t19.5 -10.5t26.5 -6q35 0 52.5 33.5t20.5 76.5h139q0 -93 -55.5 -163.5t-142.5 -70.5 q-59 0 -93.5 16.5t-67.5 48.5q-3 3 -15 14.5t-17.5 16t-15.5 11.5t-20 10t-21 3q-65 0 -72 -98h-140z" />
<glyph unicode="&#xd6;" horiz-adv-x="1390" d="M218 490q0 104 13 183l37 202q44 245 203 381t391 136q250 0 402 -143t152 -391q0 -87 -14 -161l-37 -203q-47 -251 -200 -386t-407 -135q-237 0 -388.5 138.5t-151.5 378.5zM464 516q0 -149 84.5 -237.5t234.5 -88.5q137 0 224.5 89.5t120.5 269.5l33 182q8 49 8 126 q0 145 -84 233.5t-231 88.5q-132 0 -221.5 -84.5t-122.5 -262.5l-32 -172q-14 -73 -14 -144zM671 1582q0 53 31.5 84t83.5 31t85 -31t33 -84q0 -49 -33 -79t-85 -30q-51 0 -83 30t-32 79zM1042 1582q0 52 32.5 83.5t82.5 31.5q53 0 85 -31t32 -84q0 -49 -32 -79t-85 -30 q-50 0 -82.5 30.5t-32.5 78.5z" />
<glyph unicode="&#xd7;" horiz-adv-x="1183" d="M202 246l343 286l-250 315l157 132l251 -314l357 288l118 -159l-357 -288l251 -316l-157 -133l-251 316l-344 -286z" />
<glyph unicode="&#xd8;" horiz-adv-x="1390" d="M131 138l131 123q-47 103 -47 229q0 105 14 183l36 202q44 245 203 381t392 136q135 0 244.5 -44.5t181.5 -128.5l112 107l101 -100l-134 -126q48 -108 48 -242q0 -87 -14 -161l-37 -203q-47 -251 -200 -386t-407 -135q-129 0 -236 43.5t-178 124.5l-114 -109zM462 535 q0 -39 7 -68l646 584q-85 128 -264 128q-132 0 -221.5 -84.5t-122.5 -262.5l-32 -172q-13 -72 -13 -125zM516 313q82 -123 264 -123q137 0 224.5 89.5t120.5 269.5l29 160q9 43 9 109q0 51 -5 76z" />
<glyph unicode="&#xd9;" horiz-adv-x="1396" d="M241 420q0 55 13 126l143 819h246l-145 -822q-7 -40 -7 -88q0 -117 74 -188t201 -71q118 0 198 67.5t104 203.5l160 898h246l-166 -945q-39 -219 -186.5 -332.5t-365.5 -113.5q-146 0 -261 50t-184.5 152.5t-69.5 243.5zM560 1702h264l281 -205h-229z" />
<glyph unicode="&#xda;" horiz-adv-x="1396" d="M241 420q0 55 13 126l143 819h246l-145 -822q-7 -40 -7 -88q0 -117 74 -188t201 -71q118 0 198 67.5t104 203.5l160 898h246l-166 -945q-39 -219 -186.5 -332.5t-365.5 -113.5q-146 0 -261 50t-184.5 152.5t-69.5 243.5zM798 1497l295 211h271l-333 -211h-233z" />
<glyph unicode="&#xdb;" horiz-adv-x="1396" d="M241 420q0 55 13 126l143 819h246l-145 -822q-7 -40 -7 -88q0 -117 74 -188t201 -71q118 0 198 67.5t104 203.5l160 898h246l-166 -945q-39 -219 -186.5 -332.5t-365.5 -113.5q-146 0 -261 50t-184.5 152.5t-69.5 243.5zM607 1480l290 240h212l207 -240h-200l-120 135 h-15l-165 -135h-209z" />
<glyph unicode="&#xdc;" horiz-adv-x="1396" d="M241 420q0 55 13 126l143 819h246l-145 -822q-7 -40 -7 -88q0 -117 74 -188t201 -71q118 0 198 67.5t104 203.5l160 898h246l-166 -945q-39 -219 -186.5 -332.5t-365.5 -113.5q-146 0 -261 50t-184.5 152.5t-69.5 243.5zM676 1582q0 53 31.5 84t83.5 31t85 -31t33 -84 q0 -49 -33 -79t-85 -30q-51 0 -83 30t-32 79zM1047 1582q0 52 32.5 83.5t82.5 31.5q53 0 85 -31t32 -84q0 -49 -32 -79t-85 -30q-50 0 -82.5 30.5t-32.5 78.5z" />
<glyph unicode="&#xdd;" horiz-adv-x="1178" d="M242 1365h259l212 -600h12l417 600h270l-606 -832l-94 -533h-244l95 528zM687 1497l295 211h271l-333 -211h-233z" />
<glyph unicode="&#xde;" horiz-adv-x="1230" d="M174 0l241 1365h240l-43 -241h233q198 0 307 -98t109 -266q0 -45 -7 -90q-28 -192 -166.5 -294.5t-386.5 -102.5h-237l-49 -273h-241zM497 468h205q273 0 309 210q7 33 7 62q0 90 -57.5 137.5t-170.5 47.5h-212z" />
<glyph unicode="&#xdf;" horiz-adv-x="1330" d="M177 0l203 1142q25 146 143 229t296 83q205 0 335.5 -106t130.5 -279q0 -75 -28 -139.5t-72 -106.5t-94 -67.5t-99 -31.5l-2 -11q129 -25 210 -113t81 -243q0 -92 -35 -167t-95 -123t-137 -74t-164 -26q-79 0 -154 18t-111 39l34 188q27 -16 83 -30.5t111 -14.5 q100 0 168.5 56.5t68.5 158.5q0 113 -80.5 177.5t-192.5 65.5l-67 2l35 206h60q111 0 181.5 59.5t70.5 161.5q0 95 -67 148t-170 53q-181 0 -212 -170l-193 -1085h-238z" />
<glyph unicode="&#xe0;" d="M155 282q0 19 1 31q10 147 122 227.5t309 80.5h265l12 70q4 20 4 40q0 67 -47 113.5t-142 46.5q-76 0 -124.5 -31t-63.5 -81h-226q22 129 134 214t297 85q189 0 294 -93t105 -252q0 -49 -15 -132l-106 -601h-225l25 139h-13q-33 -63 -108 -109t-182 -46 q-135 0 -225.5 80.5t-90.5 217.5zM392 313q0 -64 44.5 -104t120.5 -40q89 0 158.5 52t85.5 132l23 118h-223q-101 0 -155 -45t-54 -113zM450 1552h232l191 -340h-181z" />
<glyph unicode="&#xe1;" d="M155 282q0 19 1 31q10 147 122 227.5t309 80.5h265l12 70q4 20 4 40q0 67 -47 113.5t-142 46.5q-76 0 -124.5 -31t-63.5 -81h-226q22 129 134 214t297 85q189 0 294 -93t105 -252q0 -49 -15 -132l-106 -601h-225l25 139h-13q-33 -63 -108 -109t-182 -46 q-135 0 -225.5 80.5t-90.5 217.5zM392 313q0 -64 44.5 -104t120.5 -40q89 0 158.5 52t85.5 132l23 118h-223q-101 0 -155 -45t-54 -113zM603 1212l274 342h233l-330 -342h-177z" />
<glyph unicode="&#xe2;" d="M155 282q0 19 1 31q10 147 122 227.5t309 80.5h265l12 70q4 20 4 40q0 67 -47 113.5t-142 46.5q-76 0 -124.5 -31t-63.5 -81h-226q22 129 134 214t297 85q189 0 294 -93t105 -252q0 -49 -15 -132l-106 -601h-225l25 139h-13q-33 -63 -108 -109t-182 -46 q-135 0 -225.5 80.5t-90.5 217.5zM392 313q0 -64 44.5 -104t120.5 -40q89 0 158.5 52t85.5 132l23 118h-223q-101 0 -155 -45t-54 -113zM418 1212l309 362h168l182 -362h-184l-99 233h-9l-183 -233h-184z" />
<glyph unicode="&#xe3;" d="M155 282q0 19 1 31q10 147 122 227.5t309 80.5h265l12 70q4 20 4 40q0 67 -47 113.5t-142 46.5q-76 0 -124.5 -31t-63.5 -81h-226q22 129 134 214t297 85q189 0 294 -93t105 -252q0 -49 -15 -132l-106 -601h-225l25 139h-13q-33 -63 -108 -109t-182 -46 q-135 0 -225.5 80.5t-90.5 217.5zM392 313q0 -64 44.5 -104t120.5 -40q89 0 158.5 52t85.5 132l23 118h-223q-101 0 -155 -45t-54 -113zM404 1186q8 115 64.5 186.5t147.5 71.5q30 0 54.5 -7.5t46.5 -25.5t32 -29t32 -36q34 -44 48 -53q16 -10 32 -10q61 0 81 111h137 q-5 -106 -67 -182.5t-154 -76.5q-49 0 -82 21.5t-63 60.5q-5 6 -16 20.5t-17 21t-16 15.5t-21 13t-24 4q-35 0 -52 -28.5t-26 -76.5h-137z" />
<glyph unicode="&#xe4;" d="M155 282q0 19 1 31q10 147 122 227.5t309 80.5h265l12 70q4 20 4 40q0 67 -47 113.5t-142 46.5q-76 0 -124.5 -31t-63.5 -81h-226q22 129 134 214t297 85q189 0 294 -93t105 -252q0 -49 -15 -132l-106 -601h-225l25 139h-13q-33 -63 -108 -109t-182 -46 q-135 0 -225.5 80.5t-90.5 217.5zM392 313q0 -64 44.5 -104t120.5 -40q89 0 158.5 52t85.5 132l23 118h-223q-101 0 -155 -45t-54 -113zM454 1306q0 51 33 82.5t85 31.5q53 0 86 -31.5t33 -82.5q0 -50 -33 -81.5t-86 -31.5q-52 0 -85 31.5t-33 81.5zM834 1306q0 51 32 82.5 t83 31.5q55 0 88 -31.5t33 -82.5q0 -50 -33.5 -81.5t-87.5 -31.5q-51 0 -83 31.5t-32 81.5z" />
<glyph unicode="&#xe5;" d="M155 282q0 19 1 31q10 147 122 227.5t309 80.5h265l12 70q4 20 4 40q0 67 -47 113.5t-142 46.5q-76 0 -124.5 -31t-63.5 -81h-226q22 129 134 214t297 85q189 0 294 -93t105 -252q0 -49 -15 -132l-106 -601h-225l25 139h-13q-33 -63 -108 -109t-182 -46 q-135 0 -225.5 80.5t-90.5 217.5zM392 313q0 -64 44.5 -104t120.5 -40q89 0 158.5 52t85.5 132l23 118h-223q-101 0 -155 -45t-54 -113zM577 1412q0 88 61 147t147 59t145 -60t59 -145q0 -88 -61 -147.5t-147 -59.5t-145 60.5t-59 145.5zM685 1413q0 -40 29 -68.5t70 -28.5 t69.5 28.5t28.5 68.5t-28.5 68t-69.5 28q-40 0 -69.5 -28t-29.5 -68z" />
<glyph unicode="&#xe6;" horiz-adv-x="1773" d="M155 291q0 161 115.5 245.5t319.5 84.5h262l13 74q3 21 3 38q0 65 -47 111.5t-142 46.5q-76 0 -124.5 -31t-63.5 -81h-225q19 126 132 212.5t290 86.5q224 0 321 -143h7q58 67 147.5 105t197.5 38q87 0 158 -25t118.5 -68t78.5 -101t42.5 -123.5t4.5 -135.5 q0 -28 -25 -149h-675q-10 -59 -10 -84q0 -95 53.5 -157.5t164.5 -62.5q81 0 136 33.5t70 87.5h227q-17 -126 -136 -219t-292 -93q-129 0 -224 56.5t-138 160.5h-7q-127 -215 -393 -215q-164 0 -261.5 79.5t-97.5 228.5zM392 309q0 -62 43.5 -101t121.5 -39q93 0 161 54 t85 140l21 108h-223q-103 0 -156 -46.5t-53 -115.5zM1089 629h452q4 20 4 24q16 101 -36.5 170t-159.5 69q-91 0 -159.5 -54t-88.5 -153l-7 -31.5t-4 -18.5t-1 -6z" />
<glyph unicode="&#xe7;" horiz-adv-x="1091" d="M184 398q0 67 14 146l23 130q33 199 162 301.5t316 102.5t305 -98.5t118 -255.5q0 -20 -2 -25h-221q1 2 1 13q0 64 -54.5 117t-148.5 53t-161.5 -64t-88.5 -182l-19 -111q-10 -57 -10 -99q0 -116 55 -180.5t165 -64.5q81 0 132.5 34t64.5 88h229q-22 -147 -137 -231.5 t-282 -89.5h-11l-31 -104q79 -2 127 -41.5t48 -111.5q0 -9 -1 -14q-6 -93 -75.5 -143t-180.5 -50q-88 0 -155 24l20 117q58 -17 124 -17q103 0 105 62q1 2 1 5q0 62 -128 62h-52l10 76l43 149q-144 35 -224.5 140t-80.5 262z" />
<glyph unicode="&#xe8;" horiz-adv-x="1124" d="M185 397q0 65 15 151l23 121q34 197 166.5 303t322.5 106q110 0 195 -38t134 -102t70.5 -144.5t12.5 -168.5q0 -6 -9.5 -65t-14.5 -84h-678q-9 -36 -9 -86q0 -94 54 -156t166 -62q82 0 136.5 33.5t69.5 87.5h227q-18 -127 -141 -219.5t-308 -92.5q-193 0 -312.5 107.5 t-119.5 308.5zM450 629h447q3 15 3 24q17 102 -34.5 170.5t-159.5 68.5q-88 0 -154.5 -53t-89.5 -155zM472 1552h232l191 -340h-181z" />
<glyph unicode="&#xe9;" horiz-adv-x="1124" d="M185 397q0 65 15 151l23 121q34 197 166.5 303t322.5 106q110 0 195 -38t134 -102t70.5 -144.5t12.5 -168.5q0 -6 -9.5 -65t-14.5 -84h-678q-9 -36 -9 -86q0 -94 54 -156t166 -62q82 0 136.5 33.5t69.5 87.5h227q-18 -127 -141 -219.5t-308 -92.5q-193 0 -312.5 107.5 t-119.5 308.5zM450 629h447q3 15 3 24q17 102 -34.5 170.5t-159.5 68.5q-88 0 -154.5 -53t-89.5 -155zM625 1212l274 342h233l-330 -342h-177z" />
<glyph unicode="&#xea;" horiz-adv-x="1124" d="M185 397q0 65 15 151l23 121q34 197 166.5 303t322.5 106q110 0 195 -38t134 -102t70.5 -144.5t12.5 -168.5q0 -6 -9.5 -65t-14.5 -84h-678q-9 -36 -9 -86q0 -94 54 -156t166 -62q82 0 136.5 33.5t69.5 87.5h227q-18 -127 -141 -219.5t-308 -92.5q-193 0 -312.5 107.5 t-119.5 308.5zM440 1212l309 362h168l182 -362h-184l-99 233h-9l-183 -233h-184zM450 629h447q3 15 3 24q17 102 -34.5 170.5t-159.5 68.5q-88 0 -154.5 -53t-89.5 -155z" />
<glyph unicode="&#xeb;" horiz-adv-x="1124" d="M185 397q0 65 15 151l23 121q34 197 166.5 303t322.5 106q110 0 195 -38t134 -102t70.5 -144.5t12.5 -168.5q0 -6 -9.5 -65t-14.5 -84h-678q-9 -36 -9 -86q0 -94 54 -156t166 -62q82 0 136.5 33.5t69.5 87.5h227q-18 -127 -141 -219.5t-308 -92.5q-193 0 -312.5 107.5 t-119.5 308.5zM450 629h447q3 15 3 24q17 102 -34.5 170.5t-159.5 68.5q-88 0 -154.5 -53t-89.5 -155zM476 1306q0 51 33 82.5t85 31.5q53 0 86 -31.5t33 -82.5q0 -50 -33 -81.5t-86 -31.5q-52 0 -85 31.5t-33 81.5zM856 1306q0 51 32 82.5t83 31.5q55 0 88 -31.5t33 -82.5 q0 -50 -33.5 -81.5t-87.5 -31.5q-51 0 -83 31.5t-32 81.5z" />
<glyph unicode="&#xec;" horiz-adv-x="615" d="M179 0l187 1059h238l-188 -1059h-237zM213 1552h232l191 -340h-181z" />
<glyph unicode="&#xed;" horiz-adv-x="615" d="M179 0l187 1059h238l-188 -1059h-237zM367 1212l274 342h233l-330 -342h-177z" />
<glyph unicode="&#xee;" horiz-adv-x="615" d="M179 0l187 1059h238l-188 -1059h-237zM182 1212l309 362h168l182 -362h-184l-99 233h-9l-183 -233h-184z" />
<glyph unicode="&#xef;" horiz-adv-x="615" d="M179 0l187 1059h238l-188 -1059h-237zM218 1306q0 51 33 82.5t85 31.5q53 0 86 -31.5t33 -82.5q0 -50 -33 -81.5t-86 -31.5q-52 0 -85 31.5t-33 81.5zM598 1306q0 51 32 82.5t83 31.5q55 0 88 -31.5t33 -82.5q0 -50 -33.5 -81.5t-87.5 -31.5q-51 0 -83 31.5t-32 81.5z " />
<glyph unicode="&#xf0;" horiz-adv-x="1210" d="M184 422q0 60 12 123q2 14 11.5 62.5t10.5 50.5q34 173 155 273t286 100q107 0 178 -40.5t108 -98.5l7 -1q0 1 -1.5 33t-3.5 39q-6 119 -82 240l-291 -73l-22 124l237 57q-81 103 -172 181l220 62q85 -62 168 -179l250 63l27 -121l-201 -46q124 -214 100 -490 q0 -59 -15 -142l-44 -239q-16 -87 -52.5 -160.5t-94 -133t-143.5 -93t-191 -33.5q-209 0 -333 121.5t-124 320.5zM420 424q0 -111 58 -179t163 -68q103 0 167.5 69t85.5 190l15 87q8 48 8 92q0 110 -59.5 172.5t-158.5 62.5q-105 0 -172.5 -71t-86.5 -189l-13 -78 q-7 -51 -7 -88z" />
<glyph unicode="&#xf1;" horiz-adv-x="1222" d="M158 0l186 1059h234l-31 -167h14q43 85 120 134t189 49q156 0 239 -92t83 -233q0 -63 -22 -186l-100 -564h-237l101 577q12 70 12 116q0 85 -44.5 136.5t-131.5 51.5q-109 0 -177 -75.5t-90 -201.5l-107 -604h-238zM482 1186q8 115 64.5 186.5t147.5 71.5q30 0 54.5 -7.5 t46.5 -25.5t32 -29t32 -36q34 -44 48 -53q16 -10 32 -10q61 0 81 111h137q-5 -106 -67 -182.5t-154 -76.5q-49 0 -82 21.5t-63 60.5q-5 6 -16 20.5t-17 21t-16 15.5t-21 13t-24 4q-35 0 -52 -28.5t-26 -76.5h-137z" />
<glyph unicode="&#xf2;" horiz-adv-x="1170" d="M186 411q0 87 11 144l20 113q34 187 165 298.5t321 111.5q207 0 335.5 -117.5t128.5 -323.5q0 -66 -11 -128l-22 -113q-37 -192 -163 -302t-333 -110q-197 0 -324.5 113.5t-127.5 313.5zM424 418q0 -107 60.5 -174t167.5 -67q100 0 163.5 70.5t84.5 193.5l20 117 q6 34 6 91q0 103 -60.5 169t-164.5 66q-97 0 -162 -66.5t-86 -188.5l-19 -110q-10 -60 -10 -101zM491 1552h232l191 -340h-181z" />
<glyph unicode="&#xf3;" horiz-adv-x="1170" d="M186 411q0 87 11 144l20 113q34 187 165 298.5t321 111.5q207 0 335.5 -117.5t128.5 -323.5q0 -66 -11 -128l-22 -113q-37 -192 -163 -302t-333 -110q-197 0 -324.5 113.5t-127.5 313.5zM424 418q0 -107 60.5 -174t167.5 -67q100 0 163.5 70.5t84.5 193.5l20 117 q6 34 6 91q0 103 -60.5 169t-164.5 66q-97 0 -162 -66.5t-86 -188.5l-19 -110q-10 -60 -10 -101zM645 1212l274 342h233l-330 -342h-177z" />
<glyph unicode="&#xf4;" horiz-adv-x="1170" d="M186 411q0 87 11 144l20 113q34 187 165 298.5t321 111.5q207 0 335.5 -117.5t128.5 -323.5q0 -66 -11 -128l-22 -113q-37 -192 -163 -302t-333 -110q-197 0 -324.5 113.5t-127.5 313.5zM424 418q0 -107 60.5 -174t167.5 -67q100 0 163.5 70.5t84.5 193.5l20 117 q6 34 6 91q0 103 -60.5 169t-164.5 66q-97 0 -162 -66.5t-86 -188.5l-19 -110q-10 -60 -10 -101zM460 1212l309 362h168l182 -362h-184l-99 233h-9l-183 -233h-184z" />
<glyph unicode="&#xf5;" horiz-adv-x="1170" d="M186 411q0 87 11 144l20 113q34 187 165 298.5t321 111.5q207 0 335.5 -117.5t128.5 -323.5q0 -66 -11 -128l-22 -113q-37 -192 -163 -302t-333 -110q-197 0 -324.5 113.5t-127.5 313.5zM424 418q0 -107 60.5 -174t167.5 -67q100 0 163.5 70.5t84.5 193.5l20 117 q6 34 6 91q0 103 -60.5 169t-164.5 66q-97 0 -162 -66.5t-86 -188.5l-19 -110q-10 -60 -10 -101zM446 1186q8 115 64.5 186.5t147.5 71.5q30 0 54.5 -7.5t46.5 -25.5t32 -29t32 -36q34 -44 48 -53q16 -10 32 -10q61 0 81 111h137q-5 -106 -67 -182.5t-154 -76.5 q-49 0 -82 21.5t-63 60.5q-5 6 -16 20.5t-17 21t-16 15.5t-21 13t-24 4q-35 0 -52 -28.5t-26 -76.5h-137z" />
<glyph unicode="&#xf6;" horiz-adv-x="1170" d="M186 411q0 87 11 144l20 113q34 187 165 298.5t321 111.5q207 0 335.5 -117.5t128.5 -323.5q0 -66 -11 -128l-22 -113q-37 -192 -163 -302t-333 -110q-197 0 -324.5 113.5t-127.5 313.5zM424 418q0 -107 60.5 -174t167.5 -67q100 0 163.5 70.5t84.5 193.5l20 117 q6 34 6 91q0 103 -60.5 169t-164.5 66q-97 0 -162 -66.5t-86 -188.5l-19 -110q-10 -60 -10 -101zM496 1306q0 51 33 82.5t85 31.5q53 0 86 -31.5t33 -82.5q0 -50 -33 -81.5t-86 -31.5q-52 0 -85 31.5t-33 81.5zM876 1306q0 51 32 82.5t83 31.5q55 0 88 -31.5t33 -82.5 q0 -50 -33.5 -81.5t-87.5 -31.5q-51 0 -83 31.5t-32 81.5z" />
<glyph unicode="&#xf7;" horiz-adv-x="1204" d="M184 458l33 187h998l-33 -187h-998zM479 136q0 66 45 107.5t116 41.5q72 0 116.5 -40t44.5 -105t-46 -106t-119 -41q-69 0 -113 40t-44 103zM586 966q0 66 45 107.5t116 41.5t115.5 -40.5t44.5 -104.5q0 -65 -45.5 -106t-118.5 -41q-70 0 -113.5 40t-43.5 103z" />
<glyph unicode="&#xf8;" horiz-adv-x="1170" d="M91 88l137 122q-44 88 -44 201q0 81 12 144l20 113q34 187 164.5 298.5t321.5 111.5q221 0 348 -133l126 114l92 -101l-142 -126q40 -90 40 -195q0 -66 -11 -128l-22 -113q-37 -192 -163 -302t-333 -110q-206 0 -332 120l-130 -116zM424 434q0 -28 4 -48l459 400 q-59 98 -187 98q-97 0 -162 -66.5t-86 -188.5l-19 -110q-9 -45 -9 -85zM468 264q61 -87 182 -87q101 0 164.5 70.5t84.5 193.5l20 117q4 27 4 68q0 10 -2 30z" />
<glyph unicode="&#xf9;" horiz-adv-x="1212" d="M206 307q0 75 20 181l104 571h237l-102 -573q-12 -72 -12 -122q0 -86 48 -133.5t136 -47.5q109 0 175.5 74.5t88.5 201.5l105 600h234l-185 -1059h-228l31 172h-15q-40 -83 -119 -135.5t-190 -52.5q-152 0 -240 89t-88 234zM517 1552h232l191 -340h-181z" />
<glyph unicode="&#xfa;" horiz-adv-x="1212" d="M206 307q0 75 20 181l104 571h237l-102 -573q-12 -72 -12 -122q0 -86 48 -133.5t136 -47.5q109 0 175.5 74.5t88.5 201.5l105 600h234l-185 -1059h-228l31 172h-15q-40 -83 -119 -135.5t-190 -52.5q-152 0 -240 89t-88 234zM670 1212l274 342h233l-330 -342h-177z" />
<glyph unicode="&#xfb;" horiz-adv-x="1212" d="M206 307q0 75 20 181l104 571h237l-102 -573q-12 -72 -12 -122q0 -86 48 -133.5t136 -47.5q109 0 175.5 74.5t88.5 201.5l105 600h234l-185 -1059h-228l31 172h-15q-40 -83 -119 -135.5t-190 -52.5q-152 0 -240 89t-88 234zM485 1212l309 362h168l182 -362h-184l-99 233 h-9l-183 -233h-184z" />
<glyph unicode="&#xfc;" horiz-adv-x="1212" d="M206 307q0 75 20 181l104 571h237l-102 -573q-12 -72 -12 -122q0 -86 48 -133.5t136 -47.5q109 0 175.5 74.5t88.5 201.5l105 600h234l-185 -1059h-228l31 172h-15q-40 -83 -119 -135.5t-190 -52.5q-152 0 -240 89t-88 234zM521 1306q0 51 33 82.5t85 31.5q53 0 86 -31.5 t33 -82.5q0 -50 -33 -81.5t-86 -31.5q-52 0 -85 31.5t-33 81.5zM901 1306q0 51 32 82.5t83 31.5q55 0 88 -31.5t33 -82.5q0 -50 -33.5 -81.5t-87.5 -31.5q-51 0 -83 31.5t-32 81.5z" />
<glyph unicode="&#xfd;" horiz-adv-x="1075" d="M65 -342l37 183q41 -10 84 -10q81 0 124.5 34t74.5 101l23 52l-183 1041h245l107 -826h12l363 826h252l-525 -1047q-1 -3 -9.5 -19t-16.5 -31.5t-9 -16.5q-44 -85 -83.5 -137.5t-92.5 -91.5t-121 -55.5t-162 -16.5q-66 0 -120 14zM609 1212l274 342h233l-330 -342h-177z " />
<glyph unicode="&#xfe;" horiz-adv-x="1218" d="M95 -353l315 1790h234l-97 -559h14q86 195 304 195q162 0 258.5 -106.5t96.5 -294.5q0 -70 -11 -129l-27 -150q-33 -187 -145.5 -298t-279.5 -111q-128 0 -212 63.5t-106 156.5h-9l-97 -557h-238zM477 435q0 -114 66.5 -181t159.5 -67q95 0 162 69.5t87 181.5l22 122 q5 33 5 76q0 116 -56 179t-155 63q-107 0 -176 -71.5t-89 -195.5l-20 -119q-6 -33 -6 -57z" />
<glyph unicode="&#xff;" horiz-adv-x="1075" d="M65 -342l37 183q41 -10 84 -10q81 0 124.5 34t74.5 101l23 52l-183 1041h245l107 -826h12l363 826h252l-525 -1047q-1 -3 -9.5 -19t-16.5 -31.5t-9 -16.5q-44 -85 -83.5 -137.5t-92.5 -91.5t-121 -55.5t-162 -16.5q-66 0 -120 14zM460 1306q0 51 33 82.5t85 31.5 q53 0 86 -31.5t33 -82.5q0 -50 -33 -81.5t-86 -31.5q-52 0 -85 31.5t-33 81.5zM840 1306q0 51 32 82.5t83 31.5q55 0 88 -31.5t33 -82.5q0 -50 -33.5 -81.5t-87.5 -31.5q-51 0 -83 31.5t-32 81.5z" />
<glyph unicode="&#x152;" horiz-adv-x="2022" d="M221 484q0 89 15 174l33 185q45 257 212 399.5t415 142.5q119 0 248.5 -47t161.5 -121l27 148h807l-35 -207h-614l-66 -368h577l-33 -196h-578l-70 -387h614l-36 -207h-807l16 85q-41 -52 -153.5 -78t-207.5 -26q-242 0 -384 129t-142 374zM472 515q0 -157 89 -242.5 t234 -85.5q123 0 212.5 68.5t110.5 189.5l45 270q4 22 15.5 108.5t11.5 95.5q0 108 -91.5 183.5t-216.5 75.5q-138 0 -236 -90.5t-129 -261.5l-33 -180q-12 -63 -12 -131z" />
<glyph unicode="&#x153;" horiz-adv-x="1850" d="M184 419q0 65 12 133l21 122q32 184 158.5 294t313.5 110q126 0 225.5 -51.5t143.5 -149.5h7q57 97 152.5 149t221.5 52q109 0 193.5 -39t133.5 -104t70.5 -144t13.5 -164q0 -34 -25 -151h-678q0 -4 -5 -29q-4 -23 -4 -53q0 -97 54 -159.5t166 -62.5q82 0 137 33.5 t70 87.5h227q-17 -125 -141 -218.5t-299 -93.5q-124 0 -215.5 52t-132.5 147h-7q-47 -91 -144.5 -143.5t-226.5 -52.5q-92 0 -171 27t-140 79.5t-96 137t-35 191.5zM421 421q0 -109 60 -176.5t165 -67.5q103 0 166.5 69.5t85.5 194.5l19 117q6 36 6 83q0 110 -59.5 176.5 t-164.5 66.5q-98 0 -162.5 -66t-86.5 -189l-19 -110q-10 -60 -10 -98zM1176 629h447q3 15 3 24q16 102 -34.5 170.5t-158.5 68.5q-90 0 -156.5 -53t-88.5 -155z" />
<glyph unicode="&#x178;" horiz-adv-x="1178" d="M242 1365h259l212 -600h12l417 600h270l-606 -832l-94 -533h-244l95 528zM565 1582q0 53 31.5 84t83.5 31t85 -31t33 -84q0 -49 -33 -79t-85 -30q-51 0 -83 30t-32 79zM936 1582q0 52 32.5 83.5t82.5 31.5q53 0 85 -31t32 -84q0 -49 -32 -79t-85 -30q-50 0 -82.5 30.5 t-32.5 78.5z" />
<glyph unicode="&#x2c6;" horiz-adv-x="1000" d="M382 1199l309 362h168l182 -362h-184l-99 233h-9l-183 -233h-184z" />
<glyph unicode="&#x2dc;" horiz-adv-x="1000" d="M398 1228q8 115 64.5 186.5t147.5 71.5q30 0 54.5 -7.5t46.5 -25.5t32 -29t32 -36q34 -44 48 -53q16 -10 32 -10q61 0 81 111h137q-5 -106 -67 -182.5t-154 -76.5q-49 0 -82 21.5t-63 60.5q-5 6 -16 20.5t-17 21t-16 15.5t-21 13t-24 4q-35 0 -52 -28.5t-26 -76.5h-137z " />
<glyph unicode="&#x2000;" horiz-adv-x="863" />
<glyph unicode="&#x2001;" horiz-adv-x="1727" />
<glyph unicode="&#x2002;" horiz-adv-x="863" />
<glyph unicode="&#x2003;" horiz-adv-x="1727" />
<glyph unicode="&#x2004;" horiz-adv-x="575" />
<glyph unicode="&#x2005;" horiz-adv-x="431" />
<glyph unicode="&#x2006;" horiz-adv-x="287" />
<glyph unicode="&#x2007;" horiz-adv-x="287" />
<glyph unicode="&#x2008;" horiz-adv-x="215" />
<glyph unicode="&#x2009;" horiz-adv-x="345" />
<glyph unicode="&#x200a;" horiz-adv-x="95" />
<glyph unicode="&#x2010;" horiz-adv-x="868" d="M199 453l36 217h633l-37 -217h-632z" />
<glyph unicode="&#x2011;" horiz-adv-x="868" d="M199 453l36 217h633l-37 -217h-632z" />
<glyph unicode="&#x2012;" horiz-adv-x="868" d="M199 453l36 217h633l-37 -217h-632z" />
<glyph unicode="&#x2013;" horiz-adv-x="1222" d="M81 453l37 217h1221l-37 -217h-1221z" />
<glyph unicode="&#x2014;" horiz-adv-x="2048" d="M81 453l37 217h2048l-37 -217h-2048z" />
<glyph unicode="&#x2018;" horiz-adv-x="645" d="M284 789l264 576h194l-203 -576h-255z" />
<glyph unicode="&#x2019;" horiz-adv-x="646" d="M284 789l203 576h255l-264 -576h-194z" />
<glyph unicode="&#x201a;" horiz-adv-x="646" d="M62 -471l203 576h255l-264 -576h-194z" />
<glyph unicode="&#x201c;" horiz-adv-x="1088" d="M284 789l221 576h205l-175 -576h-251zM761 789l221 576h202l-172 -576h-251z" />
<glyph unicode="&#x201d;" horiz-adv-x="1088" d="M284 789l171 576h252l-221 -576h-202zM758 789l175 576h251l-221 -576h-205z" />
<glyph unicode="&#x201e;" horiz-adv-x="1087" d="M62 -469l171 576h252l-221 -576h-202zM536 -469l175 576h251l-221 -576h-205z" />
<glyph unicode="&#x2022;" horiz-adv-x="983" d="M277 608q0 133 93.5 227.5t224.5 94.5t225 -94.5t94 -227.5q0 -131 -94 -225t-225 -94t-224.5 94t-93.5 225z" />
<glyph unicode="&#x2026;" horiz-adv-x="1641" d="M158 138q0 74 49 122t119 48q71 0 117 -44.5t46 -116.5q0 -73 -49.5 -119.5t-122.5 -46.5q-67 0 -113 43.5t-46 113.5zM684 138q0 74 49 122t119 48q71 0 116.5 -44.5t45.5 -116.5q0 -73 -49 -119.5t-122 -46.5q-68 0 -113.5 43.5t-45.5 113.5zM1209 138q0 74 49 122 t119 48q71 0 117 -44.5t46 -116.5q0 -73 -49.5 -119.5t-122.5 -46.5q-68 0 -113.5 43.5t-45.5 113.5z" />
<glyph unicode="&#x202f;" horiz-adv-x="345" />
<glyph unicode="&#x2039;" horiz-adv-x="858" d="M239 557l2 8l415 404h233l-417 -408l-1 -6l260 -400h-227z" />
<glyph unicode="&#x203a;" horiz-adv-x="858" d="M167 155l403 408l1 6l-260 400h226l272 -404l-1 -8l-406 -402h-235z" />
<glyph unicode="&#x205f;" horiz-adv-x="431" />
<glyph unicode="&#x20ac;" horiz-adv-x="1183" d="M96 476l25 143h137q3 52 17 143h-128l25 144h128q51 236 183.5 361t351.5 125q117 0 209 -36t148 -97t84.5 -136t28.5 -158q0 -44 -6 -66h-232q2 29 1 44q-17 233 -236 233q-213 0 -281 -270h289l-25 -144h-295q-12 -76 -16 -143h285l-24 -143h-263q2 -145 57.5 -213.5 t180.5 -68.5q117 0 174 56t78 157h233q-1 -7 -2.5 -19t-3.5 -19q-13 -78 -44.5 -144.5t-87 -125t-146 -92t-206.5 -33.5q-223 0 -351.5 125.5t-130.5 375.5v1h-157z" />
<glyph unicode="&#x2122;" horiz-adv-x="1781" d="M330 1221l24 144h623l-24 -144h-232l-97 -546h-163l97 546h-228zM999 675l121 690h179l137 -412h9l282 412h182l-122 -690h-144l81 455h-10l-267 -390h-85l-128 390h-9l-81 -455h-145z" />
<glyph unicode="&#x25fc;" horiz-adv-x="1060" d="M0 0v1060h1060v-1060h-1060z" />
<glyph unicode="&#xfb01;" horiz-adv-x="1386" d="M209 853l33 188h170l13 79q28 168 123.5 245t275.5 77q67 0 140 -11l-30 -175q-40 7 -96 7q-83 0 -125.5 -36t-56.5 -110l-13 -76h238l-33 -188h-234l-151 -853h-236l151 853h-169zM980 0l187 1059h238l-187 -1059h-238zM1172 1369q0 64 44.5 104t112.5 40 q69 0 110.5 -38.5t41.5 -99.5q0 -64 -44.5 -103.5t-114.5 -39.5q-66 0 -108 38.5t-42 98.5z" />
<glyph unicode="&#xfb02;" horiz-adv-x="1391" d="M209 853l33 188h170l13 79q28 168 123.5 245t275.5 77q67 0 140 -11l-30 -175q-40 7 -96 7q-83 0 -125.5 -36t-56.5 -110l-13 -76h238l-33 -188h-234l-151 -853h-236l151 853h-169zM983 0l252 1425h238l-252 -1425h-238z" />
</font>
</defs>
</svg>
