<?xml version="1.0" standalone="no"?>
<!DOCTYPE svg PUBLIC "-//W3C//DTD SVG 1.1//EN" "http://www.w3.org/Graphics/SVG/1.1/DTD/svg11.dtd" >
<svg xmlns="http://www.w3.org/2000/svg">
<metadata></metadata>
<defs>
<font id="san_francisco_displaymedium" horiz-adv-x="1114" >
<font-face units-per-em="2048" ascent="1638" descent="-410" />
<missing-glyph horiz-adv-x="408" />
<glyph horiz-adv-x="0" />
<glyph unicode="&#xd;" horiz-adv-x="0" />
<glyph unicode=" "  horiz-adv-x="408" />
<glyph unicode="&#x09;" horiz-adv-x="408" />
<glyph unicode="&#xa0;" horiz-adv-x="408" />
<glyph unicode="!" horiz-adv-x="529" d="M134 102q0 55 36.5 89t92.5 34q60 0 96.5 -34t36.5 -89q0 -52 -37 -86t-96 -34q-55 0 -92 34t-37 86zM154 1365h226l-25 -956h-177z" />
<glyph unicode="&#x22;" horiz-adv-x="850" d="M104 1365h223l-29 -516h-165zM523 1365h223l-29 -516h-165z" />
<glyph unicode="#" horiz-adv-x="1203" d="M53 382l31 156h203l61 302h-192l30 154h194l74 371h160l-76 -371h270l74 371h158l-75 -371h214l-30 -154h-215l-62 -302h204l-31 -156h-205l-77 -382h-158l77 382h-268l-78 -382h-158l76 382h-201zM436 530h283l65 317h-283z" />
<glyph unicode="$" d="M62 380h184q6 -89 69 -148.5t177 -74.5v472l-77 20q-65 16 -119.5 43t-101 69t-73 104t-26.5 139q0 112 53.5 195.5t141 127.5t201.5 55v131h138v-131q172 -16 283.5 -115.5t115.5 -256.5h-180q-3 82 -62 141t-158 72v-444l80 -20q168 -42 256 -128t88 -241 q0 -174 -116.5 -274.5t-307.5 -116.5v-128h-137v126q-208 16 -317.5 124.5t-111.5 258.5zM279 1018q0 -128 161 -189q34 -12 52 -17v411q-96 -12 -154.5 -65t-58.5 -140zM628 156q109 9 174.5 66.5t65.5 153.5q0 78 -47.5 129t-162.5 86q-5 1 -15 3.5t-15 3.5v-442z" />
<glyph unicode="%" horiz-adv-x="1394" d="M14 1018v28q0 141 76.5 236.5t206.5 95.5t206.5 -95t76.5 -240v-28q0 -142 -77 -238.5t-209 -96.5q-130 0 -205 96t-75 242zM89 0l534 695l510 670h167l-530 -690l-514 -675h-167zM155 1028q0 -101 37 -161t105 -60q66 0 104 59.5t38 158.5v9q0 100 -37 159t-105 59 q-69 0 -105.5 -60t-36.5 -156v-8zM816 326v28q0 142 76.5 237t206.5 95t206.5 -95t76.5 -240v-27q0 -143 -77 -239.5t-209 -96.5q-130 0 -205 96t-75 242zM956 336q0 -100 37.5 -160.5t104.5 -60.5t105 59.5t38 159.5v8q0 100 -37 159t-105 59q-69 0 -106 -60t-37 -156v-8z " />
<glyph unicode="&#x26;" horiz-adv-x="1316" d="M78 358q0 126 69 215t194 158q41 21 53 27q-81 85 -124.5 157t-43.5 156q0 130 101 218t255 88q150 0 252 -85t102 -222q0 -61 -22 -113t-64.5 -94.5t-88.5 -74.5t-111 -66l312 -339q59 111 59 343v49h178v-54q0 -300 -112 -467l241 -254h-241l-118 127 q-91 -80 -203.5 -117t-225.5 -37q-202 0 -332 104.5t-130 280.5zM272 372q0 -115 83 -178t203 -63q80 0 162 29.5t137 87.5l-361 397l-19 -9.5t-23 -12.5q-89 -49 -135.5 -108t-46.5 -143zM409 1060q0 -52 30.5 -103.5t108.5 -129.5q104 53 156 105.5t52 129.5 q0 75 -49 121.5t-124 46.5q-77 0 -125.5 -47.5t-48.5 -122.5z" />
<glyph unicode="'" horiz-adv-x="431" d="M104 1365h223l-29 -516h-165z" />
<glyph unicode="(" horiz-adv-x="635" d="M127 566q0 127 17 238t40.5 187.5t62.5 152t69 119t75 100.5h174q-35 -40 -71 -104t-75.5 -161.5t-64 -237t-24.5 -292.5q0 -124 17.5 -240.5t38.5 -194.5t59.5 -166t59 -125.5t58.5 -103.5h-182q-46 56 -85.5 125t-80 170.5t-64.5 239.5t-24 293z" />
<glyph unicode=")" horiz-adv-x="635" d="M69 1363h173q45 -57 75 -100t70 -119t63.5 -152.5t40.5 -187.5t17 -238q0 -155 -24.5 -293t-66 -239.5t-81 -170t-85.5 -125.5h-180q39 67 58.5 103.5t58.5 125.5t59.5 166t38 194t17.5 241q0 153 -24.5 292.5t-64 237t-75 161.5t-70.5 104z" />
<glyph unicode="*" horiz-adv-x="748" d="M69 962l213 104l-213 104l62 109l198 -135l-16 239h122l-17 -239l200 135l61 -108l-214 -105l214 -104l-61 -108l-199 132l16 -236h-122l16 236l-198 -132z" />
<glyph unicode="+" d="M70 461v168h403v418h169v-418h404v-168h-404v-439h-169v439h-403z" />
<glyph unicode="," horiz-adv-x="437" d="M22 -236l110 444h209l-171 -444h-148z" />
<glyph unicode="-" horiz-adv-x="787" d="M78 470v180h630v-180h-630z" />
<glyph unicode="." horiz-adv-x="499" d="M124 105q0 55 36 89.5t89 34.5q55 0 91.5 -35t36.5 -89t-36.5 -89t-91.5 -35q-53 0 -89 35t-36 89z" />
<glyph unicode="/" horiz-adv-x="689" d="M11 -302l490 1739h180l-490 -1739h-180z" />
<glyph unicode="0" horiz-adv-x="1167" d="M91 630v103q0 305 129.5 482.5t364.5 177.5q236 0 363.5 -177t127.5 -483v-103q0 -301 -128 -479.5t-365 -178.5q-235 0 -363.5 177t-128.5 481zM296 632q0 -232 76.5 -358.5t211.5 -126.5q134 0 210.5 126.5t76.5 358.5v100q0 232 -76.5 359t-210.5 127 q-135 0 -211.5 -127t-76.5 -359v-100z" />
<glyph unicode="1" horiz-adv-x="817" d="M104 950v208q63 45 166 108.5t168 98.5h194v-1365h-204v1150h-5q-44 -24 -152.5 -92t-166.5 -108z" />
<glyph unicode="2" horiz-adv-x="1118" d="M109 978v9q0 79 28.5 151t82.5 129.5t139.5 91.5t191.5 34q196 0 316.5 -106.5t120.5 -270.5q0 -26 -4 -51.5t-7.5 -46t-16 -47t-18.5 -41t-25.5 -43t-26 -39t-32 -42t-31.5 -38.5t-37 -42.5t-36 -41.5l-349 -405v-4h609v-175h-894v129l506 574q36 41 56.5 66.5t47 65.5 t39 81t12.5 84q0 99 -66 160t-168 61q-109 0 -174.5 -68.5t-65.5 -165.5q0 -1 1 -5v-4h-199z" />
<glyph unicode="3" horiz-adv-x="1140" d="M88 362h192q13 -98 82.5 -159t191.5 -61q134 0 210.5 67.5t74.5 175.5q-2 106 -77.5 170t-208.5 64h-142v170h134q110 0 179 62t69 160q-1 95 -66.5 154t-173.5 59q-112 0 -172 -63t-67 -147h-195q2 73 31 140t82 121t137 86t187 32q193 0 315.5 -99.5t126.5 -250.5 q3 -134 -76.5 -223.5t-170.5 -103.5v-5q37 -3 76 -16.5t78 -41t70 -64.5t51 -91t21 -118q3 -177 -140 -293t-359 -116q-218 0 -336 111t-124 280z" />
<glyph unicode="4" horiz-adv-x="1177" d="M85 273v173q59 107 135 235t132.5 218.5t152 242t140.5 223.5h297v-917h175v-175h-175v-273h-195v273h-662zM282 448h465v748h-5q-274 -415 -460 -746v-2z" />
<glyph unicode="5" horiz-adv-x="1194" d="M129 351h195q15 -99 89.5 -153.5t188.5 -54.5q52 0 102 20t92 56.5t67.5 95t25.5 128.5q0 134 -81.5 215.5t-203.5 81.5q-108 0 -178 -49.5t-103 -120.5h-177l71 797h776v-174h-606l-42 -404h5q31 42 111.5 79.5t182.5 37.5q122 0 224.5 -55.5t164.5 -161t62 -239.5 q0 -212 -143 -345t-360 -133q-209 0 -331 109t-132 270z" />
<glyph unicode="6" horiz-adv-x="1145" d="M87 637q0 367 142 560t379 193q95 0 175 -31t131.5 -81.5t82.5 -111.5t36 -125h-201q-7 66 -68.5 122.5t-162.5 56.5q-137 0 -224 -135t-93 -395h6q32 81 121.5 140.5t213.5 59.5q85 0 163.5 -30t141.5 -84.5t100.5 -141t37.5 -191.5q0 -216 -136 -343t-342 -127 q-233 0 -368 168.5t-135 495.5zM312 432q0 -135 81.5 -211.5t198.5 -76.5q116 0 196 75t80 214q0 70 -23.5 126.5t-63 91.5t-88 53.5t-102.5 18.5q-118 0 -198.5 -78t-80.5 -213z" />
<glyph unicode="7" horiz-adv-x="1087" d="M89 1190v175h890v-181l-557 -1184h-216l574 1186v4h-691z" />
<glyph unicode="8" horiz-adv-x="1189" d="M97 373q0 62 18 116t46.5 91.5t66.5 66.5t75 45.5t74 25.5v4q-90 29 -157.5 107t-67.5 200q0 159 124.5 261.5t318.5 102.5q195 0 319.5 -102.5t124.5 -261.5q0 -64 -21 -119t-56 -91.5t-72 -60t-77 -36.5v-4q48 -11 94 -36t89 -65.5t69 -103.5t26 -139 q0 -177 -140 -289.5t-360 -112.5t-357 111.5t-137 289.5zM300 383q0 -110 84 -179.5t211 -69.5t210.5 69.5t83.5 179.5q0 111 -83.5 181t-210.5 70t-211 -70t-84 -181zM350 1012q0 -98 69.5 -160t175.5 -62q107 0 176 62t69 160q0 96 -69 156.5t-176 60.5t-176 -60.5 t-69 -156.5z" />
<glyph unicode="9" horiz-adv-x="1145" d="M90 925q0 107 39 196.5t104 147.5t149.5 90t176.5 32q242 0 376.5 -166.5t134.5 -518.5q0 -344 -138 -537.5t-384 -193.5q-84 0 -156 22t-122.5 58.5t-87.5 84t-56 98t-22 101.5h200q10 -76 76.5 -135t175.5 -59q153 0 235 144.5t81 385.5h-9q-30 -84 -120.5 -142 t-225.5 -58q-83 0 -159 29.5t-136.5 84.5t-96 142t-35.5 194zM290 930q0 -139 78.5 -214t195.5 -75q116 0 199.5 80.5t83.5 203.5q0 142 -78.5 219t-199.5 77q-115 0 -197 -76t-82 -215z" />
<glyph unicode=":" horiz-adv-x="537" d="M139 105q0 54 36.5 89t88.5 35q55 0 91.5 -35t36.5 -89t-36.5 -89t-91.5 -35q-52 0 -88.5 35t-36.5 89zM139 812q0 54 36.5 89t88.5 35q55 0 91.5 -35t36.5 -89t-36.5 -89t-91.5 -35q-52 0 -88.5 35t-36.5 89z" />
<glyph unicode=";" horiz-adv-x="537" d="M55 -254l107 444h208l-166 -444h-149zM141 812q0 55 36 89.5t89 34.5q55 0 91.5 -35t36.5 -89t-36.5 -89t-91.5 -35q-53 0 -89 35t-36 89z" />
<glyph unicode="&#x3c;" d="M118 440v151l876 514v-209l-655 -369v-10l655 -351v-208z" />
<glyph unicode="=" d="M124 274v161h866v-161h-866zM124 658v163h866v-163h-866z" />
<glyph unicode="&#x3e;" d="M118 -42v208l657 351v10l-657 369v209l877 -514v-151z" />
<glyph unicode="?" horiz-adv-x="956" d="M59 1000q-1 86 23.5 155t66 113.5t98 74t115.5 41.5t122 12q111 0 202.5 -37t151 -118t59.5 -194q0 -60 -15.5 -109.5t-48 -90t-59 -64.5t-72.5 -60q-68 -53 -95 -78t-45 -64t-18 -95v-58h-191l-1 78q-2 68 25.5 128t65 98.5t96.5 83.5q44 34 64.5 51.5t45 45.5t33.5 57 t9 66q0 96 -62 144t-155 48q-108 0 -166 -63.5t-59 -164.5h-190zM323 102q0 55 36.5 89t92.5 34q60 0 96.5 -34t36.5 -89q0 -52 -37 -86t-96 -34q-55 0 -92 34t-37 86z" />
<glyph unicode="@" horiz-adv-x="1682" d="M92 486v57q0 173 58 318t160.5 243.5t244.5 153.5t307 55h8q172 0 313.5 -56t231.5 -151t139 -215.5t49 -253.5v-50q0 -204 -97.5 -329t-251.5 -125q-98 0 -160 41t-75 99h-10q-15 -55 -77 -97.5t-145 -42.5q-125 0 -195.5 89t-70.5 239v97q0 145 72.5 234t200.5 89 q82 0 134 -39.5t68 -91.5h8v116h154v-490q0 -55 32.5 -85t84.5 -30q76 0 128.5 86t52.5 251v34q0 110 -40 208.5t-112.5 174.5t-185 120.5t-248.5 44.5h-8q-132 0 -245.5 -45t-196.5 -127t-130 -203.5t-47 -267.5v-45q0 -155 49 -277t134 -197t194 -114t235 -39h8 q203 0 314 49v-136q-99 -46 -317 -46h-9q-160 0 -296.5 48.5t-240.5 140.5t-163 237t-59 328zM684 483q0 -109 41.5 -160t115.5 -51q71 0 113 49t42 153v81q0 94 -44.5 145t-112.5 51q-69 0 -112 -52.5t-43 -154.5v-61z" />
<glyph unicode="A" horiz-adv-x="1218" d="M21 0l476 1365h223l476 -1365h-221l-127 391h-490l-128 -391h-209zM407 551h392l-192 590h-7z" />
<glyph unicode="B" horiz-adv-x="1234" d="M158 0v1365h531q175 0 281 -89.5t106 -246.5q0 -120 -60.5 -196t-163.5 -105v-9q139 -17 219 -106t80 -230q0 -182 -131.5 -282.5t-344.5 -100.5h-517zM363 169h225q82 0 142.5 9.5t110 33t75 67.5t25.5 109q0 114 -73 173.5t-200 59.5h-305v-452zM363 784h199 q155 0 231.5 50.5t76.5 159.5q0 101 -60.5 152t-160.5 51h-286v-413z" />
<glyph unicode="C" horiz-adv-x="1258" d="M103 592v174q0 300 146.5 463.5t400.5 163.5q121 0 221 -40t162.5 -106t96.5 -149t34 -172v-10h-201q0 56 -20.5 108.5t-58.5 95t-98.5 68t-134.5 25.5q-157 0 -249 -114t-92 -335v-171q0 -222 91.5 -331t253.5 -109q146 0 227 79.5t81 196.5h201v-11q0 -64 -19.5 -126.5 t-61.5 -120.5t-101.5 -102t-145.5 -70.5t-187 -26.5q-256 0 -401 160.5t-145 459.5z" />
<glyph unicode="D" horiz-adv-x="1303" d="M158 0v1365h457q129 0 231.5 -33t171.5 -91.5t114.5 -144.5t66 -187.5t20.5 -224.5q0 -121 -19.5 -222t-64.5 -188t-114 -147t-172 -93.5t-234 -33.5h-457zM364 177h233q207 0 308 125t101 379q0 508 -409 508h-233v-1012z" />
<glyph unicode="E" horiz-adv-x="1107" d="M158 0v1365h838v-177h-633v-408h597v-170h-597v-433h633v-177h-838z" />
<glyph unicode="F" horiz-adv-x="1042" d="M158 0v1365h827v-178h-621v-437h569v-176h-569v-574h-206z" />
<glyph unicode="G" horiz-adv-x="1283" d="M103 595v183q0 287 151 451t408 164q119 0 216.5 -37t160 -100.5t98 -143.5t40.5 -170h-203q-16 133 -103.5 202t-212.5 69q-154 0 -251.5 -108.5t-97.5 -327.5v-182q0 -208 88 -325.5t259 -117.5q143 0 234 79.5t91 202.5v116h-329v170h528v-279q0 -61 -16 -122.5 t-55.5 -125t-97.5 -112t-150 -79t-205 -30.5q-272 0 -412.5 167t-140.5 456z" />
<glyph unicode="H" horiz-adv-x="1377" d="M158 0v1365h206v-572h650v572h206v-1365h-206v615h-650v-615h-206z" />
<glyph unicode="I" horiz-adv-x="521" d="M158 0v1365h206v-1365h-206z" />
<glyph unicode="J" horiz-adv-x="997" d="M25 338h200q3 -83 59.5 -131.5t138.5 -48.5q101 0 158.5 58t57.5 180v969h207v-956q0 -215 -114 -326t-308 -111q-184 0 -291.5 103t-107.5 263z" />
<glyph unicode="K" horiz-adv-x="1209" d="M158 0v1365h206v-644h9l568 644h236l-502 -583l527 -782h-256l-423 641l-159 -175v-466h-206z" />
<glyph unicode="L" horiz-adv-x="999" d="M158 0v1365h206v-1184h612v-181h-818z" />
<glyph unicode="M" horiz-adv-x="1600" d="M162 0v1365h204l432 -998h5l431 998h204v-1365h-186v963h-8l-366 -830h-157l-367 830h-7v-963h-185z" />
<glyph unicode="N" horiz-adv-x="1368" d="M158 0v1365h187l659 -1014h6v1014h200v-1365h-187l-660 1016h-6v-1016h-199z" />
<glyph unicode="O" horiz-adv-x="1324" d="M103 580v192q0 289 151 455t409 166t408 -165.5t150 -455.5v-192q0 -287 -151 -447.5t-410 -160.5t-408 160.5t-149 447.5zM310 580q0 -211 97 -319.5t254 -108.5q158 0 255 108.5t97 319.5v194q0 211 -97.5 325.5t-254.5 114.5q-156 0 -253.5 -114.5t-97.5 -325.5v-194z " />
<glyph unicode="P" horiz-adv-x="1165" d="M158 0v1365h513q201 0 322 -121t121 -314q0 -194 -121 -313t-323 -119h-307v-498h-205zM363 669h192q87 0 147.5 11.5t107.5 40t70 80t23 129.5q0 124 -68 192.5t-190 68.5h-282v-522z" />
<glyph unicode="Q" horiz-adv-x="1327" d="M104 587v190q0 288 151 452t407 164q257 0 408.5 -164.5t151.5 -451.5v-190q0 -312 -178 -477l183 -258h-220l-118 164q-104 -44 -227 -44q-256 0 -407 163.5t-151 451.5zM308 586q0 -214 97.5 -326.5t254.5 -114.5q70 0 123 23l-163 226h215l91 -122q92 115 92 314v191 q0 212 -98.5 324.5t-257.5 112.5q-158 0 -256 -112.5t-98 -324.5v-191z" />
<glyph unicode="R" horiz-adv-x="1228" d="M158 0v1365h510q113 0 201 -33t142 -91t81.5 -132t27.5 -159q0 -80 -23 -147t-61 -112.5t-80 -75t-88 -46.5l277 -569h-233l-248 532h-302v-532h-204zM362 701h272q133 0 203 62t70 178q0 122 -72 187t-195 65h-278v-492z" />
<glyph unicode="S" horiz-adv-x="1172" d="M60 375h203q10 -99 93 -163.5t226 -64.5q136 0 215 60t79 163q0 80 -52.5 128t-166.5 76l-230 58q-68 17 -124 45t-103.5 70.5t-74 106t-26.5 142.5q0 125 68.5 217.5t177 137.5t239.5 45q129 0 236 -43.5t176 -134.5t71 -216h-199q-9 97 -82.5 159t-204.5 62 q-124 0 -199.5 -56.5t-75.5 -155.5q0 -144 191 -190l228 -58q65 -16 117 -37t98.5 -52.5t77 -71t48.5 -94t18 -121.5q0 -196 -144.5 -305.5t-375.5 -109.5q-107 0 -194 24.5t-143 64.5t-94 93.5t-54.5 108.5t-18.5 112z" />
<glyph unicode="T" horiz-adv-x="1054" d="M18 1186v179h1018v-179h-407v-1186h-204v1186h-407z" />
<glyph unicode="U" horiz-adv-x="1341" d="M142 477v888h206v-881q0 -153 87 -242t235 -89t236 89.5t88 241.5v881h205v-891q0 -226 -145.5 -364t-383.5 -138q-237 0 -382.5 139t-145.5 366z" />
<glyph unicode="V" horiz-adv-x="1214" d="M14 1365h236l357 -1114h8l354 1114h231l-479 -1365h-227z" />
<glyph unicode="W" horiz-adv-x="1698" d="M11 1365h233l238 -1037h7l261 1037h198l260 -1037h8l238 1037h232l-371 -1365h-187l-276 1030h-7l-276 -1030h-187z" />
<glyph unicode="X" horiz-adv-x="1144" d="M3 0l439 688l-433 677h245l324 -525h11l320 525h235l-447 -688l439 -677h-243l-324 521h-11l-326 -521h-229z" />
<glyph unicode="Y" horiz-adv-x="1108" d="M-5 1365h232l324 -597h7l327 597h228l-457 -797v-568h-205v565z" />
<glyph unicode="Z" horiz-adv-x="1156" d="M83 0v141l708 1041v6h-685v177h937v-139l-703 -1042v-6h721v-178h-978z" />
<glyph unicode="[" horiz-adv-x="668" d="M127 -228v1593h463v-150h-270v-1293h283v-150h-476z" />
<glyph unicode="\" horiz-adv-x="689" d="M11 1437h180l490 -1739h-180z" />
<glyph unicode="]" horiz-adv-x="668" d="M66 -78h283v1293h-271v150h463v-1593h-475v150z" />
<glyph unicode="^" horiz-adv-x="795" d="M44 795l262 570h185l260 -570h-173l-177 408h-7l-179 -408h-171z" />
<glyph unicode="_" horiz-adv-x="846" d="M-28 -103h901v-157h-901v157z" />
<glyph unicode="`" horiz-adv-x="946" d="M187 1492h208l193 -277h-164z" />
<glyph unicode="a" horiz-adv-x="1072" d="M88 302q0 142 96.5 225.5t274.5 83.5h271v118q0 175 -204 175q-189 0 -205 -158h-194q7 148 107.5 236.5t299.5 88.5q188 0 293 -84t105 -260v-727h-192v138h-7q-41 -68 -116.5 -111.5t-184.5 -43.5q-154 0 -249 87t-95 232zM292 312q0 -82 57.5 -125.5t141.5 -43.5 q102 0 170.5 61.5t68.5 152.5v111h-243q-97 0 -146 -42t-49 -114z" />
<glyph unicode="b" horiz-adv-x="1166" d="M148 0v1437h202v-531h6q89 164 307 164q194 0 300.5 -130.5t106.5 -352.5v-117q0 -230 -109 -358t-303 -128q-118 0 -197.5 49t-110.5 127h-7v-160h-195zM350 470q0 -85 27 -155t87 -115.5t146 -45.5q116 0 185 84.5t69 240.5v91q0 159 -67 245.5t-187 86.5 q-119 0 -189.5 -90t-70.5 -231v-111z" />
<glyph unicode="c" horiz-adv-x="1040" d="M95 473v113q0 215 119 350.5t329 135.5q189 0 299.5 -100t112.5 -239h-193q-8 65 -65 118t-150 53q-123 0 -186.5 -90.5t-63.5 -232.5v-109q0 -139 66.5 -227t183.5 -88q97 0 152 42t70 108h193q-5 -136 -119.5 -230.5t-299.5 -94.5q-212 0 -330 134.5t-118 356.5z" />
<glyph unicode="d" horiz-adv-x="1168" d="M96 464v127q0 217 107 348.5t302 131.5q118 0 197.5 -46.5t107.5 -118.5h6v531h202v-1437h-195v160h-7q-21 -72 -105 -123.5t-206 -51.5q-196 0 -302.5 130t-106.5 349zM301 491q0 -157 65 -247.5t193 -90.5q121 0 189 88t68 248v82q0 153 -69.5 241.5t-191.5 88.5 q-126 0 -190 -91t-64 -245v-74z" />
<glyph unicode="e" horiz-adv-x="1075" d="M95 477v93q0 228 116.5 365t329.5 137q215 0 329.5 -136.5t114.5 -363.5v-92h-689v-30q0 -128 65.5 -214.5t191.5 -86.5q97 0 150.5 42.5t67.5 105.5h201q-8 -56 -34.5 -108t-74 -100t-127.5 -77.5t-182 -29.5q-222 0 -340.5 134t-118.5 361zM296 628h490v3 q0 123 -66 200.5t-179 77.5t-179 -78t-66 -200v-3z" />
<glyph unicode="f" horiz-adv-x="701" d="M63 887v163h151v105q0 153 80 224.5t250 71.5q33 0 90 -6v-156q-45 3 -58 3q-85 0 -124 -33.5t-39 -119.5v-89h205v-163h-202v-887h-202v887h-151z" />
<glyph unicode="g" horiz-adv-x="1134" d="M84 472v132q0 210 116.5 338t298.5 128q120 0 194.5 -46.5t109.5 -117.5h6v148h196v-1033q0 -107 -35.5 -188t-100.5 -130t-149.5 -73t-188.5 -24q-203 0 -310 90.5t-114 221.5h203q9 -64 67 -106t161 -42q132 0 199 65.5t67 187.5v153h-7q-32 -71 -113 -118t-188 -47 q-179 0 -295.5 125t-116.5 336zM288 486q0 -146 73.5 -228.5t193.5 -82.5q116 0 182 86t66 215v105q0 139 -67.5 230t-182.5 91q-122 0 -193.5 -87t-71.5 -235v-94z" />
<glyph unicode="h" horiz-adv-x="1177" d="M149 0v1437h202v-526h8q27 63 101 111.5t192 48.5q174 0 279.5 -113t105.5 -297v-661h-202v617q0 128 -62 202t-175 74q-116 0 -181.5 -72t-65.5 -204v-617h-202z" />
<glyph unicode="i" horiz-adv-x="541" d="M145 1312q0 50 35.5 83t88.5 33q56 0 91.5 -32.5t35.5 -83.5t-35.5 -84t-91.5 -33q-53 0 -88.5 33.5t-35.5 83.5zM170 0v1054h201v-1054h-201z" />
<glyph unicode="j" horiz-adv-x="541" d="M-37 -209q25 -5 63 -5q77 0 110.5 45t33.5 145v1078h201v-1080q0 -177 -80 -261.5t-226 -84.5q-66 0 -102 9v154zM145 1312q0 50 35.5 83t88.5 33q56 0 91.5 -32.5t35.5 -83.5t-35.5 -84t-91.5 -33q-53 0 -88.5 33.5t-35.5 83.5z" />
<glyph unicode="k" horiz-adv-x="1041" d="M148 0v1437h202v-848h9l406 465h231l-405 -457l432 -597h-239l-343 476l-91 -94v-382h-202z" />
<glyph unicode="l" horiz-adv-x="507" d="M153 0v1437h201v-1437h-201z" />
<glyph unicode="m" horiz-adv-x="1749" d="M146 0v1054h199v-136h10q28 62 98.5 107.5t171.5 45.5q119 0 195 -45.5t106 -127.5h9q31 73 115.5 123t206.5 50q165 0 258 -95t93 -258v-718h-201v671q0 103 -55.5 163.5t-157.5 60.5q-103 0 -160.5 -65t-57.5 -173v-657h-198v657q0 116 -57 177t-158 61q-94 0 -155 -62 t-61 -174v-659h-201z" />
<glyph unicode="n" horiz-adv-x="1171" d="M146 0v1054h199v-143h7q31 67 111 113.5t192 46.5q164 0 269.5 -98t105.5 -274v-699h-203v630q0 263 -237 263q-116 0 -179.5 -69.5t-63.5 -200.5v-623h-201z" />
<glyph unicode="o" horiz-adv-x="1115" d="M95 488v80q0 225 118.5 364.5t344.5 139.5q227 0 344.5 -136.5t117.5 -366.5v-81q0 -234 -117 -370t-345 -136q-229 0 -346 135.5t-117 370.5zM297 499q0 -58 8 -108t26.5 -95t48 -77t75 -50.5t103.5 -18.5q72 0 124 27.5t80.5 78t41 110t12.5 133.5v57q0 58 -7.5 107.5 t-26 95t-47.5 77.5t-74 51t-103 19t-103.5 -19t-74.5 -51t-48 -77.5t-27 -95t-8 -107.5v-57z" />
<glyph unicode="p" horiz-adv-x="1164" d="M147 -362v1417h195v-149h7q33 75 114.5 119.5t202.5 44.5q181 0 290.5 -126t109.5 -349v-137q0 -223 -110 -348.5t-296 -125.5q-116 0 -191.5 44.5t-112.5 115.5h-7v-506h-202zM349 471q0 -136 70 -226.5t191 -90.5q115 0 183.5 83.5t68.5 242.5v95q0 157 -67.5 242 t-188.5 85q-119 0 -188 -86t-69 -226v-119z" />
<glyph unicode="q" horiz-adv-x="1163" d="M96 459v140q0 215 111 343t297 128q118 0 196.5 -44t113.5 -120h7v148h195v-1416h-202v506h-7q-34 -72 -113.5 -116t-192.5 -44q-189 0 -297 127.5t-108 347.5zM301 478q0 -153 68 -239.5t189 -86.5q122 0 189 91.5t67 230.5v104q0 150 -68 236t-190 86 q-124 0 -189.5 -85t-65.5 -239v-98z" />
<glyph unicode="r" horiz-adv-x="724" d="M161 0v1054h201v-130h7q13 29 28.5 50.5t44 45.5t75 37t108.5 13q37 0 70 -5v-181q-27 6 -90 6q-240 0 -240 -250v-640h-204z" />
<glyph unicode="s" horiz-adv-x="998" d="M79 288h196q10 -70 66 -111.5t151 -41.5q112 0 167 43.5t55 112.5q0 81 -90 119q-45 18 -174 43q-67 14 -112 26.5t-94.5 35.5t-78.5 52.5t-48 76t-19 106.5q0 82 32.5 145t89.5 101t127.5 57t151.5 19q181 0 282.5 -88.5t101.5 -229.5h-184q-5 68 -54 117.5t-152 49.5 q-90 0 -145 -40.5t-55 -111.5q0 -32 16.5 -57.5t32.5 -39.5t58.5 -27t59.5 -16.5t70 -12.5q6 -1 9.5 -1.5t8.5 -1.5t9 -2q65 -12 113 -25t96 -36t78 -53.5t48.5 -76.5t18.5 -105q0 -157 -115.5 -245t-312.5 -88q-183 0 -293.5 82.5t-110.5 223.5z" />
<glyph unicode="t" horiz-adv-x="683" d="M55 887v163h147v264h199v-264h207v-163h-207v-581q0 -89 35.5 -120.5t129.5 -31.5q22 0 48 2v-157q-40 -7 -98 -7q-94 0 -156 17.5t-97 56.5t-49 93.5t-14 136.5v591h-145z" />
<glyph unicode="u" horiz-adv-x="1166" d="M138 352v702h203v-646q0 -133 64.5 -190t170.5 -57q108 0 174.5 66t66.5 184v643h203v-1054h-199v143h-9q-30 -69 -107.5 -114.5t-196.5 -45.5q-168 0 -269 95.5t-101 273.5z" />
<glyph unicode="v" horiz-adv-x="1002" d="M22 1054h222l247 -853h8l267 853h214l-378 -1054h-214z" />
<glyph unicode="w" horiz-adv-x="1493" d="M28 1054h221l177 -815h9l221 815h190l228 -815h8l182 815h201l-279 -1054h-203l-229 792h-5l-224 -792h-205z" />
<glyph unicode="x" horiz-adv-x="1034" d="M44 1054h238l230 -380h9l237 380h227l-354 -517l355 -537h-234l-236 382h-8l-237 -382h-222l346 522z" />
<glyph unicode="y" horiz-adv-x="1052" d="M31 1054h224l264 -864h9l266 864h215q-365 -1044 -366 -1048l-27 -73q-21 -57 -41 -97.5t-52 -84.5t-70 -71t-93.5 -44.5t-124.5 -17.5q-61 0 -119 9v157q27 -5 80 -5q91 0 136.5 39.5t65.5 120.5l14 50z" />
<glyph unicode="z" horiz-adv-x="977" d="M92 0v128l544 755v11h-544v160h792v-133l-537 -749v-10h545v-162h-800z" />
<glyph unicode="{" horiz-adv-x="737" d="M83 483v201q97 0 131.5 46t34.5 155v223q0 179 94 256.5t282 77.5h69v-154h-41q-119 0 -167 -48t-48 -159v-264q0 -105 -44.5 -159t-133.5 -62v-24q178 -17 178 -227v-297q0 -111 48 -159t167 -48h41v-154h-69q-187 0 -281.5 80.5t-94.5 261.5v254q0 108 -34.5 154 t-131.5 46z" />
<glyph unicode="|" horiz-adv-x="676" d="M251 -305v1742h175v-1742h-175z" />
<glyph unicode="}" horiz-adv-x="737" d="M43 -159h41q119 0 167.5 48t48.5 159v297q0 210 177 227v24q-177 17 -177 221v264q0 111 -48.5 159t-167.5 48h-41v154h69q188 0 282 -77.5t94 -256.5v-223q0 -109 34.5 -155t131.5 -46v-201q-97 0 -131.5 -46t-34.5 -154v-254q0 -181 -94.5 -261.5t-281.5 -80.5h-69v154 z" />
<glyph unicode="~" d="M69 528q0 71 16 131t50 109t92 76.5t136 27.5q63 0 117.5 -27t112.5 -83q46 -47 81 -71.5t73 -24.5q121 0 130 167h166q0 -71 -16.5 -131.5t-50.5 -109.5t-92 -77t-134 -28q-63 0 -117 27.5t-114 84.5q-68 64 -96 80q-30 17 -57 17q-120 0 -130 -168h-167z" />
<glyph unicode="&#xa1;" horiz-adv-x="529" d="M135 983q0 54 37 88t92 34q60 0 96.5 -33.5t36.5 -88.5q0 -53 -37 -87t-96 -34q-55 0 -92 34.5t-37 86.5zM150 -276l25 956h177l24 -956h-226z" />
<glyph unicode="&#xa2;" d="M111 597v169q0 191 102 311.5t269 139.5v240h159v-240q153 -17 243.5 -112t93.5 -214h-191q-4 27 -17.5 53.5t-38 53.5t-68.5 44t-101 17q-123 0 -190.5 -81t-67.5 -216v-167q0 -133 70 -211t189 -78q105 0 160.5 42t69.5 107h192q-4 -120 -95 -209.5t-249 -105.5v-226 h-159v226q-168 19 -269.5 140t-101.5 317z" />
<glyph unicode="&#xa3;" d="M75 618v150h189v280q0 163 110 253.5t283 90.5q176 0 278 -88.5t106 -242.5h-189q-5 71 -56.5 117.5t-138.5 46.5q-97 0 -147 -56.5t-50 -142.5v-258h296v-150h-296v-205q-1 -94 -17 -152t-56 -82v-12h662v-167h-955v176q39 1 62 5.5t46.5 18.5t35 40t19 70.5t7.5 110.5 v197h-189z" />
<glyph unicode="&#xa4;" d="M64 268l173 174q-65 97 -65 212q0 114 61 206l-169 169l111 111l167 -168q96 66 215 66q115 0 210 -63l165 165l110 -111l-164 -165q63 -97 63 -210q0 -119 -68 -217l169 -169l-109 -110l-172 171q-94 -59 -204 -59q-115 0 -209 63l-174 -175zM319 654q0 -98 69.5 -167.5 t168.5 -69.5q98 0 168 69.5t70 167.5t-70 168t-168 70q-99 0 -168.5 -70t-69.5 -168z" />
<glyph unicode="&#xa5;" d="M-1 1365h232l322 -597h10l325 597h229l-397 -691h229v-137h-289v-139h289v-137h-289v-261h-205v261h-287v137h287v139h-287v137h227z" />
<glyph unicode="&#xa6;" horiz-adv-x="463" d="M144 -305v682h175v-682h-175zM144 782v655h175v-655h-175z" />
<glyph unicode="&#xa7;" horiz-adv-x="931" d="M66 62h183q11 -72 65 -113t147 -41q105 0 156 47t51 117q0 40 -16.5 68.5t-58 49t-70.5 30t-96 26.5q-13 3 -19 5q-75 19 -128 40.5t-101 56t-72.5 86t-24.5 120.5q0 159 168 246v7q-162 92 -162 256q0 105 54.5 182t140 113t189.5 36q167 0 270 -89.5t103 -226.5h-178 q-3 59 -56.5 108.5t-144.5 49.5q-84 0 -135.5 -45t-51.5 -118q0 -29 9 -52.5t29.5 -41.5t39 -30t54.5 -23.5t57.5 -17t64.5 -15.5q59 -14 99 -26.5t88.5 -36.5t77.5 -54t49 -77.5t20 -108.5q0 -84 -44 -149t-108 -107v-7q67 -42 106.5 -96t39.5 -140q0 -155 -111.5 -249 t-290.5 -94q-168 0 -280 85t-113 229zM269 578q0 -74 52.5 -112.5t154.5 -64.5q14 -4 90 -21q48 20 80.5 71t32.5 108q0 74 -53.5 115t-157.5 64q-31 7 -74 16q-46 -14 -85.5 -64.5t-39.5 -111.5z" />
<glyph unicode="&#xa8;" horiz-adv-x="946" d="M179 1320q0 45 28.5 74t72.5 29q45 0 73.5 -28.5t28.5 -74.5q0 -44 -28.5 -72.5t-73.5 -28.5q-44 0 -72.5 28.5t-28.5 72.5zM542 1320q0 46 28 74.5t72 28.5q46 0 74.5 -28.5t28.5 -74.5q0 -44 -29 -72.5t-74 -28.5q-43 0 -71.5 28.5t-28.5 72.5z" />
<glyph unicode="&#xa9;" horiz-adv-x="1640" d="M105 644v103q0 142 54 268t148 218t229 145.5t289 53.5q155 0 290 -54t228.5 -146.5t147.5 -218.5t54 -266v-103q0 -151 -53 -282t-146.5 -224.5t-228.5 -147.5t-292 -54q-209 0 -374 92t-255.5 253.5t-90.5 362.5zM231 641q0 -168 73.5 -300.5t209 -207.5t311.5 -75 q266 0 431.5 164t165.5 419v106q0 116 -44 219t-121.5 178.5t-189.5 119.5t-242 44q-173 0 -309.5 -75t-210.5 -203t-74 -283v-106zM500 632v99q0 157 90 244.5t241 87.5q137 0 219.5 -76t84.5 -177h-138q-8 49 -46.5 88t-118.5 39q-191 0 -191 -212v-94q0 -101 50.5 -151.5 t140.5 -50.5q146 0 170 109h138q-3 -98 -83.5 -169.5t-225.5 -71.5q-152 0 -241.5 87.5t-89.5 247.5z" />
<glyph unicode="&#xaa;" horiz-adv-x="641" d="M65 951q0 81 54.5 127.5t160.5 46.5h147v51q0 87 -106 87q-90 0 -101 -59h-132q6 76 64.5 121.5t172.5 45.5q111 0 176.5 -47t65.5 -150v-390h-133v74h-7q-47 -83 -164 -83q-90 0 -144 47t-54 129zM202 960q0 -40 30.5 -61t74.5 -21q50 0 85 28.5t35 72.5v56h-120 q-51 1 -78 -19.5t-27 -55.5z" />
<glyph unicode="&#xab;" horiz-adv-x="1265" d="M105 557v8l344 404h212l-339 -403v-6l339 -405h-221zM589 557v8l344 404h212l-339 -403v-6l339 -405h-221z" />
<glyph unicode="&#xac;" d="M69 462v164h974v-531h-176v367h-798z" />
<glyph unicode="&#xad;" horiz-adv-x="787" d="M78 470v180h630v-180h-630z" />
<glyph unicode="&#xae;" horiz-adv-x="1158" d="M90 885v69q0 192 140.5 324t349.5 132t350 -133t141 -323v-69q0 -203 -138.5 -337t-352.5 -134q-212 0 -351 134t-139 337zM190 885q0 -161 110 -266.5t280 -105.5t280.5 105.5t110.5 266.5v68q0 151 -111.5 255.5t-279.5 104.5t-279 -104t-111 -256v-68zM403 683v479 h225q68 0 111.5 -42t43.5 -105q0 -51 -27 -90t-68 -51l110 -191h-117l-95 180h-83v-180h-100zM503 938h78q98 0 98 74q0 36 -23.5 55t-62.5 19h-90v-148z" />
<glyph unicode="&#xaf;" horiz-adv-x="946" d="M188 1250v118h558v-118h-558z" />
<glyph unicode="&#xb0;" horiz-adv-x="543" d="M43 1155q0 95 66.5 162t163.5 67q95 0 162 -67t67 -162q0 -96 -67 -163t-162 -67q-96 0 -163 67t-67 163zM160 1155q0 -46 33.5 -79.5t79.5 -33.5q47 0 79.5 33.5t32.5 79.5q0 47 -32.5 80t-79.5 33q-46 0 -79.5 -33t-33.5 -80z" />
<glyph unicode="&#xb1;" d="M78 653v159h392v262h169v-262h395v-159h-395v-277h-169v277h-392zM80 104v162h956v-162h-956z" />
<glyph unicode="&#xb2;" horiz-adv-x="640" d="M75 1156v11q0 86 61.5 148.5t175.5 62.5q105 0 169.5 -55t64.5 -140q0 -43 -21.5 -87.5t-41.5 -67.5t-56 -60l-157 -153v-2h288v-121h-471v92l243 257q74 76 74 131q0 39 -27 63t-68 24q-44 0 -70 -27t-26 -65v-11h-138z" />
<glyph unicode="&#xb3;" horiz-adv-x="649" d="M68 879h133q3 -36 33.5 -59.5t78.5 -23.5q50 0 82 26.5t32 66.5t-30.5 65.5t-81.5 25.5h-78v115h76q43 0 69.5 24t26.5 62q0 37 -26.5 60t-68.5 23q-44 0 -71 -24t-29 -58h-134q3 84 65.5 140t170.5 56q103 0 167 -49t64 -128q0 -57 -34.5 -98.5t-88.5 -56.5v-2 q63 -11 104 -51t41 -108q0 -92 -72.5 -148.5t-180.5 -56.5q-114 0 -180 59t-68 140z" />
<glyph unicode="&#xb4;" horiz-adv-x="946" d="M221 1213l190 279h208l-235 -279h-163z" />
<glyph unicode="&#xb6;" horiz-adv-x="1291" d="M97 933q0 99 30.5 176.5t77 124.5t108 77.5t118.5 42t114 11.5h215v-1575h-196v712h-20q-55 0 -113 14t-118.5 47t-108 81t-77.5 123t-30 166zM920 -210v1575h196v-1575h-196z" />
<glyph unicode="&#xb7;" horiz-adv-x="606" d="M151 726q0 55 36 89.5t89 34.5q55 0 91.5 -35t36.5 -89t-36.5 -89t-91.5 -35q-53 0 -89 35t-36 89z" />
<glyph unicode="&#xb8;" horiz-adv-x="946" d="M318 -360q44 -13 114 -13q48 0 82 16.5t34 56.5q0 18 -8 31t-19.5 19.5t-33 10t-38 4t-44.5 0.5h-53v86l59 157h131l-53 -140q96 0 151.5 -42t55.5 -121q0 -92 -63 -139t-166 -51q-85 -4 -149 15v110z" />
<glyph unicode="&#xb9;" horiz-adv-x="586" d="M118 1110v135l159 120h145v-673h-145v531h-6z" />
<glyph unicode="&#xba;" horiz-adv-x="638" d="M48 1039v68q0 119 75.5 191.5t196.5 72.5q122 0 196.5 -71.5t74.5 -192.5v-68q0 -126 -74 -196.5t-197 -70.5q-125 0 -198.5 70t-73.5 197zM189 1041q0 -71 33 -114.5t98 -43.5q64 0 97 43.5t33 114.5v62q0 70 -34 114t-96 44q-63 0 -97 -44t-34 -114v-62z" />
<glyph unicode="&#xbb;" horiz-adv-x="1265" d="M113 155l339 405v6l-339 403h212l344 -404v-8l-335 -402h-221zM597 155l339 405v6l-339 403h212l344 -404v-8l-335 -402h-221z" />
<glyph unicode="&#xbc;" horiz-adv-x="1353" d="M31 1110v135l159 120h145v-673h-145v531h-6zM57 0l534 695l510 670h167l-530 -690l-514 -675h-167zM774 118v109q58 106 268 447h195v-444h80v-112h-80v-118h-129v118h-334zM910 230h198v329h-7q-72 -110 -191 -326v-3z" />
<glyph unicode="&#xbd;" horiz-adv-x="1368" d="M31 1110v135l159 120h145v-673h-145v531h-6zM57 0l534 695l510 670h167l-530 -690l-514 -675h-167zM871 452v11q0 88 62.5 151t178.5 63q107 0 172.5 -56t65.5 -142q0 -34 -10 -65t-31.5 -61t-36.5 -47t-43 -45l-160 -155v-2h293v-123h-479v93l247 261q76 78 76 133 q0 40 -27.5 64.5t-69.5 24.5q-45 0 -71 -27.5t-26 -66.5v-11h-141z" />
<glyph unicode="&#xbe;" horiz-adv-x="1402" d="M22 858h134q4 -36 34.5 -60t79.5 -24q51 0 83 27t32 68q0 40 -30.5 66t-82.5 26h-79v116h77q44 0 70.5 24t26.5 63q0 38 -26.5 61t-69.5 23q-45 0 -72 -24t-29 -59h-136q3 85 66 141.5t173 56.5q104 0 169 -49.5t65 -129.5q0 -58 -35 -99.5t-90 -57.5v-2 q64 -11 105.5 -51t41.5 -109q0 -94 -73 -151t-183 -57q-115 0 -182 59.5t-69 141.5zM105 0l534 695l510 670h167l-530 -690l-514 -675h-167zM823 118v109q69 126 268 447h196v-442h79v-114h-79v-118h-131v118h-333zM959 232h197v327h-6q-73 -111 -191 -324v-3z" />
<glyph unicode="&#xbf;" horiz-adv-x="956" d="M58 26q0 60 15.5 109.5t48 90t59 64.5t72.5 60q53 41 75 60t45.5 48t30.5 57.5t7 71.5v58h192v-78q2 -69 -25.5 -128.5t-64.5 -98t-97 -83.5q-43 -33 -64.5 -51.5t-45 -46t-33 -56.5t-9.5 -66q0 -96 62.5 -144t154.5 -48q109 0 167 63.5t58 164.5h191q1 -86 -24 -155 t-66.5 -113.5t-98 -74t-115 -41.5t-121.5 -12q-82 0 -155.5 22t-131.5 63.5t-92.5 109.5t-34.5 154zM372 968q0 55 36.5 89t92.5 34q59 0 96 -34t37 -89q0 -52 -37 -86t-96 -34q-56 0 -92.5 34t-36.5 86z" />
<glyph unicode="&#xc0;" horiz-adv-x="1218" d="M21 0l476 1365h223l476 -1365h-221l-127 391h-490l-128 -391h-209zM258 1713h215l252 -203h-175zM407 551h392l-192 590h-7z" />
<glyph unicode="&#xc1;" horiz-adv-x="1218" d="M21 0l476 1365h223l476 -1365h-221l-127 391h-490l-128 -391h-209zM407 551h392l-192 590h-7zM493 1510l255 206h219l-296 -206h-178z" />
<glyph unicode="&#xc2;" horiz-adv-x="1218" d="M21 0l476 1365h223l476 -1365h-221l-127 391h-490l-128 -391h-209zM277 1507l277 238h119l274 -238h-176l-155 140h-8l-155 -140h-176zM407 551h392l-192 590h-7z" />
<glyph unicode="&#xc3;" horiz-adv-x="1218" d="M21 0l476 1365h223l476 -1365h-221l-127 391h-490l-128 -391h-209zM327 1496q0 82 43.5 140.5t126.5 58.5q43 0 75 -16t67 -50q5 -4 18 -17t19 -17.5t17.5 -9.5t23.5 -5q31 0 47 30.5t19 68.5h116q0 -78 -47.5 -139t-123.5 -61q-51 0 -82 14.5t-61 44.5l-9 9l-10.5 10.5 t-9.5 8.5t-12 9t-11 6t-13 5t-13 1q-60 0 -64 -91h-116zM407 551h392l-192 590h-7z" />
<glyph unicode="&#xc4;" horiz-adv-x="1218" d="M21 0l476 1365h223l476 -1365h-221l-127 391h-490l-128 -391h-209zM388 1583q0 40 25.5 65.5t64.5 25.5q40 0 65 -25.5t25 -65.5q0 -39 -25.5 -64.5t-64.5 -25.5t-64.5 26t-25.5 64zM407 551h392l-192 590h-7zM697 1583q0 40 25 65.5t64 25.5q40 0 65 -25.5t25 -65.5 q0 -39 -25 -64.5t-65 -25.5q-39 0 -64 25.5t-25 64.5z" />
<glyph unicode="&#xc5;" horiz-adv-x="1219" d="M22 0l465 1329q-45 27 -71.5 73t-26.5 101q0 89 63.5 151.5t154.5 62.5q89 0 152.5 -62.5t63.5 -151.5q0 -53 -25 -97.5t-67 -70.5l466 -1335h-221l-127 391h-490l-129 -391h-208zM408 551h392l-191 590h-9zM499 1502q0 -44 32 -75.5t76 -31.5t75.5 31.5t31.5 75.5 q0 45 -31.5 76t-75.5 31q-45 0 -76.5 -31t-31.5 -76z" />
<glyph unicode="&#xc6;" horiz-adv-x="1864" d="M12 0l719 1365h1021v-177h-626v-408h590v-170h-590v-433h626v-177h-830v405h-468l-212 -405h-230zM535 570h387v618h-71z" />
<glyph unicode="&#xc7;" horiz-adv-x="1258" d="M103 592v174q0 300 146.5 463.5t400.5 163.5q121 0 221 -40t162.5 -106t96.5 -149t34 -172v-10h-201q0 56 -20.5 108.5t-58.5 95t-98.5 68t-134.5 25.5q-157 0 -249 -114t-92 -335v-171q0 -222 91.5 -331t253.5 -109q146 0 227 79.5t81 196.5h201v-11q0 -76 -28.5 -149.5 t-83.5 -137t-145.5 -106t-203.5 -50.5l-40 -107q95 0 151 -42t56 -121q0 -92 -63 -139t-166 -51q-84 -4 -150 15v110q44 -13 115 -13q48 0 82 16.5t34 56.5q0 18 -8 31t-19.5 19.5t-33 10t-38 4t-44.5 0.5h-53v86l47 125q-222 24 -346 182.5t-124 433.5z" />
<glyph unicode="&#xc8;" horiz-adv-x="1107" d="M158 0v1365h838v-177h-633v-408h597v-170h-597v-433h633v-177h-838zM220 1713h215l252 -203h-175z" />
<glyph unicode="&#xc9;" horiz-adv-x="1107" d="M158 0v1365h838v-177h-633v-408h597v-170h-597v-433h633v-177h-838zM455 1510l255 206h219l-296 -206h-178z" />
<glyph unicode="&#xca;" horiz-adv-x="1107" d="M158 0v1365h838v-177h-633v-408h597v-170h-597v-433h633v-177h-838zM239 1507l277 238h119l274 -238h-176l-155 140h-8l-155 -140h-176z" />
<glyph unicode="&#xcb;" horiz-adv-x="1107" d="M158 0v1365h838v-177h-633v-408h597v-170h-597v-433h633v-177h-838zM350 1583q0 40 25.5 65.5t64.5 25.5q40 0 65 -25.5t25 -65.5q0 -39 -25.5 -64.5t-64.5 -25.5t-64.5 26t-25.5 64zM659 1583q0 40 25 65.5t64 25.5q40 0 65 -25.5t25 -65.5q0 -39 -25 -64.5t-65 -25.5 q-39 0 -64 25.5t-25 64.5z" />
<glyph unicode="&#xcc;" horiz-adv-x="521" d="M-91 1713h215l252 -203h-175zM158 0v1365h206v-1365h-206z" />
<glyph unicode="&#xcd;" horiz-adv-x="521" d="M144 1510l255 206h219l-296 -206h-178zM158 0v1365h206v-1365h-206z" />
<glyph unicode="&#xce;" horiz-adv-x="521" d="M-72 1507l277 238h119l274 -238h-176l-155 140h-8l-155 -140h-176zM158 0v1365h206v-1365h-206z" />
<glyph unicode="&#xcf;" horiz-adv-x="521" d="M39 1583q0 40 25.5 65.5t64.5 25.5q40 0 65 -25.5t25 -65.5q0 -39 -25.5 -64.5t-64.5 -25.5t-64.5 26t-25.5 64zM158 0v1365h206v-1365h-206zM348 1583q0 40 25 65.5t64 25.5q40 0 65 -25.5t25 -65.5q0 -39 -25 -64.5t-65 -25.5q-39 0 -64 25.5t-25 64.5z" />
<glyph unicode="&#xd0;" horiz-adv-x="1384" d="M77 607v179h162v579h457q129 0 231.5 -33t171.5 -91.5t114.5 -144.5t66 -187.5t20.5 -224.5q0 -121 -19.5 -222t-64.5 -188t-114 -147t-172 -93.5t-234 -33.5h-457v607h-162zM444 179h233q207 0 308 124.5t101 379.5q0 508 -409 508h-233v-405h288v-179h-288v-428z" />
<glyph unicode="&#xd1;" horiz-adv-x="1368" d="M158 0v1365h187l659 -1014h6v1014h200v-1365h-187l-660 1016h-6v-1016h-199zM401 1496q0 82 43.5 140.5t126.5 58.5q43 0 75 -16t67 -50q5 -4 18 -17t19 -17.5t17.5 -9.5t23.5 -5q31 0 47 30.5t19 68.5h116q0 -78 -47.5 -139t-123.5 -61q-51 0 -82 14.5t-61 44.5l-9 9 l-10.5 10.5t-9.5 8.5t-12 9t-11 6t-13 5t-13 1q-60 0 -64 -91h-116z" />
<glyph unicode="&#xd2;" horiz-adv-x="1324" d="M103 580v192q0 289 151 455t409 166t408 -165.5t150 -455.5v-192q0 -287 -151 -447.5t-410 -160.5t-408 160.5t-149 447.5zM310 580q0 -211 97 -319.5t254 -108.5q158 0 255 108.5t97 319.5v194q0 211 -97.5 325.5t-254.5 114.5q-156 0 -253.5 -114.5t-97.5 -325.5v-194z M310 1713h215l252 -203h-175z" />
<glyph unicode="&#xd3;" horiz-adv-x="1324" d="M103 580v192q0 289 151 455t409 166t408 -165.5t150 -455.5v-192q0 -287 -151 -447.5t-410 -160.5t-408 160.5t-149 447.5zM310 580q0 -211 97 -319.5t254 -108.5q158 0 255 108.5t97 319.5v194q0 211 -97.5 325.5t-254.5 114.5q-156 0 -253.5 -114.5t-97.5 -325.5v-194z M545 1510l255 206h219l-296 -206h-178z" />
<glyph unicode="&#xd4;" horiz-adv-x="1324" d="M103 580v192q0 289 151 455t409 166t408 -165.5t150 -455.5v-192q0 -287 -151 -447.5t-410 -160.5t-408 160.5t-149 447.5zM310 580q0 -211 97 -319.5t254 -108.5q158 0 255 108.5t97 319.5v194q0 211 -97.5 325.5t-254.5 114.5q-156 0 -253.5 -114.5t-97.5 -325.5v-194z M329 1507l277 238h119l274 -238h-176l-155 140h-8l-155 -140h-176z" />
<glyph unicode="&#xd5;" horiz-adv-x="1324" d="M103 580v192q0 289 151 455t409 166t408 -165.5t150 -455.5v-192q0 -287 -151 -447.5t-410 -160.5t-408 160.5t-149 447.5zM310 580q0 -211 97 -319.5t254 -108.5q158 0 255 108.5t97 319.5v194q0 211 -97.5 325.5t-254.5 114.5q-156 0 -253.5 -114.5t-97.5 -325.5v-194z M379 1496q0 82 43.5 140.5t126.5 58.5q43 0 75 -16t67 -50q5 -4 18 -17t19 -17.5t17.5 -9.5t23.5 -5q31 0 47 30.5t19 68.5h116q0 -78 -47.5 -139t-123.5 -61q-51 0 -82 14.5t-61 44.5l-9 9l-10.5 10.5t-9.5 8.5t-12 9t-11 6t-13 5t-13 1q-60 0 -64 -91h-116z" />
<glyph unicode="&#xd6;" horiz-adv-x="1324" d="M103 580v192q0 289 151 455t409 166t408 -165.5t150 -455.5v-192q0 -287 -151 -447.5t-410 -160.5t-408 160.5t-149 447.5zM310 580q0 -211 97 -319.5t254 -108.5q158 0 255 108.5t97 319.5v194q0 211 -97.5 325.5t-254.5 114.5q-156 0 -253.5 -114.5t-97.5 -325.5v-194z M440 1583q0 40 25.5 65.5t64.5 25.5q40 0 65 -25.5t25 -65.5q0 -39 -25.5 -64.5t-64.5 -25.5t-64.5 26t-25.5 64zM749 1583q0 40 25 65.5t64 25.5q40 0 65 -25.5t25 -65.5q0 -39 -25 -64.5t-65 -25.5q-39 0 -64 25.5t-25 64.5z" />
<glyph unicode="&#xd7;" d="M126 193l310 310l-310 310l120 120l311 -310l310 310l120 -120l-310 -310l310 -310l-120 -121l-310 310l-311 -310z" />
<glyph unicode="&#xd8;" horiz-adv-x="1324" d="M75 70l116 145q-88 148 -88 365v192q0 289 151 455t409 166q228 0 373 -133l95 118l109 -79l-116 -144q97 -154 97 -383v-192q0 -287 -151 -447.5t-410 -160.5q-236 0 -380 136l-100 -124zM308 579q0 -107 28 -186l576 714q-95 109 -251 109q-157 0 -255 -114.5 t-98 -327.5v-195zM403 260q93 -111 258 -111q160 0 257 109t97 321v195q0 117 -34 204z" />
<glyph unicode="&#xd9;" horiz-adv-x="1341" d="M142 477v888h206v-881q0 -153 87 -242t235 -89t236 89.5t88 241.5v881h205v-891q0 -226 -145.5 -364t-383.5 -138q-237 0 -382.5 139t-145.5 366zM319 1713h215l252 -203h-175z" />
<glyph unicode="&#xda;" horiz-adv-x="1341" d="M142 477v888h206v-881q0 -153 87 -242t235 -89t236 89.5t88 241.5v881h205v-891q0 -226 -145.5 -364t-383.5 -138q-237 0 -382.5 139t-145.5 366zM554 1510l255 206h219l-296 -206h-178z" />
<glyph unicode="&#xdb;" horiz-adv-x="1341" d="M142 477v888h206v-881q0 -153 87 -242t235 -89t236 89.5t88 241.5v881h205v-891q0 -226 -145.5 -364t-383.5 -138q-237 0 -382.5 139t-145.5 366zM338 1507l277 238h119l274 -238h-176l-155 140h-8l-155 -140h-176z" />
<glyph unicode="&#xdc;" horiz-adv-x="1341" d="M142 477v888h206v-881q0 -153 87 -242t235 -89t236 89.5t88 241.5v881h205v-891q0 -226 -145.5 -364t-383.5 -138q-237 0 -382.5 139t-145.5 366zM449 1583q0 40 25.5 65.5t64.5 25.5q40 0 65 -25.5t25 -65.5q0 -39 -25.5 -64.5t-64.5 -25.5t-64.5 26t-25.5 64zM758 1583 q0 40 25 65.5t64 25.5q40 0 65 -25.5t25 -65.5q0 -39 -25 -64.5t-65 -25.5q-39 0 -64 25.5t-25 64.5z" />
<glyph unicode="&#xdd;" horiz-adv-x="1108" d="M-5 1365h232l324 -597h7l327 597h228l-457 -797v-568h-205v565zM438 1510l255 206h219l-296 -206h-178z" />
<glyph unicode="&#xde;" horiz-adv-x="1161" d="M158 0v1365h204v-252h292q206 0 325 -106t119 -295q0 -191 -119.5 -296t-325.5 -105h-290v-311h-205zM363 483h230q55 0 94.5 4.5t79.5 18.5t64.5 38.5t40 66.5t15.5 101q0 227 -258 227h-266v-456z" />
<glyph unicode="&#xdf;" horiz-adv-x="1252" d="M156 0v1045q0 186 121 290.5t320 104.5q198 1 319.5 -97.5t120.5 -256.5q0 -74 -25.5 -136.5t-65.5 -100.5t-82 -60.5t-81 -26.5v-13q70 0 137 -23.5t122.5 -67t89 -114.5t33.5 -158q0 -98 -40 -176.5t-108 -127t-153 -74t-180 -25.5t-156 19v164q50 -19 140 -19 q56 0 105.5 13t92 40t68 75.5t25.5 113.5q0 117 -89.5 183.5t-238.5 66.5h-77v188h47q89 0 162.5 66t73.5 169q0 93 -63 152t-172 59q-243 0 -243 -259v-1014h-203z" />
<glyph unicode="&#xe0;" horiz-adv-x="1072" d="M88 302q0 142 96.5 225.5t274.5 83.5h271v118q0 175 -204 175q-189 0 -205 -158h-194q7 148 107.5 236.5t299.5 88.5q188 0 293 -84t105 -260v-727h-192v138h-7q-41 -68 -116.5 -111.5t-184.5 -43.5q-154 0 -249 87t-95 232zM242 1494h208l193 -277h-164zM292 312 q0 -82 57.5 -125.5t141.5 -43.5q102 0 170.5 61.5t68.5 152.5v111h-243q-97 0 -146 -42t-49 -114z" />
<glyph unicode="&#xe1;" horiz-adv-x="1072" d="M88 302q0 142 96.5 225.5t274.5 83.5h271v118q0 175 -204 175q-189 0 -205 -158h-194q7 148 107.5 236.5t299.5 88.5q188 0 293 -84t105 -260v-727h-192v138h-7q-41 -68 -116.5 -111.5t-184.5 -43.5q-154 0 -249 87t-95 232zM292 312q0 -82 57.5 -125.5t141.5 -43.5 q102 0 170.5 61.5t68.5 152.5v111h-243q-97 0 -146 -42t-49 -114zM426 1215l190 279h208l-235 -279h-163z" />
<glyph unicode="&#xe2;" horiz-adv-x="1072" d="M88 302q0 142 96.5 225.5t274.5 83.5h271v118q0 175 -204 175q-189 0 -205 -158h-194q7 148 107.5 236.5t299.5 88.5q188 0 293 -84t105 -260v-727h-192v138h-7q-41 -68 -116.5 -111.5t-184.5 -43.5q-154 0 -249 87t-95 232zM255 1217l213 298h133l204 -300h-162 l-108 187h-4l-116 -185h-160zM292 312q0 -82 57.5 -125.5t141.5 -43.5q102 0 170.5 61.5t68.5 152.5v111h-243q-97 0 -146 -42t-49 -114z" />
<glyph unicode="&#xe3;" horiz-adv-x="1072" d="M88 302q0 142 96.5 225.5t274.5 83.5h271v118q0 175 -204 175q-189 0 -205 -158h-194q7 148 107.5 236.5t299.5 88.5q188 0 293 -84t105 -260v-727h-192v138h-7q-41 -68 -116.5 -111.5t-184.5 -43.5q-154 0 -249 87t-95 232zM228 1176q0 98 46.5 165t138.5 67 q76 0 148 -74q4 -4 14.5 -15.5t15.5 -16t14 -11t18 -9t19 -2.5q33 0 49.5 34t19.5 76h124q0 -91 -51.5 -161.5t-134.5 -70.5q-51 0 -84 17t-63 50q-18 19 -25 25.5t-24 16.5t-33 10q-61 0 -68 -101h-124zM292 312q0 -82 57.5 -125.5t141.5 -43.5q102 0 170.5 61.5 t68.5 152.5v111h-243q-97 0 -146 -42t-49 -114z" />
<glyph unicode="&#xe4;" horiz-adv-x="1072" d="M88 302q0 142 96.5 225.5t274.5 83.5h271v118q0 175 -204 175q-189 0 -205 -158h-194q7 148 107.5 236.5t299.5 88.5q188 0 293 -84t105 -260v-727h-192v138h-7q-41 -68 -116.5 -111.5t-184.5 -43.5q-154 0 -249 87t-95 232zM253 1263q0 45 28.5 74t72.5 29 q45 0 73.5 -28.5t28.5 -74.5q0 -44 -28.5 -72.5t-73.5 -28.5q-44 0 -72.5 29t-28.5 72zM292 312q0 -82 57.5 -125.5t141.5 -43.5q102 0 170.5 61.5t68.5 152.5v111h-243q-97 0 -146 -42t-49 -114zM616 1263q0 46 28 74.5t72 28.5q46 0 74.5 -28.5t28.5 -74.5 q0 -44 -29 -72.5t-74 -28.5q-43 0 -71.5 28.5t-28.5 72.5z" />
<glyph unicode="&#xe5;" horiz-adv-x="1072" d="M88 302q0 142 96.5 225.5t274.5 83.5h271v118q0 175 -204 175q-189 0 -205 -158h-194q7 148 107.5 236.5t299.5 88.5q188 0 293 -84t105 -260v-727h-192v138h-7q-41 -68 -116.5 -111.5t-184.5 -43.5q-154 0 -249 87t-95 232zM292 312q0 -82 57.5 -125.5t141.5 -43.5 q102 0 170.5 61.5t68.5 152.5v111h-243q-97 0 -146 -42t-49 -114zM336 1385q0 82 57 137t141 55q83 0 140 -55t57 -137q0 -83 -57 -138t-140 -55q-84 0 -141 55t-57 138zM434 1384q0 -42 28.5 -71t71.5 -29q42 0 70 29t28 71q0 43 -28 71.5t-70 28.5q-43 0 -71.5 -28.5 t-28.5 -71.5z" />
<glyph unicode="&#xe6;" horiz-adv-x="1714" d="M85 304q0 145 99 229t280 84h269v102q0 93 -55 139t-155 46q-174 0 -206 -120h-193q11 135 116.5 211.5t289.5 76.5q107 0 193.5 -35t129.5 -103h13q45 66 130.5 102t187.5 36q196 0 316.5 -127.5t120.5 -341.5v-126h-681v-76q0 -110 70.5 -181t185.5 -71q86 0 141.5 35 t68.5 87h202q-6 -47 -32.5 -95.5t-74 -93t-126.5 -72.5t-177 -28q-148 0 -247 57.5t-137 145.5h-14q-43 -86 -133 -144.5t-223 -58.5q-162 0 -260.5 86.5t-98.5 235.5zM286 315q0 -83 61 -127.5t147 -44.5q101 0 170 61.5t69 152.5v117h-244q-99 0 -151 -43.5t-52 -115.5z M940 615h482v22q0 126 -63.5 199t-173.5 73q-106 0 -175.5 -74t-69.5 -188v-32z" />
<glyph unicode="&#xe7;" horiz-adv-x="1040" d="M95 473v113q0 215 119 350.5t329 135.5q189 0 299.5 -100t112.5 -239h-193q-8 65 -65 118t-150 53q-123 0 -186.5 -90.5t-63.5 -232.5v-109q0 -139 66.5 -227t183.5 -88q97 0 152 42t70 108h193q-4 -122 -99 -213t-252 -108l-45 -101q94 0 146.5 -41.5t52.5 -121.5 q0 -92 -63 -139t-167 -51q-89 -3 -149 15v111q47 -14 115 -14q115 0 115 73q0 23 -9.5 37t-30.5 20t-40 7.5t-54 1.5h-54v85l52 118q-184 20 -284.5 151.5t-100.5 335.5z" />
<glyph unicode="&#xe8;" horiz-adv-x="1075" d="M95 477v93q0 228 116.5 365t329.5 137q215 0 329.5 -136.5t114.5 -363.5v-92h-689v-30q0 -128 65.5 -214.5t191.5 -86.5q97 0 150.5 42.5t67.5 105.5h201q-8 -56 -34.5 -108t-74 -100t-127.5 -77.5t-182 -29.5q-222 0 -340.5 134t-118.5 361zM244 1494h208l193 -277h-164 zM296 628h490v3q0 123 -66 200.5t-179 77.5t-179 -78t-66 -200v-3z" />
<glyph unicode="&#xe9;" horiz-adv-x="1075" d="M95 477v93q0 228 116.5 365t329.5 137q215 0 329.5 -136.5t114.5 -363.5v-92h-689v-30q0 -128 65.5 -214.5t191.5 -86.5q97 0 150.5 42.5t67.5 105.5h201q-8 -56 -34.5 -108t-74 -100t-127.5 -77.5t-182 -29.5q-222 0 -340.5 134t-118.5 361zM296 628h490v3 q0 123 -66 200.5t-179 77.5t-179 -78t-66 -200v-3zM428 1215l190 279h208l-235 -279h-163z" />
<glyph unicode="&#xea;" horiz-adv-x="1075" d="M95 477v93q0 228 116.5 365t329.5 137q215 0 329.5 -136.5t114.5 -363.5v-92h-689v-30q0 -128 65.5 -214.5t191.5 -86.5q97 0 150.5 42.5t67.5 105.5h201q-8 -56 -34.5 -108t-74 -100t-127.5 -77.5t-182 -29.5q-222 0 -340.5 134t-118.5 361zM257 1217l213 298h133 l204 -300h-162l-108 187h-4l-116 -185h-160zM296 628h490v3q0 123 -66 200.5t-179 77.5t-179 -78t-66 -200v-3z" />
<glyph unicode="&#xeb;" horiz-adv-x="1075" d="M95 477v93q0 228 116.5 365t329.5 137q215 0 329.5 -136.5t114.5 -363.5v-92h-689v-30q0 -128 65.5 -214.5t191.5 -86.5q97 0 150.5 42.5t67.5 105.5h201q-8 -56 -34.5 -108t-74 -100t-127.5 -77.5t-182 -29.5q-222 0 -340.5 134t-118.5 361zM255 1263q0 45 28.5 74 t72.5 29q45 0 73.5 -28.5t28.5 -74.5q0 -44 -28.5 -72.5t-73.5 -28.5q-44 0 -72.5 29t-28.5 72zM296 628h490v3q0 123 -66 200.5t-179 77.5t-179 -78t-66 -200v-3zM618 1263q0 46 28 74.5t72 28.5q46 0 74.5 -28.5t28.5 -74.5q0 -44 -29 -72.5t-74 -28.5q-43 0 -71.5 28.5 t-28.5 72.5z" />
<glyph unicode="&#xec;" horiz-adv-x="540" d="M-22 1494h208l193 -277h-164zM170 0v1054h205v-1054h-205z" />
<glyph unicode="&#xed;" horiz-adv-x="540" d="M162 1215l190 279h208l-235 -279h-163zM170 0v1054h205v-1054h-205z" />
<glyph unicode="&#xee;" horiz-adv-x="540" d="M-9 1217l213 298h133l204 -300h-162l-108 187h-4l-116 -185h-160zM170 0v1054h205v-1054h-205z" />
<glyph unicode="&#xef;" horiz-adv-x="540" d="M-11 1263q0 45 28.5 74t72.5 29q45 0 73.5 -28.5t28.5 -74.5q0 -44 -28.5 -72.5t-73.5 -28.5q-44 0 -72.5 29t-28.5 72zM170 0v1054h205v-1054h-205zM352 1263q0 46 28 74.5t72 28.5q46 0 74.5 -28.5t28.5 -74.5q0 -44 -29 -72.5t-74 -28.5q-43 0 -71.5 28.5t-28.5 72.5z " />
<glyph unicode="&#xf0;" horiz-adv-x="1115" d="M95 455v90q0 213 122.5 342t317.5 129q171 0 261 -113h10q0 2 -5 30.5t-6 30.5q-11 59 -46.5 127.5t-84.5 127.5l-282 -104l-37 108l233 84q-82 76 -197 150l160 81q119 -60 218 -163l243 88l41 -102l-201 -74q86 -113 132 -253t46 -285v-290q0 -222 -127.5 -349.5 t-334.5 -127.5q-209 0 -336 125t-127 348zM295 466q0 -146 70.5 -230t192.5 -84t191.5 84t69.5 230v81q0 147 -69.5 225.5t-191.5 78.5q-119 0 -191 -86t-72 -229v-70z" />
<glyph unicode="&#xf1;" horiz-adv-x="1171" d="M146 0v1054h199v-143h7q31 67 111 113.5t192 46.5q164 0 269.5 -98t105.5 -274v-699h-203v630q0 263 -237 263q-116 0 -179.5 -69.5t-63.5 -200.5v-623h-201zM278 1176q0 98 46.5 165t138.5 67q76 0 148 -74q4 -4 14.5 -15.5t15.5 -16t14 -11t18 -9t19 -2.5q33 0 49.5 34 t19.5 76h124q0 -91 -51.5 -161.5t-134.5 -70.5q-51 0 -84 17t-63 50q-18 19 -25 25.5t-24 16.5t-33 10q-61 0 -68 -101h-124z" />
<glyph unicode="&#xf2;" horiz-adv-x="1115" d="M95 488v80q0 225 118.5 364.5t344.5 139.5q227 0 344.5 -136.5t117.5 -366.5v-81q0 -234 -117 -370t-345 -136q-229 0 -346 135.5t-117 370.5zM264 1494h208l193 -277h-164zM297 499q0 -58 8 -108t26.5 -95t48 -77t75 -50.5t103.5 -18.5q72 0 124 27.5t80.5 78t41 110 t12.5 133.5v57q0 58 -7.5 107.5t-26 95t-47.5 77.5t-74 51t-103 19t-103.5 -19t-74.5 -51t-48 -77.5t-27 -95t-8 -107.5v-57z" />
<glyph unicode="&#xf3;" horiz-adv-x="1115" d="M95 488v80q0 225 118.5 364.5t344.5 139.5q227 0 344.5 -136.5t117.5 -366.5v-81q0 -234 -117 -370t-345 -136q-229 0 -346 135.5t-117 370.5zM297 499q0 -58 8 -108t26.5 -95t48 -77t75 -50.5t103.5 -18.5q72 0 124 27.5t80.5 78t41 110t12.5 133.5v57q0 58 -7.5 107.5 t-26 95t-47.5 77.5t-74 51t-103 19t-103.5 -19t-74.5 -51t-48 -77.5t-27 -95t-8 -107.5v-57zM448 1215l190 279h208l-235 -279h-163z" />
<glyph unicode="&#xf4;" horiz-adv-x="1115" d="M95 488v80q0 225 118.5 364.5t344.5 139.5q227 0 344.5 -136.5t117.5 -366.5v-81q0 -234 -117 -370t-345 -136q-229 0 -346 135.5t-117 370.5zM277 1217l213 298h133l204 -300h-162l-108 187h-4l-116 -185h-160zM297 499q0 -58 8 -108t26.5 -95t48 -77t75 -50.5 t103.5 -18.5q72 0 124 27.5t80.5 78t41 110t12.5 133.5v57q0 58 -7.5 107.5t-26 95t-47.5 77.5t-74 51t-103 19t-103.5 -19t-74.5 -51t-48 -77.5t-27 -95t-8 -107.5v-57z" />
<glyph unicode="&#xf5;" horiz-adv-x="1115" d="M95 488v80q0 225 118.5 364.5t344.5 139.5q227 0 344.5 -136.5t117.5 -366.5v-81q0 -234 -117 -370t-345 -136q-229 0 -346 135.5t-117 370.5zM250 1176q0 98 46.5 165t138.5 67q76 0 148 -74q4 -4 14.5 -15.5t15.5 -16t14 -11t18 -9t19 -2.5q33 0 49.5 34t19.5 76h124 q0 -91 -51.5 -161.5t-134.5 -70.5q-51 0 -84 17t-63 50q-18 19 -25 25.5t-24 16.5t-33 10q-61 0 -68 -101h-124zM297 499q0 -58 8 -108t26.5 -95t48 -77t75 -50.5t103.5 -18.5q72 0 124 27.5t80.5 78t41 110t12.5 133.5v57q0 58 -7.5 107.5t-26 95t-47.5 77.5t-74 51 t-103 19t-103.5 -19t-74.5 -51t-48 -77.5t-27 -95t-8 -107.5v-57z" />
<glyph unicode="&#xf6;" horiz-adv-x="1115" d="M95 488v80q0 225 118.5 364.5t344.5 139.5q227 0 344.5 -136.5t117.5 -366.5v-81q0 -234 -117 -370t-345 -136q-229 0 -346 135.5t-117 370.5zM275 1263q0 45 28.5 74t72.5 29q45 0 73.5 -28.5t28.5 -74.5q0 -44 -28.5 -72.5t-73.5 -28.5q-44 0 -72.5 29t-28.5 72z M297 499q0 -58 8 -108t26.5 -95t48 -77t75 -50.5t103.5 -18.5q72 0 124 27.5t80.5 78t41 110t12.5 133.5v57q0 58 -7.5 107.5t-26 95t-47.5 77.5t-74 51t-103 19t-103.5 -19t-74.5 -51t-48 -77.5t-27 -95t-8 -107.5v-57zM638 1263q0 46 28 74.5t72 28.5q46 0 74.5 -28.5 t28.5 -74.5q0 -44 -29 -72.5t-74 -28.5q-43 0 -71.5 28.5t-28.5 72.5z" />
<glyph unicode="&#xf7;" d="M79 477v157h956v-157h-956zM417 952q0 60 39.5 99.5t97.5 39.5q61 0 101.5 -39.5t40.5 -99.5q0 -59 -40.5 -97t-101.5 -38q-58 0 -97.5 38t-39.5 97zM422 166q0 61 40 100.5t98 39.5q60 0 101 -40t41 -100q0 -58 -41 -96.5t-101 -38.5q-58 0 -98 38.5t-40 96.5z" />
<glyph unicode="&#xf8;" horiz-adv-x="1115" d="M86 0l108 146q-99 126 -99 309v146q0 213 129.5 342t333.5 129q151 0 269 -80l101 135l99 -77l-107 -144q100 -125 100 -304v-146q0 -222 -128 -348t-334 -126q-154 0 -272 79l-101 -136zM292 442q0 -81 30 -141l402 553q-66 58 -166 58q-121 0 -193.5 -90.5 t-72.5 -231.5v-148zM390 201q67 -56 168 -56q125 0 194.5 89t69.5 233v148q0 77 -30 137z" />
<glyph unicode="&#xf9;" horiz-adv-x="1166" d="M138 352v702h203v-646q0 -133 64.5 -190t170.5 -57q108 0 174.5 66t66.5 184v643h203v-1054h-199v143h-9q-30 -69 -107.5 -114.5t-196.5 -45.5q-168 0 -269 95.5t-101 273.5zM289 1494h208l193 -277h-164z" />
<glyph unicode="&#xfa;" horiz-adv-x="1166" d="M138 352v702h203v-646q0 -133 64.5 -190t170.5 -57q108 0 174.5 66t66.5 184v643h203v-1054h-199v143h-9q-30 -69 -107.5 -114.5t-196.5 -45.5q-168 0 -269 95.5t-101 273.5zM473 1215l190 279h208l-235 -279h-163z" />
<glyph unicode="&#xfb;" horiz-adv-x="1166" d="M138 352v702h203v-646q0 -133 64.5 -190t170.5 -57q108 0 174.5 66t66.5 184v643h203v-1054h-199v143h-9q-30 -69 -107.5 -114.5t-196.5 -45.5q-168 0 -269 95.5t-101 273.5zM302 1217l213 298h133l204 -300h-162l-108 187h-4l-116 -185h-160z" />
<glyph unicode="&#xfc;" horiz-adv-x="1166" d="M138 352v702h203v-646q0 -133 64.5 -190t170.5 -57q108 0 174.5 66t66.5 184v643h203v-1054h-199v143h-9q-30 -69 -107.5 -114.5t-196.5 -45.5q-168 0 -269 95.5t-101 273.5zM300 1263q0 45 28.5 74t72.5 29q45 0 73.5 -28.5t28.5 -74.5q0 -44 -28.5 -72.5t-73.5 -28.5 q-43 0 -72 29t-29 72zM663 1263q0 46 28 74.5t72 28.5q46 0 74.5 -28.5t28.5 -74.5q0 -44 -29 -72.5t-74 -28.5q-43 0 -71.5 28.5t-28.5 72.5z" />
<glyph unicode="&#xfd;" horiz-adv-x="1052" d="M31 1054h224l264 -864h9l266 864h215q-365 -1044 -366 -1048l-27 -73q-21 -57 -41 -97.5t-52 -84.5t-70 -71t-93.5 -44.5t-124.5 -17.5q-61 0 -119 9v157q27 -5 80 -5q91 0 136.5 39.5t65.5 120.5l14 50zM416 1215l190 279h208l-235 -279h-163z" />
<glyph unicode="&#xfe;" horiz-adv-x="1164" d="M145 1437h195l2 -550h10q30 79 111.5 131t202.5 52q183 0 291.5 -121.5t108.5 -334.5v-172q0 -214 -110 -336t-296 -122q-119 0 -193.5 48.5t-107.5 124.5h-10v-519h-202zM349 433q0 -124 72 -201.5t189 -77.5q115 0 183.5 81t68.5 239v106q0 157 -67.5 239.5 t-188.5 82.5q-120 0 -188.5 -80t-68.5 -218v-171z" />
<glyph unicode="&#xff;" horiz-adv-x="1052" d="M31 1054h224l264 -864h9l266 864h215q-365 -1044 -366 -1048l-27 -73q-21 -57 -41 -97.5t-52 -84.5t-70 -71t-93.5 -44.5t-124.5 -17.5q-61 0 -119 9v157q27 -5 80 -5q91 0 136.5 39.5t65.5 120.5l14 50zM243 1263q0 45 28.5 74t72.5 29q45 0 73.5 -28.5t28.5 -74.5 q0 -44 -28.5 -72.5t-73.5 -28.5q-44 0 -72.5 29t-28.5 72zM606 1263q0 46 28 74.5t72 28.5q46 0 74.5 -28.5t28.5 -74.5q0 -44 -29 -72.5t-74 -28.5q-43 0 -71.5 28.5t-28.5 72.5z" />
<glyph unicode="&#x152;" horiz-adv-x="1958" d="M103 581v191q0 292 148.5 456.5t396.5 164.5q119 0 217.5 -42.5t150.5 -124.5h15v139h815v-177h-625v-408h589v-170h-589v-433h625v-177h-815v144h-14q-55 -82 -154 -127t-219 -45q-250 0 -395.5 161.5t-145.5 447.5zM314 579q0 -211 97 -319.5t254 -108.5 q160 0 257.5 104t97.5 313v224q0 209 -98 315.5t-257 106.5q-156 0 -253.5 -114.5t-97.5 -325.5v-195z" />
<glyph unicode="&#x153;" horiz-adv-x="1802" d="M95 455v146q0 213 129.5 342t333.5 129q115 0 207.5 -43.5t146.5 -128.5h13q50 79 141 125.5t199 46.5q197 0 320.5 -128t123.5 -341v-126h-689v-51q0 -122 68 -199.5t189 -77.5q87 0 146 35t72 87h202q-6 -47 -34 -95.5t-76.5 -93t-129 -72.5t-178.5 -28 q-117 0 -211 46.5t-143 124.5h-13q-52 -78 -147.5 -124.5t-206.5 -46.5q-209 0 -336 124.5t-127 348.5zM297 466q0 -143 68.5 -229.5t192.5 -86.5t191 86.5t67 229.5v123q0 141 -69 229t-189 88t-190.5 -88t-70.5 -229v-123zM1020 615h491v16q0 125 -67 201.5t-178 76.5 t-178.5 -76.5t-67.5 -201.5v-16z" />
<glyph unicode="&#x178;" horiz-adv-x="1108" d="M-5 1365h232l324 -597h7l327 597h228l-457 -797v-568h-205v565zM333 1583q0 40 25.5 65.5t64.5 25.5q40 0 65 -25.5t25 -65.5q0 -39 -25.5 -64.5t-64.5 -25.5t-64.5 26t-25.5 64zM642 1583q0 40 25 65.5t64 25.5q40 0 65 -25.5t25 -65.5q0 -39 -25 -64.5t-65 -25.5 q-39 0 -64 25.5t-25 64.5z" />
<glyph unicode="&#x2c6;" horiz-adv-x="946" d="M222 1204l213 298h133l204 -300h-162l-108 187h-4l-116 -185h-160z" />
<glyph unicode="&#x2dc;" horiz-adv-x="946" d="M118 1244q0 98 46.5 165t138.5 67q76 0 148 -74q4 -4 14.5 -15.5t15.5 -16t14 -11t18 -9t19 -2.5q33 0 49.5 34t19.5 76h124q0 -91 -51.5 -161.5t-134.5 -70.5q-51 0 -84 17t-63 50q-18 19 -25 25.5t-24 16.5t-33 10q-61 0 -68 -101h-124z" />
<glyph unicode="&#x2000;" horiz-adv-x="872" />
<glyph unicode="&#x2001;" horiz-adv-x="1745" />
<glyph unicode="&#x2002;" horiz-adv-x="872" />
<glyph unicode="&#x2003;" horiz-adv-x="1745" />
<glyph unicode="&#x2004;" horiz-adv-x="581" />
<glyph unicode="&#x2005;" horiz-adv-x="436" />
<glyph unicode="&#x2006;" horiz-adv-x="290" />
<glyph unicode="&#x2007;" horiz-adv-x="290" />
<glyph unicode="&#x2008;" horiz-adv-x="218" />
<glyph unicode="&#x2009;" horiz-adv-x="349" />
<glyph unicode="&#x200a;" horiz-adv-x="96" />
<glyph unicode="&#x2010;" horiz-adv-x="787" d="M78 470v180h630v-180h-630z" />
<glyph unicode="&#x2011;" horiz-adv-x="787" d="M78 470v180h630v-180h-630z" />
<glyph unicode="&#x2012;" horiz-adv-x="787" d="M78 470v180h630v-180h-630z" />
<glyph unicode="&#x2013;" horiz-adv-x="1171" d="M0 470v180h1171v-180h-1171z" />
<glyph unicode="&#x2014;" horiz-adv-x="2048" d="M0 470v180h2048v-180h-2048z" />
<glyph unicode="&#x2018;" horiz-adv-x="573" d="M116 806l174 559h167l-112 -559h-229z" />
<glyph unicode="&#x2019;" horiz-adv-x="573" d="M116 806l112 559h229l-173 -559h-168z" />
<glyph unicode="&#x201a;" horiz-adv-x="573" d="M116 -453l112 559h229l-173 -559h-168z" />
<glyph unicode="&#x201c;" horiz-adv-x="980" d="M116 806l122 559h179l-79 -559h-222zM567 806l122 559h175l-75 -559h-222z" />
<glyph unicode="&#x201d;" horiz-adv-x="980" d="M116 806l74 559h223l-122 -559h-175zM562 806l80 559h222l-123 -559h-179z" />
<glyph unicode="&#x201e;" horiz-adv-x="980" d="M116 -452l74 559h223l-122 -559h-175zM562 -452l80 559h222l-123 -559h-179z" />
<glyph unicode="&#x2022;" horiz-adv-x="930" d="M154 604q0 128 90.5 218.5t218.5 90.5q127 0 218 -90.5t91 -218.5q0 -127 -91 -217.5t-218 -90.5t-218 90.5t-91 217.5z" />
<glyph unicode="&#x2026;" horiz-adv-x="1404" d="M124 110q0 58 37.5 95t92.5 37q58 0 96.5 -37t38.5 -95q0 -56 -38.5 -92t-96.5 -36q-55 0 -92.5 36t-37.5 92zM562 110q0 58 37.5 95t92.5 37q58 0 96.5 -37t38.5 -95q0 -56 -38.5 -92t-96.5 -36q-55 0 -92.5 36t-37.5 92zM1000 110q0 58 37.5 95t93.5 37q58 0 96 -37 t38 -95q0 -56 -38.5 -92t-95.5 -36q-55 0 -93 36.5t-38 91.5z" />
<glyph unicode="&#x202f;" horiz-adv-x="349" />
<glyph unicode="&#x2039;" horiz-adv-x="800" d="M105 557v8l344 404h212l-339 -403v-6l339 -405h-221z" />
<glyph unicode="&#x203a;" horiz-adv-x="800" d="M120 155l339 405v6l-339 403h212l344 -404v-8l-335 -402h-221z" />
<glyph unicode="&#x205f;" horiz-adv-x="436" />
<glyph unicode="&#x20ac;" d="M31 464v135h118v153h-118v135h122q16 254 133 380t345 126q97 0 175 -26.5t128.5 -71t84 -106.5t47.5 -129.5t14 -143.5h-201q0 297 -247 297q-135 0 -199 -77t-73 -249h333v-135h-337v-153h337v-135h-333q8 -171 70.5 -241t200.5 -70q75 0 126 21.5t76.5 62t35.5 86 t10 106.5h201q0 -69 -13 -131.5t-45.5 -123.5t-82 -104.5t-129 -70.5t-180.5 -27q-232 0 -347 118.5t-130 373.5h-122z" />
<glyph unicode="&#x2122;" horiz-adv-x="1758" d="M67 1240v125h615v-125h-237v-565h-144v565h-234zM858 675v690h152l228 -450h9l228 450h152v-690h-127v469h-10l-208 -410h-79l-209 410h-9v-469h-127z" />
<glyph unicode="&#x25fc;" horiz-adv-x="1055" d="M0 0v1055h1055v-1055h-1055z" />
<glyph unicode="&#xfb01;" horiz-adv-x="1333" d="M63 887v163h151v105q0 153 80 224.5t250 71.5q33 0 90 -6v-156q-45 3 -58 3q-85 0 -124 -33.5t-39 -119.5v-89h205v-163h-202v-887h-202v887h-151zM937 1312q0 50 35.5 83t88.5 33q56 0 91.5 -32.5t35.5 -83.5t-35.5 -84t-91.5 -33q-53 0 -88.5 33.5t-35.5 83.5zM962 0 v1054h201v-1054h-201z" />
<glyph unicode="&#xfb02;" horiz-adv-x="1305" d="M63 887v163h151v105q0 153 80 224.5t250 71.5q33 0 90 -6v-156q-45 3 -58 3q-85 0 -124 -33.5t-39 -119.5v-89h205v-163h-202v-887h-202v887h-151zM951 0v1437h201v-1437h-201z" />
</font>
</defs>
</svg>
